# Made in Blockbench 4.12.6
mtllib BonnieBowl.mtl

o Bowl
v 0 0 0
v 0.075360625 0.8705125 0.28125
v 0.116025625 0.6875 0.4330125
v 0.133974375 0.4375 0.5
v 0.116025625 0.1875 0.4330125
v 0.0669875 0.004487499999999978 0.25
v 0.205889375 0.8705125 0.205889375
v 0.3169875 0.6875 0.3169875
v 0.366025625 0.4375 0.366025625
v 0.3169875 0.1875 0.3169875
v 0.1830125 0.004487499999999978 0.1830125
v 0.28125 0.8705125 0.075360625
v 0.4330125 0.6875 0.116025625
v 0.5 0.4375 0.133974375
v 0.4330125 0.1875 0.116025625
v 0.25 0.004487499999999978 0.0669875
v 0.28125 0.8705125 -0.075360625
v 0.4330125 0.6875 -0.116025625
v 0.5 0.4375 -0.133974375
v 0.4330125 0.1875 -0.116025625
v 0.25 0.004487499999999978 -0.0669875
v 0.205889375 0.8705125 -0.205889375
v 0.3169875 0.6875 -0.3169875
v 0.366025625 0.4375 -0.366025625
v 0.3169875 0.1875 -0.3169875
v 0.1830125 0.004487499999999978 -0.1830125
v 0.075360625 0.8705125 -0.28125
v 0.116025625 0.6875 -0.4330125
v 0.133974375 0.4375 -0.5
v 0.116025625 0.1875 -0.4330125
v 0.0669875 0.004487499999999978 -0.25
v -0.075360625 0.8705125 -0.28125
v -0.116025625 0.6875 -0.4330125
v -0.133974375 0.4375 -0.5
v -0.116025625 0.1875 -0.4330125
v -0.0669875 0.004487499999999978 -0.25
v -0.205889375 0.8705125 -0.205889375
v -0.3169875 0.6875 -0.3169875
v -0.366025625 0.4375 -0.366025625
v -0.3169875 0.1875 -0.3169875
v -0.1830125 0.004487499999999978 -0.1830125
v -0.28125 0.8705125 -0.075360625
v -0.4330125 0.6875 -0.116025625
v -0.5 0.4375 -0.133974375
v -0.4330125 0.1875 -0.116025625
v -0.25 0.004487499999999978 -0.0669875
v -0.28125 0.8705125 0.075360625
v -0.4330125 0.6875 0.116025625
v -0.5 0.4375 0.133974375
v -0.4330125 0.1875 0.116025625
v -0.25 0.004487499999999978 0.0669875
v -0.205889375 0.8705125 0.205889375
v -0.3169875 0.6875 0.3169875
v -0.366025625 0.4375 0.366025625
v -0.3169875 0.1875 0.3169875
v -0.1830125 0.004487499999999978 0.1830125
v -0.075360625 0.8705125 0.28125
v -0.116025625 0.6875 0.4330125
v -0.133974375 0.4375 0.5
v -0.116025625 0.1875 0.4330125
v -0.0669875 0.004487499999999978 0.25
v 0.296875 0.9017625 0.0795475
v 0.2173275 0.9017625 0.2173275
v 0.0795475 0.9017625 0.296875
v -0.0795475 0.9017625 0.296875
v -0.2173275 0.9017625 0.2173275
v -0.296875 0.9017625 0.0795475
v -0.296875 0.9017625 -0.0795475
v -0.2173275 0.9017625 -0.2173275
v -0.0795475 0.9017625 -0.296875
v 0.0795475 0.9017625 -0.296875
v 0.2173275 0.9017625 -0.2173275
v 0.296875 0.9017625 -0.0795475
vt 0.06514375 0.752796875
vt 0.054978125 0.693359375
vt 0.000263125 0.71263921875
vt 0.029604375 0.76531984375
vt 0.0715796875 0.99199203125
vt 0.0670921875 0.9272857812499999
vt 0.0007459375 0.93653265625
vt 0.0141225 1
vt 0.0670921875 0.9272857812499999
vt 0.0715796875 0.86257953125
vt 0.0141225 0.85457140625
vt 0.0007459375 0.91803875
vt 0.0715796875 0.86257953125
vt 0.0838390625 0.79787328125
vt 0.0526665625 0.78562140625
vt 0.01758765625 0.84135890625
vt 0.23647203125 0.9832553125
vt 0.2654796875 1
vt 0.2822265625 0.937490625
vt 0.544614375 0.90594484375
vt 0.573955625 0.85326421875
vt 0.519240625 0.833984375
vt 0.509075 0.893421875
vt 0.187049375 0.65625
vt 0.2004259375 0.59278265625
vt 0.1340796875 0.5835357812499999
vt 0.1295921875 0.64824203125
vt 0.2004259375 0.57428875
vt 0.187049375 0.51082140625
vt 0.1295921875 0.51882953125
vt 0.1340796875 0.5835357812499999
vt 0.18358421875 0.49760890625
vt 0.1485053125 0.44187140625
vt 0.1173328125 0.45412328125
vt 0.1295921875 0.51882953125
vt 0.2197209375 0.95425125
vt 0.23647203125 0.9832553125
vt 0.2822265625 0.937490625
vt 0.509075 0.893421875
vt 0.519240625 0.833984375
vt 0.461228125 0.833984375
vt 0.47139375 0.893421875
vt 0.1295921875 0.64824203125
vt 0.1340796875 0.5835357812499999
vt 0.0670921875 0.5835357812499999
vt 0.0715796875 0.64824203125
vt 0.1340796875 0.5835357812499999
vt 0.1295921875 0.51882953125
vt 0.0715796875 0.51882953125
vt 0.0670921875 0.5835357812499999
vt 0.1295921875 0.51882953125
vt 0.1173328125 0.45412328125
vt 0.0838390625 0.45412328125
vt 0.0715796875 0.51882953125
vt 0.2197134375 0.9207575
vt 0.2197209375 0.95425125
vt 0.2822265625 0.937490625
vt 0.47139375 0.893421875
vt 0.461228125 0.833984375
vt 0.406513125 0.85326421875
vt 0.435854375 0.90594484375
vt 0.0715796875 0.64824203125
vt 0.0670921875 0.5835357812499999
vt 0.0007459375 0.59278265625
vt 0.0141225 0.65625
vt 0.0670921875 0.5835357812499999
vt 0.0715796875 0.51882953125
vt 0.0141225 0.51082140625
vt 0.0007459375 0.57428875
vt 0.0715796875 0.51882953125
vt 0.0838390625 0.45412328125
vt 0.0526665625 0.44187140625
vt 0.01758765625 0.49760890625
vt 0.236451875 0.89174609375
vt 0.2197134375 0.9207575
vt 0.2822265625 0.937490625
vt 0.513364375 0.99969484375
vt 0.542705625 0.94701421875
vt 0.487990625 0.927734375
vt 0.477825 0.987171875
vt 0.390174375 0.828125
vt 0.4035509375 0.76465765625
vt 0.3372046875 0.7554107812499999
vt 0.3327171875 0.82011703125
vt 0.4035509375 0.74616375
vt 0.390174375 0.68269640625
vt 0.3327171875 0.69070453125
vt 0.3372046875 0.7554107812499999
vt 0.38670921875 0.66948390625
vt 0.3516303125 0.61374640625
vt 0.3204578125 0.62599828125
vt 0.3327171875 0.69070453125
vt 0.2654521875 0.8749885937499999
vt 0.236451875 0.89174609375
vt 0.2822265625 0.937490625
vt 0.477825 0.987171875
vt 0.487990625 0.927734375
vt 0.429978125 0.927734375
vt 0.44014375 0.987171875
vt 0.3327171875 0.82011703125
vt 0.3372046875 0.7554107812499999
vt 0.2702171875 0.7554107812499999
vt 0.2747046875 0.82011703125
vt 0.3372046875 0.7554107812499999
vt 0.3327171875 0.69070453125
vt 0.2747046875 0.69070453125
vt 0.2702171875 0.7554107812499999
vt 0.3327171875 0.69070453125
vt 0.3204578125 0.62599828125
vt 0.2869640625 0.62599828125
vt 0.2747046875 0.69070453125
vt 0.2990009375 0.8749885937499999
vt 0.2655071875 0.8749739062499999
vt 0.2822265625 0.937490625
vt 0.44014375 0.987171875
vt 0.429978125 0.927734375
vt 0.375263125 0.94701421875
vt 0.404604375 0.99969484375
vt 0.2747046875 0.82011703125
vt 0.2702171875 0.7554107812499999
vt 0.2038709375 0.76465765625
vt 0.2172475 0.828125
vt 0.2702171875 0.7554107812499999
vt 0.2747046875 0.69070453125
vt 0.2172475 0.68269640625
vt 0.2038709375 0.74616375
vt 0.2747046875 0.69070453125
vt 0.2869640625 0.62599828125
vt 0.2557915625 0.61374640625
vt 0.22071265625 0.66948390625
vt 0.32800125 0.89174609375
vt 0.2990009375 0.8749885937499999
vt 0.2822265625 0.937490625
vt 0.560239375 0.81219484375
vt 0.589580625 0.75951421875
vt 0.534865625 0.740234375
vt 0.5247 0.799671875
vt 0.562049375 0.609375
vt 0.5754259375 0.54590765625
vt 0.5090796875 0.5366607812499999
vt 0.5045921875 0.60136703125
vt 0.5754259375 0.52741375
vt 0.562049375 0.46394640625000005
vt 0.5045921875 0.47195453125
vt 0.5090796875 0.5366607812499999
vt 0.55858421875 0.45073390625
vt 0.5235053125 0.39499640625
vt 0.4923328125 0.40724828125
vt 0.5045921875 0.47195453125
vt 0.3447396875 0.9207575
vt 0.32800125 0.89174609375
vt 0.2822265625 0.937490625
vt 0.5247 0.799671875
vt 0.534865625 0.740234375
vt 0.476853125 0.740234375
vt 0.48701875 0.799671875
vt 0.5045921875 0.60136703125
vt 0.5090796875 0.5366607812499999
vt 0.4420921875 0.5366607812499999
vt 0.4465796875 0.60136703125
vt 0.5090796875 0.5366607812499999
vt 0.5045921875 0.47195453125
vt 0.4465796875 0.47195453125
vt 0.4420921875 0.5366607812499999
vt 0.5045921875 0.47195453125
vt 0.4923328125 0.40724828125
vt 0.4588390625 0.40724828125
vt 0.4465796875 0.47195453125
vt 0.3447321875 0.95425125
vt 0.3447396875 0.9207575
vt 0.2822265625 0.937490625
vt 0.48701875 0.799671875
vt 0.476853125 0.740234375
vt 0.422138125 0.75951421875
vt 0.451479375 0.81219484375
vt 0.4465796875 0.60136703125
vt 0.4420921875 0.5366607812499999
vt 0.3757459375 0.54590765625
vt 0.3891225 0.609375
vt 0.4420921875 0.5366607812499999
vt 0.4465796875 0.47195453125
vt 0.3891225 0.46394640625000005
vt 0.3757459375 0.52741375
vt 0.4465796875 0.47195453125
vt 0.4588390625 0.40724828125
vt 0.4276665625 0.39499640625
vt 0.39258765625 0.45073390625
vt 0.32798109375 0.9832553125
vt 0.3447321875 0.95425125
vt 0.2822265625 0.937490625
vt 0.138364375 0.76531984375
vt 0.167705625 0.71263921875
vt 0.112990625 0.693359375
vt 0.102825 0.752796875
vt 0.187049375 1
vt 0.2004259375 0.93653265625
vt 0.1340796875 0.9272857812499999
vt 0.1295921875 0.99199203125
vt 0.2004259375 0.91803875
vt 0.187049375 0.85457140625
vt 0.1295921875 0.86257953125
vt 0.1340796875 0.9272857812499999
vt 0.18358421875 0.84135890625
vt 0.1485053125 0.78562140625
vt 0.1173328125 0.79787328125
vt 0.1295921875 0.86257953125
vt 0.2989734375 1
vt 0.32798109375 0.9832553125
vt 0.2822265625 0.937490625
vt 0.102825 0.752796875
vt 0.112990625 0.693359375
vt 0.054978125 0.693359375
vt 0.06514375 0.752796875
vt 0.1295921875 0.99199203125
vt 0.1340796875 0.9272857812499999
vt 0.0670921875 0.9272857812499999
vt 0.0715796875 0.99199203125
vt 0.1340796875 0.9272857812499999
vt 0.1295921875 0.86257953125
vt 0.0715796875 0.86257953125
vt 0.0670921875 0.9272857812499999
vt 0.1295921875 0.86257953125
vt 0.1173328125 0.79787328125
vt 0.0838390625 0.79787328125
vt 0.0715796875 0.86257953125
vt 0.2654796875 1
vt 0.2989734375 1
vt 0.2822265625 0.937490625
vt 0.258503125 0.5362470312500001
vt 0.25745625 0.5449829687500001
vt 0.2188075 0.535585
vt 0.22188875 0.52734375
vt 0.33279875 0.57421875
vt 0.33588 0.58246
vt 0.29723125 0.5918579687500001
vt 0.296184375 0.5831220312500001
vt 0.296184375 0.5831220312500001
vt 0.29723125 0.5918579687500001
vt 0.25745625 0.5918579687500001
vt 0.258503125 0.5831220312500001
vt 0.258503125 0.5831220312500001
vt 0.25745625 0.5918579687500001
vt 0.2188075 0.58246
vt 0.22188875 0.57421875
vt 0.53592375 0.69921875
vt 0.539005 0.70746
vt 0.50035625 0.7168579687500001
vt 0.499309375 0.7081220312500001
vt 0.499309375 0.7081220312500001
vt 0.50035625 0.7168579687500001
vt 0.46058125 0.7168579687500001
vt 0.461628125 0.7081220312500001
vt 0.461628125 0.7081220312500001
vt 0.46058125 0.7168579687500001
vt 0.4219325 0.70746
vt 0.42501375 0.69921875
vt 0.52029875 0.63671875
vt 0.52338 0.64496
vt 0.48473125 0.6543579687500001
vt 0.483684375 0.6456220312500001
vt 0.483684375 0.6456220312500001
vt 0.48473125 0.6543579687500001
vt 0.44495625 0.6543579687500001
vt 0.446003125 0.6456220312500001
vt 0.446003125 0.6456220312500001
vt 0.44495625 0.6543579687500001
vt 0.4063075 0.64496
vt 0.40938875 0.63671875
vt 0.33279875 0.52734375
vt 0.33588 0.535585
vt 0.29723125 0.5449829687500001
vt 0.296184375 0.5362470312500001
vt 0.296184375 0.5362470312500001
vt 0.29723125 0.5449829687500001
vt 0.25745625 0.5449829687500001
vt 0.258503125 0.5362470312500001
vn 0.38488185103830347 0.63832658980377 0.6666371767992082
vn 0.48296163347596527 0.25881897762201533 0.8365170634320152
vn 0.4829616970818543 -0.2588189727524458 0.836517028215914
vn 0.35355521032211207 -0.7071065857108768 0.6123716107874316
vn 0.008973601308484003 -0.9998389375573522 0.015542632458546094
vn 0.666637066637819 0.6383267431997266 0.38488178743681106
vn 0.836517048823622 0.25881904057539434 0.48296162504183543
vn 0.836517011347562 -0.2588190454448889 0.4829616873429397
vn 0.6123699502175285 -0.7071085031708112 0.3535542515854058
vn 0.015542632458546094 -0.9998389375573522 0.008973601308484003
vn 0.7697661515955281 0.6383259918394445 0
vn 0.9659256312759249 0.258819772900384 0
vn 0.9659256312759249 -0.258819772900384 0
vn 0.7071067811865476 -0.7071067811865476 0
vn 0.01794710893117586 -0.9998389376699693 0
vn 0.6666371767992082 0.63832658980377 -0.38488185103830347
vn 0.8365170634320152 0.25881897762201533 -0.48296163347596527
vn 0.8365170282159139 -0.2588189727524458 -0.48296169708185427
vn 0.6123716107874316 -0.7071065857108768 -0.35355521032211207
vn 0.015542632458546094 -0.9998389375573522 -0.008973601308484003
vn 0.38488178743681106 0.6383267431997266 -0.666637066637819
vn 0.48296162504183543 0.25881904057539434 -0.836517048823622
vn 0.4829616873429397 -0.2588190454448889 -0.836517011347562
vn 0.3535542515854058 -0.7071085031708112 -0.6123699502175285
vn 0.008973601308484003 -0.9998389375573522 -0.015542632458546094
vn 0 0.6383259918394445 -0.7697661515955281
vn 0 0.258819772900384 -0.9659256312759249
vn 0 -0.258819772900384 -0.9659256312759249
vn 0 -0.7071067811865476 -0.7071067811865476
vn 0 -0.9998389376699693 -0.01794710893117586
vn -0.38488185103830347 0.63832658980377 -0.6666371767992082
vn -0.48296163347596527 0.25881897762201533 -0.8365170634320152
vn -0.4829616970818543 -0.2588189727524458 -0.836517028215914
vn -0.35355521032211207 -0.7071065857108768 -0.6123716107874316
vn -0.008973601308484003 -0.9998389375573522 -0.015542632458546094
vn -0.666637066637819 0.6383267431997266 -0.38488178743681106
vn -0.836517048823622 0.25881904057539434 -0.48296162504183543
vn -0.836517011347562 -0.2588190454448889 -0.4829616873429397
vn -0.6123699502175285 -0.7071085031708112 -0.3535542515854058
vn -0.015542632458546094 -0.9998389375573522 -0.008973601308484003
vn -0.7697661515955281 0.6383259918394445 0
vn -0.9659256312759249 0.258819772900384 0
vn -0.9659256312759249 -0.258819772900384 0
vn -0.7071067811865476 -0.7071067811865476 0
vn -0.01794710893117586 -0.9998389376699693 0
vn -0.6666371767992082 0.63832658980377 0.38488185103830347
vn -0.8365170634320152 0.25881897762201533 0.48296163347596527
vn -0.8365170282159139 -0.2588189727524458 0.48296169708185427
vn -0.6123716107874316 -0.7071065857108768 0.35355521032211207
vn -0.015542632458546094 -0.9998389375573522 0.008973601308484003
vn -0.38488178743681106 0.6383267431997266 0.666637066637819
vn -0.48296162504183543 0.25881904057539434 0.836517048823622
vn -0.4829616873429397 -0.2588190454448889 0.836517011347562
vn -0.3535542515854058 -0.7071085031708112 0.6123699502175285
vn -0.008973601308484003 -0.9998389375573522 0.015542632458546094
vn 0 0.6383259918394445 0.7697661515955281
vn 0 0.258819772900384 0.9659256312759249
vn 0 -0.258819772900384 0.9659256312759249
vn 0 -0.7071067811865476 0.7071067811865476
vn 0 -0.9998389376699693 0.01794710893117586
vn 0.7745954347681933 -0.44721543493323945 0.44721389423154917
vn 0.4472156510995978 -0.4472084074400778 0.7745984777460335
vn 0 -0.44721359549995804 0.8944271909999161
vn -0.44721389423154917 -0.44721543493323945 0.7745954347681933
vn -0.7745984777460335 -0.4472084074400778 0.4472156510995978
vn -0.8944271909999161 -0.44721359549995804 0
vn -0.7745954347681933 -0.44721543493323945 -0.44721389423154917
vn -0.4472156510995978 -0.4472084074400778 -0.7745984777460335
vn 0 -0.44721359549995804 -0.8944271909999161
vn 0.44721389423154917 -0.44721543493323945 -0.7745954347681933
vn 0.7745984777460335 -0.4472084074400778 -0.4472156510995978
vn 0.8944271909999161 -0.44721359549995804 0
usemtl m_f7244fd5-4270-8d41-fc39-c1330b179e32
f 2/1/1 3/2/1 8/3/1 7/4/1
f 3/5/2 4/6/2 9/7/2 8/8/2
f 4/9/3 5/10/3 10/11/3 9/12/3
f 5/13/4 6/14/4 11/15/4 10/16/4
f 11/17/5 6/18/5 1/19/5
f 7/20/6 8/21/6 13/22/6 12/23/6
f 8/24/7 9/25/7 14/26/7 13/27/7
f 9/28/8 10/29/8 15/30/8 14/31/8
f 10/32/9 11/33/9 16/34/9 15/35/9
f 16/36/10 11/37/10 1/38/10
f 12/39/11 13/40/11 18/41/11 17/42/11
f 13/43/12 14/44/12 19/45/12 18/46/12
f 14/47/13 15/48/13 20/49/13 19/50/13
f 15/51/14 16/52/14 21/53/14 20/54/14
f 21/55/15 16/56/15 1/57/15
f 17/58/16 18/59/16 23/60/16 22/61/16
f 18/62/17 19/63/17 24/64/17 23/65/17
f 19/66/18 20/67/18 25/68/18 24/69/18
f 20/70/19 21/71/19 26/72/19 25/73/19
f 26/74/20 21/75/20 1/76/20
f 22/77/21 23/78/21 28/79/21 27/80/21
f 23/81/22 24/82/22 29/83/22 28/84/22
f 24/85/23 25/86/23 30/87/23 29/88/23
f 25/89/24 26/90/24 31/91/24 30/92/24
f 31/93/25 26/94/25 1/95/25
f 27/96/26 28/97/26 33/98/26 32/99/26
f 28/100/27 29/101/27 34/102/27 33/103/27
f 29/104/28 30/105/28 35/106/28 34/107/28
f 30/108/29 31/109/29 36/110/29 35/111/29
f 36/112/30 31/113/30 1/114/30
f 32/115/31 33/116/31 38/117/31 37/118/31
f 33/119/32 34/120/32 39/121/32 38/122/32
f 34/123/33 35/124/33 40/125/33 39/126/33
f 35/127/34 36/128/34 41/129/34 40/130/34
f 41/131/35 36/132/35 1/133/35
f 37/134/36 38/135/36 43/136/36 42/137/36
f 38/138/37 39/139/37 44/140/37 43/141/37
f 39/142/38 40/143/38 45/144/38 44/145/38
f 40/146/39 41/147/39 46/148/39 45/149/39
f 46/150/40 41/151/40 1/152/40
f 42/153/41 43/154/41 48/155/41 47/156/41
f 43/157/42 44/158/42 49/159/42 48/160/42
f 44/161/43 45/162/43 50/163/43 49/164/43
f 45/165/44 46/166/44 51/167/44 50/168/44
f 51/169/45 46/170/45 1/171/45
f 47/172/46 48/173/46 53/174/46 52/175/46
f 48/176/47 49/177/47 54/178/47 53/179/47
f 49/180/48 50/181/48 55/182/48 54/183/48
f 50/184/49 51/185/49 56/186/49 55/187/49
f 56/188/50 51/189/50 1/190/50
f 52/191/51 53/192/51 58/193/51 57/194/51
f 53/195/52 54/196/52 59/197/52 58/198/52
f 54/199/53 55/200/53 60/201/53 59/202/53
f 55/203/54 56/204/54 61/205/54 60/206/54
f 61/207/55 56/208/55 1/209/55
f 57/210/56 58/211/56 3/212/56 2/213/56
f 58/214/57 59/215/57 4/216/57 3/217/57
f 59/218/58 60/219/58 5/220/58 4/221/58
f 60/222/59 61/223/59 6/224/59 5/225/59
f 6/226/60 61/227/60 1/228/60
f 12/229/61 62/230/61 63/231/61 7/232/61
f 7/233/62 63/234/62 64/235/62 2/236/62
f 2/237/63 64/238/63 65/239/63 57/240/63
f 57/241/64 65/242/64 66/243/64 52/244/64
f 52/245/65 66/246/65 67/247/65 47/248/65
f 47/249/66 67/250/66 68/251/66 42/252/66
f 42/253/67 68/254/67 69/255/67 37/256/67
f 37/257/68 69/258/68 70/259/68 32/260/68
f 32/261/69 70/262/69 71/263/69 27/264/69
f 27/265/70 71/266/70 72/267/70 22/268/70
f 22/269/71 72/270/71 73/271/71 17/272/71
f 17/273/72 73/274/72 62/275/72 12/276/72