# Made in Blockbench 4.12.5
mtllib HomeBalcony.mtl

o cuboid
v 2 0.1875 1.5
v 2 0.1875 -0.5
v 2 0 1.5
v 2 0 -0.5
v -2 0.1875 1.5
v -2 0.1875 -0.5
v -2 0 1.5
v -2 0 -0.5
vt 0.625 0.53125
vt 0.5 0.53125
vt 0.5 0.51953125
vt 0.625 0.51953125
vt 0.6328125 0.98828125
vt 0.6328125 1
vt 0.5078125 1
vt 0.5078125 0.98828125
vt 0.25390625 0.875
vt 0.50390625 0.875
vt 0.50390625 1
vt 0.25390625 1
vt 0.50390625 0.74609375
vt 0.50390625 0.87109375
vt 0.25390625 0.87109375
vt 0.25390625 0.74609375
vt 0.5078125 0.4921875
vt 0.5078125 0.50390625
vt 0.2578125 0.50390625
vt 0.2578125 0.4921875
vt 0.75 0.5859375
vt 0.5 0.5859375
vt 0.5 0.57421875
vt 0.75 0.57421875
vn 1 0 0
vn -1 0 0
vn 0 1 0
vn 0 -1 0
vn 0 0 1
vn 0 0 -1
usemtl m_5441233a-da0a-bd8c-f5da-113c1d8efb60
f 2/1/1 1/2/1 3/3/1 4/4/1
f 7/5/2 5/6/2 6/7/2 8/8/2
f 5/9/3 1/10/3 2/11/3 6/12/3
f 4/13/4 3/14/4 7/15/4 8/16/4
f 3/17/5 1/18/5 5/19/5 7/20/5
f 6/21/6 2/22/6 4/23/6 8/24/6
o cuboid
v 1.875 1.3125 1.5000000000000002
v 1.875 1.3125 1.375
v 1.875 0.1875 1.5000000000000002
v 1.875 0.1875 1.375
v -1.875 1.3125 1.5000000000000002
v -1.875 1.3125 1.375
v -1.875 0.1875 1.5000000000000002
v -1.875 0.1875 1.375
v 1.875 1.375 1.5000000000000002
v 1.875 1.375 1.375
v -1.875 1.375 1.5000000000000002
v -1.875 1.375 1.375
v 1.125 1.3125 1.5000000000000002
v 1.125 0.1875 1.5000000000000002
v 0.375 1.3125 1.5000000000000002
v 0.375 0.1875 1.5000000000000002
v -0.3749999999999998 1.3125 1.5000000000000002
v -0.3749999999999998 0.1875 1.5000000000000002
v -1.125 1.3125 1.5000000000000002
v -1.125 0.1875 1.5000000000000002
v 1.125 0.1875 1.375
v 0.375 0.1875 1.375
v -0.3749999999999998 0.1875 1.375
v -1.125 0.1875 1.375
v 1.125 1.3125 1.375
v 0.375 1.3125 1.375
v -0.3749999999999998 1.3125 1.375
v -1.125 1.3125 1.375
v 1.125 1.375 1.375
v 0.375 1.375 1.375
v -0.3749999999999998 1.375 1.375
v -1.125 1.375 1.375
v 1.125 1.375 1.5000000000000002
v 0.375 1.375 1.5000000000000002
v -0.3749999999999998 1.375 1.5000000000000002
v -1.125 1.375 1.5000000000000002
v -1.8125 0.21875 1.5000000000000002
v -1.1875 1.28125 1.5000000000000002
v -1.1875 0.21875 1.5000000000000002
v -1.8125 1.28125 1.5000000000000002
v -1.8125 1.28125 1.375
v -1.1875 0.21875 1.375
v -1.1875 1.28125 1.375
v -1.8125 0.21875 1.375
v -0.4374999999999998 1.28125 1.5000000000000002
v -1.0624999999999998 1.28125 1.5000000000000002
v -1.0624999999999998 0.21875 1.5000000000000002
v -0.4374999999999998 0.21875 1.5000000000000002
v -0.4374999999999998 0.21875 1.375
v -1.0624999999999998 0.21875 1.375
v -1.0624999999999998 1.28125 1.375
v -0.4374999999999998 1.28125 1.375
v 0.3125 1.28125 1.5000000000000002
v -0.3125 1.28125 1.5000000000000002
v -0.3125 0.21875 1.5000000000000002
v 0.3125 0.21875 1.5000000000000002
v 0.3125 0.21875 1.375
v -0.3125 0.21875 1.375
v -0.3125 1.28125 1.375
v 0.3125 1.28125 1.375
v 1.0625 1.28125 1.5000000000000002
v 0.4375 1.28125 1.5000000000000002
v 0.4375 0.21875 1.5000000000000002
v 1.0625 0.21875 1.5000000000000002
v 1.0625 0.21875 1.375
v 0.4375 0.21875 1.375
v 0.4375 1.28125 1.375
v 1.0625 1.28125 1.375
v 1.8125 1.28125 1.5000000000000002
v 1.1875 1.28125 1.5000000000000002
v 1.1875 0.21875 1.5000000000000002
v 1.8125 0.21875 1.5000000000000002
v 1.8125 0.21875 1.375
v 1.1875 0.21875 1.375
v 1.1875 1.28125 1.375
v 1.8125 1.28125 1.375
vt 0.09375 0.76953125
vt 0.0859375 0.76953125
vt 0.0859375 0.69921875
vt 0.09375 0.69921875
vt 0.10546875 0.69921875
vt 0.10546875 0.76953125
vt 0.09765625 0.76953125
vt 0.09765625 0.69921875
vt 0.5 0.546875
vt 0.546875 0.546875
vt 0.546875 0.5546875
vt 0.5 0.5546875
vt 0.5 0.53515625
vt 0.546875 0.53515625
vt 0.546875 0.54296875
vt 0.5 0.54296875
vt 0.25390625 0.73828125
vt 0.30078125 0.73828125
vt 0.30078125 0.7421875
vt 0.25390625 0.7421875
vt 0.09375 0.7734375
vt 0.0859375 0.7734375
vt 0.0859375 0.76953125
vt 0.09375 0.76953125
vt 0.48828125 0.6640625
vt 0.44140625 0.6640625
vt 0.44140625 0.66015625
vt 0.48828125 0.66015625
vt 0.10546875 0.7734375
vt 0.09765625 0.7734375
vt 0.09765625 0.76953125
vt 0.10546875 0.76953125
vt 0.734375 0.54296875
vt 0.6875 0.54296875
vt 0.6875 0.53515625
vt 0.734375 0.53515625
vt 0.6875 0.54296875
vt 0.640625 0.54296875
vt 0.640625 0.53515625
vt 0.6875 0.53515625
vt 0.640625 0.54296875
vt 0.59375 0.54296875
vt 0.59375 0.53515625
vt 0.640625 0.53515625
vt 0.59375 0.54296875
vt 0.546875 0.54296875
vt 0.546875 0.53515625
vt 0.59375 0.53515625
vt 0.25390625 0.66015625
vt 0.30078125 0.66015625
vt 0.30078125 0.6640625
vt 0.25390625 0.6640625
vt 0.30078125 0.66015625
vt 0.34765625 0.66015625
vt 0.34765625 0.6640625
vt 0.30078125 0.6640625
vt 0.34765625 0.66015625
vt 0.39453125 0.66015625
vt 0.39453125 0.6640625
vt 0.34765625 0.6640625
vt 0.39453125 0.66015625
vt 0.44140625 0.66015625
vt 0.44140625 0.6640625
vt 0.39453125 0.6640625
vt 0.734375 0.5546875
vt 0.6875 0.5546875
vt 0.6875 0.546875
vt 0.734375 0.546875
vt 0.6875 0.5546875
vt 0.640625 0.5546875
vt 0.640625 0.546875
vt 0.6875 0.546875
vt 0.640625 0.5546875
vt 0.59375 0.5546875
vt 0.59375 0.546875
vt 0.640625 0.546875
vt 0.59375 0.5546875
vt 0.546875 0.5546875
vt 0.546875 0.546875
vt 0.59375 0.546875
vt 0.48828125 0.7421875
vt 0.44140625 0.7421875
vt 0.44140625 0.73828125
vt 0.48828125 0.73828125
vt 0.44140625 0.7421875
vt 0.39453125 0.7421875
vt 0.39453125 0.73828125
vt 0.44140625 0.73828125
vt 0.39453125 0.7421875
vt 0.34765625 0.7421875
vt 0.34765625 0.73828125
vt 0.39453125 0.73828125
vt 0.34765625 0.7421875
vt 0.30078125 0.7421875
vt 0.30078125 0.73828125
vt 0.34765625 0.73828125
vt 0.296875 0.669921875
vt 0.2578125 0.669921875
vt 0.25390625 0.66796875
vt 0.30078125 0.66796875
vt 0.296875 0.736328125
vt 0.296875 0.669921875
vt 0.30078125 0.66796875
vt 0.30078125 0.73828125
vt 0.2578125 0.736328125
vt 0.296875 0.736328125
vt 0.30078125 0.73828125
vt 0.25390625 0.73828125
vt 0.2578125 0.669921875
vt 0.2578125 0.736328125
vt 0.25390625 0.73828125
vt 0.25390625 0.66796875
vt 0.4453125 0.658203125
vt 0.484375 0.658203125
vt 0.48828125 0.66015625
vt 0.44140625 0.66015625
vt 0.4453125 0.591796875
vt 0.4453125 0.658203125
vt 0.44140625 0.66015625
vt 0.44140625 0.58984375
vt 0.484375 0.591796875
vt 0.4453125 0.591796875
vt 0.44140625 0.58984375
vt 0.48828125 0.58984375
vt 0.484375 0.658203125
vt 0.484375 0.591796875
vt 0.48828125 0.58984375
vt 0.48828125 0.66015625
vt 0.3046875 0.736328125
vt 0.34375 0.736328125
vt 0.34765625 0.73828125
vt 0.30078125 0.73828125
vt 0.3046875 0.669921875
vt 0.3046875 0.736328125
vt 0.30078125 0.73828125
vt 0.30078125 0.66796875
vt 0.34375 0.669921875
vt 0.3046875 0.669921875
vt 0.30078125 0.66796875
vt 0.34765625 0.66796875
vt 0.34375 0.736328125
vt 0.34375 0.669921875
vt 0.34765625 0.66796875
vt 0.34765625 0.73828125
vt 0.4375 0.591796875
vt 0.3984375 0.591796875
vt 0.39453125 0.58984375
vt 0.44140625 0.58984375
vt 0.4375 0.658203125
vt 0.4375 0.591796875
vt 0.44140625 0.58984375
vt 0.44140625 0.66015625
vt 0.3984375 0.658203125
vt 0.4375 0.658203125
vt 0.44140625 0.66015625
vt 0.39453125 0.66015625
vt 0.3984375 0.591796875
vt 0.3984375 0.658203125
vt 0.39453125 0.66015625
vt 0.39453125 0.58984375
vt 0.3515625 0.736328125
vt 0.390625 0.736328125
vt 0.39453125 0.73828125
vt 0.34765625 0.73828125
vt 0.3515625 0.669921875
vt 0.3515625 0.736328125
vt 0.34765625 0.73828125
vt 0.34765625 0.66796875
vt 0.390625 0.669921875
vt 0.3515625 0.669921875
vt 0.34765625 0.66796875
vt 0.39453125 0.66796875
vt 0.390625 0.736328125
vt 0.390625 0.669921875
vt 0.39453125 0.66796875
vt 0.39453125 0.73828125
vt 0.390625 0.591796875
vt 0.3515625 0.591796875
vt 0.34765625 0.58984375
vt 0.39453125 0.58984375
vt 0.390625 0.658203125
vt 0.390625 0.591796875
vt 0.39453125 0.58984375
vt 0.39453125 0.66015625
vt 0.3515625 0.658203125
vt 0.390625 0.658203125
vt 0.39453125 0.66015625
vt 0.34765625 0.66015625
vt 0.3515625 0.591796875
vt 0.3515625 0.658203125
vt 0.34765625 0.66015625
vt 0.34765625 0.58984375
vt 0.3984375 0.736328125
vt 0.4375 0.736328125
vt 0.44140625 0.73828125
vt 0.39453125 0.73828125
vt 0.3984375 0.669921875
vt 0.3984375 0.736328125
vt 0.39453125 0.73828125
vt 0.39453125 0.66796875
vt 0.4375 0.669921875
vt 0.3984375 0.669921875
vt 0.39453125 0.66796875
vt 0.44140625 0.66796875
vt 0.4375 0.736328125
vt 0.4375 0.669921875
vt 0.44140625 0.66796875
vt 0.44140625 0.73828125
vt 0.34375 0.591796875
vt 0.3046875 0.591796875
vt 0.30078125 0.58984375
vt 0.34765625 0.58984375
vt 0.34375 0.658203125
vt 0.34375 0.591796875
vt 0.34765625 0.58984375
vt 0.34765625 0.66015625
vt 0.3046875 0.658203125
vt 0.34375 0.658203125
vt 0.34765625 0.66015625
vt 0.30078125 0.66015625
vt 0.3046875 0.591796875
vt 0.3046875 0.658203125
vt 0.30078125 0.66015625
vt 0.30078125 0.58984375
vt 0.4453125 0.736328125
vt 0.484375 0.736328125
vt 0.48828125 0.73828125
vt 0.44140625 0.73828125
vt 0.4453125 0.669921875
vt 0.4453125 0.736328125
vt 0.44140625 0.73828125
vt 0.44140625 0.66796875
vt 0.484375 0.669921875
vt 0.4453125 0.669921875
vt 0.44140625 0.66796875
vt 0.48828125 0.66796875
vt 0.484375 0.736328125
vt 0.484375 0.669921875
vt 0.48828125 0.66796875
vt 0.48828125 0.73828125
vt 0.296875 0.591796875
vt 0.2578125 0.591796875
vt 0.25390625 0.58984375
vt 0.30078125 0.58984375
vt 0.296875 0.658203125
vt 0.296875 0.591796875
vt 0.30078125 0.58984375
vt 0.30078125 0.66015625
vt 0.2578125 0.658203125
vt 0.296875 0.658203125
vt 0.30078125 0.66015625
vt 0.25390625 0.66015625
vt 0.2578125 0.591796875
vt 0.2578125 0.658203125
vt 0.25390625 0.66015625
vt 0.25390625 0.58984375
vt 0.1640625 0.7734375
vt 0.15625 0.7734375
vt 0.15625 0.70703125
vt 0.1640625 0.70703125
vt 0.125 0.6875
vt 0.125 0.6953125
vt 0.0859375 0.6953125
vt 0.0859375 0.6875
vt 0.18359375 0.50390625
vt 0.19140625 0.50390625
vt 0.19140625 0.5703125
vt 0.18359375 0.5703125
vt 0.12890625 0.6953125
vt 0.12890625 0.6875
vt 0.16796875 0.6875
vt 0.16796875 0.6953125
vt 0.125 0.67578125
vt 0.125 0.68359375
vt 0.0859375 0.68359375
vt 0.0859375 0.67578125
vt 0.203125 0.5703125
vt 0.1953125 0.5703125
vt 0.1953125 0.50390625
vt 0.203125 0.50390625
vt 0.12890625 0.68359375
vt 0.12890625 0.67578125
vt 0.16796875 0.67578125
vt 0.16796875 0.68359375
vt 0.20703125 0.50390625
vt 0.21484375 0.50390625
vt 0.21484375 0.5703125
vt 0.20703125 0.5703125
vt 0.125 0.6640625
vt 0.125 0.671875
vt 0.0859375 0.671875
vt 0.0859375 0.6640625
vt 0.2265625 0.5703125
vt 0.21875 0.5703125
vt 0.21875 0.50390625
vt 0.2265625 0.50390625
vt 0.12890625 0.671875
vt 0.12890625 0.6640625
vt 0.16796875 0.6640625
vt 0.16796875 0.671875
vt 0.23046875 0.50390625
vt 0.23828125 0.50390625
vt 0.23828125 0.5703125
vt 0.23046875 0.5703125
vt 0.16015625 0.62890625
vt 0.16015625 0.62109375
vt 0.19921875 0.62109375
vt 0.19921875 0.62890625
vt 0.12890625 0.51953125
vt 0.12109375 0.51953125
vt 0.12109375 0.453125
vt 0.12890625 0.453125
vt 0.1328125 0.453125
vt 0.140625 0.453125
vt 0.140625 0.51953125
vt 0.1328125 0.51953125
vt 0.203125 0.62890625
vt 0.203125 0.62109375
vt 0.2421875 0.62109375
vt 0.2421875 0.62890625
vt 0.19921875 0.609375
vt 0.19921875 0.6171875
vt 0.16015625 0.6171875
vt 0.16015625 0.609375
vt 0 0.4375
vt 0.0078125 0.4375
vt 0.0078125 0.50390625
vt 0 0.50390625
vt 0.203125 0.6171875
vt 0.203125 0.609375
vt 0.2421875 0.609375
vt 0.2421875 0.6171875
vt 0.01171875 0.4375
vt 0.01953125 0.4375
vt 0.01953125 0.50390625
vt 0.01171875 0.50390625
vn 1 0 0
vn -1 0 0
vn 0 1 0
vn 0 -1 0
vn 0 0 1
vn 1 0 0
vn 0 0 -1
vn -1 0 0
vn 0 -1 0
vn 0 -1 0
vn 0 -1 0
vn 0 -1 0
vn 0 0 -1
vn 0 0 -1
vn 0 0 -1
vn 0 0 -1
vn 0 1 0
vn 0 1 0
vn 0 1 0
vn 0 1 0
vn 0 0 1
vn 0 0 1
vn 0 0 1
vn 0 0 1
vn 0 0 1
vn 0 0 1
vn 0 0 1
vn 0 0 1
vn 0 0 -1
vn 0 0 -1
vn 0 0 -1
vn 0 0 -1
vn 0 0 1
vn 0 0 1
vn 0 0 1
vn 0 0 1
vn 0 0 -1
vn 0 0 -1
vn 0 0 -1
vn 0 0 -1
vn 0 0 1
vn 0 0 1
vn 0 0 1
vn 0 0 1
vn 0 0 -1
vn 0 0 -1
vn 0 0 -1
vn 0 0 -1
vn 0 0 1
vn 0 0 1
vn 0 0 1
vn 0 0 1
vn 0 0 -1
vn 0 0 -1
vn 0 0 -1
vn 0 0 -1
vn 0 0 1
vn 0 0 1
vn 0 0 1
vn 0 0 1
vn 0 0 -1
vn 0 0 -1
vn 0 0 -1
vn 0 0 -1
vn -1 0 0
vn 0 1 0
vn 1 0 0
vn 0 -1 0
vn 0 1 0
vn -1 0 0
vn 0 -1 0
vn 1 0 0
vn 0 1 0
vn -1 0 0
vn 0 -1 0
vn 1 0 0
vn 0 1 0
vn -1 0 0
vn 1 0 0
vn 0 -1 0
vn 0 1 0
vn -1 0 0
vn 0 -1 0
vn 1 0 0
usemtl m_5441233a-da0a-bd8c-f5da-113c1d8efb60
f 10/25/7 9/26/7 11/27/7 12/28/7
f 15/29/8 13/30/8 14/31/8 16/32/8
f 19/33/9 44/34/9 40/35/9 20/36/9
f 16/37/10 32/38/10 28/39/10 15/40/10
f 13/41/11 27/42/11 44/43/11 19/44/11
f 18/45/12 17/46/12 9/47/12 10/48/12
f 20/49/13 40/50/13 36/51/13 14/52/13
f 19/53/14 20/54/14 14/55/14 13/56/14
f 11/57/15 22/58/15 29/59/15 12/60/15
f 22/61/16 24/62/16 30/63/16 29/64/16
f 24/65/17 26/66/17 31/67/17 30/68/17
f 26/69/18 28/70/18 32/71/18 31/72/18
f 10/73/19 33/74/19 37/75/19 18/76/19
f 33/77/20 34/78/20 38/79/20 37/80/20
f 34/81/21 35/82/21 39/83/21 38/84/21
f 35/85/22 36/86/22 40/87/22 39/88/22
f 18/89/23 37/90/23 41/91/23 17/92/23
f 37/93/24 38/94/24 42/95/24 41/96/24
f 38/97/25 39/98/25 43/99/25 42/100/25
f 39/101/26 40/102/26 44/103/26 43/104/26
f 17/105/27 41/106/27 21/107/27 9/108/27
f 41/109/28 42/110/28 23/111/28 21/112/28
f 42/113/29 43/114/29 25/115/29 23/116/29
f 43/117/30 44/118/30 27/119/30 25/120/30
f 47/121/31 45/122/31 15/123/31 28/124/31
f 46/125/32 47/126/32 28/127/32 27/128/32
f 48/129/33 46/130/33 27/131/33 13/132/33
f 45/133/34 48/134/34 13/135/34 15/136/34
f 51/137/35 49/138/35 14/139/35 36/140/35
f 50/141/36 51/142/36 36/143/36 32/144/36
f 52/145/37 50/146/37 32/147/37 16/148/37
f 49/149/38 52/150/38 16/151/38 14/152/38
f 54/153/39 53/154/39 25/155/39 27/156/39
f 55/157/40 54/158/40 27/159/40 28/160/40
f 56/161/41 55/162/41 28/163/41 26/164/41
f 53/165/42 56/166/42 26/167/42 25/168/42
f 58/169/43 57/170/43 31/171/43 32/172/43
f 59/173/44 58/174/44 32/175/44 36/176/44
f 60/177/45 59/178/45 36/179/45 35/180/45
f 57/181/46 60/182/46 35/183/46 31/184/46
f 62/185/47 61/186/47 23/187/47 25/188/47
f 63/189/48 62/190/48 25/191/48 26/192/48
f 64/193/49 63/194/49 26/195/49 24/196/49
f 61/197/50 64/198/50 24/199/50 23/200/50
f 66/201/51 65/202/51 30/203/51 31/204/51
f 67/205/52 66/206/52 31/207/52 35/208/52
f 68/209/53 67/210/53 35/211/53 34/212/53
f 65/213/54 68/214/54 34/215/54 30/216/54
f 70/217/55 69/218/55 21/219/55 23/220/55
f 71/221/56 70/222/56 23/223/56 24/224/56
f 72/225/57 71/226/57 24/227/57 22/228/57
f 69/229/58 72/230/58 22/231/58 21/232/58
f 74/233/59 73/234/59 29/235/59 30/236/59
f 75/237/60 74/238/60 30/239/60 34/240/60
f 76/241/61 75/242/61 34/243/61 33/244/61
f 73/245/62 76/246/62 33/247/62 29/248/62
f 78/249/63 77/250/63 9/251/63 21/252/63
f 79/253/64 78/254/64 21/255/64 22/256/64
f 80/257/65 79/258/65 22/259/65 11/260/65
f 77/261/66 80/262/66 11/263/66 9/264/66
f 82/265/67 81/266/67 12/267/67 29/268/67
f 83/269/68 82/270/68 29/271/68 33/272/68
f 84/273/69 83/274/69 33/275/69 10/276/69
f 81/277/70 84/278/70 10/279/70 12/280/70
f 77/281/71 84/282/71 81/283/71 80/284/71
f 80/285/72 81/286/72 82/287/72 79/288/72
f 79/289/73 82/290/73 83/291/73 78/292/73
f 78/293/74 83/294/74 84/295/74 77/296/74
f 72/297/75 73/298/75 74/299/75 71/300/75
f 69/301/76 76/302/76 73/303/76 72/304/76
f 70/305/77 75/306/77 76/307/77 69/308/77
f 71/309/78 74/310/78 75/311/78 70/312/78
f 64/313/79 65/314/79 66/315/79 63/316/79
f 61/317/80 68/318/80 65/319/80 64/320/80
f 62/321/81 67/322/81 68/323/81 61/324/81
f 63/325/82 66/326/82 67/327/82 62/328/82
f 58/329/83 55/330/83 56/331/83 57/332/83
f 53/333/84 60/334/84 57/335/84 56/336/84
f 55/337/85 58/338/85 59/339/85 54/340/85
f 54/341/86 59/342/86 60/343/86 53/344/86
f 47/345/87 50/346/87 52/347/87 45/348/87
f 50/349/88 47/350/88 46/351/88 51/352/88
f 48/353/89 49/354/89 51/355/89 46/356/89
f 45/357/90 52/358/90 49/359/90 48/360/90
o cuboid
v -1.875 1.3125 1.5000000000000002
v -1.875 1.3125 -0.33125000000000004
v -1.875 0.1875 1.5000000000000002
v -1.875 0.1875 -0.33125000000000004
v -2 1.3125 1.5000000000000002
v -2 1.3125 -0.33125000000000004
v -2 0.1875 1.5000000000000002
v -2 0.1875 -0.33125000000000004
v -1.875 1.375 1.5000000000000002
v -1.875 1.375 -0.33125000000000004
v -2 1.375 1.5000000000000002
v -2 1.375 -0.33125000000000004
v -2 1.3125 0.8895833333333336
v -2 0.1875 0.8895833333333336
v -2 1.3125 0.2791666666666668
v -2 0.1875 0.2791666666666668
v -1.875 0.1875 0.8895833333333336
v -1.875 0.1875 0.2791666666666668
v -1.875 1.3125 0.8895833333333336
v -1.875 1.3125 0.2791666666666668
v -1.875 1.375 0.8895833333333336
v -1.875 1.375 0.2791666666666668
v -2 1.375 0.8895833333333336
v -2 1.375 0.2791666666666668
v -2 0.21875 -0.30364583333333334
v -2 1.28125 0.2515625000000001
v -2 0.21875 0.2515625000000001
v -2 1.28125 -0.30364583333333334
v -1.875 1.28125 -0.30364583333333334
v -1.875 0.21875 0.2515625000000001
v -1.875 1.28125 0.2515625000000001
v -1.875 0.21875 -0.30364583333333334
v -2 1.28125 0.861979166666667
v -2 1.28125 0.3067708333333335
v -2 0.21875 0.3067708333333335
v -2 0.21875 0.861979166666667
v -1.875 0.21875 0.861979166666667
v -1.875 0.21875 0.3067708333333335
v -1.875 1.28125 0.3067708333333335
v -1.875 1.28125 0.861979166666667
v -2 1.28125 1.3473958333333336
v -2 1.28125 0.9171875000000003
v -2 0.21875 0.9171875000000003
v -2 0.21875 1.3473958333333336
v -1.875 0.21875 1.3473958333333336
v -1.875 0.21875 0.9171875000000003
v -1.875 1.28125 0.9171875000000003
v -1.875 1.28125 1.3473958333333336
vt 0.15625 0.9765625
vt 0.15625 0.9384113281249999
vt 0.1640625 0.9384113281249999
vt 0.1640625 0.9765625
vt 0.1171875 0.69921875
vt 0.1171875 0.76953125
vt 0.109375 0.76953125
vt 0.109375 0.69921875
vt 0.12890625 0.76953125
vt 0.12109375 0.76953125
vt 0.12109375 0.69921875
vt 0.12890625 0.69921875
vt 0.1171875 0.7734375
vt 0.109375 0.7734375
vt 0.109375 0.76953125
vt 0.1171875 0.76953125
vt 0.606787109375 0.7421875
vt 0.5686359375 0.7421875
vt 0.5686359375 0.73828125
vt 0.606787109375 0.73828125
vt 0.12890625 0.7734375
vt 0.12109375 0.7734375
vt 0.12109375 0.76953125
vt 0.12890625 0.76953125
vt 0.257958984375 0.58203125
vt 0.29611015625 0.58203125
vt 0.29611015625 0.5859375
vt 0.257958984375 0.5859375
vt 0.12109375 0.64033203125
vt 0.12109375 0.602180859375
vt 0.12890625 0.602180859375
vt 0.12890625 0.64033203125
vt 0.12109375 0.602180859375
vt 0.12109375 0.5640300781250001
vt 0.12890625 0.5640300781250001
vt 0.12890625 0.602180859375
vt 0.492333984375 0.73828125
vt 0.53048515625 0.73828125
vt 0.53048515625 0.7421875
vt 0.492333984375 0.7421875
vt 0.53048515625 0.73828125
vt 0.5686359375 0.73828125
vt 0.5686359375 0.7421875
vt 0.53048515625 0.7421875
vt 0.1640625 0.862109375
vt 0.1640625 0.900260546875
vt 0.15625 0.900260546875
vt 0.15625 0.862109375
vt 0.1640625 0.900260546875
vt 0.1640625 0.9384113281249999
vt 0.15625 0.9384113281249999
vt 0.15625 0.900260546875
vt 0.372412109375 0.5859375
vt 0.33426093749999997 0.5859375
vt 0.33426093749999997 0.58203125
vt 0.372412109375 0.58203125
vt 0.33426093749999997 0.5859375
vt 0.29611015625 0.5859375
vt 0.29611015625 0.58203125
vt 0.33426093749999997 0.58203125
vt 0.294384765625 0.580078125
vt 0.29438476562499993 0.513671875
vt 0.2961101562499999 0.51171875
vt 0.29611015625 0.58203125
vt 0.259684375 0.513671875
vt 0.259684375 0.580078125
vt 0.257958984375 0.58203125
vt 0.257958984375 0.51171875
vt 0.570361328125 0.669921875
vt 0.570361328125 0.736328125
vt 0.5686359375 0.73828125
vt 0.5686359375 0.66796875
vt 0.60506171875 0.736328125
vt 0.6050617187499999 0.669921875
vt 0.6067871093749999 0.66796875
vt 0.606787109375 0.73828125
vt 0.570361328125 0.736328125
vt 0.60506171875 0.736328125
vt 0.606787109375 0.73828125
vt 0.5686359375 0.73828125
vt 0.259684375 0.580078125
vt 0.294384765625 0.580078125
vt 0.29611015625 0.58203125
vt 0.257958984375 0.58203125
vt 0.12890625 0.52587890625
vt 0.12890625 0.5640300781250001
vt 0.12109375 0.5640300781250001
vt 0.12109375 0.52587890625
vt 0.60506171875 0.669921875
vt 0.570361328125 0.669921875
vt 0.5686359375 0.66796875
vt 0.606787109375 0.66796875
vt 0.294384765625 0.513671875
vt 0.259684375 0.513671875
vt 0.257958984375 0.51171875
vt 0.29611015625 0.51171875
vt 0.29783515625 0.580078125
vt 0.3325359375 0.580078125
vt 0.33426093749999997 0.58203125
vt 0.29611015625 0.58203125
vt 0.29783515624999995 0.513671875
vt 0.29783515625 0.580078125
vt 0.29611015625 0.58203125
vt 0.2961101562499999 0.51171875
vt 0.33253593749999993 0.513671875
vt 0.29783515624999995 0.513671875
vt 0.2961101562499999 0.51171875
vt 0.33426093749999997 0.51171875
vt 0.3325359375 0.580078125
vt 0.3325359375 0.513671875
vt 0.33426093749999997 0.51171875
vt 0.33426093749999997 0.58203125
vt 0.5669109375 0.669921875
vt 0.53221015625 0.669921875
vt 0.53048515625 0.66796875
vt 0.5686359375 0.66796875
vt 0.5669109375 0.736328125
vt 0.5669109375 0.669921875
vt 0.5686359375 0.66796875
vt 0.5686359375 0.73828125
vt 0.53221015625 0.736328125
vt 0.5669109375 0.736328125
vt 0.5686359375 0.73828125
vt 0.53048515625 0.73828125
vt 0.53221015625 0.669921875
vt 0.53221015625 0.736328125
vt 0.53048515625 0.73828125
vt 0.53048515625 0.66796875
vt 0.335986328125 0.580078125
vt 0.36287421875000003 0.580078125
vt 0.372412109375 0.58203125
vt 0.33426093749999997 0.58203125
vt 0.335986328125 0.513671875
vt 0.335986328125 0.580078125
vt 0.33426093749999997 0.58203125
vt 0.33426093749999997 0.51171875
vt 0.36287421875000003 0.513671875
vt 0.335986328125 0.513671875
vt 0.33426093749999997 0.51171875
vt 0.372412109375 0.51171875
vt 0.36287421875000003 0.580078125
vt 0.36287421875000003 0.513671875
vt 0.372412109375 0.51171875
vt 0.372412109375 0.58203125
vt 0.528759765625 0.669921875
vt 0.501871875 0.669921875
vt 0.492333984375 0.66796875
vt 0.53048515625 0.66796875
vt 0.528759765625 0.736328125
vt 0.528759765625 0.669921875
vt 0.53048515625 0.66796875
vt 0.53048515625 0.73828125
vt 0.501871875 0.736328125
vt 0.528759765625 0.736328125
vt 0.53048515625 0.73828125
vt 0.492333984375 0.73828125
vt 0.501871875 0.669921875
vt 0.501871875 0.736328125
vt 0.492333984375 0.73828125
vt 0.492333984375 0.66796875
vt 0.3203125 0.65234375
vt 0.3125 0.65234375
vt 0.3125 0.625
vt 0.3203125 0.625
vt 0.03125 0.50390625
vt 0.0234375 0.50390625
vt 0.0234375 0.4375
vt 0.03125 0.4375
vt 0.32421875 0.625
vt 0.33203125 0.625
vt 0.33203125 0.65234375
vt 0.32421875 0.65234375
vt 0.03515625 0.4375
vt 0.04296875 0.4375
vt 0.04296875 0.50390625
vt 0.03515625 0.50390625
vt 0.1328125 0.83984375
vt 0.140625 0.83984375
vt 0.140625 0.875
vt 0.1328125 0.875
vt 0.0703125 0.5
vt 0.0625 0.5
vt 0.0625 0.43359375
vt 0.0703125 0.43359375
vt 0.14453125 0.83984375
vt 0.15234375 0.83984375
vt 0.15234375 0.875
vt 0.14453125 0.875
vt 0.14453125 0.43359375
vt 0.15234375 0.43359375
vt 0.15234375 0.5
vt 0.14453125 0.5
vt 0.265625 0.6953125
vt 0.2734375 0.6953125
vt 0.2734375 0.73046875
vt 0.265625 0.73046875
vt 0.19140625 0.5
vt 0.18359375 0.5
vt 0.18359375 0.43359375
vt 0.19140625 0.43359375
vt 0.27734375 0.6953125
vt 0.28515625 0.6953125
vt 0.28515625 0.73046875
vt 0.27734375 0.73046875
vt 0.1953125 0.43359375
vt 0.203125 0.43359375
vt 0.203125 0.5
vt 0.1953125 0.5
vn 0 1 0
vn 0 0 1
vn 0 0 -1
vn 0 0 1
vn 1 0 0
vn 0 0 -1
vn -1 0 0
vn 0 -1 0
vn 0 -1 0
vn 1 0 0
vn 1 0 0
vn 0 1 0
vn 0 1 0
vn -1 0 0
vn -1 0 0
vn -1 0 0
vn -1 0 0
vn 1 0 0
vn 1 0 0
vn 1 0 0
vn -1 0 0
vn 0 -1 0
vn 1 0 0
vn -1 0 0
vn -1 0 0
vn -1 0 0
vn -1 0 0
vn -1 0 0
vn 1 0 0
vn 1 0 0
vn 1 0 0
vn 1 0 0
vn -1 0 0
vn -1 0 0
vn -1 0 0
vn -1 0 0
vn 1 0 0
vn 1 0 0
vn 1 0 0
vn 1 0 0
vn 0 1 0
vn 0 0 -1
vn 0 -1 0
vn 0 0 1
vn 0 1 0
vn 0 0 -1
vn 0 -1 0
vn 0 0 1
vn 0 1 0
vn 0 0 -1
vn 0 -1 0
vn 0 0 1
usemtl m_5441233a-da0a-bd8c-f5da-113c1d8efb60
f 96/361/91 108/362/91 106/363/91 94/364/91
f 87/365/92 85/366/92 89/367/92 91/368/92
f 90/369/93 86/370/93 88/371/93 92/372/93
f 93/373/94 95/374/94 89/375/94 85/376/94
f 94/377/95 106/378/95 104/379/95 86/380/95
f 96/381/96 94/382/96 86/383/96 90/384/96
f 90/385/97 99/386/97 108/387/97 96/388/97
f 91/389/98 98/390/98 101/391/98 87/392/98
f 98/393/99 100/394/99 102/395/99 101/396/99
f 85/397/100 103/398/100 105/399/100 93/400/100
f 103/401/101 104/402/101 106/403/101 105/404/101
f 93/405/102 105/406/102 107/407/102 95/408/102
f 105/409/103 106/410/103 108/411/103 107/412/103
f 95/413/104 107/414/104 97/415/104 89/416/104
f 107/417/105 108/418/105 99/419/105 97/420/105
f 110/421/106 111/422/106 100/423/106 99/424/106
f 109/425/107 112/426/107 90/427/107 92/428/107
f 114/429/108 115/430/108 104/431/108 102/432/108
f 113/433/109 116/434/109 88/435/109 86/436/109
f 115/437/110 113/438/110 86/439/110 104/440/110
f 112/441/111 110/442/111 99/443/111 90/444/111
f 88/445/112 102/446/112 100/447/112 92/448/112
f 116/449/113 114/450/113 102/451/113 88/452/113
f 111/453/114 109/454/114 92/455/114 100/456/114
f 118/457/115 117/458/115 97/459/115 99/460/115
f 119/461/116 118/462/116 99/463/116 100/464/116
f 120/465/117 119/466/117 100/467/117 98/468/117
f 117/469/118 120/470/118 98/471/118 97/472/118
f 122/473/119 121/474/119 101/475/119 102/476/119
f 123/477/120 122/478/120 102/479/120 104/480/120
f 124/481/121 123/482/121 104/483/121 103/484/121
f 121/485/122 124/486/122 103/487/122 101/488/122
f 126/489/123 125/490/123 89/491/123 97/492/123
f 127/493/124 126/494/124 97/495/124 98/496/124
f 128/497/125 127/498/125 98/499/125 91/500/125
f 125/501/126 128/502/126 91/503/126 89/504/126
f 130/505/127 129/506/127 87/507/127 101/508/127
f 131/509/128 130/510/128 101/511/128 103/512/128
f 132/513/129 131/514/129 103/515/129 85/516/129
f 129/517/130 132/518/130 85/519/130 87/520/130
f 130/521/131 127/522/131 128/523/131 129/524/131
f 125/525/132 132/526/132 129/527/132 128/528/132
f 126/529/133 131/530/133 132/531/133 125/532/133
f 127/533/134 130/534/134 131/535/134 126/536/134
f 120/537/135 121/538/135 122/539/135 119/540/135
f 117/541/136 124/542/136 121/543/136 120/544/136
f 118/545/137 123/546/137 124/547/137 117/548/137
f 119/549/138 122/550/138 123/551/138 118/552/138
f 111/553/139 114/554/139 116/555/139 109/556/139
f 110/557/140 115/558/140 114/559/140 111/560/140
f 112/561/141 113/562/141 115/563/141 110/564/141
f 109/565/142 116/566/142 113/567/142 112/568/142
o cuboid
v 2 1.3125 1.5000000000000002
v 2 1.3125 -0.33125000000000004
v 2 0.1875 1.5000000000000002
v 2 0.1875 -0.33125000000000004
v 1.875 1.3125 1.5000000000000002
v 1.875 1.3125 -0.33125000000000004
v 1.875 0.1875 1.5000000000000002
v 1.875 0.1875 -0.33125000000000004
v 2 1.375 1.5000000000000002
v 2 1.375 -0.33125000000000004
v 1.875 1.375 1.5000000000000002
v 1.875 1.375 -0.33125000000000004
v 1.875 1.3125 0.8895833333333336
v 1.875 0.1875 0.8895833333333336
v 1.875 1.3125 0.2791666666666668
v 1.875 0.1875 0.2791666666666668
v 2 0.1875 0.8895833333333336
v 2 0.1875 0.2791666666666668
v 2 1.3125 0.8895833333333336
v 2 1.3125 0.2791666666666668
v 2 1.375 0.8895833333333336
v 2 1.375 0.2791666666666668
v 1.875 1.375 0.8895833333333336
v 1.875 1.375 0.2791666666666668
v 2 0.21875 1.3473958333333336
v 2 0.21875 0.9171875000000003
v 2 1.28125 0.9171875000000003
v 2 1.28125 1.3473958333333336
v 1.875 1.28125 1.3473958333333336
v 1.875 1.28125 0.9171875000000003
v 1.875 0.21875 0.9171875000000003
v 1.875 0.21875 1.3473958333333336
v 1.875 1.28125 0.861979166666667
v 1.875 1.28125 0.3067708333333335
v 1.875 0.21875 0.3067708333333335
v 1.875 0.21875 0.861979166666667
v 2 0.21875 0.861979166666667
v 2 0.21875 0.3067708333333335
v 2 1.28125 0.3067708333333335
v 2 1.28125 0.861979166666667
v 1.875 0.21875 -0.30364583333333334
v 1.875 1.28125 0.2515625000000001
v 1.875 0.21875 0.2515625000000001
v 1.875 1.28125 -0.30364583333333334
v 2 1.28125 -0.30364583333333334
v 2 0.21875 0.2515625000000001
v 2 1.28125 0.2515625000000001
v 2 0.21875 -0.30364583333333334
vt 0.1328125 0.640625
vt 0.1328125 0.6024738281249999
vt 0.140625 0.6024738281249999
vt 0.140625 0.640625
vt 0.1796875 0.45556640625
vt 0.1796875 0.49371757812500006
vt 0.171875 0.49371757812500006
vt 0.171875 0.45556640625
vt 0.140625 0.69921875
vt 0.140625 0.76953125
vt 0.1328125 0.76953125
vt 0.1328125 0.69921875
vt 0.15234375 0.76953125
vt 0.14453125 0.76953125
vt 0.14453125 0.69921875
vt 0.15234375 0.69921875
vt 0.140625 0.7734375
vt 0.1328125 0.7734375
vt 0.1328125 0.76953125
vt 0.140625 0.76953125
vt 0.606787109375 0.6640625
vt 0.5686359375 0.6640625
vt 0.5686359375 0.66015625
vt 0.606787109375 0.66015625
vt 0.15234375 0.7734375
vt 0.14453125 0.7734375
vt 0.14453125 0.76953125
vt 0.15234375 0.76953125
vt 0.379052734375 0.58203125
vt 0.41720390625 0.58203125
vt 0.41720390625 0.5859375
vt 0.379052734375 0.5859375
vt 0.171875 0.57001953125
vt 0.171875 0.531868359375
vt 0.1796875 0.531868359375
vt 0.1796875 0.57001953125
vt 0.171875 0.531868359375
vt 0.171875 0.49371757812500006
vt 0.1796875 0.49371757812500006
vt 0.1796875 0.531868359375
vt 0.492333984375 0.66015625
vt 0.53048515625 0.66015625
vt 0.53048515625 0.6640625
vt 0.492333984375 0.6640625
vt 0.53048515625 0.66015625
vt 0.5686359375 0.66015625
vt 0.5686359375 0.6640625
vt 0.53048515625 0.6640625
vt 0.140625 0.526171875
vt 0.140625 0.564323046875
vt 0.1328125 0.564323046875
vt 0.1328125 0.526171875
vt 0.140625 0.564323046875
vt 0.140625 0.6024738281249999
vt 0.1328125 0.6024738281249999
vt 0.1328125 0.564323046875
vt 0.493505859375 0.5859375
vt 0.45535468749999997 0.5859375
vt 0.45535468749999997 0.58203125
vt 0.493505859375 0.58203125
vt 0.45535468749999997 0.5859375
vt 0.41720390625 0.5859375
vt 0.41720390625 0.58203125
vt 0.45535468749999997 0.58203125
vt 0.528759765625 0.591796875
vt 0.501871875 0.591796875
vt 0.492333984375 0.58984375
vt 0.53048515625 0.58984375
vt 0.528759765625 0.658203125
vt 0.528759765625 0.591796875
vt 0.53048515625 0.58984375
vt 0.53048515625 0.66015625
vt 0.501871875 0.658203125
vt 0.528759765625 0.658203125
vt 0.53048515625 0.66015625
vt 0.492333984375 0.66015625
vt 0.501871875 0.591796875
vt 0.501871875 0.658203125
vt 0.492333984375 0.66015625
vt 0.492333984375 0.58984375
vt 0.457080078125 0.580078125
vt 0.48396796875000003 0.580078125
vt 0.493505859375 0.58203125
vt 0.45535468749999997 0.58203125
vt 0.457080078125 0.513671875
vt 0.457080078125 0.580078125
vt 0.45535468749999997 0.58203125
vt 0.45535468749999997 0.51171875
vt 0.48396796875000003 0.513671875
vt 0.457080078125 0.513671875
vt 0.45535468749999997 0.51171875
vt 0.493505859375 0.51171875
vt 0.48396796875000003 0.580078125
vt 0.48396796875000003 0.513671875
vt 0.493505859375 0.51171875
vt 0.493505859375 0.58203125
vt 0.41892890625 0.580078125
vt 0.4536296875 0.580078125
vt 0.45535468749999997 0.58203125
vt 0.41720390625 0.58203125
vt 0.41892890624999995 0.513671875
vt 0.41892890625 0.580078125
vt 0.41720390625 0.58203125
vt 0.4172039062499999 0.51171875
vt 0.45362968749999993 0.513671875
vt 0.41892890624999995 0.513671875
vt 0.4172039062499999 0.51171875
vt 0.45535468749999997 0.51171875
vt 0.4536296875 0.580078125
vt 0.4536296875 0.513671875
vt 0.45535468749999997 0.51171875
vt 0.45535468749999997 0.58203125
vt 0.5669109375 0.591796875
vt 0.53221015625 0.591796875
vt 0.53048515625 0.58984375
vt 0.5686359375 0.58984375
vt 0.5669109375 0.658203125
vt 0.5669109375 0.591796875
vt 0.5686359375 0.58984375
vt 0.5686359375 0.66015625
vt 0.53221015625 0.658203125
vt 0.5669109375 0.658203125
vt 0.5686359375 0.66015625
vt 0.53048515625 0.66015625
vt 0.53221015625 0.591796875
vt 0.53221015625 0.658203125
vt 0.53048515625 0.66015625
vt 0.53048515625 0.58984375
vt 0.415478515625 0.513671875
vt 0.380778125 0.513671875
vt 0.379052734375 0.51171875
vt 0.41720390625 0.51171875
vt 0.415478515625 0.580078125
vt 0.41547851562499993 0.513671875
vt 0.4172039062499999 0.51171875
vt 0.41720390625 0.58203125
vt 0.380778125 0.580078125
vt 0.415478515625 0.580078125
vt 0.41720390625 0.58203125
vt 0.379052734375 0.58203125
vt 0.380778125 0.513671875
vt 0.380778125 0.580078125
vt 0.379052734375 0.58203125
vt 0.379052734375 0.51171875
vt 0.570361328125 0.658203125
vt 0.60506171875 0.658203125
vt 0.606787109375 0.66015625
vt 0.5686359375 0.66015625
vt 0.570361328125 0.591796875
vt 0.570361328125 0.658203125
vt 0.5686359375 0.66015625
vt 0.5686359375 0.58984375
vt 0.60506171875 0.591796875
vt 0.570361328125 0.591796875
vt 0.5686359375 0.58984375
vt 0.606787109375 0.58984375
vt 0.60506171875 0.658203125
vt 0.6050617187499999 0.591796875
vt 0.6067871093749999 0.58984375
vt 0.606787109375 0.66015625
vt 0.20703125 0.43359375
vt 0.21484375 0.43359375
vt 0.21484375 0.5
vt 0.20703125 0.5
vt 0.3125 0.6953125
vt 0.3203125 0.6953125
vt 0.3203125 0.73046875
vt 0.3125 0.73046875
vt 0.33203125 0.73046875
vt 0.32421875 0.73046875
vt 0.32421875 0.6953125
vt 0.33203125 0.6953125
vt 0.21875 0.43359375
vt 0.2265625 0.43359375
vt 0.2265625 0.5
vt 0.21875 0.5
vt 0.2734375 0.65234375
vt 0.265625 0.65234375
vt 0.265625 0.6171875
vt 0.2734375 0.6171875
vt 0.23046875 0.43359375
vt 0.23828125 0.43359375
vt 0.23828125 0.5
vt 0.23046875 0.5
vt 0.5078125 0.90234375
vt 0.515625 0.90234375
vt 0.515625 0.96875
vt 0.5078125 0.96875
vt 0.28515625 0.65234375
vt 0.27734375 0.65234375
vt 0.27734375 0.6171875
vt 0.28515625 0.6171875
vt 0.3671875 0.73046875
vt 0.359375 0.73046875
vt 0.359375 0.703125
vt 0.3671875 0.703125
vt 0.515625 0.8984375
vt 0.5078125 0.8984375
vt 0.5078125 0.83203125
vt 0.515625 0.83203125
vt 0.3671875 0.65234375
vt 0.359375 0.65234375
vt 0.359375 0.625
vt 0.3671875 0.625
vt 0.515625 0.828125
vt 0.5078125 0.828125
vt 0.5078125 0.76171875
vt 0.515625 0.76171875
vn 0 1 0
vn 0 -1 0
vn 0 0 1
vn 0 0 -1
vn 0 0 1
vn 1 0 0
vn 0 0 -1
vn -1 0 0
vn 0 -1 0
vn 0 -1 0
vn 1 0 0
vn 1 0 0
vn 0 1 0
vn 0 1 0
vn -1 0 0
vn -1 0 0
vn 1 0 0
vn 1 0 0
vn 1 0 0
vn 1 0 0
vn -1 0 0
vn -1 0 0
vn -1 0 0
vn -1 0 0
vn -1 0 0
vn -1 0 0
vn -1 0 0
vn -1 0 0
vn 1 0 0
vn 1 0 0
vn 1 0 0
vn 1 0 0
vn -1 0 0
vn -1 0 0
vn -1 0 0
vn -1 0 0
vn 1 0 0
vn 1 0 0
vn 1 0 0
vn 1 0 0
vn 0 0 1
vn 0 1 0
vn 0 -1 0
vn 0 0 -1
vn 0 1 0
vn 0 0 1
vn 0 0 -1
vn 0 -1 0
vn 0 1 0
vn 0 0 1
vn 0 -1 0
vn 0 0 -1
usemtl m_5441233a-da0a-bd8c-f5da-113c1d8efb60
f 144/569/143 156/570/143 154/571/143 142/572/143
f 136/573/144 150/574/144 148/575/144 140/576/144
f 135/577/145 133/578/145 137/579/145 139/580/145
f 138/581/146 134/582/146 136/583/146 140/584/146
f 141/585/147 143/586/147 137/587/147 133/588/147
f 142/589/148 154/590/148 152/591/148 134/592/148
f 144/593/149 142/594/149 134/595/149 138/596/149
f 138/597/150 147/598/150 156/599/150 144/600/150
f 139/601/151 146/602/151 149/603/151 135/604/151
f 146/605/152 148/606/152 150/607/152 149/608/152
f 133/609/153 151/610/153 153/611/153 141/612/153
f 151/613/154 152/614/154 154/615/154 153/616/154
f 141/617/155 153/618/155 155/619/155 143/620/155
f 153/621/156 154/622/156 156/623/156 155/624/156
f 143/625/157 155/626/157 145/627/157 137/628/157
f 155/629/158 156/630/158 147/631/158 145/632/158
f 158/633/159 157/634/159 135/635/159 149/636/159
f 159/637/160 158/638/160 149/639/160 151/640/160
f 160/641/161 159/642/161 151/643/161 133/644/161
f 157/645/162 160/646/162 133/647/162 135/648/162
f 162/649/163 161/650/163 137/651/163 145/652/163
f 163/653/164 162/654/164 145/655/164 146/656/164
f 164/657/165 163/658/165 146/659/165 139/660/165
f 161/661/166 164/662/166 139/663/166 137/664/166
f 166/665/167 165/666/167 145/667/167 147/668/167
f 167/669/168 166/670/168 147/671/168 148/672/168
f 168/673/169 167/674/169 148/675/169 146/676/169
f 165/677/170 168/678/170 146/679/170 145/680/170
f 170/681/171 169/682/171 149/683/171 150/684/171
f 171/685/172 170/686/172 150/687/172 152/688/172
f 172/689/173 171/690/173 152/691/173 151/692/173
f 169/693/174 172/694/174 151/695/174 149/696/174
f 175/697/175 173/698/175 140/699/175 148/700/175
f 174/701/176 175/702/176 148/703/176 147/704/176
f 176/705/177 174/706/177 147/707/177 138/708/177
f 173/709/178 176/710/178 138/711/178 140/712/178
f 179/713/179 177/714/179 134/715/179 152/716/179
f 178/717/180 179/718/180 152/719/180 150/720/180
f 180/721/181 178/722/181 150/723/181 136/724/181
f 177/725/182 180/726/182 136/727/182 134/728/182
f 173/729/183 180/730/183 177/731/183 176/732/183
f 175/733/184 178/734/184 180/735/184 173/736/184
f 179/737/185 174/738/185 176/739/185 177/740/185
f 178/741/186 175/742/186 174/743/186 179/744/186
f 170/745/187 167/746/187 168/747/187 169/748/187
f 167/749/188 170/750/188 171/751/188 166/752/188
f 169/753/189 168/754/189 165/755/189 172/756/189
f 172/757/190 165/758/190 166/759/190 171/760/190
f 158/761/191 163/762/191 164/763/191 157/764/191
f 159/765/192 162/766/192 163/767/192 158/768/192
f 160/769/193 161/770/193 162/771/193 159/772/193
f 161/773/194 160/774/194 157/775/194 164/776/194
o cuboid
v 0.75 2.5625 -0.33125
v 0.75 2.5625 -0.66875
v 0.75 0.1875 -0.33125
v 0.75 0.1875 -0.66875
v -0.75 2.5625 -0.33125
v -0.75 2.5625 -0.66875
v -0.75 0.1875 -0.33125
v -0.75 0.1875 -0.66875
v 0 2.6875 -0.33125
v 0 2.6875 -0.66875
v -0.6875 0.1875 -0.33125
v 0 2.5 -0.33125
v -0.6875 2.5 -0.33125
v 0.6875 2.5 -0.33125
v 0.6875 0.1875 -0.33125
v 0.6875 0.1875 -0.66875
v 0 2.5 -0.66875
v 0.6875 2.5 -0.66875
v -0.6875 2.5 -0.66875
v -0.6875 0.1875 -0.66875
vt 0.01953125 0.65625
vt 0 0.65625
vt 0 0.5078125
vt 0.01953125 0.5078125
vt 0.04296875 0.5078125
vt 0.04296875 0.65625
vt 0.0234375 0.65625
vt 0.0234375 0.5078125
vt 0.15234375 0.9296875
vt 0.15234375 0.9765625
vt 0.1328125 0.9765625
vt 0.1328125 0.9296875
vt 0.15234375 0.87890625
vt 0.15234375 0.92578125
vt 0.1328125 0.92578125
vt 0.1328125 0.87890625
vt 0.06640625 0.6484375
vt 0.109375 0.6484375
vt 0.109375 0.66015625
vt 0.0625 0.65234375
vt 0.06640625 0.50390625
vt 0.06640625 0.6484375
vt 0.0625 0.65234375
vt 0.0625 0.50390625
vt 0.109375 0.6484375
vt 0.15234375 0.6484375
vt 0.15625 0.65234375
vt 0.109375 0.66015625
vt 0.15234375 0.6484375
vt 0.15234375 0.50390625
vt 0.15625 0.50390625
vt 0.15625 0.65234375
vt 0.1640625 0.578125
vt 0.20703125 0.578125
vt 0.20703125 0.58984375
vt 0.16015625 0.58203125
vt 0.1640625 0.43359375
vt 0.1640625 0.578125
vt 0.16015625 0.58203125
vt 0.16015625 0.43359375
vt 0.20703125 0.578125
vt 0.25 0.578125
vt 0.25390625 0.58203125
vt 0.20703125 0.58984375
vt 0.25 0.578125
vt 0.25 0.43359375
vt 0.25390625 0.43359375
vt 0.25390625 0.58203125
vt 0.15625 0.85546875
vt 0.15625 0.8359375
vt 0.16015625 0.8359375
vt 0.16015625 0.85546875
vt 0.1640625 0.85546875
vt 0.1640625 0.8359375
vt 0.16796875 0.8359375
vt 0.16796875 0.85546875
vt 0.16015625 0.655859375
vt 0.16015625 0.634765625
vt 0.203125 0.634765625
vt 0.203125 0.655859375
vt 0.203125 0.655859375
vt 0.203125 0.634765625
vt 0.24609375 0.634765625
vt 0.24609375 0.655859375
vt 0.10546875 0.83203125
vt 0.10546875 0.9765625
vt 0.0859375 0.9765625
vt 0.0859375 0.83203125
vt 0.109375 0.9765625
vt 0.109375 0.83203125
vt 0.12890625 0.83203125
vt 0.12890625 0.9765625
vn 1 0 0
vn -1 0 0
vn -0.16439898730535726 0.9863939238321437 0
vn 0.16439898730535726 0.9863939238321437 0
vn 0 0 1
vn 0 0 1
vn 0 0 1
vn 0 0 1
vn 0 0 -1
vn 0 0 -1
vn 0 0 -1
vn 0 0 -1
vn 0 -1 0
vn 0 -1 0
vn 0 -1 0
vn 0 -1 0
vn 1 0 0
vn -1 0 0
usemtl m_5441233a-da0a-bd8c-f5da-113c1d8efb60
f 182/777/195 181/778/195 183/779/195 184/780/195
f 187/781/196 185/782/196 186/783/196 188/784/196
f 185/785/197 189/786/197 190/787/197 186/788/197
f 182/789/198 190/790/198 189/791/198 181/792/198
f 193/793/199 192/794/199 189/795/199 185/796/199
f 191/797/200 193/798/200 185/799/200 187/800/200
f 192/801/201 194/802/201 181/803/201 189/804/201
f 194/805/202 195/806/202 183/807/202 181/808/202
f 198/809/203 197/810/203 190/811/203 182/812/203
f 196/813/204 198/814/204 182/815/204 184/816/204
f 197/817/205 199/818/205 186/819/205 190/820/205
f 199/821/206 200/822/206 188/823/206 186/824/206
f 187/825/207 188/826/207 200/827/207 191/828/207
f 195/829/208 196/830/208 184/831/208 183/832/208
f 193/833/209 199/834/209 197/835/209 192/836/209
f 192/837/210 197/838/210 198/839/210 194/840/210
f 200/841/211 199/842/211 193/843/211 191/844/211
f 198/845/212 196/846/212 195/847/212 194/848/212
o cuboid
v 2 2.875 -0.32499999999999996
v 2 2.875 -0.5
v 2 0.1875 -0.32499999999999996
v 2 0.1875 -0.5
v -2 2.875 -0.32499999999999996
v -2 2.875 -0.5
v -2 0.1875 -0.32499999999999996
v -2 0.1875 -0.5
v 0.75 2.551630434782609 -0.5
v 0.75 0.1875 -0.5
v -0.75 2.551630434782609 -0.5
v -0.75 0.1875 -0.5
v 0.75 2.551630434782609 -0.32499999999999996
v -0.75 2.551630434782609 -0.32499999999999996
v 0.75 0.1875 -0.32499999999999996
v -0.75 0.1875 -0.32499999999999996
vt 0.05859375 0.65625
vt 0.046875 0.65625
vt 0.046875 0.48828125
vt 0.05859375 0.48828125
vt 0.0859375 0.47265625
vt 0.0859375 0.640625
vt 0.07421875 0.640625
vt 0.07421875 0.47265625
vt 0.5 0.55859375
vt 0.75 0.55859375
vt 0.75 0.5703125
vt 0.5 0.5703125
vt 0.078125 0.981742578125
vt 0.171875 0.981742578125
vt 0.25 1
vt 0 1
vt 0.078125 0.83203125
vt 0.078125 0.981742578125
vt 0 1
vt 0 0.83203125
vt 0.171875 0.981742578125
vt 0.171875 0.83203125
vt 0.25 0.83203125
vt 0.25 1
vt 0.171875 0.809867578125
vt 0.171875 0.66015625
vt 0.25 0.66015625
vt 0.25 0.828125
vt 0.078125 0.809867578125
vt 0.171875 0.809867578125
vt 0.25 0.828125
vt 0 0.828125
vt 0.078125 0.66015625
vt 0.078125 0.809867578125
vt 0 0.828125
vt 0 0.66015625
vt 0.08984375 0.4921875
vt 0.1015625 0.4921875
vt 0.1015625 0.640625
vt 0.08984375 0.640625
vt 0.1171875 0.640625
vt 0.10546875 0.640625
vt 0.10546875 0.4921875
vt 0.1171875 0.4921875
vt 0.1640625 0.8046875
vt 0.0859375 0.8046875
vt 0.0859375 0.79296875
vt 0.1640625 0.79296875
vt 0.1640625 0.7890625
vt 0.0859375 0.7890625
vt 0.0859375 0.77734375
vt 0.1640625 0.77734375
vt 0.09375 0.9890625
vt 0.09375 1
vt 0 1
vt 0 0.9890625
vn 1 0 0
vn -1 0 0
vn 0 1 0
vn 0 0 -1
vn 0 0 -1
vn 0 0 -1
vn 0 0 1
vn 0 0 1
vn 0 0 1
vn 1 0 0
vn -1 0 0
vn 0 -1 0
vn 0 -1 0
vn 0 -1 0
usemtl m_5441233a-da0a-bd8c-f5da-113c1d8efb60
f 202/849/213 201/850/213 203/851/213 204/852/213
f 207/853/214 205/854/214 206/855/214 208/856/214
f 205/857/215 201/858/215 202/859/215 206/860/215
f 209/861/216 211/862/216 206/863/216 202/864/216
f 210/865/217 209/866/217 202/867/217 204/868/217
f 211/869/218 212/870/218 208/871/218 206/872/218
f 213/873/219 215/874/219 203/875/219 201/876/219
f 214/877/220 213/878/220 201/879/220 205/880/220
f 216/881/221 214/882/221 205/883/221 207/884/221
f 216/885/222 212/886/222 211/887/222 214/888/222
f 213/889/223 209/890/223 210/891/223 215/892/223
f 216/893/224 207/894/224 208/895/224 212/896/224
f 203/897/225 215/898/225 210/899/225 204/900/225
f 209/901/226 213/902/226 214/903/226 211/904/226