# Made in Blockbench 4.12.5
mtllib HomeWallWindowSideRight.mtl

o Wall
v -0.5000000000000001 2.6875 0.2500000000000001
v -0.5 2.6875 0.5
v -0.5000000000000001 0.1875 0.2500000000000002
v -0.5 0.1875 0.5
v 0.49999999999999994 2.6875 0.2499999999999999
v 0.49999999999999994 2.6875 0.49999999999999994
v 0.49999999999999994 0.1875 0.25
v 0.49999999999999994 0.1875 0.49999999999999994
v -0.5 0.3125 0.497916875
v 0.49999999999999994 0.3125 0.49791687499999987
v 0.49999999999999994 0.3125 0.3312499999999998
v -0.5000000000000001 0.3125 0.33125
v -0.5 2.5625 0.497916875
v 0.49999999999999994 2.5625 0.49791687499999987
v 0.49999999999999994 2.5625 0.3312499999999998
v -0.5000000000000001 2.5625 0.33125
v 0.49999999999999994 1.4375 0.49791687499999987
v -0.5 1.4375 0.497916875
v -0.5000000000000001 1.4375 0.33125
v 0.49999999999999994 1.4375 0.3312499999999998
v -4.0821534458103456e-17 2.28125 0.4979168749999999
v 0.49999999999999994 1.71875 0.49791687499999987
v -4.0821534458103456e-17 1.71875 0.4979168749999999
v -6.123233995736766e-17 2.28125 0.33124999999999993
v -6.123233995736766e-17 1.71875 0.33124999999999993
v 0.49999999999999994 1.71875 0.3312499999999998
v 0.49999999999999994 2.2812499999999996 0.3312499999999998
v 0.49999999999999994 2.2812499999999996 0.49791687499999987
v 0.49999999999999994 1.7156249999999997 0.49791687499999987
v 0.49999999999999994 1.7156249999999997 0.3312499999999998
vt 0.53125 0.40625
vt 0.5729171875 0.40625
vt 0.59375 0.375
vt 0.53125 0.375
vt 0.6145828125 0.359375
vt 0.65625 0.359375
vt 0.65625 0.328125
vt 0.59375 0.328125
vt 0.265625 0.296875
vt 0.515625 0.296875
vt 0.515625 0.359375
vt 0.265625 0.359375
vt 0.25 0.28125
vt 0.25 0.34375
vt 0 0.34375
vt 0 0.28125
vt 0.25 0.4072265625
vt 0.25 0.4384765625
vt 0 0.4384765625
vt 0 0.4072265625
vt 0 0.4012117187499996
vt 0.25 0.4012117187499996
vt 0.25 0.3636539062499996
vt 0 0.3636539062499996
vt 0.6145828125 0.359375
vt 0.6145828125 0.640625
vt 0.65625 0.640625
vt 0.65625 0.359375
vt 0.25 0.7197265625
vt 0 0.7197265625
vt 0 0.4384765625
vt 0.25 0.4384765625
vt 0.53125 0.40625
vt 0.53125 0.6875
vt 0.5729171875 0.6875
vt 0.5729171875 0.40625
vt 0.25 0.9624421875
vt 0 0.9624421875
vt 0 1
vt 0.25 1
vt 0.65625 0.921875
vt 0.6145828125 0.921875
vt 0.59375 0.953125
vt 0.65625 0.953125
vt 0 0.994140625
vt 0 0.962890625
vt 0.25 0.962890625
vt 0.25 0.994140625
vt 0.5729171875 0.96875
vt 0.53125 0.96875
vt 0.53125 1
vt 0.59375 1
vt 0 0.6824617187499996
vt 0.25 0.6824617187499996
vt 0.25 0.4012117187499996
vt 0 0.4012117187499996
vt 0.5729171875 0.96875
vt 0.5729171875 0.6875
vt 0.53125 0.6875
vt 0.53125 0.96875
vt 0 0.96318359375
vt 0.0625 0.8928710937500001
vt 0.0625 0.7522460937500001
vt 0 0.6819335937499996
vt 0 0.6819335937499996
vt 0.0625 0.7522460937500001
vt 0.1875 0.7522460937500001
vt 0.25 0.6819335937499996
vt 0.25 0.96318359375
vt 0.1875 0.8928710937500001
vt 0.0625 0.8928710937500001
vt 0 0.96318359375
vt 0 0.9634765625
vt 0.0625 0.8931640625000001
vt 0.0625 0.7525390625000001
vt 0 0.6822265624999997
vt 0 0.71875
vt 0.0625 0.7890625
vt 0.1875 0.7890625
vt 0.25 0.71875
vt 0.25 0.9625
vt 0.1875 0.8921875000000001
vt 0.0625 0.8921875000000001
vt 0 0.9625
vt 0.65625 0.921875
vt 0.65625 0.78125
vt 0.6145828125 0.78125
vt 0.6145828125 0.921875
vt 0.6145828125 0.640625
vt 0.6145828125 0.7109375
vt 0.65625 0.7109375
vt 0.65625 0.640625
vt 0.296875 0.6875
vt 0.296875 0.7578125
vt 0.234375 0.7578125
vt 0.28125 0.6875
vt 0.28125 0.7578125
vt 0.21875 0.7578125
vt 0.12109375 0.53125
vt 0.16276093749999998 0.53125
vt 0.16276093749999998 0.671875
vt 0.12109375 0.671875
vt 0.1022140625 0.5693359375
vt 0.1022140625 0.6943359375
vt 0.060546875 0.6943359375
vt 0.060546875 0.5693359375
vt 0.0400390625 0.619140625
vt 0.0400390625 0.5774734375
vt 0.1650390625 0.5774734375
vt 0.1650390625 0.619140625
vn 1 0 -1.2246467991473532e-16
vn -1 0 1.2246467991473532e-16
vn 0 1 0
vn 0 -1 0
vn -1.0267972909681075e-16 0.5449883505954133 -0.8384436163006377
vn -1.2244767787434184e-16 -0.016662686361461267 -0.9998611678044207
vn -1 0 1.2246467991473532e-16
vn -1.2246467991473532e-16 0 -1
vn 1 0 -1.2246467991473532e-16
vn -1.2244767787434184e-16 0.016662686361461267 -0.9998611678044207
vn -1 0 1.2246467991473532e-16
vn -1.0267972909681073e-16 -0.5449883505954138 -0.8384436163006375
vn 1 0 -1.2246467991473532e-16
vn -1.2246467991473532e-16 0 -1
vn 1 0 -1.2246467991473532e-16
vn -1.2246467991473532e-16 0 -1
vn -1.2246467991473532e-16 0 -1
vn -1.2246467991473532e-16 0 -1
vn -1.2246467991473532e-16 0 -1
vn -1.2246467991473532e-16 0 -1
vn -1.2246467991473532e-16 0 -1
vn -1 0 1.2246467991473532e-16
vn -1 0 1.2246467991473532e-16
vn 0 0 0
vn 0 0 0
vn 1 0 -1.2246467991473532e-16
vn -8.881784197001252e-16 -1 1.0877048587575128e-31
vn 0 1 0
usemtl m_b7874cea-eb9b-86bb-161b-b2c3bd3783dc
f 12/1/1 9/2/1 4/3/1 3/4/1
f 10/5/2 11/6/2 7/7/2 8/8/2
f 5/9/3 1/10/3 2/11/3 6/12/3
f 4/13/4 3/14/4 7/15/4 8/16/4
f 3/17/5 12/18/5 11/19/5 7/20/5
f 9/21/6 10/22/6 8/23/6 4/24/6
f 10/25/7 17/26/7 20/27/7 11/28/7
f 19/29/8 20/30/8 11/31/8 12/32/8
f 12/33/9 19/34/9 18/35/9 9/36/9
f 14/37/10 13/38/10 2/39/10 6/40/10
f 15/41/11 14/42/11 6/43/11 5/44/11
f 5/45/12 15/46/12 16/47/12 1/48/12
f 13/49/13 16/50/13 1/51/13 2/52/13
f 18/53/14 17/54/14 10/55/14 9/56/14
f 13/57/15 18/58/15 19/59/15 16/60/15
f 13/61/16 21/62/16 23/63/16 18/64/16
f 18/65/17 23/66/17 22/67/17 17/68/17
f 14/69/18 28/70/18 21/71/18 13/72/18
f 16/73/19 24/74/19 25/75/19 19/76/19
f 19/77/20 25/78/20 26/79/20 20/80/20
f 15/81/21 27/82/21 24/83/21 16/84/21
f 15/85/22 27/86/22 28/87/22 14/88/22
f 17/89/23 29/90/23 30/91/23 20/92/23
f 20/93/24 30/94/24 26/95/24
f 17/96/25 29/97/25 22/98/25
f 23/99/26 25/100/26 24/101/26 21/102/26
f 28/103/27 21/104/27 24/105/27 27/106/27
f 22/107/28 26/108/28 25/109/28 23/110/28
o Mid
v -0.4999999999999999 0.1875 0.5000000000000001
v 0.5000000000000001 0.1875 0.4999999999999999
v -0.4999999999999999 0 0.5000000000000001
v 0.5000000000000001 0 0.4999999999999999
v -0.5000000000000001 0.1875 -0.4999999999999999
v 0.4999999999999999 0.1875 -0.5000000000000001
v -0.5000000000000001 0 -0.4999999999999999
v 0.4999999999999999 0 -0.5000000000000001
v -0.4999999999999999 2.875 0.5000000000000001
v 0.5000000000000001 2.875 0.4999999999999999
v -0.4999999999999999 2.6875 0.5000000000000001
v 0.5000000000000001 2.6875 0.4999999999999999
v -0.5000000000000001 2.875 -0.4999999999999999
v 0.4999999999999999 2.875 -0.5000000000000001
v -0.5000000000000001 2.6875 -0.4999999999999999
v 0.4999999999999999 2.6875 -0.5000000000000001
vt 0 0.421875
vt 0 0.46875
vt 0.25 0.46875
vt 0.25 0.421875
vt 0.53125 1
vt 0.78125 1
vt 0.78125 0.953125
vt 0.53125 0.953125
vt 0 0.734375
vt 0.25 0.734375
vt 0.25 0.484375
vt 0 0.484375
vt 0.53125 0.9375
vt 0.78125 0.9375
vt 0.78125 0.890625
vt 0.53125 0.890625
vt 0.53125 0.828125
vt 0.53125 0.875
vt 0.78125 0.875
vt 0.78125 0.828125
vt 0.78125 0.765625
vt 0.53125 0.765625
vt 0.53125 0.8125
vt 0.78125 0.8125
vt 0.53125 0.703125
vt 0.53125 0.75
vt 0.78125 0.75
vt 0.78125 0.703125
vt 0.515625 1
vt 0.515625 0.75
vt 0.265625 0.75
vt 0.265625 1
vt 0.515625 0.484375
vt 0.515625 0.734375
vt 0.265625 0.734375
vt 0.265625 0.484375
vt 0.265625 0.421875
vt 0.265625 0.46875
vt 0.515625 0.46875
vt 0.515625 0.421875
vt 0.78125 0.640625
vt 0.53125 0.640625
vt 0.53125 0.6875
vt 0.78125 0.6875
vt 0 0.75
vt 0.25 0.75
vt 0.25 1
vt 0 1
vn -2.220446049250313e-16 0 -1
vn 2.220446049250313e-16 0 1
vn 0 1 0
vn 1 0 -2.220446049250313e-16
vn -1 0 2.220446049250313e-16
vn -2.220446049250313e-16 0 -1
vn 2.220446049250313e-16 0 1
vn 0 -1 0
vn 0 -1 0
vn 1 0 -2.220446049250313e-16
vn -1 0 2.220446049250313e-16
vn 0 1 0
usemtl m_430eaa9d-834d-5a30-a06f-26ee704b29d1
f 33/111/29 31/112/29 32/113/29 34/114/29
f 36/115/30 35/116/30 37/117/30 38/118/30
f 37/119/31 33/120/31 34/121/31 38/122/31
f 35/123/32 31/124/32 33/125/32 37/126/32
f 34/127/33 32/128/33 36/129/33 38/130/33
f 42/131/34 41/132/34 39/133/34 40/134/34
f 46/135/35 44/136/35 43/137/35 45/138/35
f 40/139/36 39/140/36 43/141/36 44/142/36
f 42/143/37 41/144/37 45/145/37 46/146/37
f 45/147/38 43/148/38 39/149/38 41/150/38
f 46/151/39 42/152/39 40/153/39 44/154/39
f 35/155/40 31/156/40 32/157/40 36/158/40