# Made in Blockbench 4.12.5
mtllib HomeCornerSide2.mtl

o Mid
v 0.5 0.1875 0.5
v 0.5 0.1875 -0.5
v 0.5 0 0.5
v 0.5 0 -0.5
v -0.5 0.1875 0.5
v -0.5 0.1875 -0.5
v -0.5 0 0.5
v -0.5 0 -0.5
v 0.5 2.875 0.5
v 0.5 2.875 -0.5
v 0.5 2.6875 0.5
v 0.5 2.6875 -0.5
v -0.5 2.875 0.5
v -0.5 2.875 -0.5
v -0.5 2.6875 0.5
v -0.5 2.6875 -0.5
vt 0 0.421875
vt 0 0.46875
vt 0.25 0.46875
vt 0.25 0.421875
vt 0.53125 1
vt 0.78125 1
vt 0.78125 0.953125
vt 0.53125 0.953125
vt 0 0.734375
vt 0.25 0.734375
vt 0.25 0.484375
vt 0 0.484375
vt 0.53125 0.9375
vt 0.78125 0.9375
vt 0.78125 0.890625
vt 0.53125 0.890625
vt 0.53125 0.828125
vt 0.53125 0.875
vt 0.78125 0.875
vt 0.78125 0.828125
vt 0.78125 0.765625
vt 0.53125 0.765625
vt 0.53125 0.8125
vt 0.78125 0.8125
vt 0.53125 0.703125
vt 0.53125 0.75
vt 0.78125 0.75
vt 0.78125 0.703125
vt 0.515625 1
vt 0.515625 0.75
vt 0.265625 0.75
vt 0.265625 1
vt 0.515625 0.484375
vt 0.515625 0.734375
vt 0.265625 0.734375
vt 0.265625 0.484375
vt 0.265625 0.421875
vt 0.265625 0.46875
vt 0.515625 0.46875
vt 0.515625 0.421875
vt 0.78125 0.640625
vt 0.53125 0.640625
vt 0.53125 0.6875
vt 0.78125 0.6875
vt 0 0.75
vt 0.25 0.75
vt 0.25 1
vt 0 1
vn -1 0 0
vn 1 0 0
vn 0 1 0
vn 0 0 -1
vn 0 0 1
vn -1 0 0
vn 1 0 0
vn 0 -1 0
vn 0 -1 0
vn 0 0 -1
vn 0 0 1
vn 0 1 0
usemtl m_430eaa9d-834d-5a30-a06f-26ee704b29d1
f 3/1/1 1/2/1 2/3/1 4/4/1
f 6/5/2 5/6/2 7/7/2 8/8/2
f 7/9/3 3/10/3 4/11/3 8/12/3
f 5/13/4 1/14/4 3/15/4 7/16/4
f 4/17/5 2/18/5 6/19/5 8/20/5
f 12/21/6 11/22/6 9/23/6 10/24/6
f 16/25/7 14/26/7 13/27/7 15/28/7
f 10/29/8 9/30/8 13/31/8 14/32/8
f 12/33/9 11/34/9 15/35/9 16/36/9
f 15/37/10 13/38/10 9/39/10 11/40/10
f 16/41/11 12/42/11 10/43/11 14/44/11
f 5/45/12 1/46/12 2/47/12 6/48/12
o Wall
v 0.49999999999999994 2.6875 0.2500000000000001
v 0.24999999999999994 2.6875 0.25000000000000006
v 0.49999999999999994 0.1875 0.2500000000000001
v 0.24999999999999994 0.1875 0.25000000000000006
v 0.4999999999999999 2.6875 0.5000000000000001
v 0.2499999999999999 2.6875 0.5
v 0.4999999999999999 0.1875 0.5000000000000001
v 0.2499999999999999 0.1875 0.5
v 0.33124999999999993 2.5625 0.33125000000000004
v 0.3312499999999999 2.5625 0.5000000000000001
v 0.4999999999999999 2.5625 0.5000000000000001
v 0.49999999999999994 2.5625 0.3312500000000001
v 0.3312499999999999 0.3125 0.5000000000000001
v 0.33124999999999993 0.3125 0.33125000000000004
v 0.49999999999999994 0.3125 0.3312500000000001
v 0.4999999999999999 0.3125 0.5000000000000001
vt 0 0.9627281249999999
vt 0 0.40022812499999993
vt 0.0421875 0.40022812499999993
vt 0.0421875 0.9627281249999999
vt 0.203125 0.40625
vt 0.1609375 0.40625
vt 0.1609375 0.96875
vt 0.203125 0.96875
vt 0.28125 0.890625
vt 0.34375 0.890625
vt 0.34375 0.953125
vt 0.28125 0.953125
vt 0.34375 0.8125
vt 0.34375 0.875
vt 0.28125 0.875
vt 0.28125 0.8125
vt 0.2609375 0.40625
vt 0.21875 0.40625
vt 0.21875 0.96875
vt 0.2609375 0.96875
vt 0.0828125 0.9002281249999999
vt 0.0828125 0.33772812499999993
vt 0.125 0.33772812499999993
vt 0.125 0.9002281249999999
vt 0.0625 0.9375
vt 0.0828125 0.9002281249999999
vt 0.125 0.9002281249999999
vt 0.125 0.9375
vt 0.203125 0.96875
vt 0.1609375 0.96875
vt 0.140625 1
vt 0.203125 1
vt 0.2609375 0.96875
vt 0.21875 0.96875
vt 0.21875 1
vt 0.28125 1
vt 0 1
vt 0 0.9627281249999999
vt 0.0421875 0.9627281249999999
vt 0.0625 1
vt 0.125 0.3004578124999999
vt 0.125 0.33772812499999993
vt 0.0828125 0.33772812499999993
vt 0.0625 0.3004578124999999
vt 0.0625 0.3629578124999999
vt 0.0421875 0.40022812499999993
vt 0 0.40022812499999993
vt 0 0.3629578124999999
vt 0.21875 0.40625
vt 0.2609375 0.40625
vt 0.28125 0.375
vt 0.21875 0.375
vt 0.1609375 0.40625
vt 0.203125 0.40625
vt 0.203125 0.375
vt 0.140625 0.375
vn 2.220446049250313e-16 0 -1
vn 2.220446049250313e-16 0 -1
vn 0 1 0
vn 0 -1 0
vn -1 0 -2.220446049250313e-16
vn -1 0 -2.220446049250313e-16
vn -0.8384436163006371 -0.5449883505954141 -1.861718815333895e-16
vn 2.220446049250313e-16 0 -1
vn -1 0 -2.220446049250313e-16
vn 1.861718815333895e-16 -0.5449883505954141 -0.8384436163006371
vn -0.8384436163006371 0.5449883505954141 -1.861718815333895e-16
vn 1.861718815333895e-16 0.5449883505954141 -0.8384436163006371
vn -1 0 -2.220446049250313e-16
vn 2.220446049250313e-16 0 -1
usemtl m_066b8f3a-0e3f-7aed-64dc-219858c6398a
f 28/49/13 31/50/13 30/51/13 25/52/13
f 32/53/14 29/54/14 26/55/14 27/56/14
f 21/57/15 17/58/15 18/59/15 22/60/15
f 20/61/16 19/62/16 23/63/16 24/64/16
f 31/65/17 32/66/17 27/67/17 28/68/17
f 25/69/18 30/70/18 29/71/18 26/72/18
f 18/73/19 25/74/19 26/75/19 22/76/19
f 27/77/20 26/78/20 22/79/20 21/80/20
f 28/81/21 27/82/21 21/83/21 17/84/21
f 17/85/22 28/86/22 25/87/22 18/88/22
f 24/89/23 29/90/23 30/91/23 20/92/23
f 20/93/24 30/94/24 31/95/24 19/96/24
f 32/97/25 31/98/25 19/99/25 23/100/25
f 29/101/26 32/102/26 23/103/26 24/104/26