# Made in Blockbench 4.12.5
mtllib HomeWallUNI.mtl

o Wall
v 0.5000000000000001 2.6875 -0.4999999999999999
v 0.2500000000000001 2.6875 -0.49999999999999994
v 0.5000000000000001 0.1875 -0.4999999999999999
v 0.2500000000000001 0.1875 -0.49999999999999994
v 0.4999999999999999 2.6875 0.5000000000000001
v 0.2499999999999999 2.6875 0.5
v 0.4999999999999999 0.1875 0.5000000000000001
v 0.2499999999999999 0.1875 0.5
v 0.3333331250000001 0.3125 -0.49999999999999994
v 0.3333331249999999 0.3125 0.5000000000000001
v 0.4999999999999999 0.3125 0.5000000000000001
v 0.5000000000000001 0.3125 -0.4999999999999999
v 0.3333331250000001 2.5625 -0.49999999999999994
v 0.3333331249999999 2.5625 0.5000000000000001
v 0.4999999999999999 2.5625 0.5000000000000001
v 0.5000000000000001 2.5625 -0.4999999999999999
vt 0.53125 0.40625
vt 0.5729171875 0.40625
vt 0.59375 0.375
vt 0.53125 0.375
vt 0.6145828125 0.359375
vt 0.65625 0.359375
vt 0.65625 0.328125
vt 0.59375 0.328125
vt 0.265625 0.296875
vt 0.515625 0.296875
vt 0.515625 0.359375
vt 0.265625 0.359375
vt 0.25 0.28125
vt 0.25 0.34375
vt 0 0.34375
vt 0 0.28125
vt 0.265625 0.40625
vt 0.515625 0.40625
vt 0.515625 0.375
vt 0.265625 0.375
vt 0.25 0.362384375
vt 0.25 0.3999421875
vt 0 0.3999421875
vt 0 0.362384375
vt 0.25 0.3999421875
vt 0.25 0.9624421875
vt 0 0.9624421875
vt 0 0.3999421875
vt 0.6145828125 0.921875
vt 0.65625 0.921875
vt 0.65625 0.359375
vt 0.6145828125 0.359375
vt 0.265625 0.96875
vt 0.515625 0.96875
vt 0.515625 0.40625
vt 0.265625 0.40625
vt 0.53125 0.96875
vt 0.5729171875 0.96875
vt 0.5729171875 0.40625
vt 0.53125 0.40625
vt 0 1
vt 0 0.9624421875
vt 0.25 0.9624421875
vt 0.25 1
vt 0.65625 0.921875
vt 0.6145828125 0.921875
vt 0.59375 0.953125
vt 0.65625 0.953125
vt 0.515625 0.96875
vt 0.265625 0.96875
vt 0.265625 1
vt 0.515625 1
vt 0.5729171875 0.96875
vt 0.53125 0.96875
vt 0.53125 1
vt 0.59375 1
vn -2.220446049250313e-16 0 1
vn 2.220446049250313e-16 0 -1
vn 0 1 0
vn 0 -1 0
vn -1 0 -2.220446049250313e-16
vn -0.83205093437647 0.5546992361660894 -1.8475242100112644e-16
vn -1 0 -2.220446049250313e-16
vn 2.220446049250313e-16 0 -1
vn -1 0 -2.220446049250313e-16
vn -2.220446049250313e-16 0 1
vn -0.83205093437647 -0.5546992361660894 -1.8475242100112644e-16
vn 2.220446049250313e-16 0 -1
vn -1 0 -2.220446049250313e-16
vn -2.220446049250313e-16 0 1
usemtl m_b7874cea-eb9b-86bb-161b-b2c3bd3783dc
f 12/1/1 9/2/1 4/3/1 3/4/1
f 10/5/2 11/6/2 7/7/2 8/8/2
f 5/9/3 1/10/3 2/11/3 6/12/3
f 4/13/4 3/14/4 7/15/4 8/16/4
f 11/17/5 12/18/5 3/19/5 7/20/5
f 8/21/6 10/22/6 9/23/6 4/24/6
f 10/25/7 14/26/7 13/27/7 9/28/7
f 14/29/8 15/30/8 11/31/8 10/32/8
f 15/33/9 16/34/9 12/35/9 11/36/9
f 16/37/10 13/38/10 9/39/10 12/40/10
f 2/41/11 13/42/11 14/43/11 6/44/11
f 15/45/12 14/46/12 6/47/12 5/48/12
f 16/49/13 15/50/13 5/51/13 1/52/13
f 13/53/14 16/54/14 1/55/14 2/56/14