# Made in Blockbench 4.12.5
mtllib HomeWallWindowFrontRight.mtl

o Mid
v 0.5 0.1875 0.5
v 0.5 0.1875 -0.5
v 0.5 0 0.5
v 0.5 0 -0.5
v -0.5 0.1875 0.5
v -0.5 0.1875 -0.5
v -0.5 0 0.5
v -0.5 0 -0.5
v 0.5 2.875 0.5
v 0.5 2.875 -0.5
v 0.5 2.6875 0.5
v 0.5 2.6875 -0.5
v -0.5 2.875 0.5
v -0.5 2.875 -0.5
v -0.5 2.6875 0.5
v -0.5 2.6875 -0.5
vt 0 0.421875
vt 0 0.46875
vt 0.25 0.46875
vt 0.25 0.421875
vt 0.53125 1
vt 0.78125 1
vt 0.78125 0.953125
vt 0.53125 0.953125
vt 0 0.734375
vt 0.25 0.734375
vt 0.25 0.484375
vt 0 0.484375
vt 0.53125 0.9375
vt 0.78125 0.9375
vt 0.78125 0.890625
vt 0.53125 0.890625
vt 0.53125 0.828125
vt 0.53125 0.875
vt 0.78125 0.875
vt 0.78125 0.828125
vt 0.78125 0.765625
vt 0.53125 0.765625
vt 0.53125 0.8125
vt 0.78125 0.8125
vt 0.53125 0.703125
vt 0.53125 0.75
vt 0.78125 0.75
vt 0.78125 0.703125
vt 0.515625 1
vt 0.515625 0.75
vt 0.265625 0.75
vt 0.265625 1
vt 0.515625 0.484375
vt 0.515625 0.734375
vt 0.265625 0.734375
vt 0.265625 0.484375
vt 0.265625 0.421875
vt 0.265625 0.46875
vt 0.515625 0.46875
vt 0.515625 0.421875
vt 0.78125 0.640625
vt 0.53125 0.640625
vt 0.53125 0.6875
vt 0.78125 0.6875
vt 0 0.75
vt 0.25 0.75
vt 0.25 1
vt 0 1
vn -1 0 0
vn 1 0 0
vn 0 1 0
vn 0 0 -1
vn 0 0 1
vn -1 0 0
vn 1 0 0
vn 0 -1 0
vn 0 -1 0
vn 0 0 -1
vn 0 0 1
vn 0 1 0
usemtl m_430eaa9d-834d-5a30-a06f-26ee704b29d1
f 3/1/1 1/2/1 2/3/1 4/4/1
f 6/5/2 5/6/2 7/7/2 8/8/2
f 7/9/3 3/10/3 4/11/3 8/12/3
f 5/13/4 1/14/4 3/15/4 7/16/4
f 4/17/5 2/18/5 6/19/5 8/20/5
f 12/21/6 11/22/6 9/23/6 10/24/6
f 16/25/7 14/26/7 13/27/7 15/28/7
f 10/29/8 9/30/8 13/31/8 14/32/8
f 12/33/9 11/34/9 15/35/9 16/36/9
f 15/37/10 13/38/10 9/39/10 11/40/10
f 16/41/11 12/42/11 10/43/11 14/44/11
f 5/45/12 1/46/12 2/47/12 6/48/12
o Wall
v -0.5000000000000001 2.6875 0.2500000000000001
v -0.5 2.6875 0.5
v -0.5000000000000001 0.1875 0.2500000000000002
v -0.5 0.1875 0.5
v 0.49999999999999994 2.6875 0.2499999999999999
v 0.49999999999999994 2.6875 0.49999999999999994
v 0.49999999999999994 0.1875 0.25
v 0.49999999999999994 0.1875 0.49999999999999994
v -0.5 0.3125 0.497916875
v 0.49999999999999994 0.3125 0.49791687499999987
v 0.49999999999999994 0.3125 0.3312499999999998
v -0.5000000000000001 0.3125 0.33125
v -0.5 2.5625 0.497916875
v 0.49999999999999994 2.5625 0.49791687499999987
v 0.49999999999999994 2.5625 0.3312499999999998
v -0.5000000000000001 2.5625 0.33125
v 0.49999999999999994 1.4375 0.49791687499999987
v -0.5 1.4375 0.497916875
v -0.5000000000000001 1.4375 0.33125
v 0.49999999999999994 1.4375 0.3312499999999998
v -4.0821534458103456e-17 2.28125 0.4979168749999999
v 0.49999999999999994 1.71875 0.49791687499999987
v -4.0821534458103456e-17 1.71875 0.4979168749999999
v -6.123233995736766e-17 2.28125 0.33124999999999993
v -6.123233995736766e-17 1.71875 0.33124999999999993
v 0.49999999999999994 1.71875 0.3312499999999998
v 0.49999999999999994 2.2812499999999996 0.3312499999999998
v 0.49999999999999994 2.2812499999999996 0.49791687499999987
v 0.49999999999999994 1.7156249999999997 0.49791687499999987
v 0.49999999999999994 1.7156249999999997 0.3312499999999998
vt 0.53125 0.40625
vt 0.5729171875 0.40625
vt 0.59375 0.375
vt 0.53125 0.375
vt 0.6145828125 0.359375
vt 0.65625 0.359375
vt 0.65625 0.328125
vt 0.59375 0.328125
vt 0.265625 0.296875
vt 0.515625 0.296875
vt 0.515625 0.359375
vt 0.265625 0.359375
vt 0.25 0.28125
vt 0.25 0.34375
vt 0 0.34375
vt 0 0.28125
vt 0.25 0.4072265625
vt 0.25 0.4384765625
vt 0 0.4384765625
vt 0 0.4072265625
vt 0 0.3991609375000015
vt 0.25 0.3991609375000015
vt 0.25 0.36160312500000147
vt 0 0.36160312500000147
vt 0.6145828125 0.359375
vt 0.6145828125 0.640625
vt 0.65625 0.640625
vt 0.65625 0.359375
vt 0.25 0.7197265625
vt 0 0.7197265625
vt 0 0.4384765625
vt 0.25 0.4384765625
vt 0.53125 0.40625
vt 0.53125 0.6875
vt 0.5729171875 0.6875
vt 0.5729171875 0.40625
vt 0.25 0.9624421875
vt 0 0.9624421875
vt 0 1
vt 0.25 1
vt 0.65625 0.921875
vt 0.6145828125 0.921875
vt 0.59375 0.953125
vt 0.65625 0.953125
vt 0 0.994140625
vt 0 0.962890625
vt 0.25 0.962890625
vt 0.25 0.994140625
vt 0.5729171875 0.96875
vt 0.53125 0.96875
vt 0.53125 1
vt 0.59375 1
vt 0 0.6804109374999995
vt 0.25 0.6804109374999995
vt 0.25 0.3991609375000015
vt 0 0.3991609375000015
vt 0.5729171875 0.96875
vt 0.5729171875 0.6875
vt 0.53125 0.6875
vt 0.53125 0.96875
vt 0 0.9611328125
vt 0.0625 0.8908203125
vt 0.0625 0.7501953124999997
vt 0 0.6798828124999995
vt 0 0.6798828124999995
vt 0.0625 0.7501953124999997
vt 0.1875 0.7501953124999997
vt 0.25 0.6798828124999995
vt 0.25 0.9611328125
vt 0.1875 0.8908203125
vt 0.0625 0.8908203125
vt 0 0.9611328125
vt 0 0.9626953125
vt 0.0625 0.8923828125000001
vt 0.0625 0.7517578124999997
vt 0 0.6814453124999995
vt 0 0.6814453124999995
vt 0.0625 0.7517578124999997
vt 0.1875 0.7517578124999997
vt 0.25 0.6814453124999995
vt 0.25 0.96171875
vt 0.1875 0.8914062500000001
vt 0.0625 0.8914062500000001
vt 0 0.96171875
vt 0.65625 0.921875
vt 0.65625 0.78125
vt 0.6145828125 0.78125
vt 0.6145828125 0.921875
vt 0.6145828125 0.640625
vt 0.6145828125 0.7109375
vt 0.65625 0.7109375
vt 0.65625 0.640625
vt 0.296875 0.6875
vt 0.296875 0.7578125
vt 0.234375 0.7578125
vt 0.28125 0.6875
vt 0.28125 0.7578125
vt 0.21875 0.7578125
vt 0.12109375 0.53125
vt 0.16276093749999998 0.53125
vt 0.16276093749999998 0.671875
vt 0.12109375 0.671875
vt 0.1022140625 0.5693359375
vt 0.1022140625 0.6943359375
vt 0.060546875 0.6943359375
vt 0.060546875 0.5693359375
vt 0.0400390625 0.619140625
vt 0.0400390625 0.5774734375
vt 0.1650390625 0.5774734375
vt 0.1650390625 0.619140625
vn 1 0 -1.2246467991473532e-16
vn -1 0 1.2246467991473532e-16
vn 0 1 0
vn 0 -1 0
vn -1.0267972909681075e-16 0.5449883505954133 -0.8384436163006377
vn -1.2244767787434184e-16 -0.016662686361461267 -0.9998611678044207
vn -1 0 1.2246467991473532e-16
vn -1.2246467991473532e-16 0 -1
vn 1 0 -1.2246467991473532e-16
vn -1.2244767787434184e-16 0.016662686361461267 -0.9998611678044207
vn -1 0 1.2246467991473532e-16
vn -1.0267972909681073e-16 -0.5449883505954138 -0.8384436163006375
vn 1 0 -1.2246467991473532e-16
vn -1.2246467991473532e-16 0 -1
vn 1 0 -1.2246467991473532e-16
vn -1.2246467991473532e-16 0 -1
vn -1.2246467991473532e-16 0 -1
vn -1.2246467991473532e-16 0 -1
vn -1.2246467991473532e-16 0 -1
vn -1.2246467991473532e-16 0 -1
vn -1.2246467991473532e-16 0 -1
vn -1 0 1.2246467991473532e-16
vn -1 0 1.2246467991473532e-16
vn 0 0 0
vn 0 0 0
vn 1 0 -1.2246467991473532e-16
vn -8.881784197001252e-16 -1 1.0877048587575128e-31
vn 0 1 0
usemtl m_b7874cea-eb9b-86bb-161b-b2c3bd3783dc
f 28/49/13 25/50/13 20/51/13 19/52/13
f 26/53/14 27/54/14 23/55/14 24/56/14
f 21/57/15 17/58/15 18/59/15 22/60/15
f 20/61/16 19/62/16 23/63/16 24/64/16
f 19/65/17 28/66/17 27/67/17 23/68/17
f 25/69/18 26/70/18 24/71/18 20/72/18
f 26/73/19 33/74/19 36/75/19 27/76/19
f 35/77/20 36/78/20 27/79/20 28/80/20
f 28/81/21 35/82/21 34/83/21 25/84/21
f 30/85/22 29/86/22 18/87/22 22/88/22
f 31/89/23 30/90/23 22/91/23 21/92/23
f 21/93/24 31/94/24 32/95/24 17/96/24
f 29/97/25 32/98/25 17/99/25 18/100/25
f 34/101/26 33/102/26 26/103/26 25/104/26
f 29/105/27 34/106/27 35/107/27 32/108/27
f 29/109/28 37/110/28 39/111/28 34/112/28
f 34/113/29 39/114/29 38/115/29 33/116/29
f 30/117/30 44/118/30 37/119/30 29/120/30
f 32/121/31 40/122/31 41/123/31 35/124/31
f 35/125/32 41/126/32 42/127/32 36/128/32
f 31/129/33 43/130/33 40/131/33 32/132/33
f 31/133/34 43/134/34 44/135/34 30/136/34
f 33/137/35 45/138/35 46/139/35 36/140/35
f 36/141/36 46/142/36 42/143/36
f 33/144/37 45/145/37 38/146/37
f 39/147/38 41/148/38 40/149/38 37/150/38
f 44/151/39 37/152/39 40/153/39 43/154/39
f 38/155/40 42/156/40 41/157/40 39/158/40