# Made in Blockbench 4.12.5
mtllib HomeMid.mtl

o Mid
v 0.5 0.1875 0.5
v 0.5 0.1875 -0.5
v 0.5 0 0.5
v 0.5 0 -0.5
v -0.5 0.1875 0.5
v -0.5 0.1875 -0.5
v -0.5 0 0.5
v -0.5 0 -0.5
v 0.5 2.875 0.5
v 0.5 2.875 -0.5
v 0.5 2.6875 0.5
v 0.5 2.6875 -0.5
v -0.5 2.875 0.5
v -0.5 2.875 -0.5
v -0.5 2.6875 0.5
v -0.5 2.6875 -0.5
vt 0 0.421875
vt 0 0.46875
vt 0.25 0.46875
vt 0.25 0.421875
vt 0.53125 1
vt 0.78125 1
vt 0.78125 0.953125
vt 0.53125 0.953125
vt 0 0.734375
vt 0.25 0.734375
vt 0.25 0.484375
vt 0 0.484375
vt 0.53125 0.9375
vt 0.78125 0.9375
vt 0.78125 0.890625
vt 0.53125 0.890625
vt 0.53125 0.828125
vt 0.53125 0.875
vt 0.78125 0.875
vt 0.78125 0.828125
vt 0.78125 0.765625
vt 0.53125 0.765625
vt 0.53125 0.8125
vt 0.78125 0.8125
vt 0.53125 0.703125
vt 0.53125 0.75
vt 0.78125 0.75
vt 0.78125 0.703125
vt 0.515625 1
vt 0.515625 0.75
vt 0.265625 0.75
vt 0.265625 1
vt 0.515625 0.484375
vt 0.515625 0.734375
vt 0.265625 0.734375
vt 0.265625 0.484375
vt 0.265625 0.421875
vt 0.265625 0.46875
vt 0.515625 0.46875
vt 0.515625 0.421875
vt 0.78125 0.640625
vt 0.53125 0.640625
vt 0.53125 0.6875
vt 0.78125 0.6875
vt 0 0.75
vt 0.25 0.75
vt 0.25 1
vt 0 1
vn -1 0 0
vn 1 0 0
vn 0 1 0
vn 0 0 -1
vn 0 0 1
vn -1 0 0
vn 1 0 0
vn 0 -1 0
vn 0 -1 0
vn 0 0 -1
vn 0 0 1
vn 0 1 0
usemtl m_430eaa9d-834d-5a30-a06f-26ee704b29d1
f 3/1/1 1/2/1 2/3/1 4/4/1
f 6/5/2 5/6/2 7/7/2 8/8/2
f 7/9/3 3/10/3 4/11/3 8/12/3
f 5/13/4 1/14/4 3/15/4 7/16/4
f 4/17/5 2/18/5 6/19/5 8/20/5
f 12/21/6 11/22/6 9/23/6 10/24/6
f 16/25/7 14/26/7 13/27/7 15/28/7
f 10/29/8 9/30/8 13/31/8 14/32/8
f 12/33/9 11/34/9 15/35/9 16/36/9
f 15/37/10 13/38/10 9/39/10 11/40/10
f 16/41/11 12/42/11 10/43/11 14/44/11
f 5/45/12 1/46/12 2/47/12 6/48/12