# Made in Blockbench 4.12.5
mtllib HomeWallWindowFrontMid.mtl

o Wall
v 0.5 2.6875 0.5
v 0.5 2.6875 0.25
v 0.5 0.1875 0.5
v 0.5 0.1875 0.25
v -0.5 2.6875 0.5
v -0.5 2.6875 0.25
v -0.5 0.1875 0.5
v -0.5 0.1875 0.25
v 0.5 0.3125 0.333333125
v -0.5 0.3125 0.333333125
v -0.5 0.3125 0.5
v 0.5 0.3125 0.5
v 0.5 2.5625 0.333333125
v -0.5 2.5625 0.333333125
v -0.5 2.5625 0.5
v 0.5 2.5625 0.5
v -0.5 1.4375 0.333333125
v 0.5 1.4375 0.333333125
v 0.5 1.4375 0.5
v -0.5 1.4375 0.5
v -0.5 1.71875 0.333333125
v -0.5 1.71875 0.5
v -0.5 2.2812499999999996 0.5
v -0.5 2.2812499999999996 0.333333125
v -0.5 1.7156249999999997 0.333333125
v -0.5 1.7156249999999997 0.5
v 0.5 1.71875 0.333333125
v 0.5 1.71875 0.5
v 0 1.71875 0.5
v 0 1.71875 0.333333125
v 0.5 2.2812500000000004 0.333333125
v 0.5 2.2812500000000004 0.5
v 0 2.2812500000000004 0.5
v 0 2.2812500000000004 0.333333125
vt 0.53125 0.40625
vt 0.5729171875 0.40625
vt 0.59375 0.375
vt 0.53125 0.375
vt 0.6145828125 0.359375
vt 0.65625 0.359375
vt 0.65625 0.328125
vt 0.59375 0.328125
vt 0.265625 0.296875
vt 0.515625 0.296875
vt 0.515625 0.359375
vt 0.265625 0.359375
vt 0.25 0.28125
vt 0.25 0.34375
vt 0 0.34375
vt 0 0.28125
vt 0.265625 0.40625
vt 0.515625 0.40625
vt 0.515625 0.375
vt 0.265625 0.375
vt 0.25 0.4004703125
vt 0.25 0.438028125
vt 0 0.438028125
vt 0 0.4004703125
vt 0.6145828125 0.359375
vt 0.6145828125 0.640625
vt 0.65625 0.640625
vt 0.65625 0.359375
vt 0.265625 0.40625
vt 0.265625 0.6875
vt 0.515625 0.6875
vt 0.515625 0.40625
vt 0.53125 0.40625
vt 0.53125 0.6875
vt 0.5729171875 0.6875
vt 0.5729171875 0.40625
vt 0 1
vt 0 0.9624421875
vt 0.25 0.9624421875
vt 0.25 1
vt 0.65625 0.921875
vt 0.6145828125 0.921875
vt 0.59375 0.953125
vt 0.65625 0.953125
vt 0.515625 0.96875
vt 0.265625 0.96875
vt 0.265625 1
vt 0.515625 1
vt 0.5729171875 0.96875
vt 0.53125 0.96875
vt 0.53125 1
vt 0.59375 1
vt 0.25 0.438028125
vt 0.25 0.719278125
vt 0 0.719278125
vt 0 0.438028125
vt 0.53125 0.6875
vt 0.53125 0.828125
vt 0.5729171875 0.828125
vt 0.5729171875 0.6875
vt 0.062890625 0.8925781250000002
vt 0 0.962890625
vt 0 0.892578125
vt 0.1875 0.7890625
vt 0.0625 0.7890625
vt 0 0.71875
vt 0.25 0.71875
vt 0.0625 0.892578125
vt 0.1875 0.892578125
vt 0.25 0.962890625
vt 0 0.962890625
vt 0.484375 0.828125
vt 0.546875 0.828125
vt 0.484375 0.6875
vt 0.453125 0.71875
vt 0.328125 0.71875
vt 0.265625 0.6484375
vt 0.515625 0.6484375
vt 0.328125 0.9296875
vt 0.453125 0.9296875
vt 0.515625 1
vt 0.265625 1
vt 0.65625 0.921875
vt 0.65625 0.78125
vt 0.6145828125 0.78125
vt 0.6145828125 0.921875
vt 0.6145828125 0.640625
vt 0.6145828125 0.7109375
vt 0.65625 0.7109375
vt 0.65625 0.640625
vt 0.296875 0.6875
vt 0.296875 0.7578125
vt 0.234375 0.7578125
vt 0.28125 0.6875
vt 0.28125 0.7578125
vt 0.21875 0.7578125
vt 0.1022140625 0.5693359375
vt 0.1022140625 0.6943359375
vt 0.060546875 0.6943359375
vt 0.060546875 0.5693359375
vt 0.0400390625 0.619140625
vt 0.0400390625 0.5774734375
vt 0.1650390625 0.5774734375
vt 0.1650390625 0.619140625
vt 0.0625 0.7890625
vt 0 0.7890625
vt 0 0.71875
vt 0.5729171875 0.96875
vt 0.5729171875 0.8984375
vt 0.53125 0.8984375
vt 0.53125 0.96875
vt 0.484375 0.96875
vt 0.484375 0.8984375
vt 0.546875 0.86328125
vt 0.05859375 0.572265625
vt 0.05859375 0.5305984375
vt 0.18359375 0.5305984375
vt 0.18359375 0.572265625
vt 0.1865234375 0.5032546875
vt 0.0615234375 0.5032546875
vt 0.0615234375 0.544921875
vt 0.1865234375 0.544921875
vn -1 0 0
vn 1 0 0
vn 0 1 0
vn 0 -1 0
vn 0 0 -1
vn 0 0.5546992361660894 -0.83205093437647
vn 1 0 0
vn 0 0 -1
vn -1 0 0
vn 0 -0.5546992361660894 -0.83205093437647
vn 1 0 0
vn 0 0 -1
vn -1 0 0
vn 0 0 -1
vn -1 0 0
vn 0 0 -1
vn 0 0 -1
vn 0 0 -1
vn 0 0 1
vn 0 0 -1
vn 0 0 -1
vn 1 0 0
vn 1 0 0
vn 0 0 0
vn 0 0 0
vn 1.7763568394002505e-15 -1 0
vn 0 1 0
vn 0 0 -1
vn -1 0 0
vn 0 0 -1
vn 0 1 0
vn 0 -1 0
usemtl m_b7874cea-eb9b-86bb-161b-b2c3bd3783dc
f 12/1/1 9/2/1 4/3/1 3/4/1
f 10/5/2 11/6/2 7/7/2 8/8/2
f 5/9/3 1/10/3 2/11/3 6/12/3
f 4/13/4 3/14/4 7/15/4 8/16/4
f 11/17/5 12/18/5 3/19/5 7/20/5
f 8/21/6 10/22/6 9/23/6 4/24/6
f 10/25/7 17/26/7 20/27/7 11/28/7
f 11/29/8 20/30/8 19/31/8 12/32/8
f 12/33/9 19/34/9 18/35/9 9/36/9
f 2/37/10 13/38/10 14/39/10 6/40/10
f 15/41/11 14/42/11 6/43/11 5/44/11
f 16/45/12 15/46/12 5/47/12 1/48/12
f 13/49/13 16/50/13 1/51/13 2/52/13
f 10/53/14 17/54/14 18/55/14 9/56/14
f 19/57/15 28/58/15 27/59/15 18/60/15
f 34/61/16 13/62/16 31/63/16
f 21/64/17 30/65/17 18/66/17 17/67/17
f 34/68/18 24/69/18 14/70/18 13/71/18
f 28/72/19 29/73/19 19/74/19
f 22/75/20 29/76/20 19/77/20 20/78/20
f 33/79/21 23/80/21 15/81/21 16/82/21
f 15/83/22 23/84/22 24/85/22 14/86/22
f 17/87/23 25/88/23 26/89/23 20/90/23
f 20/91/24 26/92/24 22/93/24
f 17/94/25 25/95/25 21/96/25
f 24/97/26 34/98/26 33/99/26 23/100/26
f 21/101/27 22/102/27 29/103/27 30/104/27
f 30/105/28 27/106/28 18/107/28
f 13/108/29 31/109/29 32/110/29 16/111/29
f 16/112/30 32/113/30 33/114/30
f 30/115/31 29/116/31 28/117/31 27/118/31
f 32/119/32 33/120/32 34/121/32 31/122/32
o Mid
v 0.5 0.1875 0.5
v 0.5 0.1875 -0.5
v 0.5 0 0.5
v 0.5 0 -0.5
v -0.5 0.1875 0.5
v -0.5 0.1875 -0.5
v -0.5 0 0.5
v -0.5 0 -0.5
v 0.5 2.875 0.5
v 0.5 2.875 -0.5
v 0.5 2.6875 0.5
v 0.5 2.6875 -0.5
v -0.5 2.875 0.5
v -0.5 2.875 -0.5
v -0.5 2.6875 0.5
v -0.5 2.6875 -0.5
vt 0 0.421875
vt 0 0.46875
vt 0.25 0.46875
vt 0.25 0.421875
vt 0.53125 1
vt 0.78125 1
vt 0.78125 0.953125
vt 0.53125 0.953125
vt 0 0.734375
vt 0.25 0.734375
vt 0.25 0.484375
vt 0 0.484375
vt 0.53125 0.9375
vt 0.78125 0.9375
vt 0.78125 0.890625
vt 0.53125 0.890625
vt 0.53125 0.828125
vt 0.53125 0.875
vt 0.78125 0.875
vt 0.78125 0.828125
vt 0.78125 0.765625
vt 0.53125 0.765625
vt 0.53125 0.8125
vt 0.78125 0.8125
vt 0.53125 0.703125
vt 0.53125 0.75
vt 0.78125 0.75
vt 0.78125 0.703125
vt 0.515625 1
vt 0.515625 0.75
vt 0.265625 0.75
vt 0.265625 1
vt 0.515625 0.484375
vt 0.515625 0.734375
vt 0.265625 0.734375
vt 0.265625 0.484375
vt 0.265625 0.421875
vt 0.265625 0.46875
vt 0.515625 0.46875
vt 0.515625 0.421875
vt 0.78125 0.640625
vt 0.53125 0.640625
vt 0.53125 0.6875
vt 0.78125 0.6875
vt 0 0.75
vt 0.25 0.75
vt 0.25 1
vt 0 1
vn -1 0 0
vn 1 0 0
vn 0 1 0
vn 0 0 -1
vn 0 0 1
vn -1 0 0
vn 1 0 0
vn 0 -1 0
vn 0 -1 0
vn 0 0 -1
vn 0 0 1
vn 0 1 0
usemtl m_430eaa9d-834d-5a30-a06f-26ee704b29d1
f 37/123/33 35/124/33 36/125/33 38/126/33
f 40/127/34 39/128/34 41/129/34 42/130/34
f 41/131/35 37/132/35 38/133/35 42/134/35
f 39/135/36 35/136/36 37/137/36 41/138/36
f 38/139/37 36/140/37 40/141/37 42/142/37
f 46/143/38 45/144/38 43/145/38 44/146/38
f 50/147/39 48/148/39 47/149/39 49/150/39
f 44/151/40 43/152/40 47/153/40 48/154/40
f 46/155/41 45/156/41 49/157/41 50/158/41
f 49/159/42 47/160/42 43/161/42 45/162/42
f 50/163/43 46/164/43 44/165/43 48/166/43
f 39/167/44 35/168/44 36/169/44 40/170/44