# Made in Blockbench 4.12.5
mtllib HomeDoorLeft.mtl

o cuboid
v 0.6875 2.5 0.125
v 0.6875 2.5 -0.125
v 0.6875 0.1875 0.125
v 0.6875 0.1875 -0.125
v -0.25 2.5 0.125
v -0.25 2.5 -0.125
v 0.25 0.1875 0.125
v 0.25 0.1875 -0.125
v 0.6875 1.7291666666666667 -0.125
v -0.25 1.7291666666666667 -0.125
v 0.6875 0.9583333333333334 -0.125
v 0.25 0.9583333333333334 -0.125
v -0.25 1.7291666666666667 0.125
v 0.25 0.9583333333333334 0.125
v 0.6875 1.7291666666666667 0.125
v 0.6875 0.9583333333333334 0.125
vt 0.390625 0.7109375
vt 0.390625 0.8072914062500001
vt 0.359375 0.8072914062500001
vt 0.359375 0.7109375
vt 0.0703125 0.39556796875
vt 0.0703125 0.49192187500000006
vt 0.0390625 0.49192187500000006
vt 0.0390625 0.39556796875
vt 0.0703125 0.9296875
vt 0.1875 0.9296875
vt 0.1875 0.9609375
vt 0.0703125 0.9609375
vt 0.15625 0.8515625
vt 0.15625 0.8828125
vt 0.1015625 0.8828125
vt 0.1015625 0.8515625
vt 0.3515625 0.7109375
vt 0.3515625 0.8072914062500001
vt 0.296875 0.8072914062500001
vt 0.296875 0.7109375
vt 0.296875 0.4140625
vt 0.296875 0.5104164062500001
vt 0.2421875 0.5104164062500001
vt 0.2421875 0.4140625
vt 0.2421875 0.703125
vt 0.2421875 0.6067710937499999
vt 0.359375 0.6067710937499999
vt 0.359375 0.703125
vt 0.2421875 0.6067710937499999
vt 0.2421875 0.5104164062500001
vt 0.296875 0.5104164062500001
vt 0.359375 0.6067710937499999
vt 0.0390625 0.703125
vt 0.0390625 0.6067710937499999
vt 0.0703125 0.6067710937499999
vt 0.0703125 0.703125
vt 0.0390625 0.6067710937499999
vt 0.0390625 0.49192187500000006
vt 0.0703125 0.49192187500000006
vt 0.0703125 0.6067710937499999
vt 0.234375 1
vt 0.234375 0.9036460937499999
vt 0.3515625 0.9036460937499999
vt 0.3515625 1
vt 0.234375 0.9036460937499999
vt 0.296875 0.8072914062500001
vt 0.3515625 0.8072914062500001
vt 0.3515625 0.9036460937499999
vt 0.359375 1
vt 0.359375 0.9036460937499999
vt 0.390625 0.9036460937499999
vt 0.390625 1
vt 0.359375 0.9036460937499999
vt 0.359375 0.8072914062500001
vt 0.390625 0.8072914062500001
vt 0.390625 0.9036460937499999
vn 1 0 0
vn -1 0 0
vn 0 1 0
vn 0 -1 0
vn 0 0 1
vn 0 0 -1
vn 0 0 -1
vn 0 0 -1
vn -1 0 0
vn -0.8389612870276586 -0.5441911050990218 0
vn 0 0 1
vn 0 0 1
vn 1 0 0
vn 1 0 0
usemtl m_94b6c5c3-c89c-60af-cf8e-689abcaadc2a
f 4/1/1 11/2/1 16/3/1 3/4/1
f 7/5/2 14/6/2 12/7/2 8/8/2
f 5/9/3 1/10/3 2/11/3 6/12/3
f 4/13/4 3/14/4 7/15/4 8/16/4
f 3/17/5 16/18/5 14/19/5 7/20/5
f 8/21/6 12/22/6 11/23/6 4/24/6
f 2/25/7 9/26/7 10/27/7 6/28/7
f 9/29/8 11/30/8 12/31/8 10/32/8
f 6/33/9 10/34/9 13/35/9 5/36/9
f 10/37/10 12/38/10 14/39/10 13/40/10
f 5/41/11 13/42/11 15/43/11 1/44/11
f 13/45/12 14/46/12 16/47/12 15/48/12
f 1/49/13 15/50/13 9/51/13 2/52/13
f 15/53/14 16/54/14 11/55/14 9/56/14