# Made in Blockbench 4.12.5
mtllib HomeDoorFrame.mtl

o cuboid
v 0.75 2.5625 0.16875
v 0.75 2.5625 -0.16875
v 0.75 0.1875 0.16875
v 0.75 0.1875 -0.16875
v -0.75 2.5625 0.16875
v -0.75 2.5625 -0.16875
v -0.75 0.1875 0.16875
v -0.75 0.1875 -0.16875
v 0 2.6875 0.16875
v 0 2.6875 -0.16875
v -0.6875 0.1875 0.16875
v 0 2.5 0.16875
v -0.6875 2.5 0.16875
v 0.6875 2.5 0.16875
v 0.6875 0.1875 0.16875
v 0.6875 0.1875 -0.16875
v 0 2.5 -0.16875
v 0.6875 2.5 -0.16875
v -0.6875 2.5 -0.16875
v -0.6875 0.1875 -0.16875
vt 0.125 0.921875
vt 0.046875 0.921875
vt 0.046875 0.328125
vt 0.125 0.328125
vt 0.21875 0.328125
vt 0.21875 0.921875
vt 0.140625 0.921875
vt 0.140625 0.328125
vt 0.609375 0.734375
vt 0.609375 0.921875
vt 0.53125 0.921875
vt 0.53125 0.734375
vt 0.609375 0.53125
vt 0.609375 0.71875
vt 0.53125 0.71875
vt 0.53125 0.53125
vt 0.015625 0.953125
vt 0.1875 0.953125
vt 0.1875 1
vt 0 0.96875
vt 0.015625 0.375
vt 0.015625 0.953125
vt 0 0.96875
vt 0 0.375
vt 0.1875 0.953125
vt 0.359375 0.953125
vt 0.375 0.96875
vt 0.1875 1
vt 0.359375 0.953125
vt 0.359375 0.375
vt 0.375 0.375
vt 0.375 0.96875
vt 0.40625 0.953125
vt 0.578125 0.953125
vt 0.578125 1
vt 0.390625 0.96875
vt 0.40625 0.375
vt 0.40625 0.953125
vt 0.390625 0.96875
vt 0.390625 0.375
vt 0.578125 0.953125
vt 0.75 0.953125
vt 0.765625 0.96875
vt 0.578125 1
vt 0.75 0.953125
vt 0.75 0.375
vt 0.765625 0.375
vt 0.765625 0.96875
vt 0.328125 0.921875
vt 0.328125 0.84375
vt 0.34375 0.84375
vt 0.34375 0.921875
vt 0.328125 0.828125
vt 0.328125 0.75
vt 0.34375 0.75
vt 0.34375 0.828125
vt 0.53125 0.3587890625
vt 0.53125 0.2744140625
vt 0.703125 0.2744140625
vt 0.703125 0.3587890625
vt 0.703125 0.3587890625
vt 0.703125 0.2744140625
vt 0.875 0.2744140625
vt 0.875 0.3587890625
vt 0.3125 0.34375
vt 0.3125 0.921875
vt 0.234375 0.921875
vt 0.234375 0.34375
vt 0.4375 0.921875
vt 0.4375 0.34375
vt 0.515625 0.34375
vt 0.515625 0.921875
vn 1 0 0
vn -1 0 0
vn -0.16439898730535726 0.9863939238321437 0
vn 0.16439898730535726 0.9863939238321437 0
vn 0 0 1
vn 0 0 1
vn 0 0 1
vn 0 0 1
vn 0 0 -1
vn 0 0 -1
vn 0 0 -1
vn 0 0 -1
vn 0 -1 0
vn 0 -1 0
vn 0 -1 0
vn 0 -1 0
vn 1 0 0
vn -1 0 0
usemtl m_9db053f1-98de-50e2-b225-bff0a4989653
f 2/1/1 1/2/1 3/3/1 4/4/1
f 7/5/2 5/6/2 6/7/2 8/8/2
f 5/9/3 9/10/3 10/11/3 6/12/3
f 2/13/4 10/14/4 9/15/4 1/16/4
f 13/17/5 12/18/5 9/19/5 5/20/5
f 11/21/6 13/22/6 5/23/6 7/24/6
f 12/25/7 14/26/7 1/27/7 9/28/7
f 14/29/8 15/30/8 3/31/8 1/32/8
f 18/33/9 17/34/9 10/35/9 2/36/9
f 16/37/10 18/38/10 2/39/10 4/40/10
f 17/41/11 19/42/11 6/43/11 10/44/11
f 19/45/12 20/46/12 8/47/12 6/48/12
f 7/49/13 8/50/13 20/51/13 11/52/13
f 15/53/14 16/54/14 4/55/14 3/56/14
f 13/57/15 19/58/15 17/59/15 12/60/15
f 12/61/16 17/62/16 18/63/16 14/64/16
f 20/65/17 19/66/17 13/67/17 11/68/17
f 18/69/18 16/70/18 15/71/18 14/72/18