# Made in Blockbench 4.12.5
mtllib HomeWallDoorFront.mtl

o Wall
v 0 2.6875 0.5
v 0 2.6875 0.25
v -0.75 0.1875 0.5
v -0.75 0.1875 0.25
v -1 2.6875 0.5
v -1 2.6875 0.25
v -1 0.1875 0.5
v -1 0.1875 0.25
v -0.75 0.3125 0.333333125
v -1 0.3125 0.333333125
v -1 0.3125 0.5
v -0.75 0.3125 0.5
v -0.75 2.5625 0.333333125
v -1 2.5625 0.333333125
v -1 2.5625 0.5
v -0.75 2.5625 0.5
vt 0.59375 0.375
vt 0.5729171875 0.40625
vt 0.53125 0.40625
vt 0.53125 0.375
vt 0.6145828125 0.359375
vt 0.65625 0.359375
vt 0.65625 0.328125
vt 0.59375 0.328125
vt 0.265625 0.296875
vt 0.515625 0.296875
vt 0.515625 0.359375
vt 0.265625 0.359375
vt 0.25 0.28125
vt 0.25 0.34375
vt 0 0.34375
vt 0 0.28125
vt 0.265625 0.40625
vt 0.515625 0.40625
vt 0.515625 0.375
vt 0.265625 0.375
vt 0.25 0.362384375
vt 0.25 0.3999421875
vt 0.1875 0.3999421875
vt 0.1875 0.362384375
vt 0.25 0.3999421875
vt 0.25 0.9624421875
vt 0.19140625 0.9663484375
vt 0.19140625 0.4038484375
vt 0.6145828125 0.921875
vt 0.65625 0.921875
vt 0.65625 0.359375
vt 0.6145828125 0.359375
vt 0.265625 0.96875
vt 0.515625 0.96875
vt 0.515625 0.40625
vt 0.265625 0.40625
vt 0.5729171875 0.40625
vt 0.5729171875 0.96875
vt 0.53125 0.96875
vt 0.53125 0.40625
vt 0 1
vt 0 0.9624421875
vt 0.25 0.9624421875
vt 0.25 1
vt 0.65625 0.921875
vt 0.6145828125 0.921875
vt 0.59375 0.953125
vt 0.65625 0.953125
vt 0.515625 0.96875
vt 0.265625 0.96875
vt 0.265625 1
vt 0.515625 1
vt 0.53125 1
vt 0.53125 0.96875
vt 0.5729171875 0.96875
vt 0.59375 1
vn 1 0 0
vn 1 0 0
vn 0 1 0
vn 0 -1 0
vn 0 0 -1
vn 0 0.5546992361660894 -0.83205093437647
vn 0 0 -1
vn 1 0 0
vn 0 0 -1
vn 1 0 0
vn 0 -0.5546992361660894 -0.83205093437647
vn 1 0 0
vn 0 0 -1
vn 0.1643989873053573 -0.9863939238321437 0
usemtl m_b7874cea-eb9b-86bb-161b-b2c3bd3783dc
f 4/1/1 9/2/1 12/3/1 3/4/1
f 10/5/2 11/6/2 7/7/2 8/8/2
f 5/9/3 1/10/3 2/11/3 6/12/3
f 4/13/4 3/14/4 7/15/4 8/16/4
f 11/17/5 12/18/5 3/19/5 7/20/5
f 8/21/6 10/22/6 9/23/6 4/24/6
f 10/25/7 14/26/7 13/27/7 9/28/7
f 14/29/8 15/30/8 11/31/8 10/32/8
f 15/33/9 16/34/9 12/35/9 11/36/9
f 9/37/10 13/38/10 16/39/10 12/40/10
f 2/41/11 13/42/11 14/43/11 6/44/11
f 15/45/12 14/46/12 6/47/12 5/48/12
f 16/49/13 15/50/13 5/51/13 1/52/13
f 1/53/14 16/54/14 13/55/14 2/56/14
o Mid
v 0 0.1875 0.5
v 0 0.1875 -0.5
v 0 0 0.5
v 0 0 -0.5
v -1 0.1875 0.5
v -1 0.1875 -0.5
v -1 0 0.5
v -1 0 -0.5
v 0 2.875 0.5
v 0 2.875 -0.5
v 0 2.6875 0.5
v 0 2.6875 -0.5
v -1 2.875 0.5
v -1 2.875 -0.5
v -1 2.6875 0.5
v -1 2.6875 -0.5
vt 0 0.421875
vt 0 0.46875
vt 0.25 0.46875
vt 0.25 0.421875
vt 0.53125 1
vt 0.78125 1
vt 0.78125 0.953125
vt 0.53125 0.953125
vt 0 0.734375
vt 0.25 0.734375
vt 0.25 0.484375
vt 0 0.484375
vt 0.53125 0.9375
vt 0.78125 0.9375
vt 0.78125 0.890625
vt 0.53125 0.890625
vt 0.53125 0.828125
vt 0.53125 0.875
vt 0.78125 0.875
vt 0.78125 0.828125
vt 0.78125 0.765625
vt 0.53125 0.765625
vt 0.53125 0.8125
vt 0.78125 0.8125
vt 0.53125 0.703125
vt 0.53125 0.75
vt 0.78125 0.75
vt 0.78125 0.703125
vt 0.515625 1
vt 0.515625 0.75
vt 0.265625 0.75
vt 0.265625 1
vt 0.515625 0.484375
vt 0.515625 0.734375
vt 0.265625 0.734375
vt 0.265625 0.484375
vt 0.265625 0.421875
vt 0.265625 0.46875
vt 0.515625 0.46875
vt 0.515625 0.421875
vt 0.78125 0.640625
vt 0.53125 0.640625
vt 0.53125 0.6875
vt 0.78125 0.6875
vt 0 0.75
vt 0.25 0.75
vt 0.25 1
vt 0 1
vn -1 0 0
vn 1 0 0
vn 0 1 0
vn 0 0 -1
vn 0 0 1
vn -1 0 0
vn 1 0 0
vn 0 -1 0
vn 0 -1 0
vn 0 0 -1
vn 0 0 1
vn 0 1 0
usemtl m_430eaa9d-834d-5a30-a06f-26ee704b29d1
f 19/57/15 17/58/15 18/59/15 20/60/15
f 22/61/16 21/62/16 23/63/16 24/64/16
f 23/65/17 19/66/17 20/67/17 24/68/17
f 21/69/18 17/70/18 19/71/18 23/72/18
f 20/73/19 18/74/19 22/75/19 24/76/19
f 28/77/20 27/78/20 25/79/20 26/80/20
f 32/81/21 30/82/21 29/83/21 31/84/21
f 26/85/22 25/86/22 29/87/22 30/88/22
f 28/89/23 27/90/23 31/91/23 32/92/23
f 31/93/24 29/94/24 25/95/24 27/96/24
f 32/97/25 28/98/25 26/99/25 30/100/25
f 21/101/26 17/102/26 18/103/26 22/104/26
o Mid
v 1 0.1875 0.5
v 1 0.1875 -0.5
v 1 0 0.5
v 1 0 -0.5
v 0 0.1875 0.5
v 0 0.1875 -0.5
v 0 0 0.5
v 0 0 -0.5
v 1 2.875 0.5
v 1 2.875 -0.5
v 1 2.6875 0.5
v 1 2.6875 -0.5
v 0 2.875 0.5
v 0 2.875 -0.5
v 0 2.6875 0.5
v 0 2.6875 -0.5
vt 0 0.421875
vt 0 0.46875
vt 0.25 0.46875
vt 0.25 0.421875
vt 0.53125 1
vt 0.78125 1
vt 0.78125 0.953125
vt 0.53125 0.953125
vt 0 0.734375
vt 0.25 0.734375
vt 0.25 0.484375
vt 0 0.484375
vt 0.53125 0.9375
vt 0.78125 0.9375
vt 0.78125 0.890625
vt 0.53125 0.890625
vt 0.53125 0.828125
vt 0.53125 0.875
vt 0.78125 0.875
vt 0.78125 0.828125
vt 0.78125 0.765625
vt 0.53125 0.765625
vt 0.53125 0.8125
vt 0.78125 0.8125
vt 0.53125 0.703125
vt 0.53125 0.75
vt 0.78125 0.75
vt 0.78125 0.703125
vt 0.515625 1
vt 0.515625 0.75
vt 0.265625 0.75
vt 0.265625 1
vt 0.515625 0.484375
vt 0.515625 0.734375
vt 0.265625 0.734375
vt 0.265625 0.484375
vt 0.265625 0.421875
vt 0.265625 0.46875
vt 0.515625 0.46875
vt 0.515625 0.421875
vt 0.78125 0.640625
vt 0.53125 0.640625
vt 0.53125 0.6875
vt 0.78125 0.6875
vt 0 0.75
vt 0.25 0.75
vt 0.25 1
vt 0 1
vn -1 0 0
vn 1 0 0
vn 0 1 0
vn 0 0 -1
vn 0 0 1
vn -1 0 0
vn 1 0 0
vn 0 -1 0
vn 0 -1 0
vn 0 0 -1
vn 0 0 1
vn 0 1 0
usemtl m_430eaa9d-834d-5a30-a06f-26ee704b29d1
f 35/105/27 33/106/27 34/107/27 36/108/27
f 38/109/28 37/110/28 39/111/28 40/112/28
f 39/113/29 35/114/29 36/115/29 40/116/29
f 37/117/30 33/118/30 35/119/30 39/120/30
f 36/121/31 34/122/31 38/123/31 40/124/31
f 44/125/32 43/126/32 41/127/32 42/128/32
f 48/129/33 46/130/33 45/131/33 47/132/33
f 42/133/34 41/134/34 45/135/34 46/136/34
f 44/137/35 43/138/35 47/139/35 48/140/35
f 47/141/36 45/142/36 41/143/36 43/144/36
f 48/145/37 44/146/37 42/147/37 46/148/37
f 37/149/38 33/150/38 34/151/38 38/152/38
o Wall
v 0 2.6875 0.5
v 0 2.6875 0.25
v 0.75 0.1875 0.5
v 0.75 0.1875 0.25
v 1 2.6875 0.5
v 1 2.6875 0.25
v 1 0.1875 0.5
v 1 0.1875 0.25
v 0.75 0.3125 0.333333125
v 1 0.3125 0.333333125
v 1 0.3125 0.5
v 0.75 0.3125 0.5
v 0.75 2.5625 0.333333125
v 1 2.5625 0.333333125
v 1 2.5625 0.5
v 0.75 2.5625 0.5
vt 0.53125 0.40625
vt 0.5729171875 0.40625
vt 0.59375 0.375
vt 0.53125 0.375
vt 0.65625 0.328125
vt 0.65625 0.359375
vt 0.6145828125 0.359375
vt 0.59375 0.328125
vt 0.515625 0.359375
vt 0.515625 0.296875
vt 0.265625 0.296875
vt 0.265625 0.359375
vt 0 0.34375
vt 0.25 0.34375
vt 0.25 0.28125
vt 0 0.28125
vt 0.515625 0.375
vt 0.515625 0.40625
vt 0.265625 0.40625
vt 0.265625 0.375
vt 0.1875 0.3999421875
vt 0.25 0.3999421875
vt 0.25 0.362384375
vt 0.1875 0.362384375
vt 0.1875 0.9624421875
vt 0.25 0.9624421875
vt 0.25 0.3999421875
vt 0.1875 0.4038484375
vt 0.65625 0.359375
vt 0.65625 0.921875
vt 0.6145828125 0.921875
vt 0.6145828125 0.359375
vt 0.515625 0.40625
vt 0.515625 0.96875
vt 0.265625 0.96875
vt 0.265625 0.40625
vt 0.53125 0.96875
vt 0.5729171875 0.96875
vt 0.5729171875 0.40625
vt 0.53125 0.40625
vt 0.25 0.9624421875
vt 0 0.9624421875
vt 0 1
vt 0.25 1
vt 0.59375 0.953125
vt 0.6145828125 0.921875
vt 0.65625 0.921875
vt 0.65625 0.953125
vt 0.265625 1
vt 0.265625 0.96875
vt 0.515625 0.96875
vt 0.515625 1
vt 0.5729171875 0.96875
vt 0.53125 0.96875
vt 0.53125 1
vt 0.59375 1
vn -1 0 0
vn -1 0 0
vn 0 1 0
vn 0 -1 0
vn 0 0 -1
vn 0 0.5546992361660894 -0.83205093437647
vn 0 0 -1
vn -1 0 0
vn 0 0 -1
vn -1 0 0
vn 0 -0.5546992361660894 -0.83205093437647
vn -1 0 0
vn 0 0 -1
vn -0.1643989873053573 -0.9863939238321437 0
usemtl m_b7874cea-eb9b-86bb-161b-b2c3bd3783dc
f 60/153/39 57/154/39 52/155/39 51/156/39
f 55/157/40 59/158/40 58/159/40 56/160/40
f 50/161/41 49/162/41 53/163/41 54/164/41
f 55/165/42 51/166/42 52/167/42 56/168/42
f 51/169/43 60/170/43 59/171/43 55/172/43
f 57/173/44 58/174/44 56/175/44 52/176/44
f 61/177/45 62/178/45 58/179/45 57/180/45
f 59/181/46 63/182/46 62/183/46 58/184/46
f 60/185/47 64/186/47 63/187/47 59/188/47
f 64/189/48 61/190/48 57/191/48 60/192/48
f 62/193/49 61/194/49 50/195/49 54/196/49
f 54/197/50 62/198/50 63/199/50 53/200/50
f 53/201/51 63/202/51 64/203/51 49/204/51
f 61/205/52 64/206/52 49/207/52 50/208/52