# Made in Blockbench 4.12.6
mtllib CalihanShipStand.mtl

o cylinder
v 0 0 0
v 0.13397459621556132 0 0.49999999999999994
v 0.13397459621556132 0.125 0.49999999999999994
v 0.3660254037844386 0 0.36602540378443865
v 0.3660254037844386 0.125 0.36602540378443865
v 0.49999999999999994 0 0.13397459621556132
v 0.49999999999999994 0.125 0.13397459621556132
v 0.49999999999999994 0 -0.13397459621556138
v 0.49999999999999994 0.125 -0.13397459621556138
v 0.36602540378443865 0 -0.3660254037844386
v 0.36602540378443865 0.125 -0.3660254037844386
v 0.1339745962155615 0 -0.4999999999999999
v 0.1339745962155615 0.125 -0.4999999999999999
v -0.13397459621556113 0 -0.5
v -0.13397459621556113 0.125 -0.5
v -0.3660254037844386 0 -0.3660254037844387
v -0.3660254037844386 0.125 -0.3660254037844387
v -0.49999999999999994 0 -0.13397459621556126
v -0.49999999999999994 0.125 -0.13397459621556126
v -0.5 0 0.1339745962155611
v -0.5 0.125 0.1339745962155611
v -0.3660254037844387 0 0.36602540378443854
v -0.3660254037844387 0.125 0.36602540378443854
v -0.1339745962155613 0 0.49999999999999994
v -0.1339745962155613 0.125 0.49999999999999994
v -0.37499999999999994 0.125 -0.10048094716167094
v -0.375 0.125 0.10048094716167083
v -0.274519052838329 0.125 0.2745190528383289
v -0.10048094716167097 0.125 0.37499999999999994
v 0.100480947161671 0.125 0.37499999999999994
v 0.27451905283832895 0.125 0.274519052838329
v 0.37499999999999994 0.125 0.100480947161671
v 0.37499999999999994 0.125 -0.10048094716167102
v 0.274519052838329 0.125 -0.27451905283832895
v 0.10048094716167111 0.125 -0.3749999999999999
v -0.10048094716167084 0.125 -0.375
v -0.27451905283832895 0.125 -0.274519052838329
v -0.12499999999999999 0.8125 -0.03349364905389033
v -0.12500000000000003 0.8125 0.033493649053890254
v -1.8503717077085944e-17 0.8125 -1.8503717077085944e-17
v -0.09150635094610969 0.8125 0.0915063509461096
v -0.03349364905389034 0.8125 0.12499999999999997
v 0.03349364905389031 0.8125 0.12499999999999997
v 0.09150635094610964 0.8125 0.09150635094610964
v 0.12499999999999997 0.8125 0.03349364905389031
v 0.12499999999999997 0.8125 -0.03349364905389036
v 0.09150635094610964 0.8125 -0.09150635094610965
v 0.03349364905389035 0.8125 -0.12499999999999999
v -0.033493649053890295 0.8125 -0.12500000000000003
v -0.09150635094610965 0.8125 -0.09150635094610969
vt 0.43525625 0.74775625
vt 0.37724375 0.78125
vt 0.34375 0.65625
vt 0.13505625 0.484375
vt 0.20204375000000002 0.484375
vt 0.20204375000000002 0.515625
vt 0.13505625 0.515625
vt 0.1177484375 0.859375
vt 0.1322515625 0.8677484375
vt 0.109375 0.890625
vt 0.46875 0.68974375
vt 0.43525625 0.74775625
vt 0.34375 0.65625
vt 0.45420625 0.765625
vt 0.52119375 0.765625
vt 0.52119375 0.796875
vt 0.45420625 0.796875
vt 0.1322515625 0.8677484375
vt 0.140625 0.8822515625
vt 0.109375 0.890625
vt 0.46875 0.62275625
vt 0.46875 0.68974375
vt 0.34375 0.65625
vt 0.52119375 0.765625
vt 0.58818125 0.765625
vt 0.58818125 0.796875
vt 0.52119375 0.796875
vt 0.140625 0.8822515625
vt 0.140625 0.8989984375
vt 0.109375 0.890625
vt 0.43525625 0.56474375
vt 0.46875 0.62275625
vt 0.34375 0.65625
vt 0.58818125 0.765625
vt 0.6551687500000001 0.765625
vt 0.6551687500000001 0.796875
vt 0.58818125 0.796875
vt 0.140625 0.8989984375
vt 0.1322515625 0.9135015625
vt 0.109375 0.890625
vt 0.37724375 0.53125
vt 0.43525625 0.56474375
vt 0.34375 0.65625
vt 0.48545625 0.71875
vt 0.55244375 0.71875
vt 0.55244375 0.75
vt 0.48545625 0.75
vt 0.1322515625 0.9135015625
vt 0.1177484375 0.921875
vt 0.109375 0.890625
vt 0.31025625 0.53125
vt 0.37724375 0.53125
vt 0.34375 0.65625
vt 0.55244375 0.71875
vt 0.61943125 0.71875
vt 0.61943125 0.75
vt 0.55244375 0.75
vt 0.1177484375 0.921875
vt 0.1010015625 0.921875
vt 0.109375 0.890625
vt 0.25224375 0.56474375
vt 0.31025625 0.53125
vt 0.34375 0.65625
vt 0.61943125 0.71875
vt 0.6864187500000001 0.71875
vt 0.6864187500000001 0.75
vt 0.61943125 0.75
vt 0.1010015625 0.921875
vt 0.0864984375 0.9135015625
vt 0.109375 0.890625
vt 0.21875 0.62275625
vt 0.25224375 0.56474375
vt 0.34375 0.65625
vt 0.21983124999999998 0.484375
vt 0.28681875 0.484375
vt 0.28681875 0.515625
vt 0.21983124999999998 0.515625
vt 0.0864984375 0.9135015625
vt 0.078125 0.8989984375
vt 0.109375 0.890625
vt 0.21875 0.68974375
vt 0.21875 0.62275625
vt 0.34375 0.65625
vt 0.28681875 0.484375
vt 0.35380625 0.484375
vt 0.35380625 0.515625
vt 0.28681875 0.515625
vt 0.078125 0.8989984375
vt 0.078125 0.8822515625
vt 0.109375 0.890625
vt 0.25224375 0.74775625
vt 0.21875 0.68974375
vt 0.34375 0.65625
vt 0.35380625 0.484375
vt 0.42079375 0.484375
vt 0.42079375 0.515625
vt 0.35380625 0.515625
vt 0.078125 0.8822515625
vt 0.0864984375 0.8677484375
vt 0.109375 0.890625
vt 0.31025625 0.78125
vt 0.25224375 0.74775625
vt 0.34375 0.65625
vt 0.001081249999999992 0.484375
vt 0.06806875 0.484375
vt 0.06806875 0.515625
vt 0.001081249999999992 0.515625
vt 0.0864984375 0.8677484375
vt 0.1010015625 0.859375
vt 0.109375 0.890625
vt 0.37724375 0.78125
vt 0.31025625 0.78125
vt 0.34375 0.65625
vt 0.06806875 0.484375
vt 0.13505625 0.484375
vt 0.13505625 0.515625
vt 0.06806875 0.515625
vt 0.1010015625 0.859375
vt 0.1177484375 0.859375
vt 0.109375 0.890625
vt 0.03906249999999997 0.8498796875
vt 0.03906249999999997 0.9001203124999999
vt 0.007812499999999972 0.90849375
vt 0.007812499999999972 0.8415062499999999
vt 0.06418281249999998 0.8063703124999999
vt 0.03906249999999997 0.8498796875
vt 0.007812499999999972 0.8415062499999999
vt 0.041306249999999975 0.78349375
vt 0.10769218749999998 0.78125
vt 0.06418281249999998 0.8063703124999999
vt 0.041306249999999975 0.7834937499999999
vt 0.09931874999999997 0.75
vt 0.15793281249999996 0.78125
vt 0.10769218749999998 0.78125
vt 0.09931874999999997 0.75
vt 0.16630624999999996 0.75
vt 0.20144218749999995 0.8063703124999999
vt 0.15793281249999996 0.78125
vt 0.16630624999999996 0.75
vt 0.22431874999999996 0.7834937499999999
vt 0.2265625 0.8498796874999999
vt 0.20144218749999995 0.8063703124999999
vt 0.22431874999999996 0.7834937499999999
vt 0.2578125 0.8415062499999999
vt 0.22656250000000003 0.9001203124999999
vt 0.2265625 0.8498796874999999
vt 0.2578125 0.8415062499999999
vt 0.2578125 0.9084937499999999
vt 0.20144218749999995 0.9436296875
vt 0.22656249999999997 0.9001203125
vt 0.2578125 0.90849375
vt 0.22431874999999996 0.96650625
vt 0.15793281249999996 0.96875
vt 0.20144218749999995 0.9436296875
vt 0.22431874999999996 0.96650625
vt 0.16630624999999996 1
vt 0.10769218749999997 0.96875
vt 0.15793281249999996 0.96875
vt 0.16630624999999996 1
vt 0.09931874999999996 1
vt 0.06418281249999998 0.9436296875
vt 0.10769218749999997 0.96875
vt 0.09931874999999996 1
vt 0.04130624999999996 0.9665062499999999
vt 0.03906249999999997 0.9001203124999999
vt 0.06418281249999998 0.9436296875
vt 0.041306249999999975 0.9665062499999999
vt 0.007812499999999972 0.90849375
vt 0.5396234375 0.9969584789167001
vt 0.5228765625 0.9969584789167001
vt 0.5061296875 0.8140725414167002
vt 0.5563703125 0.8140725414167002
vt 0.5560918002530325 1
vt 0.5396234375 0.9969584789167001
vt 0.5563703125 0.8140725414167002
vt 0.6057754007590974 0.8231971046665998
vt 0.0697515625 0.7157084789167001
vt 0.053283199746967526 0.71875
vt 0.0035995992409025845 0.5419471046665998
vt 0.053004687499999995 0.5328225414167002
vt 0.0864984375 0.7157084789167001
vt 0.0697515625 0.7157084789167001
vt 0.0530046875 0.5328225414167002
vt 0.10324531249999999 0.5328225414167002
vt 0.10296680025303248 0.71875
vt 0.0864984375 0.7157084789167001
vt 0.1032453125 0.5328225414167002
vt 0.15265040075909742 0.5419471046665998
vt 0.5072515625 0.5907084789167001
vt 0.49078319974696755 0.59375
vt 0.4410995992409026 0.4169471046665998
vt 0.4905046875 0.40782254141670016
vt 0.5239984375 0.5907084789167001
vt 0.5072515625 0.5907084789167001
vt 0.4905046875 0.40782254141670016
vt 0.5407453125 0.40782254141670016
vt 0.5404668002530325 0.59375
vt 0.5239984375 0.5907084789167001
vt 0.5407453125 0.40782254141670016
vt 0.5901504007590974 0.4169471046665998
vt 0.35100156250000003 0.9969584789167001
vt 0.33453319974696755 1
vt 0.2848495992409026 0.8231971046665998
vt 0.3342546875 0.8140725414167002
vt 0.36774843749999997 0.9969584789167001
vt 0.35100156250000003 0.9969584789167001
vt 0.3342546875 0.8140725414167002
vt 0.3844953125 0.8140725414167002
vt 0.3842168002530325 1
vt 0.36774843749999997 0.9969584789167001
vt 0.3844953125 0.8140725414167002
vt 0.4339004007590974 0.8231971046665998
vt 0.5228765625 0.9969584789167001
vt 0.5064081997469675 1
vt 0.4567245992409026 0.8231971046665998
vt 0.5061296875 0.8140725414167002
vn 0 -1 0
vn 0.4999999999999999 0 0.8660254037844388
vn 0 1 0
vn 0 -1 0
vn 0.8660254037844388 0 0.5
vn 0 1 0
vn 0 -1 0
vn 1 0 0
vn 0 1 0
vn 0 -1 0
vn 0.8660254037844388 0 -0.5
vn 0 1 0
vn 0 -1 0
vn 0.5000000000000001 0 -0.8660254037844388
vn 0 1 0
vn 0 -1 0
vn 4.143408735633879e-16 0 -1
vn 0 1 0
vn 0 -1 0
vn -0.4999999999999996 0 -0.8660254037844389
vn 0 1 0
vn 0 -1 0
vn -0.8660254037844389 0 -0.4999999999999998
vn 0 1 0
vn 0 -1 0
vn -1 0 -2.0717043678169412e-16
vn 0 1 0
vn 0 -1 0
vn -0.8660254037844389 0 0.4999999999999996
vn 0 1 0
vn 0 -1 0
vn -0.4999999999999999 0 0.8660254037844386
vn 0 1 0
vn 0 -1 0
vn 0 0 1
vn 0 1 0
vn 0 1 0
vn 0 1 0
vn 0 1 0
vn 0 1 0
vn 0 1 0
vn 0 1 0
vn 0 1 0
vn 0 1 0
vn 0 1 0
vn 0 1 0
vn 0 1 0
vn 0 1 0
vn -0.9397934234884371 0.3417430630867044 -5.840922420859894e-16
vn -0.8138849790505337 0.34174306308670427 0.4698967117442184
vn -0.46989671174421876 0.3417430630867044 0.8138849790505335
vn 0 0.3417430630867043 0.9397934234884372
vn 0.4698967117442185 0.3417430630867043 0.8138849790505338
vn 0.8138849790505337 0.34174306308670443 0.46989671174421843
vn 0.9397934234884372 0.3417430630867044 0
vn 0.8138849790505336 0.3417430630867043 -0.4698967117442187
vn 0.4698967117442187 0.3417430630867044 -0.8138849790505336
vn 5.840922420859889e-16 0.3417430630867043 -0.9397934234884372
vn -0.46989671174421843 0.3417430630867044 -0.8138849790505339
vn -0.8138849790505339 0.3417430630867044 -0.4698967117442184
usemtl m_a94d174f-bbb6-dde8-5eef-e252ad9705c5
f 4/1/1 2/2/1 1/3/1
f 2/4/2 4/5/2 5/6/2 3/7/2
f 43/8/3 44/9/3 40/10/3
f 6/11/4 4/12/4 1/13/4
f 4/14/5 6/15/5 7/16/5 5/17/5
f 44/18/6 45/19/6 40/20/6
f 8/21/7 6/22/7 1/23/7
f 6/24/8 8/25/8 9/26/8 7/27/8
f 45/28/9 46/29/9 40/30/9
f 10/31/10 8/32/10 1/33/10
f 8/34/11 10/35/11 11/36/11 9/37/11
f 46/38/12 47/39/12 40/40/12
f 12/41/13 10/42/13 1/43/13
f 10/44/14 12/45/14 13/46/14 11/47/14
f 47/48/15 48/49/15 40/50/15
f 14/51/16 12/52/16 1/53/16
f 12/54/17 14/55/17 15/56/17 13/57/17
f 48/58/18 49/59/18 40/60/18
f 16/61/19 14/62/19 1/63/19
f 14/64/20 16/65/20 17/66/20 15/67/20
f 49/68/21 50/69/21 40/70/21
f 18/71/22 16/72/22 1/73/22
f 16/74/23 18/75/23 19/76/23 17/77/23
f 50/78/24 38/79/24 40/80/24
f 20/81/25 18/82/25 1/83/25
f 18/84/26 20/85/26 21/86/26 19/87/26
f 38/88/27 39/89/27 40/90/27
f 22/91/28 20/92/28 1/93/28
f 20/94/29 22/95/29 23/96/29 21/97/29
f 39/98/30 41/99/30 40/100/30
f 24/101/31 22/102/31 1/103/31
f 22/104/32 24/105/32 25/106/32 23/107/32
f 41/108/33 42/109/33 40/110/33
f 2/111/34 24/112/34 1/113/34
f 24/114/35 2/115/35 3/116/35 25/117/35
f 42/118/36 43/119/36 40/120/36
f 27/121/37 26/122/37 19/123/37 21/124/37
f 28/125/38 27/126/38 21/127/38 23/128/38
f 29/129/39 28/130/39 23/131/39 25/132/39
f 30/133/40 29/134/40 25/135/40 3/136/40
f 31/137/41 30/138/41 3/139/41 5/140/41
f 32/141/42 31/142/42 5/143/42 7/144/42
f 33/145/43 32/146/43 7/147/43 9/148/43
f 34/149/44 33/150/44 9/151/44 11/152/44
f 35/153/45 34/154/45 11/155/45 13/156/45
f 36/157/46 35/158/46 13/159/46 15/160/46
f 37/161/47 36/162/47 15/163/47 17/164/47
f 26/165/48 37/166/48 17/167/48 19/168/48
f 39/169/49 38/170/49 26/171/49 27/172/49
f 41/173/50 39/174/50 27/175/50 28/176/50
f 42/177/51 41/178/51 28/179/51 29/180/51
f 43/181/52 42/182/52 29/183/52 30/184/52
f 44/185/53 43/186/53 30/187/53 31/188/53
f 45/189/54 44/190/54 31/191/54 32/192/54
f 46/193/55 45/194/55 32/195/55 33/196/55
f 47/197/56 46/198/56 33/199/56 34/200/56
f 48/201/57 47/202/57 34/203/57 35/204/57
f 49/205/58 48/206/58 35/207/58 36/208/58
f 50/209/59 49/210/59 36/211/59 37/212/59
f 38/213/60 50/214/60 37/215/60 26/216/60