# Made in Blockbench 4.12.4
mtllib BedSideTable.mtl

o Table
v 0.25 0.5 0.25
v 0.25 0.5 -0.25
v 0.25 0 0.25
v 0.25 0 -0.25
v -0.25 0.5 0.25
v -0.25 0.5 -0.25
v -0.25 0 0.25
v -0.25 0 -0.25
v 0.1875 0.28125 -0.25
v 0.1875 0 -0.25
v -0.1875 0.28125 -0.25
v -0.1875 0 -0.25
v 0.1875 0.28125 0.25
v -0.1875 0.28125 0.25
v 0.1875 0 0.25
v -0.1875 0 0.25
v -0.25 0.28125 0.1875
v -0.25 0.28125 -0.1875
v -0.25 0 0.1875
v -0.25 0 -0.1875
v 0.25 0.28125 0.1875
v 0.25 0 0.1875
v 0.25 0.28125 -0.1875
v 0.25 0 -0.1875
v 0.15 0.3046875 -0.25
v -0.15 0.3046875 -0.25
v -0.2 0.4765625 -0.25
v 0.2 0.4765625 -0.25
v 0.15 0.3046875 -0.30625
v -0.15 0.3046875 -0.30625
v -0.2 0.4765625 -0.30625
v 0.2 0.4765625 -0.30625
v 0.15 0.3046875 -0.325
v -0.15 0.3046875 -0.325
v -0.2 0.4765625 -0.325
v 0.2 0.4765625 -0.325
v 0.2 0.4828125 -0.325
v -0.2 0.4828125 -0.325
v -0.2 0.4828125 -0.30625
v 0.2 0.4828125 -0.30625
v 0.1875 0.4765625 -0.2921875
v -0.1875 0.4765625 -0.2921875
v -0.1875 0.4765625 -0.1515625
v 0.1875 0.4765625 -0.1515625
v 0.125 0.3203125 -0.2921875
v -0.125 0.3203125 -0.2921875
v -0.125 0.3203125 -0.1515625
v 0.125 0.3203125 -0.1515625
v 0.0515625 0.37265625 -0.325
v -0.0515625 0.37265625 -0.325
v -0.06875 0.40859375 -0.325
v 0.06875 0.40859375 -0.325
v 0.0515625 0.37265625 -0.35625
v -0.0515625 0.37265625 -0.35625
v -0.06875 0.40859375 -0.35625
v 0.06875 0.40859375 -0.35625
v 0.059375 0.40859375 -0.3484375
v -0.059375 0.40859375 -0.3484375
v -0.059375 0.40859375 -0.325
v 0.059375 0.40859375 -0.325
v -0.04453125 0.37265625 -0.3484375
v 0.04453125 0.37265625 -0.3484375
v 0.04453125 0.37265625 -0.325
v -0.04453125 0.37265625 -0.325
vt 0 0.46875
vt 0.25 0.46875
vt 0.25 0.71875
vt 0 0.71875
vt 0.665625 0.90625
vt 0.7171875 0.90625
vt 0.72578125 0.9375
vt 0.65703125 0.9375
vt 0.03515625 0.75
vt 0.03515625 0.890234375
vt 0 1
vt 0 0.75
vt 0.219140625 0.8908446875
vt 0.219140625 0.75
vt 0.253515625 0.75
vt 0.253515625 1
vt 0.5 0.609375
vt 0.5 0.46875
vt 0.53125 0.46875
vt 0.53125 0.71875
vt 0.3125 0.609375
vt 0.5 0.609375
vt 0.53125 0.71875
vt 0.28125 0.71875
vt 0.3125 0.46875
vt 0.3125 0.609375
vt 0.28125 0.71875
vt 0.28125 0.46875
vt 0.53125 0.890625
vt 0.53125 0.75
vt 0.5625 0.75
vt 0.5625 1
vt 0.34375 0.890625
vt 0.53125 0.890625
vt 0.5625 1
vt 0.3125 1
vt 0.34375 0.75
vt 0.34375 0.890625
vt 0.3125 1
vt 0.3125 0.75
vt 0.03125 0.328125
vt 0.21875 0.328125
vt 0.25 0.4375
vt 0 0.4375
vt 0.03125 0.1875
vt 0.03125 0.328125
vt 0 0.4375
vt 0 0.1875
vt 0.21875 0.328125
vt 0.21875 0.1875
vt 0.25 0.1875
vt 0.25 0.4375
vt 0.5 0.1875
vt 0.53125 0.21875
vt 0.53125 0.40625
vt 0.5 0.4375
vt 0.5 0.4375
vt 0.3125 0.4375
vt 0.28125 0.40625
vt 0.28125 0.21875
vt 0.28125 0.21875
vt 0.3125 0.1875
vt 0.5 0.1875
vt 0.5 0.4375
vt 0.125 0.28125
vt 0.09375 0.28125
vt 0.09375 0.125
vt 0.125 0.125
vt 0.1875 0.28125
vt 0.15625 0.28125
vt 0.15625 0.125
vt 0.1875 0.125
vt 0.78125 0.28125
vt 0.75 0.28125
vt 0.75 0.125
vt 0.78125 0.125
vt 0.8125 0.625
vt 0.78125 0.625
vt 0.78125 0.46875
vt 0.8125 0.46875
vt 0.84375 0.71875
vt 0.8125 0.75
vt 0.8125 0.71875
vt 0.8125 0.65625
vt 0.84375 0.65625
vt 0.84375 0.6875
vt 0.5625 0.1875
vt 0.59375 0.15625
vt 0.59375 0.1875
vt 0.625 0.1875
vt 0.625 0.15625
vt 0.65625 0.1875
vt 0.201953125 0.90234375
vt 0.051953125 0.90234375
vt 0.03515625 0.890625
vt 0.219921875 0.890625
vt 0.226953125 0.98828125
vt 0.201953125 0.90234375
vt 0.219140625 0.89140625
vt 0.253515625 1
vt 0.026953125 0.98828125
vt 0.226953125 0.98828125
vt 0.253515625 1
vt 0 1
vt 0.051953125 0.90234375
vt 0.026953125 0.98828125
vt 0 1
vt 0.03515625 0.890625
vt 0.563671875 0.2515625
vt 0.713671875 0.2515625
vt 0.713671875 0.2796875
vt 0.563671875 0.2796875
vt 0.384375 0.5609375
vt 0.384375 0.47143749999999995
vt 0.4125 0.47143749999999995
vt 0.4125 0.5609375
vt 0.71875 0.875
vt 0.59375 0.875
vt 0.59375 0.8125
vt 0.71875 0.8125
vt 0.811328125 0.34682812500000004
vt 0.809765625 0.43632812499999996
vt 0.783203125 0.43632812499999996
vt 0.783203125 0.34682812500000004
vt 0.563671875 0.2421875
vt 0.713671875 0.2421875
vt 0.713671875 0.2515625
vt 0.563671875 0.2515625
vt 0.375 0.559375
vt 0.375 0.468703125
vt 0.3828125 0.468703125
vt 0.3828125 0.559375
vt 0.78125 0.78125
vt 0.59375 0.78125
vt 0.59375 0.75
vt 0.78125 0.75
vt 0.820234375 0.343703125
vt 0.8203125 0.43437499999999996
vt 0.8125 0.43437499999999996
vt 0.81265625 0.343703125
vt 0.7640625 0.71875
vt 0.5640625 0.71875
vt 0.5640625 0.715625
vt 0.7640625 0.715625
vt 0.3828125 0.5625
vt 0.375 0.5625
vt 0.375 0.559375
vt 0.3828125 0.559375
vt 0.75 0.34375
vt 0.5625 0.34375
vt 0.5625 0.3125
vt 0.75 0.3125
vt 0.8203125 0.4375
vt 0.8125 0.4375
vt 0.8125 0.43437499999999996
vt 0.8203125 0.43437499999999996
vt 0.6015625 0.99296875
vt 0.7890625 0.99296875
vt 0.7953125 1
vt 0.5953125 1
vt 0.6015625 0.92265625
vt 0.6015625 0.99296875
vt 0.5953125 1
vt 0.5953125 0.971875
vt 0.7890625 0.99296875
vt 0.7890625 0.92265625
vt 0.7953125 0.971875
vt 0.7953125 1
vt 0.59375 0.5
vt 0.71875 0.5
vt 0.75 0.59375
vt 0.5625 0.59375
vt 0.09375 0.75
vt 0.15625 0.75
vt 0.15625 0.84375
vt 0.09375 0.84375
vt 0.59375 0.375
vt 0.71875 0.375
vt 0.75 0.46875
vt 0.5625 0.46875
vt 0.40625 0.75
vt 0.46875 0.75
vt 0.46875 0.84375
vt 0.40625 0.84375
vt 0.68984375 0.663671875
vt 0.63828125 0.663671875
vt 0.5890625 0.6296875
vt 0.7390625 0.6296875
vt 0.6984375 0.681640625
vt 0.68984375 0.663671875
vt 0.7390625 0.6296875
vt 0.7640625 0.715625
vt 0.6296875 0.681640625
vt 0.6984375 0.681640625
vt 0.7640625 0.715625
vt 0.5640625 0.715625
vt 0.63828125 0.663671875
vt 0.6296875 0.681640625
vt 0.5640625 0.715625
vt 0.5890625 0.6296875
vt 0.8125 0.25
vt 0.8125 0.21875
vt 0.84375 0.21875
vt 0.84375 0.25
vt 0.84375 0.15625
vt 0.84375 0.1875
vt 0.8125 0.1875
vt 0.8125 0.15625
vt 0.81796875 0.80859375
vt 0.87734375 0.80859375
vt 0.88203125 0.8125
vt 0.81328125 0.8125
vt 0.81796875 0.796875
vt 0.81796875 0.80859375
vt 0.81328125 0.8125
vt 0.81328125 0.796875
vt 0.87734375 0.80859375
vt 0.87734375 0.796875
vt 0.88203125 0.796875
vt 0.88203125 0.8125
vt 0.049609375 0.14453125
vt 0.005078125 0.14453125
vt 0.0015625 0.140625
vt 0.053125 0.140625
vt 0.049609375 0.15625
vt 0.049609375 0.14453125
vt 0.053125 0.140625
vt 0.053125 0.15625
vt 0.005078125 0.14453125
vt 0.005078125 0.15625
vt 0.0015625 0.15625
vt 0.0015625 0.140625
vt 0.6984375 0.681640625
vt 0.6296875 0.681640625
vt 0.63828125 0.663671875
vt 0.68984375 0.663671875
vt 0.71875 0.15625
vt 0.71875 0.1875
vt 0.6875 0.1875
vt 0.6875 0.15625
vt 0.8125 0.3125
vt 0.8125 0.28125
vt 0.84375 0.28125
vt 0.84375 0.3125
vt 0.803515625 0.84375
vt 0.8109375 0.875
vt 0.7515625 0.875
vt 0.758984375 0.84375
vn 0 1 0
vn 0 0 -1
vn 0 0 -1
vn 0 0 -1
vn 0 0 1
vn 0 0 1
vn 0 0 1
vn -1 0 0
vn -1 0 0
vn -1 0 0
vn 1 0 0
vn 1 0 0
vn 1 0 0
vn 0 -1 0
vn 0 -1 0
vn 0 -1 0
vn 0.7071067811865476 0 -0.7071067811865476
vn 0.7071067811865476 0 0.7071067811865476
vn -0.7071067811865476 0 0.7071067811865476
vn -0.7071067811865476 0 -0.7071067811865476
vn 0 -1 0
vn 0 -1 0
vn 0 -1 0
vn 0 -1 0
vn 0 0 -1
vn 0 0 -1
vn 0 0 -1
vn 0 0 -1
vn 0 -1 0
vn -0.9601952966035754 -0.2793295408301311 0
vn 0 1 0
vn 0.9601952966035754 -0.2793295408301311 0
vn 0 -1 0
vn -0.9601952966035754 -0.2793295408301311 0
vn 0 1 0
vn 0.9601952966035754 -0.2793295408301311 0
vn 0 0 -1
vn -1 0 0
vn 0 0 1
vn 1 0 0
vn 0 1 0
vn 0 1 0
vn 0 1 0
vn 0 0 1
vn 0.9284766908852593 0.3713906763541037 0
vn 0 0 -1
vn -0.9284766908852593 0.3713906763541037 0
vn 0 0 -1
vn 0 0 -1
vn 0 0 -1
vn 0 0 -1
vn -0.9021342216356463 -0.4314554973040055 0
vn 0.9021342216356463 -0.4314554973040055 0
vn 0 1 0
vn 0 1 0
vn 0 1 0
vn 0 -1 0
vn 0 -1 0
vn 0 -1 0
vn 0 0 -1
vn -0.924261426490025 0.38176015441979333 0
vn 0.924261426490025 0.38176015441979333 0
vn 0 0 1
usemtl m_9dc561d4-c657-28ca-f495-39e1b057deef
f 5/1/1 1/2/1 2/3/1 6/4/1
f 53/5/2 54/6/2 55/7/2 56/8/2
f 10/9/3 9/10/3 2/11/3 4/12/3
f 11/13/4 12/14/4 8/15/4 6/16/4
f 13/17/5 15/18/5 3/19/5 1/20/5
f 14/21/6 13/22/6 1/23/6 5/24/6
f 16/25/7 14/26/7 5/27/7 7/28/7
f 17/29/8 19/30/8 7/31/8 5/32/8
f 18/33/9 17/34/9 5/35/9 6/36/9
f 20/37/10 18/38/10 6/39/10 8/40/10
f 21/41/11 23/42/11 2/43/11 1/44/11
f 22/45/12 21/46/12 1/47/12 3/48/12
f 23/49/13 24/50/13 4/51/13 2/52/13
f 9/53/14 23/54/14 21/55/14 13/56/14
f 13/57/15 14/58/15 17/59/15 18/60/15
f 18/61/16 11/62/16 9/63/16 13/64/16
f 17/65/17 14/66/17 16/67/17 19/68/17
f 11/69/18 18/70/18 20/71/18 12/72/18
f 23/73/19 9/74/19 10/75/19 24/76/19
f 13/77/20 21/78/20 22/79/20 15/80/20
f 12/81/21 20/82/21 8/83/21
f 10/84/22 4/85/22 24/86/22
f 15/87/23 22/88/23 3/89/23
f 7/90/24 19/91/24 16/92/24
f 26/93/25 25/94/25 9/95/25 11/96/25
f 27/97/26 26/98/26 11/99/26 6/100/26
f 28/101/27 27/102/27 6/103/27 2/104/27
f 25/105/28 28/106/28 2/107/28 9/108/28
f 30/109/29 29/110/29 25/111/29 26/112/29
f 31/113/30 30/114/30 26/115/30 27/116/30
f 45/117/31 46/118/31 47/119/31 48/120/31
f 29/121/32 32/122/32 28/123/32 25/124/32
f 34/125/33 33/126/33 29/127/33 30/128/33
f 35/129/34 34/130/34 30/131/34 31/132/34
f 37/133/35 38/134/35 39/135/35 40/136/35
f 33/137/36 36/138/36 32/139/36 29/140/36
f 38/141/37 37/142/37 36/143/37 35/144/37
f 39/145/38 38/146/38 35/147/38 31/148/38
f 40/149/39 39/150/39 31/151/39 32/152/39
f 37/153/40 40/154/40 32/155/40 36/156/40
f 42/157/41 41/158/41 32/159/41 31/160/41
f 43/161/42 42/162/42 31/163/42 27/164/42
f 41/165/43 44/166/43 28/167/43 32/168/43
f 46/169/44 45/170/44 41/171/44 42/172/44
f 47/173/45 46/174/45 42/175/45 43/176/45
f 48/177/46 47/178/46 43/179/46 44/180/46
f 45/181/47 48/182/47 44/183/47 41/184/47
f 50/185/48 49/186/48 33/187/48 34/188/48
f 51/189/49 50/190/49 34/191/49 35/192/49
f 52/193/50 51/194/50 35/195/50 36/196/50
f 49/197/51 52/198/51 36/199/51 33/200/51
f 55/201/52 54/202/52 50/203/52 51/204/52
f 53/205/53 56/206/53 52/207/53 49/208/53
f 58/209/54 57/210/54 56/211/54 55/212/54
f 59/213/55 58/214/55 55/215/55 51/216/55
f 57/217/56 60/218/56 52/219/56 56/220/56
f 62/221/57 61/222/57 54/223/57 53/224/57
f 63/225/58 62/226/58 53/227/58 49/228/58
f 61/229/59 64/230/59 50/231/59 54/232/59
f 51/233/60 52/234/60 49/235/60 50/236/60
f 63/237/61 60/238/61 57/239/61 62/240/61
f 59/241/62 64/242/62 61/243/62 58/244/62
f 62/245/63 57/246/63 58/247/63 61/248/63
o Can
v 0.1793093776997322 0.5 0.13191387099548205
v 0.1793093776997322 0.59375 0.13191387099548205
v 0.19238313551648248 0.5 0.10797870796689144
v 0.19238313551648248 0.59375 0.10797870796689144
v 0.18178487353367961 0.5 0.08287567457405223
v 0.18178487353367961 0.59375 0.08287567457405223
v 0.15549443402621 0.5 0.07550756349884576
v 0.15549443402621 0.59375 0.07550756349884576
v 0.1333090180323702 0.5 0.09142351292344895
v 0.1333090180323702 0.59375 0.09142351292344895
v 0.13193545201331425 0.5 0.11863776854379285
v 0.13193545201331425 0.59375 0.11863776854379285
v 0.15240720560531656 0.5 0.1366577659908887
v 0.15240720560531656 0.59375 0.1366577659908887
v 0.15522316311919288 0.50625 0.07396918659403467
v 0.1828551208757578 0.50625 0.08172871820695513
v 0.15495175693741706 0.5875 0.07243019950421915
v 0.18392475803283154 0.5875 0.08058189711461675
v 0.19399992832363866 0.50625 0.1081477775808174
v 0.19561611094579034 0.5875 0.10831698246950205
v 0.1802653278846288 0.50625 0.13333246689358735
v 0.1812217529797711 0.5875 0.1347503173319295
v 0.15199406778397162 0.50625 0.13831714427241443
v 0.15158031977762224 0.5875 0.1399766578286989
v 0.13047413536608066 0.50625 0.11934904033626599
v 0.12901295399360577 0.5875 0.12006092231374357
v 0.13191119116384736 0.50625 0.09071168486397063
v 0.13051336429532454 0.5875 0.08999985680449232
v 0.1793093776997322 0.596875 0.13191387099548205
v 0.19238313551648248 0.596875 0.10797870796689144
v 0.16094607808665912 0.596875 0.10642805077327547
v 0.18178487353367961 0.596875 0.08287567457405223
v 0.15549443402621 0.596875 0.07550756349884576
v 0.1333090180323702 0.596875 0.09142351292344895
v 0.13193545201331425 0.596875 0.11863776854379285
v 0.15240720560531656 0.596875 0.1366577659908887
v 0.18046187833391203 0.5 0.08460936861554771
v 0.19039146648005803 0.5 0.10820067044113676
v 0.15587507847505358 0.5 0.07766634879252124
v 0.13514521780661462 0.5 0.09259958925826516
v 0.1338830475530233 0.5 0.11816502582707958
v 0.15303843798768324 0.5 0.1351100809833446
v 0.17818724948935408 0.5 0.1306755150106786
v 0.17925758551367932 0.5046875 0.08593712337806447
v 0.18857223911490517 0.5046875 0.10805407337387754
v 0.16098846209748088 0.5046875 0.10666832259590904
v 0.15618623225844655 0.5046875 0.07943082799010484
v 0.1367312372737606 0.5046875 0.09343550126945947
v 0.1355422023136379 0.5046875 0.11740477298323096
v 0.15351565147521876 0.5046875 0.13328925728843638
v 0.17711618783724864 0.5046875 0.12912751643392242
v 0.13228038928220626 0.5 0.11900685938105968
v 0.1528186158227095 0.5 0.1369513035341003
v 0.1796210175440801 0.5 0.13203747468895366
v 0.19250421690251998 0.5 0.10796466836379044
v 0.18176813668058353 0.5 0.08286081997885611
v 0.15549586410494587 0.5 0.07562951982504415
v 0.13347177228926993 0.5 0.09171584079264894
v 0.13228038928220626 0.503125 0.11900685938105968
v 0.1528186158227095 0.503125 0.1369513035341003
v 0.1796210175440801 0.503125 0.13203747468895366
v 0.19250421690251998 0.503125 0.10796466836379044
v 0.18176813668058353 0.503125 0.08286081997885611
v 0.15549586410494587 0.503125 0.07562951982504415
v 0.13347177228926993 0.503125 0.09171584079264894
vt 0.42926875 0.791625
vt 0.414325 0.8103875
vt 0.40234375 0.7854687499999999
vt 0.002721875 0.746875
vt 0.00115 0.739930625
vt 0.03125 0.739944375
vt 0.029996875 0.746875
vt 0.04490625 0.8153125
vt 0.0619375 0.8366125
vt 0.03125 0.8436
vt 0.4239375 0.7682249999999999
vt 0.42926875 0.791625
vt 0.40234375 0.7854687499999999
vt 0.251570625 0.809375
vt 0.25 0.802506875
vt 0.2801 0.8025
vt 0.278820625 0.809375
vt 0.0619375 0.8366125
vt 0.0558625 0.863175
vt 0.03125 0.8436
vt 0.40234375 0.7578125
vt 0.4239375 0.7682249999999999
vt 0.40234375 0.7854687499999999
vt 0.126440625 0.621875
vt 0.125 0.615031875
vt 0.1551 0.615018125
vt 0.153746875 0.621875
vt 0.0558625 0.863175
vt 0.03125 0.875
vt 0.03125 0.8436
vt 0.38075 0.7682249999999999
vt 0.40234375 0.7578125
vt 0.40234375 0.7854687499999999
vt 0.377503125 0.996875
vt 0.37615 0.990018125
vt 0.40625 0.990031875
vt 0.404809375 0.996875
vt 0.03125 0.875
vt 0.0066375 0.863175
vt 0.03125 0.8436
vt 0.37541875 0.791625
vt 0.38075 0.7682249999999999
vt 0.40234375 0.7854687499999999
vt 0.252429375 0.996875
vt 0.25115 0.99
vt 0.28125 0.990006875
vt 0.279679375 0.996875
vt 0.0066375 0.863175
vt 0.0005625 0.8366125
vt 0.03125 0.8436
vt 0.3903625 0.8103875
vt 0.37541875 0.791625
vt 0.40234375 0.7854687499999999
vt 0.126253125 0.809375
vt 0.125 0.802438125
vt 0.1551 0.802424375
vt 0.153528125 0.809375
vt 0.0005625 0.8366125
vt 0.01759375 0.8153125
vt 0.03125 0.8436
vt 0.414325 0.8103875
vt 0.3903625 0.8103875
vt 0.40234375 0.7854687499999999
vt 0.12696875 0.996875
vt 0.125575 0.9898875
vt 0.155675 0.9898875
vt 0.15428125 0.996875
vt 0.01759375 0.8153125
vt 0.04490625 0.8153125
vt 0.03125 0.8436
vt 0.15370375 0.52735
vt 0.15438125 0.5337562499999999
vt 0.12568125 0.533769375
vt 0.1263975 0.5273687499999999
vt 0.15438125 0.5337562499999999
vt 0.1551 0.615018125
vt 0.125 0.615031875
vt 0.12568125 0.533769375
vt 0.27879875 0.714825
vt 0.2794375 0.7212375
vt 0.2507625 0.72124375
vt 0.25154875 0.7148375
vt 0.2794375 0.7212375
vt 0.2801 0.8025
vt 0.25 0.802506875
vt 0.25076875 0.72124375
vt 0.03004 0.65225625
vt 0.0306625 0.65868125
vt 0.001975 0.6586681249999999
vt 0.002765 0.6522375
vt 0.0306625 0.65868125
vt 0.03125 0.739944375
vt 0.00115 0.739930625
vt 0.001975 0.6586681249999999
vt 0.15428125 0.902175
vt 0.15498125 0.90861875
vt 0.12626875 0.90861875
vt 0.12696875 0.902175
vt 0.15498125 0.90861875
vt 0.155675 0.9898875
vt 0.125575 0.9898875
vt 0.12626875 0.90861875
vt 0.153485 0.71473125
vt 0.154275 0.721161875
vt 0.1255875 0.721175
vt 0.12621 0.71475
vt 0.154275 0.721161875
vt 0.1551 0.802424375
vt 0.125 0.802438125
vt 0.1255875 0.721175
vt 0.279695 0.90233125
vt 0.28048125 0.90874375
vt 0.25180625 0.9087375
vt 0.252445 0.902325
vt 0.28048125 0.90874375
vt 0.28125 0.990006875
vt 0.25115 0.99
vt 0.2518125 0.9087375
vt 0.4048525 0.9023687499999999
vt 0.40556875 0.908769375
vt 0.37686875 0.90875625
vt 0.37754625 0.90235
vt 0.40556875 0.908769375
vt 0.40625 0.990031875
vt 0.37615 0.990018125
vt 0.37686875 0.90875625
vt 0.029996875 0.75
vt 0.002721875 0.75
vt 0.002721875 0.746875
vt 0.029996875 0.746875
vt 0.153740625 0.625
vt 0.126440625 0.625
vt 0.126440625 0.621875
vt 0.153740625 0.621875
vt 0.404803125 1
vt 0.377503125 1
vt 0.377503125 0.996875
vt 0.404803125 0.996875
vt 0.279679375 1
vt 0.252429375 1
vt 0.252429375 0.996875
vt 0.279679375 0.996875
vt 0.153528125 0.8125
vt 0.126253125 0.8125
vt 0.126253125 0.809375
vt 0.153528125 0.809375
vt 0.15428125 1
vt 0.12696875 1
vt 0.12696875 0.996875
vt 0.15428125 0.996875
vt 0.278820625 0.8125
vt 0.251570625 0.8125
vt 0.251570625 0.809375
vt 0.278820625 0.809375
vt 0.0599375 0.97575625
vt 0.05425625 0.9508
vt 0.0558625 0.949325
vt 0.0619375 0.9758875
vt 0.05425625 0.9508
vt 0.03125 0.93969375
vt 0.03125 0.9375
vt 0.0558625 0.949325
vt 0.03125 0.93969375
vt 0.00824375 0.9508
vt 0.0066375 0.949325
vt 0.03125 0.9375
vt 0.00824375 0.9508
vt 0.0025625 0.97575625
vt 0.0005625 0.9758875
vt 0.0066375 0.949325
vt 0.0025625 0.97575625
vt 0.01848125 0.995775
vt 0.01759375 0.9971875
vt 0.0005625 0.9758875
vt 0.01848125 0.995775
vt 0.04401875 0.995775
vt 0.04490625 0.9971875
vt 0.01759375 0.9971875
vt 0.04401875 0.995775
vt 0.0599375 0.97575625
vt 0.0619375 0.9758875
vt 0.04490625 0.9971875
vt 0.39975625 0.6875
vt 0.37575625 0.6875
vt 0.375 0.625
vt 0.4006 0.625
vt 0.52475 0.875
vt 0.500775 0.875
vt 0.5 0.8125
vt 0.52554375 0.8125
vt 0.530475 1
vt 0.5065 1
vt 0.50570625 0.9375
vt 0.53125 0.9375
vt 0.28049375 0.625
vt 0.25649375 0.625
vt 0.25565 0.5625
vt 0.28125 0.5625
vt 0.3998375 0.5625
vt 0.37585 0.5625
vt 0.375 0.5
vt 0.400575 0.5
vt 0.27760625 0.5
vt 0.25364375 0.5
vt 0.25285625 0.4375
vt 0.27839375 0.4375
vt 0.0304 0.5625
vt 0.0064125 0.5625
vt 0.005675 0.5
vt 0.03125 0.5
vt 0.029996875 0.75
vt 0.002721875 0.75
vt 0.002721875 0.746875
vt 0.029996875 0.746875
vt 0.153740625 0.625
vt 0.126440625 0.625
vt 0.126440625 0.621875
vt 0.153740625 0.621875
vt 0.404803125 1
vt 0.377503125 1
vt 0.377503125 0.996875
vt 0.404803125 0.996875
vt 0.279679375 1
vt 0.252429375 1
vt 0.252429375 0.996875
vt 0.279679375 0.996875
vt 0.153528125 0.8125
vt 0.126253125 0.8125
vt 0.126253125 0.809375
vt 0.153528125 0.809375
vt 0.15428125 1
vt 0.12696875 1
vt 0.12696875 0.996875
vt 0.15428125 0.996875
vt 0.278820625 0.8125
vt 0.251570625 0.8125
vt 0.251570625 0.809375
vt 0.278820625 0.809375
vn 0 -1 0
vn 0.7899586972823683 0.4369383276067629 0.4301745627720781
vn 0 1 0
vn 0 -1 0
vn 0.8385365756531745 0.4146235134893894 -0.3534738368727764
vn 0 1 0
vn 0 -1 0
vn 0.24735134793274563 0.4073380082380458 -0.8791433658513927
vn 0 1 0
vn 0 -1 0
vn -0.5322281267225207 0.4107196054993855 -0.7402990117404356
vn 0 1 0
vn 0 -1 0
vn -0.9080136051253986 0.4164820688628 -0.04532084755318027
vn 0 1 0
vn 0 -1 0
vn -0.5964928511910053 0.43282800176507136 0.6759113842554221
vn 0 1 0
vn 0 -1 0
vn 0.1553096724547541 0.44720149354117333 0.8808460307094204
vn 0 1 0
vn 0.2637518379315634 -0.21973448040866256 -0.9392293256214146
vn 0.27079855248878554 -0.017326129870497156 -0.9624801032715893
vn 0.8981047612663878 -0.22331737395808085 -0.3788630204692868
vn 0.921332900312334 -0.017610943234243136 -0.38837551606719944
vn 0.8536783117604868 -0.23342922316472162 0.46555787803717774
vn 0.8780784339645233 -0.018462057743088487 0.4781604502991662
vn 0.16844996527851072 -0.2426139117520454 0.9553863611241472
vn 0.17360822343166285 -0.019225812261909662 0.9846271136322481
vn -0.6425470763394813 -0.23602106957266777 0.7289906099569178
vn -0.6615688286797469 -0.018680369306022977 0.7496517382904535
vn -0.973793531585173 -0.22212218015896842 -0.04886609176416443
vn -0.9986033842776114 -0.01752195418298143 -0.049842371842749394
vn -0.5693562797963911 -0.21762748693656134 -0.7927620724946991
vn -0.5836501098896522 -0.017153488638192785 -0.811824061637333
vn 0.8776146684051553 0 0.47936676334525874
vn 0.2698604575768651 0 -0.9628994409783429
vn -0.5829157317650621 0 -0.8125326145212893
vn -0.9987287019820132 0 -0.05040813265062559
vn -0.6607281984702217 0 0.7506252378825904
vn 0.1736594042830624 0 0.9848057733909017
vn 0.9212600364782878 0 -0.3889472267390833
vn 0 -1 0
vn 0 -1 0
vn 0 -1 0
vn 0 -1 0
vn 0 -1 0
vn 0 -1 0
vn 0 -1 0
vn -0.8707495712960899 -0.32758439406681267 0.3667201233250705
vn -0.2566379205779394 -0.32552350973529626 0.91003924219291
vn 0.5527217928983648 -0.3239392706482061 0.7678293876813557
vn 0.9440211950688789 -0.32654396471815184 0.046829716707195816
vn 0.6233761523294719 -0.33745339749976816 -0.7053562059149737
vn -0.16313951757454934 -0.34279319827453575 -0.9251369201487194
vn -0.8277088552303031 -0.33530749733445636 -0.4499632576162688
vn -0.6579540302178466 0 0.7530580947842558
vn 0.8816772745118187 0 0.4718529258247864
vn 0.9194459450761399 0 -0.3932164214310538
vn 0.2653756911386776 0 -0.9641450837673079
vn -0.5898203937376535 0 -0.8075344594078692
vn -0.9990484905204604 0 -0.04361322722282437
vn 0.18032982859807287 0 0.9836061980883354
usemtl m_d7d976b7-12b3-eaff-8882-af12f45f6095
f 109/249/64 115/250/64 110/251/64
f 66/252/65 86/253/65 84/254/65 68/255/65
f 93/256/66 94/257/66 95/258/66
f 108/259/67 109/260/67 110/261/67
f 68/262/68 84/263/68 82/264/68 70/265/68
f 94/266/69 96/267/69 95/268/69
f 111/269/70 108/270/70 110/271/70
f 70/272/71 82/273/71 81/274/71 72/275/71
f 96/276/72 97/277/72 95/278/72
f 112/279/73 111/280/73 110/281/73
f 72/282/74 81/283/74 92/284/74 74/285/74
f 97/286/75 98/287/75 95/288/75
f 113/289/76 112/290/76 110/291/76
f 74/292/77 92/293/77 90/294/77 76/295/77
f 98/296/78 99/297/78 95/298/78
f 114/299/79 113/300/79 110/301/79
f 76/302/80 90/303/80 88/304/80 78/305/80
f 99/306/81 100/307/81 95/308/81
f 115/309/82 114/310/82 110/311/82
f 78/312/83 88/313/83 86/314/83 66/315/83
f 100/316/84 93/317/84 95/318/84
f 71/319/85 79/320/85 80/321/85 69/322/85
f 79/323/86 81/324/86 82/325/86 80/326/86
f 69/327/87 80/328/87 83/329/87 67/330/87
f 80/331/88 82/332/88 84/333/88 83/334/88
f 67/335/89 83/336/89 85/337/89 65/338/89
f 83/339/90 84/340/90 86/341/90 85/342/90
f 65/343/91 85/344/91 87/345/91 77/346/91
f 85/347/92 86/348/92 88/349/92 87/350/92
f 77/351/93 87/352/93 89/353/93 75/354/93
f 87/355/94 88/356/94 90/357/94 89/358/94
f 75/359/95 89/360/95 91/361/95 73/362/95
f 89/363/96 90/364/96 92/365/96 91/366/96
f 73/367/97 91/368/97 79/369/97 71/370/97
f 91/371/98 92/372/98 81/373/98 79/374/98
f 94/375/99 93/376/99 66/377/99 68/378/99
f 97/379/100 96/380/100 70/381/100 72/382/100
f 98/383/101 97/384/101 72/385/101 74/386/101
f 99/387/102 98/388/102 74/389/102 76/390/102
f 100/391/103 99/392/103 76/393/103 78/394/103
f 93/395/104 100/396/104 78/397/104 66/398/104
f 96/399/105 94/400/105 68/401/105 70/402/105
f 102/403/106 101/404/106 69/405/106 67/406/106
f 101/407/107 103/408/107 71/409/107 69/410/107
f 103/411/108 104/412/108 73/413/108 71/414/108
f 104/415/109 105/416/109 75/417/109 73/418/109
f 105/419/110 106/420/110 77/421/110 75/422/110
f 106/423/111 107/424/111 65/425/111 77/426/111
f 107/427/112 102/428/112 67/429/112 65/430/112
f 109/431/113 108/432/113 101/433/113 102/434/113
f 108/435/114 111/436/114 103/437/114 101/438/114
f 111/439/115 112/440/115 104/441/115 103/442/115
f 112/443/116 113/444/116 105/445/116 104/446/116
f 113/447/117 114/448/117 106/449/117 105/450/117
f 114/451/118 115/452/118 107/453/118 106/454/118
f 115/455/119 109/456/119 102/457/119 107/458/119
f 124/459/120 123/460/120 116/461/120 117/462/120
f 126/463/121 125/464/121 118/465/121 119/466/121
f 127/467/122 126/468/122 119/469/122 120/470/122
f 128/471/123 127/472/123 120/473/123 121/474/123
f 129/475/124 128/476/124 121/477/124 122/478/124
f 123/479/125 129/480/125 122/481/125 116/482/125
f 125/483/126 124/484/126 117/485/126 118/486/126
o PictureFrame
v -0.04625002281678539 0.6358474228725265 0.04460494648092709
v -0.06365912899268952 0.6401886266167977 0.02719584046692329
v -0.06313335229912151 0.5004363561570091 0.02772163529631158
v -0.08054245847502564 0.5047775599012801 0.010312529282307775
v -0.17883254152497438 0.6358474400987199 0.17718747071769222
v -0.1962416477008785 0.6401886438429909 0.15977836470368842
v -0.1957158710073105 0.5004363733832023 0.1603041595330767
v -0.21312497718321463 0.5047775771274735 0.14289505351907292
v -0.07143939102916734 0.6309560547475038 0.03267383182526502
v -0.08602044830936671 0.5140101334931934 0.018092790347642537
v -0.19076365786653743 0.6309560702510778 0.15199810363835364
v -0.2053447151467368 0.5140101489967673 0.13741706216073118
v -0.06708711448519131 0.6298707538114361 0.037026108328765975
v -0.08166817176539068 0.5129248325571255 0.02244506685114349
v -0.1864113813225614 0.6298707693150101 0.1563503801418546
v -0.20099243860276078 0.5129248480606995 0.14176933866423214
v -0.08284906079703776 0.6081497089872645 0.07429717297962884
v -0.14914032015113227 0.6081497176003611 0.14058843509801142
v -0.0851513329991745 0.5896845635260575 0.0719949032726358
v -0.15144259235326898 0.5896845721391542 0.13828616539101837
v -0.056074019470323574 0.49981341702640314 0.1353651376713763
v -0.08009885574370547 0.4998134201479042 0.15938997494657303
v -0.06558658044172548 0.500098471111882 0.12366142996708604
v -0.08961141671510738 0.500098474233383 0.1476862672422828
vt 0.0625 0.375
vt 0 0.375
vt 0 0.25
vt 0.0625 0.25
vt 0.1875 0.25
vt 0.1875 0.375
vt 0.125 0.375
vt 0.125 0.25
vt 0.375 0.5625
vt 0.5625 0.5625
vt 0.5625 0.625
vt 0.375 0.625
vt 0.625 0.75
vt 0.625 0.8125
vt 0.4375 0.8125
vt 0.4375 0.75
vt 0.72479375 0.8125
vt 0.72324375 0.875
vt 0.68926875 0.875
vt 0.69081875 0.8125
vt 0.4375 1
vt 0.25 1
vt 0.25 0.875
vt 0.4375 0.875
vt 0.009375000000000008 0.990625
vt 0.17812500000000003 0.990625
vt 0.1875 1
vt 1.3877787807814457e-17 1
vt 0.009375000000000008 0.871875
vt 0.009375000000000008 0.990625
vt 1.3877787807814457e-17 1
vt 1.3877787807814457e-17 0.8625
vt 0.17812500000000003 0.8718749999999998
vt 0.009375000000000008 0.871875
vt 0 0.8625
vt 0.1875 0.8624999999999998
vt 0.17812500000000003 0.990625
vt 0.17812500000000003 0.871875
vt 0.1875 0.8625
vt 0.1875 1
vt 0.1875 0.5
vt 0 0.5
vt 0 0.4375
vt 0.1875 0.4375
vt 0.6875 0.5625
vt 0.6875 0.6875
vt 0.625 0.6875
vt 0.625 0.5625
vt 0.5 0.9375
vt 0.6875 0.9375
vt 0.6875 1
vt 0.5 1
vt 0.5625 0.375
vt 0.5625 0.25
vt 0.625 0.25
vt 0.625 0.375
vt 0.140625 0.721875
vt 0.140625 0.703125
vt 0.1875 0.6125
vt 0.1875 0.75
vt 0.046875 0.721875
vt 0.140625 0.721875
vt 0.1875 0.75
vt 0 0.75
vt 0.046875 0.703125
vt 0.046875 0.721875
vt 0 0.75
vt 0 0.6125
vt 0.140625 0.703125
vt 0.046875 0.703125
vt 0 0.6125
vt 0.1875 0.6125
vt 0.5681465342812667 0.5
vt 0.575901076436366 0.4375
vt 0.6811572906234629 0.4375
vt 0.6953125 0.49891243950883
vt 0.25178877881848133 0.6826641335124901
vt 0.2844672719308461 0.6733680745139073
vt 0.34196122118151867 0.7868486230723435
vt 0.25178877881848133 0.8125
vt 0.4375 0.3741795389189908
vt 0.5 0.3671875
vt 0.5 0.49701813035403086
vt 0.44036287651447464 0.48316945939876677
vt 0.2727 0.375
vt 0.30667500000000003 0.375
vt 0.34375 0.5
vt 0.25 0.5
vn 0.7071067664436749 -9.187303104396532e-8 -0.7071067959294141
vn -0.7071067664436749 9.187303104396532e-8 0.7071067959294141
vn 0.12278785078062628 0.9848077579310361 0.12278771770629468
vn -0.12278785078062628 -0.9848077579310361 -0.12278771770629468
vn -0.013433284321269279 -0.9998195323406182 -0.013433153856477073
vn -0.6963642470361652 0.1736481497708444 -0.696364240560152
vn -0.6963642470361652 0.1736481497708444 -0.696364240560152
vn -0.6963642470361652 0.1736481497708444 -0.696364240560152
vn -0.6963642470361652 0.1736481497708444 -0.696364240560152
vn -0.6963642470361652 0.1736481497708444 -0.696364240560152
vn -0.12278785078062628 -0.9848077579310361 -0.12278771770629468
vn -0.7071067664436749 9.187303104396532e-8 0.7071067959294141
vn 0.12278785078062628 0.9848077579310361 0.12278771770629468
vn 0.7071067664436749 -9.187303104396532e-8 -0.7071067959294141
vn 0.6963642470361652 -0.1736481497708444 0.696364240560152
vn 0.6963642470361652 -0.1736481497708444 0.696364240560152
vn 0.6963642470361652 -0.1736481497708444 0.696364240560152
vn 0.6963642470361652 -0.1736481497708444 0.696364240560152
vn 0.759149057376369 -0.1927690570666994 -0.6217176202442601
vn 0.6134328433439006 0.4973936108189021 0.6134327531388849
vn -0.7275137717824415 -0.36254791694967586 0.5824798020380935
vn -0.6163677325888812 -0.49008340782504484 -0.6163676432112838
usemtl m_dda1e280-fc5d-db3a-03f5-85325b51c40c
f 131/487/127 130/488/127 132/489/127 133/490/127
f 136/491/128 134/492/128 135/493/128 137/494/128
f 134/495/129 130/496/129 131/497/129 135/498/129
f 133/499/130 132/500/130 136/501/130 137/502/130
f 152/503/131 150/504/131 151/505/131 153/506/131
f 144/507/132 142/508/132 143/509/132 145/510/132
f 138/511/133 140/512/133 135/513/133 131/514/133
f 139/515/134 138/516/134 131/517/134 133/518/134
f 141/519/135 139/520/135 133/521/135 137/522/135
f 140/523/136 141/524/136 137/525/136 135/526/136
f 142/527/137 144/528/137 140/529/137 138/530/137
f 143/531/138 142/532/138 138/533/138 139/534/138
f 145/535/139 143/536/139 139/537/139 141/538/139
f 144/539/140 145/540/140 141/541/140 140/542/140
f 146/543/141 148/544/141 132/545/141 130/546/141
f 147/547/142 146/548/142 130/549/142 134/550/142
f 149/551/143 147/552/143 134/553/143 136/554/143
f 148/555/144 149/556/144 136/557/144 132/558/144
f 150/559/145 152/560/145 148/561/145 146/562/145
f 151/563/146 150/564/146 146/565/146 147/566/146
f 153/567/147 151/568/147 147/569/147 149/570/147
f 152/571/148 153/572/148 149/573/148 148/574/148
o Can
v 0.08006056871955193 0.5619046109522222 0.10651369247616593
v 0.05976935630099109 0.5619046167106938 0.014985941500929953
v 0.1040215760592455 0.550010593106528 0.10120166467035512
v 0.08373036364068467 0.5500105988649996 0.009673913695119149
v 0.10982975216707692 0.5234193820057176 0.09991402144698958
v 0.08953853974851608 0.5234193877641892 0.008386270471753596
v 0.09311090637101016 0.5021539525068166 0.10362049872158763
v 0.07281969395244933 0.5021539582652882 0.012092747746351648
v 0.0664541881365691 0.5022282372771956 0.10953015045826016
v 0.04616297571800826 0.5022282430356673 0.018002399483024192
v 0.049933658710061606 0.52358615124846 0.11319266473701686
v 0.02964244629150077 0.5235861570069316 0.021664913761780896
v 0.05598875089873262 0.5501445186313125 0.11185028488424488
v 0.035697538480171785 0.5501445243897841 0.0203225339090089
v 0.09241471222386416 0.5007440085620289 0.09737309420544767
v 0.10997790935876728 0.5231071232074112 0.09347942882813012
v 0.0754857865601381 0.4993334939084851 0.01790343605302888
v 0.09389253493734577 0.5227946248089265 0.013822759950130659
v 0.10385803218664395 0.5510871120488838 0.09483617459620461
v 0.08746095670093054 0.5521633913910615 0.01524860826291409
v 0.0786633715145386 0.5636146353689193 0.1004216967815903
v 0.061034004471208436 0.5653243332838156 0.02110732292968709
v 0.05336686958321784 0.5512555342708502 0.1060297950632176
v 0.0345114566545912 0.5523663103102097 0.026987228983050282
v 0.04701618383535004 0.5233166181398511 0.10743770633881447
v 0.027865500607521188 0.5230476649535528 0.028460600016513307
v 0.06439398540289629 0.5008370051972344 0.1035851393450259
v 0.04610081273437482 0.4994457777240504 0.02441792745160286
v 0.059092982553705736 0.5619046169026429 0.011935016468422086
v 0.08305398989339931 0.5500105990569487 0.006622988662611282
v 0.05894638538689441 0.5304925927997647 0.01196751429924156
v 0.08886216600123073 0.5234193879561383 0.005335345439245728
v 0.07214332020516398 0.5021539584572372 0.00904182271384378
v 0.045486601970722906 0.5022282432276163 0.014951474450516325
v 0.028966072544215404 0.5235861571988806 0.01861398872927303
v 0.035021164732886426 0.5501445245817331 0.017271608876501032
v 0.10779531513474014 0.5240625420057591 0.1003650452866349
v 0.1023127232223059 0.5490347281047808 0.10158050813495956
v 0.09218955198350763 0.5041324944715683 0.10382475818151933
v 0.06724686996401 0.5042519859084474 0.10935441726787959
v 0.051749657991065796 0.5243322585533228 0.1127900674648918
v 0.05736790698800827 0.5492510827595449 0.11154453330603512
v 0.07987075233707461 0.5602448229592608 0.10655577364759743
v 0.1050708066285676 0.5244441516498948 0.09616774405423019
v 0.09993531986153413 0.5478589507370306 0.09730625545198357
v 0.07879687927657765 0.5307128086770401 0.10199253349116492
v 0.09042195165836135 0.5057496725776379 0.0994153156057036
v 0.06701899549467498 0.5058535213291774 0.10460362571141264
v 0.052484839210230075 0.5246768012769455 0.10782577153869674
v 0.05776493819886504 0.5480458415041958 0.10665520332896926
v 0.0788825120820627 0.5583626049163316 0.10197355089619219
v 0.04999856936127869 0.5240869399183529 0.11317827442463334
v 0.05614932945968403 0.5506223992297368 0.11181468550696802
v 0.08023818996955817 0.5621862088159622 0.10647431481361057
v 0.10412577327693358 0.5500694755665422 0.10117856470869398
v 0.10982487105333966 0.5233975695091866 0.09991510356240288
v 0.09304290135117643 0.5022540694954744 0.10363557507673449
v 0.06641781633903797 0.5025607378099898 0.1095382139119841
v 0.04932219561399333 0.5240869401103019 0.11012734939212547
v 0.05547295571239867 0.5506223994216858 0.10876376047446015
v 0.0795618162222728 0.5621862090079113 0.10342338978110271
v 0.10344939952964821 0.5500694757584912 0.09812763967618611
v 0.10914849730605429 0.5233975697011356 0.09686417852989501
v 0.09236652760389108 0.5022540696874235 0.10058465004422662
v 0.06574144259175262 0.5025607380019388 0.10648728887947623
vt 0.42926875 0.791625
vt 0.414325 0.8103875
vt 0.40234375 0.7854687499999999
vt 0.002721875 0.746875
vt 0.00115 0.739930625
vt 0.03125 0.739944375
vt 0.029996875 0.746875
vt 0.04490625 0.8153125
vt 0.0619375 0.8366125
vt 0.03125 0.8436
vt 0.4239375 0.7682249999999999
vt 0.42926875 0.791625
vt 0.40234375 0.7854687499999999
vt 0.251570625 0.809375
vt 0.25 0.802506875
vt 0.2801 0.8025
vt 0.278820625 0.809375
vt 0.0619375 0.8366125
vt 0.0558625 0.863175
vt 0.03125 0.8436
vt 0.40234375 0.7578125
vt 0.4239375 0.7682249999999999
vt 0.40234375 0.7854687499999999
vt 0.126440625 0.621875
vt 0.125 0.615031875
vt 0.1551 0.615018125
vt 0.153746875 0.621875
vt 0.0558625 0.863175
vt 0.03125 0.875
vt 0.03125 0.8436
vt 0.38075 0.7682249999999999
vt 0.40234375 0.7578125
vt 0.40234375 0.7854687499999999
vt 0.377503125 0.996875
vt 0.37615 0.990018125
vt 0.40625 0.990031875
vt 0.404809375 0.996875
vt 0.03125 0.875
vt 0.0066375 0.863175
vt 0.03125 0.8436
vt 0.37541875 0.791625
vt 0.38075 0.7682249999999999
vt 0.40234375 0.7854687499999999
vt 0.252429375 0.996875
vt 0.25115 0.99
vt 0.28125 0.990006875
vt 0.279679375 0.996875
vt 0.0066375 0.863175
vt 0.0005625 0.8366125
vt 0.03125 0.8436
vt 0.3903625 0.8103875
vt 0.37541875 0.791625
vt 0.40234375 0.7854687499999999
vt 0.126253125 0.809375
vt 0.125 0.802438125
vt 0.1551 0.802424375
vt 0.153528125 0.809375
vt 0.0005625 0.8366125
vt 0.01759375 0.8153125
vt 0.03125 0.8436
vt 0.414325 0.8103875
vt 0.3903625 0.8103875
vt 0.40234375 0.7854687499999999
vt 0.12696875 0.996875
vt 0.125575 0.9898875
vt 0.155675 0.9898875
vt 0.15428125 0.996875
vt 0.01759375 0.8153125
vt 0.04490625 0.8153125
vt 0.03125 0.8436
vt 0.15370375 0.52735
vt 0.15438125 0.5337562499999999
vt 0.12568125 0.533769375
vt 0.1263975 0.5273687499999999
vt 0.15438125 0.5337562499999999
vt 0.1551 0.615018125
vt 0.125 0.615031875
vt 0.12568125 0.533769375
vt 0.27879875 0.714825
vt 0.2794375 0.7212375
vt 0.2507625 0.72124375
vt 0.25154875 0.7148375
vt 0.2794375 0.7212375
vt 0.2801 0.8025
vt 0.25 0.802506875
vt 0.25076875 0.72124375
vt 0.03004 0.65225625
vt 0.0306625 0.65868125
vt 0.001975 0.6586681249999999
vt 0.002765 0.6522375
vt 0.0306625 0.65868125
vt 0.03125 0.739944375
vt 0.00115 0.739930625
vt 0.001975 0.6586681249999999
vt 0.15428125 0.902175
vt 0.15498125 0.90861875
vt 0.12626875 0.90861875
vt 0.12696875 0.902175
vt 0.15498125 0.90861875
vt 0.155675 0.9898875
vt 0.125575 0.9898875
vt 0.12626875 0.90861875
vt 0.153485 0.71473125
vt 0.154275 0.721161875
vt 0.1255875 0.721175
vt 0.12621 0.71475
vt 0.154275 0.721161875
vt 0.1551 0.802424375
vt 0.125 0.802438125
vt 0.1255875 0.721175
vt 0.279695 0.90233125
vt 0.28048125 0.90874375
vt 0.25180625 0.9087375
vt 0.252445 0.902325
vt 0.28048125 0.90874375
vt 0.28125 0.990006875
vt 0.25115 0.99
vt 0.2518125 0.9087375
vt 0.4048525 0.9023687499999999
vt 0.40556875 0.908769375
vt 0.37686875 0.90875625
vt 0.37754625 0.90235
vt 0.40556875 0.908769375
vt 0.40625 0.990031875
vt 0.37615 0.990018125
vt 0.37686875 0.90875625
vt 0.029996875 0.75
vt 0.002721875 0.75
vt 0.002721875 0.746875
vt 0.029996875 0.746875
vt 0.153740625 0.625
vt 0.126440625 0.625
vt 0.126440625 0.621875
vt 0.153740625 0.621875
vt 0.404803125 1
vt 0.377503125 1
vt 0.377503125 0.996875
vt 0.404803125 0.996875
vt 0.279679375 1
vt 0.252429375 1
vt 0.252429375 0.996875
vt 0.279679375 0.996875
vt 0.153528125 0.8125
vt 0.126253125 0.8125
vt 0.126253125 0.809375
vt 0.153528125 0.809375
vt 0.15428125 1
vt 0.12696875 1
vt 0.12696875 0.996875
vt 0.15428125 0.996875
vt 0.278820625 0.8125
vt 0.251570625 0.8125
vt 0.251570625 0.809375
vt 0.278820625 0.809375
vt 0.0599375 0.97575625
vt 0.05425625 0.9508
vt 0.0558625 0.949325
vt 0.0619375 0.9758875
vt 0.05425625 0.9508
vt 0.03125 0.93969375
vt 0.03125 0.9375
vt 0.0558625 0.949325
vt 0.03125 0.93969375
vt 0.00824375 0.9508
vt 0.0066375 0.949325
vt 0.03125 0.9375
vt 0.00824375 0.9508
vt 0.0025625 0.97575625
vt 0.0005625 0.9758875
vt 0.0066375 0.949325
vt 0.0025625 0.97575625
vt 0.01848125 0.995775
vt 0.01759375 0.9971875
vt 0.0005625 0.9758875
vt 0.01848125 0.995775
vt 0.04401875 0.995775
vt 0.04490625 0.9971875
vt 0.01759375 0.9971875
vt 0.04401875 0.995775
vt 0.0599375 0.97575625
vt 0.0619375 0.9758875
vt 0.04490625 0.9971875
vt 0.39975625 0.6875
vt 0.37575625 0.6875
vt 0.375 0.625
vt 0.4006 0.625
vt 0.52475 0.875
vt 0.500775 0.875
vt 0.5 0.8125
vt 0.52554375 0.8125
vt 0.530475 1
vt 0.5065 1
vt 0.50570625 0.9375
vt 0.53125 0.9375
vt 0.28049375 0.625
vt 0.25649375 0.625
vt 0.25565 0.5625
vt 0.28125 0.5625
vt 0.3998375 0.5625
vt 0.37585 0.5625
vt 0.375 0.5
vt 0.400575 0.5
vt 0.27760625 0.5
vt 0.25364375 0.5
vt 0.25285625 0.4375
vt 0.27839375 0.4375
vt 0.0304 0.5625
vt 0.0064125 0.5625
vt 0.005675 0.5
vt 0.03125 0.5
vt 0.029996875 0.75
vt 0.002721875 0.75
vt 0.002721875 0.746875
vt 0.029996875 0.746875
vt 0.153740625 0.625
vt 0.126440625 0.625
vt 0.126440625 0.621875
vt 0.153740625 0.621875
vt 0.404803125 1
vt 0.377503125 1
vt 0.377503125 0.996875
vt 0.404803125 0.996875
vt 0.279679375 1
vt 0.252429375 1
vt 0.252429375 0.996875
vt 0.279679375 0.996875
vt 0.153528125 0.8125
vt 0.126253125 0.8125
vt 0.126253125 0.809375
vt 0.153528125 0.809375
vt 0.15428125 1
vt 0.12696875 1
vt 0.12696875 0.996875
vt 0.15428125 0.996875
vt 0.278820625 0.8125
vt 0.251570625 0.8125
vt 0.251570625 0.809375
vt 0.278820625 0.809375
vn 0.2164395991313156 -6.142369700368189e-8 0.9762960104025171
vn 0.28942013757541407 0.8089431644561351 -0.5117098207436739
vn -0.2164395991313156 6.142369700368189e-8 -0.9762960104025171
vn 0.2164395991313156 -6.142369700368189e-8 0.9762960104025171
vn 0.7771405379788654 0.1991721576288663 -0.5969782540891935
vn -0.2164395991313156 6.142369700368189e-8 -0.9762960104025171
vn 0.2164395991313156 -6.142369700368189e-8 0.9762960104025171
vn 0.6068549177716082 -0.5720865730245803 -0.5517644984424118
vn -0.2164395991313156 6.142369700368189e-8 -0.9762960104025171
vn 0.2164395991313156 -6.142369700368189e-8 0.9762960104025171
vn -0.0922167261577684 -0.9117553347546129 -0.4002477794607323
vn -0.2164395991313156 6.142369700368189e-8 -0.9762960104025171
vn 0.2164395991313156 -6.142369700368189e-8 0.9762960104025171
vn -0.7861544245069706 -0.5641825641496669 -0.2523078578594437
vn -0.2164395991313156 6.142369700368189e-8 -0.9762960104025171
vn 0.2164395991313156 -6.142369700368189e-8 0.9762960104025171
vn -0.9509840460962383 0.2038848116576995 -0.23250876896524184
vn -0.2164395991313156 6.142369700368189e-8 -0.9762960104025171
vn 0.2164395991313156 -6.142369700368189e-8 0.9762960104025171
vn -0.47273428803878886 0.807299236136694 -0.3532566152891833
vn -0.2164395991313156 6.142369700368189e-8 -0.9762960104025171
vn 0.7896786481885578 -0.6114797108008417 0.050001958701747576
vn 0.7646520683173577 -0.6263164692925964 -0.1517725097336258
vn 0.9769561507671747 0.21309381154167129 0.012153475257241201
vn 0.9562882652750488 0.2188382028958265 -0.19396544705323923
vn 0.46509955665732783 0.8747513977969922 0.1359867436530699
vn 0.43082092282594125 0.8991805837363136 -0.07660032824359589
vn -0.3552465238682155 0.8756142403762901 0.32726076656055486
vn -0.41607437229916233 0.9024150202367334 0.11193412333598035
vn -0.8729159647484908 0.22035356724307287 0.43527235599158387
vn -0.9467895031169771 0.22612813798493786 0.22903209818488948
vn -0.6982082957953449 -0.605267439433309 0.38230420144749355
vn -0.7616577074955649 -0.6204693864205635 0.18680277601655193
vn 0.04401565298913696 -0.976026793480578 0.21315327982454588
vn 0.00007111682171234702 -0.9998459117221572 0.017554137828046292
vn 0.42577248868765083 0.8998933530098909 -0.09439142485067299
vn 0.7603941317031477 -0.6272026120510322 -0.16857534786491937
vn -0.002656175089009894 -0.9999962990192148 0.0005887968832128944
vn -0.7652290056866486 -0.6210027523589838 0.16964713501379833
vn -0.9507164408385113 0.2274088367047774 0.2107687598007206
vn -0.4202962089500211 0.9025901919713534 0.09317747635215182
vn 0.9527427707998961 0.21833045320381278 -0.21121795826196804
vn 0.2164395991313156 -6.142369700368189e-8 0.9762960104025171
vn 0.2164395991313156 -6.142369700368189e-8 0.9762960104025171
vn 0.2164395991313156 -6.142369700368189e-8 0.9762960104025171
vn 0.2164395991313156 -6.142369700368189e-8 0.9762960104025171
vn 0.2164395991313156 -6.142369700368189e-8 0.9762960104025171
vn 0.2164395991313156 -6.142369700368189e-8 0.9762960104025171
vn 0.2164395991313156 -6.142369700368189e-8 0.9762960104025171
vn -0.8290925332250483 -0.20709432670863917 0.5193433461550923
vn -0.6494599930733412 0.5918466502453043 0.4774089022950748
vn 0.07411473930912928 0.9460689788864433 0.3153735762645669
vn 0.7944522933561026 0.5863206773800999 0.1583465088272247
vn 0.9684019170073955 -0.212245079611249 0.13095706669445475
vn 0.4690230855290496 -0.84790394433869 0.2471360888573376
vn -0.33020260652356404 -0.8469750700761933 0.41665269627649326
vn -0.9498907616459251 0.23100043096628914 0.21058571136977214
vn 0.43326139986988044 0.8961353886572935 -0.09605167660605157
vn 0.9537212673355822 0.21380138731519463 -0.21143488599072102
vn 0.7575357619692462 -0.6308210263026435 -0.16794166282418746
vn -0.010977766819679493 -0.9999367809952278 0.0024336492259299657
vn -0.7693354691674058 -0.615656616554583 0.1705575163208319
vn -0.4143143525849966 0.905487134218627 0.09185133100077185
usemtl m_d7d976b7-12b3-eaff-8882-af12f45f6095
f 198/575/149 204/576/149 199/577/149
f 155/578/150 175/579/150 173/580/150 157/581/150
f 182/582/151 183/583/151 184/584/151
f 197/585/152 198/586/152 199/587/152
f 157/588/153 173/589/153 171/590/153 159/591/153
f 183/592/154 185/593/154 184/594/154
f 200/595/155 197/596/155 199/597/155
f 159/598/156 171/599/156 170/600/156 161/601/156
f 185/602/157 186/603/157 184/604/157
f 201/605/158 200/606/158 199/607/158
f 161/608/159 170/609/159 181/610/159 163/611/159
f 186/612/160 187/613/160 184/614/160
f 202/615/161 201/616/161 199/617/161
f 163/618/162 181/619/162 179/620/162 165/621/162
f 187/622/163 188/623/163 184/624/163
f 203/625/164 202/626/164 199/627/164
f 165/628/165 179/629/165 177/630/165 167/631/165
f 188/632/166 189/633/166 184/634/166
f 204/635/167 203/636/167 199/637/167
f 167/638/168 177/639/168 175/640/168 155/641/168
f 189/642/169 182/643/169 184/644/169
f 160/645/170 168/646/170 169/647/170 158/648/170
f 168/649/171 170/650/171 171/651/171 169/652/171
f 158/653/172 169/654/172 172/655/172 156/656/172
f 169/657/173 171/658/173 173/659/173 172/660/173
f 156/661/174 172/662/174 174/663/174 154/664/174
f 172/665/175 173/666/175 175/667/175 174/668/175
f 154/669/176 174/670/176 176/671/176 166/672/176
f 174/673/177 175/674/177 177/675/177 176/676/177
f 166/677/178 176/678/178 178/679/178 164/680/178
f 176/681/179 177/682/179 179/683/179 178/684/179
f 164/685/180 178/686/180 180/687/180 162/688/180
f 178/689/181 179/690/181 181/691/181 180/692/181
f 162/693/182 180/694/182 168/695/182 160/696/182
f 180/697/183 181/698/183 170/699/183 168/700/183
f 183/701/184 182/702/184 155/703/184 157/704/184
f 186/705/185 185/706/185 159/707/185 161/708/185
f 187/709/186 186/710/186 161/711/186 163/712/186
f 188/713/187 187/714/187 163/715/187 165/716/187
f 189/717/188 188/718/188 165/719/188 167/720/188
f 182/721/189 189/722/189 167/723/189 155/724/189
f 185/725/190 183/726/190 157/727/190 159/728/190
f 191/729/191 190/730/191 158/731/191 156/732/191
f 190/733/192 192/734/192 160/735/192 158/736/192
f 192/737/193 193/738/193 162/739/193 160/740/193
f 193/741/194 194/742/194 164/743/194 162/744/194
f 194/745/195 195/746/195 166/747/195 164/748/195
f 195/749/196 196/750/196 154/751/196 166/752/196
f 196/753/197 191/754/197 156/755/197 154/756/197
f 198/757/198 197/758/198 190/759/198 191/760/198
f 197/761/199 200/762/199 192/763/199 190/764/199
f 200/765/200 201/766/200 193/767/200 192/768/200
f 201/769/201 202/770/201 194/771/201 193/772/201
f 202/773/202 203/774/202 195/775/202 194/776/202
f 203/777/203 204/778/203 196/779/203 195/780/203
f 204/781/204 198/782/204 191/783/204 196/784/204
f 213/785/205 212/786/205 205/787/205 206/788/205
f 215/789/206 214/790/206 207/791/206 208/792/206
f 216/793/207 215/794/207 208/795/207 209/796/207
f 217/797/208 216/798/208 209/799/208 210/800/208
f 218/801/209 217/802/209 210/803/209 211/804/209
f 212/805/210 218/806/210 211/807/210 205/808/210
f 214/809/211 213/810/211 206/811/211 207/812/211
o PILLS HERE!
v -0.04878202324969216 0.5 -0.13813403856454837
v -0.062050041100150305 0.5 -0.12004140289140296
v -0.062050041100150305 0.575 -0.12004140289140296
v -0.04289607035139611 0.5 -0.11606379581283253
v -0.04289607035139611 0.575 -0.11606379581283253
v -0.028174354997038818 0.5 -0.12870553166304435
v -0.028174354997038818 0.575 -0.12870553166304435
v -0.028970636290656576 0.5 -0.14844719384115285
v -0.028970636290656576 0.575 -0.14844719384115285
v -0.04468533103479055 0.5 -0.16042282153041462
v -0.04468533103479055 0.575 -0.16042282153041462
v -0.06348486382977973 0.5 -0.15561450010070796
v -0.06348486382977973 0.575 -0.15561450010070796
v -0.07121286514403301 0.5 -0.1376430241122833
v -0.07121286514403301 0.575 -0.1376430241122833
v -0.07121286514403301 0.58125 -0.1376430241122833
v -0.062050041100150305 0.58125 -0.12004140289140296
v -0.04289607035139611 0.58125 -0.11606379581283253
v -0.028174354997038818 0.58125 -0.12870553166304435
v -0.028970636290656576 0.58125 -0.14844719384115285
v -0.04468533103479055 0.58125 -0.16042282153041462
v -0.06348486382977973 0.58125 -0.15561450010070796
v -0.02619872743697463 0.58125 -0.14989015825751234
v -0.025331923181498697 0.58125 -0.12748865131549358
v -0.025331923181498697 0.575 -0.12748865131549358
v -0.02619872743697463 0.575 -0.14989015825751234
v -0.0424172450195255 0.58125 -0.11284565240324308
v -0.0424172450195255 0.575 -0.11284565240324308
v -0.06442390499709509 0.58125 -0.11736682635447096
v -0.06442390499709509 0.575 -0.11736682635447096
v -0.07476534237626023 0.58125 -0.13723254272703872
v -0.07476534237626023 0.575 -0.13723254272703872
v -0.06584636965507112 0.58125 -0.15785258207870606
v -0.06584636965507112 0.575 -0.15785258207870606
v -0.04405178914781352 0.58125 -0.16344917925608016
v -0.04405178914781352 0.575 -0.16344917925608016
v -0.062050041100150305 0.5875 -0.12004140289140296
v -0.04289607035139611 0.5875 -0.11606379581283253
v -0.04878202324969216 0.5875 -0.13813403856454837
v -0.07121286514403301 0.5875 -0.1376430241122833
v -0.04468533103479055 0.5875 -0.16042282153041462
v -0.06348486382977973 0.5875 -0.15561450010070796
v -0.028174354997038818 0.5875 -0.12870553166304435
v -0.028970636290656576 0.5875 -0.14844719384115285
vt 0.54573125 0.60543125
vt 0.53335625 0.62058125
vt 0.5234375 0.60045625
vt 0.4375 0.125
vt 0.5 0.125
vt 0.5 0.3125
vt 0.4375 0.3125
vt 0.53335625 0.45754375
vt 0.54573125 0.47269375
vt 0.5234375 0.47766875
vt 0.54131875 0.58653125
vt 0.54573125 0.60543125
vt 0.5234375 0.60045625
vt 0.0625 0.125
vt 0.125 0.125
vt 0.125 0.3125
vt 0.0625 0.3125
vt 0.54573125 0.47269375
vt 0.54131875 0.49159375000000005
vt 0.5234375 0.47766875
vt 0.5234375 0.578125
vt 0.54131875 0.58653125
vt 0.5234375 0.60045625
vt 0.125 0.125
vt 0.1875 0.125
vt 0.1875 0.3125
vt 0.125 0.3125
vt 0.54131875 0.49159375000000005
vt 0.5234375 0.5
vt 0.5234375 0.47766875
vt 0.50555625 0.58653125
vt 0.5234375 0.578125
vt 0.5234375 0.60045625
vt 0.1875 0.125
vt 0.25 0.125
vt 0.25 0.3125
vt 0.1875 0.3125
vt 0.5234375 0.5
vt 0.50555625 0.49159375000000005
vt 0.5234375 0.47766875
vt 0.50114375 0.605425
vt 0.50555625 0.58653125
vt 0.5234375 0.60045625
vt 0.25 0.125
vt 0.3125 0.125
vt 0.3125 0.3125
vt 0.25 0.3125
vt 0.50555625 0.49159375000000005
vt 0.50114375 0.4727
vt 0.5234375 0.47766875
vt 0.5135125 0.62058125
vt 0.50114375 0.605425
vt 0.5234375 0.60045625
vt 0.3125 0.125
vt 0.375 0.125
vt 0.375 0.3125
vt 0.3125 0.3125
vt 0.50114375 0.4727
vt 0.5135125 0.45754375
vt 0.5234375 0.47766875
vt 0.53335625 0.62058125
vt 0.5135125 0.62058125
vt 0.5234375 0.60045625
vt 0.375 0.125
vt 0.4375 0.125
vt 0.4375 0.3125
vt 0.375 0.3125
vt 0.5135125 0.45754375
vt 0.53335625 0.45754375
vt 0.5234375 0.47766875
vt 0.0625 0.875
vt 0 0.875
vt 0 0.8125
vt 0.0625 0.8125
vt 0.0625 0.625
vt 0 0.625
vt 0 0.5625
vt 0.0625 0.5625
vt 0.1875 0.875
vt 0.125 0.875
vt 0.125 0.8125
vt 0.1875 0.8125
vt 0.5625 0.875
vt 0.5 0.875
vt 0.5 0.8125
vt 0.5625 0.8125
vt 0.3125 0.5
vt 0.25 0.5
vt 0.25 0.4375
vt 0.3125 0.4375
vt 0.0625 0.75
vt 0 0.75
vt 0 0.6875
vt 0.0625 0.6875
vt 0.4375 1
vt 0.375 1
vt 0.375 0.9375
vt 0.4375 0.9375
vt 0.5476125 0.740425
vt 0.52734375 0.75
vt 0.52734375 0.746875
vt 0.545225 0.73846875
vt 0.40234375 0.4453125
vt 0.4226125 0.4548875
vt 0.420225 0.45684375
vt 0.40234375 0.44843750000000004
vt 0.5527125 0.7185125
vt 0.5476125 0.740425
vt 0.545225 0.73846875
vt 0.5496375 0.71956875
vt 0.4226125 0.4548875
vt 0.4277125 0.4768
vt 0.4246375 0.47574375
vt 0.420225 0.45684375
vt 0.53854375 0.701075
vt 0.5527125 0.7185125
vt 0.5496375 0.71956875
vt 0.5372625 0.70441875
vt 0.4277125 0.4768
vt 0.41354375 0.4942375
vt 0.4122625 0.49089375
vt 0.4246375 0.47574375
vt 0.51614375 0.701075
vt 0.53854375 0.701075
vt 0.5372625 0.70441875
vt 0.51741875 0.70441875
vt 0.41354375 0.4942375
vt 0.39114375 0.4942375
vt 0.39241875 0.49089375
vt 0.4122625 0.49089375
vt 0.501975 0.7185125
vt 0.51614375 0.701075
vt 0.51741875 0.70441875
vt 0.50505 0.7195750000000001
vt 0.39114375 0.4942375
vt 0.376975 0.4768
vt 0.38005 0.47574375
vt 0.39241875 0.49089375
vt 0.52734375 0.75
vt 0.507075 0.740425
vt 0.5094625 0.73846875
vt 0.52734375 0.746875
vt 0.382075 0.4548875
vt 0.40234375 0.4453125
vt 0.40234375 0.44843750000000004
vt 0.3844625 0.45684375
vt 0.507075 0.740425
vt 0.501975 0.7185125
vt 0.50505 0.7195750000000001
vt 0.5094625 0.73846875
vt 0.376975 0.4768
vt 0.382075 0.4548875
vt 0.3844625 0.45684375
vt 0.38005 0.47574375
vt 0.3125 0.625
vt 0.25 0.625
vt 0.25 0.5625
vt 0.3125 0.5625
vt 0.1875 1
vt 0.125 1
vt 0.125 0.9375
vt 0.1875 0.9375
vt 0.3125 0.875
vt 0.25 0.875
vt 0.25 0.8125
vt 0.3125 0.8125
vt 0.4375 0.75
vt 0.375 0.75
vt 0.375 0.6875
vt 0.4375 0.6875
vt 0.3125 0.75
vt 0.25 0.75
vt 0.25 0.6875
vt 0.3125 0.6875
vt 0.5625 1
vt 0.5 1
vt 0.5 0.9375
vt 0.5625 0.9375
vt 0.1875 0.5
vt 0.125 0.5
vt 0.125 0.4375
vt 0.1875 0.4375
vn 0 -1 0
vn -0.20332694937563262 0 0.9791108985490862
vn 0 1 0
vn 0 -1 0
vn 0.6514780309039441 0 0.7586674997978494
vn 0 1 0
vn 0 -1 0
vn 0.9991875323591617 0 -0.040302297428428446
vn 0 1 0
vn 0 -1 0
vn 0.6061241333850036 0 -0.7953700616243224
vn 0 1 0
vn 0 -1 0
vn -0.2477915860681456 0 -0.9688133617337412
vn 0 1 0
vn 0 -1 0
vn -0.9186642411691206 0 -0.3950392537421617
vn 0 1 0
vn 0 -1 0
vn -0.8870108331782217 0 0.4617486132350339
vn 0 1 0
vn -0.8870108331782217 0 0.4617486132350339
vn -0.2012425883525617 0 0.9795414338521681
vn 0.6507513386808448 0 0.7592909160559531
vn 0.9992522261701876 0 -0.03866508106708944
vn 0.6048201111012516 0 -0.7963621244179495
vn -0.24871907230606363 0 -0.9685756671893071
vn -0.9178213746750967 0 -0.3969936072401117
vn 0 1 0
vn 0 -1 0
vn 0 1 0
vn 0 -1 0
vn 0 1 0
vn 0 -1 0
vn 0 1 0
vn 0 -1 0
vn 0 1 0
vn 0 -1 0
vn 0 1 0
vn 0 -1 0
vn 0 1 0
vn 0 -1 0
vn -0.20332694937563273 0 0.9791108985490862
vn -0.8870108331782217 0 0.4617486132350339
vn -0.24779158606814564 0 -0.9688133617337412
vn -0.9186642411691206 0 -0.3950392537421616
vn 0.6514780309039441 0 0.7586674997978494
vn 0.9991875323591617 0 -0.0403022974284284
vn 0.6061241333850036 0 -0.7953700616243224
usemtl m_2468dd69-9f92-6018-7b0a-e6c9f3cc4220
f 222/813/212 220/814/212 219/815/212
f 220/816/213 222/817/213 223/818/213 221/819/213
f 255/820/214 256/821/214 257/822/214
f 224/823/215 222/824/215 219/825/215
f 222/826/216 224/827/216 225/828/216 223/829/216
f 256/830/217 261/831/217 257/832/217
f 226/833/218 224/834/218 219/835/218
f 224/836/219 226/837/219 227/838/219 225/839/219
f 261/840/220 262/841/220 257/842/220
f 228/843/221 226/844/221 219/845/221
f 226/846/222 228/847/222 229/848/222 227/849/222
f 262/850/223 259/851/223 257/852/223
f 230/853/224 228/854/224 219/855/224
f 228/856/225 230/857/225 231/858/225 229/859/225
f 259/860/226 260/861/226 257/862/226
f 232/863/227 230/864/227 219/865/227
f 230/866/228 232/867/228 233/868/228 231/869/228
f 260/870/229 258/871/229 257/872/229
f 220/873/230 232/874/230 219/875/230
f 232/876/231 220/877/231 221/878/231 233/879/231
f 258/880/232 255/881/232 257/882/232
f 247/883/233 249/884/233 250/885/233 248/886/233
f 245/887/234 247/888/234 248/889/234 246/890/234
f 242/891/235 245/892/235 246/893/235 243/894/235
f 241/895/236 242/896/236 243/897/236 244/898/236
f 253/899/237 241/900/237 244/901/237 254/902/237
f 251/903/238 253/904/238 254/905/238 252/906/238
f 249/907/239 251/908/239 252/909/239 250/910/239
f 242/911/240 241/912/240 238/913/240 237/914/240
f 244/915/241 243/916/241 225/917/241 227/918/241
f 245/919/242 242/920/242 237/921/242 236/922/242
f 243/923/243 246/924/243 223/925/243 225/926/243
f 247/927/244 245/928/244 236/929/244 235/930/244
f 246/931/245 248/932/245 221/933/245 223/934/245
f 249/935/246 247/936/246 235/937/246 234/938/246
f 248/939/247 250/940/247 233/941/247 221/942/247
f 251/943/248 249/944/248 234/945/248 240/946/248
f 250/947/249 252/948/249 231/949/249 233/950/249
f 241/951/250 253/952/250 239/953/250 238/954/250
f 254/955/251 244/956/251 227/957/251 229/958/251
f 253/959/252 251/960/252 240/961/252 239/962/252
f 252/963/253 254/964/253 229/965/253 231/966/253
f 256/967/254 255/968/254 235/969/254 236/970/254
f 255/971/255 258/972/255 234/973/255 235/974/255
f 260/975/256 259/976/256 239/977/256 240/978/256
f 258/979/257 260/980/257 240/981/257 234/982/257
f 261/983/258 256/984/258 236/985/258 237/986/258
f 262/987/259 261/988/259 237/989/259 238/990/259
f 259/991/260 262/992/260 238/993/260 239/994/260