# Made in Blockbench 4.12.4
mtllib Datadrive.mtl

o cuboid
v 0.125 0.1875 0.1875
v 0.125 0.1875 -0.0625
v 0.125 0 0.1875
v 0.125 0 -0.0625
v -0.125 0.1875 0.1875
v -0.125 0.1875 -0.0625
v -0.125 0 0.1875
v -0.125 0 -0.0625
v 0.11875 0.178125 -0.0625
v 0.11875 0.009374999999999994 -0.0625
v -0.11875 0.178125 -0.0625
v -0.11875 0.009374999999999994 -0.0625
v 0.11875 0.178125 -0.125
v 0.11875 0.009374999999999994 -0.18750000000000006
v -0.11875 0.178125 -0.125
v -0.11875 0.009374999999999994 -0.18750000000000006
vt 0.5625 1
vt 0.3125 1
vt 0.3125 0.8125
vt 0.5625 0.8125
vt 0.5625 0.5625
vt 0.5625 0.75
vt 0.3125 0.75
vt 0.3125 0.5625
vt 0 0.75
vt 0.25 0.75
vt 0.25 1
vt 0 1
vt 0.25 0.4375
vt 0.25 0.6875
vt 0 0.6875
vt 0 0.4375
vt 0.5625 0.3125
vt 0.5625 0.5
vt 0.3125 0.5
vt 0.3125 0.3125
vt 0.875 1
vt 0.625 1
vt 0.625 0.8125
vt 0.875 0.8125
vt 0.0062500000000000056 0.365625
vt 0.24375 0.365625
vt 0.25 0.375
vt 0 0.375
vt 0.0062500000000000056 0.19687500000000002
vt 0.0062500000000000056 0.365625
vt 0 0.375
vt 0 0.1875
vt 0.24375 0.19687500000000002
vt 0.0062500000000000056 0.19687500000000002
vt 0 0.1875
vt 0.25 0.1875
vt 0.24375 0.365625
vt 0.24375 0.19687500000000002
vt 0.25 0.1875
vt 0.25 0.375
vt 0.5625 0.25
vt 0.3125 0.25
vt 0.3125 0.1875
vt 0.5625 0.1875
vt 0.75 0.375
vt 0.6875 0.5625
vt 0.625 0.5625
vt 0.625 0.375
vt 0.625 0.625
vt 0.875 0.625
vt 0.875 0.75
vt 0.625 0.75
vt 0.6875 0.3125
vt 0.625 0.125
vt 0.75 0.125
vt 0.75 0.3125
vn 1 0 0
vn -1 0 0
vn 0 1 0
vn 0 -1 0
vn 0 0 1
vn 0 0.3473143558235942 -0.9377487607237035
vn 0 0 -1
vn 0 0 -1
vn 0 0 -1
vn 0 0 -1
vn 0 1 0
vn 1 0 0
vn 0 -1 0
vn -1 0 0
usemtl m_98bd801e-e6d7-1269-7a1b-2dfd4cd77737
f 2/1/1 1/2/1 3/3/1 4/4/1
f 7/5/2 5/6/2 6/7/2 8/8/2
f 5/9/3 1/10/3 2/11/3 6/12/3
f 4/13/4 3/14/4 7/15/4 8/16/4
f 3/17/5 1/18/5 5/19/5 7/20/5
f 15/21/6 13/22/6 14/23/6 16/24/6
f 9/25/7 11/26/7 6/27/7 2/28/7
f 10/29/8 9/30/8 2/31/8 4/32/8
f 12/33/9 10/34/9 4/35/9 8/36/9
f 11/37/10 12/38/10 8/39/10 6/40/10
f 13/41/11 15/42/11 11/43/11 9/44/11
f 14/45/12 13/46/12 9/47/12 10/48/12
f 16/49/13 14/50/13 10/51/13 12/52/13
f 15/53/14 16/54/14 12/55/14 11/56/14