# Made in Blockbench 4.12.4
mtllib ElectricalBox.mtl

o ElectricalBox
v -0.5625 2.28125 0.3125
v -0.5624999999999999 1.84375 0.3125
v -0.6011751345948129 2.28125 0.375
v -0.6011751345948128 1.84375 0.375
v -0.6398502691896257 2.28125 0.3125
v -0.6398502691896257 1.84375 0.3125
v -0.6011751345948129 2.28125 0.25
v -0.6011751345948128 1.84375 0.25
v -0.5238248654051871 2.28125 0.25
v -0.523824865405187 1.84375 0.25
v -0.48514973081037427 2.28125 0.3125
v -0.4851497308103742 1.84375 0.3125
v -0.5238248654051871 2.28125 0.375
v -0.523824865405187 1.84375 0.375
v 0.125 1.875 0.375
v 0.125 1.875 0.1875
v 0.12499999999999989 1.375 0.375
v 0.12499999999999989 1.375 0.1875
v -0.6875 1.875 0.375
v -0.6875 1.875 0.1875
v -0.6875 1.375 0.375
v -0.6875 1.375 0.1875
v 0.625 1.5625 0.375
v 0.625 1.5625 0.1875
v 0.625 1.1875000000000002 0.375
v 0.625 1.1875000000000002 0.1875
v 0.3124999999999999 1.5625 0.375
v 0.3124999999999999 1.5625 0.1875
v 0.3124999999999999 1.1875 0.375
v 0.3124999999999999 1.1875 0.1875
v 0.3749999999999999 1.46875 0.3125
v -0.12500000000000006 1.46875 0.3125
v 0.3749999999999999 1.507425134594813 0.375
v -0.12500000000000006 1.5074251345948129 0.375
v 0.3749999999999999 1.5461002691896257 0.3125
v -0.125 1.5461002691896257 0.3125
v 0.3749999999999999 1.507425134594813 0.25
v -0.12500000000000006 1.5074251345948129 0.25
v 0.3749999999999999 1.4300748654051874 0.25
v -0.12500000000000006 1.4300748654051871 0.25
v 0.3749999999999999 1.3913997308103743 0.3125
v -0.12500000000000006 1.3913997308103743 0.3125
v 0.3749999999999999 1.4300748654051874 0.375
v -0.12500000000000006 1.4300748654051871 0.375
v -1.1102230246251565e-16 1.40625 0.3125
v 0 0.15625 0.3125
v -0.03867513459481298 1.40625 0.375
v -0.038675134594812866 0.15625 0.375
v -0.07735026918962584 1.40625 0.3125
v -0.07735026918962568 0.15625 0.3125
v -0.03867513459481298 1.40625 0.25
v -0.038675134594812866 0.15625 0.25
v 0.038675134594812755 1.40625 0.25
v 0.038675134594812866 0.15625 0.25
v 0.07735026918962562 1.40625 0.3125
v 0.07735026918962573 0.15625 0.3125
v 0.038675134594812755 1.40625 0.375
v 0.038675134594812866 0.15625 0.375
vt 0.36699375 0.65625
vt 0.357325 0.671875
vt 0.34765625 0.65625
vt 0.265625 0.5625
vt 0.28125 0.5625
vt 0.28125 0.671875
vt 0.265625 0.671875
vt 0.388575 0.875
vt 0.39824375 0.890625
vt 0.37890625 0.890625
vt 0.357325 0.640625
vt 0.36699375 0.65625
vt 0.34765625 0.65625
vt 0.28125 0.5625
vt 0.296875 0.5625
vt 0.296875 0.671875
vt 0.28125 0.671875
vt 0.39824375 0.890625
vt 0.388575 0.90625
vt 0.37890625 0.890625
vt 0.3379875 0.640625
vt 0.357325 0.640625
vt 0.34765625 0.65625
vt 0.234375 0.5625
vt 0.25 0.5625
vt 0.25 0.671875
vt 0.234375 0.671875
vt 0.388575 0.90625
vt 0.3692375 0.90625
vt 0.37890625 0.890625
vt 0.32831875 0.65625
vt 0.3379875 0.640625
vt 0.34765625 0.65625
vt 0.296875 0.5625
vt 0.3125 0.5625
vt 0.3125 0.671875
vt 0.296875 0.671875
vt 0.3692375 0.90625
vt 0.35956875 0.890625
vt 0.37890625 0.890625
vt 0.3379875 0.671875
vt 0.32831875 0.65625
vt 0.34765625 0.65625
vt 0.3125 0.5625
vt 0.328125 0.5625
vt 0.328125 0.671875
vt 0.3125 0.671875
vt 0.35956875 0.890625
vt 0.3692375 0.875
vt 0.37890625 0.890625
vt 0.357325 0.671875
vt 0.3379875 0.671875
vt 0.34765625 0.65625
vt 0.25 0.5625
vt 0.265625 0.5625
vt 0.265625 0.671875
vt 0.25 0.671875
vt 0.3692375 0.875
vt 0.388575 0.875
vt 0.37890625 0.890625
vt 0.046875 0.625
vt 0.09375 0.625
vt 0.09375 0.75
vt 0.046875 0.75
vt 0 0.75
vt 0 0.625
vt 0.046875 0.625
vt 0.046875 0.75
vt 0.40625 1
vt 0.203125 1
vt 0.203125 0.953125
vt 0.40625 0.953125
vt 0.203125 0.953125
vt 0.203125 0.90625
vt 0.40625 0.90625
vt 0.40625 0.953125
vt 0 1
vt 0 0.875
vt 0.203125 0.875
vt 0.203125 1
vt 0 0.75
vt 0.203125 0.75
vt 0.203125 0.875
vt 0 0.875
vt 0.1875 0.625
vt 0.234375 0.625
vt 0.234375 0.71875
vt 0.1875 0.71875
vt 0.28125 0.90625
vt 0.28125 0.8125
vt 0.328125 0.8125
vt 0.328125 0.90625
vt 0.359375 0.8125
vt 0.28125 0.8125
vt 0.28125 0.765625
vt 0.359375 0.765625
vt 0.234375 0.71875
vt 0.234375 0.671875
vt 0.3125 0.671875
vt 0.3125 0.71875
vt 0.203125 0.90625
vt 0.203125 0.8125
vt 0.28125 0.8125
vt 0.28125 0.90625
vt 0.203125 0.71875
vt 0.28125 0.71875
vt 0.28125 0.8125
vt 0.203125 0.8125
vt 0.34375 0.867575
vt 0.359375 0.87724375
vt 0.34375 0.8869125
vt 0.3125 0.6875
vt 0.3125 0.671875
vt 0.4375 0.671875
vt 0.4375 0.6875
vt 0.328125 0.83036875
vt 0.34375 0.8207
vt 0.34375 0.8400375
vt 0.328125 0.87724375
vt 0.34375 0.867575
vt 0.34375 0.8869125
vt 0.40625 0.71875
vt 0.40625 0.734375
vt 0.28125 0.734375
vt 0.28125 0.71875
vt 0.34375 0.8207
vt 0.359375 0.83036875
vt 0.34375 0.8400375
vt 0.328125 0.89658125
vt 0.328125 0.87724375
vt 0.34375 0.8869125
vt 0.40625 0.75
vt 0.40625 0.765625
vt 0.28125 0.765625
vt 0.28125 0.75
vt 0.359375 0.83036875
vt 0.359375 0.84970625
vt 0.34375 0.8400375
vt 0.34375 0.90625
vt 0.328125 0.89658125
vt 0.34375 0.8869125
vt 0.4375 0.703125
vt 0.4375 0.71875
vt 0.3125 0.71875
vt 0.3125 0.703125
vt 0.359375 0.84970625
vt 0.34375 0.859375
vt 0.34375 0.8400375
vt 0.359375 0.89658125
vt 0.34375 0.90625
vt 0.34375 0.8869125
vt 0.3125 0.703125
vt 0.3125 0.6875
vt 0.4375 0.6875
vt 0.4375 0.703125
vt 0.34375 0.859375
vt 0.328125 0.84970625
vt 0.34375 0.8400375
vt 0.359375 0.87724375
vt 0.359375 0.89658125
vt 0.34375 0.8869125
vt 0.28125 0.75
vt 0.28125 0.734375
vt 0.40625 0.734375
vt 0.40625 0.75
vt 0.328125 0.84970625
vt 0.328125 0.83036875
vt 0.34375 0.8400375
vt 0.39824375 0.859375
vt 0.388575 0.875
vt 0.37890625 0.859375
vt 0.125 0.4375
vt 0.140625 0.4375
vt 0.140625 0.75
vt 0.125 0.75
vt 0.388575 0.8125
vt 0.39824375 0.828125
vt 0.37890625 0.828125
vt 0.388575 0.84375
vt 0.39824375 0.859375
vt 0.37890625 0.859375
vt 0.140625 0.4375
vt 0.15625 0.4375
vt 0.15625 0.75
vt 0.140625 0.75
vt 0.39824375 0.828125
vt 0.388575 0.84375
vt 0.37890625 0.828125
vt 0.3692375 0.84375
vt 0.388575 0.84375
vt 0.37890625 0.859375
vt 0.09375 0.4375
vt 0.109375 0.4375
vt 0.109375 0.75
vt 0.09375 0.75
vt 0.388575 0.84375
vt 0.3692375 0.84375
vt 0.37890625 0.828125
vt 0.35956875 0.859375
vt 0.3692375 0.84375
vt 0.37890625 0.859375
vt 0.15625 0.4375
vt 0.171875 0.4375
vt 0.171875 0.75
vt 0.15625 0.75
vt 0.3692375 0.84375
vt 0.35956875 0.828125
vt 0.37890625 0.828125
vt 0.3692375 0.875
vt 0.35956875 0.859375
vt 0.37890625 0.859375
vt 0.171875 0.4375
vt 0.1875 0.4375
vt 0.1875 0.75
vt 0.171875 0.75
vt 0.35956875 0.828125
vt 0.3692375 0.8125
vt 0.37890625 0.828125
vt 0.388575 0.875
vt 0.3692375 0.875
vt 0.37890625 0.859375
vt 0.109375 0.4375
vt 0.125 0.4375
vt 0.125 0.75
vt 0.109375 0.75
vt 0.3692375 0.8125
vt 0.388575 0.8125
vt 0.37890625 0.828125
vn -1.2246467991473532e-16 1 0
vn -0.850358550187806 -1.0413888766150806e-16 0.5262037021178135
vn 1.2246467991473532e-16 -1 0
vn -1.2246467991473532e-16 1 0
vn -0.850358550187806 -1.0413888766150806e-16 -0.5262037021178134
vn 1.2246467991473532e-16 -1 0
vn -1.2246467991473532e-16 1 0
vn 8.97074305830325e-17 1.0985991772324413e-32 -1
vn 1.2246467991473532e-16 -1 0
vn -1.2246467991473532e-16 1 0
vn 0.850358550187806 1.0413888766150806e-16 -0.5262037021178134
vn 1.2246467991473532e-16 -1 0
vn -1.2246467991473532e-16 1 0
vn 0.8503585501878063 1.0413888766150808e-16 0.5262037021178131
vn 1.2246467991473532e-16 -1 0
vn -1.2246467991473532e-16 1 0
vn 2.691222917490974e-16 3.295797531697323e-32 1
vn 1.2246467991473532e-16 -1 0
vn 1 -9.957992501029599e-17 0
vn -1 -1.2246467991473532e-16 0
vn -1.2246467991473532e-16 1 0
vn 1.2246467991473532e-16 -1 0
vn 0 0 1
vn 0 0 -1
vn 1 -4.696542665520148e-16 0
vn -1 -1.2246467991473532e-16 0
vn -1.2246467991473532e-16 1 0
vn 1.2246467991473532e-16 -1 0
vn 0 0 1
vn 0 0 -1
vn 1 1.2246467991473532e-16 0
vn -1.0413888766150808e-16 0.8503585501878063 0.5262037021178134
vn -1 5.951947647495247e-16 -4.440892098500626e-16
vn 1 1.2246467991473532e-16 0
vn -1.0413888766150807e-16 0.8503585501878062 -0.5262037021178133
vn -1 5.951947647495247e-16 4.440892098500626e-16
vn 1 1.2246467991473532e-16 0
vn 0 0 -1
vn -1 -1.2246467991473532e-16 0
vn 1 1.2246467991473532e-16 0
vn 1.0413888766150807e-16 -0.8503585501878062 -0.5262037021178133
vn -1 -1.2246467991473532e-16 0
vn 1 1.2246467991473532e-16 0
vn 1.0413888766150807e-16 -0.8503585501878062 0.5262037021178133
vn -1 -1.2246467991473532e-16 0
vn 1 1.2246467991473532e-16 0
vn 0 0 1
vn -1 -1.2246467991473532e-16 0
vn -1.2246467991473532e-16 1 0
vn -0.8503585501878063 -1.0413888766150808e-16 0.5262037021178134
vn 1.2246467991473532e-16 -1 0
vn -1.2246467991473532e-16 1 0
vn -0.8503585501878063 -1.0413888766150808e-16 -0.5262037021178134
vn 1.2246467991473532e-16 -1 0
vn -1.2246467991473532e-16 1 0
vn 0 0 -1
vn 1.2246467991473532e-16 -1 0
vn -1.2246467991473532e-16 1 0
vn 0.8503585501878063 1.0413888766150808e-16 -0.5262037021178134
vn 1.2246467991473532e-16 -1 0
vn -1.2246467991473532e-16 1 0
vn 0.8503585501878063 1.0413888766150808e-16 0.5262037021178134
vn 1.2246467991473532e-16 -1 0
vn -1.2246467991473532e-16 1 0
vn 0 0 1
vn 1.2246467991473532e-16 -1 0
usemtl m_9a11f5f0-22b5-cd74-094b-03dd87601afd
f 5/1/1 3/2/1 1/3/1
f 3/4/2 5/5/2 6/6/2 4/7/2
f 4/8/3 6/9/3 2/10/3
f 7/11/4 5/12/4 1/13/4
f 5/14/5 7/15/5 8/16/5 6/17/5
f 6/18/6 8/19/6 2/20/6
f 9/21/7 7/22/7 1/23/7
f 7/24/8 9/25/8 10/26/8 8/27/8
f 8/28/9 10/29/9 2/30/9
f 11/31/10 9/32/10 1/33/10
f 9/34/11 11/35/11 12/36/11 10/37/11
f 10/38/12 12/39/12 2/40/12
f 13/41/13 11/42/13 1/43/13
f 11/44/14 13/45/14 14/46/14 12/47/14
f 12/48/15 14/49/15 2/50/15
f 3/51/16 13/52/16 1/53/16
f 13/54/17 3/55/17 4/56/17 14/57/17
f 14/58/18 4/59/18 2/60/18
f 16/61/19 15/62/19 17/63/19 18/64/19
f 21/65/20 19/66/20 20/67/20 22/68/20
f 19/69/21 15/70/21 16/71/21 20/72/21
f 18/73/22 17/74/22 21/75/22 22/76/22
f 17/77/23 15/78/23 19/79/23 21/80/23
f 20/81/24 16/82/24 18/83/24 22/84/24
f 24/85/25 23/86/25 25/87/25 26/88/25
f 29/89/26 27/90/26 28/91/26 30/92/26
f 27/93/27 23/94/27 24/95/27 28/96/27
f 26/97/28 25/98/28 29/99/28 30/100/28
f 25/101/29 23/102/29 27/103/29 29/104/29
f 28/105/30 24/106/30 26/107/30 30/108/30
f 35/109/31 33/110/31 31/111/31
f 33/112/32 35/113/32 36/114/32 34/115/32
f 34/116/33 36/117/33 32/118/33
f 37/119/34 35/120/34 31/121/34
f 35/122/35 37/123/35 38/124/35 36/125/35
f 36/126/36 38/127/36 32/128/36
f 39/129/37 37/130/37 31/131/37
f 37/132/38 39/133/38 40/134/38 38/135/38
f 38/136/39 40/137/39 32/138/39
f 41/139/40 39/140/40 31/141/40
f 39/142/41 41/143/41 42/144/41 40/145/41
f 40/146/42 42/147/42 32/148/42
f 43/149/43 41/150/43 31/151/43
f 41/152/44 43/153/44 44/154/44 42/155/44
f 42/156/45 44/157/45 32/158/45
f 33/159/46 43/160/46 31/161/46
f 43/162/47 33/163/47 34/164/47 44/165/47
f 44/166/48 34/167/48 32/168/48
f 49/169/49 47/170/49 45/171/49
f 47/172/50 49/173/50 50/174/50 48/175/50
f 48/176/51 50/177/51 46/178/51
f 51/179/52 49/180/52 45/181/52
f 49/182/53 51/183/53 52/184/53 50/185/53
f 50/186/54 52/187/54 46/188/54
f 53/189/55 51/190/55 45/191/55
f 51/192/56 53/193/56 54/194/56 52/195/56
f 52/196/57 54/197/57 46/198/57
f 55/199/58 53/200/58 45/201/58
f 53/202/59 55/203/59 56/204/59 54/205/59
f 54/206/60 56/207/60 46/208/60
f 57/209/61 55/210/61 45/211/61
f 55/212/62 57/213/62 58/214/62 56/215/62
f 56/216/63 58/217/63 46/218/63
f 47/219/64 57/220/64 45/221/64
f 57/222/65 47/223/65 48/224/65 58/225/65
f 58/226/66 48/227/66 46/228/66