# Made in Blockbench 4.12.4
mtllib Kitchen.mtl

o cuboid
v 0.8125 0.875 0.3125
v 0.8125 0.875 -0.5625
v 0.8125 0 0.3125
v 0.8125 0 -0.5625
v -0.8125 0.875 0.3125
v -0.8125 0.875 -0.5625
v -0.8125 0 0.3125
v -0.8125 0 -0.5625
v 0 0.875 0.3125
v 0 0.875 -0.5625
v 0 0 -0.5625
v 0 0 0.3125
v -0.734375 0.875 0.09375
v -0.078125 0.875 0.09375
v -0.078125 0.875 -0.46875
v -0.734375 0.875 -0.46875
v -0.734375 0.625 0.09375
v -0.078125 0.625 0.09375
v -0.078125 0.625 -0.46875
v -0.734375 0.625 -0.46875
v 0.734375 0.875 -0.34375
v 0.078125 0.875 0.21875
v 0.078125 0.875 -0.34375
v 0.734375 0.875 0.21875
v 0.734375 0.9062500000000001 -0.34375
v 0.078125 0.9062500000000001 0.21875
v 0.078125 0.9062500000000001 -0.34375
v 0.734375 0.9062500000000001 0.21875
v 0.625 0.84375 -0.4375
v 0.625 0.90625 -0.4375
v 0.6480501345948129 0.84375 -0.39375
v 0.6480501345948129 0.90625 -0.39375
v 0.6711002691896257 0.84375 -0.4375
v 0.6711002691896257 0.90625 -0.4375
v 0.6480501345948129 0.84375 -0.48125
v 0.6480501345948129 0.90625 -0.48125
v 0.6019498654051871 0.84375 -0.48125
v 0.6019498654051871 0.90625 -0.48125
v 0.5788997308103743 0.84375 -0.4375
v 0.5788997308103743 0.90625 -0.4375
v 0.6019498654051871 0.84375 -0.39375000000000004
v 0.6019498654051871 0.90625 -0.39375000000000004
v 0.5 0.84375 -0.4375
v 0.5 0.90625 -0.4375
v 0.5230501345948129 0.84375 -0.39375
v 0.5230501345948129 0.90625 -0.39375
v 0.5461002691896257 0.84375 -0.4375
v 0.5461002691896257 0.90625 -0.4375
v 0.5230501345948129 0.84375 -0.48125
v 0.5230501345948129 0.90625 -0.48125
v 0.47694986540518713 0.84375 -0.48125
v 0.47694986540518713 0.90625 -0.48125
v 0.45389973081037427 0.84375 -0.4375
v 0.45389973081037427 0.90625 -0.4375
v 0.47694986540518713 0.84375 -0.39375000000000004
v 0.47694986540518713 0.90625 -0.39375000000000004
v 0.3125 0.84375 -0.4375
v 0.3125 0.90625 -0.4375
v 0.33555013459481287 0.84375 -0.39375
v 0.33555013459481287 0.90625 -0.39375
v 0.35860026918962573 0.84375 -0.4375
v 0.35860026918962573 0.90625 -0.4375
v 0.33555013459481287 0.84375 -0.48125
v 0.33555013459481287 0.90625 -0.48125
v 0.28944986540518713 0.84375 -0.48125
v 0.28944986540518713 0.90625 -0.48125
v 0.26639973081037427 0.84375 -0.4375
v 0.26639973081037427 0.90625 -0.4375
v 0.28944986540518713 0.84375 -0.39375000000000004
v 0.28944986540518713 0.90625 -0.39375000000000004
v -0.25 0.8749999999999999 0.1875
v -0.25 0.9374999999999999 0.1875
v -0.22694986540518713 0.8749999999999999 0.23125
v -0.22694986540518713 0.9374999999999999 0.23125
v -0.20389973081037427 0.8749999999999999 0.1875
v -0.20389973081037427 0.9374999999999999 0.1875
v -0.22694986540518713 0.8749999999999999 0.14375
v -0.22694986540518713 0.9374999999999999 0.14375
v -0.27305013459481287 0.8749999999999999 0.14375000000000004
v -0.27305013459481287 0.9374999999999999 0.14375000000000004
v -0.29610026918962573 0.8749999999999999 0.1875
v -0.29610026918962573 0.9374999999999999 0.1875
v -0.27305013459481287 0.8749999999999999 0.23124999999999996
v -0.27305013459481287 0.9374999999999999 0.23124999999999996
v -0.5 0.875 0.1875
v -0.5 0.9375 0.1875
v -0.47694986540518713 0.875 0.23125
v -0.47694986540518713 0.9375 0.23125
v -0.45389973081037427 0.875 0.1875
v -0.45389973081037427 0.9375 0.1875
v -0.47694986540518713 0.875 0.14375
v -0.47694986540518713 0.9375 0.14375
v -0.5230501345948129 0.875 0.14375000000000004
v -0.5230501345948129 0.9375 0.14375000000000004
v -0.5461002691896257 0.875 0.1875
v -0.5461002691896257 0.9375 0.1875
v -0.5230501345948129 0.875 0.23124999999999996
v -0.5230501345948129 0.9375 0.23124999999999996
v 0.1875 0.84375 -0.4375
v 0.1875 0.90625 -0.4375
v 0.21055013459481287 0.84375 -0.39375
v 0.21055013459481287 0.90625 -0.39375
v 0.23360026918962573 0.84375 -0.4375
v 0.23360026918962573 0.90625 -0.4375
v 0.21055013459481287 0.84375 -0.48125
v 0.21055013459481287 0.90625 -0.48125
v 0.16444986540518713 0.84375 -0.48125
v 0.16444986540518713 0.90625 -0.48125
v 0.14139973081037427 0.84375 -0.4375
v 0.14139973081037427 0.90625 -0.4375
v 0.1644498654051871 0.84375 -0.39375000000000004
v 0.1644498654051871 0.90625 -0.39375000000000004
v -0.375 0.875 0.18749999999999994
v -0.36205582617584076 0.875 0.21874999999999994
v -0.36205582617584076 1.125 0.21874999999999994
v -0.34375 0.875 0.20044417382415913
v -0.34375 1.125 0.20044417382415913
v -0.34375 0.875 0.17455582617584076
v -0.34375 1.125 0.17455582617584076
v -0.36205582617584076 0.875 0.15624999999999994
v -0.36205582617584076 1.125 0.15624999999999994
v -0.38794417382415913 0.875 0.15624999999999994
v -0.38794417382415913 1.125 0.15624999999999994
v -0.40625 0.875 0.1745558261758407
v -0.40625 1.125 0.1745558261758407
v -0.40625 0.875 0.2004441738241592
v -0.40625 1.125 0.2004441738241592
v -0.38794417382415924 0.875 0.21874999999999994
v -0.38794417382415924 1.125 0.21874999999999994
v -0.3620558261758411 1.0750000000000006 0.0124999999999994
v -0.362055826175841 1.1374999999999993 0.012499999999999234
v -0.34375000000000044 1.0750000000000002 -0.005805826175840995
v -0.34375000000000044 1.1374999999999997 -0.005805826175840995
v -0.34375000000000044 1.0750000000000006 -0.03169417382415904
v -0.34375000000000044 1.1374999999999993 -0.03169417382415893
v -0.3620558261758411 1.0750000000000006 -0.04999999999999974
v -0.362055826175841 1.137499999999999 -0.04999999999999957
v -0.3879441738241589 1.0750000000000006 -0.04999999999999974
v -0.3879441738241589 1.137499999999999 -0.04999999999999957
v -0.40624999999999944 1.0750000000000006 -0.03169417382415904
v -0.40624999999999944 1.1374999999999993 -0.03169417382415915
v -0.40624999999999956 1.0750000000000002 -0.005805826175840995
v -0.40624999999999956 1.1374999999999997 -0.005805826175840995
v -0.3879441738241589 1.0750000000000006 0.0124999999999994
v -0.387944173824159 1.1374999999999993 0.012499999999999234
v -0.36205582617584076 1.2187500000000004 0.12500000000000006
v -0.36205582617584076 1.2187500000000004 0.03125000000000008
v -0.34375 1.2004441738241596 0.12500000000000006
v -0.34375 1.2004441738241596 0.03125000000000008
v -0.34375 1.174555826175841 0.12500000000000006
v -0.34375 1.1745558261758413 0.03125000000000008
v -0.36205582617584076 1.1562500000000004 0.12500000000000006
v -0.36205582617584076 1.1562500000000004 0.03125000000000008
v -0.38794417382415913 1.1562500000000004 0.12500000000000006
v -0.38794417382415913 1.1562500000000004 0.03125000000000008
v -0.40625 1.174555826175841 0.12500000000000006
v -0.40625 1.174555826175841 0.03125000000000008
v -0.40625 1.2004441738241596 0.12500000000000006
v -0.40625 1.2004441738241596 0.03125000000000008
v -0.38794417382415924 1.2187500000000004 0.12500000000000006
v -0.38794417382415924 1.2187500000000004 0.03125000000000008
v -0.375 1.1375000000000006 -0.018749999999999933
v -0.36205582617584076 1.1906250000000003 0.190625
v -0.38794417382415924 1.1906250000000003 0.190625
v -0.40625 1.1778109216769117 0.17781092167691148
v -0.40625 1.1596890783230887 0.15968907832308854
v -0.38794417382415913 1.146875 0.14687499999999998
v -0.36205582617584076 1.146875 0.14687499999999998
v -0.34375 1.1596890783230887 0.15968907832308854
v -0.34375 1.1778109216769117 0.17781092167691148
v -0.38794417382415913 1.1906249999999998 -0.028124999999999734
v -0.36205582617584087 1.1906249999999998 -0.028124999999999734
v -0.3437500000000002 1.1796415042944952 -0.015310921676911254
v -0.3437500000000002 1.1641084957055046 0.00281092167691141
v -0.36205582617584087 1.1531249999999997 0.015624999999999667
v -0.38794417382415913 1.1531249999999997 0.015624999999999667
v -0.4062499999999998 1.1641084957055043 0.00281092167691141
v -0.4062499999999998 1.1796415042944952 -0.015310921676911393
vt 0.21875 0.53125
vt 0 0.53125
vt 0 0.3125
vt 0.21875 0.3125
vt 0.453125 0.3125
vt 0.453125 0.53125
vt 0.234375 0.53125
vt 0.234375 0.3125
vt 0.640625 0.53125
vt 0.46875 0.53125
vt 0.46875 0.390625
vt 0.640625 0.390625
vt 0.40625 1
vt 0.203125 1
vt 0.203125 0.78125
vt 0.40625 0.78125
vt 0.40625 0.765625
vt 0.203125 0.765625
vt 0.203125 0.546875
vt 0.40625 0.546875
vt 0.421875 0.78125
vt 0.625 0.78125
vt 0.625 1
vt 0.421875 1
vt 0.46875 0.234375
vt 0.640625 0.234375
vt 0.640625 0.375
vt 0.46875 0.375
vt 0.828125 1
vt 0.625 1
vt 0.625 0.78125
vt 0.828125 0.78125
vt 0 0.78125
vt 0.203125 0.78125
vt 0.203125 1
vt 0 1
vt 0 0.546875
vt 0.203125 0.546875
vt 0.203125 0.765625
vt 0 0.765625
vt 0.60546875 0.6015625
vt 0.44140625 0.6015625
vt 0.421875 0.546875
vt 0.625 0.546875
vt 0.60546875 0.7421875
vt 0.60546875 0.6015625
vt 0.625 0.546875
vt 0.625 0.765625
vt 0.44140625 0.7421875
vt 0.60546875 0.7421875
vt 0.625 0.765625
vt 0.421875 0.765625
vt 0.44140625 0.6015625
vt 0.44140625 0.7421875
vt 0.421875 0.765625
vt 0.421875 0.546875
vt 0.65625 0.46875
vt 0.828125 0.46875
vt 0.828125 0.53125
vt 0.65625 0.53125
vt 0.65625 0.3125
vt 0.796875 0.3125
vt 0.796875 0.375
vt 0.65625 0.375
vt 0.65625 0.390625
vt 0.828125 0.390625
vt 0.828125 0.453125
vt 0.65625 0.453125
vt 0 0.234375
vt 0.140625 0.234375
vt 0.140625 0.296875
vt 0 0.296875
vt 0.64453125 0.7109375
vt 0.80859375 0.7109375
vt 0.828125 0.765625
vt 0.625 0.765625
vt 0.64453125 0.5703125
vt 0.64453125 0.7109375
vt 0.625 0.765625
vt 0.625 0.546875
vt 0.80859375 0.5703125
vt 0.64453125 0.5703125
vt 0.625 0.546875
vt 0.828125 0.546875
vt 0.80859375 0.7109375
vt 0.80859375 0.5703125
vt 0.828125 0.546875
vt 0.828125 0.765625
vt 0.328125 0.296875
vt 0.15625 0.296875
vt 0.15625 0.28125
vt 0.328125 0.28125
vt 0.296875 0.265625
vt 0.15625 0.265625
vt 0.15625 0.25
vt 0.296875 0.25
vt 0.828125 0.296875
vt 0.65625 0.296875
vt 0.65625 0.28125
vt 0.828125 0.28125
vt 0.453125 0.265625
vt 0.3125 0.265625
vt 0.3125 0.25
vt 0.453125 0.25
vt 0.07011875 0.20625000000000004
vt 0.06435625 0.21718749999999998
vt 0.05859375 0.20625000000000004
vt 0.6875 0.171875
vt 0.703125 0.171875
vt 0.703125 0.1875
vt 0.6875 0.1875
vt 0.11123125 0.19687500000000002
vt 0.11699375 0.20781249999999996
vt 0.10546875 0.20781249999999996
vt 0.06435625 0.1953125
vt 0.07011875 0.20625000000000004
vt 0.05859375 0.20625000000000004
vt 0.71875 0.171875
vt 0.734375 0.171875
vt 0.734375 0.1875
vt 0.71875 0.1875
vt 0.11699375 0.20781249999999996
vt 0.11123125 0.21875
vt 0.10546875 0.20781249999999996
vt 0.05283125000000001 0.1953125
vt 0.06435625 0.1953125
vt 0.05859375 0.20625000000000004
vt 0.421875 0.28125
vt 0.4375 0.28125
vt 0.4375 0.296875
vt 0.421875 0.296875
vt 0.11123125 0.21875
vt 0.09970625000000001 0.21875
vt 0.10546875 0.20781249999999996
vt 0.047068750000000006 0.20625000000000004
vt 0.05283125000000001 0.1953125
vt 0.05859375 0.20625000000000004
vt 0.75 0.171875
vt 0.765625 0.171875
vt 0.765625 0.1875
vt 0.75 0.1875
vt 0.09970625000000001 0.21875
vt 0.09394375 0.20781249999999996
vt 0.10546875 0.20781249999999996
vt 0.05283125000000001 0.21718749999999998
vt 0.047068750000000006 0.20625000000000004
vt 0.05859375 0.20625000000000004
vt 0.84375 0.890625
vt 0.859375 0.890625
vt 0.859375 0.90625
vt 0.84375 0.90625
vt 0.09394375 0.20781249999999996
vt 0.09970625000000001 0.19687500000000002
vt 0.10546875 0.20781249999999996
vt 0.06435625 0.21718749999999998
vt 0.05283125000000001 0.21718749999999998
vt 0.05859375 0.20625000000000004
vt 0.3125 0.171875
vt 0.328125 0.171875
vt 0.328125 0.1875
vt 0.3125 0.1875
vt 0.09970625000000001 0.19687500000000002
vt 0.11123125 0.19687500000000002
vt 0.10546875 0.20781249999999996
vt 0.33574375 0.22187500000000004
vt 0.32998125 0.23281249999999998
vt 0.32421875 0.22187500000000004
vt 0.8125 0.1875
vt 0.828125 0.1875
vt 0.828125 0.203125
vt 0.8125 0.203125
vt 0.37685625 0.21250000000000002
vt 0.38261875 0.22343749999999996
vt 0.37109375 0.22343749999999996
vt 0.32998125 0.2109375
vt 0.33574375 0.22187500000000004
vt 0.32421875 0.22187500000000004
vt 0 0.15625
vt 0.015625 0.15625
vt 0.015625 0.171875
vt 0 0.171875
vt 0.38261875 0.22343749999999996
vt 0.37685625 0.234375
vt 0.37109375 0.22343749999999996
vt 0.31845625 0.2109375
vt 0.32998125 0.2109375
vt 0.32421875 0.22187500000000004
vt 0.609375 0.203125
vt 0.625 0.203125
vt 0.625 0.21875
vt 0.609375 0.21875
vt 0.37685625 0.234375
vt 0.36533125 0.234375
vt 0.37109375 0.22343749999999996
vt 0.31269375 0.22187500000000004
vt 0.31845625 0.2109375
vt 0.32421875 0.22187500000000004
vt 0.03125 0.15625
vt 0.046875 0.15625
vt 0.046875 0.171875
vt 0.03125 0.171875
vt 0.36533125 0.234375
vt 0.35956875 0.22343749999999996
vt 0.37109375 0.22343749999999996
vt 0.31845625 0.23281249999999998
vt 0.31269375 0.22187500000000004
vt 0.32421875 0.22187500000000004
vt 0.84375 0.859375
vt 0.859375 0.859375
vt 0.859375 0.875
vt 0.84375 0.875
vt 0.35956875 0.22343749999999996
vt 0.36533125 0.21250000000000002
vt 0.37109375 0.22343749999999996
vt 0.32998125 0.23281249999999998
vt 0.31845625 0.23281249999999998
vt 0.32421875 0.22187500000000004
vt 0.34375 0.171875
vt 0.359375 0.171875
vt 0.359375 0.1875
vt 0.34375 0.1875
vt 0.36533125 0.21250000000000002
vt 0.37685625 0.21250000000000002
vt 0.37109375 0.22343749999999996
vt 0.42949375 0.22187500000000004
vt 0.42373125 0.23281249999999998
vt 0.41796875 0.22187500000000004
vt 0.0625 0.15625
vt 0.078125 0.15625
vt 0.078125 0.171875
vt 0.0625 0.171875
vt 0.70498125 0.21250000000000002
vt 0.71074375 0.22343749999999996
vt 0.69921875 0.22343749999999996
vt 0.42373125 0.2109375
vt 0.42949375 0.22187500000000004
vt 0.41796875 0.22187500000000004
vt 0.09375 0.15625
vt 0.109375 0.15625
vt 0.109375 0.171875
vt 0.09375 0.171875
vt 0.71074375 0.22343749999999996
vt 0.70498125 0.234375
vt 0.69921875 0.22343749999999996
vt 0.41220625 0.2109375
vt 0.42373125 0.2109375
vt 0.41796875 0.22187500000000004
vt 0.78125 0.1875
vt 0.796875 0.1875
vt 0.796875 0.203125
vt 0.78125 0.203125
vt 0.70498125 0.234375
vt 0.69345625 0.234375
vt 0.69921875 0.22343749999999996
vt 0.40644375 0.22187500000000004
vt 0.41220625 0.2109375
vt 0.41796875 0.22187500000000004
vt 0.125 0.15625
vt 0.140625 0.15625
vt 0.140625 0.171875
vt 0.125 0.171875
vt 0.69345625 0.234375
vt 0.68769375 0.22343749999999996
vt 0.69921875 0.22343749999999996
vt 0.41220625 0.23281249999999998
vt 0.40644375 0.22187500000000004
vt 0.41796875 0.22187500000000004
vt 0.84375 0.828125
vt 0.859375 0.828125
vt 0.859375 0.84375
vt 0.84375 0.84375
vt 0.68769375 0.22343749999999996
vt 0.69345625 0.21250000000000002
vt 0.69921875 0.22343749999999996
vt 0.42373125 0.23281249999999998
vt 0.41220625 0.23281249999999998
vt 0.41796875 0.22187500000000004
vt 0.375 0.171875
vt 0.390625 0.171875
vt 0.390625 0.1875
vt 0.375 0.1875
vt 0.69345625 0.21250000000000002
vt 0.70498125 0.21250000000000002
vt 0.69921875 0.22343749999999996
vt 0.52324375 0.64375
vt 0.51748125 0.6546875
vt 0.51171875 0.64375
vt 0.546875 0.15625
vt 0.5625 0.15625
vt 0.5625 0.171875
vt 0.546875 0.171875
vt 0.68935625 0.603125
vt 0.69511875 0.6140625
vt 0.68359375 0.6140625
vt 0.51748125 0.6328125
vt 0.52324375 0.64375
vt 0.51171875 0.64375
vt 0.578125 0.15625
vt 0.59375 0.15625
vt 0.59375 0.171875
vt 0.578125 0.171875
vt 0.69511875 0.6140625
vt 0.68935625 0.625
vt 0.68359375 0.6140625
vt 0.50595625 0.6328125
vt 0.51748125 0.6328125
vt 0.51171875 0.64375
vt 0.40625 0.171875
vt 0.421875 0.171875
vt 0.421875 0.1875
vt 0.40625 0.1875
vt 0.68935625 0.625
vt 0.67783125 0.625
vt 0.68359375 0.6140625
vt 0.50019375 0.64375
vt 0.50595625 0.6328125
vt 0.51171875 0.64375
vt 0.84375 0.796875
vt 0.859375 0.796875
vt 0.859375 0.8125
vt 0.84375 0.8125
vt 0.67783125 0.625
vt 0.67206875 0.6140625
vt 0.68359375 0.6140625
vt 0.50595625 0.6546875
vt 0.50019375 0.64375
vt 0.51171875 0.64375
vt 0.21875 0.140625
vt 0.234375 0.140625
vt 0.234375 0.15625
vt 0.21875 0.15625
vt 0.67206875 0.6140625
vt 0.67783125 0.603125
vt 0.68359375 0.6140625
vt 0.51748125 0.6546875
vt 0.50595625 0.6546875
vt 0.51171875 0.64375
vt 0.609375 0.171875
vt 0.625 0.171875
vt 0.625 0.1875
vt 0.609375 0.1875
vt 0.67783125 0.603125
vt 0.68935625 0.603125
vt 0.68359375 0.6140625
vt 0.24199375 0.22187500000000004
vt 0.23623125 0.23281249999999998
vt 0.23046875 0.22187500000000004
vt 0.828125 0.25
vt 0.84375 0.25
vt 0.84375 0.265625
vt 0.828125 0.265625
vt 0.28310625 0.21250000000000002
vt 0.28886875 0.22343749999999996
vt 0.27734375 0.22343749999999996
vt 0.23623125 0.2109375
vt 0.24199375 0.22187500000000004
vt 0.23046875 0.22187500000000004
vt 0.78125 0.15625
vt 0.796875 0.15625
vt 0.796875 0.171875
vt 0.78125 0.171875
vt 0.28886875 0.22343749999999996
vt 0.28310625 0.234375
vt 0.27734375 0.22343749999999996
vt 0.22470625 0.2109375
vt 0.23623125 0.2109375
vt 0.23046875 0.22187500000000004
vt 0.8125 0.359375
vt 0.828125 0.359375
vt 0.828125 0.375
vt 0.8125 0.375
vt 0.28310625 0.234375
vt 0.27158125 0.234375
vt 0.27734375 0.22343749999999996
vt 0.21894375 0.22187500000000004
vt 0.22470625 0.2109375
vt 0.23046875 0.22187500000000004
vt 0.84375 0.765625
vt 0.859375 0.765625
vt 0.859375 0.78125
vt 0.84375 0.78125
vt 0.27158125 0.234375
vt 0.26581875 0.22343749999999996
vt 0.27734375 0.22343749999999996
vt 0.22470625 0.23281249999999998
vt 0.21894375 0.22187500000000004
vt 0.23046875 0.22187500000000004
vt 0.25 0.140625
vt 0.265625 0.140625
vt 0.265625 0.15625
vt 0.25 0.15625
vt 0.26581875 0.22343749999999996
vt 0.27158125 0.21250000000000002
vt 0.27734375 0.22343749999999996
vt 0.23623125 0.23281249999999998
vt 0.22470625 0.23281249999999998
vt 0.23046875 0.22187500000000004
vt 0.8125 0.328125
vt 0.828125 0.328125
vt 0.828125 0.34375
vt 0.8125 0.34375
vt 0.27158125 0.21250000000000002
vt 0.28310625 0.21250000000000002
vt 0.27734375 0.22343749999999996
vt 0.75761875 0.22187500000000004
vt 0.75185625 0.23281249999999998
vt 0.74609375 0.22187500000000004
vt 0.8125 0.15625
vt 0.828125 0.15625
vt 0.828125 0.171875
vt 0.8125 0.171875
vt 0.017481249999999997 0.19687500000000002
vt 0.02324375 0.20781249999999996
vt 0.01171875 0.20781249999999996
vt 0.75185625 0.2109375
vt 0.75761875 0.22187500000000004
vt 0.74609375 0.22187500000000004
vt 0.84375 0.984375
vt 0.859375 0.984375
vt 0.859375 1
vt 0.84375 1
vt 0.02324375 0.20781249999999996
vt 0.017481249999999997 0.21875
vt 0.01171875 0.20781249999999996
vt 0.74033125 0.2109375
vt 0.75185625 0.2109375
vt 0.74609375 0.22187500000000004
vt 0.21875 0.171875
vt 0.234375 0.171875
vt 0.234375 0.1875
vt 0.21875 0.1875
vt 0.017481249999999997 0.21875
vt 0.005956250000000003 0.21875
vt 0.01171875 0.20781249999999996
vt 0.73456875 0.22187500000000004
vt 0.74033125 0.2109375
vt 0.74609375 0.22187500000000004
vt 0.84375 0.953125
vt 0.859375 0.953125
vt 0.859375 0.96875
vt 0.84375 0.96875
vt 0.005956250000000003 0.21875
vt 0.00019374999999999948 0.20781249999999996
vt 0.01171875 0.20781249999999996
vt 0.74033125 0.23281249999999998
vt 0.73456875 0.22187500000000004
vt 0.74609375 0.22187500000000004
vt 0.84375 0.921875
vt 0.859375 0.921875
vt 0.859375 0.9375
vt 0.84375 0.9375
vt 0.00019374999999999948 0.20781249999999996
vt 0.005956250000000003 0.19687500000000002
vt 0.01171875 0.20781249999999996
vt 0.75185625 0.23281249999999998
vt 0.74033125 0.23281249999999998
vt 0.74609375 0.22187500000000004
vt 0.28125 0.171875
vt 0.296875 0.171875
vt 0.296875 0.1875
vt 0.28125 0.1875
vt 0.005956250000000003 0.19687500000000002
vt 0.017481249999999997 0.19687500000000002
vt 0.01171875 0.20781249999999996
vt 0.265625 0.18292343749999995
vt 0.2610484375 0.1875
vt 0.2578125 0.1796875
vt 0.5520265625 0.63910625
vt 0.5584984375 0.63910625
vt 0.5584984375 0.70160625
vt 0.5520265625 0.70160625
vt 0.265625 0.17645156250000005
vt 0.265625 0.18292343749999995
vt 0.2578125 0.1796875
vt 0.4709828125 0.6373890625
vt 0.4774546875 0.6373890625
vt 0.4774546875 0.6998890625
vt 0.4709828125 0.6998890625
vt 0.2610484375 0.171875
vt 0.265625 0.17645156250000005
vt 0.2578125 0.1796875
vt 0.15625 0.16281250000000003
vt 0.16272187500000002 0.16281250000000003
vt 0.16272187500000002 0.22531250000000003
vt 0.15625 0.22531250000000003
vt 0.2545765625 0.171875
vt 0.2610484375 0.171875
vt 0.2578125 0.1796875
vt 0.4850453125 0.1503
vt 0.4915171875 0.1503
vt 0.4915171875 0.2128
vt 0.4850453125 0.2128
vt 0.25 0.17645156250000005
vt 0.2545765625 0.171875
vt 0.2578125 0.1796875
vt 0.759153125 0.6159375
vt 0.765625 0.6159375
vt 0.765625 0.6784375
vt 0.759153125 0.6784375
vt 0.25 0.18292343749999995
vt 0.25 0.17645156250000005
vt 0.2578125 0.1796875
vt 0.7256703125 0.6061390625
vt 0.7321421875 0.6061390625
vt 0.7321421875 0.6686390625
vt 0.7256703125 0.6686390625
vt 0.2545765625 0.1875
vt 0.25 0.18292343749999995
vt 0.2578125 0.1796875
vt 0.6602515625 0.18598125
vt 0.6667234375 0.18598125
vt 0.6667234375 0.24848125
vt 0.6602515625 0.24848125
vt 0.2610484375 0.1875
vt 0.2545765625 0.1875
vt 0.2578125 0.1796875
vt 0.1881703125 0.15402656250000002
vt 0.1946421875 0.15402656250000002
vt 0.1946421875 0.21652656250000002
vt 0.1881703125 0.21652656250000002
vt 0.8494215629837206 0.5610511140498896
vt 0.8506003684128192 0.5546875
vt 0.8671875 0.5610511140498896
vt 0.282590625 0.13380058417407115
vt 0.2890625 0.13380058417407115
vt 0.2890625 0.14942558417407115
vt 0.282590625 0.14942558417407115
vt 0.8444744429750551 0.5089913054290984
vt 0.8508380570249449 0.5078125
vt 0.8508380570249449 0.5255784370162793
vt 0.5225453125 0.6873890625
vt 0.5290171875 0.6873890625
vt 0.5290171875 0.7030140625
vt 0.5225453125 0.7030140625
vt 0.375 0.15480111404988972
vt 0.37617880542909854 0.1484375
vt 0.3927659370162794 0.15480111404988972
vt 0.549773782580689 0.1892919711898159
vt 0.556245657580689 0.1892919711898159
vt 0.556245657580689 0.2049169711898159
vt 0.549773782580689 0.2049169711898159
vt 0.34447444297505514 0.13399130542909854
vt 0.35083805702494486 0.1328125
vt 0.35083805702494486 0.15057843701627938
vt 0.8444203125 0.7200124999999999
vt 0.8508921875 0.7200124999999999
vt 0.8508921875 0.7356374999999999
vt 0.8444203125 0.7356374999999999
vt 0.8451988859501104 0.46211630542909854
vt 0.8515625 0.4609375
vt 0.8515625 0.4787034370162794
vt 0.5843813219186779 0.1875
vt 0.5908531969186779 0.1875
vt 0.5908531969186779 0.203125
vt 0.5843813219186779 0.203125
vt 0.4247107814918603 0.1548011140498896
vt 0.4258895869209588 0.1484375
vt 0.4424767185081397 0.1548011140498896
vt 0.6741078125 0.6561390625
vt 0.6805796875 0.6561390625
vt 0.6805796875 0.6717640625
vt 0.6741078125 0.6717640625
vt 0.84375 0.5871163054290985
vt 0.8501136140498896 0.5859375
vt 0.8501136140498896 0.6037034370162794
vt 0.84375 0.6806919796140417
vt 0.850221875 0.6806919796140417
vt 0.850221875 0.6963169796140417
vt 0.84375 0.6963169796140417
vt 0.8444744429750551 0.6339913054290985
vt 0.8508380570249449 0.6328125
vt 0.8508380570249449 0.6505784370162794
vt 0.3131703125 0.13664062499999996
vt 0.3196421875 0.13664062499999996
vt 0.3196421875 0.15226562499999996
vt 0.3131703125 0.15226562499999996
vt 0.3640259823767167 0.296875
vt 0.3640259823767167 0.290403125
vt 0.3874634823767167 0.290403125
vt 0.3874634823767167 0.296875
vt 0.48984375 0.71875
vt 0.48984375 0.712278125
vt 0.51328125 0.712278125
vt 0.51328125 0.71875
vt 0.7935929149564377 0.22687822360622412
vt 0.7935929149564377 0.2204063486062241
vt 0.8170304149564377 0.2204063486062241
vt 0.8170304149564377 0.22687822360622412
vt 0.4610036687340993 0.20970921425329214
vt 0.4545317937340993 0.20970921425329214
vt 0.4545317937340993 0.18627171425329214
vt 0.4610036687340993 0.18627171425329214
vt 0.7999217140775896 0.2516563418160297
vt 0.7999217140775896 0.2581282168160297
vt 0.7764842140775896 0.2581282168160297
vt 0.7764842140775896 0.2516563418160297
vt 0.71328125 0.681028125
vt 0.71328125 0.6875
vt 0.68984375 0.6875
vt 0.68984375 0.681028125
vt 0.7297233561936828 0.2591531182098056
vt 0.7297233561936828 0.2656249932098056
vt 0.7062858561936828 0.2656249932098056
vt 0.7062858561936828 0.2591531182098056
vt 0.5162953125 0.17888749999999998
vt 0.5227671875 0.17888749999999998
vt 0.5227671875 0.20232499999999998
vt 0.5162953125 0.20232499999999998
vt 0.4545317937340993 0.18627171425329214
vt 0.4545317937340993 0.18228890175329215
vt 0.4610036687340993 0.18228890175329215
vt 0.4610036687340993 0.18627171425329214
vt 0.4610036687340993 0.1862719753765486
vt 0.4610036687340993 0.18228890175329215
vt 0.4666586426001557 0.1796875
vt 0.4673432062659007 0.1871704551125506
vt 0.7764842140775896 0.2581282168160297
vt 0.7691405200506777 0.2562781477104692
vt 0.7725734019987198 0.25108571577901007
vt 0.7764842140775896 0.25167434049778115
vt 0.68984375 0.6875
vt 0.678203125 0.6823
vt 0.682734375 0.678415625
vt 0.68984375 0.681028125
vt 0.51328125 0.712278125
vt 0.520390625 0.709665625
vt 0.524921875 0.71355
vt 0.51328125 0.71875
vt 0.3874634823767167 0.290403125
vt 0.39966906208106223 0.2867195534221494
vt 0.4031173354346945 0.2919021121794778
vt 0.3874634823767167 0.29686909247220106
vt 0.5227671875 0.20232499999999998
vt 0.5227671875 0.21875
vt 0.5162953125 0.21875
vt 0.5162953125 0.20232499999999998
vt 0.7062858561936828 0.2656249932098056
vt 0.690633325994906 0.2606489002141532
vt 0.694084666902535 0.25546912562571966
vt 0.7062858561936828 0.25915707923907183
vt 0.4610036687340993 0.20970921425329214
vt 0.4610036687340993 0.21565921425329215
vt 0.4545317937340993 0.21565921425329215
vt 0.4545317937340993 0.20970921425329214
vt 0.7999217140775896 0.2516563418160297
vt 0.8056360082391667 0.25
vt 0.8089844799493223 0.2555007177620465
vt 0.7999217140775896 0.2581282236062241
vt 0.7935929149564377 0.22687822360622412
vt 0.7845320850435623 0.2242517830675439
vt 0.7878786207948606 0.21875
vt 0.7935929149564377 0.2204063418160297
vt 0.48984375 0.71875
vt 0.476640625 0.7130921875
vt 0.481171875 0.7085609374999999
vt 0.48984375 0.712278125
vt 0.71328125 0.681028125
vt 0.721953125 0.6773109374999999
vt 0.726484375 0.6818421875
vt 0.71328125 0.6875
vt 0.7297233561936828 0.2591531182098056
vt 0.7435201382537956 0.2551526908521896
vt 0.746866674005094 0.2606544739197336
vt 0.7297233561936828 0.265625
vt 0.5162953125 0.17888749999999998
vt 0.5162953125 0.1610390625
vt 0.5227671875 0.1610390625
vt 0.5227671875 0.17888749999999998
vt 0.3640259823767167 0.296875
vt 0.3468826645653055 0.2919044739197336
vt 0.3502292003166039 0.2864026908521896
vt 0.3640259823767167 0.2904031182098056
vt 0.1946421875 0.21652656250000002
vt 0.1946421875 0.234375
vt 0.1881703125 0.234375
vt 0.1881703125 0.21652656250000002
vt 0.6667234375 0.24848125
vt 0.6617515625 0.265625
vt 0.65625 0.2622765625
vt 0.6602515625 0.24848125
vt 0.7321421875 0.6686390625
vt 0.726484375 0.6818421875
vt 0.721953125 0.6773109374999999
vt 0.7256703125 0.6686390625
vt 0.765625 0.6784375
vt 0.762996875 0.6875
vt 0.7574953125 0.684153125
vt 0.759153125 0.6784375
vt 0.4915171875 0.2128
vt 0.4915171875 0.21875
vt 0.4850453125 0.21875
vt 0.4850453125 0.2128
vt 0.16272187500000002 0.22531250000000003
vt 0.16437968749999998 0.23102656249999998
vt 0.158878125 0.234375
vt 0.15625 0.22531250000000003
vt 0.4774546875 0.6998890625
vt 0.481171875 0.7085609374999999
vt 0.476640625 0.7130921875
vt 0.4709828125 0.6998890625
vt 0.5584984375 0.70160625
vt 0.5625 0.715403125
vt 0.5569984375 0.71875
vt 0.5520265625 0.70160625
vt 0.8508921875 0.7356374999999999
vt 0.8508921875 0.75
vt 0.8444203125 0.75
vt 0.8444203125 0.7356374999999999
vt 0.556245657580689 0.2049169711898159
vt 0.5523792483192111 0.21875
vt 0.546875 0.21584174448380267
vt 0.5497767143468602 0.2049169711898159
vt 0.5290171875 0.7030140625
vt 0.524921875 0.71355
vt 0.520390625 0.709665625
vt 0.5225453125 0.7030140625
vt 0.2890625 0.14942558417407115
vt 0.2875373183055066 0.15625
vt 0.28202780547481054 0.15335280900974402
vt 0.28260101158636564 0.14942558417407115
vt 0.3196421875 0.15226562499999996
vt 0.3196421875 0.15625
vt 0.3131703125 0.15625
vt 0.3131703125 0.15226562499999996
vt 0.850221875 0.6963169796140417
vt 0.8507775176659226 0.7002605112662373
vt 0.8452503349984636 0.703125
vt 0.843780497792288 0.6963169796140417
vt 0.6805796875 0.6717640625
vt 0.682734375 0.678415625
vt 0.678203125 0.6823
vt 0.6741078125 0.6717640625
vt 0.5908531969186779 0.203125
vt 0.59375 0.2140513222648871
vt 0.5882458862009284 0.21695798677460032
vt 0.5843841599005888 0.203125
vn 1 0 0
vn -1 0 0
vn 0 1 0
vn 0 -1 0
vn 0 0 1
vn 0 0 -1
vn 0 1 0
vn 0 0 -1
vn 0 -1 0
vn 0 0 1
vn 0 1 0
vn 0 1 0
vn 0 1 0
vn 0 1 0
vn 0 0 -1
vn -1 0 0
vn 0 0 1
vn 1 0 0
vn 0 1 0
vn 0 1 0
vn 0 1 0
vn 0 1 0
vn 0 0 -1
vn -1 0 0
vn 0 0 1
vn 1 0 0
vn 0 -1 0
vn 0.8847196238313356 0 0.46612357503964547
vn 0 1 0
vn 0 -1 0
vn 0.8847196238313356 0 -0.46612357503964547
vn 0 1 0
vn 0 -1 0
vn 0 0 -1
vn 0 1 0
vn 0 -1 0
vn -0.8847196238313356 0 -0.46612357503964547
vn 0 1 0
vn 0 -1 0
vn -0.8847196238313354 0 0.4661235750396459
vn 0 1 0
vn 0 -1 0
vn -1.2041394162563783e-15 0 1
vn 0 1 0
vn 0 -1 0
vn 0.8847196238313356 0 0.46612357503964547
vn 0 1 0
vn 0 -1 0
vn 0.8847196238313356 0 -0.46612357503964547
vn 0 1 0
vn 0 -1 0
vn 0 0 -1
vn 0 1 0
vn 0 -1 0
vn -0.8847196238313356 0 -0.46612357503964547
vn 0 1 0
vn 0 -1 0
vn -0.8847196238313354 0 0.4661235750396459
vn 0 1 0
vn 0 -1 0
vn -1.2041394162563783e-15 0 1
vn 0 1 0
vn 0 -1 0
vn 0.8847196238313356 0 0.46612357503964547
vn 0 1 0
vn 0 -1 0
vn 0.8847196238313356 0 -0.46612357503964547
vn 0 1 0
vn 0 -1 0
vn 0 0 -1
vn 0 1 0
vn 0 -1 0
vn -0.8847196238313356 0 -0.46612357503964547
vn 0 1 0
vn 0 -1 0
vn -0.8847196238313354 0 0.4661235750396459
vn 0 1 0
vn 0 -1 0
vn -1.2041394162563783e-15 0 1
vn 0 1 0
vn 0 -1 0
vn 0.8847196238313356 0 0.46612357503964547
vn 0 1 0
vn 0 -1 0
vn 0.8847196238313356 0 -0.46612357503964547
vn 0 1 0
vn 0 -1 0
vn -1.2041394162563783e-15 0 -1
vn 0 1 0
vn 0 -1 0
vn -0.8847196238313354 0 -0.4661235750396459
vn 0 1 0
vn 0 -1 0
vn -0.8847196238313354 0 0.4661235750396459
vn 0 1 0
vn 0 -1 0
vn -1.2041394162563783e-15 0 1
vn 0 1 0
vn 0 -1 0
vn 0.8847196238313356 0 0.46612357503964547
vn 0 1 0
vn 0 -1 0
vn 0.8847196238313356 0 -0.46612357503964547
vn 0 1 0
vn 0 -1 0
vn -1.2041394162563783e-15 0 -1
vn 0 1 0
vn 0 -1 0
vn -0.8847196238313354 0 -0.4661235750396459
vn 0 1 0
vn 0 -1 0
vn -0.8847196238313354 0 0.4661235750396459
vn 0 1 0
vn 0 -1 0
vn -1.2041394162563783e-15 0 1
vn 0 1 0
vn 0 -1 0
vn 0.8847196238313356 0 0.46612357503964547
vn 0 1 0
vn 0 -1 0
vn 0.8847196238313356 0 -0.46612357503964547
vn 0 1 0
vn 0 -1 0
vn 0 0 -1
vn 0 1 0
vn 0 -1 0
vn -0.8847196238313356 0 -0.46612357503964547
vn 0 1 0
vn 0 -1 0
vn -0.8847196238313356 0 0.46612357503964547
vn 0 1 0
vn 0 -1 0
vn -1.2041394162563775e-15 0 1
vn 0 1 0
vn 0 -1 0
vn 0.7071067811865486 0 0.7071067811865465
vn 0 -1 0
vn 1 0 0
vn 0 -1 0
vn 0.7071067811865486 0 -0.7071067811865465
vn 0 -1 0
vn 0 0 -1
vn 0 -1 0
vn -0.7071067811865454 0 -0.7071067811865497
vn 0 -1 0
vn -1 0 0
vn 0 -1 0
vn -0.7071067811865476 0 0.7071067811865476
vn 0 -1 0
vn 0 0 1
vn -0.6324555320336799 -0.4472135954999499 -0.6324555320336777
vn 0.7071067811865427 0 0.7071067811865523
vn -0.8944271909999192 -0.4472135954999516 -7.671510555934695e-15
vn 1 0 0
vn -0.6324555320336783 -0.44721359549995365 0.6324555320336764
vn 0.7071067811865487 6.365749272858908e-16 -0.7071067811865465
vn 0 -0.4472135954999557 0.894427190999917
vn 0 2.664535259100442e-15 -1
vn 0.6324555320336804 -0.4472135954999532 0.6324555320336747
vn -0.7071067811865508 -1.2396459110304183e-15 -0.7071067811865444
vn 0.8944271909999194 -0.447213595499951 -3.835755277967267e-15
vn -1 0 -4.2885047732943566e-15
vn 0.6324555320336799 -0.4472135954999499 -0.6324555320336777
vn -0.7071067811865427 6.365749272858938e-16 0.7071067811865523
vn 0 -0.4472135954999504 -0.8944271909999199
vn 0 2.6645352591004325e-15 1
vn 0.7071067811865497 0.7071067811865454 0
vn 1 0 0
vn 0.7071067811865454 -0.7071067811865497 0
vn 0 -1 0
vn -0.7071067811865432 -0.7071067811865518 0
vn -1 0 0
vn -0.7071067811865497 0.7071067811865454 0
vn 0 1 0
vn 0 -0.9805806756909127 0.1961161351382219
vn 0.587301587301609 -0.7936507936507731 0.15873015873018229
vn -0.626867796417208 -0.7313389977971223 0.26866342534132664
vn -1 -3.657341080315072e-15 -3.134863783127184e-15
vn 1 -6.3762527040270676e-15 -5.465359460594557e-15
vn 0.6401943020717153 0.701391618337661 -0.3133704729558711
vn 0 0.9037378388935347 -0.42808634473905344
vn -0.6440452759041948 0.691348036281325 -0.3274806487648476
vn 0 -0.9191450300180521 -0.39391929857918156
vn -0.6767155423319655 -0.6767155423319594 -0.2900209467137089
vn 0.6767155423319664 -0.6767155423319614 -0.2900209467137022
vn 1 0 0
vn -1 0 0
vn -0.6767155423319653 0.6767155423319633 0.2900209467137001
vn 0 0.919145030018057 0.3939192985791702
vn 0.6767155423319654 0.6767155423319631 0.2900209467137006
vn 0 0.39391929857916574 0.9191450300180587
vn -0.6767155423319642 0.2900209467136978 0.6767155423319655
vn -1 0 0
vn -0.6767155423319627 -0.2900209467136977 -0.6767155423319668
vn 0 -0.39391929857916524 -0.9191450300180591
vn 0.6767155423319651 -0.290020946713697 -0.6767155423319648
vn 1 0 0
vn 0.6767155423319638 0.29002094671369694 0.6767155423319662
vn 0 0.3807498052542879 -0.924678098474719
vn 0.6588132733080919 0.28644055361220633 -0.6956413444868053
vn 1 -3.95207624082351e-15 -3.3874939207058205e-15
vn 0.6480027196320254 -0.2346477160304495 0.724591557162511
vn 0 -0.1961161351382048 0.980580675690916
vn -0.6266300863547594 -0.15283660642800978 0.7641830321399425
vn -1 -6.531822638191458e-15 -5.598705118449784e-15
vn -0.6562962650739355 0.27339281496907636 -0.7032293944178436
usemtl m_57bb84b6-9cec-502c-d221-c4318ec2e8ea
f 2/1/1 1/2/1 3/3/1 4/4/1
f 7/5/2 5/6/2 6/7/2 8/8/2
f 25/9/3 27/10/3 26/11/3 28/12/3
f 3/13/4 12/14/4 11/15/4 4/16/4
f 1/17/5 9/18/5 12/19/5 3/20/5
f 4/21/6 11/22/6 10/23/6 2/24/6
f 17/25/7 18/26/7 19/27/7 20/28/7
f 6/29/8 10/30/8 11/31/8 8/32/8
f 8/33/9 11/34/9 12/35/9 7/36/9
f 7/37/10 12/38/10 9/39/10 5/40/10
f 14/41/11 13/42/11 5/43/11 9/44/11
f 15/45/12 14/46/12 9/47/12 10/48/12
f 16/49/13 15/50/13 10/51/13 6/52/13
f 13/53/14 16/54/14 6/55/14 5/56/14
f 18/57/15 17/58/15 13/59/15 14/60/15
f 19/61/16 18/62/16 14/63/16 15/64/16
f 20/65/17 19/66/17 15/67/17 16/68/17
f 17/69/18 20/70/18 16/71/18 13/72/18
f 23/73/19 21/74/19 2/75/19 10/76/19
f 22/77/20 23/78/20 10/79/20 9/80/20
f 24/81/21 22/82/21 9/83/21 1/84/21
f 21/85/22 24/86/22 1/87/22 2/88/22
f 27/89/23 25/90/23 21/91/23 23/92/23
f 26/93/24 27/94/24 23/95/24 22/96/24
f 28/97/25 26/98/25 22/99/25 24/100/25
f 25/101/26 28/102/26 24/103/26 21/104/26
f 33/105/27 31/106/27 29/107/27
f 31/108/28 33/109/28 34/110/28 32/111/28
f 32/112/29 34/113/29 30/114/29
f 35/115/30 33/116/30 29/117/30
f 33/118/31 35/119/31 36/120/31 34/121/31
f 34/122/32 36/123/32 30/124/32
f 37/125/33 35/126/33 29/127/33
f 35/128/34 37/129/34 38/130/34 36/131/34
f 36/132/35 38/133/35 30/134/35
f 39/135/36 37/136/36 29/137/36
f 37/138/37 39/139/37 40/140/37 38/141/37
f 38/142/38 40/143/38 30/144/38
f 41/145/39 39/146/39 29/147/39
f 39/148/40 41/149/40 42/150/40 40/151/40
f 40/152/41 42/153/41 30/154/41
f 31/155/42 41/156/42 29/157/42
f 41/158/43 31/159/43 32/160/43 42/161/43
f 42/162/44 32/163/44 30/164/44
f 47/165/45 45/166/45 43/167/45
f 45/168/46 47/169/46 48/170/46 46/171/46
f 46/172/47 48/173/47 44/174/47
f 49/175/48 47/176/48 43/177/48
f 47/178/49 49/179/49 50/180/49 48/181/49
f 48/182/50 50/183/50 44/184/50
f 51/185/51 49/186/51 43/187/51
f 49/188/52 51/189/52 52/190/52 50/191/52
f 50/192/53 52/193/53 44/194/53
f 53/195/54 51/196/54 43/197/54
f 51/198/55 53/199/55 54/200/55 52/201/55
f 52/202/56 54/203/56 44/204/56
f 55/205/57 53/206/57 43/207/57
f 53/208/58 55/209/58 56/210/58 54/211/58
f 54/212/59 56/213/59 44/214/59
f 45/215/60 55/216/60 43/217/60
f 55/218/61 45/219/61 46/220/61 56/221/61
f 56/222/62 46/223/62 44/224/62
f 61/225/63 59/226/63 57/227/63
f 59/228/64 61/229/64 62/230/64 60/231/64
f 60/232/65 62/233/65 58/234/65
f 63/235/66 61/236/66 57/237/66
f 61/238/67 63/239/67 64/240/67 62/241/67
f 62/242/68 64/243/68 58/244/68
f 65/245/69 63/246/69 57/247/69
f 63/248/70 65/249/70 66/250/70 64/251/70
f 64/252/71 66/253/71 58/254/71
f 67/255/72 65/256/72 57/257/72
f 65/258/73 67/259/73 68/260/73 66/261/73
f 66/262/74 68/263/74 58/264/74
f 69/265/75 67/266/75 57/267/75
f 67/268/76 69/269/76 70/270/76 68/271/76
f 68/272/77 70/273/77 58/274/77
f 59/275/78 69/276/78 57/277/78
f 69/278/79 59/279/79 60/280/79 70/281/79
f 70/282/80 60/283/80 58/284/80
f 75/285/81 73/286/81 71/287/81
f 73/288/82 75/289/82 76/290/82 74/291/82
f 74/292/83 76/293/83 72/294/83
f 77/295/84 75/296/84 71/297/84
f 75/298/85 77/299/85 78/300/85 76/301/85
f 76/302/86 78/303/86 72/304/86
f 79/305/87 77/306/87 71/307/87
f 77/308/88 79/309/88 80/310/88 78/311/88
f 78/312/89 80/313/89 72/314/89
f 81/315/90 79/316/90 71/317/90
f 79/318/91 81/319/91 82/320/91 80/321/91
f 80/322/92 82/323/92 72/324/92
f 83/325/93 81/326/93 71/327/93
f 81/328/94 83/329/94 84/330/94 82/331/94
f 82/332/95 84/333/95 72/334/95
f 73/335/96 83/336/96 71/337/96
f 83/338/97 73/339/97 74/340/97 84/341/97
f 84/342/98 74/343/98 72/344/98
f 89/345/99 87/346/99 85/347/99
f 87/348/100 89/349/100 90/350/100 88/351/100
f 88/352/101 90/353/101 86/354/101
f 91/355/102 89/356/102 85/357/102
f 89/358/103 91/359/103 92/360/103 90/361/103
f 90/362/104 92/363/104 86/364/104
f 93/365/105 91/366/105 85/367/105
f 91/368/106 93/369/106 94/370/106 92/371/106
f 92/372/107 94/373/107 86/374/107
f 95/375/108 93/376/108 85/377/108
f 93/378/109 95/379/109 96/380/109 94/381/109
f 94/382/110 96/383/110 86/384/110
f 97/385/111 95/386/111 85/387/111
f 95/388/112 97/389/112 98/390/112 96/391/112
f 96/392/113 98/393/113 86/394/113
f 87/395/114 97/396/114 85/397/114
f 97/398/115 87/399/115 88/400/115 98/401/115
f 98/402/116 88/403/116 86/404/116
f 103/405/117 101/406/117 99/407/117
f 101/408/118 103/409/118 104/410/118 102/411/118
f 102/412/119 104/413/119 100/414/119
f 105/415/120 103/416/120 99/417/120
f 103/418/121 105/419/121 106/420/121 104/421/121
f 104/422/122 106/423/122 100/424/122
f 107/425/123 105/426/123 99/427/123
f 105/428/124 107/429/124 108/430/124 106/431/124
f 106/432/125 108/433/125 100/434/125
f 109/435/126 107/436/126 99/437/126
f 107/438/127 109/439/127 110/440/127 108/441/127
f 108/442/128 110/443/128 100/444/128
f 111/445/129 109/446/129 99/447/129
f 109/448/130 111/449/130 112/450/130 110/451/130
f 110/452/131 112/453/131 100/454/131
f 101/455/132 111/456/132 99/457/132
f 111/458/133 101/459/133 102/460/133 112/461/133
f 112/462/134 102/463/134 100/464/134
f 116/465/135 114/466/135 113/467/135
f 114/468/136 116/469/136 117/470/136 115/471/136
f 118/472/137 116/473/137 113/474/137
f 116/475/138 118/476/138 119/477/138 117/478/138
f 120/479/139 118/480/139 113/481/139
f 118/482/140 120/483/140 121/484/140 119/485/140
f 122/486/141 120/487/141 113/488/141
f 120/489/142 122/490/142 123/491/142 121/492/142
f 124/493/143 122/494/143 113/495/143
f 122/496/144 124/497/144 125/498/144 123/499/144
f 126/500/145 124/501/145 113/502/145
f 124/503/146 126/504/146 127/505/146 125/506/146
f 128/507/147 126/508/147 113/509/147
f 126/510/148 128/511/148 129/512/148 127/513/148
f 114/514/149 128/515/149 113/516/149
f 128/517/150 114/518/150 115/519/150 129/520/150
f 132/521/151 130/522/151 162/523/151
f 130/524/152 132/525/152 133/526/152 131/527/152
f 134/528/153 132/529/153 162/530/153
f 132/531/154 134/532/154 135/533/154 133/534/154
f 136/535/155 134/536/155 162/537/155
f 134/538/156 136/539/156 137/540/156 135/541/156
f 138/542/157 136/543/157 162/544/157
f 136/545/158 138/546/158 139/547/158 137/548/158
f 140/549/159 138/550/159 162/551/159
f 138/552/160 140/553/160 141/554/160 139/555/160
f 142/556/161 140/557/161 162/558/161
f 140/559/162 142/560/162 143/561/162 141/562/162
f 144/563/163 142/564/163 162/565/163
f 142/566/164 144/567/164 145/568/164 143/569/164
f 130/570/165 144/571/165 162/572/165
f 144/573/166 130/574/166 131/575/166 145/576/166
f 146/577/167 148/578/167 149/579/167 147/580/167
f 148/581/168 150/582/168 151/583/168 149/584/168
f 150/585/169 152/586/169 153/587/169 151/588/169
f 152/589/170 154/590/170 155/591/170 153/592/170
f 154/593/171 156/594/171 157/595/171 155/596/171
f 156/597/172 158/598/172 159/599/172 157/600/172
f 158/601/173 160/602/173 161/603/173 159/604/173
f 160/605/174 146/606/174 147/607/174 161/608/174
f 155/609/175 176/610/175 175/611/175 153/612/175
f 153/613/176 175/614/176 174/615/176 151/616/176
f 157/617/177 177/618/177 176/619/177 155/620/177
f 159/621/178 178/622/178 177/623/178 157/624/178
f 151/625/179 174/626/179 173/627/179 149/628/179
f 149/629/180 173/630/180 172/631/180 147/632/180
f 147/633/181 172/634/181 171/635/181 161/636/181
f 161/637/182 171/638/182 178/639/182 159/640/182
f 152/641/183 168/642/183 167/643/183 154/644/183
f 154/645/184 167/646/184 166/647/184 156/648/184
f 150/649/185 169/650/185 168/651/185 152/652/185
f 148/653/186 170/654/186 169/655/186 150/656/186
f 156/657/187 166/658/187 165/659/187 158/660/187
f 158/661/188 165/662/188 164/663/188 160/664/188
f 160/665/189 164/666/189 163/667/189 146/668/189
f 146/669/190 163/670/190 170/671/190 148/672/190
f 115/673/191 163/674/191 164/675/191 129/676/191
f 129/677/192 164/678/192 165/679/192 127/680/192
f 127/681/193 165/682/193 166/683/193 125/684/193
f 125/685/194 166/686/194 167/687/194 123/688/194
f 123/689/195 167/690/195 168/691/195 121/692/195
f 121/693/196 168/694/196 169/695/196 119/696/196
f 119/697/197 169/698/197 170/699/197 117/700/197
f 117/701/198 170/702/198 163/703/198 115/704/198
f 139/705/199 171/706/199 172/707/199 137/708/199
f 137/709/200 172/710/200 173/711/200 135/712/200
f 135/713/201 173/714/201 174/715/201 133/716/201
f 133/717/202 174/718/202 175/719/202 131/720/202
f 131/721/203 175/722/203 176/723/203 145/724/203
f 145/725/204 176/726/204 177/727/204 143/728/204
f 143/729/205 177/730/205 178/731/205 141/732/205
f 141/733/206 178/734/206 171/735/206 139/736/206