# Made in Blockbench 4.12.4
mtllib MassHallTable.mtl

o Table
v 0.375 0.5625 0.4375
v 0.375 0.5625 -0.4375
v 0.375 0 0.4375
v 0.375 0 -0.4375
v 0.4375 0.5625 0.4375
v 0.4375 0.5625 -0.4375
v 0.4375 0 0.4375
v 0.4375 0 -0.4375
v 0.4375 0.046875 0.375
v 0.4375 0.515625 0.375
v 0.4375 0.515625 -0.375
v 0.4375 0.046875 -0.375
v 0.375 0.515625 0.375
v 0.375 0.046875 0.375
v 0.375 0.515625 -0.375
v 0.375 0.046875 -0.375
v 0.5 0.625 0.5
v 0.5 0.625 -0.5
v 0.5 0.5625 0.5
v 0.5 0.5625 -0.5
v -0.5 0.625 0.5
v -0.5 0.625 -0.5
v -0.5 0.5625 0.5
v -0.5 0.5625 -0.5
v -0.375 0.5625 0.4375
v -0.375 0.5625 -0.4375
v -0.375 0 0.4375
v -0.375 0 -0.4375
v -0.4375 0.5625 0.4375
v -0.4375 0.5625 -0.4375
v -0.4375 0 0.4375
v -0.4375 0 -0.4375
v -0.4375 0.046875 0.375
v -0.4375 0.515625 0.375
v -0.4375 0.515625 -0.375
v -0.4375 0.046875 -0.375
v -0.375 0.515625 0.375
v -0.375 0.046875 0.375
v -0.375 0.515625 -0.375
v -0.375 0.046875 -0.375
vt 0.5 0.875
vt 0.5 0.65625
vt 0.515625 0.65625
vt 0.515625 0.875
vt 0.515625 0.640625
vt 0.5 0.640625
vt 0.5 0.421875
vt 0.515625 0.421875
vt 0.171875 0.46875
vt 0.15625 0.46875
vt 0.15625 0.328125
vt 0.171875 0.328125
vt 0.203125 0.328125
vt 0.203125 0.46875
vt 0.1875 0.46875
vt 0.1875 0.328125
vt 0.265625 0.859375
vt 0.28125 0.87109375
vt 0.28125 0.98828125
vt 0.265625 1
vt 0.265625 1
vt 0.28125 0.98828125
vt 0.46875 0.98828125
vt 0.484375 1
vt 0.484375 1
vt 0.46875 0.98828125
vt 0.46875 0.87109375
vt 0.484375 0.859375
vt 0.484375 0.859375
vt 0.46875 0.87109375
vt 0.28125 0.87109375
vt 0.265625 0.859375
vt 0.265625 0.84375
vt 0.28125 0.83203125
vt 0.46875 0.83203125
vt 0.484375 0.84375
vt 0.484375 0.84375
vt 0.46875 0.83203125
vt 0.46875 0.71484375
vt 0.484375 0.703125
vt 0.484375 0.703125
vt 0.46875 0.71484375
vt 0.28125 0.71484375
vt 0.265625 0.703125
vt 0.265625 0.703125
vt 0.28125 0.71484375
vt 0.28125 0.83203125
vt 0.265625 0.84375
vt 0.0625 0.46875
vt 0.0625 0.28125
vt 0.078125 0.28125
vt 0.078125 0.46875
vt 0.09375 0.46875
vt 0.09375 0.28125
vt 0.109375 0.28125
vt 0.109375 0.46875
vt 0.53125 0.515625
vt 0.53125 0.390625
vt 0.546875 0.390625
vt 0.546875 0.515625
vt 0.578125 0.75
vt 0.578125 0.875
vt 0.5625 0.875
vt 0.5625 0.75
vt 0.75 1
vt 0.5 1
vt 0.5 0.984375
vt 0.75 0.984375
vt 0 0.75
vt 0.25 0.75
vt 0.25 1
vt 0 1
vt 0.25 0.484375
vt 0.25 0.734375
vt 0 0.734375
vt 0 0.484375
vt 0.75 0.953125
vt 0.75 0.96875
vt 0.5 0.96875
vt 0.5 0.953125
vt 0.75 0.9375
vt 0.5 0.9375
vt 0.5 0.921875
vt 0.75 0.921875
vt 0.75 0.890625
vt 0.75 0.90625
vt 0.5 0.90625
vt 0.5 0.890625
vt 0 0.25
vt 0.015625 0.25
vt 0.015625 0.46875
vt 0 0.46875
vt 0.046875 0.25
vt 0.046875 0.46875
vt 0.03125 0.46875
vt 0.03125 0.25
vt 0.234375 0.328125
vt 0.234375 0.46875
vt 0.21875 0.46875
vt 0.21875 0.328125
vt 0.546875 0.671875
vt 0.53125 0.671875
vt 0.53125 0.53125
vt 0.546875 0.53125
vt 0.46875 0.67578125
vt 0.46875 0.55859375
vt 0.484375 0.546875
vt 0.484375 0.6875
vt 0.28125 0.67578125
vt 0.46875 0.67578125
vt 0.484375 0.6875
vt 0.265625 0.6875
vt 0.28125 0.55859375
vt 0.28125 0.67578125
vt 0.265625 0.6875
vt 0.265625 0.546875
vt 0.46875 0.55859375
vt 0.28125 0.55859375
vt 0.265625 0.546875
vt 0.484375 0.546875
vt 0.28125 0.51953125
vt 0.46875 0.51953125
vt 0.484375 0.53125
vt 0.265625 0.53125
vt 0.28125 0.40234375
vt 0.28125 0.51953125
vt 0.265625 0.53125
vt 0.265625 0.390625
vt 0.46875 0.40234375
vt 0.28125 0.40234375
vt 0.265625 0.390625
vt 0.484375 0.390625
vt 0.46875 0.51953125
vt 0.46875 0.40234375
vt 0.484375 0.390625
vt 0.484375 0.53125
vt 0.125 0.28125
vt 0.140625 0.28125
vt 0.140625 0.46875
vt 0.125 0.46875
vt 0.53125 0.6875
vt 0.546875 0.6875
vt 0.546875 0.875
vt 0.53125 0.875
vt 0.5625 0.609375
vt 0.578125 0.609375
vt 0.578125 0.734375
vt 0.5625 0.734375
vt 0.578125 0.59375
vt 0.5625 0.59375
vt 0.5625 0.46875
vt 0.578125 0.46875
vn 0 1 0
vn 0 -1 0
vn 0 0 1
vn 0 0 -1
vn 1 0 0
vn 1 0 0
vn 1 0 0
vn 1 0 0
vn -1 0 0
vn -1 0 0
vn -1 0 0
vn -1 0 0
vn 0 1 0
vn 0 -1 0
vn 0 0 1
vn 0 0 -1
vn 1 0 0
vn 0 1 0
vn 0 -1 0
vn 0 0 1
vn 0 0 -1
vn -1 0 0
vn 0 1 0
vn 0 -1 0
vn 0 0 1
vn 0 0 -1
vn -1 0 0
vn -1 0 0
vn -1 0 0
vn -1 0 0
vn 1 0 0
vn 1 0 0
vn 1 0 0
vn 1 0 0
vn 0 1 0
vn 0 -1 0
vn 0 0 1
vn 0 0 -1
usemtl m_c0f39920-1e82-eea6-89f7-5a5260d9bde5
f 2/1/1 1/2/1 5/3/1 6/4/1
f 7/5/2 3/6/2 4/7/2 8/8/2
f 5/9/3 1/10/3 3/11/3 7/12/3
f 4/13/4 2/14/4 6/15/4 8/16/4
f 7/17/5 9/18/5 10/19/5 5/20/5
f 5/21/6 10/22/6 11/23/6 6/24/6
f 6/25/7 11/26/7 12/27/7 8/28/7
f 8/29/8 12/30/8 9/31/8 7/32/8
f 2/33/9 15/34/9 13/35/9 1/36/9
f 1/37/10 13/38/10 14/39/10 3/40/10
f 3/41/11 14/42/11 16/43/11 4/44/11
f 4/45/12 16/46/12 15/47/12 2/48/12
f 16/49/13 14/50/13 9/51/13 12/52/13
f 13/53/14 15/54/14 11/55/14 10/56/14
f 15/57/15 16/58/15 12/59/15 11/60/15
f 14/61/16 13/62/16 10/63/16 9/64/16
f 18/65/17 17/66/17 19/67/17 20/68/17
f 21/69/18 17/70/18 18/71/18 22/72/18
f 20/73/19 19/74/19 23/75/19 24/76/19
f 19/77/20 17/78/20 21/79/20 23/80/20
f 22/81/21 18/82/21 20/83/21 24/84/21
f 23/85/22 21/86/22 22/87/22 24/88/22
f 29/89/23 25/90/23 26/91/23 30/92/23
f 28/93/24 27/94/24 31/95/24 32/96/24
f 27/97/25 25/98/25 29/99/25 31/100/25
f 30/101/26 26/102/26 28/103/26 32/104/26
f 34/105/27 33/106/27 31/107/27 29/108/27
f 35/109/28 34/110/28 29/111/28 30/112/28
f 36/113/29 35/114/29 30/115/29 32/116/29
f 33/117/30 36/118/30 32/119/30 31/120/30
f 37/121/31 39/122/31 26/123/31 25/124/31
f 38/125/32 37/126/32 25/127/32 27/128/32
f 40/129/33 38/130/33 27/131/33 28/132/33
f 39/133/34 40/134/34 28/135/34 26/136/34
f 33/137/35 38/138/35 40/139/35 36/140/35
f 35/141/36 39/142/36 37/143/36 34/144/36
f 36/145/37 40/146/37 39/147/37 35/148/37
f 34/149/38 37/150/38 38/151/38 33/152/38