# Made in Blockbench 4.12.4
mtllib RationCansFour.mtl

o Cans
v -0.02869375 0 -0.0016437500000000011
v -0.02869375 0.09375 -0.0016437500000000011
v -0.008155625 0 0.016300625
v -0.008155625 0.09375 0.016300625
v 0.01864625 0 0.011386874999999998
v 0.01864625 0.09375 0.011386874999999998
v 0.03153 0 -0.012685625
v 0.03153 0.09375 -0.012685625
v 0.020793125 0 -0.037790000000000004
v 0.020793125 0.09375 -0.037790000000000004
v -0.00547875 0 -0.04502125
v -0.00547875 0.09375 -0.04502125
v -0.0275025 0 -0.028935000000000002
v -0.0275025 0.09375 -0.028935000000000002
v 0.033090625 0.00625 -0.0126175
v 0.019534375 0.00625 0.01268
v 0.034651875 0.0875 -0.012549375000000002
v 0.0204225 0.0875 0.013972499999999999
v -0.008670625 0.00625 0.0178425
v -0.009185625 0.0875 0.01938375
v -0.030285625 0.00625 -0.001017500000000001
v -0.031876875 0.0875 -0.00039062500000000035
v -0.029033125 0.00625 -0.0296975
v -0.03056375 0.0875 -0.030460625
v -0.005856875 0.00625 -0.046601875
v -0.006235625 0.0875 -0.0481825
v 0.021790625 0.00625 -0.039000625
v 0.022788125 0.0875 -0.040211250000000004
v -0.02869375 0.096875 -0.0016437500000000011
v -0.008155625 0.096875 0.016300625
v 0.0001625 0.096875 -0.014055625
v 0.01864625 0.096875 0.011386874999999998
v 0.03153 0.096875 -0.012685625
v 0.020793125 0.096875 -0.037790000000000004
v -0.00547875 0.096875 -0.04502125
v -0.0275025 0.096875 -0.028935000000000002
v 0.01724 0 0.00972
v -0.00794125 0 0.014308124999999998
v 0.02934 0 -0.012781250000000001
v 0.0192475 0 -0.036251875
v -0.00543875 0 -0.0430175
v -0.026128125 0 -0.02798375
v -0.027241875 0 -0.0024712500000000012
v 0.016204375 0.0046875 0.008256875
v -0.007404375 0.0046875 0.012563749999999999
v -0.00008125 0.0046875 -0.01406625
v 0.02755 0.0046875 -0.012859375000000001
v 0.018088125 0.0046875 -0.034884375
v -0.005055625 0.0046875 -0.041233125
v -0.02445375 0.0046875 -0.027123750000000002
v -0.02549875 0.0046875 -0.0031818750000000007
v -0.00591375 0 -0.044764374999999995
v -0.027878125 0 -0.028596875
v -0.028881875 0 -0.0013662500000000011
v -0.008168125 0 0.016421875
v 0.018664375 0 0.011373749999999998
v 0.031410625 0 -0.012710625000000001
v 0.0204725 0 -0.037694375
v -0.00591375 0.003125 -0.044764374999999995
v -0.027878125 0.003125 -0.028596875
v -0.028881875 0.003125 -0.0013662500000000011
v -0.008168125 0.003125 0.016421875
v 0.018664375 0.003125 0.011373749999999998
v 0.031410625 0.003125 -0.012710625000000001
v 0.0204725 0.003125 -0.037694375
vt 0.42926875 0.791625
vt 0.414325 0.8103875
vt 0.40234375 0.7854687499999999
vt 0.002721875 0.746875
vt 0.00115 0.739930625
vt 0.03125 0.739944375
vt 0.029996875 0.746875
vt 0.04490625 0.8153125
vt 0.0619375 0.8366125
vt 0.03125 0.8436
vt 0.4239375 0.7682249999999999
vt 0.42926875 0.791625
vt 0.40234375 0.7854687499999999
vt 0.251570625 0.809375
vt 0.25 0.802506875
vt 0.2801 0.8025
vt 0.278820625 0.809375
vt 0.0619375 0.8366125
vt 0.0558625 0.863175
vt 0.03125 0.8436
vt 0.40234375 0.7578125
vt 0.4239375 0.7682249999999999
vt 0.40234375 0.7854687499999999
vt 0.126440625 0.621875
vt 0.125 0.615031875
vt 0.1551 0.615018125
vt 0.153746875 0.621875
vt 0.0558625 0.863175
vt 0.03125 0.875
vt 0.03125 0.8436
vt 0.38075 0.7682249999999999
vt 0.40234375 0.7578125
vt 0.40234375 0.7854687499999999
vt 0.377503125 0.996875
vt 0.37615 0.990018125
vt 0.40625 0.990031875
vt 0.404809375 0.996875
vt 0.03125 0.875
vt 0.0066375 0.863175
vt 0.03125 0.8436
vt 0.37541875 0.791625
vt 0.38075 0.7682249999999999
vt 0.40234375 0.7854687499999999
vt 0.252429375 0.996875
vt 0.25115 0.99
vt 0.28125 0.990006875
vt 0.279679375 0.996875
vt 0.0066375 0.863175
vt 0.0005625 0.8366125
vt 0.03125 0.8436
vt 0.3903625 0.8103875
vt 0.37541875 0.791625
vt 0.40234375 0.7854687499999999
vt 0.126253125 0.809375
vt 0.125 0.802438125
vt 0.1551 0.802424375
vt 0.153528125 0.809375
vt 0.0005625 0.8366125
vt 0.01759375 0.8153125
vt 0.03125 0.8436
vt 0.414325 0.8103875
vt 0.3903625 0.8103875
vt 0.40234375 0.7854687499999999
vt 0.12696875 0.996875
vt 0.125575 0.9898875
vt 0.155675 0.9898875
vt 0.15428125 0.996875
vt 0.01759375 0.8153125
vt 0.04490625 0.8153125
vt 0.03125 0.8436
vt 0.15370375 0.52735
vt 0.15438125 0.5337562499999999
vt 0.12568125 0.533769375
vt 0.1263975 0.5273687499999999
vt 0.15438125 0.5337562499999999
vt 0.1551 0.615018125
vt 0.125 0.615031875
vt 0.12568125 0.533769375
vt 0.27879875 0.714825
vt 0.2794375 0.7212375
vt 0.2507625 0.72124375
vt 0.25154875 0.7148375
vt 0.2794375 0.7212375
vt 0.2801 0.8025
vt 0.25 0.802506875
vt 0.25076875 0.72124375
vt 0.03004 0.65225625
vt 0.0306625 0.65868125
vt 0.001975 0.6586681249999999
vt 0.002765 0.6522375
vt 0.0306625 0.65868125
vt 0.03125 0.739944375
vt 0.00115 0.739930625
vt 0.001975 0.6586681249999999
vt 0.15428125 0.902175
vt 0.15498125 0.90861875
vt 0.12626875 0.90861875
vt 0.12696875 0.902175
vt 0.15498125 0.90861875
vt 0.155675 0.9898875
vt 0.125575 0.9898875
vt 0.12626875 0.90861875
vt 0.153485 0.71473125
vt 0.154275 0.721161875
vt 0.1255875 0.721175
vt 0.12621 0.71475
vt 0.154275 0.721161875
vt 0.1551 0.802424375
vt 0.125 0.802438125
vt 0.1255875 0.721175
vt 0.279695 0.90233125
vt 0.28048125 0.90874375
vt 0.25180625 0.9087375
vt 0.252445 0.902325
vt 0.28048125 0.90874375
vt 0.28125 0.990006875
vt 0.25115 0.99
vt 0.2518125 0.9087375
vt 0.4048525 0.9023687499999999
vt 0.40556875 0.908769375
vt 0.37686875 0.90875625
vt 0.37754625 0.90235
vt 0.40556875 0.908769375
vt 0.40625 0.990031875
vt 0.37615 0.990018125
vt 0.37686875 0.90875625
vt 0.029996875 0.75
vt 0.002721875 0.75
vt 0.002721875 0.746875
vt 0.029996875 0.746875
vt 0.153740625 0.625
vt 0.126440625 0.625
vt 0.126440625 0.621875
vt 0.153740625 0.621875
vt 0.404803125 1
vt 0.377503125 1
vt 0.377503125 0.996875
vt 0.404803125 0.996875
vt 0.279679375 1
vt 0.252429375 1
vt 0.252429375 0.996875
vt 0.279679375 0.996875
vt 0.153528125 0.8125
vt 0.126253125 0.8125
vt 0.126253125 0.809375
vt 0.153528125 0.809375
vt 0.15428125 1
vt 0.12696875 1
vt 0.12696875 0.996875
vt 0.15428125 0.996875
vt 0.278820625 0.8125
vt 0.251570625 0.8125
vt 0.251570625 0.809375
vt 0.278820625 0.809375
vt 0.0599375 0.97575625
vt 0.05425625 0.9508
vt 0.0558625 0.949325
vt 0.0619375 0.9758875
vt 0.05425625 0.9508
vt 0.03125 0.93969375
vt 0.03125 0.9375
vt 0.0558625 0.949325
vt 0.03125 0.93969375
vt 0.00824375 0.9508
vt 0.0066375 0.949325
vt 0.03125 0.9375
vt 0.00824375 0.9508
vt 0.0025625 0.97575625
vt 0.0005625 0.9758875
vt 0.0066375 0.949325
vt 0.0025625 0.97575625
vt 0.01848125 0.995775
vt 0.01759375 0.9971875
vt 0.0005625 0.9758875
vt 0.01848125 0.995775
vt 0.04401875 0.995775
vt 0.04490625 0.9971875
vt 0.01759375 0.9971875
vt 0.04401875 0.995775
vt 0.0599375 0.97575625
vt 0.0619375 0.9758875
vt 0.04490625 0.9971875
vt 0.39975625 0.6875
vt 0.37575625 0.6875
vt 0.375 0.625
vt 0.4006 0.625
vt 0.52475 0.875
vt 0.500775 0.875
vt 0.5 0.8125
vt 0.52554375 0.8125
vt 0.530475 1
vt 0.5065 1
vt 0.50570625 0.9375
vt 0.53125 0.9375
vt 0.28049375 0.625
vt 0.25649375 0.625
vt 0.25565 0.5625
vt 0.28125 0.5625
vt 0.3998375 0.5625
vt 0.37585 0.5625
vt 0.375 0.5
vt 0.400575 0.5
vt 0.27760625 0.5
vt 0.25364375 0.5
vt 0.25285625 0.4375
vt 0.27839375 0.4375
vt 0.0304 0.5625
vt 0.0064125 0.5625
vt 0.005675 0.5
vt 0.03125 0.5
vt 0.029996875 0.75
vt 0.002721875 0.75
vt 0.002721875 0.746875
vt 0.029996875 0.746875
vt 0.153740625 0.625
vt 0.126440625 0.625
vt 0.126440625 0.621875
vt 0.153740625 0.621875
vt 0.404803125 1
vt 0.377503125 1
vt 0.377503125 0.996875
vt 0.404803125 0.996875
vt 0.279679375 1
vt 0.252429375 1
vt 0.252429375 0.996875
vt 0.279679375 0.996875
vt 0.153528125 0.8125
vt 0.126253125 0.8125
vt 0.126253125 0.809375
vt 0.153528125 0.809375
vt 0.15428125 1
vt 0.12696875 1
vt 0.12696875 0.996875
vt 0.15428125 0.996875
vt 0.278820625 0.8125
vt 0.251570625 0.8125
vt 0.251570625 0.809375
vt 0.278820625 0.809375
vn 0 -1 0
vn -0.5909560634657853 0.436938327606763 0.6781267056540597
vn 0 1 0
vn 0 -1 0
vn 0.16360256285290256 0.41462351348938953 0.8951656514241798
vn 0 1 0
vn 0 -1 0
vn 0.8047675275130608 0.4073380082380459 0.43176958404359256
vn 0 1 0
vn 0 -1 0
vn 0.8379462195118418 0.41071960549938563 -0.35938216269626017
vn 0 1 0
vn 0 -1 0
vn 0.24077667664934715 0.4164820688628001 -0.8766808303467446
vn 0 1 0
vn 0 -1 0
vn -0.5307849031868563 0.43282800176507147 -0.728647587957975
vn 0 1 0
vn 0 -1 0
vn -0.8935816282160094 0.44720149354117344 -0.03902176174097592
vn 0 1 0
vn 0.8598794943967624 -0.21973448040866267 0.4607862988799727
vn 0.881053947600764 -0.01732612987049716 0.47269836750386696
vn 0.17549700632509355 -0.22331737395808096 0.9588170582855715
vn 0.17975652834747638 -0.01761094323424314 0.9835534785637553
vn -0.6392921016356965 -0.23342922316472167 0.73267755974844
vn -0.6568770956444004 -0.01846205774308849 0.7537716057544674
vn -0.9691991350751152 -0.24261391175204547 -0.04232642666253771
vn -0.9988632163972176 -0.019225812261909666 -0.043619297008034415
vn -0.5726379805888897 -0.23602106957266783 -0.7850985912003997
vn -0.5886922969505598 -0.01868036930602298 -0.8081413386986614
vn 0.25847526630462636 -0.22212218015896848 -0.9401341786097235
vn 0.2647982395857922 -0.017521954182981435 -0.9641446330472805
vn 0.8972016993650631 -0.2176274869365614 -0.3842751456783534
vn 0.9189055943198626 -0.017153488638192792 -0.394104385353931
vn -0.65795443701601 0 0.7530577393606319
vn 0.8816663862300756 0 0.4718732704784189
vn 0.9194384031535314 0 -0.39323405601051914
vn 0.26537771331906707 0 -0.9641445271708715
vn -0.5898246663933104 0 -0.8075313386575286
vn -0.9990487187699422 0 -0.04360799839636128
vn 0.18033045781377546 0 0.9836060827306196
vn 0 -1 0
vn 0 -1 0
vn 0 -1 0
vn 0 -1 0
vn 0 -1 0
vn 0 -1 0
vn 0 -1 0
vn -0.1695626910847017 -0.3275843940668127 -0.929482091573578
vn -0.8329210660236214 -0.3255235097352963 -0.44752311938456174
vn -0.8692596568127489 -0.32393927064820616 0.3734313832147618
vn -0.2500432484458873 -0.3265439647181519 0.911508317577398
vn 0.5537131536836435 -0.3374533974997682 0.7612666733501324
vn 0.9385173353823112 -0.3427931982745358 0.0409638182253694
vn 0.618446316840637 -0.3353074973344565 -0.7106989766543598
vn -0.5928002947778439 0 -0.805349495878219
vn -0.6514980163439336 0 0.758650337573193
vn 0.18489109678789317 0 0.9827590153891085
vn 0.883853183427724 0 0.4677644173562994
vn 0.9160531666450541 0 -0.4010568486880243
vn 0.25881308918895046 0 -0.9659274221516193
vn -0.9993213222553512 0 -0.036836054156443705
usemtl m_d7d976b7-12b3-eaff-8882-af12f45f6095
f 45/1/1 51/2/1 46/3/1
f 2/4/2 22/5/2 20/6/2 4/7/2
f 29/8/3 30/9/3 31/10/3
f 44/11/4 45/12/4 46/13/4
f 4/14/5 20/15/5 18/16/5 6/17/5
f 30/18/6 32/19/6 31/20/6
f 47/21/7 44/22/7 46/23/7
f 6/24/8 18/25/8 17/26/8 8/27/8
f 32/28/9 33/29/9 31/30/9
f 48/31/10 47/32/10 46/33/10
f 8/34/11 17/35/11 28/36/11 10/37/11
f 33/38/12 34/39/12 31/40/12
f 49/41/13 48/42/13 46/43/13
f 10/44/14 28/45/14 26/46/14 12/47/14
f 34/48/15 35/49/15 31/50/15
f 50/51/16 49/52/16 46/53/16
f 12/54/17 26/55/17 24/56/17 14/57/17
f 35/58/18 36/59/18 31/60/18
f 51/61/19 50/62/19 46/63/19
f 14/64/20 24/65/20 22/66/20 2/67/20
f 36/68/21 29/69/21 31/70/21
f 7/71/22 15/72/22 16/73/22 5/74/22
f 15/75/23 17/76/23 18/77/23 16/78/23
f 5/79/24 16/80/24 19/81/24 3/82/24
f 16/83/25 18/84/25 20/85/25 19/86/25
f 3/87/26 19/88/26 21/89/26 1/90/26
f 19/91/27 20/92/27 22/93/27 21/94/27
f 1/95/28 21/96/28 23/97/28 13/98/28
f 21/99/29 22/100/29 24/101/29 23/102/29
f 13/103/30 23/104/30 25/105/30 11/106/30
f 23/107/31 24/108/31 26/109/31 25/110/31
f 11/111/32 25/112/32 27/113/32 9/114/32
f 25/115/33 26/116/33 28/117/33 27/118/33
f 9/119/34 27/120/34 15/121/34 7/122/34
f 27/123/35 28/124/35 17/125/35 15/126/35
f 30/127/36 29/128/36 2/129/36 4/130/36
f 33/131/37 32/132/37 6/133/37 8/134/37
f 34/135/38 33/136/38 8/137/38 10/138/38
f 35/139/39 34/140/39 10/141/39 12/142/39
f 36/143/40 35/144/40 12/145/40 14/146/40
f 29/147/41 36/148/41 14/149/41 2/150/41
f 32/151/42 30/152/42 4/153/42 6/154/42
f 38/155/43 37/156/43 5/157/43 3/158/43
f 37/159/44 39/160/44 7/161/44 5/162/44
f 39/163/45 40/164/45 9/165/45 7/166/45
f 40/167/46 41/168/46 11/169/46 9/170/46
f 41/171/47 42/172/47 13/173/47 11/174/47
f 42/175/48 43/176/48 1/177/48 13/178/48
f 43/179/49 38/180/49 3/181/49 1/182/49
f 45/183/50 44/184/50 37/185/50 38/186/50
f 44/187/51 47/188/51 39/189/51 37/190/51
f 47/191/52 48/192/52 40/193/52 39/194/52
f 48/195/53 49/196/53 41/197/53 40/198/53
f 49/199/54 50/200/54 42/201/54 41/202/54
f 50/203/55 51/204/55 43/205/55 42/206/55
f 51/207/56 45/208/56 38/209/56 43/210/56
f 60/211/57 59/212/57 52/213/57 53/214/57
f 62/215/58 61/216/58 54/217/58 55/218/58
f 63/219/59 62/220/59 55/221/59 56/222/59
f 64/223/60 63/224/60 56/225/60 57/226/60
f 65/227/61 64/228/61 57/229/61 58/230/61
f 59/231/62 65/232/62 58/233/62 52/234/62
f 61/235/63 60/236/63 53/237/63 54/238/63
o Cans
v -0.013119746908599794 0 -0.0642254126120347
v -0.013119746908599794 0.09375 -0.0642254126120347
v -0.02731132722670623 0 -0.08751520051856111
v -0.02731132722670623 0.09375 -0.08751520051856111
v -0.05435032284835548 0 -0.09088835310191061
v -0.05435032284835548 0.09375 -0.09088835310191061
v -0.07387651397112457 0 -0.0718042201493871
v -0.07387651397112457 0.09375 -0.0718042201493871
v -0.07118560544098979 0 -0.04463311159289464
v -0.07118560544098979 0.09375 -0.04463311159289464
v -0.0483041517382165 0 -0.029836440716445187
v -0.0483041517382165 0.09375 -0.029836440716445187
v -0.022462499376899623 0 -0.038555500663586616
v -0.022462499376899623 0.09375 -0.038555500663586616
v -0.07534442290479479 0.00625 -0.07233848110500818
v -0.05480849252825479 0.00625 -0.09238869267203165
v -0.07681292791155923 0.0875 -0.07287293000175395
v -0.05526685014927879 0.0875 -0.09388843616905845
v -0.02635651224246024 0.00625 -0.08883084935525133
v -0.02540188519933894 0.0875 -0.09014590211884733
v -0.011413231730687916 0.00625 -0.06434399180785491
v -0.009707124684745556 0.0875 -0.06446335501789403
v -0.021232004541282625 0.00625 -0.03736802367427486
v -0.020001697646790315 0.0875 -0.03617995061186889
v -0.04841883062055626 0.00625 -0.02821526748073122
v -0.048532913429801816 0.0875 -0.026593906303892564
v -0.07250098005788601 0.00625 -0.04377847204440058
v -0.07381635467478223 0.0875 -0.04292383249590652
v -0.013119746908599794 0.096875 -0.0642254126120347
v -0.02731132722670623 0.096875 -0.08751520051856111
v -0.04437276446385042 0.096875 -0.06106523876091174
v -0.05435032284835548 0.096875 -0.09088835310191061
v -0.07387651397112457 0.096875 -0.0718042201493871
v -0.07118560544098979 0.096875 -0.04463311159289464
v -0.0483041517382165 0.096875 -0.029836440716445187
v -0.022462499376899623 0.096875 -0.038555500663586616
v -0.053510397365914474 0 -0.08887575862907927
v -0.028114936603535146 0 -0.085679383299964
v -0.07181662884106355 0 -0.07105447526505744
v -0.06924899357112706 0 -0.045635269076405464
v -0.04773976117048974 0 -0.031759479288487116
v -0.023487217719305776 0 -0.03987600644617956
v -0.014753258755557167 0 -0.06387279906794581
v -0.05296267442169553 0.0046875 -0.08716893307190415
v -0.029151507070478366 0.0046875 -0.08417718472011142
v -0.04414349095622527 0.0046875 -0.06098180847968087
v -0.0701329681398105 0.0046875 -0.07044170274716759
v -0.06773206280053123 0.0046875 -0.04659084622025339
v -0.047568582066254715 0.0046875 -0.033576475881913564
v -0.024825490551141163 0.0046875 -0.041199697296867996
v -0.016629395674102893 0.0046875 -0.06371923175658123
v -0.047812041062393354 0 -0.029950619735384286
v -0.022002583298817435 0 -0.03876502359161957
v -0.01285688304787785 0 -0.06443349878733559
v -0.027262945186631984 0 -0.08762707987634553
v -0.054371555731706295 0 -0.09088128585954805
v -0.0737701816551166 0 -0.07174448047080256
v -0.07085106495157854 0 -0.04462789697934388
v -0.047812041062393354 0.003125 -0.029950619735384286
v -0.022002583298817435 0.003125 -0.03876502359161957
v -0.01285688304787785 0.003125 -0.06443349878733559
v -0.027262945186631984 0.003125 -0.08762707987634553
v -0.054371555731706295 0.003125 -0.09088128585954805
v -0.0737701816551166 0.003125 -0.07174448047080256
v -0.07085106495157854 0.003125 -0.04462789697934388
vt 0.42926875 0.791625
vt 0.414325 0.8103875
vt 0.40234375 0.7854687499999999
vt 0.002721875 0.746875
vt 0.00115 0.739930625
vt 0.03125 0.739944375
vt 0.029996875 0.746875
vt 0.04490625 0.8153125
vt 0.0619375 0.8366125
vt 0.03125 0.8436
vt 0.4239375 0.7682249999999999
vt 0.42926875 0.791625
vt 0.40234375 0.7854687499999999
vt 0.251570625 0.809375
vt 0.25 0.802506875
vt 0.2801 0.8025
vt 0.278820625 0.809375
vt 0.0619375 0.8366125
vt 0.0558625 0.863175
vt 0.03125 0.8436
vt 0.40234375 0.7578125
vt 0.4239375 0.7682249999999999
vt 0.40234375 0.7854687499999999
vt 0.126440625 0.621875
vt 0.125 0.615031875
vt 0.1551 0.615018125
vt 0.153746875 0.621875
vt 0.0558625 0.863175
vt 0.03125 0.875
vt 0.03125 0.8436
vt 0.38075 0.7682249999999999
vt 0.40234375 0.7578125
vt 0.40234375 0.7854687499999999
vt 0.377503125 0.996875
vt 0.37615 0.990018125
vt 0.40625 0.990031875
vt 0.404809375 0.996875
vt 0.03125 0.875
vt 0.0066375 0.863175
vt 0.03125 0.8436
vt 0.37541875 0.791625
vt 0.38075 0.7682249999999999
vt 0.40234375 0.7854687499999999
vt 0.252429375 0.996875
vt 0.25115 0.99
vt 0.28125 0.990006875
vt 0.279679375 0.996875
vt 0.0066375 0.863175
vt 0.0005625 0.8366125
vt 0.03125 0.8436
vt 0.3903625 0.8103875
vt 0.37541875 0.791625
vt 0.40234375 0.7854687499999999
vt 0.126253125 0.809375
vt 0.125 0.802438125
vt 0.1551 0.802424375
vt 0.153528125 0.809375
vt 0.0005625 0.8366125
vt 0.01759375 0.8153125
vt 0.03125 0.8436
vt 0.414325 0.8103875
vt 0.3903625 0.8103875
vt 0.40234375 0.7854687499999999
vt 0.12696875 0.996875
vt 0.125575 0.9898875
vt 0.155675 0.9898875
vt 0.15428125 0.996875
vt 0.01759375 0.8153125
vt 0.04490625 0.8153125
vt 0.03125 0.8436
vt 0.15370375 0.52735
vt 0.15438125 0.5337562499999999
vt 0.12568125 0.533769375
vt 0.1263975 0.5273687499999999
vt 0.15438125 0.5337562499999999
vt 0.1551 0.615018125
vt 0.125 0.615031875
vt 0.12568125 0.533769375
vt 0.27879875 0.714825
vt 0.2794375 0.7212375
vt 0.2507625 0.72124375
vt 0.25154875 0.7148375
vt 0.2794375 0.7212375
vt 0.2801 0.8025
vt 0.25 0.802506875
vt 0.25076875 0.72124375
vt 0.03004 0.65225625
vt 0.0306625 0.65868125
vt 0.001975 0.6586681249999999
vt 0.002765 0.6522375
vt 0.0306625 0.65868125
vt 0.03125 0.739944375
vt 0.00115 0.739930625
vt 0.001975 0.6586681249999999
vt 0.15428125 0.902175
vt 0.15498125 0.90861875
vt 0.12626875 0.90861875
vt 0.12696875 0.902175
vt 0.15498125 0.90861875
vt 0.155675 0.9898875
vt 0.125575 0.9898875
vt 0.12626875 0.90861875
vt 0.153485 0.71473125
vt 0.154275 0.721161875
vt 0.1255875 0.721175
vt 0.12621 0.71475
vt 0.154275 0.721161875
vt 0.1551 0.802424375
vt 0.125 0.802438125
vt 0.1255875 0.721175
vt 0.279695 0.90233125
vt 0.28048125 0.90874375
vt 0.25180625 0.9087375
vt 0.252445 0.902325
vt 0.28048125 0.90874375
vt 0.28125 0.990006875
vt 0.25115 0.99
vt 0.2518125 0.9087375
vt 0.4048525 0.9023687499999999
vt 0.40556875 0.908769375
vt 0.37686875 0.90875625
vt 0.37754625 0.90235
vt 0.40556875 0.908769375
vt 0.40625 0.990031875
vt 0.37615 0.990018125
vt 0.37686875 0.90875625
vt 0.029996875 0.75
vt 0.002721875 0.75
vt 0.002721875 0.746875
vt 0.029996875 0.746875
vt 0.153740625 0.625
vt 0.126440625 0.625
vt 0.126440625 0.621875
vt 0.153740625 0.621875
vt 0.404803125 1
vt 0.377503125 1
vt 0.377503125 0.996875
vt 0.404803125 0.996875
vt 0.279679375 1
vt 0.252429375 1
vt 0.252429375 0.996875
vt 0.279679375 0.996875
vt 0.153528125 0.8125
vt 0.126253125 0.8125
vt 0.126253125 0.809375
vt 0.153528125 0.809375
vt 0.15428125 1
vt 0.12696875 1
vt 0.12696875 0.996875
vt 0.15428125 0.996875
vt 0.278820625 0.8125
vt 0.251570625 0.8125
vt 0.251570625 0.809375
vt 0.278820625 0.809375
vt 0.0599375 0.97575625
vt 0.05425625 0.9508
vt 0.0558625 0.949325
vt 0.0619375 0.9758875
vt 0.05425625 0.9508
vt 0.03125 0.93969375
vt 0.03125 0.9375
vt 0.0558625 0.949325
vt 0.03125 0.93969375
vt 0.00824375 0.9508
vt 0.0066375 0.949325
vt 0.03125 0.9375
vt 0.00824375 0.9508
vt 0.0025625 0.97575625
vt 0.0005625 0.9758875
vt 0.0066375 0.949325
vt 0.0025625 0.97575625
vt 0.01848125 0.995775
vt 0.01759375 0.9971875
vt 0.0005625 0.9758875
vt 0.01848125 0.995775
vt 0.04401875 0.995775
vt 0.04490625 0.9971875
vt 0.01759375 0.9971875
vt 0.04401875 0.995775
vt 0.0599375 0.97575625
vt 0.0619375 0.9758875
vt 0.04490625 0.9971875
vt 0.39975625 0.6875
vt 0.37575625 0.6875
vt 0.375 0.625
vt 0.4006 0.625
vt 0.52475 0.875
vt 0.500775 0.875
vt 0.5 0.8125
vt 0.52554375 0.8125
vt 0.530475 1
vt 0.5065 1
vt 0.50570625 0.9375
vt 0.53125 0.9375
vt 0.28049375 0.625
vt 0.25649375 0.625
vt 0.25565 0.5625
vt 0.28125 0.5625
vt 0.3998375 0.5625
vt 0.37585 0.5625
vt 0.375 0.5
vt 0.400575 0.5
vt 0.27760625 0.5
vt 0.25364375 0.5
vt 0.25285625 0.4375
vt 0.27839375 0.4375
vt 0.0304 0.5625
vt 0.0064125 0.5625
vt 0.005675 0.5
vt 0.03125 0.5
vt 0.029996875 0.75
vt 0.002721875 0.75
vt 0.002721875 0.746875
vt 0.029996875 0.746875
vt 0.153740625 0.625
vt 0.126440625 0.625
vt 0.126440625 0.621875
vt 0.153740625 0.621875
vt 0.404803125 1
vt 0.377503125 1
vt 0.377503125 0.996875
vt 0.404803125 0.996875
vt 0.279679375 1
vt 0.252429375 1
vt 0.252429375 0.996875
vt 0.279679375 0.996875
vt 0.153528125 0.8125
vt 0.126253125 0.8125
vt 0.126253125 0.809375
vt 0.153528125 0.809375
vt 0.15428125 1
vt 0.12696875 1
vt 0.12696875 0.996875
vt 0.15428125 0.996875
vt 0.278820625 0.8125
vt 0.251570625 0.8125
vt 0.251570625 0.809375
vt 0.278820625 0.809375
vn 0 -1 0
vn 0.7675214480636674 0.4369383276067629 -0.46903701840095313
vn 0 1 0
vn 0 -1 0
vn 0.11315096552160622 0.4146235134893894 -0.902930894954449
vn 0 1 0
vn 0 -1 0
vn -0.63768481442949 0.4073380082380458 -0.6537842338957776
vn 0 1 0
vn 0 -1 0
vn -0.9072318139249919 0.4107196054993855 0.09077357248008876
vn 0 1 0
vn 0 -1 0
vn -0.4932558078647953 0.4164820688628001 0.7637024252438971
vn 0 1 0
vn 0 -1 0
vn 0.28711000387679825 0.43282800176507147 0.8545336544349325
vn 0 1 0
vn 0 -1 0
vn 0.8404898756444229 0.44720149354117344 0.3059208935554528
vn 0 1 0
vn -0.68152053700169 -0.2197344804086626 -0.6980304547542774
vn -0.6981329438258738 -0.017326129870497156 -0.7157584773991366
vn 0.12094738035228764 -0.2233173739580809 -0.9672130487510939
vn 0.1243233870340808 -0.017610943234243136 -0.9920854550464766
vn 0.8300241051924165 -0.23342922316472162 -0.5065281656258047
vn 0.853138314026346 -0.018462057743088487 -0.5213580051789508
vn 0.9116138418019404 -0.2426139117520454 0.33181123136427665
vn 0.9395162053763053 -0.019225812261909662 0.3419644250184191
vn 0.3100508491732635 -0.23602106957266783 0.9209573962158686
vn 0.31843303501082293 -0.018680369306022977 0.9477612811338025
vn -0.5292160426440143 -0.22212218015896842 0.8188968905116417
vn -0.5424664523394969 -0.01752195418298143 0.8398947131681507
vn -0.9712302338354056 -0.21762748693656134 0.09669596586052595
vn -0.9948853157262205 -0.01715348863819279 0.09954379126735152
vn 0.8539511289894949 0 -0.5203532159000916
vn -0.6989651483886471 0 -0.7151557322276293
vn -0.9951317514613562 0 0.09855352471349474
vn -0.5430190744237842 0 0.8397203610797686
vn 0.31969642549295 0 0.9475200238132335
vn 0.9396965196916331 0 0.34200943098024655
vn 0.12379183915159161 0 -0.9923082084511176
vn 0 -1 0
vn 0 -1 0
vn 0 -1 0
vn 0 -1 0
vn 0 -1 0
vn 0 -1 0
vn 0 -1 0
vn -0.11778584276957163 -0.32758439406681267 0.9374513107393583
vn 0.6597981418908297 -0.32552350973529626 0.6772745798913636
vn 0.9413206519534866 -0.3239392706482061 -0.09475642003458737
vn 0.5125663218548995 -0.32654396471815184 -0.7941314782869962
vn -0.29916831687463885 -0.3374533974997682 -0.8925376869882075
vn -0.8827618336149615 -0.3427931982745358 -0.3212854934936621
vn -0.8035340394804422 -0.3353074973344564 0.4918352667586444
vn 0.323190425499752 0 0.9463339520831371
vn 0.8494752578701887 0 -0.527628454754268
vn 0.11918756239356951 0 -0.9928717565580557
vn -0.7022862899070256 0 -0.7118946319566017
vn -0.994255553147375 0 0.10703221494301327
vn -0.5372944079762191 0 0.8433947587918034
vn 0.9419928691633638 0 0.33563288641814304
usemtl m_d7d976b7-12b3-eaff-8882-af12f45f6095
f 110/239/64 116/240/64 111/241/64
f 67/242/65 87/243/65 85/244/65 69/245/65
f 94/246/66 95/247/66 96/248/66
f 109/249/67 110/250/67 111/251/67
f 69/252/68 85/253/68 83/254/68 71/255/68
f 95/256/69 97/257/69 96/258/69
f 112/259/70 109/260/70 111/261/70
f 71/262/71 83/263/71 82/264/71 73/265/71
f 97/266/72 98/267/72 96/268/72
f 113/269/73 112/270/73 111/271/73
f 73/272/74 82/273/74 93/274/74 75/275/74
f 98/276/75 99/277/75 96/278/75
f 114/279/76 113/280/76 111/281/76
f 75/282/77 93/283/77 91/284/77 77/285/77
f 99/286/78 100/287/78 96/288/78
f 115/289/79 114/290/79 111/291/79
f 77/292/80 91/293/80 89/294/80 79/295/80
f 100/296/81 101/297/81 96/298/81
f 116/299/82 115/300/82 111/301/82
f 79/302/83 89/303/83 87/304/83 67/305/83
f 101/306/84 94/307/84 96/308/84
f 72/309/85 80/310/85 81/311/85 70/312/85
f 80/313/86 82/314/86 83/315/86 81/316/86
f 70/317/87 81/318/87 84/319/87 68/320/87
f 81/321/88 83/322/88 85/323/88 84/324/88
f 68/325/89 84/326/89 86/327/89 66/328/89
f 84/329/90 85/330/90 87/331/90 86/332/90
f 66/333/91 86/334/91 88/335/91 78/336/91
f 86/337/92 87/338/92 89/339/92 88/340/92
f 78/341/93 88/342/93 90/343/93 76/344/93
f 88/345/94 89/346/94 91/347/94 90/348/94
f 76/349/95 90/350/95 92/351/95 74/352/95
f 90/353/96 91/354/96 93/355/96 92/356/96
f 74/357/97 92/358/97 80/359/97 72/360/97
f 92/361/98 93/362/98 82/363/98 80/364/98
f 95/365/99 94/366/99 67/367/99 69/368/99
f 98/369/100 97/370/100 71/371/100 73/372/100
f 99/373/101 98/374/101 73/375/101 75/376/101
f 100/377/102 99/378/102 75/379/102 77/380/102
f 101/381/103 100/382/103 77/383/103 79/384/103
f 94/385/104 101/386/104 79/387/104 67/388/104
f 97/389/105 95/390/105 69/391/105 71/392/105
f 103/393/106 102/394/106 70/395/106 68/396/106
f 102/397/107 104/398/107 72/399/107 70/400/107
f 104/401/108 105/402/108 74/403/108 72/404/108
f 105/405/109 106/406/109 76/407/109 74/408/109
f 106/409/110 107/410/110 78/411/110 76/412/110
f 107/413/111 108/414/111 66/415/111 78/416/111
f 108/417/112 103/418/112 68/419/112 66/420/112
f 110/421/113 109/422/113 102/423/113 103/424/113
f 109/425/114 112/426/114 104/427/114 102/428/114
f 112/429/115 113/430/115 105/431/115 104/432/115
f 113/433/116 114/434/116 106/435/116 105/436/116
f 114/437/117 115/438/117 107/439/117 106/440/117
f 115/441/118 116/442/118 108/443/118 107/444/118
f 116/445/119 110/446/119 103/447/119 108/448/119
f 125/449/120 124/450/120 117/451/120 118/452/120
f 127/453/121 126/454/121 119/455/121 120/456/121
f 128/457/122 127/458/122 120/459/122 121/460/122
f 129/461/123 128/462/123 121/463/123 122/464/123
f 130/465/124 129/466/124 122/467/124 123/468/124
f 124/469/125 130/470/125 123/471/125 117/472/125
f 126/473/126 125/474/126 118/475/126 119/476/126
o Cans
v 0.034309843276240246 0 -0.0444741615635238
v 0.034309843276240246 0.09375 -0.0444741615635238
v 0.05695843642605235 0 -0.05966812092211543
v 0.05695843642605235 0.09375 -0.05966812092211543
v 0.059148954091581565 0 -0.08682851626045926
v 0.059148954091581565 0.09375 -0.08682851626045926
v 0.03923126451057757 0 -0.10550368458814148
v 0.03923126451057757 0.09375 -0.10550368458814148
v 0.012203392610346815 0 -0.10163015009739963
v 0.012203392610346815 0.09375 -0.10163015009739963
v -0.0015811201215587961 0 -0.07812505274975912
v -0.0015811201215587961 0.09375 -0.07812505274975912
v 0.008256838257007085 0 -0.05268831596874483
v 0.008256838257007085 0.09375 -0.05268831596874483
v 0.03970098767975663 0.00625 -0.10699350053334625
v 0.0606278805901333 0.00625 -0.08735169375723405
v 0.04017087261083889 0.0875 -0.10848392018219244
v 0.06210620338504359 0.0875 -0.08787503301591201
v 0.058314481501234014 0.00625 -0.05877160250640911
v 0.05966992287277424 0.0875 -0.05787524585260598
v 0.0345027467575312 0.00625 -0.04277444296180444
v 0.03469641570436677 0.0875 -0.04107516630182332
v 0.0071241649135516255 0.00625 -0.051407195272771794
v 0.005990887866454735 0.0875 -0.050126236338701946
v -0.003205752582166342 0.00625 -0.07816890789985874
v -0.004830546804677087 0.0875 -0.07821215934631692
v 0.011292190654385373 0.00625 -0.10290699391560021
v 0.010380988698423937 0.0875 -0.1041838377338008
v 0.034309843276240246 0.096875 -0.0444741615635238
v 0.05695843642605235 0.096875 -0.05966812092211543
v 0.029789439731308227 0.096875 -0.07555958832380957
v 0.059148954091581565 0.096875 -0.08682851626045926
v 0.03923126451057757 0.096875 -0.10550368458814148
v 0.012203392610346815 0.096875 -0.10163015009739963
v -0.0015811201215587961 0.096875 -0.07812505274975912
v 0.008256838257007085 0.096875 -0.05268831596874483
v 0.05717491219771055 0 -0.08590160206304552
v 0.055089313549965234 0 -0.06039088821849292
v 0.03857208414466416 0 -0.10341305659975635
v 0.013289070085321104 0 -0.09973909494839328
v 0.0003647065146720231 0 -0.07764508112118651
v 0.009531389624377343 0 -0.05376965865959709
v 0.03388631255609426 0 -0.046090737882389585
v 0.05549360249953707 0.0046875 -0.08527994974456053
v 0.05354333016157166 0.0046875 -0.06136094711828258
v 0.02971608962716017 0.0046875 -0.07532689385600583
v 0.038033335098751814 0.0046875 -0.10170426960859755
v 0.014309905322355668 0.0046875 -0.09826528964936168
v 0.0021874404576114823 0.0046875 -0.07755332121977869
v 0.01079544597362947 0.0046875 -0.05516439633620168
v 0.03365105546378192 0.0046875 -0.04795839062226569
v -0.0014455842095503907 0 -0.07763839087311267
v 0.008486223023204443 0 -0.0522379768906197
v 0.03452919736017555 0 -0.04422062448243722
v 0.057072319694426124 0 -0.05962466504006814
v 0.059140967410304 0 -0.08684942066602772
v 0.03917621984141123 0 -0.10539484766875579
v 0.012212775411149707 0 -0.10129570055815777
v -0.0014455842095503907 0.003125 -0.07763839087311267
v 0.008486223023204443 0.003125 -0.0522379768906197
v 0.03452919736017555 0.003125 -0.04422062448243722
v 0.057072319694426124 0.003125 -0.05962466504006814
v 0.059140967410304 0.003125 -0.08684942066602772
v 0.03917621984141123 0.003125 -0.10539484766875579
v 0.012212775411149707 0.003125 -0.10129570055815777
vt 0.42926875 0.791625
vt 0.414325 0.8103875
vt 0.40234375 0.7854687499999999
vt 0.002721875 0.746875
vt 0.00115 0.739930625
vt 0.03125 0.739944375
vt 0.029996875 0.746875
vt 0.04490625 0.8153125
vt 0.0619375 0.8366125
vt 0.03125 0.8436
vt 0.4239375 0.7682249999999999
vt 0.42926875 0.791625
vt 0.40234375 0.7854687499999999
vt 0.251570625 0.809375
vt 0.25 0.802506875
vt 0.2801 0.8025
vt 0.278820625 0.809375
vt 0.0619375 0.8366125
vt 0.0558625 0.863175
vt 0.03125 0.8436
vt 0.40234375 0.7578125
vt 0.4239375 0.7682249999999999
vt 0.40234375 0.7854687499999999
vt 0.126440625 0.621875
vt 0.125 0.615031875
vt 0.1551 0.615018125
vt 0.153746875 0.621875
vt 0.0558625 0.863175
vt 0.03125 0.875
vt 0.03125 0.8436
vt 0.38075 0.7682249999999999
vt 0.40234375 0.7578125
vt 0.40234375 0.7854687499999999
vt 0.377503125 0.996875
vt 0.37615 0.990018125
vt 0.40625 0.990031875
vt 0.404809375 0.996875
vt 0.03125 0.875
vt 0.0066375 0.863175
vt 0.03125 0.8436
vt 0.37541875 0.791625
vt 0.38075 0.7682249999999999
vt 0.40234375 0.7854687499999999
vt 0.252429375 0.996875
vt 0.25115 0.99
vt 0.28125 0.990006875
vt 0.279679375 0.996875
vt 0.0066375 0.863175
vt 0.0005625 0.8366125
vt 0.03125 0.8436
vt 0.3903625 0.8103875
vt 0.37541875 0.791625
vt 0.40234375 0.7854687499999999
vt 0.126253125 0.809375
vt 0.125 0.802438125
vt 0.1551 0.802424375
vt 0.153528125 0.809375
vt 0.0005625 0.8366125
vt 0.01759375 0.8153125
vt 0.03125 0.8436
vt 0.414325 0.8103875
vt 0.3903625 0.8103875
vt 0.40234375 0.7854687499999999
vt 0.12696875 0.996875
vt 0.125575 0.9898875
vt 0.155675 0.9898875
vt 0.15428125 0.996875
vt 0.01759375 0.8153125
vt 0.04490625 0.8153125
vt 0.03125 0.8436
vt 0.15370375 0.52735
vt 0.15438125 0.5337562499999999
vt 0.12568125 0.533769375
vt 0.1263975 0.5273687499999999
vt 0.15438125 0.5337562499999999
vt 0.1551 0.615018125
vt 0.125 0.615031875
vt 0.12568125 0.533769375
vt 0.27879875 0.714825
vt 0.2794375 0.7212375
vt 0.2507625 0.72124375
vt 0.25154875 0.7148375
vt 0.2794375 0.7212375
vt 0.2801 0.8025
vt 0.25 0.802506875
vt 0.25076875 0.72124375
vt 0.03004 0.65225625
vt 0.0306625 0.65868125
vt 0.001975 0.6586681249999999
vt 0.002765 0.6522375
vt 0.0306625 0.65868125
vt 0.03125 0.739944375
vt 0.00115 0.739930625
vt 0.001975 0.6586681249999999
vt 0.15428125 0.902175
vt 0.15498125 0.90861875
vt 0.12626875 0.90861875
vt 0.12696875 0.902175
vt 0.15498125 0.90861875
vt 0.155675 0.9898875
vt 0.125575 0.9898875
vt 0.12626875 0.90861875
vt 0.153485 0.71473125
vt 0.154275 0.721161875
vt 0.1255875 0.721175
vt 0.12621 0.71475
vt 0.154275 0.721161875
vt 0.1551 0.802424375
vt 0.125 0.802438125
vt 0.1255875 0.721175
vt 0.279695 0.90233125
vt 0.28048125 0.90874375
vt 0.25180625 0.9087375
vt 0.252445 0.902325
vt 0.28048125 0.90874375
vt 0.28125 0.990006875
vt 0.25115 0.99
vt 0.2518125 0.9087375
vt 0.4048525 0.9023687499999999
vt 0.40556875 0.908769375
vt 0.37686875 0.90875625
vt 0.37754625 0.90235
vt 0.40556875 0.908769375
vt 0.40625 0.990031875
vt 0.37615 0.990018125
vt 0.37686875 0.90875625
vt 0.029996875 0.75
vt 0.002721875 0.75
vt 0.002721875 0.746875
vt 0.029996875 0.746875
vt 0.153740625 0.625
vt 0.126440625 0.625
vt 0.126440625 0.621875
vt 0.153740625 0.621875
vt 0.404803125 1
vt 0.377503125 1
vt 0.377503125 0.996875
vt 0.404803125 0.996875
vt 0.279679375 1
vt 0.252429375 1
vt 0.252429375 0.996875
vt 0.279679375 0.996875
vt 0.153528125 0.8125
vt 0.126253125 0.8125
vt 0.126253125 0.809375
vt 0.153528125 0.809375
vt 0.15428125 1
vt 0.12696875 1
vt 0.12696875 0.996875
vt 0.15428125 0.996875
vt 0.278820625 0.8125
vt 0.251570625 0.8125
vt 0.251570625 0.809375
vt 0.278820625 0.809375
vt 0.0599375 0.97575625
vt 0.05425625 0.9508
vt 0.0558625 0.949325
vt 0.0619375 0.9758875
vt 0.05425625 0.9508
vt 0.03125 0.93969375
vt 0.03125 0.9375
vt 0.0558625 0.949325
vt 0.03125 0.93969375
vt 0.00824375 0.9508
vt 0.0066375 0.949325
vt 0.03125 0.9375
vt 0.00824375 0.9508
vt 0.0025625 0.97575625
vt 0.0005625 0.9758875
vt 0.0066375 0.949325
vt 0.0025625 0.97575625
vt 0.01848125 0.995775
vt 0.01759375 0.9971875
vt 0.0005625 0.9758875
vt 0.01848125 0.995775
vt 0.04401875 0.995775
vt 0.04490625 0.9971875
vt 0.01759375 0.9971875
vt 0.04401875 0.995775
vt 0.0599375 0.97575625
vt 0.0619375 0.9758875
vt 0.04490625 0.9971875
vt 0.39975625 0.6875
vt 0.37575625 0.6875
vt 0.375 0.625
vt 0.4006 0.625
vt 0.52475 0.875
vt 0.500775 0.875
vt 0.5 0.8125
vt 0.52554375 0.8125
vt 0.530475 1
vt 0.5065 1
vt 0.50570625 0.9375
vt 0.53125 0.9375
vt 0.28049375 0.625
vt 0.25649375 0.625
vt 0.25565 0.5625
vt 0.28125 0.5625
vt 0.3998375 0.5625
vt 0.37585 0.5625
vt 0.375 0.5
vt 0.400575 0.5
vt 0.27760625 0.5
vt 0.25364375 0.5
vt 0.25285625 0.4375
vt 0.27839375 0.4375
vt 0.0304 0.5625
vt 0.0064125 0.5625
vt 0.005675 0.5
vt 0.03125 0.5
vt 0.029996875 0.75
vt 0.002721875 0.75
vt 0.002721875 0.746875
vt 0.029996875 0.746875
vt 0.153740625 0.625
vt 0.126440625 0.625
vt 0.126440625 0.621875
vt 0.153740625 0.621875
vt 0.404803125 1
vt 0.377503125 1
vt 0.377503125 0.996875
vt 0.404803125 0.996875
vt 0.279679375 1
vt 0.252429375 1
vt 0.252429375 0.996875
vt 0.279679375 0.996875
vt 0.153528125 0.8125
vt 0.126253125 0.8125
vt 0.126253125 0.809375
vt 0.153528125 0.809375
vt 0.15428125 1
vt 0.12696875 1
vt 0.12696875 0.996875
vt 0.15428125 0.996875
vt 0.278820625 0.8125
vt 0.251570625 0.8125
vt 0.251570625 0.809375
vt 0.278820625 0.809375
vn 0 -1 0
vn 0.5020694144438222 0.436938327606763 0.7463318303196257
vn 0 1 0
vn 0 -1 0
vn 0.9070070806114063 0.41462351348938953 0.07365797840348301
vn 0 1 0
vn 0 -1 0
vn 0.6253465552342413 0.4073380082380459 -0.6655955475371885
vn 0 1 0
vn 0 -1 0
vn -0.13026007207461537 0.41071960549938574 -0.9024088426437018
vn 0 1 0
vn 0 -1 0
vn -0.7844910659111234 0.4164820688628001 -0.45947410571368585
vn 0 1 0
vn 0 -1 0
vn -0.8411967652694998 0.43282800176507147 0.32411097326098925
vn 0 1 0
vn 0 -1 0
vn -0.26896807118893057 0.44720149354117344 0.8530339974792625
vn 0 1 0
vn 0.6676385761313276 -0.21973448040866267 -0.7113195412617798
vn 0.6846251026185025 -0.01732612987049716 -0.7286894222426422
vn 0.9715681268799562 -0.22331737395808096 0.07864302460765572
vn 0.9965641194990208 -0.01761094323424314 0.08093089895424328
vn 0.5422512060165355 -0.23342922316472167 0.8071396578946715
vn 0.5580751584772208 -0.018462057743088487 0.8295849986074457
vn -0.29173138330220577 -0.24261391175204547 0.9252195900546811
vn -0.3006578293605944 -0.019225812261909666 0.9535382728485762
vn -0.9065566207490818 -0.23602106957266783 0.34992734687900506
vn -0.9329693684968119 -0.01868036930602298 0.35947072377211875
vn -0.8412015616886086 -0.22212218015896848 -0.49299256555659454
vn -0.8627573738239418 -0.017521954182981435 -0.5053144516378144
vn -0.13896840051769108 -0.2176274869365614 -0.9660880190682584
vn -0.14284533560591 -0.017153488638192792 -0.989596366163081
vn 0.557106780025846 0 0.8304408682436298
vn 0.6839866308736502 0 -0.7294945433559548
vn -0.14186676094217898 0 -0.9898857621664101
vn -0.8626072927168755 0 -0.5058741528796096
vn -0.9326732324809203 0 0.36072238828993064
vn -0.3006949272867509 0 0.9537203786771129
vn 0.9967634750987892 0 0.0803901406205129
vn 0 -1 0
vn 0 -1 0
vn 0 -1 0
vn 0 -1 0
vn 0 -1 0
vn 0 -1 0
vn 0 -1 0
vn -0.9416968111156562 -0.3275843940668128 -0.07678268488717867
vn -0.6478499738290014 -0.3255235097352963 0.6887124625120244
vn 0.13572606307156798 -0.32393927064820616 0.9362915062815645
vn 0.8157334700282097 -0.3265439647181519 0.4774389437214839
vn 0.8786386501791629 -0.3374533974997682 -0.3378155220341454
vn 0.2824741705231072 -0.34279319827453586 -0.8959359163489304
vn -0.5264168110957931 -0.3353074973344564 -0.7813157001027432
vn -0.9313358834885477 0 0.36416132706069504
vn 0.5641798597085437 0 0.8256519157001017
vn 0.9971256511013561 0 0.07576566449056474
vn 0.6805837682890946 0 -0.7326702766875534
vn -0.15029916210365654 0 -0.988640562525602
vn -0.8660284867731549 0 -0.4999946600688849
vn -0.29422428642501014 0 0.955736401565669
usemtl m_d7d976b7-12b3-eaff-8882-af12f45f6095
f 175/477/127 181/478/127 176/479/127
f 132/480/128 152/481/128 150/482/128 134/483/128
f 159/484/129 160/485/129 161/486/129
f 174/487/130 175/488/130 176/489/130
f 134/490/131 150/491/131 148/492/131 136/493/131
f 160/494/132 162/495/132 161/496/132
f 177/497/133 174/498/133 176/499/133
f 136/500/134 148/501/134 147/502/134 138/503/134
f 162/504/135 163/505/135 161/506/135
f 178/507/136 177/508/136 176/509/136
f 138/510/137 147/511/137 158/512/137 140/513/137
f 163/514/138 164/515/138 161/516/138
f 179/517/139 178/518/139 176/519/139
f 140/520/140 158/521/140 156/522/140 142/523/140
f 164/524/141 165/525/141 161/526/141
f 180/527/142 179/528/142 176/529/142
f 142/530/143 156/531/143 154/532/143 144/533/143
f 165/534/144 166/535/144 161/536/144
f 181/537/145 180/538/145 176/539/145
f 144/540/146 154/541/146 152/542/146 132/543/146
f 166/544/147 159/545/147 161/546/147
f 137/547/148 145/548/148 146/549/148 135/550/148
f 145/551/149 147/552/149 148/553/149 146/554/149
f 135/555/150 146/556/150 149/557/150 133/558/150
f 146/559/151 148/560/151 150/561/151 149/562/151
f 133/563/152 149/564/152 151/565/152 131/566/152
f 149/567/153 150/568/153 152/569/153 151/570/153
f 131/571/154 151/572/154 153/573/154 143/574/154
f 151/575/155 152/576/155 154/577/155 153/578/155
f 143/579/156 153/580/156 155/581/156 141/582/156
f 153/583/157 154/584/157 156/585/157 155/586/157
f 141/587/158 155/588/158 157/589/158 139/590/158
f 155/591/159 156/592/159 158/593/159 157/594/159
f 139/595/160 157/596/160 145/597/160 137/598/160
f 157/599/161 158/600/161 147/601/161 145/602/161
f 160/603/162 159/604/162 132/605/162 134/606/162
f 163/607/163 162/608/163 136/609/163 138/610/163
f 164/611/164 163/612/164 138/613/164 140/614/164
f 165/615/165 164/616/165 140/617/165 142/618/165
f 166/619/166 165/620/166 142/621/166 144/622/166
f 159/623/167 166/624/167 144/625/167 132/626/167
f 162/627/168 160/628/168 134/629/168 136/630/168
f 168/631/169 167/632/169 135/633/169 133/634/169
f 167/635/170 169/636/170 137/637/170 135/638/170
f 169/639/171 170/640/171 139/641/171 137/642/171
f 170/643/172 171/644/172 141/645/172 139/646/172
f 171/647/173 172/648/173 143/649/173 141/650/173
f 172/651/174 173/652/174 131/653/174 143/654/174
f 173/655/175 168/656/175 133/657/175 131/658/175
f 175/659/176 174/660/176 167/661/176 168/662/176
f 174/663/177 177/664/177 169/665/177 167/666/177
f 177/667/178 178/668/178 170/669/178 169/670/178
f 178/671/179 179/672/179 171/673/179 170/674/179
f 179/675/180 180/676/180 172/677/180 171/678/180
f 180/679/181 181/680/181 173/681/181 172/682/181
f 181/683/182 175/684/182 168/685/182 173/686/182
f 190/687/183 189/688/183 182/689/183 183/690/183
f 192/691/184 191/692/184 184/693/184 185/694/184
f 193/695/185 192/696/185 185/697/185 186/698/185
f 194/699/186 193/700/186 186/701/186 187/702/186
f 195/703/187 194/704/187 187/705/187 188/706/187
f 189/707/188 195/708/188 188/709/188 182/710/188
f 191/711/189 190/712/189 183/713/189 184/714/189
o Cans
v -0.0031901567237597574 0.096875 -0.013224161563523802
v -0.0031901567237597574 0.190625 -0.013224161563523802
v 0.01945843642605235 0.096875 -0.02841812092211543
v 0.01945843642605235 0.190625 -0.02841812092211543
v 0.021648954091581567 0.096875 -0.05557851626045926
v 0.021648954091581567 0.190625 -0.05557851626045926
v 0.0017312645105775713 0.096875 -0.07425368458814148
v 0.0017312645105775713 0.190625 -0.07425368458814148
v -0.025296607389653183 0.096875 -0.07038015009739963
v -0.025296607389653183 0.190625 -0.07038015009739963
v -0.039081120121558795 0.096875 -0.046875052749759116
v -0.039081120121558795 0.190625 -0.046875052749759116
v -0.029243161742992914 0.096875 -0.021438315968744827
v -0.029243161742992914 0.190625 -0.021438315968744827
v 0.0022009876797566327 0.10312500000000001 -0.07574350053334625
v 0.023127880590133293 0.10312500000000001 -0.05610169375723405
v 0.0026708726108388876 0.184375 -0.07723392018219244
v 0.024606203385043587 0.184375 -0.05662503301591201
v 0.020814481501234015 0.10312500000000001 -0.02752160250640911
v 0.022169922872774243 0.184375 -0.026625245852605978
v -0.002997253242468802 0.10312500000000001 -0.011524442961804438
v -0.0028035842956332293 0.184375 -0.00982516630182332
v -0.030375835086448373 0.10312500000000001 -0.02015719527277179
v -0.031509112133545264 0.184375 -0.018876236338701946
v -0.04070575258216634 0.10312500000000001 -0.04691890789985873
v -0.042330546804677086 0.184375 -0.04696215934631692
v -0.026207809345614626 0.10312500000000001 -0.07165699391560021
v -0.02711901130157606 0.184375 -0.0729338377338008
v -0.0031901567237597574 0.19375 -0.013224161563523802
v 0.01945843642605235 0.19375 -0.02841812092211543
v -0.007710560268691772 0.19375 -0.04430958832380958
v 0.021648954091581567 0.19375 -0.05557851626045926
v 0.0017312645105775713 0.19375 -0.07425368458814148
v -0.025296607389653183 0.19375 -0.07038015009739963
v -0.039081120121558795 0.19375 -0.046875052749759116
v -0.029243161742992914 0.19375 -0.021438315968744827
v 0.019674912197710552 0.096875 -0.05465160206304552
v 0.017589313549965235 0.096875 -0.029140888218492922
v 0.0010720841446641583 0.096875 -0.07216305659975635
v -0.024210929914678894 0.096875 -0.06848909494839328
v -0.03713529348532798 0.096875 -0.0463950811211865
v -0.027968610375622656 0.096875 -0.02251965865959709
v -0.0036136874439057385 0.096875 -0.014840737882389581
v 0.017993602499537062 0.1015625 -0.05402994974456053
v 0.01604333016157166 0.1015625 -0.030110947118282574
v -0.0077839103728398334 0.1015625 -0.044076893856005835
v 0.0005333350987518125 0.1015625 -0.07045426960859755
v -0.02319009467764433 0.1015625 -0.06701528964936168
v -0.035312559542388516 0.1015625 -0.04630332121977869
v -0.02670455402637053 0.1015625 -0.02391439633620168
v -0.003848944536218076 0.1015625 -0.01670839062226569
v -0.03894558420955039 0.096875 -0.04638839087311266
v -0.02901377697679556 0.096875 -0.0209879768906197
v -0.002970802639824453 0.096875 -0.012970624482437222
v 0.01957231969442612 0.096875 -0.028374665040068137
v 0.021640967410304003 0.096875 -0.05559942066602772
v 0.0016762198414112285 0.096875 -0.07414484766875579
v -0.025287224588850292 0.096875 -0.07004570055815777
v -0.03894558420955039 0.1 -0.04638839087311266
v -0.02901377697679556 0.1 -0.0209879768906197
v -0.002970802639824453 0.1 -0.012970624482437222
v 0.01957231969442612 0.1 -0.028374665040068137
v 0.021640967410304003 0.1 -0.05559942066602772
v 0.0016762198414112285 0.1 -0.07414484766875579
v -0.025287224588850292 0.1 -0.07004570055815777
vt 0.42926875 0.791625
vt 0.414325 0.8103875
vt 0.40234375 0.7854687499999999
vt 0.002721875 0.746875
vt 0.00115 0.739930625
vt 0.03125 0.739944375
vt 0.029996875 0.746875
vt 0.04490625 0.8153125
vt 0.0619375 0.8366125
vt 0.03125 0.8436
vt 0.4239375 0.7682249999999999
vt 0.42926875 0.791625
vt 0.40234375 0.7854687499999999
vt 0.251570625 0.809375
vt 0.25 0.802506875
vt 0.2801 0.8025
vt 0.278820625 0.809375
vt 0.0619375 0.8366125
vt 0.0558625 0.863175
vt 0.03125 0.8436
vt 0.40234375 0.7578125
vt 0.4239375 0.7682249999999999
vt 0.40234375 0.7854687499999999
vt 0.126440625 0.621875
vt 0.125 0.615031875
vt 0.1551 0.615018125
vt 0.153746875 0.621875
vt 0.0558625 0.863175
vt 0.03125 0.875
vt 0.03125 0.8436
vt 0.38075 0.7682249999999999
vt 0.40234375 0.7578125
vt 0.40234375 0.7854687499999999
vt 0.377503125 0.996875
vt 0.37615 0.990018125
vt 0.40625 0.990031875
vt 0.404809375 0.996875
vt 0.03125 0.875
vt 0.0066375 0.863175
vt 0.03125 0.8436
vt 0.37541875 0.791625
vt 0.38075 0.7682249999999999
vt 0.40234375 0.7854687499999999
vt 0.252429375 0.996875
vt 0.25115 0.99
vt 0.28125 0.990006875
vt 0.279679375 0.996875
vt 0.0066375 0.863175
vt 0.0005625 0.8366125
vt 0.03125 0.8436
vt 0.3903625 0.8103875
vt 0.37541875 0.791625
vt 0.40234375 0.7854687499999999
vt 0.126253125 0.809375
vt 0.125 0.802438125
vt 0.1551 0.802424375
vt 0.153528125 0.809375
vt 0.0005625 0.8366125
vt 0.01759375 0.8153125
vt 0.03125 0.8436
vt 0.414325 0.8103875
vt 0.3903625 0.8103875
vt 0.40234375 0.7854687499999999
vt 0.12696875 0.996875
vt 0.125575 0.9898875
vt 0.155675 0.9898875
vt 0.15428125 0.996875
vt 0.01759375 0.8153125
vt 0.04490625 0.8153125
vt 0.03125 0.8436
vt 0.15370375 0.52735
vt 0.15438125 0.5337562499999999
vt 0.12568125 0.533769375
vt 0.1263975 0.5273687499999999
vt 0.15438125 0.5337562499999999
vt 0.1551 0.615018125
vt 0.125 0.615031875
vt 0.12568125 0.533769375
vt 0.27879875 0.714825
vt 0.2794375 0.7212375
vt 0.2507625 0.72124375
vt 0.25154875 0.7148375
vt 0.2794375 0.7212375
vt 0.2801 0.8025
vt 0.25 0.802506875
vt 0.25076875 0.72124375
vt 0.03004 0.65225625
vt 0.0306625 0.65868125
vt 0.001975 0.6586681249999999
vt 0.002765 0.6522375
vt 0.0306625 0.65868125
vt 0.03125 0.739944375
vt 0.00115 0.739930625
vt 0.001975 0.6586681249999999
vt 0.15428125 0.902175
vt 0.15498125 0.90861875
vt 0.12626875 0.90861875
vt 0.12696875 0.902175
vt 0.15498125 0.90861875
vt 0.155675 0.9898875
vt 0.125575 0.9898875
vt 0.12626875 0.90861875
vt 0.153485 0.71473125
vt 0.154275 0.721161875
vt 0.1255875 0.721175
vt 0.12621 0.71475
vt 0.154275 0.721161875
vt 0.1551 0.802424375
vt 0.125 0.802438125
vt 0.1255875 0.721175
vt 0.279695 0.90233125
vt 0.28048125 0.90874375
vt 0.25180625 0.9087375
vt 0.252445 0.902325
vt 0.28048125 0.90874375
vt 0.28125 0.990006875
vt 0.25115 0.99
vt 0.2518125 0.9087375
vt 0.4048525 0.9023687499999999
vt 0.40556875 0.908769375
vt 0.37686875 0.90875625
vt 0.37754625 0.90235
vt 0.40556875 0.908769375
vt 0.40625 0.990031875
vt 0.37615 0.990018125
vt 0.37686875 0.90875625
vt 0.029996875 0.75
vt 0.002721875 0.75
vt 0.002721875 0.746875
vt 0.029996875 0.746875
vt 0.153740625 0.625
vt 0.126440625 0.625
vt 0.126440625 0.621875
vt 0.153740625 0.621875
vt 0.404803125 1
vt 0.377503125 1
vt 0.377503125 0.996875
vt 0.404803125 0.996875
vt 0.279679375 1
vt 0.252429375 1
vt 0.252429375 0.996875
vt 0.279679375 0.996875
vt 0.153528125 0.8125
vt 0.126253125 0.8125
vt 0.126253125 0.809375
vt 0.153528125 0.809375
vt 0.15428125 1
vt 0.12696875 1
vt 0.12696875 0.996875
vt 0.15428125 0.996875
vt 0.278820625 0.8125
vt 0.251570625 0.8125
vt 0.251570625 0.809375
vt 0.278820625 0.809375
vt 0.0599375 0.97575625
vt 0.05425625 0.9508
vt 0.0558625 0.949325
vt 0.0619375 0.9758875
vt 0.05425625 0.9508
vt 0.03125 0.93969375
vt 0.03125 0.9375
vt 0.0558625 0.949325
vt 0.03125 0.93969375
vt 0.00824375 0.9508
vt 0.0066375 0.949325
vt 0.03125 0.9375
vt 0.00824375 0.9508
vt 0.0025625 0.97575625
vt 0.0005625 0.9758875
vt 0.0066375 0.949325
vt 0.0025625 0.97575625
vt 0.01848125 0.995775
vt 0.01759375 0.9971875
vt 0.0005625 0.9758875
vt 0.01848125 0.995775
vt 0.04401875 0.995775
vt 0.04490625 0.9971875
vt 0.01759375 0.9971875
vt 0.04401875 0.995775
vt 0.0599375 0.97575625
vt 0.0619375 0.9758875
vt 0.04490625 0.9971875
vt 0.39975625 0.6875
vt 0.37575625 0.6875
vt 0.375 0.625
vt 0.4006 0.625
vt 0.52475 0.875
vt 0.500775 0.875
vt 0.5 0.8125
vt 0.52554375 0.8125
vt 0.530475 1
vt 0.5065 1
vt 0.50570625 0.9375
vt 0.53125 0.9375
vt 0.28049375 0.625
vt 0.25649375 0.625
vt 0.25565 0.5625
vt 0.28125 0.5625
vt 0.3998375 0.5625
vt 0.37585 0.5625
vt 0.375 0.5
vt 0.400575 0.5
vt 0.27760625 0.5
vt 0.25364375 0.5
vt 0.25285625 0.4375
vt 0.27839375 0.4375
vt 0.0304 0.5625
vt 0.0064125 0.5625
vt 0.005675 0.5
vt 0.03125 0.5
vt 0.029996875 0.75
vt 0.002721875 0.75
vt 0.002721875 0.746875
vt 0.029996875 0.746875
vt 0.153740625 0.625
vt 0.126440625 0.625
vt 0.126440625 0.621875
vt 0.153740625 0.621875
vt 0.404803125 1
vt 0.377503125 1
vt 0.377503125 0.996875
vt 0.404803125 0.996875
vt 0.279679375 1
vt 0.252429375 1
vt 0.252429375 0.996875
vt 0.279679375 0.996875
vt 0.153528125 0.8125
vt 0.126253125 0.8125
vt 0.126253125 0.809375
vt 0.153528125 0.809375
vt 0.15428125 1
vt 0.12696875 1
vt 0.12696875 0.996875
vt 0.15428125 0.996875
vt 0.278820625 0.8125
vt 0.251570625 0.8125
vt 0.251570625 0.809375
vt 0.278820625 0.809375
vn 0 -1 0
vn 0.5020694144438222 0.436938327606763 0.7463318303196257
vn 0 1 0
vn 0 -1 0
vn 0.9070070806114063 0.41462351348938953 0.07365797840348301
vn 0 1 0
vn 0 -1 0
vn 0.6253465552342413 0.4073380082380459 -0.6655955475371885
vn 0 1 0
vn 0 -1 0
vn -0.13026007207461537 0.41071960549938574 -0.9024088426437018
vn 0 1 0
vn 0 -1 0
vn -0.7844910659111234 0.4164820688628001 -0.45947410571368585
vn 0 1 0
vn 0 -1 0
vn -0.8411967652694998 0.43282800176507147 0.32411097326098925
vn 0 1 0
vn 0 -1 0
vn -0.26896807118893057 0.44720149354117344 0.8530339974792625
vn 0 1 0
vn 0.6676385761313276 -0.21973448040866267 -0.7113195412617798
vn 0.6846251026185025 -0.01732612987049716 -0.7286894222426422
vn 0.9715681268799562 -0.22331737395808096 0.07864302460765572
vn 0.9965641194990208 -0.01761094323424314 0.08093089895424328
vn 0.5422512060165355 -0.23342922316472167 0.8071396578946715
vn 0.5580751584772208 -0.018462057743088487 0.8295849986074457
vn -0.29173138330220577 -0.24261391175204547 0.9252195900546811
vn -0.3006578293605944 -0.019225812261909666 0.9535382728485762
vn -0.9065566207490818 -0.23602106957266783 0.34992734687900506
vn -0.9329693684968119 -0.01868036930602298 0.35947072377211875
vn -0.8412015616886086 -0.22212218015896848 -0.49299256555659454
vn -0.8627573738239418 -0.017521954182981435 -0.5053144516378144
vn -0.13896840051769108 -0.2176274869365614 -0.9660880190682584
vn -0.14284533560591 -0.017153488638192792 -0.989596366163081
vn 0.557106780025846 0 0.8304408682436298
vn 0.6839866308736502 0 -0.7294945433559548
vn -0.14186676094217898 0 -0.9898857621664101
vn -0.8626072927168755 0 -0.5058741528796096
vn -0.9326732324809203 0 0.36072238828993064
vn -0.3006949272867509 0 0.9537203786771129
vn 0.9967634750987892 0 0.0803901406205129
vn 0 -1 0
vn 0 -1 0
vn 0 -1 0
vn 0 -1 0
vn 0 -1 0
vn 0 -1 0
vn 0 -1 0
vn -0.9416968111156562 -0.3275843940668128 -0.07678268488717867
vn -0.6478499738290014 -0.3255235097352963 0.6887124625120244
vn 0.13572606307156798 -0.32393927064820616 0.9362915062815645
vn 0.8157334700282097 -0.3265439647181519 0.4774389437214839
vn 0.8786386501791629 -0.3374533974997682 -0.3378155220341454
vn 0.2824741705231072 -0.34279319827453586 -0.8959359163489304
vn -0.5264168110957931 -0.3353074973344564 -0.7813157001027432
vn -0.9313358834885477 0 0.36416132706069504
vn 0.5641798597085437 0 0.8256519157001017
vn 0.9971256511013561 0 0.07576566449056474
vn 0.6805837682890946 0 -0.7326702766875534
vn -0.15029916210365654 0 -0.988640562525602
vn -0.8660284867731549 0 -0.4999946600688849
vn -0.29422428642501014 0 0.955736401565669
usemtl m_d7d976b7-12b3-eaff-8882-af12f45f6095
f 240/715/190 246/716/190 241/717/190
f 197/718/191 217/719/191 215/720/191 199/721/191
f 224/722/192 225/723/192 226/724/192
f 239/725/193 240/726/193 241/727/193
f 199/728/194 215/729/194 213/730/194 201/731/194
f 225/732/195 227/733/195 226/734/195
f 242/735/196 239/736/196 241/737/196
f 201/738/197 213/739/197 212/740/197 203/741/197
f 227/742/198 228/743/198 226/744/198
f 243/745/199 242/746/199 241/747/199
f 203/748/200 212/749/200 223/750/200 205/751/200
f 228/752/201 229/753/201 226/754/201
f 244/755/202 243/756/202 241/757/202
f 205/758/203 223/759/203 221/760/203 207/761/203
f 229/762/204 230/763/204 226/764/204
f 245/765/205 244/766/205 241/767/205
f 207/768/206 221/769/206 219/770/206 209/771/206
f 230/772/207 231/773/207 226/774/207
f 246/775/208 245/776/208 241/777/208
f 209/778/209 219/779/209 217/780/209 197/781/209
f 231/782/210 224/783/210 226/784/210
f 202/785/211 210/786/211 211/787/211 200/788/211
f 210/789/212 212/790/212 213/791/212 211/792/212
f 200/793/213 211/794/213 214/795/213 198/796/213
f 211/797/214 213/798/214 215/799/214 214/800/214
f 198/801/215 214/802/215 216/803/215 196/804/215
f 214/805/216 215/806/216 217/807/216 216/808/216
f 196/809/217 216/810/217 218/811/217 208/812/217
f 216/813/218 217/814/218 219/815/218 218/816/218
f 208/817/219 218/818/219 220/819/219 206/820/219
f 218/821/220 219/822/220 221/823/220 220/824/220
f 206/825/221 220/826/221 222/827/221 204/828/221
f 220/829/222 221/830/222 223/831/222 222/832/222
f 204/833/223 222/834/223 210/835/223 202/836/223
f 222/837/224 223/838/224 212/839/224 210/840/224
f 225/841/225 224/842/225 197/843/225 199/844/225
f 228/845/226 227/846/226 201/847/226 203/848/226
f 229/849/227 228/850/227 203/851/227 205/852/227
f 230/853/228 229/854/228 205/855/228 207/856/228
f 231/857/229 230/858/229 207/859/229 209/860/229
f 224/861/230 231/862/230 209/863/230 197/864/230
f 227/865/231 225/866/231 199/867/231 201/868/231
f 233/869/232 232/870/232 200/871/232 198/872/232
f 232/873/233 234/874/233 202/875/233 200/876/233
f 234/877/234 235/878/234 204/879/234 202/880/234
f 235/881/235 236/882/235 206/883/235 204/884/235
f 236/885/236 237/886/236 208/887/236 206/888/236
f 237/889/237 238/890/237 196/891/237 208/892/237
f 238/893/238 233/894/238 198/895/238 196/896/238
f 240/897/239 239/898/239 232/899/239 233/900/239
f 239/901/240 242/902/240 234/903/240 232/904/240
f 242/905/241 243/906/241 235/907/241 234/908/241
f 243/909/242 244/910/242 236/911/242 235/912/242
f 244/913/243 245/914/243 237/915/243 236/916/243
f 245/917/244 246/918/244 238/919/244 237/920/244
f 246/921/245 240/922/245 233/923/245 238/924/245
f 255/925/246 254/926/246 247/927/246 248/928/246
f 257/929/247 256/930/247 249/931/247 250/932/247
f 258/933/248 257/934/248 250/935/248 251/936/248
f 259/937/249 258/938/249 251/939/249 252/940/249
f 260/941/250 259/942/250 252/943/250 253/944/250
f 254/945/251 260/946/251 253/947/251 247/948/251
f 256/949/252 255/950/252 248/951/252 249/952/252