# Made in Blockbench 4.12.4
mtllib RationCan.mtl

o Cans
v -0.02869375 0 0.01085625
v -0.02869375 0.09375 0.01085625
v -0.008155625 0 0.028800625
v -0.008155625 0.09375 0.028800625
v 0.01864625 0 0.023886875
v 0.01864625 0.09375 0.023886875
v 0.03153 0 -0.000185625
v 0.03153 0.09375 -0.000185625
v 0.020793125 0 -0.02529
v 0.020793125 0.09375 -0.02529
v -0.00547875 0 -0.03252125
v -0.00547875 0.09375 -0.03252125
v -0.0275025 0 -0.016435
v -0.0275025 0.09375 -0.016435
v 0.033090625 0.00625 -0.0001175
v 0.019534375 0.00625 0.02518
v 0.034651875 0.0875 -0.000049375
v 0.0204225 0.0875 0.0264725
v -0.008670625 0.00625 0.0303425
v -0.009185625 0.0875 0.03188375
v -0.030285625 0.00625 0.0114825
v -0.031876875 0.0875 0.012109375
v -0.029033125 0.00625 -0.0171975
v -0.03056375 0.0875 -0.017960625
v -0.005856875 0.00625 -0.034101875
v -0.006235625 0.0875 -0.0356825
v 0.021790625 0.00625 -0.026500625
v 0.022788125 0.0875 -0.02771125
v -0.02869375 0.096875 0.01085625
v -0.008155625 0.096875 0.028800625
v 0.0001625 0.096875 -0.001555625
v 0.01864625 0.096875 0.023886875
v 0.03153 0.096875 -0.000185625
v 0.020793125 0.096875 -0.02529
v -0.00547875 0.096875 -0.03252125
v -0.0275025 0.096875 -0.016435
v 0.01724 0 0.02222
v -0.00794125 0 0.026808125
v 0.02934 0 -0.00028125
v 0.0192475 0 -0.023751875
v -0.00543875 0 -0.0305175
v -0.026128125 0 -0.01548375
v -0.027241875 0 0.01002875
v 0.016204375 0.0046875 0.020756875
v -0.007404375 0.0046875 0.02506375
v -0.00008125 0.0046875 -0.00156625
v 0.02755 0.0046875 -0.000359375
v 0.018088125 0.0046875 -0.022384375
v -0.005055625 0.0046875 -0.028733125
v -0.02445375 0.0046875 -0.01462375
v -0.02549875 0.0046875 0.009318125
v -0.00591375 0 -0.032264375
v -0.027878125 0 -0.016096875
v -0.028881875 0 0.01113375
v -0.008168125 0 0.028921875
v 0.018664375 0 0.02387375
v 0.031410625 0 -0.000210625
v 0.0204725 0 -0.025194375
v -0.00591375 0.003125 -0.032264375
v -0.027878125 0.003125 -0.016096875
v -0.028881875 0.003125 0.01113375
v -0.008168125 0.003125 0.028921875
v 0.018664375 0.003125 0.02387375
v 0.031410625 0.003125 -0.000210625
v 0.0204725 0.003125 -0.025194375
vt 0.42926875 0.791625
vt 0.414325 0.8103875
vt 0.40234375 0.7854687499999999
vt 0.002721875 0.746875
vt 0.00115 0.739930625
vt 0.03125 0.739944375
vt 0.029996875 0.746875
vt 0.04490625 0.8153125
vt 0.0619375 0.8366125
vt 0.03125 0.8436
vt 0.4239375 0.7682249999999999
vt 0.42926875 0.791625
vt 0.40234375 0.7854687499999999
vt 0.251570625 0.809375
vt 0.25 0.802506875
vt 0.2801 0.8025
vt 0.278820625 0.809375
vt 0.0619375 0.8366125
vt 0.0558625 0.863175
vt 0.03125 0.8436
vt 0.40234375 0.7578125
vt 0.4239375 0.7682249999999999
vt 0.40234375 0.7854687499999999
vt 0.126440625 0.621875
vt 0.125 0.615031875
vt 0.1551 0.615018125
vt 0.153746875 0.621875
vt 0.0558625 0.863175
vt 0.03125 0.875
vt 0.03125 0.8436
vt 0.38075 0.7682249999999999
vt 0.40234375 0.7578125
vt 0.40234375 0.7854687499999999
vt 0.377503125 0.996875
vt 0.37615 0.990018125
vt 0.40625 0.990031875
vt 0.404809375 0.996875
vt 0.03125 0.875
vt 0.0066375 0.863175
vt 0.03125 0.8436
vt 0.37541875 0.791625
vt 0.38075 0.7682249999999999
vt 0.40234375 0.7854687499999999
vt 0.252429375 0.996875
vt 0.25115 0.99
vt 0.28125 0.990006875
vt 0.279679375 0.996875
vt 0.0066375 0.863175
vt 0.0005625 0.8366125
vt 0.03125 0.8436
vt 0.3903625 0.8103875
vt 0.37541875 0.791625
vt 0.40234375 0.7854687499999999
vt 0.126253125 0.809375
vt 0.125 0.802438125
vt 0.1551 0.802424375
vt 0.153528125 0.809375
vt 0.0005625 0.8366125
vt 0.01759375 0.8153125
vt 0.03125 0.8436
vt 0.414325 0.8103875
vt 0.3903625 0.8103875
vt 0.40234375 0.7854687499999999
vt 0.12696875 0.996875
vt 0.125575 0.9898875
vt 0.155675 0.9898875
vt 0.15428125 0.996875
vt 0.01759375 0.8153125
vt 0.04490625 0.8153125
vt 0.03125 0.8436
vt 0.15370375 0.52735
vt 0.15438125 0.5337562499999999
vt 0.12568125 0.533769375
vt 0.1263975 0.5273687499999999
vt 0.15438125 0.5337562499999999
vt 0.1551 0.615018125
vt 0.125 0.615031875
vt 0.12568125 0.533769375
vt 0.27879875 0.714825
vt 0.2794375 0.7212375
vt 0.2507625 0.72124375
vt 0.25154875 0.7148375
vt 0.2794375 0.7212375
vt 0.2801 0.8025
vt 0.25 0.802506875
vt 0.25076875 0.72124375
vt 0.03004 0.65225625
vt 0.0306625 0.65868125
vt 0.001975 0.6586681249999999
vt 0.002765 0.6522375
vt 0.0306625 0.65868125
vt 0.03125 0.739944375
vt 0.00115 0.739930625
vt 0.001975 0.6586681249999999
vt 0.15428125 0.902175
vt 0.15498125 0.90861875
vt 0.12626875 0.90861875
vt 0.12696875 0.902175
vt 0.15498125 0.90861875
vt 0.155675 0.9898875
vt 0.125575 0.9898875
vt 0.12626875 0.90861875
vt 0.153485 0.71473125
vt 0.154275 0.721161875
vt 0.1255875 0.721175
vt 0.12621 0.71475
vt 0.154275 0.721161875
vt 0.1551 0.802424375
vt 0.125 0.802438125
vt 0.1255875 0.721175
vt 0.279695 0.90233125
vt 0.28048125 0.90874375
vt 0.25180625 0.9087375
vt 0.252445 0.902325
vt 0.28048125 0.90874375
vt 0.28125 0.990006875
vt 0.25115 0.99
vt 0.2518125 0.9087375
vt 0.4048525 0.9023687499999999
vt 0.40556875 0.908769375
vt 0.37686875 0.90875625
vt 0.37754625 0.90235
vt 0.40556875 0.908769375
vt 0.40625 0.990031875
vt 0.37615 0.990018125
vt 0.37686875 0.90875625
vt 0.029996875 0.75
vt 0.002721875 0.75
vt 0.002721875 0.746875
vt 0.029996875 0.746875
vt 0.153740625 0.625
vt 0.126440625 0.625
vt 0.126440625 0.621875
vt 0.153740625 0.621875
vt 0.404803125 1
vt 0.377503125 1
vt 0.377503125 0.996875
vt 0.404803125 0.996875
vt 0.279679375 1
vt 0.252429375 1
vt 0.252429375 0.996875
vt 0.279679375 0.996875
vt 0.153528125 0.8125
vt 0.126253125 0.8125
vt 0.126253125 0.809375
vt 0.153528125 0.809375
vt 0.15428125 1
vt 0.12696875 1
vt 0.12696875 0.996875
vt 0.15428125 0.996875
vt 0.278820625 0.8125
vt 0.251570625 0.8125
vt 0.251570625 0.809375
vt 0.278820625 0.809375
vt 0.0599375 0.97575625
vt 0.05425625 0.9508
vt 0.0558625 0.949325
vt 0.0619375 0.9758875
vt 0.05425625 0.9508
vt 0.03125 0.93969375
vt 0.03125 0.9375
vt 0.0558625 0.949325
vt 0.03125 0.93969375
vt 0.00824375 0.9508
vt 0.0066375 0.949325
vt 0.03125 0.9375
vt 0.00824375 0.9508
vt 0.0025625 0.97575625
vt 0.0005625 0.9758875
vt 0.0066375 0.949325
vt 0.0025625 0.97575625
vt 0.01848125 0.995775
vt 0.01759375 0.9971875
vt 0.0005625 0.9758875
vt 0.01848125 0.995775
vt 0.04401875 0.995775
vt 0.04490625 0.9971875
vt 0.01759375 0.9971875
vt 0.04401875 0.995775
vt 0.0599375 0.97575625
vt 0.0619375 0.9758875
vt 0.04490625 0.9971875
vt 0.39975625 0.6875
vt 0.37575625 0.6875
vt 0.375 0.625
vt 0.4006 0.625
vt 0.52475 0.875
vt 0.500775 0.875
vt 0.5 0.8125
vt 0.52554375 0.8125
vt 0.530475 1
vt 0.5065 1
vt 0.50570625 0.9375
vt 0.53125 0.9375
vt 0.28049375 0.625
vt 0.25649375 0.625
vt 0.25565 0.5625
vt 0.28125 0.5625
vt 0.3998375 0.5625
vt 0.37585 0.5625
vt 0.375 0.5
vt 0.400575 0.5
vt 0.27760625 0.5
vt 0.25364375 0.5
vt 0.25285625 0.4375
vt 0.27839375 0.4375
vt 0.0304 0.5625
vt 0.0064125 0.5625
vt 0.005675 0.5
vt 0.03125 0.5
vt 0.029996875 0.75
vt 0.002721875 0.75
vt 0.002721875 0.746875
vt 0.029996875 0.746875
vt 0.153740625 0.625
vt 0.126440625 0.625
vt 0.126440625 0.621875
vt 0.153740625 0.621875
vt 0.404803125 1
vt 0.377503125 1
vt 0.377503125 0.996875
vt 0.404803125 0.996875
vt 0.279679375 1
vt 0.252429375 1
vt 0.252429375 0.996875
vt 0.279679375 0.996875
vt 0.153528125 0.8125
vt 0.126253125 0.8125
vt 0.126253125 0.809375
vt 0.153528125 0.809375
vt 0.15428125 1
vt 0.12696875 1
vt 0.12696875 0.996875
vt 0.15428125 0.996875
vt 0.278820625 0.8125
vt 0.251570625 0.8125
vt 0.251570625 0.809375
vt 0.278820625 0.809375
vn 0 -1 0
vn -0.5909560634657853 0.436938327606763 0.6781267056540597
vn 0 1 0
vn 0 -1 0
vn 0.16360256285290256 0.41462351348938953 0.8951656514241798
vn 0 1 0
vn 0 -1 0
vn 0.8047675275130608 0.4073380082380459 0.43176958404359256
vn 0 1 0
vn 0 -1 0
vn 0.8379462195118418 0.41071960549938563 -0.35938216269626017
vn 0 1 0
vn 0 -1 0
vn 0.24077667664934715 0.4164820688628001 -0.8766808303467446
vn 0 1 0
vn 0 -1 0
vn -0.5307849031868563 0.43282800176507147 -0.728647587957975
vn 0 1 0
vn 0 -1 0
vn -0.8935816282160094 0.44720149354117344 -0.03902176174097592
vn 0 1 0
vn 0.8598794943967624 -0.21973448040866267 0.4607862988799727
vn 0.881053947600764 -0.01732612987049716 0.47269836750386696
vn 0.17549700632509355 -0.22331737395808096 0.9588170582855715
vn 0.17975652834747638 -0.01761094323424314 0.9835534785637553
vn -0.6392921016356965 -0.23342922316472167 0.73267755974844
vn -0.6568770956444004 -0.01846205774308849 0.7537716057544674
vn -0.9691991350751152 -0.24261391175204547 -0.04232642666253771
vn -0.9988632163972176 -0.019225812261909666 -0.043619297008034415
vn -0.5726379805888897 -0.23602106957266783 -0.7850985912003997
vn -0.5886922969505598 -0.01868036930602298 -0.8081413386986614
vn 0.25847526630462636 -0.22212218015896848 -0.9401341786097235
vn 0.2647982395857922 -0.017521954182981435 -0.9641446330472805
vn 0.8972016993650631 -0.2176274869365614 -0.3842751456783534
vn 0.9189055943198626 -0.017153488638192792 -0.394104385353931
vn -0.65795443701601 0 0.7530577393606319
vn 0.8816663862300756 0 0.4718732704784189
vn 0.9194384031535314 0 -0.39323405601051914
vn 0.26537771331906707 0 -0.9641445271708715
vn -0.5898246663933104 0 -0.8075313386575286
vn -0.9990487187699422 0 -0.04360799839636128
vn 0.18033045781377546 0 0.9836060827306196
vn 0 -1 0
vn 0 -1 0
vn 0 -1 0
vn 0 -1 0
vn 0 -1 0
vn 0 -1 0
vn 0 -1 0
vn -0.1695626910847017 -0.3275843940668127 -0.929482091573578
vn -0.8329210660236214 -0.3255235097352963 -0.44752311938456174
vn -0.8692596568127489 -0.32393927064820616 0.3734313832147618
vn -0.2500432484458873 -0.3265439647181519 0.911508317577398
vn 0.5537131536836435 -0.3374533974997682 0.7612666733501324
vn 0.9385173353823112 -0.3427931982745358 0.0409638182253694
vn 0.618446316840637 -0.3353074973344565 -0.7106989766543598
vn -0.5928002947778439 0 -0.805349495878219
vn -0.6514980163439336 0 0.758650337573193
vn 0.18489109678789317 0 0.9827590153891085
vn 0.883853183427724 0 0.4677644173562994
vn 0.9160531666450541 0 -0.4010568486880243
vn 0.25881308918895046 0 -0.9659274221516193
vn -0.9993213222553512 0 -0.036836054156443705
usemtl m_d7d976b7-12b3-eaff-8882-af12f45f6095
f 45/1/1 51/2/1 46/3/1
f 2/4/2 22/5/2 20/6/2 4/7/2
f 29/8/3 30/9/3 31/10/3
f 44/11/4 45/12/4 46/13/4
f 4/14/5 20/15/5 18/16/5 6/17/5
f 30/18/6 32/19/6 31/20/6
f 47/21/7 44/22/7 46/23/7
f 6/24/8 18/25/8 17/26/8 8/27/8
f 32/28/9 33/29/9 31/30/9
f 48/31/10 47/32/10 46/33/10
f 8/34/11 17/35/11 28/36/11 10/37/11
f 33/38/12 34/39/12 31/40/12
f 49/41/13 48/42/13 46/43/13
f 10/44/14 28/45/14 26/46/14 12/47/14
f 34/48/15 35/49/15 31/50/15
f 50/51/16 49/52/16 46/53/16
f 12/54/17 26/55/17 24/56/17 14/57/17
f 35/58/18 36/59/18 31/60/18
f 51/61/19 50/62/19 46/63/19
f 14/64/20 24/65/20 22/66/20 2/67/20
f 36/68/21 29/69/21 31/70/21
f 7/71/22 15/72/22 16/73/22 5/74/22
f 15/75/23 17/76/23 18/77/23 16/78/23
f 5/79/24 16/80/24 19/81/24 3/82/24
f 16/83/25 18/84/25 20/85/25 19/86/25
f 3/87/26 19/88/26 21/89/26 1/90/26
f 19/91/27 20/92/27 22/93/27 21/94/27
f 1/95/28 21/96/28 23/97/28 13/98/28
f 21/99/29 22/100/29 24/101/29 23/102/29
f 13/103/30 23/104/30 25/105/30 11/106/30
f 23/107/31 24/108/31 26/109/31 25/110/31
f 11/111/32 25/112/32 27/113/32 9/114/32
f 25/115/33 26/116/33 28/117/33 27/118/33
f 9/119/34 27/120/34 15/121/34 7/122/34
f 27/123/35 28/124/35 17/125/35 15/126/35
f 30/127/36 29/128/36 2/129/36 4/130/36
f 33/131/37 32/132/37 6/133/37 8/134/37
f 34/135/38 33/136/38 8/137/38 10/138/38
f 35/139/39 34/140/39 10/141/39 12/142/39
f 36/143/40 35/144/40 12/145/40 14/146/40
f 29/147/41 36/148/41 14/149/41 2/150/41
f 32/151/42 30/152/42 4/153/42 6/154/42
f 38/155/43 37/156/43 5/157/43 3/158/43
f 37/159/44 39/160/44 7/161/44 5/162/44
f 39/163/45 40/164/45 9/165/45 7/166/45
f 40/167/46 41/168/46 11/169/46 9/170/46
f 41/171/47 42/172/47 13/173/47 11/174/47
f 42/175/48 43/176/48 1/177/48 13/178/48
f 43/179/49 38/180/49 3/181/49 1/182/49
f 45/183/50 44/184/50 37/185/50 38/186/50
f 44/187/51 47/188/51 39/189/51 37/190/51
f 47/191/52 48/192/52 40/193/52 39/194/52
f 48/195/53 49/196/53 41/197/53 40/198/53
f 49/199/54 50/200/54 42/201/54 41/202/54
f 50/203/55 51/204/55 43/205/55 42/206/55
f 51/207/56 45/208/56 38/209/56 43/210/56
f 60/211/57 59/212/57 52/213/57 53/214/57
f 62/215/58 61/216/58 54/217/58 55/218/58
f 63/219/59 62/220/59 55/221/59 56/222/59
f 64/223/60 63/224/60 56/225/60 57/226/60
f 65/227/61 64/228/61 57/229/61 58/230/61
f 59/231/62 65/232/62 58/233/62 52/234/62
f 61/235/63 60/236/63 53/237/63 54/238/63