# Made in Blockbench 4.12.4
mtllib RuinedRationBox.mtl

o Box
v -0.15624999999999997 -5.551115123125783e-17 -0.09375
v -0.15624999999999997 0.24999999999999997 -0.04375000000000007
v -0.15625 0 0.09375000000000001
v -0.15625 0.25 0.09374999999999996
v 0.15625000000000003 0.00011874999999995917 -0.09920249999999994
v 0.15625000000000003 0.18113124999999997 -0.08829749999999997
v 0.15625 0 0.09375000000000004
v 0.15625 0.18125 0.09375
v -0.14062499999999997 0.012499999999999956 -0.09375
v -0.14062499999999997 0.2375 -0.04375000000000007
v 0.14062500000000003 0.012606874999999962 -0.09865687499999995
v 0.14062500000000003 0.17489312499999995 -0.08884312499999997
v -0.140625 0.012499999999999997 0.06875
v -0.140625 0.2375 0.06874999999999995
v 0.140625 0.012499999999999997 0.06875000000000003
v 0.140625 0.175 0.06875
vt 0.5 0.875
vt 0.375 0.875
vt 0.375 0.78125
vt 0.5 0.78125
vt 0.5 0.65625
vt 0.5 0.75
vt 0.375 0.75
vt 0.375 0.65625
vt 0 0.6875
vt 0.15625 0.6875
vt 0.15625 0.8125
vt 0 0.8125
vt 0.34375 0.875
vt 0.34375 1
vt 0.1875 1
vt 0.1875 0.875
vt 0.34375 0.75
vt 0.34375 0.84375
vt 0.1875 0.84375
vt 0.1875 0.75
vt 0.34375 0.71875
vt 0.1875 0.71875
vt 0.1875 0.625
vt 0.34375 0.625
vt 0.1484375 0.88125
vt 0.0078125 0.88125
vt 0 0.875
vt 0.15625 0.875
vt 0.1484375 0.99375
vt 0.1484375 0.88125
vt 0.15625 0.875
vt 0.15625 1
vt 0.0078125 0.99375
vt 0.1484375 0.99375
vt 0.15625 1
vt 0 1
vt 0.0078125 0.88125
vt 0.0078125 0.99375
vt 0 1
vt 0 0.875
vt 0 0.5625
vt 0.15625 0.5625
vt 0.15625 0.65625
vt 0 0.65625
vt 0.375 0.53125
vt 0.5 0.53125
vt 0.5 0.625
vt 0.375 0.625
vt 0.375 0.90625
vt 0.53125 0.90625
vt 0.53125 1
vt 0.375 1
vt 0.1875 0.5
vt 0.3125 0.5
vt 0.3125 0.59375
vt 0.1875 0.59375
vn -1 -2.719262146893782e-32 -1.2246467991473532e-16
vn 1 2.719262146893782e-32 1.2246467991473532e-16
vn 1.2246467991473532e-16 -2.220446049250313e-16 -1
vn -1.2246467991473532e-16 2.220446049250313e-16 1
vn 0.00037999997256400557 -0.9999999278000079 2.2209112546842025e-16
vn 0.2152157320142433 0.9765665306027919 -1.9048500373696565e-16
vn -0.01744814791285701 0.02184350519558133 -0.999609135319992
vn -0.17098858021437452 0.21373572526796847 -0.9618107637058593
vn -0.2093033298257403 -0.26162916228217664 -0.9422007734911833
vn 0.010756944199308055 0.06035809329736644 -0.9981188249527204
vn -7.818322872728511e-20 0.9999997962134354 0.0006384145108752553
vn 1 2.719262146893782e-32 1.2246467991473532e-16
vn -0.2169304578186562 -0.9761870601839528 1.9019075103095485e-16
vn -1 -2.719262146893782e-32 -1.2246467991473532e-16
usemtl m_4b3e5901-2d4b-6f76-0262-0752ef85d82a
f 2/1/1 1/2/1 3/3/1 4/4/1
f 7/5/2 5/6/2 6/7/2 8/8/2
f 15/9/3 13/10/3 14/11/3 16/12/3
f 4/13/4 3/14/4 7/15/4 8/16/4
f 3/17/5 1/18/5 5/19/5 7/20/5
f 6/21/6 2/22/6 4/23/6 8/24/6
f 9/25/7 11/26/7 5/27/7 1/28/7
f 10/29/8 9/30/8 1/31/8 2/32/8
f 12/33/9 10/34/9 2/35/9 6/36/9
f 11/37/10 12/38/10 6/39/10 5/40/10
f 13/41/11 15/42/11 11/43/11 9/44/11
f 14/45/12 13/46/12 9/47/12 10/48/12
f 16/49/13 14/50/13 10/51/13 12/52/13
f 15/53/14 16/54/14 12/55/14 11/56/14