# Made in Blockbench 4.12.4
mtllib ServerBlock.mtl

o Floor
v 0.4375 2.08101875 0.5
v 0.4375 2.08101875 -0.5040325
v 0.4375 -0.0023150000000000115 0.5
v 0.4375 -0.0023150000000000115 -0.5040325
v -0.3958331249999998 2.08101875 0.5
v -0.3958331249999998 2.08101875 -0.5040325
v -0.3958331249999998 -0.0023150000000000115 0.5
v -0.3958331249999998 -0.0023150000000000115 -0.5040325
vt 0.1875 1
vt 0 1
vt 0 0.6484375
vt 0.1875 0.6484375
vt 0.37890625 0.6484375
vt 0.37890625 1
vt 0.19140625 1
vt 0.19140625 0.6484375
vt 0.3203125 0.45703125
vt 0.4765625 0.45703125
vt 0.4765625 0.64453125
vt 0.3203125 0.64453125
vt 0.5390625 0.8125
vt 0.5390625 1
vt 0.3828125 1
vt 0.3828125 0.8125
vt 0.15625 0.29296875
vt 0.15625 0.64453125
vt 0 0.64453125
vt 0 0.29296875
vt 0.31640625 0.64453125
vt 0.16015625 0.64453125
vt 0.16015625 0.29296875
vt 0.31640625 0.29296875
vn 1 0 0
vn -1 0 0
vn 0 1 0
vn 0 -1 0
vn 0 0 1
vn 0 0 -1
usemtl m_5e090ce1-8fdb-f774-eb73-421c23e3c7ee
f 2/1/1 1/2/1 3/3/1 4/4/1
f 7/5/2 5/6/2 6/7/2 8/8/2
f 5/9/3 1/10/3 2/11/3 6/12/3
f 4/13/4 3/14/4 7/15/4 8/16/4
f 3/17/5 1/18/5 5/19/5 7/20/5
f 6/21/6 2/22/6 4/23/6 8/24/6