# Made in Blockbench 4.12.4
mtllib Shelf.mtl

o Shelf
v -1 0 -0.375
v -1 1.875 -0.375
v -0.9847623654051871 0 -0.34375
v -0.9847623654051871 1.875 -0.34375
v -0.9695247308103743 0 -0.375
v -0.9695247308103743 1.875 -0.375
v -0.9847623654051871 0 -0.40625
v -0.9847623654051871 1.875 -0.40625
v -1.0152376345948129 0 -0.40625
v -1.0152376345948129 1.875 -0.40625
v -1.0304752691896257 0 -0.375
v -1.0304752691896257 1.875 -0.375
v -1.0152376345948129 0 -0.34375
v -1.0152376345948129 1.875 -0.34375
v 1 0 -0.375
v 1 1.875 -0.375
v 1.015237634594813 0 -0.34375
v 1.015237634594813 1.875 -0.34375
v 1.0304752691896257 0 -0.375
v 1.0304752691896257 1.875 -0.375
v 1.015237634594813 0 -0.40625
v 1.015237634594813 1.875 -0.40625
v 0.9847623654051871 0 -0.40625
v 0.9847623654051871 1.875 -0.40625
v 0.9695247308103743 0 -0.375
v 0.9695247308103743 1.875 -0.375
v 0.9847623654051871 0 -0.34375
v 0.9847623654051871 1.875 -0.34375
v 1 0 0.375
v 1 1.875 0.375
v 1.015237634594813 0 0.40625
v 1.015237634594813 1.875 0.40625
v 1.0304752691896257 0 0.375
v 1.0304752691896257 1.875 0.375
v 1.015237634594813 0 0.34375
v 1.015237634594813 1.875 0.34375
v 0.9847623654051871 0 0.34375
v 0.9847623654051871 1.875 0.34375
v 0.9695247308103743 0 0.375
v 0.9695247308103743 1.875 0.375
v 0.9847623654051871 0 0.40625
v 0.9847623654051871 1.875 0.40625
v -1 0 0.375
v -1 1.875 0.375
v -0.9847623654051871 0 0.40625
v -0.9847623654051871 1.875 0.40625
v -0.9695247308103743 0 0.375
v -0.9695247308103743 1.875 0.375
v -0.9847623654051871 0 0.34375
v -0.9847623654051871 1.875 0.34375
v -1.0152376345948129 0 0.34375
v -1.0152376345948129 1.875 0.34375
v -1.0304752691896257 0 0.375
v -1.0304752691896257 1.875 0.375
v -1.0152376345948129 0 0.40625
v -1.0152376345948129 1.875 0.40625
v 1.0625 1.78125 0.4375
v 1.0625 1.78125 -0.4375
v 1.0625 1.71875 0.4375
v 1.0625 1.71875 -0.4375
v -1.0625 1.78125 0.4375
v -1.0625 1.78125 -0.4375
v -1.0625 1.71875 0.4375
v -1.0625 1.71875 -0.4375
v 1.0625 1.09375 0.4375
v 1.0625 1.09375 -0.4375
v 1.0625 1.03125 0.4375
v 1.0625 1.03125 -0.4375
v -1.0625 1.09375 0.4375
v -1.0625 1.09375 -0.4375
v -1.0625 1.03125 0.4375
v -1.0625 1.03125 -0.4375
v 1.0625 0.40625 0.4375
v 1.0625 0.40625 -0.4375
v 1.0625 0.34375 0.4375
v 1.0625 0.34375 -0.4375
v -1.0625 0.40625 0.4375
v -1.0625 0.40625 -0.4375
v -1.0625 0.34375 0.4375
v -1.0625 0.34375 -0.4375
vt 0.499903125 0.58203125
vt 0.4979984375 0.5859375
vt 0.49609375 0.58203125
vt 0.328125 0.3671875
vt 0.3359375 0.3671875
vt 0.3359375 0.6015625
vt 0.328125 0.6015625
vt 0.4276859375 0.5
vt 0.429590625 0.50390625
vt 0.42578125 0.50390625
vt 0.4979984375 0.578125
vt 0.499903125 0.58203125
vt 0.49609375 0.58203125
vt 0.34375 0.3671875
vt 0.3515625 0.3671875
vt 0.3515625 0.6015625
vt 0.34375 0.6015625
vt 0.429590625 0.50390625
vt 0.4276859375 0.5078125
vt 0.42578125 0.50390625
vt 0.4941890625 0.578125
vt 0.4979984375 0.578125
vt 0.49609375 0.58203125
vt 0.09375 0.3671875
vt 0.1015625 0.3671875
vt 0.1015625 0.6015625
vt 0.09375 0.6015625
vt 0.4276859375 0.5078125
vt 0.4238765625 0.5078125
vt 0.42578125 0.50390625
vt 0.492284375 0.58203125
vt 0.4941890625 0.578125
vt 0.49609375 0.58203125
vt 0.359375 0.3671875
vt 0.3671875 0.3671875
vt 0.3671875 0.6015625
vt 0.359375 0.6015625
vt 0.4238765625 0.5078125
vt 0.421971875 0.50390625
vt 0.42578125 0.50390625
vt 0.4941890625 0.5859375
vt 0.492284375 0.58203125
vt 0.49609375 0.58203125
vt 0.1875 0.3671875
vt 0.1953125 0.3671875
vt 0.1953125 0.6015625
vt 0.1875 0.6015625
vt 0.421971875 0.50390625
vt 0.4238765625 0.5
vt 0.42578125 0.50390625
vt 0.4979984375 0.5859375
vt 0.4941890625 0.5859375
vt 0.49609375 0.58203125
vt 0.109375 0.3671875
vt 0.1171875 0.3671875
vt 0.1171875 0.6015625
vt 0.109375 0.6015625
vt 0.4238765625 0.5
vt 0.4276859375 0.5
vt 0.42578125 0.50390625
vt 0.382715625 0.50390625
vt 0.3808109375 0.5078125
vt 0.37890625 0.50390625
vt 0.125 0.3671875
vt 0.1328125 0.3671875
vt 0.1328125 0.6015625
vt 0.125 0.6015625
vt 0.3964359375 0.5
vt 0.398340625 0.50390625
vt 0.39453125 0.50390625
vt 0.3808109375 0.5
vt 0.382715625 0.50390625
vt 0.37890625 0.50390625
vt 0.140625 0.3671875
vt 0.1484375 0.3671875
vt 0.1484375 0.6015625
vt 0.140625 0.6015625
vt 0.398340625 0.50390625
vt 0.3964359375 0.5078125
vt 0.39453125 0.50390625
vt 0.3770015625 0.5
vt 0.3808109375 0.5
vt 0.37890625 0.50390625
vt 0 0.3671875
vt 0.0078125 0.3671875
vt 0.0078125 0.6015625
vt 0 0.6015625
vt 0.3964359375 0.5078125
vt 0.3926265625 0.5078125
vt 0.39453125 0.50390625
vt 0.375096875 0.50390625
vt 0.3770015625 0.5
vt 0.37890625 0.50390625
vt 0.203125 0.3671875
vt 0.2109375 0.3671875
vt 0.2109375 0.6015625
vt 0.203125 0.6015625
vt 0.3926265625 0.5078125
vt 0.390721875 0.50390625
vt 0.39453125 0.50390625
vt 0.3770015625 0.5078125
vt 0.375096875 0.50390625
vt 0.37890625 0.50390625
vt 0.21875 0.3671875
vt 0.2265625 0.3671875
vt 0.2265625 0.6015625
vt 0.21875 0.6015625
vt 0.390721875 0.50390625
vt 0.3926265625 0.5
vt 0.39453125 0.50390625
vt 0.3808109375 0.5078125
vt 0.3770015625 0.5078125
vt 0.37890625 0.50390625
vt 0.015625 0.3671875
vt 0.0234375 0.3671875
vt 0.0234375 0.6015625
vt 0.015625 0.6015625
vt 0.3926265625 0.5
vt 0.3964359375 0.5
vt 0.39453125 0.50390625
vt 0.499903125 0.59765625
vt 0.4979984375 0.6015625
vt 0.49609375 0.59765625
vt 0.15625 0.3671875
vt 0.1640625 0.3671875
vt 0.1640625 0.6015625
vt 0.15625 0.6015625
vt 0.4120609375 0.5
vt 0.413965625 0.50390625
vt 0.41015625 0.50390625
vt 0.4979984375 0.59375
vt 0.499903125 0.59765625
vt 0.49609375 0.59765625
vt 0.171875 0.3671875
vt 0.1796875 0.3671875
vt 0.1796875 0.6015625
vt 0.171875 0.6015625
vt 0.413965625 0.50390625
vt 0.4120609375 0.5078125
vt 0.41015625 0.50390625
vt 0.4941890625 0.59375
vt 0.4979984375 0.59375
vt 0.49609375 0.59765625
vt 0.03125 0.3671875
vt 0.0390625 0.3671875
vt 0.0390625 0.6015625
vt 0.03125 0.6015625
vt 0.4120609375 0.5078125
vt 0.4082515625 0.5078125
vt 0.41015625 0.50390625
vt 0.492284375 0.59765625
vt 0.4941890625 0.59375
vt 0.49609375 0.59765625
vt 0.234375 0.3671875
vt 0.2421875 0.3671875
vt 0.2421875 0.6015625
vt 0.234375 0.6015625
vt 0.4082515625 0.5078125
vt 0.406346875 0.50390625
vt 0.41015625 0.50390625
vt 0.4941890625 0.6015625
vt 0.492284375 0.59765625
vt 0.49609375 0.59765625
vt 0.25 0.3671875
vt 0.2578125 0.3671875
vt 0.2578125 0.6015625
vt 0.25 0.6015625
vt 0.406346875 0.50390625
vt 0.4082515625 0.5
vt 0.41015625 0.50390625
vt 0.4979984375 0.6015625
vt 0.4941890625 0.6015625
vt 0.49609375 0.59765625
vt 0.046875 0.3671875
vt 0.0546875 0.3671875
vt 0.0546875 0.6015625
vt 0.046875 0.6015625
vt 0.4082515625 0.5
vt 0.4120609375 0.5
vt 0.41015625 0.50390625
vt 0.499903125 0.56640625
vt 0.4979984375 0.5703125
vt 0.49609375 0.56640625
vt 0.265625 0.3671875
vt 0.2734375 0.3671875
vt 0.2734375 0.6015625
vt 0.265625 0.6015625
vt 0.4433109375 0.5
vt 0.445215625 0.50390625
vt 0.44140625 0.50390625
vt 0.4979984375 0.5625
vt 0.499903125 0.56640625
vt 0.49609375 0.56640625
vt 0.28125 0.3671875
vt 0.2890625 0.3671875
vt 0.2890625 0.6015625
vt 0.28125 0.6015625
vt 0.445215625 0.50390625
vt 0.4433109375 0.5078125
vt 0.44140625 0.50390625
vt 0.4941890625 0.5625
vt 0.4979984375 0.5625
vt 0.49609375 0.56640625
vt 0.0625 0.3671875
vt 0.0703125 0.3671875
vt 0.0703125 0.6015625
vt 0.0625 0.6015625
vt 0.4433109375 0.5078125
vt 0.4395015625 0.5078125
vt 0.44140625 0.50390625
vt 0.492284375 0.56640625
vt 0.4941890625 0.5625
vt 0.49609375 0.56640625
vt 0.296875 0.3671875
vt 0.3046875 0.3671875
vt 0.3046875 0.6015625
vt 0.296875 0.6015625
vt 0.4395015625 0.5078125
vt 0.437596875 0.50390625
vt 0.44140625 0.50390625
vt 0.4941890625 0.5703125
vt 0.492284375 0.56640625
vt 0.49609375 0.56640625
vt 0.3125 0.3671875
vt 0.3203125 0.3671875
vt 0.3203125 0.6015625
vt 0.3125 0.6015625
vt 0.437596875 0.50390625
vt 0.4395015625 0.5
vt 0.44140625 0.50390625
vt 0.4979984375 0.5703125
vt 0.4941890625 0.5703125
vt 0.49609375 0.56640625
vt 0.078125 0.3671875
vt 0.0859375 0.3671875
vt 0.0859375 0.6015625
vt 0.078125 0.6015625
vt 0.4395015625 0.5
vt 0.4433109375 0.5
vt 0.44140625 0.50390625
vt 0.484375 0.6015625
vt 0.375 0.6015625
vt 0.375 0.59375
vt 0.484375 0.59375
vt 0.484375 0.578125
vt 0.484375 0.5859375
vt 0.375 0.5859375
vt 0.375 0.578125
vt 0 0.890625
vt 0.265625 0.890625
vt 0.265625 1
vt 0 1
vt 0.265625 0.7734375
vt 0.265625 0.8828125
vt 0 0.8828125
vt 0 0.7734375
vt 0.265625 0.640625
vt 0.265625 0.6484375
vt 0 0.6484375
vt 0 0.640625
vt 0.5390625 0.6484375
vt 0.2734375 0.6484375
vt 0.2734375 0.640625
vt 0.5390625 0.640625
vt 0.484375 0.5703125
vt 0.375 0.5703125
vt 0.375 0.5625
vt 0.484375 0.5625
vt 0.484375 0.546875
vt 0.484375 0.5546875
vt 0.375 0.5546875
vt 0.375 0.546875
vt 0 0.65625
vt 0.265625 0.65625
vt 0.265625 0.765625
vt 0 0.765625
vt 0.5390625 0.890625
vt 0.5390625 1
vt 0.2734375 1
vt 0.2734375 0.890625
vt 0.265625 0.625
vt 0.265625 0.6328125
vt 0 0.6328125
vt 0 0.625
vt 0.5390625 0.6328125
vt 0.2734375 0.6328125
vt 0.2734375 0.625
vt 0.5390625 0.625
vt 0.484375 0.5390625
vt 0.375 0.5390625
vt 0.375 0.53125
vt 0.484375 0.53125
vt 0.484375 0.515625
vt 0.484375 0.5234375
vt 0.375 0.5234375
vt 0.375 0.515625
vt 0.2734375 0.7734375
vt 0.5390625 0.7734375
vt 0.5390625 0.8828125
vt 0.2734375 0.8828125
vt 0.5390625 0.65625
vt 0.5390625 0.765625
vt 0.2734375 0.765625
vt 0.2734375 0.65625
vt 0.265625 0.609375
vt 0.265625 0.6171875
vt 0 0.6171875
vt 0 0.609375
vt 0.5390625 0.6171875
vt 0.2734375 0.6171875
vt 0.2734375 0.609375
vt 0.5390625 0.609375
vn 0 -1 0
vn 0.8988394720672359 0 0.43827799791216165
vn 0 1 0
vn 0 -1 0
vn 0.898839472067236 0 -0.43827799791216165
vn 0 1 0
vn 0 -1 0
vn -2.27689339205881e-16 0 -1
vn 0 1 0
vn 0 -1 0
vn -0.898839472067236 0 -0.4382779979121617
vn 0 1 0
vn 0 -1 0
vn -0.8988394720672361 0 0.43827799791216127
vn 0 1 0
vn 0 -1 0
vn -3.415340088088215e-16 0 1
vn 0 1 0
vn 0 -1 0
vn 0.8988394720672385 0 0.4382779979121564
vn 0 1 0
vn 0 -1 0
vn 0.8988394720672385 0 -0.4382779979121564
vn 0 1 0
vn 0 -1 0
vn 0 0 -1
vn 0 1 0
vn 0 -1 0
vn -0.898839472067236 0 -0.43827799791216154
vn 0 1 0
vn 0 -1 0
vn -0.898839472067236 0 0.43827799791216154
vn 0 1 0
vn 0 -1 0
vn 0 0 1
vn 0 1 0
vn 0 -1 0
vn 0.8988394720672385 0 0.4382779979121564
vn 0 1 0
vn 0 -1 0
vn 0.8988394720672385 0 -0.4382779979121564
vn 0 1 0
vn 0 -1 0
vn 0 0 -1
vn 0 1 0
vn 0 -1 0
vn -0.898839472067236 0 -0.43827799791216154
vn 0 1 0
vn 0 -1 0
vn -0.898839472067236 0 0.43827799791216154
vn 0 1 0
vn 0 -1 0
vn 0 0 1
vn 0 1 0
vn 0 -1 0
vn 0.898839472067236 0 0.43827799791216154
vn 0 1 0
vn 0 -1 0
vn 0.898839472067236 0 -0.43827799791216154
vn 0 1 0
vn 0 -1 0
vn 0 0 -1
vn 0 1 0
vn 0 -1 0
vn -0.898839472067236 0 -0.43827799791216154
vn 0 1 0
vn 0 -1 0
vn -0.898839472067236 0 0.43827799791216154
vn 0 1 0
vn 0 -1 0
vn 0 0 1
vn 0 1 0
vn 1 0 0
vn -1 0 0
vn 0 1 0
vn 0 -1 0
vn 0 0 1
vn 0 0 -1
vn 1 0 0
vn -1 0 0
vn 0 1 0
vn 0 -1 0
vn 0 0 1
vn 0 0 -1
vn 1 0 0
vn -1 0 0
vn 0 1 0
vn 0 -1 0
vn 0 0 1
vn 0 0 -1
usemtl m_4241db26-0fbd-3d1e-8844-f28dbf3f16af
f 5/1/1 3/2/1 1/3/1
f 3/4/2 5/5/2 6/6/2 4/7/2
f 4/8/3 6/9/3 2/10/3
f 7/11/4 5/12/4 1/13/4
f 5/14/5 7/15/5 8/16/5 6/17/5
f 6/18/6 8/19/6 2/20/6
f 9/21/7 7/22/7 1/23/7
f 7/24/8 9/25/8 10/26/8 8/27/8
f 8/28/9 10/29/9 2/30/9
f 11/31/10 9/32/10 1/33/10
f 9/34/11 11/35/11 12/36/11 10/37/11
f 10/38/12 12/39/12 2/40/12
f 13/41/13 11/42/13 1/43/13
f 11/44/14 13/45/14 14/46/14 12/47/14
f 12/48/15 14/49/15 2/50/15
f 3/51/16 13/52/16 1/53/16
f 13/54/17 3/55/17 4/56/17 14/57/17
f 14/58/18 4/59/18 2/60/18
f 19/61/19 17/62/19 15/63/19
f 17/64/20 19/65/20 20/66/20 18/67/20
f 18/68/21 20/69/21 16/70/21
f 21/71/22 19/72/22 15/73/22
f 19/74/23 21/75/23 22/76/23 20/77/23
f 20/78/24 22/79/24 16/80/24
f 23/81/25 21/82/25 15/83/25
f 21/84/26 23/85/26 24/86/26 22/87/26
f 22/88/27 24/89/27 16/90/27
f 25/91/28 23/92/28 15/93/28
f 23/94/29 25/95/29 26/96/29 24/97/29
f 24/98/30 26/99/30 16/100/30
f 27/101/31 25/102/31 15/103/31
f 25/104/32 27/105/32 28/106/32 26/107/32
f 26/108/33 28/109/33 16/110/33
f 17/111/34 27/112/34 15/113/34
f 27/114/35 17/115/35 18/116/35 28/117/35
f 28/118/36 18/119/36 16/120/36
f 33/121/37 31/122/37 29/123/37
f 31/124/38 33/125/38 34/126/38 32/127/38
f 32/128/39 34/129/39 30/130/39
f 35/131/40 33/132/40 29/133/40
f 33/134/41 35/135/41 36/136/41 34/137/41
f 34/138/42 36/139/42 30/140/42
f 37/141/43 35/142/43 29/143/43
f 35/144/44 37/145/44 38/146/44 36/147/44
f 36/148/45 38/149/45 30/150/45
f 39/151/46 37/152/46 29/153/46
f 37/154/47 39/155/47 40/156/47 38/157/47
f 38/158/48 40/159/48 30/160/48
f 41/161/49 39/162/49 29/163/49
f 39/164/50 41/165/50 42/166/50 40/167/50
f 40/168/51 42/169/51 30/170/51
f 31/171/52 41/172/52 29/173/52
f 41/174/53 31/175/53 32/176/53 42/177/53
f 42/178/54 32/179/54 30/180/54
f 47/181/55 45/182/55 43/183/55
f 45/184/56 47/185/56 48/186/56 46/187/56
f 46/188/57 48/189/57 44/190/57
f 49/191/58 47/192/58 43/193/58
f 47/194/59 49/195/59 50/196/59 48/197/59
f 48/198/60 50/199/60 44/200/60
f 51/201/61 49/202/61 43/203/61
f 49/204/62 51/205/62 52/206/62 50/207/62
f 50/208/63 52/209/63 44/210/63
f 53/211/64 51/212/64 43/213/64
f 51/214/65 53/215/65 54/216/65 52/217/65
f 52/218/66 54/219/66 44/220/66
f 55/221/67 53/222/67 43/223/67
f 53/224/68 55/225/68 56/226/68 54/227/68
f 54/228/69 56/229/69 44/230/69
f 45/231/70 55/232/70 43/233/70
f 55/234/71 45/235/71 46/236/71 56/237/71
f 56/238/72 46/239/72 44/240/72
f 58/241/73 57/242/73 59/243/73 60/244/73
f 63/245/74 61/246/74 62/247/74 64/248/74
f 61/249/75 57/250/75 58/251/75 62/252/75
f 60/253/76 59/254/76 63/255/76 64/256/76
f 59/257/77 57/258/77 61/259/77 63/260/77
f 62/261/78 58/262/78 60/263/78 64/264/78
f 66/265/79 65/266/79 67/267/79 68/268/79
f 71/269/80 69/270/80 70/271/80 72/272/80
f 69/273/81 65/274/81 66/275/81 70/276/81
f 68/277/82 67/278/82 71/279/82 72/280/82
f 67/281/83 65/282/83 69/283/83 71/284/83
f 70/285/84 66/286/84 68/287/84 72/288/84
f 74/289/85 73/290/85 75/291/85 76/292/85
f 79/293/86 77/294/86 78/295/86 80/296/86
f 77/297/87 73/298/87 74/299/87 78/300/87
f 76/301/88 75/302/88 79/303/88 80/304/88
f 75/305/89 73/306/89 77/307/89 79/308/89
f 78/309/90 74/310/90 76/311/90 80/312/90