# Made in Blockbench 4.12.4
mtllib ShipBed.mtl

o Bed
v 0.3125 0.4375 0.75
v 0.3125 0.4375 -0.75
v 0.3125 0.3125 0.75
v 0.3125 0.3125 -0.75
v -0.3125 0.4375 0.75
v -0.3125 0.4375 -0.75
v -0.3125 0.3125 0.75
v -0.3125 0.3125 -0.75
vt 0.71875 1
vt 0.34375 1
vt 0.34375 0.96875
vt 0.71875 0.96875
vt 0.71875 0.921875
vt 0.71875 0.953125
vt 0.34375 0.953125
vt 0.34375 0.921875
vt 0 0.625
vt 0.15625 0.625
vt 0.15625 1
vt 0 1
vt 0.328125 0.625
vt 0.328125 1
vt 0.171875 1
vt 0.171875 0.625
vt 0.5 0.875
vt 0.5 0.90625
vt 0.34375 0.90625
vt 0.34375 0.875
vt 0.5 0.859375
vt 0.34375 0.859375
vt 0.34375 0.828125
vt 0.5 0.828125
vn 1 0 0
vn -1 0 0
vn 0 1 0
vn 0 -1 0
vn 0 0 1
vn 0 0 -1
usemtl m_26a96e30-61e4-65cb-0b75-649dc235f98e
f 2/1/1 1/2/1 3/3/1 4/4/1
f 7/5/2 5/6/2 6/7/2 8/8/2
f 5/9/3 1/10/3 2/11/3 6/12/3
f 4/13/4 3/14/4 7/15/4 8/16/4
f 3/17/5 1/18/5 5/19/5 7/20/5
f 6/21/6 2/22/6 4/23/6 8/24/6
o cuboid
v -0.05324999999999999 0.718439375 -0.6734374999999999
v -0.05324999999999999 0.718439375 -0.7109375
v 0.222421875 0.434046875 -0.6734374999999999
v 0.222421875 0.434046875 -0.7109375
v -0.07047937500000001 0.68684 -0.6734374999999999
v -0.07047937500000001 0.68684 -0.7109375
v 0.164990625 0.434046875 -0.6734374999999999
v 0.164990625 0.434046875 -0.7109375
v -0.05755750000000001 0.710539375 -0.6765625
v -0.05755750000000001 0.710539375 -0.7078125
v -0.06617187499999999 0.69474 -0.6765625
v -0.06617187499999999 0.69474 -0.7078125
v -0.39396312499999997 1.059046875 -0.6765625
v -0.39396312499999997 1.059046875 -0.7078125
v -0.402578125 1.043246875 -0.6765625
v -0.402578125 1.043246875 -0.7078125
vt 0.296875 0.609375
vt 0.28125 0.609375
vt 0.28125 0.5
vt 0.296875 0.5
vt 0.046875 0.484375
vt 0.046875 0.578125
vt 0.03125 0.578125
vt 0.03125 0.484375
vt 0.109375 0.53125
vt 0.109375 0.546875
vt 0.09375 0.546875
vt 0.09375 0.53125
vt 0.359375 0.546875
vt 0.359375 0.5625
vt 0.34375 0.5625
vt 0.34375 0.546875
vt 0.421875 0.583984375
vt 0.421875 0.68678921875
vt 0.40803109375 0.684865625
vt 0.40625 0.5953834375
vt 0.53873671875 0.61506234375
vt 0.5406603125 0.6239678125
vt 0.4378553125 0.6239678125
vt 0.449254375 0.61328125
vt 0.4775390625 0.7789734375
vt 0.4775390625 0.7744171875
vt 0.4783203125 0.7721390625
vt 0.4783203125 0.78125
vt 0.4697265625 0.7789734375
vt 0.4775390625 0.7789734375
vt 0.4783203125 0.78125
vt 0.4689453125 0.78125
vt 0.4697265625 0.7744171875
vt 0.4697265625 0.7789734375
vt 0.4689453125 0.78125
vt 0.4689453125 0.7721390625
vt 0.4775390625 0.7744171875
vt 0.4697265625 0.7744171875
vt 0.4689453125 0.7721390625
vt 0.4783203125 0.7721390625
vt 0.359375 0.71875
vt 0.34375 0.71777890625
vt 0.34375 0.59207765625
vt 0.359375 0.59304875
vt 0.171875 0.609375
vt 0.15625 0.609375
vt 0.15625 0.484375
vt 0.171875 0.484375
vt 0.5008415625 0.703125
vt 0.50181265625 0.71875
vt 0.3761115625 0.71875
vt 0.37514046875 0.703125
vt 0.203125 0.609375
vt 0.1875 0.609375
vt 0.1875 0.484375
vt 0.203125 0.484375
vn 0.7180299300945895 0.6960122265365452 0
vn -0.7317338814842151 -0.6815904391113807 0
vn -0.8779698885813241 0.4787158601346914 0
vn 0 -1 0
vn 0 0 1
vn 0 0 -1
vn -0.8779765259941041 0.47870368518441186 -0.00003992728408289645
vn -0.8779698885813241 0.4787158601346914 0
vn -0.8779765259941041 0.47870368518441186 -0.00003992728408289645
vn -0.8779698885813241 0.4787158601346914 0
vn 0 0 1
vn 0.7194884968314903 0.6945043577452649 0
vn 0 0 -1
vn -0.7194872297213749 -0.6945056704360747 0
usemtl m_26a96e30-61e4-65cb-0b75-649dc235f98e
f 10/25/7 9/26/7 11/27/7 12/28/7
f 15/29/8 13/30/8 14/31/8 16/32/8
f 23/33/9 21/34/9 22/35/9 24/36/9
f 12/37/10 11/38/10 15/39/10 16/40/10
f 11/41/11 9/42/11 13/43/11 15/44/11
f 14/45/12 10/46/12 12/47/12 16/48/12
f 17/49/13 19/50/13 13/51/13 9/52/13
f 18/53/14 17/54/14 9/55/14 10/56/14
f 20/57/15 18/58/15 10/59/15 14/60/15
f 19/61/16 20/62/16 14/63/16 13/64/16
f 21/65/17 23/66/17 19/67/17 17/68/17
f 22/69/18 21/70/18 17/71/18 18/72/18
f 24/73/19 22/74/19 18/75/19 20/76/19
f 23/77/20 24/78/20 20/79/20 19/80/20
o cuboid
v -0.05324999999999999 0.718439375 0.71875
v -0.05324999999999999 0.718439375 0.6812499999999999
v 0.222421875 0.434046875 0.71875
v 0.222421875 0.434046875 0.6812499999999999
v -0.07047937500000001 0.68684 0.71875
v -0.07047937500000001 0.68684 0.6812499999999999
v 0.164990625 0.434046875 0.71875
v 0.164990625 0.434046875 0.6812499999999999
v -0.05755750000000001 0.710539375 0.715625
v -0.05755750000000001 0.710539375 0.684375
v -0.06617187499999999 0.69474 0.715625
v -0.06617187499999999 0.69474 0.684375
v -0.39396312499999997 1.059046875 0.715625
v -0.39396312499999997 1.059046875 0.684375
v -0.402578125 1.043246875 0.715625
v -0.402578125 1.043246875 0.684375
vt 0.328125 0.609375
vt 0.3125 0.609375
vt 0.3125 0.5
vt 0.328125 0.5
vt 0.078125 0.484375
vt 0.078125 0.578125
vt 0.0625 0.578125
vt 0.0625 0.484375
vt 0.484375 0.796875
vt 0.484375 0.8125
vt 0.46875 0.8125
vt 0.46875 0.796875
vt 0.140625 0.53125
vt 0.140625 0.546875
vt 0.125 0.546875
vt 0.125 0.53125
vt 0.015625 0.474609375
vt 0.015625 0.57741421875
vt 0.00178109375 0.575490625
vt 0 0.4860084375
vt 0.50748671875 0.55256234375
vt 0.5094103125 0.5614678125
vt 0.4066053125 0.5614678125
vt 0.418004375 0.55078125
vt 0.4775390625 0.7477234374999999
vt 0.4775390625 0.7431671875
vt 0.4783203125 0.7408890625
vt 0.4783203125 0.75
vt 0.4697265625 0.7477234374999999
vt 0.4775390625 0.7477234374999999
vt 0.4783203125 0.75
vt 0.4689453125 0.75
vt 0.4697265625 0.7431671875
vt 0.4697265625 0.7477234374999999
vt 0.4689453125 0.75
vt 0.4689453125 0.7408890625
vt 0.4775390625 0.7431671875
vt 0.4697265625 0.7431671875
vt 0.4689453125 0.7408890625
vt 0.4783203125 0.7408890625
vt 0.390625 0.6875
vt 0.375 0.68652890625
vt 0.375 0.56082765625
vt 0.390625 0.56179875
vt 0.234375 0.609375
vt 0.21875 0.609375
vt 0.21875 0.484375
vt 0.234375 0.484375
vt 0.1258415625 0.59375
vt 0.12681265625 0.609375
vt 0.0011115625 0.609375
vt 0.00014046875 0.59375
vt 0.265625 0.609375
vt 0.25 0.609375
vt 0.25 0.484375
vt 0.265625 0.484375
vn 0.7180299300945895 0.6960122265365452 0
vn -0.7317338814842151 -0.6815904391113807 0
vn -0.8779698885813241 0.4787158601346914 0
vn 0 -1 0
vn 0 0 1
vn 0 0 -1
vn -0.8779765259941041 0.47870368518441186 -0.00003992728408289645
vn -0.8779698885813241 0.4787158601346914 0
vn -0.8779765259941041 0.47870368518441186 -0.00003992728408289645
vn -0.8779698885813241 0.4787158601346914 0
vn 0 0 1
vn 0.7194884968314903 0.6945043577452649 0
vn 0 0 -1
vn -0.7194872297213749 -0.6945056704360747 0
usemtl m_26a96e30-61e4-65cb-0b75-649dc235f98e
f 26/81/21 25/82/21 27/83/21 28/84/21
f 31/85/22 29/86/22 30/87/22 32/88/22
f 39/89/23 37/90/23 38/91/23 40/92/23
f 28/93/24 27/94/24 31/95/24 32/96/24
f 27/97/25 25/98/25 29/99/25 31/100/25
f 30/101/26 26/102/26 28/103/26 32/104/26
f 33/105/27 35/106/27 29/107/27 25/108/27
f 34/109/28 33/110/28 25/111/28 26/112/28
f 36/113/29 34/114/29 26/115/29 30/116/29
f 35/117/30 36/118/30 30/119/30 29/120/30
f 37/121/31 39/122/31 35/123/31 33/124/31
f 38/125/32 37/126/32 33/127/32 34/128/32
f 40/129/33 38/130/33 34/131/33 36/132/33
f 39/133/34 40/134/34 36/135/34 35/136/34
o cuboid
v 0.175 0.49375 0.61875
v 0.175 0.49375 0.50625
v 0.175 0.44375 0.61875
v 0.175 0.44375 0.50625
v -0.175 0.49375 0.61875
v -0.175 0.49375 0.50625
v -0.175 0.44375 0.61875
v -0.175 0.44375 0.50625
v 0.175 0.5 0.5625
v -0.175 0.5 0.5625
v -0.175 0.4375 0.5625
v 0.175 0.4375 0.5625
v 0.175 0.46875 0.5
v -0.175 0.46875 0.5
v -0.175 0.46875 0.625
v 0.175 0.46875 0.625
v 0.1875 0.4453125 0.5625
v 0.1875 0.46875 0.609375
v 0.1875 0.46875 0.5625
v 0.1875 0.44921875 0.60546875
v 0.1875 0.48828125 0.60546875
v 0.1875 0.4921875 0.5625
v 0.1875 0.46875 0.515625
v 0.1875 0.48828125 0.51953125
v 0.1875 0.44921875 0.51953125
v -0.1875 0.4453125 0.5625
v -0.1875 0.46875 0.515625
v -0.1875 0.46875 0.5625
v -0.1875 0.44921875 0.51953125
v -0.1875 0.48828125 0.51953125
v -0.1875 0.4921875 0.5625
v -0.1875 0.46875 0.609375
v -0.1875 0.48828125 0.60546875
v -0.1875 0.44921875 0.60546875
vt 0.1162109375 0.5673828125
vt 0.1171875 0.572265625
vt 0.10546875 0.572265625
vt 0.10546875 0.56640625
vt 0.44921875 0.58203125
vt 0.44921875 0.587890625
vt 0.4375 0.587890625
vt 0.4384765625 0.5830078125
vt 0.4363175 0.784203125
vt 0.4363175 0.7983515625
vt 0.3488175 0.7983515625
vt 0.3488175 0.784203125
vt 0.34883875 0.764625
vt 0.34883875 0.7504765625
vt 0.43633875 0.7504765625
vt 0.43633875 0.764625
vt 0.5251953125 0.673828125
vt 0.5251953125 0.6802703125
vt 0.4376953125 0.6802703125
vt 0.4376953125 0.673828125
vt 0.5251953125 0.642578125
vt 0.5251953125 0.6490203125
vt 0.4376953125 0.6490203125
vt 0.4376953125 0.642578125
vt 0.3488175 0.8125
vt 0.3488175 0.7983515625
vt 0.4363175 0.7983515625
vt 0.4363175 0.8125
vt 0.4599609375 0.5830078125
vt 0.4609375 0.587890625
vt 0.44921875 0.587890625
vt 0.44921875 0.58203125
vt 0.43633875 0.736328125
vt 0.43633875 0.7504765625
vt 0.34883875 0.7504765625
vt 0.34883875 0.736328125
vt 0.10546875 0.56640625
vt 0.10546875 0.572265625
vt 0.09375 0.572265625
vt 0.0947265625 0.5673828125
vt 0.4376953125 0.6554625000000001
vt 0.4376953125 0.6490203125
vt 0.5251953125 0.6490203125
vt 0.5251953125 0.6554625000000001
vt 0.4384765625 0.5927734375
vt 0.4375 0.587890625
vt 0.44921875 0.587890625
vt 0.44921875 0.59375
vt 0.44921875 0.59375
vt 0.44921875 0.587890625
vt 0.4609375 0.587890625
vt 0.4599609375 0.5927734375
vt 0.4376953125 0.6867125000000001
vt 0.4376953125 0.6802703125
vt 0.5251953125 0.6802703125
vt 0.5251953125 0.6867125000000001
vt 0.0947265625 0.5771484375
vt 0.09375 0.572265625
vt 0.10546875 0.572265625
vt 0.10546875 0.578125
vt 0.10546875 0.578125
vt 0.10546875 0.572265625
vt 0.1171875 0.572265625
vt 0.1162109375 0.5771484375
vt 0.349609375 0.5189796875
vt 0.348846875 0.5239015625
vt 0.3438453125 0.5239015625
vt 0.345065625 0.517578125
vt 0.3451596875 0.7506940625
vt 0.34401390625 0.7399678125
vt 0.3471953125 0.7364276562500001
vt 0.34883015625 0.7504790625
vt 0.348846875 0.5239015625
vt 0.34960890625 0.52882265625
vt 0.34506171875 0.53022640625
vt 0.3438484375 0.5239015625
vt 0.34401109375 0.8088665625
vt 0.34514671875 0.79814046875
vt 0.34882609375 0.79835203125
vt 0.347188125 0.81240375
vt 0.375 0.5298484375
vt 0.3757625 0.5249265625
vt 0.3807640625 0.5249265625
vt 0.37954375 0.53125
vt 0.34514671875 0.79814046875
vt 0.3452478125 0.7873534375
vt 0.3488175 0.784205
vt 0.3488175 0.7983515625
vt 0.3757625 0.5249265625
vt 0.37500046875 0.52000546875
vt 0.37954765625 0.51860171875
vt 0.3807609375 0.5249265625
vt 0.34527390625 0.7614790625
vt 0.3451596875 0.7506940625
vt 0.34883875 0.7504784375
vt 0.34883875 0.764625
vt 0.412109375 0.5189796875
vt 0.411346875 0.5239015625
vt 0.4063453125 0.5239015625
vt 0.407565625 0.517578125
vt 0.44000953125 0.7506871875
vt 0.439908125 0.76147390625
vt 0.43633875 0.7646228125
vt 0.43633875 0.7504765625
vt 0.411346875 0.5239015625
vt 0.41210890625 0.52882265625
vt 0.40756171875 0.53022640625
vt 0.4063484375 0.5239015625
vt 0.43988265625 0.78734859375
vt 0.4399965625 0.7981340625
vt 0.4363175 0.7983498437500001
vt 0.4363175 0.784203125
vt 0.4375 0.5298484375
vt 0.4382625 0.5249265625
vt 0.4432640625 0.5249265625
vt 0.44204375 0.53125
vt 0.4399965625 0.7981340625
vt 0.44114515625 0.80886015625
vt 0.43796390625 0.81240078125
vt 0.43632609375 0.798349375
vt 0.4382625 0.5249265625
vt 0.43750046875 0.52000546875
vt 0.44204765625 0.51860171875
vt 0.4432609375 0.5249265625
vt 0.44114234375 0.7399610937500001
vt 0.44000953125 0.7506871875
vt 0.43633015625 0.75047609375
vt 0.437965 0.736424375
vn 1 0 0
vn -1 0 0
vn 0 0.993883734673619 -0.11043152607484653
vn 0 -0.993883734673619 -0.11043152607484655
vn 0 -0.24253562503633294 0.9701425001453319
vn 0 -0.24253562503633294 -0.9701425001453319
vn 0 0.993883734673619 0.11043152607484653
vn -1 0 0
vn 0 -0.993883734673619 0.11043152607484655
vn 1 0 0
vn 0 0.24253562503633294 -0.9701425001453319
vn -1 0 0
vn -1 0 0
vn 0 0.24253562503633294 0.9701425001453319
vn 1 0 0
vn 1 0 0
vn 0.7748446592171793 -0.12397514547474879 0.619875727373744
vn 0.46960100864197446 -0.8792529523509318 0.07993208657735744
vn 0.7481900559272086 0.13012000972647114 0.6506000486323558
vn 0.528431037327591 0.8454896597241464 0.07686269633855876
vn 0.7748446592171793 0.12397514547474879 -0.619875727373744
vn 0.4696010086419746 0.8792529523509318 -0.07993208657735744
vn 0.7481900559272086 -0.13012000972647114 -0.6506000486323558
vn 0.528431037327591 -0.8454896597241464 -0.07686269633855876
vn -0.7748446592171793 -0.12397514547474879 -0.619875727373744
vn -0.46960100864197446 -0.8792529523509318 -0.07993208657735744
vn -0.7481900559272086 0.13012000972647114 -0.6506000486323558
vn -0.528431037327591 0.8454896597241464 -0.07686269633855876
vn -0.7748446592171793 0.12397514547474879 0.619875727373744
vn -0.4696010086419746 0.8792529523509318 0.07993208657735744
vn -0.7481900559272086 -0.13012000972647114 0.6506000486323558
vn -0.528431037327591 -0.8454896597241464 0.07686269633855876
usemtl m_26a96e30-61e4-65cb-0b75-649dc235f98e
f 65/137/35 63/138/35 59/139/35 57/140/35
f 66/141/36 68/142/36 67/143/36 69/144/36
f 46/145/37 50/146/37 49/147/37 42/148/37
f 44/149/38 52/150/38 51/151/38 48/152/38
f 43/153/39 56/154/39 55/155/39 47/156/39
f 48/157/40 54/158/40 53/159/40 44/160/40
f 41/161/41 49/162/41 50/163/41 45/164/41
f 74/165/42 72/166/42 68/167/42 66/168/42
f 47/169/43 51/170/43 52/171/43 43/172/43
f 57/173/44 59/174/44 58/175/44 60/176/44
f 42/177/45 53/178/45 54/179/45 46/180/45
f 70/181/46 67/182/46 68/183/46 71/184/46
f 71/185/47 68/186/47 72/187/47 73/188/47
f 45/189/48 55/190/48 56/191/48 41/192/48
f 61/193/49 58/194/49 59/195/49 62/196/49
f 62/197/50 59/198/50 63/199/50 64/200/50
f 60/201/51 58/202/51 56/203/51 43/204/51
f 57/205/52 60/206/52 43/207/52 52/208/52
f 58/209/53 61/210/53 41/211/53 56/212/53
f 61/213/54 62/214/54 49/215/54 41/216/54
f 64/217/55 63/218/55 53/219/55 42/220/55
f 62/221/56 64/222/56 42/223/56 49/224/56
f 63/225/57 65/226/57 44/227/57 53/228/57
f 65/229/58 57/230/58 52/231/58 44/232/58
f 69/233/59 67/234/59 54/235/59 48/236/59
f 66/237/60 69/238/60 48/239/60 51/240/60
f 67/241/61 70/242/61 46/243/61 54/244/61
f 70/245/62 71/246/62 50/247/62 46/248/62
f 73/249/63 72/250/63 55/251/63 45/252/63
f 71/253/64 73/254/64 45/255/64 50/256/64
f 72/257/65 74/258/65 47/259/65 55/260/65
f 74/261/66 66/262/66 51/263/66 47/264/66