# Made in Blockbench 4.12.4
mtllib Spacesuit Helmet.mtl

o Head
v 0 0.11780867096296216 -0.06415257124038624
v 0 -0.0018502126871032046 -0.06312103664565727
v 0 -0.0018971135989610047 0.058312495380321724
v 0 0.11197152454573289 0.06954006177169796
v 0 -0.0015551665596664904 -0.006833343502793591
v 0 0.1455746126758646 -0.000866828869483075
v 0 0.13780073412821908 0.039630749031449246
v 0 -0.000025596521934158345 0.015447707028213617
v 0 0.001606657610605064 -0.03483270085357776
v 0 0.14093282423798703 -0.03210590851923605
v 0 0.05590264472051874 -0.07338916537025399
v 0 0.04924628514583955 0.07333513732774004
v 0 0.09604618034643018 -0.07007247218257756
v 0 0.08977589341266314 0.0735407096698145
v 0 0.07863099176150601 -0.07239682430769259
v 0 0.07222439424222228 0.07433838323714277
v 0 0.00949791337299228 -0.0722872625551678
v 0 0.0264044866349735 0.06920986572589401
v 0.04241125 0.11274440556561244 0.051838176095544426
v 0.04241125 0.11703578994308261 -0.0464506855642327
v 0.03767375 -0.0011915154840924855 0.042151641585958195
v 0.039054375 0.00243943030593758 -0.046742085914467074
v 0.02686 0.11755101669421852 -0.058251318276529906
v 0.023735 0.00041219032048387533 -0.057624620642363775
v 0.023998125 -0.0016618960525934326 0.05292512784544155
v 0.02686 0.11222917881447651 0.06363880880784163
v 0.0265275 -0.0015551665596664904 -0.006833343502793591
v 0.052466875 0.0006754622808833877 -0.006340575833696751
v 0.059375 0.11510364191761795 -0.002197220184125823
v 0.0296875 0.13958032334637346 -0.0011285451936750906
v 0.0296875 0.1318064447987279 0.03936903270725723
v 0.05372 0.11345286620277681 0.03561175976163959
v 0.04799625 -0.0005447217558158662 0.0273376296753147
v 0.023735 -0.000025596521934158345 0.015447707028213617
v 0.04799625 0.001792636577660954 -0.031928074003823595
v 0.05372 0.11632732930591824 -0.03022426923032787
v 0.0296875 0.13493853490849586 -0.03236762484342807
v 0.0296875 0.055368157114096046 -0.06687878295071975
v 0.03001625 0.04953101069686678 0.06681385006136445
v 0.04712125 0.050100489061038346 0.05377065112347482
v 0.060033125 0.05088353885059744 0.03583586233066501
v 0.065625 0.052663128068751834 -0.004923431894459322
v 0.060033125 0.05401562896036539 -0.035900795220020286
v 0.04884875 0.05479867874992448 -0.0538355840128301
v 0.028980625 0.0957675069853999 -0.06368980285694646
v 0.04575875 0.0952101330012222 -0.05092383980054579
v 0.05796125 0.09444376762733037 -0.033371186952491035
v 0.0640625 0.09312005553137792 -0.003053195453174098
v 0.05796125 0.09137830613176295 0.03683942443972798
v 0.04575875 0.0906119407578711 0.054392077287782725
v 0.028980625 0.09005456677369342 0.0671580403441834
v 0.0296875 0.07834626621047877 -0.06587553704131702
v 0.0296875 0.0725091197932495 0.06781709597076718
v 0.046875 0.07307859815742107 0.05477389703287755
v 0.059375 0.07386164794698016 0.03683910824006774
v 0.065625 0.07564123716513457 -0.003920185985056595
v 0.059375 0.07699373805674811 -0.03489754931061756
v 0.046875 0.0777767878463072 -0.05283233810342737
v 0.02827375 0.015282022045298944 -0.06577876863437884
v 0.028586875 0.02667710780600685 0.0629658143410074
v 0.0448775 0.02722235014807355 0.05047771157123418
v 0.057174375 0.02797205836841526 0.033306570262795994
v 0.0625 0.026678796022628123 -0.005849609054841336
v 0.057174375 0.027973746585036537 -0.035508853133052735
v 0.0465225 0.022479403420491637 -0.05295261561252427
v 0.0265275 0.001606657610605064 -0.03483270085357776
v -0.04241125 0.11274440556561244 0.051838176095544426
v -0.04241125 0.11703578994308261 -0.0464506855642327
v -0.03767375 -0.0011915154840924855 0.042151641585958195
v -0.039054375 0.00243943030593758 -0.046742085914467074
v -0.02686 0.11755101669421852 -0.058251318276529906
v -0.023735 0.00041219032048387533 -0.057624620642363775
v -0.023998125 -0.0016618960525934326 0.05292512784544155
v -0.02686 0.11222917881447651 0.06363880880784163
v -0.0265275 -0.0015551665596664904 -0.006833343502793591
v -0.052466875 0.0006754622808833877 -0.006340575833696751
v -0.059375 0.11510364191761795 -0.002197220184125823
v -0.0296875 0.13958032334637346 -0.0011285451936750906
v -0.0296875 0.1318064447987279 0.03936903270725723
v -0.05372 0.11345286620277681 0.03561175976163959
v -0.04799625 -0.0005447217558158662 0.0273376296753147
v -0.023735 -0.000025596521934158345 0.015447707028213617
v -0.04799625 0.001792636577660954 -0.031928074003823595
v -0.05372 0.11632732930591824 -0.03022426923032787
v -0.0296875 0.13493853490849586 -0.03236762484342807
v -0.0296875 0.055368157114096046 -0.06687878295071975
v -0.03001625 0.04953101069686678 0.06681385006136445
v -0.04712125 0.050100489061038346 0.05377065112347482
v -0.060033125 0.05088353885059744 0.03583586233066501
v -0.065625 0.052663128068751834 -0.004923431894459322
v -0.060033125 0.05401562896036539 -0.035900795220020286
v -0.04884875 0.05479867874992448 -0.0538355840128301
v -0.028980625 0.0957675069853999 -0.06368980285694646
v -0.04575875 0.0952101330012222 -0.05092383980054579
v -0.05796125 0.09444376762733037 -0.033371186952491035
v -0.0640625 0.09312005553137792 -0.003053195453174098
v -0.05796125 0.09137830613176295 0.03683942443972798
v -0.04575875 0.0906119407578711 0.054392077287782725
v -0.028980625 0.09005456677369342 0.0671580403441834
v -0.0296875 0.07834626621047877 -0.06587553704131702
v -0.0296875 0.0725091197932495 0.06781709597076718
v -0.046875 0.07307859815742107 0.05477389703287755
v -0.059375 0.07386164794698016 0.03683910824006774
v -0.065625 0.07564123716513457 -0.003920185985056595
v -0.059375 0.07699373805674811 -0.03489754931061756
v -0.046875 0.0777767878463072 -0.05283233810342737
v -0.02827375 0.015282022045298944 -0.06577876863437884
v -0.028586875 0.02667710780600685 0.0629658143410074
v -0.0448775 0.02722235014807355 0.05047771157123418
v -0.057174375 0.02797205836841526 0.033306570262795994
v -0.0625 0.026678796022628123 -0.005849609054841336
v -0.057174375 0.027973746585036537 -0.035508853133052735
v -0.0465225 0.022479403420491637 -0.05295261561252427
v -0.0265275 0.001606657610605064 -0.03483270085357776
vt 0.11014375 0.83561625
vt 0.194304375 0.83561625
vt 0.194090625 0.87171625
vt 0.111719375 0.87171625
vt 0.438839375 0.83561625
vt 0.50008 0.83561625
vt 0.50008 0.87171625
vt 0.4402975 0.87171625
vt 0.451118125 0.437346875
vt 0.50008 0.437346875
vt 0.50008 0.483128125
vt 0.445358125 0.483128125
vt 0.822401875 0.5132950000000001
vt 0.8836425 0.5132950000000001
vt 0.882184375 0.5493950000000001
vt 0.822401875 0.5493950000000001
vt 0.17775875 0.39991
vt 0.239 0.39991
vt 0.239 0.484070625
vt 0.17775875 0.484070625
vt 0.40338375 0.83561625
vt 0.438839375 0.83561625
vt 0.4402975 0.87171625
vt 0.40568625 0.87171625
vt 0.401070625 0.41279625
vt 0.451118125 0.437346875
vt 0.445358125 0.483128125
vt 0.39184875 0.48231375
vt 0.8836425 0.5132950000000001
vt 0.919098125 0.5132950000000001
vt 0.916795 0.5493950000000001
vt 0.882184375 0.5493950000000001
vt 0.239 0.39991
vt 0.288575625 0.40600187499999996
vt 0.30024125 0.484070625
vt 0.239 0.484070625
vt 0.50008 0.54111625
vt 0.445358125 0.54111625
vt 0.445358125 0.483128125
vt 0.50008 0.483128125
vt 0.445358125 0.54111625
vt 0.401070625 0.535146875
vt 0.39184875 0.48231375
vt 0.445358125 0.483128125
vt 0.194304375 0.83561625
vt 0.258266875 0.83561625
vt 0.256691875 0.87171625
vt 0.194090625 0.87171625
vt 0.288575625 0.541941875
vt 0.239 0.54803375
vt 0.239 0.484070625
vt 0.30024125 0.484070625
vt 0.239 0.54803375
vt 0.17775875 0.54803375
vt 0.17775875 0.484070625
vt 0.239 0.484070625
vt 0.239 0.39991
vt 0.17775875 0.39991
vt 0.17775875 0.33594625
vt 0.2331675 0.34813125
vt 0.2652475 0.37249750000000004
vt 0.288575625 0.40600187499999996
vt 0.239 0.39991
vt 0.2331675 0.34813125
vt 0.073111875 0.83561625
vt 0.11014375 0.83561625
vt 0.111719375 0.87171625
vt 0.07547625 0.87171625
vt 0.451118125 0.437346875
vt 0.401070625 0.41279625
vt 0.422365 0.382208125
vt 0.450575625 0.35996312500000005
vt 0.50008 0.437346875
vt 0.451118125 0.437346875
vt 0.450575625 0.35996312500000005
vt 0.50008 0.34883875
vt 0.445358125 0.54111625
vt 0.50008 0.54111625
vt 0.50008 0.599104375
vt 0.451118125 0.5879806249999999
vt 0.401070625 0.535146875
vt 0.445358125 0.54111625
vt 0.451118125 0.5879806249999999
vt 0.419516875 0.5657356250000001
vt 0.377598125 0.83561625
vt 0.40338375 0.83561625
vt 0.40568625 0.87171625
vt 0.380514375 0.87171625
vt 0.438839375 0.955261875
vt 0.38926375 0.917099375
vt 0.412591875 0.917099375
vt 0.444671875 0.917099375
vt 0.50008 0.967639375
vt 0.438839375 0.955261875
vt 0.444671875 0.917099375
vt 0.50008 0.917099375
vt 0.50008 0.6705875
vt 0.50008 0.6931499999999999
vt 0.441755625 0.70565625
vt 0.451118125 0.675745
vt 0.87190625 0.35909625
vt 0.881371875 0.41840374999999996
vt 0.822401875 0.41840374999999996
vt 0.822401875 0.35909625
vt 0.900116875 0.35909625
vt 0.9149775 0.41840374999999996
vt 0.881371875 0.41840374999999996
vt 0.87190625 0.35909625
vt 0.12303 0.6814175
vt 0.113295 0.7407250000000001
vt 0.077839375 0.7407250000000001
vt 0.092441875 0.6814175
vt 0.192546875 0.680901875
vt 0.193875 0.73453625
vt 0.113295 0.7407250000000001
vt 0.12303 0.6814175
vt 0.245380625 0.680901875
vt 0.25511625 0.73453625
vt 0.193875 0.73453625
vt 0.192546875 0.680901875
vt 0.419516875 0.680901875
vt 0.40411125 0.7216437499999999
vt 0.3821375 0.73453625
vt 0.401070625 0.680901875
vt 0.451118125 0.675745
vt 0.441755625 0.70565625
vt 0.40411125 0.7216437499999999
vt 0.419516875 0.680901875
vt 0.4402975 0.87171625
vt 0.50008 0.87171625
vt 0.50008 0.917099375
vt 0.444671875 0.917099375
vt 0.40568625 0.87171625
vt 0.4402975 0.87171625
vt 0.444671875 0.917099375
vt 0.412591875 0.917099375
vt 0.380514375 0.87171625
vt 0.40568625 0.87171625
vt 0.412591875 0.917099375
vt 0.38926375 0.917099375
vt 0.194090625 0.87171625
vt 0.256691875 0.87171625
vt 0.252175 0.917099375
vt 0.194304375 0.917099375
vt 0.111719375 0.87171625
vt 0.194090625 0.87171625
vt 0.194304375 0.917099375
vt 0.116235625 0.917099375
vt 0.07547625 0.87171625
vt 0.111719375 0.87171625
vt 0.116235625 0.917099375
vt 0.08273125 0.917099375
vt 0.882184375 0.5493950000000001
vt 0.916795 0.5493950000000001
vt 0.90989 0.5947775
vt 0.87781 0.5947775
vt 0.822401875 0.5493950000000001
vt 0.882184375 0.5493950000000001
vt 0.87781 0.5947775
vt 0.822401875 0.5947775
vt 0.50008 0.83561625
vt 0.438839375 0.83561625
vt 0.438839375 0.788170625
vt 0.50008 0.78868625
vt 0.8836425 0.5132950000000001
vt 0.822401875 0.5132950000000001
vt 0.822401875 0.465849375
vt 0.884320625 0.465849375
vt 0.919098125 0.5132950000000001
vt 0.8836425 0.5132950000000001
vt 0.884320625 0.465849375
vt 0.919605625 0.465849375
vt 0.11014375 0.83561625
vt 0.073111875 0.83561625
vt 0.073111875 0.788170625
vt 0.11014375 0.788170625
vt 0.194304375 0.83561625
vt 0.11014375 0.83561625
vt 0.11014375 0.788170625
vt 0.194304375 0.788170625
vt 0.258266875 0.83561625
vt 0.194304375 0.83561625
vt 0.194304375 0.788170625
vt 0.258266875 0.788170625
vt 0.40338375 0.83561625
vt 0.377598125 0.83561625
vt 0.376240625 0.788170625
vt 0.3993125 0.788170625
vt 0.438839375 0.83561625
vt 0.40338375 0.83561625
vt 0.3993125 0.788170625
vt 0.438839375 0.788170625
vt 0.438839375 0.788170625
vt 0.441755625 0.70565625
vt 0.50008 0.6931499999999999
vt 0.50008 0.78868625
vt 0.822401875 0.465849375
vt 0.822401875 0.41840374999999996
vt 0.881371875 0.41840374999999996
vt 0.884320625 0.465849375
vt 0.884320625 0.465849375
vt 0.881371875 0.41840374999999996
vt 0.9149775 0.41840374999999996
vt 0.919605625 0.465849375
vt 0.073111875 0.788170625
vt 0.077839375 0.7407250000000001
vt 0.113295 0.7407250000000001
vt 0.11014375 0.788170625
vt 0.11014375 0.788170625
vt 0.113295 0.7407250000000001
vt 0.193875 0.73453625
vt 0.194304375 0.788170625
vt 0.194304375 0.788170625
vt 0.193875 0.73453625
vt 0.25511625 0.73453625
vt 0.258266875 0.788170625
vt 0.376240625 0.788170625
vt 0.3821375 0.73453625
vt 0.40411125 0.7216437499999999
vt 0.3993125 0.788170625
vt 0.3993125 0.788170625
vt 0.40411125 0.7216437499999999
vt 0.441755625 0.70565625
vt 0.438839375 0.788170625
vt 0.80607 0.87171625
vt 0.80585625 0.83561625
vt 0.890016875 0.83561625
vt 0.88844125 0.87171625
vt 0.50008 0.87171625
vt 0.50008 0.83561625
vt 0.56132125 0.83561625
vt 0.559863125 0.87171625
vt 0.50008 0.483128125
vt 0.50008 0.437346875
vt 0.549041875 0.437346875
vt 0.5548025 0.483128125
vt 0.76261875 0.5493950000000001
vt 0.761160625 0.5132950000000001
vt 0.822401875 0.5132950000000001
vt 0.822401875 0.5493950000000001
vt 0.116518125 0.484070625
vt 0.116518125 0.39991
vt 0.17775875 0.39991
vt 0.17775875 0.484070625
vt 0.559863125 0.87171625
vt 0.56132125 0.83561625
vt 0.596776875 0.83561625
vt 0.59447375 0.87171625
vt 0.5548025 0.483128125
vt 0.549041875 0.437346875
vt 0.599089375 0.41279625
vt 0.608311875 0.48231375
vt 0.728008125 0.5493950000000001
vt 0.725705 0.5132950000000001
vt 0.761160625 0.5132950000000001
vt 0.76261875 0.5493950000000001
vt 0.055276875 0.484070625
vt 0.0669425 0.40600187499999996
vt 0.116518125 0.39991
vt 0.116518125 0.484070625
vt 0.5548025 0.483128125
vt 0.5548025 0.54111625
vt 0.50008 0.54111625
vt 0.50008 0.483128125
vt 0.608311875 0.48231375
vt 0.599089375 0.535146875
vt 0.5548025 0.54111625
vt 0.5548025 0.483128125
vt 0.74346875 0.87171625
vt 0.74189375 0.83561625
vt 0.80585625 0.83561625
vt 0.80607 0.87171625
vt 0.116518125 0.484070625
vt 0.116518125 0.54803375
vt 0.0669425 0.541941875
vt 0.055276875 0.484070625
vt 0.17775875 0.484070625
vt 0.17775875 0.54803375
vt 0.116518125 0.54803375
vt 0.116518125 0.484070625
vt 0.17775875 0.33594625
vt 0.17775875 0.39991
vt 0.116518125 0.39991
vt 0.122350625 0.34813125
vt 0.116518125 0.39991
vt 0.0669425 0.40600187499999996
vt 0.090270625 0.37249750000000004
vt 0.122350625 0.34813125
vt 0.88844125 0.87171625
vt 0.890016875 0.83561625
vt 0.92704875 0.83561625
vt 0.924684375 0.87171625
vt 0.577795625 0.382208125
vt 0.599089375 0.41279625
vt 0.549041875 0.437346875
vt 0.549585 0.35996312500000005
vt 0.549585 0.35996312500000005
vt 0.549041875 0.437346875
vt 0.50008 0.437346875
vt 0.50008 0.34883875
vt 0.50008 0.599104375
vt 0.50008 0.54111625
vt 0.5548025 0.54111625
vt 0.549041875 0.5879806249999999
vt 0.549041875 0.5879806249999999
vt 0.5548025 0.54111625
vt 0.599089375 0.535146875
vt 0.58064375 0.5657356250000001
vt 0.59447375 0.87171625
vt 0.596776875 0.83561625
vt 0.6225625 0.83561625
vt 0.61964625 0.87171625
vt 0.58756875 0.917099375
vt 0.610896875 0.917099375
vt 0.56132125 0.955261875
vt 0.55548875 0.917099375
vt 0.55548875 0.917099375
vt 0.56132125 0.955261875
vt 0.50008 0.967639375
vt 0.50008 0.917099375
vt 0.558405 0.70565625
vt 0.50008 0.6931499999999999
vt 0.50008 0.6705875
vt 0.549041875 0.675745
vt 0.822401875 0.41840374999999996
vt 0.76343125 0.41840374999999996
vt 0.772896875 0.35909625
vt 0.822401875 0.35909625
vt 0.76343125 0.41840374999999996
vt 0.729825625 0.41840374999999996
vt 0.74468625 0.35909625
vt 0.772896875 0.35909625
vt 0.92232125 0.7407250000000001
vt 0.886865625 0.7407250000000001
vt 0.877130625 0.6814175
vt 0.90771875 0.6814175
vt 0.886865625 0.7407250000000001
vt 0.806285625 0.73453625
vt 0.80761375 0.680901875
vt 0.877130625 0.6814175
vt 0.806285625 0.73453625
vt 0.745044375 0.73453625
vt 0.75478 0.680901875
vt 0.80761375 0.680901875
vt 0.6180225 0.73453625
vt 0.596049375 0.7216437499999999
vt 0.58064375 0.680901875
vt 0.599089375 0.680901875
vt 0.596049375 0.7216437499999999
vt 0.558405 0.70565625
vt 0.549041875 0.675745
vt 0.58064375 0.680901875
vt 0.50008 0.917099375
vt 0.50008 0.87171625
vt 0.559863125 0.87171625
vt 0.55548875 0.917099375
vt 0.55548875 0.917099375
vt 0.559863125 0.87171625
vt 0.59447375 0.87171625
vt 0.58756875 0.917099375
vt 0.58756875 0.917099375
vt 0.59447375 0.87171625
vt 0.61964625 0.87171625
vt 0.610896875 0.917099375
vt 0.747985625 0.917099375
vt 0.74346875 0.87171625
vt 0.80607 0.87171625
vt 0.80585625 0.917099375
vt 0.80585625 0.917099375
vt 0.80607 0.87171625
vt 0.88844125 0.87171625
vt 0.883925 0.917099375
vt 0.883925 0.917099375
vt 0.88844125 0.87171625
vt 0.924684375 0.87171625
vt 0.917429375 0.917099375
vt 0.734913125 0.5947775
vt 0.728008125 0.5493950000000001
vt 0.76261875 0.5493950000000001
vt 0.766993125 0.5947775
vt 0.766993125 0.5947775
vt 0.76261875 0.5493950000000001
vt 0.822401875 0.5493950000000001
vt 0.822401875 0.5947775
vt 0.56132125 0.788170625
vt 0.56132125 0.83561625
vt 0.50008 0.83561625
vt 0.50008 0.78868625
vt 0.822401875 0.465849375
vt 0.822401875 0.5132950000000001
vt 0.761160625 0.5132950000000001
vt 0.7604825 0.465849375
vt 0.7604825 0.465849375
vt 0.761160625 0.5132950000000001
vt 0.725705 0.5132950000000001
vt 0.7251975 0.465849375
vt 0.92704875 0.788170625
vt 0.92704875 0.83561625
vt 0.890016875 0.83561625
vt 0.890016875 0.788170625
vt 0.890016875 0.788170625
vt 0.890016875 0.83561625
vt 0.80585625 0.83561625
vt 0.80585625 0.788170625
vt 0.80585625 0.788170625
vt 0.80585625 0.83561625
vt 0.74189375 0.83561625
vt 0.74189375 0.788170625
vt 0.62392 0.788170625
vt 0.6225625 0.83561625
vt 0.596776875 0.83561625
vt 0.600848125 0.788170625
vt 0.600848125 0.788170625
vt 0.596776875 0.83561625
vt 0.56132125 0.83561625
vt 0.56132125 0.788170625
vt 0.50008 0.6931499999999999
vt 0.558405 0.70565625
vt 0.56132125 0.788170625
vt 0.50008 0.78868625
vt 0.76343125 0.41840374999999996
vt 0.822401875 0.41840374999999996
vt 0.822401875 0.465849375
vt 0.7604825 0.465849375
vt 0.729825625 0.41840374999999996
vt 0.76343125 0.41840374999999996
vt 0.7604825 0.465849375
vt 0.7251975 0.465849375
vt 0.886865625 0.7407250000000001
vt 0.92232125 0.7407250000000001
vt 0.92704875 0.788170625
vt 0.890016875 0.788170625
vt 0.806285625 0.73453625
vt 0.886865625 0.7407250000000001
vt 0.890016875 0.788170625
vt 0.80585625 0.788170625
vt 0.745044375 0.73453625
vt 0.806285625 0.73453625
vt 0.80585625 0.788170625
vt 0.74189375 0.788170625
vt 0.596049375 0.7216437499999999
vt 0.6180225 0.73453625
vt 0.62392 0.788170625
vt 0.600848125 0.788170625
vt 0.558405 0.70565625
vt 0.596049375 0.7216437499999999
vt 0.600848125 0.788170625
vt 0.56132125 0.788170625
vn 0.9847181902937876 0.08036401589005962 0.1545047269650682
vn 0.21393224429220833 0.12923104812569428 -0.9682625320915983
vn 0 -0.9976519588588147 0.06848772871960372
vn 0.21391492605650048 0.04527210682947288 0.975802664862862
vn 0.1960732283983102 0.9630071719084898 0.18485798862444738
vn 0.6024881915131257 0.1233786578952629 -0.7885338837762186
vn -0.051686565660428625 -0.9967402070780225 0.06194722370123879
vn 0.6024063162350042 0.05569148411785449 0.7962443649765586
vn 0.6144728900365536 0.7788259471452348 0.1259095368248724
vn 0 -0.9936843248036242 -0.11221168673344824
vn 0.014905057557261675 -0.9988203737131336 -0.04621363775738556
vn 0.9765258059215393 0.09598247243619328 -0.19283338755081822
vn 0.6145982676471254 0.7802735685366029 -0.11594018996149713
vn 0.19462994158510638 0.9702245528602035 -0.1441648461511915
vn 0.156621145181577 0.7475021621655877 0.6455310483933231
vn 0.5876334948401779 0.6795439917724172 0.4392116107162101
vn 0.8172591809084131 0.06594974541034784 0.5724841153265476
vn 0 -0.9990482215818578 -0.043619387365336
vn 0 -0.9990482215818578 -0.043619387365336
vn 0 -0.992616023299164 0.12129892946664331
vn 0.0015965999799214068 -0.9986384817786631 0.05214051763562603
vn 0.8173664014476341 0.11415510016239988 -0.5646952973874119
vn 0.5876334948401779 0.7152379358791493 -0.3783141166031906
vn 0.1588800065052791 0.811430576370153 -0.5624389418101168
vn 0.294023764456551 -0.6005805403225576 -0.7435408801946691
vn 0.20264976592947062 -0.35602553019080235 0.9122383976905867
vn 0.5749582995506849 -0.36093070918739273 0.7342696895169177
vn 0.76638661774747 -0.35826628780158454 0.5331949166697536
vn 0.923236958218305 -0.3588163250819441 0.13742039089778676
vn 0.9202462833244706 -0.34727771259730694 -0.18040224045360564
vn 0.8264658528008847 -0.4230944806050773 -0.37140982032739284
vn 0.6196010452694172 -0.5142846989760221 -0.5929635681053161
vn 0.2102347949332871 0.256618645204569 -0.9433706598854612
vn 0.5916716578903276 0.24902726093048888 -0.7667529410199674
vn 0.8027942428854277 0.23540351719919303 -0.5478198496588657
vn 0.9597204357961744 0.2124429389844877 -0.18386049817955594
vn 0.967164880846315 0.2001261405957099 0.15665765575866225
vn 0.8029686743607223 0.1857728671286984 0.5663300714549487
vn 0.5918147246529718 0.18017195377062606 0.7856802140555679
vn 0.21026297543778502 0.17282213742969607 0.9622484034667352
vn 0.21474410762635876 0.04260176222821074 -0.9757407740249507
vn 0.21474410762635876 -0.04260176222821074 0.9757407740249507
vn 0.6048587360593545 -0.026096194636365217 0.7959050810480992
vn 0.8206218737370014 -0.01614664939939527 0.5712434035133762
vn 0.9880733323901526 0.021643447542508285 0.15245540658793977
vn 0.9802839304583277 0.008618932190577881 -0.1974060021708223
vn 0.8204273811010651 0.04837185810237273 -0.5697008650891904
vn 0.6040680764666967 0.08647699302856433 -0.7922269174110173
vn 0.23095355722205838 -0.0348275003473043 -0.9723412464901591
vn 0.21172965694203927 -0.17369730103199585 0.9617690991009259
vn 0.6031970417855279 -0.16897298685315257 0.7794879463436959
vn 0.8057223762903992 -0.1610591043387749 0.5699749268648087
vn 0.9808331233632916 -0.1376108128030552 0.13794799133402552
vn 0.977309334424708 -0.11110801505210657 -0.18033711164792246
vn 0.8629846851641265 -0.10218102474767024 -0.49478932016939237
vn 0.5907303627240964 -0.06449237881264545 -0.8042874931459173
vn -0.9847181902937876 0.08036401589005956 0.1545047269650682
vn -0.21393224429220833 0.12923104812569428 -0.9682625320915983
vn 0 -0.9976519588588147 0.06848772871960372
vn -0.21391492605650048 0.045272106829472865 0.975802664862862
vn -0.1960732283983102 0.9630071719084898 0.18485798862444738
vn -0.6024881915131257 0.1233786578952629 -0.7885338837762186
vn 0.0516865656604286 -0.9967402070780225 0.061947223701238764
vn -0.6024063162350042 0.05569148411785446 0.7962443649765586
vn -0.6144728900365535 0.7788259471452348 0.12590953682487244
vn 0 -0.9936843248036242 -0.11221168673344824
vn -0.014905057557261675 -0.9988203737131336 -0.04621363775738556
vn -0.9765258059215393 0.09598247243619329 -0.1928333875508182
vn -0.6145982676471254 0.7802735685366029 -0.11594018996149708
vn -0.19462994158510638 0.9702245528602035 -0.1441648461511915
vn -0.15662114518157702 0.7475021621655878 0.6455310483933232
vn -0.5876334948401779 0.6795439917724172 0.43921161071621007
vn -0.8172591809084131 0.06594974541034784 0.5724841153265476
vn 0 -0.9990482215818578 -0.043619387365336
vn 0 -0.9990482215818578 -0.043619387365336
vn 0 -0.992616023299164 0.12129892946664331
vn -0.001596599979921405 -0.9986384817786631 0.05214051763562603
vn -0.8173664014476343 0.11415510016239984 -0.5646952973874119
vn -0.5876334948401779 0.7152379358791493 -0.37831411660319064
vn -0.15888000650527911 0.811430576370153 -0.5624389418101168
vn -0.29402376445655093 -0.6005805403225576 -0.7435408801946691
vn -0.20264976592947065 -0.3560255301908024 0.9122383976905867
vn -0.5749582995506848 -0.3609307091873928 0.7342696895169178
vn -0.76638661774747 -0.3582662878015845 0.5331949166697536
vn -0.923236958218305 -0.35881632508194405 0.13742039089778674
vn -0.9202462833244706 -0.347277712597307 -0.18040224045360567
vn -0.8264658528008848 -0.4230944806050774 -0.3714098203273929
vn -0.6196010452694172 -0.5142846989760221 -0.5929635681053163
vn -0.2102347949332871 0.256618645204569 -0.9433706598854612
vn -0.5916716578903276 0.24902726093048883 -0.7667529410199674
vn -0.8027942428854277 0.23540351719919303 -0.5478198496588657
vn -0.9597204357961744 0.2124429389844877 -0.18386049817955594
vn -0.967164880846315 0.2001261405957099 0.15665765575866225
vn -0.8029686743607223 0.1857728671286984 0.5663300714549487
vn -0.5918147246529718 0.18017195377062611 0.7856802140555678
vn -0.21026297543778502 0.17282213742969607 0.9622484034667352
vn -0.21474410762635876 0.04260176222821074 -0.9757407740249507
vn -0.21474410762635876 -0.04260176222821074 0.9757407740249507
vn -0.6048587360593545 -0.026096194636365228 0.7959050810480992
vn -0.8206218737370014 -0.016146649399395273 0.5712434035133762
vn -0.9880733323901526 0.021643447542508246 0.15245540658793977
vn -0.9802839304583277 0.008618932190577881 -0.1974060021708223
vn -0.8204273811010651 0.04837185810237275 -0.5697008650891903
vn -0.6040680764666968 0.08647699302856436 -0.7922269174110174
vn -0.23095355722205838 -0.0348275003473043 -0.9723412464901591
vn -0.2117296569420393 -0.17369730103199585 0.9617690991009259
vn -0.6031970417855279 -0.16897298685315248 0.7794879463436958
vn -0.8057223762903992 -0.1610591043387749 0.5699749268648087
vn -0.9808331233632916 -0.1376108128030552 0.13794799133402552
vn -0.977309334424708 -0.11110801505210659 -0.1803371116479225
vn -0.8629846851641266 -0.10218102474767027 -0.4947893201693923
vn -0.5907303627240963 -0.06449237881264544 -0.8042874931459174
usemtl m_701f8fa9-a594-5a64-f97d-e0ac3fdd07fd
f 55/1/1 56/2/1 48/3/1 49/4/1
f 52/5/2 15/6/2 13/7/2 45/8/2
f 34/9/3 8/10/3 5/11/3 27/12/3
f 16/13/4 53/14/4 51/15/4 14/16/4
f 7/17/5 31/18/5 30/19/5 6/20/5
f 58/21/6 52/22/6 45/23/6 46/24/6
f 33/25/7 34/26/7 27/27/7 28/28/7
f 53/29/8 54/30/8 50/31/8 51/32/8
f 31/33/9 32/34/9 29/35/9 30/36/9
f 9/37/10 66/38/10 27/39/10 5/40/10
f 66/41/11 35/42/11 28/43/11 27/44/11
f 56/45/12 57/46/12 47/47/12 48/48/12
f 36/49/13 37/50/13 30/51/13 29/52/13
f 37/53/14 10/54/14 6/55/14 30/56/14
f 31/57/15 7/58/15 4/59/15 26/60/15
f 19/61/16 32/62/16 31/63/16 26/64/16
f 54/65/17 55/66/17 49/67/17 50/68/17
f 34/69/18 33/70/18 21/71/18 25/72/18
f 8/73/19 34/74/19 25/75/19 3/76/19
f 66/77/20 9/78/20 2/79/20 24/80/20
f 35/81/21 66/82/21 24/83/21 22/84/21
f 57/85/22 58/86/22 46/87/22 47/88/22
f 37/89/23 36/90/23 20/91/23 23/92/23
f 10/93/24 37/94/24 23/95/24 1/96/24
f 2/97/25 17/98/25 59/99/25 24/100/25
f 25/101/26 60/102/26 18/103/26 3/104/26
f 21/105/27 61/106/27 60/107/27 25/108/27
f 33/109/28 62/110/28 61/111/28 21/112/28
f 28/113/29 63/114/29 62/115/29 33/116/29
f 35/117/30 64/118/30 63/119/30 28/120/30
f 22/121/31 65/122/31 64/123/31 35/124/31
f 24/125/32 59/126/32 65/127/32 22/128/32
f 45/129/33 13/130/33 1/131/33 23/132/33
f 46/133/34 45/134/34 23/135/34 20/136/34
f 47/137/35 46/138/35 20/139/35 36/140/35
f 48/141/36 47/142/36 36/143/36 29/144/36
f 49/145/37 48/146/37 29/147/37 32/148/37
f 50/149/38 49/150/38 32/151/38 19/152/38
f 51/153/39 50/154/39 19/155/39 26/156/39
f 14/157/40 51/158/40 26/159/40 4/160/40
f 15/161/41 52/162/41 38/163/41 11/164/41
f 53/165/42 16/166/42 12/167/42 39/168/42
f 54/169/43 53/170/43 39/171/43 40/172/43
f 55/173/44 54/174/44 40/175/44 41/176/44
f 56/177/45 55/178/45 41/179/45 42/180/45
f 57/181/46 56/182/46 42/183/46 43/184/46
f 58/185/47 57/186/47 43/187/47 44/188/47
f 52/189/48 58/190/48 44/191/48 38/192/48
f 38/193/49 59/194/49 17/195/49 11/196/49
f 12/197/50 18/198/50 60/199/50 39/200/50
f 39/201/51 60/202/51 61/203/51 40/204/51
f 40/205/52 61/206/52 62/207/52 41/208/52
f 41/209/53 62/210/53 63/211/53 42/212/53
f 42/213/54 63/214/54 64/215/54 43/216/54
f 43/217/55 64/218/55 65/219/55 44/220/55
f 44/221/56 65/222/56 59/223/56 38/224/56
f 96/225/57 104/226/57 103/227/57 97/228/57
f 13/229/58 15/230/58 100/231/58 93/232/58
f 5/233/59 8/234/59 82/235/59 75/236/59
f 99/237/60 101/238/60 16/239/60 14/240/60
f 78/241/61 79/242/61 7/243/61 6/244/61
f 93/245/62 100/246/62 106/247/62 94/248/62
f 75/249/63 82/250/63 81/251/63 76/252/63
f 98/253/64 102/254/64 101/255/64 99/256/64
f 77/257/65 80/258/65 79/259/65 78/260/65
f 75/261/66 114/262/66 9/263/66 5/264/66
f 76/265/67 83/266/67 114/267/67 75/268/67
f 95/269/68 105/270/68 104/271/68 96/272/68
f 78/273/69 85/274/69 84/275/69 77/276/69
f 6/277/70 10/278/70 85/279/70 78/280/70
f 4/281/71 7/282/71 79/283/71 74/284/71
f 79/285/72 80/286/72 67/287/72 74/288/72
f 97/289/73 103/290/73 102/291/73 98/292/73
f 69/293/74 81/294/74 82/295/74 73/296/74
f 73/297/75 82/298/75 8/299/75 3/300/75
f 2/301/76 9/302/76 114/303/76 72/304/76
f 72/305/77 114/306/77 83/307/77 70/308/77
f 94/309/78 106/310/78 105/311/78 95/312/78
f 68/313/79 84/314/79 85/315/79 71/316/79
f 71/317/80 85/318/80 10/319/80 1/320/80
f 107/321/81 17/322/81 2/323/81 72/324/81
f 18/325/82 108/326/82 73/327/82 3/328/82
f 108/329/83 109/330/83 69/331/83 73/332/83
f 109/333/84 110/334/84 81/335/84 69/336/84
f 110/337/85 111/338/85 76/339/85 81/340/85
f 111/341/86 112/342/86 83/343/86 76/344/86
f 112/345/87 113/346/87 70/347/87 83/348/87
f 113/349/88 107/350/88 72/351/88 70/352/88
f 1/353/89 13/354/89 93/355/89 71/356/89
f 71/357/90 93/358/90 94/359/90 68/360/90
f 68/361/91 94/362/91 95/363/91 84/364/91
f 84/365/92 95/366/92 96/367/92 77/368/92
f 77/369/93 96/370/93 97/371/93 80/372/93
f 80/373/94 97/374/94 98/375/94 67/376/94
f 67/377/95 98/378/95 99/379/95 74/380/95
f 74/381/96 99/382/96 14/383/96 4/384/96
f 86/385/97 100/386/97 15/387/97 11/388/97
f 12/389/98 16/390/98 101/391/98 87/392/98
f 87/393/99 101/394/99 102/395/99 88/396/99
f 88/397/100 102/398/100 103/399/100 89/400/100
f 89/401/101 103/402/101 104/403/101 90/404/101
f 90/405/102 104/406/102 105/407/102 91/408/102
f 91/409/103 105/410/103 106/411/103 92/412/103
f 92/413/104 106/414/104 100/415/104 86/416/104
f 17/417/105 107/418/105 86/419/105 11/420/105
f 108/421/106 18/422/106 12/423/106 87/424/106
f 109/425/107 108/426/107 87/427/107 88/428/107
f 110/429/108 109/430/108 88/431/108 89/432/108
f 111/433/109 110/434/109 89/435/109 90/436/109
f 112/437/110 111/438/110 90/439/110 91/440/110
f 113/441/111 112/442/111 91/443/111 92/444/111
f 107/445/112 113/446/112 92/447/112 86/448/112