# Made in Blockbench 4.12.4
mtllib TrashBag.mtl

o sphere
v 0 0 0
v 0.03349375 0.583133125 0.125
v 0.0580125 0.46875 0.21650625
v 0.0669875 0.3125 0.25
v 0.0580125 0.15625 0.21650625
v 0.03349375 0.041866875000000026 0.125
v 0.06650625 0.583133125 0.06650625
v 0.15849375 0.46875 0.15849375
v 0.1830125 0.3125 0.1830125
v 0.15849375 0.15625 0.15849375
v 0.09150625 0.041866875000000026 0.09150625
v 0.1 0.583133125 0.00849375
v 0.21650625 0.46875 0.0580125
v 0.25 0.3125 0.0669875
v 0.21650625 0.15625 0.0580125
v 0.125 0.041866875000000026 0.03349375
v 0.125 0.583133125 -0.03349375
v 0.21650625 0.46875 -0.0580125
v 0.25 0.3125 -0.0669875
v 0.21650625 0.15625 -0.0580125
v 0.125 0.041866875000000026 -0.03349375
v 0.07275625 0.583133125 -0.06650625
v 0.15849375 0.46875 -0.15849375
v 0.1830125 0.3125 -0.1830125
v 0.15849375 0.15625 -0.15849375
v 0.09150625 0.041866875000000026 -0.09150625
v 0.01474375 0.583133125 -0.1
v 0.0580125 0.46875 -0.21650625
v 0.0669875 0.3125 -0.25
v 0.0580125 0.15625 -0.21650625
v 0.03349375 0.041866875000000026 -0.125
v -0.03349375 0.583133125 -0.125
v -0.0580125 0.46875 -0.21650625
v -0.0669875 0.3125 -0.25
v -0.0580125 0.15625 -0.21650625
v -0.03349375 0.041866875000000026 -0.125
v -0.06650625 0.583133125 -0.06650625
v -0.15849375 0.46875 -0.15849375
v -0.1830125 0.3125 -0.1830125
v -0.15849375 0.15625 -0.15849375
v -0.09150625 0.041866875000000026 -0.09150625
v -0.1 0.583133125 -0.00849375
v -0.21650625 0.46875 -0.0580125
v -0.25 0.3125 -0.0669875
v -0.21650625 0.15625 -0.0580125
v -0.125 0.041866875000000026 -0.03349375
v -0.125 0.583133125 0.03349375
v -0.21650625 0.46875 0.0580125
v -0.25 0.3125 0.0669875
v -0.21650625 0.15625 0.0580125
v -0.125 0.041866875000000026 0.03349375
v -0.07900625 0.583133125 0.06025625
v -0.15849375 0.46875 0.15849375
v -0.1830125 0.3125 0.1830125
v -0.15849375 0.15625 0.15849375
v -0.09150625 0.041866875000000026 0.09150625
v -0.02099375 0.583133125 0.09375
v -0.0580125 0.46875 0.21650625
v -0.0669875 0.3125 0.25
v -0.0580125 0.15625 0.21650625
v -0.03349375 0.041866875000000026 0.125
v -0.00669875 0.626883125 -0.025
v -0.025 0.626883125 0.00669875
v 0.00669875 0.626883125 0.025
v 0.025 0.626883125 -0.00669875
v -0.015071875 0.651883125 -0.05625
v -0.05625 0.651883125 0.015071875
v 0.015071875 0.651883125 0.05625
v 0.05625 0.651883125 -0.015071875
v -0.010885625 0.645633125 -0.040625
v -0.040625 0.645633125 0.010885625
v 0.010885625 0.645633125 0.040625
v 0.040625 0.645633125 -0.010885625
vt 0.6000378125 0.7578853125
vt 0.6124253125 0.68466625
vt 0.6672425 0.70365375
vt 0.623873125 0.7774284375
vt 0.1523684375 0.6738340625
vt 0.1389625 0.5949390625
vt 0.20552875 0.587438125
vt 0.21001625 0.667338125
vt 0.1389625 0.5949390625
vt 0.134475 0.5150390625
vt 0.1921228125 0.508543125
vt 0.20552875 0.587438125
vt 0.134475 0.5150390625
vt 0.13845625 0.44088625000000004
vt 0.171739375 0.4371359375
vt 0.1921228125 0.508543125
vt 0.6789909375 0.94966875
vt 0.649559375 0.965656875
vt 0.6328125 0.899744375
vt 0.2950565625 1
vt 0.2688146875 0.9174599999999999
vt 0.3264625 0.9109640625
vt 0.3283396875 0.9962496875
vt 0.2688146875 0.9174599999999999
vt 0.25540875 0.838565
vt 0.321975 0.8310640625
vt 0.3264625 0.9109640625
vt 0.25540875 0.838565
vt 0.25092125 0.758665
vt 0.3085690625 0.7521690625
vt 0.321975 0.8310640625
vt 0.733759375 0.9998175
vt 0.6789909375 0.94966875
vt 0.69722125 0.92157125
vt 0.7653353125 0.95115125
vt 0.69722125 0.92157125
vt 0.6789909375 0.94966875
vt 0.6328125 0.899744375
vt 0.3698959375 0.9978971875
vt 0.3278690625 0.9236615625
vt 0.384475 0.9109640625
vt 0.3884284375 0.9845996875
vt 0.3264625 0.9109640625
vt 0.321975 0.8310640625
vt 0.3889625 0.8310640625
vt 0.384475 0.9109640625
vt 0.3236546875 0.8161565625
vt 0.3458109375 0.7392587500000001
vt 0.4023684375 0.7521690625
vt 0.3889625 0.8310640625
vt 0.5002090625 0.46696031250000003
vt 0.5124684375 0.39371968749999997
vt 0.5459621875 0.39371968749999997
vt 0.5582215625 0.46696031250000003
vt 0.69982875 0.8881790625
vt 0.69722125 0.92157125
vt 0.6328125 0.899744375
vt 0.38845625 0.985116875
vt 0.384475 0.9109640625
vt 0.4421228125 0.9174599999999999
vt 0.4146353125 0.9970984375
vt 0.384475 0.9109640625
vt 0.3889625 0.8310640625
vt 0.45552875 0.838565
vt 0.4421228125 0.9174599999999999
vt 0.3889625 0.8310640625
vt 0.4023684375 0.7521690625
vt 0.46001625 0.758665
vt 0.45552875 0.838565
vt 0.5582215625 0.46696031250000003
vt 0.5459621875 0.39371968749999997
vt 0.5776303125 0.3828125
vt 0.6130721875 0.44806875
vt 0.6861803125 0.8575921875
vt 0.69982875 0.8881790625
vt 0.6328125 0.899744375
vt 0.545035625 0.625
vt 0.5006528125 0.5525131249999999
vt 0.5544753125 0.530865625
vt 0.57611 0.6125015625
vt 0.25092125 0.667338125
vt 0.25540875 0.587438125
vt 0.321975 0.5949390625
vt 0.3085690625 0.6738340625
vt 0.25540875 0.587438125
vt 0.2688146875 0.508543125
vt 0.3264625 0.5150390625
vt 0.321975 0.5949390625
vt 0.2688146875 0.508543125
vt 0.289198125 0.4371359375
vt 0.32248125 0.44088625000000004
vt 0.3264625 0.5150390625
vt 0.659586875 0.83723
vt 0.6861803125 0.8575921875
vt 0.6328125 0.899744375
vt 0.5761096875 0.6125
vt 0.5544753125 0.530865625
vt 0.6124878125 0.530865625
vt 0.6002284375 0.60358125
vt 0.3458109375 0.6867440625
vt 0.3236546875 0.6098465625
vt 0.3889625 0.5949390625
vt 0.4023684375 0.6738340625
vt 0.321975 0.5949390625
vt 0.3264625 0.5150390625
vt 0.384475 0.5150390625
vt 0.3889625 0.5949390625
vt 0.327854375 0.502408125
vt 0.3557659375 0.43359375
vt 0.38845625 0.44088625000000004
vt 0.384475 0.5150390625
vt 0.6264990625 0.83203125
vt 0.659586875 0.83723
vt 0.6328125 0.899744375
vt 0.6001421875 0.604091875
vt 0.6124878125 0.530865625
vt 0.6673159375 0.5498215625
vt 0.6239884375 0.6236215625
vt 0.4023684375 0.6738340625
vt 0.3889625 0.5949390625
vt 0.45552875 0.587438125
vt 0.46001625 0.667338125
vt 0.3889625 0.5949390625
vt 0.384475 0.5150390625
vt 0.4421228125 0.508543125
vt 0.45552875 0.587438125
vt 0.384475 0.5150390625
vt 0.38845625 0.44088625000000004
vt 0.421739375 0.4371359375
vt 0.4421228125 0.508543125
vt 0.5794446875 0.8575921875
vt 0.606038125 0.83723
vt 0.6328125 0.899744375
vt 0.0450565625 1
vt 0.0188146875 0.9174599999999999
vt 0.0764625 0.9109640625
vt 0.0783396875 0.9962496875
vt 0.0188146875 0.9174599999999999
vt 0.00540875 0.838565
vt 0.071975 0.8310640625
vt 0.0764625 0.9109640625
vt 0.00540875 0.838565
vt 0.00092125 0.758665
vt 0.0585690625 0.7521690625
vt 0.071975 0.8310640625
vt 0.0002090625 0.35431875
vt 0.0356509375 0.2890625
vt 0.0673190625 0.29996968749999997
vt 0.0550596875 0.37321031250000003
vt 0.56579625 0.8881790625
vt 0.5794446875 0.8575921875
vt 0.6328125 0.899744375
vt 0.1198959375 0.9978971875
vt 0.0778690625 0.9236615625
vt 0.134475 0.9109640625
vt 0.1384284375 0.9845996875
vt 0.0764625 0.9109640625
vt 0.071975 0.8310640625
vt 0.1389625 0.8310640625
vt 0.134475 0.9109640625
vt 0.0736546875 0.8161565625
vt 0.0958109375 0.7392587500000001
vt 0.1523684375 0.7521690625
vt 0.1389625 0.8310640625
vt 0.0550596875 0.37321031250000003
vt 0.0673190625 0.29996968749999997
vt 0.1008128125 0.29996968749999997
vt 0.1130721875 0.37321031250000003
vt 0.56840375 0.92157125
vt 0.56579625 0.8881790625
vt 0.6328125 0.899744375
vt 0.13845625 0.985116875
vt 0.134475 0.9109640625
vt 0.1921228125 0.9174599999999999
vt 0.16047375 0.995909375
vt 0.134475 0.9109640625
vt 0.1389625 0.8310640625
vt 0.20552875 0.838565
vt 0.1921228125 0.9174599999999999
vt 0.1389625 0.8310640625
vt 0.1523684375 0.7521690625
vt 0.21001625 0.758665
vt 0.20552875 0.838565
vt 0.5002896875 0.95115125
vt 0.56840375 0.92157125
vt 0.5866340625 0.94966875
vt 0.531865625 0.9998175
vt 0.5866340625 0.94966875
vt 0.56840375 0.92157125
vt 0.6328125 0.899744375
vt 0.541925625 0.78125
vt 0.50072625 0.7066481250000001
vt 0.5544128125 0.68466625
vt 0.572921875 0.76855875
vt 0.00092125 0.667338125
vt 0.00540875 0.587438125
vt 0.071975 0.5949390625
vt 0.0585690625 0.6738340625
vt 0.00540875 0.587438125
vt 0.0188146875 0.508543125
vt 0.0764625 0.5150390625
vt 0.071975 0.5949390625
vt 0.0188146875 0.508543125
vt 0.039198125 0.4371359375
vt 0.07248125 0.44088625000000004
vt 0.0764625 0.5150390625
vt 0.616065625 0.965656875
vt 0.5866340625 0.94966875
vt 0.6328125 0.899744375
vt 0.5729221875 0.76856
vt 0.5544128125 0.68466625
vt 0.6124253125 0.68466625
vt 0.6001659375 0.75712875
vt 0.0958109375 0.6867440625
vt 0.0736546875 0.6098465625
vt 0.1389625 0.5949390625
vt 0.1523684375 0.6738340625
vt 0.071975 0.5949390625
vt 0.0764625 0.5150390625
vt 0.134475 0.5150390625
vt 0.1389625 0.5949390625
vt 0.077854375 0.502408125
vt 0.1057659375 0.43359375
vt 0.13845625 0.44088625000000004
vt 0.134475 0.5150390625
vt 0.649559375 0.965656875
vt 0.616065625 0.965656875
vt 0.6328125 0.899744375
vt 0.6875 0.40625
vt 0.6875 0.43983312500000005
vt 0.6568175 0.4733253125
vt 0.65625 0.49775187499999995
vt 0.1576421875 0.35637375000000004
vt 0.1806390625 0.34299250000000003
vt 0.2096453125 0.326245625
vt 0.2368890625 0.310620625
vt 0.157755625 0.27900187499999995
vt 0.157755625 0.24541875000000002
vt 0.1580834375 0.21192687499999996
vt 0.158650625 0.1875
vt 0.5479328125 0.81640625
vt 0.52734375 0.81640625
vt 0.52734375 0.7958171875
vt 0.5479328125 0.7958171875
vt 0.525896875 0.34375
vt 0.507596875 0.34375
vt 0.47099375 0.3125
vt 0.5625 0.3125
vt 0.22651 0.36585
vt 0.210661875 0.375
vt 0.1576421875 0.35637375000000004
vt 0.2368890625 0.310620625
vt 0.682146875 0.375
vt 0.663846875 0.375
vt 0.62724375 0.34375
vt 0.71875 0.34375
vt 0.28125 0.28349375
vt 0.3125 0.31436906249999996
vt 0.3125 0.34786249999999996
vt 0.28125 0.375
vt 0.398653125 0.375
vt 0.380353125 0.375
vt 0.34375 0.34375
vt 0.43525625 0.34375
vt 0.73046875 0.65625
vt 0.68929375 0.65625
vt 0.70073125 0.625
vt 0.71903125 0.625
vt 0.728675 0.3125
vt 0.6875 0.3125
vt 0.6989375 0.28125
vt 0.7172375 0.28125
vt 0.38671875 0.3125
vt 0.34554375 0.3125
vt 0.35698125 0.28125
vt 0.37528125 0.28125
vt 0.634925 0.3125
vt 0.59375 0.3125
vt 0.6051875 0.28125
vt 0.6234875 0.28125
vt 0.674715 0.791195
vt 0.68927375 0.80575375
vt 0.68927375 0.8203125
vt 0.66015625 0.791195
vt 0.65802375 0.80575375
vt 0.643465 0.8203125
vt 0.62890625 0.8203125
vt 0.65802375 0.791195
vt 0.612215 0.82421875
vt 0.59765625 0.80966
vt 0.59765625 0.79510125
vt 0.62677375 0.82421875
vt 0.56640625 0.80966
vt 0.580965 0.79510125
vt 0.59552375 0.79510125
vt 0.56640625 0.82421875
vn 0.39043303417108255 0.624693719878325 0.6762542437371784
vn 0.48889604164102884 0.2095995109723418 0.8467872846635622
vn 0.4888912469427446 -0.20959981293855137 0.8467899781403255
vn 0.39043706702200565 -0.6246931458588322 0.6762524456238586
vn 0.1587979766339473 -0.948226656982904 0.275044377517503
vn 0.5829692696234688 0.7395024761513423 0.33657527901007916
vn 0.8467880094061159 0.20959560695082838 0.4888964600740546
vn 0.8467908150009423 -0.2095953049774454 0.4888917301013094
vn 0.6762505637489306 -0.6246958621196088 0.39043598051395395
vn 0.275044377517503 -0.948226656982904 0.1587979766339473
vn 0.700575018461863 0.7135787577465857 0
vn 0.9777875301620005 0.20959853496552636 0
vn 0.9777875301620006 -0.20959853496552636 0
vn 0.7808696419777753 -0.6246940068845717 0
vn 0.3175943065587542 -0.948226690428752 0
vn 0.6762542437371784 0.624693719878325 -0.39043303417108255
vn 0.8467872846635622 0.2095995109723418 -0.48889604164102884
vn 0.8467899781403255 -0.20959981293855137 -0.4888912469427446
vn 0.6762524456238586 -0.6246931458588322 -0.39043706702200565
vn 0.275044377517503 -0.948226656982904 -0.1587979766339473
vn 0.3411889546935444 0.7309964794280422 -0.590960442211604
vn 0.4888964600740546 0.20959560695082838 -0.8467880094061159
vn 0.4888917301013094 -0.2095953049774454 -0.8467908150009423
vn 0.39043598051395384 -0.6246958621196087 -0.6762505637489304
vn 0.1587979766339473 -0.948226656982904 -0.275044377517503
vn 0 0.7135787577465859 -0.7005750184618629
vn 0 0.20959853496552636 -0.9777875301620005
vn 0 -0.20959853496552636 -0.9777875301620006
vn 0 -0.6246940068845717 -0.7808696419777753
vn 0 -0.948226690428752 -0.3175943065587542
vn -0.39043303417108255 0.624693719878325 -0.6762542437371784
vn -0.48889604164102884 0.2095995109723418 -0.8467872846635622
vn -0.4888912469427446 -0.20959981293855137 -0.8467899781403255
vn -0.39043706702200565 -0.6246931458588322 -0.6762524456238586
vn -0.1587979766339473 -0.948226656982904 -0.275044377517503
vn -0.5829692696234688 0.7395024761513423 -0.33657527901007916
vn -0.8467880094061159 0.20959560695082838 -0.4888964600740546
vn -0.8467908150009423 -0.2095953049774454 -0.4888917301013094
vn -0.6762505637489306 -0.6246958621196088 -0.39043598051395395
vn -0.275044377517503 -0.948226656982904 -0.1587979766339473
vn -0.700575018461863 0.7135787577465857 0
vn -0.9777875301620005 0.20959853496552636 0
vn -0.9777875301620006 -0.20959853496552636 0
vn -0.7808696419777753 -0.6246940068845717 0
vn -0.3175943065587542 -0.948226690428752 0
vn -0.6762542437371784 0.624693719878325 0.39043303417108255
vn -0.8467872846635622 0.2095995109723418 0.48889604164102884
vn -0.8467899781403255 -0.20959981293855137 0.4888912469427446
vn -0.6762524456238586 -0.6246931458588322 0.39043706702200565
vn -0.275044377517503 -0.948226656982904 0.1587979766339473
vn -0.33780436091828847 0.737257355798374 0.5850981157598925
vn -0.4888964600740546 0.20959560695082838 0.8467880094061159
vn -0.4888917301013094 -0.2095953049774454 0.8467908150009423
vn -0.39043598051395384 -0.6246958621196087 0.6762505637489304
vn -0.1587979766339473 -0.948226656982904 0.275044377517503
vn 0 0.7316180093072336 0.6817148146089542
vn 0 0.20959853496552636 0.9777875301620005
vn 0 -0.20959853496552636 0.9777875301620006
vn 0 -0.6246940068845717 0.7808696419777753
vn 0 -0.948226690428752 0.3175943065587542
vn 0 -1 0
vn 0 1 0
vn 0 -1 0
vn 0 1 0
vn -0.44427373174315005 0.8583868770427742 -0.2565011122856367
vn -0.2565011122856367 0.8583868770427742 0.44427373174315005
vn 0.44427373174315005 0.8583868770427742 0.2565011122856367
vn 0 1 0
vn 0.2565011122856367 0.8583868770427742 -0.44427373174315005
vn -0.6389044110857001 -0.6750793192306994 -0.3688754074782574
vn -0.3688754074782574 -0.6750793192306994 0.6389044110857001
vn 0.6389044110857001 -0.6750793192306994 0.3688754074782574
vn 0.3688754074782574 -0.6750793192306994 -0.6389044110857001
vn 0.41527118746304237 0.8775349607220341 0.23975452774371725
vn 0.23975452774371725 0.8775349607220341 -0.41527118746304237
vn -0.41527118746304237 0.8775349607220341 -0.23975452774371725
vn -0.23975452774371725 0.8775349607220341 0.41527118746304237
usemtl m_96a01ae5-5f5e-700c-5839-cf2c5c9ca037
f 2/1/1 3/2/1 8/3/1 7/4/1
f 3/5/2 4/6/2 9/7/2 8/8/2
f 4/9/3 5/10/3 10/11/3 9/12/3
f 5/13/4 6/14/4 11/15/4 10/16/4
f 11/17/5 6/18/5 1/19/5
f 7/20/6 8/21/6 13/22/6 12/23/6
f 8/24/7 9/25/7 14/26/7 13/27/7
f 9/28/8 10/29/8 15/30/8 14/31/8
f 10/32/9 11/33/9 16/34/9 15/35/9
f 16/36/10 11/37/10 1/38/10
f 12/39/11 13/40/11 18/41/11 17/42/11
f 13/43/12 14/44/12 19/45/12 18/46/12
f 14/47/13 15/48/13 20/49/13 19/50/13
f 15/51/14 16/52/14 21/53/14 20/54/14
f 21/55/15 16/56/15 1/57/15
f 17/58/16 18/59/16 23/60/16 22/61/16
f 18/62/17 19/63/17 24/64/17 23/65/17
f 19/66/18 20/67/18 25/68/18 24/69/18
f 20/70/19 21/71/19 26/72/19 25/73/19
f 26/74/20 21/75/20 1/76/20
f 22/77/21 23/78/21 28/79/21 27/80/21
f 23/81/22 24/82/22 29/83/22 28/84/22
f 24/85/23 25/86/23 30/87/23 29/88/23
f 25/89/24 26/90/24 31/91/24 30/92/24
f 31/93/25 26/94/25 1/95/25
f 27/96/26 28/97/26 33/98/26 32/99/26
f 28/100/27 29/101/27 34/102/27 33/103/27
f 29/104/28 30/105/28 35/106/28 34/107/28
f 30/108/29 31/109/29 36/110/29 35/111/29
f 36/112/30 31/113/30 1/114/30
f 32/115/31 33/116/31 38/117/31 37/118/31
f 33/119/32 34/120/32 39/121/32 38/122/32
f 34/123/33 35/124/33 40/125/33 39/126/33
f 35/127/34 36/128/34 41/129/34 40/130/34
f 41/131/35 36/132/35 1/133/35
f 37/134/36 38/135/36 43/136/36 42/137/36
f 38/138/37 39/139/37 44/140/37 43/141/37
f 39/142/38 40/143/38 45/144/38 44/145/38
f 40/146/39 41/147/39 46/148/39 45/149/39
f 46/150/40 41/151/40 1/152/40
f 42/153/41 43/154/41 48/155/41 47/156/41
f 43/157/42 44/158/42 49/159/42 48/160/42
f 44/161/43 45/162/43 50/163/43 49/164/43
f 45/165/44 46/166/44 51/167/44 50/168/44
f 51/169/45 46/170/45 1/171/45
f 47/172/46 48/173/46 53/174/46 52/175/46
f 48/176/47 49/177/47 54/178/47 53/179/47
f 49/180/48 50/181/48 55/182/48 54/183/48
f 50/184/49 51/185/49 56/186/49 55/187/49
f 56/188/50 51/189/50 1/190/50
f 52/191/51 53/192/51 58/193/51 57/194/51
f 53/195/52 54/196/52 59/197/52 58/198/52
f 54/199/53 55/200/53 60/201/53 59/202/53
f 55/203/54 56/204/54 61/205/54 60/206/54
f 61/207/55 56/208/55 1/209/55
f 57/210/56 58/211/56 3/212/56 2/213/56
f 58/214/57 59/215/57 4/216/57 3/217/57
f 59/218/58 60/219/58 5/220/58 4/221/58
f 60/222/59 61/223/59 6/224/59 5/225/59
f 6/226/60 61/227/60 1/228/60
f 32/229/61 37/230/61 42/231/61 47/232/61
f 47/233/62 52/234/62 57/235/62 2/236/62
f 2/237/63 7/238/63 12/239/63 17/240/63
f 70/241/64 71/242/64 72/243/64 73/244/64
f 63/245/65 62/246/65 32/247/65 47/248/65
f 64/249/66 63/250/66 47/251/66 2/252/66
f 65/253/67 64/254/67 2/255/67 17/256/67
f 17/257/68 22/258/68 27/259/68 32/260/68
f 62/261/69 65/262/69 17/263/69 32/264/69
f 67/265/70 66/266/70 62/267/70 63/268/70
f 68/269/71 67/270/71 63/271/71 64/272/71
f 69/273/72 68/274/72 64/275/72 65/276/72
f 66/277/73 69/278/73 65/279/73 62/280/73
f 71/281/74 70/282/74 66/283/74 67/284/74
f 72/285/75 71/286/75 67/287/75 68/288/75
f 73/289/76 72/290/76 68/291/76 69/292/76
f 70/293/77 73/294/77 69/295/77 66/296/77