# Made in Blockbench 4.12.4
mtllib TRASH.mtl

o sphere
v -1.1102230246251565e-16 -1.2575388790135196 -0.16958813691132407
v -1.1102230246251565e-16 1.0075388790135196 0.5445881369113243
v 0.7322330470336311 0.22398481261823355 1.8730563549053523
v 1.0355339059327375 -0.7639998239465802 2.2141485203399824
v 0.7322330470336312 -1.3776670299975076 1.368057468722817
v 1.7677669529663687 0.48866720605092717 1.033591051617166
v 2.5 -0.3896823934326936 1.0269653032881862
v 1.7677669529663693 -1.112984636564814 0.5285921654346311
v 1.7677669529663687 0.8629846365648137 -0.15359216543463006
v 2.5 0.13968239343269356 -0.6519653032881859
v 1.7677669529663693 -0.7386672060509272 -0.6585910516171656
v 0.7322330470336313 1.1276670299975073 -0.9930574687228164
v 1.0355339059327378 0.5139998239465803 -1.839148520339982
v 0.7322330470336313 -0.4739848126182335 -1.498056354905352
v -0.7322330470336312 1.1276670299975073 -0.9930574687228164
v -1.0355339059327375 0.5139998239465804 -1.8391485203399824
v -0.7322330470336312 -0.4739848126182335 -1.498056354905352
v -1.7677669529663687 0.8629846365648142 -0.15359216543463106
v -2.4999999999999996 0.139682393432694 -0.6519653032881871
v -1.7677669529663687 -0.7386672060509268 -0.6585910516171667
v -1.7677669529663687 0.48866720605092706 1.0335910516171665
v -2.5 -0.38968239343269373 1.0269653032881867
v -1.7677669529663693 -1.112984636564814 0.5285921654346311
v -0.7322330470336326 0.22398481261823366 1.8730563549053518
v -1.0355339059327395 -0.7639998239465801 2.214148520339982
v -0.7322330470336326 -1.3776670299975073 1.3680574687228166
vt 0.2149087526657446 0.8380362012272307
vt 0.15283804014844166 0.7800499798907832
vt 0.26660152662538905 0.7446854700398967
vt 0.5086551085782145 0.8777952789951717
vt 0.527611328125 0.8124699933154079
vt 0.6362380328570962 0.8637596612526484
vt 0.5854656801024005 0.9140625
vt 0.5471425476717855 0.6855768816845921
vt 0.528186328125 0.6202515960048283
vt 0.604996899649186 0.583984375
vt 0.6557692524038816 0.6342872137473516
vt 0.0004942901484415452 0.8664343951092169
vt 0.06256500266574447 0.8084481737727693
vt 0.11425777662538894 0.9017989049601033
vt 0.15283804014844166 0.7800499798907832
vt 0.15526760299178746 0.7022879247199595
vt 0.26660180833441743 0.7446853824678468
vt 0.016764062500000003 0.796875
vt 0.000651171875000002 0.7265625
vt 0.110676953125 0.7265625
vt 0.09456406249999999 0.796875
vt 0.000651171875000002 0.72265625
vt 0.016764062500000003 0.65234375
vt 0.09456406249999999 0.65234375
vt 0.110676953125 0.72265625
vt 0.0029238529917874345 0.9441964502800406
vt 0.000494290148441559 0.8664343951092169
vt 0.11425805833441735 0.9017989925321532
vt 0.1552676029917875 0.7022879247199595
vt 0.220837109375 0.6482896372476052
vt 0.266601532641626 0.744685277480584
vt 0.05125306989759948 0.6328125
vt 0.0004807171429038193 0.5825096612526484
vt 0.109107421875 0.5312199933154079
vt 0.12806364142178547 0.5965452789951717
vt 0.23094949759611832 0.9467872137473516
vt 0.281721850350814 0.896484375
vt 0.358532421875 0.9327515960048283
vt 0.3395762023282145 0.9980768816845921
vt 0.06849335937499999 0.9981947377523949
vt 0.0029238529917874484 0.9441964502800406
vt 0.11425778264162598 0.9017990975194161
vt 0.220837109375 0.6482896372476052
vt 0.312366015625 0.6482896372476052
vt 0.2666015625 0.7446853403726053
vt 0.128063671875 0.5965453839404079
vt 0.109107421875 0.5312199933154079
vt 0.238548828125 0.5312199933154079
vt 0.219592578125 0.5965453839404079
vt 0.339576171875 0.9980769866298284
vt 0.358532421875 0.9327515960048283
vt 0.450061328125 0.9327515960048283
vt 0.469017578125 0.9980769866298284
vt 0.160022265625 0.9981947377523949
vt 0.068493359375 0.9981947377523949
vt 0.1142578125 0.9017990346273949
vt 0.312366015625 0.6482896372476052
vt 0.3779355220082125 0.7022879247199595
vt 0.266601592358374 0.744685277480584
vt 0.21959260857821453 0.5965452789951717
vt 0.238548828125 0.5312199933154079
vt 0.3471755328570962 0.5825096612526484
vt 0.2964031801024005 0.6328125
vt 0.4690175476717855 0.9980768816845921
vt 0.450061328125 0.9327515960048283
vt 0.526871899649186 0.896484375
vt 0.5776442524038816 0.9467872137473516
vt 0.22559177200821257 0.9441964502800406
vt 0.160022265625 0.9981947377523949
vt 0.11425784235837402 0.9017990975194161
vt 0.37793552200821257 0.7022879247199595
vt 0.38036508485155834 0.7800499798907832
vt 0.26660131666558257 0.7446853824678468
vt 0.3995765625 0.78125
vt 0.383463671875 0.7109375
vt 0.49348945312500003 0.7109375
vt 0.4773765625 0.78125
vt 0.402994921875 0.59765625
vt 0.4191078125 0.52734375
vt 0.4969078125 0.52734375
vt 0.513020703125 0.59765625
vt 0.22802133485155845 0.8664343951092169
vt 0.22559177200821257 0.9441964502800406
vt 0.11425756666558265 0.9017989925321532
vt 0.38036508485155834 0.7800499798907832
vt 0.3182943723342554 0.8380362012272307
vt 0.26660159837461095 0.7446854700398967
vt 0.3403155698975995 0.9140625
vt 0.2895432171429038 0.8637596612526484
vt 0.398169921875 0.8124699933154079
vt 0.4171261414217855 0.8777952789951717
vt 0.3090744975961183 0.6342872137473516
vt 0.359846850350814 0.583984375
vt 0.436657421875 0.6202515960048283
vt 0.4177012023282145 0.6855768816845921
vt 0.16595062233425553 0.8084481737727693
vt 0.22802133485155845 0.8664343951092169
vt 0.11425784837461106 0.9017989049601033
vt 0.30625913954454 0.84375
vt 0.2149087526657446 0.8380362012272307
vt 0.2666015603516346 0.7446854091344849
vt 0.417126171875 0.8777953839404079
vt 0.398169921875 0.8124699933154079
vt 0.527611328125 0.8124699933154079
vt 0.508655078125 0.8777953839404079
vt 0.417701171875 0.6855769866298282
vt 0.436657421875 0.6202515960048283
vt 0.528186328125 0.6202515960048283
vt 0.547142578125 0.6855769866298282
vt 0.07460023545546016 0.802734375
vt 0.16595062233425553 0.8084481737727693
vt 0.11425781464836549 0.9017989658655151
vn 0.1360213020165541 0.8843251335067129 0.4466175809863019
vn 0.5060485978358624 0.4161668868116742 0.7554600842862824
vn 0.5060485978358624 -0.7742180590475549 0.38013315255709335
vn 0.13602130201655407 -0.9805660614420072 -0.14138035417210976
vn 0.1930503225982427 0.9357764447302395 0.2950491796849255
vn 0.7536854848223511 0.6268164102541659 0.19763445500261054
vn 0.7536854848223516 -0.6268164102541655 -0.19763445500261043
vn 0.19305032259824273 -0.9357764447302396 -0.2950491796849255
vn 0.13602130201655413 0.9805660614420072 0.14138035417210987
vn 0.5060485978358623 0.7742180590475553 -0.3801331525570929
vn 0.5060485978358625 -0.41616688681167413 -0.7554600842862824
vn 0.13602130201655413 -0.8843251335067129 -0.44661758098630194
vn 0 0.996962162089784 0.07788740181353632
vn 1.5386324543905215e-16 0.8094962200621476 -0.5871250886353734
vn 0 -0.32633936747635 -0.9452526737519107
vn 0 -0.86133797152347 -0.5080323796883759
vn -0.13602130201655405 0.9805660614420072 0.14138035417210978
vn -0.5060485978358622 0.7742180590475553 -0.3801331525570931
vn -0.5060485978358622 -0.416166886811674 -0.7554600842862825
vn -0.13602130201655407 -0.8843251335067129 -0.446617580986302
vn -0.19305032259824273 0.9357764447302395 0.2950491796849255
vn -0.7536854848223512 0.6268164102541658 0.19763445500261023
vn -0.7536854848223512 -0.6268164102541657 -0.19763445500261087
vn -0.1930503225982427 -0.9357764447302395 -0.2950491796849256
vn -0.13602130201655416 0.8843251335067129 0.4466175809863018
vn -0.5060485978358625 0.41616688681167446 0.7554600842862822
vn -0.5060485978358626 -0.774218059047555 0.3801331525570931
vn -0.1360213020165541 -0.9805660614420072 -0.14138035417210984
vn -6.838427696392984e-17 0.86133797152347 0.5080323796883759
vn -1.5386324543905206e-16 0.32633936747635034 0.9452526737519105
vn -2.901273179341969e-16 -0.8094962200621476 0.5871250886353736
vn -6.838427696392984e-17 -0.996962162089784 -0.07788740181353622
usemtl m_1f8db5b5-8c82-d696-c59f-63f04ff8321c
f 3/1/1 6/2/1 2/3/1
f 3/4/2 4/5/2 7/6/2 6/7/2
f 4/8/3 5/9/3 8/10/3 7/11/3
f 8/12/4 5/13/4 1/14/4
f 6/15/5 9/16/5 2/17/5
f 6/18/6 7/19/6 10/20/6 9/21/6
f 7/22/7 8/23/7 11/24/7 10/25/7
f 11/26/8 8/27/8 1/28/8
f 9/29/9 12/30/9 2/31/9
f 9/32/10 10/33/10 13/34/10 12/35/10
f 10/36/11 11/37/11 14/38/11 13/39/11
f 14/40/12 11/41/12 1/42/12
f 12/43/13 15/44/13 2/45/13
f 12/46/14 13/47/14 16/48/14 15/49/14
f 13/50/15 14/51/15 17/52/15 16/53/15
f 17/54/16 14/55/16 1/56/16
f 15/57/17 18/58/17 2/59/17
f 15/60/18 16/61/18 19/62/18 18/63/18
f 16/64/19 17/65/19 20/66/19 19/67/19
f 20/68/20 17/69/20 1/70/20
f 18/71/21 21/72/21 2/73/21
f 18/74/22 19/75/22 22/76/22 21/77/22
f 19/78/23 20/79/23 23/80/23 22/81/23
f 23/82/24 20/83/24 1/84/24
f 21/85/25 24/86/25 2/87/25
f 21/88/26 22/89/26 25/90/26 24/91/26
f 22/92/27 23/93/27 26/94/27 25/95/27
f 26/96/28 23/97/28 1/98/28
f 24/99/29 3/100/29 2/101/29
f 24/102/30 25/103/30 4/104/30 3/105/30
f 25/106/31 26/107/31 5/108/31 4/109/31
f 5/110/32 26/111/32 1/112/32