# Made in Blockbench 4.12.4
mtllib WallSpaceSuitLocker Empty.mtl

o cuboid
v 0.16249999999999998 0.975 0.23750000000000032
v 0.16249999999999998 0.975 -0.09375
v 0.16249999999999998 0.9625 0.23750000000000032
v 0.16249999999999998 0.9625 -0.09375
v -0.16249999999999998 0.975 0.23750000000000032
v -0.16249999999999998 0.975 -0.09375
v -0.16249999999999998 0.9625 0.23750000000000032
v -0.16249999999999998 0.9625 -0.09375
v -0.08124999999999999 0.8249999999999997 0.23125000000000007
v -0.08124999999999999 0.8624999999999996 -0.09374999999999996
v -0.08124999999999999 0.7874999999999999 0.23125000000000007
v -0.08124999999999999 0.8249999999999997 -0.09374999999999996
v -0.11874999999999997 0.8249999999999997 0.23125000000000007
v -0.11874999999999997 0.8624999999999996 -0.09374999999999996
v -0.11874999999999997 0.7874999999999999 0.23125000000000007
v -0.11874999999999997 0.8249999999999997 -0.09374999999999996
v -0.11874999999999997 0.8249999999999997 -0.018750000000000003
v -0.11874999999999997 0.7874999999999999 -0.018750000000000003
v -0.08124999999999999 0.7874999999999999 -0.018750000000000003
v -0.08124999999999999 0.8249999999999997 -0.018750000000000003
v -0.11874999999999997 0.8249999999999997 -0.08125
v -0.11874999999999997 0.8624999999999996 -0.08125
v -0.08124999999999999 0.8624999999999996 -0.08125
v -0.08124999999999999 0.8249999999999997 -0.08125
v 0.12500000000000003 0.8249999999999997 0.23125000000000007
v 0.12500000000000003 0.8624999999999996 -0.09374999999999996
v 0.12500000000000003 0.7874999999999999 0.23125000000000007
v 0.12500000000000003 0.8249999999999997 -0.09374999999999996
v 0.08750000000000005 0.8249999999999997 0.23125000000000007
v 0.08750000000000005 0.8624999999999996 -0.09374999999999996
v 0.08750000000000005 0.7874999999999999 0.23125000000000007
v 0.08750000000000005 0.8249999999999997 -0.09374999999999996
v 0.08750000000000005 0.8249999999999997 -0.018750000000000003
v 0.08750000000000005 0.7874999999999999 -0.018750000000000003
v 0.12500000000000003 0.7874999999999999 -0.018750000000000003
v 0.12500000000000003 0.8249999999999997 -0.018750000000000003
v 0.08750000000000005 0.8249999999999997 -0.08125
v 0.08750000000000005 0.8624999999999996 -0.08125
v 0.12500000000000003 0.8624999999999996 -0.08125
v 0.12500000000000003 0.8249999999999997 -0.08125
vt 0.15625 0.625
vt 0 0.625
vt 0 0.59375
vt 0.15625 0.59375
vt 0.34375 0.59375
vt 0.34375 0.625
vt 0.1875 0.625
vt 0.1875 0.59375
vt 0 0.84375
vt 0.15625 0.84375
vt 0.15625 1
vt 0 1
vt 0.15625 0.65625
vt 0.15625 0.8125
vt 0 0.8125
vt 0 0.65625
vt 0.53125 0.59375
vt 0.53125 0.625
vt 0.375 0.625
vt 0.375 0.59375
vt 0.5625 1
vt 0.40625 1
vt 0.40625 0.96875
vt 0.5625 0.96875
vt 0.31328125 0.9625
vt 0.34453125 0.98125
vt 0.34453125 1
vt 0.31328125 0.98125
vt 0.22578125 0.8875
vt 0.19453125 0.90625
vt 0.19453125 0.8875
vt 0.22578125 0.86875
vt 0.144140625 0.519809375
vt 0.144140625 0.55625
vt 0.125390625 0.55625
vt 0.125390625 0.519809375
vt 0.406640625 0.812221875
vt 0.406640625 0.77578125
vt 0.425390625 0.77578125
vt 0.425390625 0.812221875
vt 0.4375 0.6875
vt 0.4375 0.71875
vt 0.40625 0.71875
vt 0.40625 0.6875
vt 0.21875 0.5625
vt 0.1875 0.5625
vt 0.1875 0.53125
vt 0.21875 0.53125
vt 0.35078125 0.8875
vt 0.22578125 0.8875
vt 0.22578125 0.86875
vt 0.35078125 0.86875
vt 0.406640625 0.937221875
vt 0.406640625 0.812221875
vt 0.425390625 0.812221875
vt 0.425390625 0.937221875
vt 0.18828125 0.9625
vt 0.31328125 0.9625
vt 0.31328125 0.98125
vt 0.18828125 0.98125
vt 0.144140625 0.394809375
vt 0.144140625 0.519809375
vt 0.125390625 0.519809375
vt 0.125390625 0.394809375
vt 0.18828125 0.8875
vt 0.19453125 0.8875
vt 0.19453125 0.90625
vt 0.18828125 0.90625
vt 0.125390625 0.5625
vt 0.125390625 0.55625
vt 0.144140625 0.55625
vt 0.144140625 0.5625
vt 0.35078125 1
vt 0.34453125 1
vt 0.34453125 0.98125
vt 0.35078125 0.98125
vt 0.425390625 0.76953125
vt 0.425390625 0.77578125
vt 0.406640625 0.77578125
vt 0.406640625 0.76953125
vt 0.31328125 0.775
vt 0.34453125 0.79375
vt 0.34453125 0.8125
vt 0.31328125 0.79375
vt 0.22578125 0.7
vt 0.19453125 0.71875
vt 0.19453125 0.7
vt 0.22578125 0.68125
vt 0.081640625 0.519809375
vt 0.081640625 0.55625
vt 0.062890625 0.55625
vt 0.062890625 0.519809375
vt 0.0003906249999999986 0.437221875
vt 0.00039062500000000555 0.40078125
vt 0.019140625 0.40078125
vt 0.019140625 0.437221875
vt 0.28125 0.53125
vt 0.28125 0.5625
vt 0.25 0.5625
vt 0.25 0.53125
vt 0.34375 0.5625
vt 0.3125 0.5625
vt 0.3125 0.53125
vt 0.34375 0.53125
vt 0.35078125 0.7
vt 0.22578125 0.7
vt 0.22578125 0.68125
vt 0.35078125 0.68125
vt 0.0003906249999999986 0.562221875
vt 0.0003906249999999986 0.437221875
vt 0.019140625 0.437221875
vt 0.019140625 0.562221875
vt 0.18828125 0.775
vt 0.31328125 0.775
vt 0.31328125 0.79375
vt 0.18828125 0.79375
vt 0.081640625 0.394809375
vt 0.081640625 0.519809375
vt 0.062890625 0.519809375
vt 0.062890625 0.394809375
vt 0.18828125 0.7
vt 0.19453125 0.7
vt 0.19453125 0.71875
vt 0.18828125 0.71875
vt 0.062890625 0.5625
vt 0.062890625 0.55625
vt 0.081640625 0.55625
vt 0.081640625 0.5625
vt 0.35078125 0.8125
vt 0.34453125 0.8125
vt 0.34453125 0.79375
vt 0.35078125 0.79375
vt 0.019140625 0.39453125
vt 0.019140625 0.40078125
vt 0.0003906249999999986 0.40078125
vt 0.0003906249999999986 0.39453125
vn 1 0 0
vn -1 0 0
vn 0 1 0
vn 0 -1 0
vn 0 0 1
vn 0 0 -1
vn 1 0 0
vn -1 0 0
vn 0 0.857492925712545 0.5144957554275251
vn 0 -0.857492925712545 -0.5144957554275251
vn 0 0 1
vn 0 0 -1
vn -1 0 0
vn 0 -1 0
vn 1 0 0
vn 0 1 0
vn -1 0 0
vn 0 1 0
vn 1 0 0
vn 0 -1 0
vn 1 0 0
vn -1 0 0
vn 0 0.857492925712545 0.5144957554275251
vn 0 -0.857492925712545 -0.5144957554275251
vn 0 0 1
vn 0 0 -1
vn -1 0 0
vn 0 -1 0
vn 1 0 0
vn 0 1 0
vn -1 0 0
vn 0 1 0
vn 1 0 0
vn 0 -1 0
usemtl m_cb9df5cb-c563-097c-1bb0-8e27baa7a3d5
f 2/1/1 1/2/1 3/3/1 4/4/1
f 7/5/2 5/6/2 6/7/2 8/8/2
f 5/9/3 1/10/3 2/11/3 6/12/3
f 4/13/4 3/14/4 7/15/4 8/16/4
f 3/17/5 1/18/5 5/19/5 7/20/5
f 6/21/6 2/22/6 4/23/6 8/24/6
f 19/25/7 24/26/7 23/27/7 20/28/7
f 17/29/8 22/30/8 21/31/8 18/32/8
f 20/33/9 23/34/9 22/35/9 17/36/9
f 18/37/10 21/38/10 24/39/10 19/40/10
f 11/41/11 9/42/11 13/43/11 15/44/11
f 14/45/12 10/46/12 12/47/12 16/48/12
f 13/49/13 17/50/13 18/51/13 15/52/13
f 15/53/14 18/54/14 19/55/14 11/56/14
f 11/57/15 19/58/15 20/59/15 9/60/15
f 9/61/16 20/62/16 17/63/16 13/64/16
f 16/65/17 21/66/17 22/67/17 14/68/17
f 14/69/18 22/70/18 23/71/18 10/72/18
f 10/73/19 23/74/19 24/75/19 12/76/19
f 12/77/20 24/78/20 21/79/20 16/80/20
f 35/81/21 40/82/21 39/83/21 36/84/21
f 33/85/22 38/86/22 37/87/22 34/88/22
f 36/89/23 39/90/23 38/91/23 33/92/23
f 34/93/24 37/94/24 40/95/24 35/96/24
f 27/97/25 25/98/25 29/99/25 31/100/25
f 30/101/26 26/102/26 28/103/26 32/104/26
f 29/105/27 33/106/27 34/107/27 31/108/27
f 31/109/28 34/110/28 35/111/28 27/112/28
f 27/113/29 35/114/29 36/115/29 25/116/29
f 25/117/30 36/118/30 33/119/30 29/120/30
f 32/121/31 37/122/31 38/123/31 30/124/31
f 30/125/32 38/126/32 39/127/32 26/128/32
f 26/129/33 39/130/33 40/131/33 28/132/33
f 28/133/34 40/134/34 37/135/34 32/136/34
o cylinder
v -0.12499999999999994 1.0062499999999999 0.037500000000000006
v -0.13185909777329802 0.9749999999999999 0.03269720803381929
v -0.06016204322941718 0.9749999999999998 -0.06969679750230463
v -0.14373940361073284 0.9833734122634724 0.02437852833021059
v -0.072042349066852 0.9833734122634723 -0.07801547720591334
v -0.15059850138403091 0.9978765877365272 0.019575736364029813
v -0.07890144684015009 0.9978765877365271 -0.08281826917209412
v -0.15059850138403091 1.0146234122634725 0.019575736364029792
v -0.07890144684015009 1.0146234122634723 -0.08281826917209414
v -0.14373940361073284 1.0291265877365272 0.024378528330210522
v -0.072042349066852 1.0291265877365272 -0.07801547720591341
v -0.13185909777329805 1.0374999999999999 0.0326972080338192
v -0.06016204322941719 1.0374999999999996 -0.06969679750230473
v -0.11814090222670189 1.0374999999999999 0.04230279196618071
v -0.04644384768282103 1.0374999999999996 -0.06009121356994322
v -0.10626059638926705 1.0291265877365272 0.050621471669789427
v -0.03456354184538621 1.0291265877365272 -0.0517725338663345
v -0.09940149861596896 1.0146234122634725 0.055424263635970195
v -0.027704444072088122 1.0146234122634723 -0.04696974190015374
v -0.09940149861596896 0.9978765877365273 0.05542426363597022
v -0.027704444072088122 0.9978765877365272 -0.04696974190015371
v -0.10626059638926703 0.9833734122634725 0.05062147166978949
v -0.034563541845386195 0.9833734122634723 -0.051772533866334444
v -0.11814090222670186 0.9749999999999999 0.0423027919661808
v -0.04644384768282103 0.9749999999999998 -0.060091213569943125
v -0.025141937600110756 1.012530059197604 -0.06425005850116176
v -0.025141937600110756 0.9999699408023953 -0.06425005850116174
v -0.030286260930084324 1.0234074408023952 -0.06785215247579734
v -0.03919649030816044 1.0296874999999996 -0.07409116225350387
v -0.05839536634618367 1.0234074408023952 -0.08753435998048154
v -0.049485136968107565 1.0296874999999996 -0.08129535020277501
v -0.06353968967615722 0.9999699408023952 -0.09113645395511707
v -0.06353968967615722 1.012530059197604 -0.09113645395511707
v -0.05839536634618367 0.9890925591976041 -0.08753435998048148
v -0.04948513696810755 0.9828124999999998 -0.08129535020277495
v -0.03028626093008431 0.9890925591976042 -0.06785215247579729
v -0.03919649030816044 0.9828124999999998 -0.07409116225350382
v -0.026356803882422536 1.010960044398203 -0.07273055820971237
v -0.026356803882422536 1.0015399556017963 -0.07273055820971237
v -0.040755960910939956 1.0062499999999996 -0.08281295650494562
v -0.030215046379902702 1.0191180806017963 -0.07543212869068906
v -0.03689771841345979 1.0238281249999996 -0.08011138602396897
v -0.05129687544197721 1.0191180806017963 -0.09019378431920222
v -0.04461420340842012 1.0238281249999996 -0.08551452698592232
v -0.055155117939457377 1.0015399556017963 -0.09289535480017885
v -0.055155117939457377 1.010960044398203 -0.09289535480017885
v -0.05129687544197721 0.993381919398203 -0.09019378431920216
v -0.04461420340842012 0.9886718749999998 -0.08551452698592227
v -0.030215046379902688 0.9933819193982031 -0.07543212869068903
v -0.03689771841345979 0.9886718749999998 -0.08011138602396892
v -0.03125000000000003 0.9749999999999999 0.02500000000000001
v -0.02287658773652744 0.9749999999999998 0.05625000000000001
v -0.02287658773652744 1.0999999999999999 0.05625
v -0.008373412263472602 0.9749999999999998 0.04787658773652742
v -0.008373412263472615 1.0999999999999999 0.047876587736527434
v -2.7755575615628914e-17 0.9749999999999999 0.0333734122634726
v -2.7755575615628914e-17 1.0999999999999999 0.033373412263472596
v -2.7755575615628914e-17 0.9749999999999999 0.01662658773652742
v -1.3877787807814457e-17 1.0999999999999999 0.01662658773652742
v -0.008373412263472615 0.9749999999999999 0.00212341226347261
v -0.008373412263472602 1.0999999999999999 0.002123412263472603
v -0.022876587736527426 0.9749999999999999 -0.006249999999999985
v -0.02287658773652744 1.0999999999999999 -0.006249999999999978
v -0.03962341226347259 0.9749999999999999 -0.006249999999999978
v -0.03962341226347259 1.0999999999999999 -0.006249999999999985
v -0.054126587736527426 0.9749999999999999 0.002123412263472596
v -0.054126587736527426 1.0999999999999999 0.002123412263472596
v -0.06250000000000001 0.9749999999999999 0.016626587736527428
v -0.06250000000000001 1.0999999999999999 0.016626587736527445
v -0.06250000000000001 0.9749999999999999 0.03337341226347258
v -0.06250000000000001 1.0999999999999999 0.03337341226347258
v -0.05412658773652744 0.9749999999999998 0.04787658773652742
v -0.05412658773652744 1.0999999999999999 0.04787658773652743
v -0.0396234122634726 0.9749999999999998 0.05625000000000001
v -0.03962341226347259 1.0999999999999999 0.05625000000000002
v -0.054687500000000014 1.1156249999999999 0.018719940802395578
v -0.054687500000000014 1.1156249999999999 0.03128005919760443
v -0.04840744080239558 1.1156249999999999 0.007842559197604439
v -0.03753005919760445 1.1156249999999999 0.0015625000000000153
v -0.014092559197604451 1.1156249999999999 0.007842559197604453
v -0.024969940802395577 1.1156249999999999 0.0015625000000000153
v -0.007812500000000014 1.1156249999999999 0.03128005919760445
v -0.007812500000000028 1.1156249999999999 0.01871994080239557
v -0.014092559197604451 1.1156249999999999 0.04215744080239557
v -0.024969940802395563 1.1156249999999999 0.04843750000000001
v -0.04840744080239558 1.1156249999999999 0.04215744080239558
v -0.03753005919760445 1.1156249999999999 0.04843750000000001
v -0.048828125000000014 1.121875 0.020289955601796687
v -0.048828125000000014 1.121875 0.02971004439820333
v -0.031250000000000014 1.121875 0.025000000000000015
v -0.044118080601796686 1.121875 0.012131919398203336
v -0.03596004439820334 1.121875 0.007421875000000022
v -0.018381919398203342 1.121875 0.012131919398203343
v -0.026539955601796686 1.121875 0.007421875000000029
v -0.013671875000000014 1.121875 0.029710044398203343
v -0.013671875000000014 1.121875 0.020289955601796694
v -0.018381919398203342 1.121875 0.03786808060179668
v -0.0265399556017967 1.121875 0.042578125000000015
v -0.044118080601796686 1.121875 0.03786808060179669
v -0.03596004439820334 1.121875 0.04257812500000001
vt 0.054125 0.366625
vt 0.039625 0.375
vt 0.03125 0.34375
vt 0.33587684792481964 0.6024943095903499
vt 0.35215274793971274 0.6064512754361973
vt 0.32262315207518033 0.7279132158458473
vt 0.30634725206028723 0.72395625
vt 0.6609625 0.83985
vt 0.66911875 0.84455625
vt 0.65625 0.857425
vt 0.0625 0.352125
vt 0.054125 0.366625
vt 0.03125 0.34375
vt 0.27284725206028726 0.84895625
vt 0.28959725206028725 0.84895625
vt 0.28959725206028725 0.97395625
vt 0.27284725206028726 0.97395625
vt 0.66911875 0.84455625
vt 0.673825 0.8527125
vt 0.65625 0.857425
vt 0.0625 0.335375
vt 0.0625 0.352125
vt 0.03125 0.34375
vt 0.28959725206028725 0.84895625
vt 0.30634725206028723 0.84895625
vt 0.30634725206028723 0.97395625
vt 0.28959725206028725 0.97395625
vt 0.673825 0.8527125
vt 0.673825 0.8621375
vt 0.65625 0.857425
vt 0.054125 0.320875
vt 0.0625 0.335375
vt 0.03125 0.34375
vt 0.33587684792481964 0.8524943095903499
vt 0.35215274793971274 0.8564512754361973
vt 0.32262315207518033 0.9779132158458473
vt 0.30634725206028723 0.97395625
vt 0.673825 0.8621375
vt 0.66911875 0.87029375
vt 0.65625 0.857425
vt 0.039625 0.3125
vt 0.054125 0.320875
vt 0.03125 0.34375
vt 0.46034725206028726 0.84895625
vt 0.47709725206028725 0.84895625
vt 0.47709725206028725 0.97395625
vt 0.46034725206028726 0.97395625
vt 0.66911875 0.87029375
vt 0.6609625 0.875
vt 0.65625 0.857425
vt 0.022875 0.3125
vt 0.039625 0.3125
vt 0.03125 0.34375
vt 0.47709725206028725 0.84895625
vt 0.49384725206028723 0.84895625
vt 0.49384725206028723 0.97395625
vt 0.47709725206028725 0.97395625
vt 0.6609625 0.875
vt 0.6515375 0.875
vt 0.65625 0.857425
vt 0.008375 0.320875
vt 0.022875 0.3125
vt 0.03125 0.34375
vt 0.5233768479248196 0.8524943095903499
vt 0.5396527479397127 0.8564512754361973
vt 0.5101231520751803 0.9779132158458473
vt 0.49384725206028723 0.97395625
vt 0.6515375 0.875
vt 0.64338125 0.87029375
vt 0.65625 0.857425
vt 0 0.335375
vt 0.008375 0.320875
vt 0.03125 0.34375
vt 0.022847252060287246 0.47395624999999997
vt 0.03959725206028725 0.47395624999999997
vt 0.03959725206028725 0.59895625
vt 0.022847252060287246 0.59895625
vt 0.64338125 0.87029375
vt 0.638675 0.8621375
vt 0.65625 0.857425
vt 0 0.352125
vt 0 0.335375
vt 0.03125 0.34375
vt 0.03959725206028725 0.47395624999999997
vt 0.05634725206028725 0.47395624999999997
vt 0.05634725206028725 0.59895625
vt 0.03959725206028725 0.59895625
vt 0.638675 0.8621375
vt 0.638675 0.8527125
vt 0.65625 0.857425
vt 0.008375 0.366625
vt 0 0.352125
vt 0.03125 0.34375
vt 0.08587684792481963 0.4774943095903499
vt 0.10215274793971275 0.48145127543619726
vt 0.07262315207518036 0.6029132158458473
vt 0.05634725206028724 0.59895625
vt 0.638675 0.8527125
vt 0.64338125 0.84455625
vt 0.65625 0.857425
vt 0.022875 0.375
vt 0.008375 0.366625
vt 0.03125 0.34375
vt 0.27284725206028726 0.59895625
vt 0.28959725206028725 0.59895625
vt 0.28959725206028725 0.72395625
vt 0.27284725206028726 0.72395625
vt 0.64338125 0.84455625
vt 0.6515375 0.83985
vt 0.65625 0.857425
vt 0.039625 0.375
vt 0.022875 0.375
vt 0.03125 0.34375
vt 0.28959725206028725 0.59895625
vt 0.30634725206028723 0.59895625
vt 0.30634725206028723 0.72395625
vt 0.28959725206028725 0.72395625
vt 0.6515375 0.83985
vt 0.6609625 0.83985
vt 0.65625 0.857425
vt 0.05425350206028725 0.61643125
vt 0.041691002060287245 0.61643125
vt 0.03959725206028725 0.59895625
vt 0.05634725206028725 0.59895625
vt 0.03750350206028725 0.61643125
vt 0.024941002060287244 0.61643125
vt 0.022847252060287246 0.59895625
vt 0.03959725206028725 0.59895625
vt 0.503960427071457 0.9943989743843855
vt 0.49175350206028723 0.99143125
vt 0.49384725206028723 0.97395625
vt 0.5101231520751803 0.9779132158458473
vt 0.47500350206028724 0.99143125
vt 0.46244100206028727 0.99143125
vt 0.46034725206028726 0.97395625
vt 0.47709725206028725 0.97395625
vt 0.49175350206028723 0.99143125
vt 0.47919100206028725 0.99143125
vt 0.47709725206028725 0.97395625
vt 0.49384725206028723 0.97395625
vt 0.30425350206028723 0.99143125
vt 0.29169100206028725 0.99143125
vt 0.28959725206028725 0.97395625
vt 0.30634725206028723 0.97395625
vt 0.28750350206028724 0.99143125
vt 0.27494100206028727 0.99143125
vt 0.27284725206028726 0.97395625
vt 0.28959725206028725 0.97395625
vt 0.31646042707145705 0.7443989743843855
vt 0.30425350206028723 0.74143125
vt 0.30634725206028723 0.72395625
vt 0.32262315207518033 0.7279132158458473
vt 0.28750350206028724 0.74143125
vt 0.27494100206028727 0.74143125
vt 0.27284725206028726 0.72395625
vt 0.28959725206028725 0.72395625
vt 0.06646042707145708 0.6193989743843855
vt 0.05425350206028725 0.61643125
vt 0.05634725206028724 0.59895625
vt 0.07262315207518036 0.6029132158458473
vt 0.30425350206028723 0.74143125
vt 0.29169100206028725 0.74143125
vt 0.28959725206028725 0.72395625
vt 0.30634725206028723 0.72395625
vt 0.31646042707145705 0.9943989743843855
vt 0.30425350206028723 0.99143125
vt 0.30634725206028723 0.97395625
vt 0.32262315207518033 0.9779132158458473
vt 0.05268475206028725 0.625
vt 0.043259752060287246 0.625
vt 0.041691002060287245 0.61643125
vt 0.05425350206028725 0.61643125
vt 0.18299725186755975 0.3125
vt 0.1741835682346516 0.3091608974530562
vt 0.1757523182346516 0.3005921474530562
vt 0.1875 0.305042808009659
vt 0.1741835682346516 0.3091608974530562
vt 0.16475856823465157 0.3091608974530562
vt 0.16318981823465156 0.3005921474530562
vt 0.1757523182346516 0.3005921474530562
vt 0.6477414317653484 0.3091608974530562
vt 0.6383164317653485 0.3091608974530562
vt 0.6367476817653485 0.3005921474530562
vt 0.6493101817653484 0.3005921474530562
vt 0.4901847520602872 1
vt 0.48075975206028726 1
vt 0.47919100206028725 0.99143125
vt 0.49175350206028723 0.99143125
vt 0.3026847520602872 1
vt 0.29325975206028726 1
vt 0.29169100206028725 0.99143125
vt 0.30425350206028723 0.99143125
vt 0.3079972518675598 0.3125
vt 0.2991835682346516 0.3091608974530562
vt 0.3007523182346516 0.3005921474530562
vt 0.3125 0.305042808009659
vt 0.2991835682346516 0.3091608974530562
vt 0.28975856823465157 0.3091608974530562
vt 0.28818981823465156 0.3005921474530562
vt 0.3007523182346516 0.3005921474530562
vt 0.7102414317653484 0.7466608974530562
vt 0.7008164317653485 0.7466608974530562
vt 0.6992476817653485 0.7380921474530562
vt 0.7118101817653484 0.7380921474530562
vt 0.7008164317653485 0.7466608974530562
vt 0.6920027481324402 0.75
vt 0.6875 0.742542808009659
vt 0.6992476817653485 0.7380921474530562
vt 0.3026847520602872 0.75
vt 0.29325975206028726 0.75
vt 0.29169100206028725 0.74143125
vt 0.30425350206028723 0.74143125
vt 0.6383164317653485 0.3091608974530562
vt 0.6295027481324402 0.3125
vt 0.625 0.305042808009659
vt 0.6367476817653485 0.3005921474530562
vt 0.21813749999999998 0.46251875
vt 0.22521875 0.44734375000000004
vt 0.25 0.4681375
vt 0.6067709504419148 0.670705720880013
vt 0.6067709504419148 0.6874494708800131
vt 0.4817709504419147 0.6874494708800131
vt 0.4817709504419147 0.670705720880013
vt 0.670190625 0.97038125
vt 0.674171875 0.9789187500000001
vt 0.656246875 0.98208125
vt 0.2196 0.47919999999999996
vt 0.21813749999999998 0.46251875
vt 0.25 0.4681375
vt 0.6067709504419148 0.6874494708800131
vt 0.6067709504419148 0.704199470880013
vt 0.4817709504419147 0.704199470880013
vt 0.4817709504419147 0.6874494708800131
vt 0.674171875 0.9789187500000001
vt 0.673346875 0.9883062499999999
vt 0.656246875 0.98208125
vt 0.22920625 0.49291874999999996
vt 0.2196 0.47919999999999996
vt 0.25 0.4681375
vt 0.603237026922278 0.7337239214432678
vt 0.59928079553179 0.75
vt 0.4778175227203556 0.7204758851456131
vt 0.48177375411084344 0.7041998065888808
vt 0.673346875 0.9883062499999999
vt 0.6679468749999999 0.99601875
vt 0.656246875 0.98208125
vt 0.24438125 0.5
vt 0.22920625 0.49291874999999996
vt 0.25 0.4681375
vt 0.01823210049566426 0.8125
vt 0.01823210049566426 0.79575
vt 0.14323210049566426 0.79575
vt 0.14323210049566426 0.8125
vt 0.6679468749999999 0.99601875
vt 0.659409375 1
vt 0.656246875 0.98208125
vt 0.2610625 0.49853749999999997
vt 0.24438125 0.5
vt 0.25 0.4681375
vt 0.01823210049566426 0.79575
vt 0.01823210049566426 0.77900625
vt 0.14323210049566426 0.77900625
vt 0.14323210049566426 0.79575
vt 0.659409375 1
vt 0.650021875 0.99918125
vt 0.656246875 0.98208125
vt 0.27478125 0.48893125000000004
vt 0.2610625 0.49853749999999997
vt 0.25 0.4681375
vt 0.021777817387190687 0.7494342052239655
vt 0.025740429675083235 0.7331596789987311
vt 0.1471921179231013 0.7627314124904666
vt 0.14322950563520875 0.779005938715701
vt 0.650021875 0.99918125
vt 0.642309375 0.9937812500000001
vt 0.656246875 0.98208125
vt 0.2818625 0.47375625
vt 0.27478125 0.48893125000000004
vt 0.25 0.4681375
vt 0.018232532557984057 0.9543789889380849
vt 0.018232532557984057 0.937635238938085
vt 0.14323253255798407 0.937635238938085
vt 0.14323253255798407 0.9543789889380849
vt 0.642309375 0.9937812500000001
vt 0.638328125 0.98524375
vt 0.656246875 0.98208125
vt 0.2804 0.457075
vt 0.2818625 0.47375625
vt 0.25 0.4681375
vt 0.018232532557984057 0.937635238938085
vt 0.018232532557984057 0.9208852389380849
vt 0.14323253255798407 0.9208852389380849
vt 0.14323253255798407 0.937635238938085
vt 0.638328125 0.98524375
vt 0.639146875 0.97585625
vt 0.656246875 0.98208125
vt 0.27079375 0.44335625
vt 0.2804 0.457075
vt 0.25 0.4681375
vt 0.02178894471184563 0.8912732173380091
vt 0.02575692876800316 0.875
vt 0.1471988492009068 0.9046118213146084
vt 0.14323086514474928 0.9208850386526175
vt 0.639146875 0.97585625
vt 0.644553125 0.9681375
vt 0.656246875 0.98208125
vt 0.25561875 0.43627499999999997
vt 0.27079375 0.44335625
vt 0.25 0.4681375
vt 0.5442651408032642 0.4375
vt 0.5442651408032642 0.45425000000000004
vt 0.41926514080326416 0.45425000000000004
vt 0.41926514080326416 0.4375
vt 0.644553125 0.9681375
vt 0.653090625 0.96415625
vt 0.656246875 0.98208125
vt 0.23893124999999998 0.4377375
vt 0.25561875 0.43627499999999997
vt 0.25 0.4681375
vt 0.5442651408032642 0.45424999999999993
vt 0.5442651408032642 0.47099375
vt 0.41926514080326416 0.47099375
vt 0.41926514080326416 0.45424999999999993
vt 0.653090625 0.96415625
vt 0.662471875 0.96498125
vt 0.656246875 0.98208125
vt 0.22521875 0.44734375000000004
vt 0.23893124999999998 0.4377375
vt 0.25 0.4681375
vt 0.5407427738085123 0.5004981465295001
vt 0.536789333723044 0.5167749033161149
vt 0.415320999494575 0.48727161909620254
vt 0.4192744395800433 0.47099486230958765
vt 0.662471875 0.96498125
vt 0.670190625 0.97038125
vt 0.656246875 0.98208125
vt 0.16367324511452086 0.9107858799044107
vt 0.1607021614910759 0.9229836466534922
vt 0.14323086514474928 0.9208850386526175
vt 0.1471981447527005 0.904614710348083
vt 0.1607021614910759 0.9229836466534922
vt 0.160702222147598 0.9355431114608126
vt 0.14323253255798407 0.9376291102515686
vt 0.14323253255798407 0.9208852389380849
vt 0.16069850646735345 0.939726167430341
vt 0.16070213830503116 0.9522915350482125
vt 0.14323253255798407 0.9543816681283631
vt 0.14323253255798407 0.937635238938085
vt 0.16069775669007208 0.7811014626858017
vt 0.1607048230566953 0.793659154118902
vt 0.14323210049566426 0.795755929334617
vt 0.14323210049566426 0.77900625
vt 0.1636643721718819 0.7688992722924507
vt 0.16069775669007208 0.7811014626858017
vt 0.14322950563520875 0.779005938715701
vt 0.1471908841042246 0.7627364798087424
vt 0.4613386725336294 0.7143137250769155
vt 0.4643005400512561 0.7021075792045269
vt 0.48177375411084344 0.7041998065888808
vt 0.4778182250820756 0.7204729956041777
vt 0.4643005400512561 0.7021075792045269
vt 0.46430204011186504 0.689547870337984
vt 0.4817709504419147 0.6874553557757443
vt 0.4817709504419147 0.704199470880013
vt 0.4642988581573182 0.6853572664627668
vt 0.46430006876987745 0.6727992931451126
vt 0.4817709504419147 0.6707030416897348
vt 0.4817709504419147 0.6874494708800131
vt 0.4018006856579689 0.46890467082714193
vt 0.4017985517551767 0.4563396448319854
vt 0.41926514080326416 0.45424407066538286
vt 0.41926514080326416 0.47099375
vt 0.4017996527377407 0.452157479821947
vt 0.40180068825896154 0.43959920787712137
vt 0.41926514080326416 0.43750118824177364
vt 0.41926514080326416 0.45425000000000004
vt 0.39884094723956964 0.481108531130634
vt 0.4018006856579689 0.46890467082714193
vt 0.4192744395800433 0.47099486230958765
vt 0.4153222304575487 0.487266551083408
vt 0.1607015359969019 0.797842899786922
vt 0.16070144268260148 0.8104056827435877
vt 0.14323210049566426 0.8124944860327213
vt 0.14323210049566426 0.79575
vt 0.6383176945505227 0.5132687499999999
vt 0.6329247192761482 0.5209897818814901
vt 0.625 0.5173748178402797
vt 0.6321916477828831 0.5070739414829277
vt 0.1692672353273399 0.9245499477873249
vt 0.16926746744201593 0.9339730017115377
vt 0.16070222214976093 0.93554355932223
vt 0.1607021614910759 0.9229836466534922
vt 0.6336375 0.4145953218904729
vt 0.6365 0.42357032189047295
vt 0.6288125 0.42767032189047294
vt 0.625 0.41570157189047285
vt 0.16926085075919667 0.7826664301258219
vt 0.16926789950433574 0.7920861251017853
vt 0.16070482311358297 0.7936592552143736
vt 0.16069775669007208 0.7811014626858017
vt 0.6365 0.42357032189047295
vt 0.6423578818285353 0.43094541363874395
vt 0.6366264192527318 0.4375
vt 0.6288156971371013 0.42766861675068557
vt 0.4241823054494773 0.36173124999999995
vt 0.42957528072385176 0.35401021811850986
vt 0.4375 0.3576251821597203
vt 0.430308352217117 0.3679260585170723
vt 0.4557290495580853 0.7005343473277895
vt 0.455730360854819 0.6911175323391375
vt 0.46430204013619536 0.6895476666252235
vt 0.4643005400512561 0.7021075792045269
vt 0.5538625 0.33541079869941093
vt 0.551 0.32643579869941086
vt 0.55868125 0.32233579869941087
vt 0.5625 0.33429829869941086
vt 0.3932382070994729 0.4673363392103287
vt 0.39323485919673584 0.45791664219203
vt 0.40179855298332046 0.4563468764914833
vt 0.4018006856579689 0.46890467082714193
vt 0.6460989445505226 0.5079625
vt 0.6383176945505227 0.5132687499999999
vt 0.6321926945505226 0.5070749999999999
vt 0.6425676945505227 0.5
vt 0.551 0.32643579869941086
vt 0.5451366750853376 0.3190650335588302
vt 0.5508639315999293 0.3125
vt 0.5586874929062421 0.32233246644026137
vt 0.41640105544947736 0.3670375
vt 0.4241823054494773 0.36173124999999995
vt 0.4303073054494774 0.36792499999999995
vt 0.41993230544947735 0.375
vn -0.5735764363510466 1.0276499756841474e-15 0.8191520442889915
vn -0.40957602214449557 -0.8660254037844394 -0.2867882181755221
vn 0.5735764363510466 -1.0276499756841474e-15 -0.8191520442889915
vn -0.5735764363510466 1.0276499756841474e-15 0.8191520442889915
vn -0.7094064799162221 -0.5000000000000009 -0.4967317648921539
vn 0.5735764363510466 -1.0276499756841474e-15 -0.8191520442889915
vn -0.5735764363510466 1.0276499756841474e-15 0.8191520442889915
vn -0.8191520442889915 -8.551014652470937e-16 -0.5735764363510467
vn 0.5735764363510466 -1.0276499756841474e-15 -0.8191520442889915
vn -0.5735764363510466 1.0276499756841474e-15 0.8191520442889915
vn -0.7094064799162222 0.4999999999999993 -0.4967317648921553
vn 0.5735764363510466 -1.0276499756841474e-15 -0.8191520442889915
vn -0.5735764363510466 1.0276499756841474e-15 0.8191520442889915
vn -0.4095760221444957 0.8660254037844383 -0.2867882181755245
vn 0.5735764363510466 -1.0276499756841474e-15 -0.8191520442889915
vn -0.5735764363510466 1.0276499756841474e-15 0.8191520442889915
vn -2.1498741596539352e-16 1 -1.505867865599471e-15
vn 0.5735764363510466 -1.0276499756841474e-15 -0.8191520442889915
vn -0.5735764363510466 1.0276499756841474e-15 0.8191520442889915
vn 0.40957602214449507 0.8660254037844395 0.28678821817552175
vn 0.5735764363510466 -1.0276499756841474e-15 -0.8191520442889915
vn -0.5735764363510466 1.0276499756841474e-15 0.8191520442889915
vn 0.7094064799162223 0.5000000000000004 0.4967317648921541
vn 0.5735764363510466 -1.0276499756841474e-15 -0.8191520442889915
vn -0.5735764363510466 1.0276499756841474e-15 0.8191520442889915
vn 0.8191520442889915 1.0622719020287878e-15 0.5735764363510467
vn 0.5735764363510466 -1.0276499756841474e-15 -0.8191520442889915
vn -0.5735764363510466 1.0276499756841474e-15 0.8191520442889915
vn 0.7094064799162225 -0.4999999999999989 0.49673176489215554
vn 0.5735764363510466 -1.0276499756841474e-15 -0.8191520442889915
vn -0.5735764363510466 1.0276499756841474e-15 0.8191520442889915
vn 0.4095760221444957 -0.8660254037844385 0.2867882181755245
vn 0.5735764363510466 -1.0276499756841474e-15 -0.8191520442889915
vn -0.5735764363510466 1.0276499756841474e-15 0.8191520442889915
vn 4.528332915942571e-17 -1 1.387039784752937e-15
vn 0.5735764363510466 -1.0276499756841474e-15 -0.8191520442889915
vn 0.9891830423698456 3.0524696103971856e-16 0.14668642980158833
vn 0.8910236255032093 0.4472135954999579 0.07795446616529933
vn 0.6228471113822244 0.7745966692414838 -0.1098247505930177
vn -0.10982475059301637 0.7745966692414825 -0.622847111382226
vn 0.25651118039460413 0.8944271909999155 -0.3663359309876217
vn -0.476160681580637 -1.224405042122022e-15 -0.8793582917768294
vn -0.3780012647140006 -0.44721359549995915 -0.8106263281405406
vn -0.10982475059301618 -0.7745966692414844 -0.6228471113822237
vn 0.6228471113822248 -0.7745966692414838 -0.10982475059301523
vn 0.8910236255032096 -0.4472135954999572 0.07795446616530075
vn 0.25651118039460435 -0.8944271909999164 -0.36633593098761935
vn -0.37800126471400064 0.4472135954999567 -0.8106263281405419
vn 0.9898944075338911 -7.902375225183144e-17 -0.14180642416028535
vn 0.9098309353346054 0.36476860207004225 -0.1978674709294692
vn 0.6910934614557774 0.631797751791188 -0.3510290990283746
vn 0.0934915692995517 0.631797751791187 -0.7694744487645506
vn 0.39229251537766474 0.7295372041400848 -0.5602517738964625
vn -0.20530937677856131 -1.3266804166767416e-15 -0.9786971236326379
vn -0.12524590457927565 -0.36476860207004397 -0.9226360768634537
vn 0.09349156929955192 -0.6317977517911891 -0.7694744487645488
vn 0.6910934614557778 -0.6317977517911886 -0.35102909902837265
vn 0.9098309353346056 -0.36476860207004247 -0.19786747092946824
vn 0.39229251537766496 -0.7295372041400863 -0.5602517738964606
vn -0.12524590457927562 0.3647686020700413 -0.9226360768634548
vn -1.7310735102408247e-15 -1 -1.6897005134607643e-15
vn 0.5000000000000002 -4.668200992762245e-17 0.8660254037844387
vn -4.528332915942571e-17 1 -1.387039784752937e-15
vn 1.821640168559679e-15 -1 -5.242414192261266e-15
vn 0.8660254037844385 7.441135821755461e-17 0.5000000000000006
vn -4.528332915942571e-17 1 -1.387039784752937e-15
vn 4.528332915942571e-17 -1 1.387039784752937e-15
vn 1 -4.435552512375519e-17 -3.885780586188047e-16
vn -4.528332915942571e-17 1 -1.387039784752937e-15
vn 4.528332915942571e-17 -1 1.387039784752937e-15
vn 0.8660254037844386 -3.9111436202825147e-17 -0.5000000000000001
vn -4.528332915942571e-17 1 -1.387039784752937e-15
vn 4.528332915942571e-17 -1 1.387039784752937e-15
vn 0.5000000000000004 8.48709557090753e-17 -0.8660254037844385
vn -4.528332915942571e-17 1 -1.387039784752937e-15
vn 4.528332915942571e-17 -1 1.387039784752937e-15
vn -1.6653345369377358e-16 1.3920572319673829e-18 -1
vn -4.528332915942571e-17 1 -1.387039784752937e-15
vn 4.528332915942571e-17 -1 1.387039784752937e-15
vn -0.4999999999999992 2.078570532991039e-17 -0.8660254037844392
vn -4.528332915942571e-17 1 -1.387039784752937e-15
vn 4.528332915942571e-17 -1 1.387039784752937e-15
vn -0.8660254037844389 2.5936822098578928e-17 -0.4999999999999999
vn -4.528332915942571e-17 1 -1.387039784752937e-15
vn 4.528332915942571e-17 -1 1.387039784752937e-15
vn -1 4.4355525123754514e-17 -2.7755575615628933e-16
vn -4.528332915942571e-17 1 -1.387039784752937e-15
vn -1.7310735102408236e-15 -1 -5.242414192261264e-15
vn -0.8660254037844389 -5.799970603859417e-17 0.49999999999999956
vn -4.528332915942571e-17 1 -1.387039784752937e-15
vn 1.8216401685596754e-15 -1 -1.6897005134607662e-15
vn -0.49999999999999983 -8.487095570907195e-17 0.8660254037844389
vn -4.528332915942571e-17 1 -1.387039784752937e-15
vn 4.5283329159426105e-17 -1 -2.165673894047563e-15
vn -1.1102230246251562e-16 7.629685656116861e-17 1
vn -4.528332915942571e-17 1 -1.387039784752937e-15
vn -0.894427190999916 0.4472135954999581 -5.647918980095912e-16
vn -0.7745966692414834 0.4472135954999578 -0.44721359549995837
vn -0.4472135954999572 0.4472135954999575 -0.7745966692414843
vn 0.447213595499958 0.44721359549995754 -0.7745966692414838
vn -7.576247168085271e-17 0.44721359549995726 -0.8944271909999164
vn 0.8944271909999162 0.44721359549995754 -1.1199034103221685e-15
vn 0.7745966692414828 0.4472135954999587 0.4472135954999584
vn 0.44721359549995887 0.44721359549995765 0.7745966692414832
vn -0.4472135954999575 0.4472135954999581 0.7745966692414836
vn -0.7745966692414844 0.44721359549995837 0.44721359549995615
vn -2.9780707660588403e-16 0.44721359549995887 0.8944271909999155
vn 0.7745966692414834 0.44721359549995804 -0.44721359549995815
vn -0.7295372041400905 0.683941128881324 -1.1598628771836502e-16
vn -0.6317977517911911 0.6839411288813246 -0.3647686020700462
vn -0.3647686020700439 0.6839411288813246 -0.6317977517911926
vn 0.36476860207004475 0.6839411288813249 -0.6317977517911919
vn -3.097113126480227e-17 0.6839411288813246 -0.72953720414009
vn 0.7295372041400899 0.6839411288813246 -1.2262093123435223e-15
vn 0.6317977517911922 0.6839411288813245 0.3647686020700448
vn 0.36476860207004524 0.6839411288813251 0.6317977517911911
vn -0.3647686020700449 0.6839411288813255 0.6317977517911909
vn -0.6317977517911926 0.6839411288813249 0.36476860207004347
vn -8.648228249606004e-17 0.683941128881325 0.7295372041400897
vn 0.6317977517911914 0.6839411288813246 -0.36476860207004586
usemtl m_1ec55e1c-24e5-a600-ccd8-b7aac5678be9
f 44/137/35 42/138/35 41/139/35
f 42/140/36 44/141/36 45/142/36 43/143/36
f 88/144/37 87/145/37 80/146/37
f 46/147/38 44/148/38 41/149/38
f 44/150/39 46/151/39 47/152/39 45/153/39
f 87/154/40 85/155/40 80/156/40
f 48/157/41 46/158/41 41/159/41
f 46/160/42 48/161/42 49/162/42 47/163/42
f 85/164/43 86/165/43 80/166/43
f 50/167/44 48/168/44 41/169/44
f 48/170/45 50/171/45 51/172/45 49/173/45
f 86/174/46 83/175/46 80/176/46
f 52/177/47 50/178/47 41/179/47
f 50/180/48 52/181/48 53/182/48 51/183/48
f 83/184/49 84/185/49 80/186/49
f 54/187/50 52/188/50 41/189/50
f 52/190/51 54/191/51 55/192/51 53/193/51
f 84/194/52 82/195/52 80/196/52
f 56/197/53 54/198/53 41/199/53
f 54/200/54 56/201/54 57/202/54 55/203/54
f 82/204/55 81/205/55 80/206/55
f 58/207/56 56/208/56 41/209/56
f 56/210/57 58/211/57 59/212/57 57/213/57
f 81/214/58 78/215/58 80/216/58
f 60/217/59 58/218/59 41/219/59
f 58/220/60 60/221/60 61/222/60 59/223/60
f 78/224/61 79/225/61 80/226/61
f 62/227/62 60/228/62 41/229/62
f 60/230/63 62/231/63 63/232/63 61/233/63
f 79/234/64 89/235/64 80/236/64
f 64/237/65 62/238/65 41/239/65
f 62/240/66 64/241/66 65/242/66 63/243/66
f 89/244/67 90/245/67 80/246/67
f 42/247/68 64/248/68 41/249/68
f 64/250/69 42/251/69 43/252/69 65/253/69
f 90/254/70 88/255/70 80/256/70
f 67/257/71 66/258/71 59/259/71 61/260/71
f 66/261/72 68/262/72 57/263/72 59/264/72
f 68/265/73 69/266/73 55/267/73 57/268/73
f 71/269/74 70/270/74 51/271/74 53/272/74
f 69/273/75 71/274/75 53/275/75 55/276/75
f 73/277/76 72/278/76 47/279/76 49/280/76
f 72/281/77 74/282/77 45/283/77 47/284/77
f 74/285/78 75/286/78 43/287/78 45/288/78
f 77/289/79 76/290/79 63/291/79 65/292/79
f 76/293/80 67/294/80 61/295/80 63/296/80
f 75/297/81 77/298/81 65/299/81 43/300/81
f 70/301/82 73/302/82 49/303/82 51/304/82
f 79/305/83 78/306/83 66/307/83 67/308/83
f 78/309/84 81/310/84 68/311/84 66/312/84
f 81/313/85 82/314/85 69/315/85 68/316/85
f 84/317/86 83/318/86 70/319/86 71/320/86
f 82/321/87 84/322/87 71/323/87 69/324/87
f 86/325/88 85/326/88 72/327/88 73/328/88
f 85/329/89 87/330/89 74/331/89 72/332/89
f 87/333/90 88/334/90 75/335/90 74/336/90
f 90/337/91 89/338/91 76/339/91 77/340/91
f 89/341/92 79/342/92 67/343/92 76/344/92
f 88/345/93 90/346/93 77/347/93 75/348/93
f 83/349/94 86/350/94 73/351/94 70/352/94
f 94/353/95 92/354/95 91/355/95
f 92/356/96 94/357/96 95/358/96 93/359/96
f 138/360/97 137/361/97 130/362/97
f 96/363/98 94/364/98 91/365/98
f 94/366/99 96/367/99 97/368/99 95/369/99
f 137/370/100 135/371/100 130/372/100
f 98/373/101 96/374/101 91/375/101
f 96/376/102 98/377/102 99/378/102 97/379/102
f 135/380/103 136/381/103 130/382/103
f 100/383/104 98/384/104 91/385/104
f 98/386/105 100/387/105 101/388/105 99/389/105
f 136/390/106 133/391/106 130/392/106
f 102/393/107 100/394/107 91/395/107
f 100/396/108 102/397/108 103/398/108 101/399/108
f 133/400/109 134/401/109 130/402/109
f 104/403/110 102/404/110 91/405/110
f 102/406/111 104/407/111 105/408/111 103/409/111
f 134/410/112 132/411/112 130/412/112
f 106/413/113 104/414/113 91/415/113
f 104/416/114 106/417/114 107/418/114 105/419/114
f 132/420/115 131/421/115 130/422/115
f 108/423/116 106/424/116 91/425/116
f 106/426/117 108/427/117 109/428/117 107/429/117
f 131/430/118 128/431/118 130/432/118
f 110/433/119 108/434/119 91/435/119
f 108/436/120 110/437/120 111/438/120 109/439/120
f 128/440/121 129/441/121 130/442/121
f 112/443/122 110/444/122 91/445/122
f 110/446/123 112/447/123 113/448/123 111/449/123
f 129/450/124 139/451/124 130/452/124
f 114/453/125 112/454/125 91/455/125
f 112/456/126 114/457/126 115/458/126 113/459/126
f 139/460/127 140/461/127 130/462/127
f 92/463/128 114/464/128 91/465/128
f 114/466/129 92/467/129 93/468/129 115/469/129
f 140/470/130 138/471/130 130/472/130
f 117/473/131 116/474/131 109/475/131 111/476/131
f 116/477/132 118/478/132 107/479/132 109/480/132
f 118/481/133 119/482/133 105/483/133 107/484/133
f 121/485/134 120/486/134 101/487/134 103/488/134
f 119/489/135 121/490/135 103/491/135 105/492/135
f 123/493/136 122/494/136 97/495/136 99/496/136
f 122/497/137 124/498/137 95/499/137 97/500/137
f 124/501/138 125/502/138 93/503/138 95/504/138
f 127/505/139 126/506/139 113/507/139 115/508/139
f 126/509/140 117/510/140 111/511/140 113/512/140
f 125/513/141 127/514/141 115/515/141 93/516/141
f 120/517/142 123/518/142 99/519/142 101/520/142
f 129/521/143 128/522/143 116/523/143 117/524/143
f 128/525/144 131/526/144 118/527/144 116/528/144
f 131/529/145 132/530/145 119/531/145 118/532/145
f 134/533/146 133/534/146 120/535/146 121/536/146
f 132/537/147 134/538/147 121/539/147 119/540/147
f 136/541/148 135/542/148 122/543/148 123/544/148
f 135/545/149 137/546/149 124/547/149 122/548/149
f 137/549/150 138/550/150 125/551/150 124/552/150
f 140/553/151 139/554/151 126/555/151 127/556/151
f 139/557/152 129/558/152 117/559/152 126/560/152
f 138/561/153 140/562/153 127/563/153 125/564/153
f 133/565/154 136/566/154 123/567/154 120/568/154