# Made in Blockbench 4.12.4
mtllib Bench.mtl

o cuboid
v 0.4375 0.4375 0.43827081203189616
v 0.4375 0.4375 -0.4383992628647241
v 0.4375 0 0.43827081203189616
v 0.4375 0 -0.4383992628647241
v -0.4375 0.4375 0.43827081203189616
v -0.4375 0.4375 -0.4383992628647241
v -0.4375 0 0.43827081203189616
v -0.4375 0 -0.4383992628647241
v -0.3125 0.4375 0.43827081203189616
v -0.3125 0.4375 -0.4383992628647241
v -0.3125 0 -0.4383992628647241
v -0.3125 0 0.43827081203189616
v 0.3125 0.4375 -0.4383992628647241
v 0.3125 0.4375 0.43827081203189616
v 0.3125 0 0.43827081203189616
v 0.3125 0 -0.4383992628647241
v -0.4375 0.34375 -0.4383992628647241
v -0.4375 0.34375 0.43827081203189616
v -0.3125 0.34375 0.43827081203189616
v 0.3125 0.34375 0.43827081203189616
v 0.4375 0.34375 0.43827081203189616
v 0.4375 0.34375 -0.4383992628647241
v 0.4375 0.34375 0.38347893235085734
v 0.4375 0 0.38347893235085734
v 0.3125 0 0.38347893235085734
v -0.3125 0 0.38347893235085734
v -0.4375 0 0.38347893235085734
v -0.4375 0.34375 0.38347893235085734
v -0.4375 0.4375 0.38347893235085734
v -0.3125 0.4375 0.38347893235085734
v 0.3125 0.4375 0.38347893235085734
v 0.4375 0.4375 0.38347893235085734
v 0.4375 0 -0.3836073831836853
v 0.3125 0 -0.3836073831836853
v -0.3125 0 -0.3836073831836853
v -0.4375 0 -0.3836073831836853
v -0.4375 0.34375 -0.3836073831836853
v -0.4375 0.4375 -0.3836073831836853
v -0.3125 0.4375 -0.3836073831836853
v 0.3125 0.4375 -0.3836073831836853
v 0.4375 0.4375 -0.3836073831836853
v -0.4375 0.046875 -0.3836073831836853
v -0.4375 0.046875 0.38347893235085734
v -0.4375 0.046875 0.43827081203189616
v -0.3125 0.046875 0.43827081203189616
v 0.3125 0.046875 0.43827081203189616
v 0.4375 0.046875 0.43827081203189616
v 0.4375 0.046875 0.38347893235085734
v 0.4375 0.046875 -0.3836073831836853
v 0.4375 0.046875 -0.4383992628647241
v 0.3125 0.046875 -0.4383992628647241
v -0.3125 0.046875 -0.4383992628647241
v -0.4375 0.046875 -0.4383992628647241
v 0.3125 0.34375 0.38347893235085734
v 0.3125 0.046875 0.38347893235085734
v -0.3125 0.046875 0.38347893235085734
v -0.3125 0.34375 0.38347893235085734
v -0.3125 0.34375 -0.3836073831836853
v -0.3125 0.046875 -0.3836073831836853
v 0.3125 0.046875 -0.3836073831836853
v 0.3125 0.34375 -0.3836073831836853
v 0.3125 0.34375 -0.4383992628647241
v -0.3125 0.34375 -0.4383992628647241
v 0.4375 0.34375 -0.3836073831836853
v -0.43844951543673705 1.1983530111041831 0.38347893235085706
v -0.5615504845632631 1.1766469888958169 -0.38360738318368504
v -0.43844951543673705 1.1983530111041831 -0.38360738318368504
v -0.5615504845632631 1.1766469888958169 0.38347893235085706
v -0.3125 0.7812500000000001 0.4437499999999999
v -0.4375 0.8125 0.3889581203189612
v -0.3125 0.7812500000000001 0.3889581203189612
v -0.4375 0.8125 0.4437499999999999
v 0.4375 0.8125 0.4437499999999999
v 0.3125 0.7812500000000001 0.3889581203189612
v 0.4375 0.8125 0.3889581203189612
v 0.3125 0.7812500000000001 0.4437499999999999
v -0.4375 0.8437500000000001 0.3889581203189612
v -0.4375 0.8437500000000001 0.4437499999999999
v 0.4375 0.8437500000000001 0.4437499999999999
v 0.4375 0.8437500000000001 0.3889581203189612
v -0.4375 0.8125 -0.443878450832828
v -0.4375 0.8125 -0.3890865711517893
v -0.3125 0.7812500000000001 -0.3890865711517893
v -0.3125 0.7812500000000001 -0.443878450832828
v 0.3125 0.7812500000000001 -0.443878450832828
v 0.3125 0.7812500000000001 -0.3890865711517893
v 0.4375 0.8125 -0.3890865711517893
v 0.4375 0.8125 -0.443878450832828
v 0.4375 0.8437413212524751 -0.44479152202087463
v 0.4375 0.8437413212524751 -0.3899996423398359
v -0.4375 0.8437413212524751 -0.3899996423398359
v -0.4375 0.8437413212524751 -0.44479152202087463
v -0.48797475771836846 1.2554265055520917 0.3560829925103378
v -0.5495252422816315 1.2445734944479083 -0.3562114433431658
v -0.48797475771836846 1.2554265055520917 -0.3562114433431658
v -0.5495252422816315 1.2445734944479083 0.3560829925103378
vt 0.01728046875 0.44531406250000005
vt 0.01728046875 0.45703281250000005
vt 0.0035835937500000026 0.45703281250000005
vt 0.0035835937500000026 0.44531406250000005
vt 0.22297890624999997 0.6860078125
vt 0.22297890624999997 0.6977265625
vt 0.20928203124999997 0.6977265625
vt 0.20928203124999997 0.6860078125
vt 0.640625 0.31208281250000003
vt 0.640625 0.3257796875000001
vt 0.484375 0.3257796875000001
vt 0.484375 0.31208281250000003
vt 0.7070320654151562 0.7890499998050056
vt 0.7070320654151562 0.8007687498050056
vt 0.6757820654151562 0.8007687498050056
vt 0.6757820654151562 0.7890499998050056
vt 0.25 0.7426046875
vt 0.25 0.7289078124999999
vt 0.28125 0.7289078124999999
vt 0.28125 0.7426046875
vt 0.5195312500976739 0.5624796868359356
vt 0.5195312500976739 0.5741984368359356
vt 0.4882812500976738 0.5741984368359356
vt 0.4882812500976738 0.5624796868359356
vt 0.7070312500976739 0.5624796868359356
vt 0.7070312500976739 0.5741984368359356
vt 0.6757812500976739 0.5741984368359356
vt 0.6757812500976739 0.5624796868359356
vt 0.4375 0.7426046875
vt 0.4375 0.7289078124999999
vt 0.46875 0.7289078124999999
vt 0.46875 0.7426046875
vt 0.5195320654151562 0.7890499998050056
vt 0.5195320654151562 0.8007687498050056
vt 0.4882820654151562 0.8007687498050056
vt 0.4882820654151562 0.7890499998050056
vt 0.5195320654151562 0.8984249998050056
vt 0.5195320654151562 0.8749874998050056
vt 0.6757820654151562 0.8749874998050056
vt 0.6757820654151562 0.8984249998050056
vt 0.6757820654151562 0.8984249998050056
vt 0.6757820654151562 0.8749874998050056
vt 0.7070320654151562 0.8749874998050056
vt 0.7070320654151562 0.8984249998050056
vt 0.22297890624999997 0.7953828125
vt 0.20928203124999997 0.7953828125
vt 0.20928203124999997 0.7719453125
vt 0.22297890624999997 0.7719453125
vt 0.4882812500976738 0.6718546868359356
vt 0.4882812500976738 0.6484171868359356
vt 0.5195312500976739 0.6484171868359356
vt 0.5195312500976739 0.6718546868359356
vt 0.5195312500976739 0.6718546868359356
vt 0.5195312500976739 0.6484171868359356
vt 0.6757812500976739 0.6484171868359356
vt 0.6757812500976739 0.6718546868359356
vt 0.6757812500976739 0.6718546868359356
vt 0.6757812500976739 0.6484171868359356
vt 0.7070312500976739 0.6484171868359356
vt 0.7070312500976739 0.6718546868359356
vt 0.0035835937500000026 0.5312515625
vt 0.01728046875 0.5312515625
vt 0.01728046875 0.5546890625
vt 0.0035835937500000026 0.5546890625
vt 0.4882820654151562 0.8984249998050056
vt 0.4882820654151562 0.8749874998050056
vt 0.5195320654151562 0.8749874998050056
vt 0.5195320654151562 0.8984249998050056
vt 0.20928203124999997 0.7953828125
vt 0.017510156250000006 0.7953828125
vt 0.017510156250000006 0.7719453125
vt 0.20928203124999997 0.7719453125
vt 0.90625 0.84375
vt 0.734375 0.84375
vt 0.734375 0.828125
vt 0.90625 0.828125
vt 0.640625 0.3257796875000001
vt 0.640625 0.5175515625
vt 0.484375 0.5175515625
vt 0.484375 0.3257796875000001
vt 0.671875 0.3257796875000001
vt 0.671875 0.5175515625
vt 0.640625 0.5175515625
vt 0.640625 0.3257796875000001
vt 0.01728046875 0.5312515625
vt 0.20905234374999998 0.5312515625
vt 0.20905234374999998 0.5546890625
vt 0.01728046875 0.5546890625
vt 0.22275078125 0.44531406250000005
vt 0.22275078125 0.45703281250000005
vt 0.20905234374999998 0.45703281250000005
vt 0.20905234374999998 0.44531406250000005
vt 0.46875 0.5234375
vt 0.46875 0.5371359375
vt 0.4375 0.5371359375
vt 0.4375 0.5234375
vt 0.28125 0.5234375
vt 0.28125 0.5371359375
vt 0.25 0.5371359375
vt 0.25 0.5234375
vt 0.017510156250000006 0.6860078125
vt 0.017510156250000006 0.6977265625
vt 0.0038117187499999983 0.6977265625
vt 0.0038117187499999983 0.6860078125
vt 0.0038117187499999983 0.7719453125
vt 0.017510156250000006 0.7719453125
vt 0.017510156250000006 0.7953828125
vt 0.0038117187499999983 0.7953828125
vt 0.484375 0.53125
vt 0.484375 0.5175515625
vt 0.640625 0.5175515625
vt 0.640625 0.53125
vt 0.22275078125 0.5546890625
vt 0.20905234374999998 0.5546890625
vt 0.20905234374999998 0.5312515625
vt 0.22275078125 0.5312515625
vt 0.6757820654151562 0.7890499998050056
vt 0.6757820654151562 0.8007687498050056
vt 0.5195320654151562 0.8007687498050056
vt 0.5195320654151562 0.7890499998050056
vt 0.4375 0.5234375
vt 0.4375 0.5371359375
vt 0.28125 0.5371359375
vt 0.28125 0.5234375
vt 0.28125 0.7426046875
vt 0.28125 0.7289078124999999
vt 0.4375 0.7289078124999999
vt 0.4375 0.7426046875
vt 0.6757812500976739 0.5624796868359356
vt 0.6757812500976739 0.5741984368359356
vt 0.5195312500976739 0.5741984368359356
vt 0.5195312500976739 0.5624796868359356
vt 0.20928203124999997 0.6860078125
vt 0.20928203124999997 0.6977265625
vt 0.017510156250000006 0.6977265625
vt 0.017510156250000006 0.6860078125
vt 0.25 0.7289078124999999
vt 0.25 0.5371359375
vt 0.28125 0.5371359375
vt 0.28125 0.7289078124999999
vt 0.4375 0.7289078124999999
vt 0.4375 0.5371359375
vt 0.46875 0.5371359375
vt 0.46875 0.7289078124999999
vt 0.20905234374999998 0.44531406250000005
vt 0.20905234374999998 0.45703281250000005
vt 0.01728046875 0.45703281250000005
vt 0.01728046875 0.44531406250000005
vt 0.20928203124999997 0.7719453125
vt 0.20928203124999997 0.6977265625
vt 0.22297890624999997 0.6977265625
vt 0.22297890624999997 0.7719453125
vt 0.4882812500976738 0.6484171868359356
vt 0.4882812500976738 0.5741984368359356
vt 0.5195312500976739 0.5741984368359356
vt 0.5195312500976739 0.6484171868359356
vt 0.6757812500976739 0.6484171868359356
vt 0.6757812500976739 0.5741984368359356
vt 0.7070312500976739 0.5741984368359356
vt 0.7070312500976739 0.6484171868359356
vt 0.0035835937500000026 0.5312515625
vt 0.0035835937500000026 0.45703281250000005
vt 0.01728046875 0.45703281250000005
vt 0.01728046875 0.5312515625
vt 0.20905234374999998 0.5312515625
vt 0.20905234374999998 0.45703281250000005
vt 0.22275078125 0.45703281250000005
vt 0.22275078125 0.5312515625
vt 0.4882820654151562 0.8749874998050056
vt 0.4882820654151562 0.8007687498050056
vt 0.5195320654151562 0.8007687498050056
vt 0.5195320654151562 0.8749874998050056
vt 0.6757820654151562 0.8749874998050056
vt 0.6757820654151562 0.8007687498050056
vt 0.7070320654151562 0.8007687498050056
vt 0.7070320654151562 0.8749874998050056
vt 0.0038117187499999983 0.7719453125
vt 0.0038117187499999983 0.6977265625
vt 0.017510156250000006 0.6977265625
vt 0.017510156250000006 0.7719453125
vt 0.46875 0.9789078125
vt 0.25 0.9789078125
vt 0.25 0.7871359375
vt 0.46875 0.7871359375
vt 0.75 0.65625
vt 0.734375 0.65625
vt 0.734375 0.578125
vt 0.75 0.578125
vt 0.3125 0.625
vt 0.34375 0.625
vt 0.34375 0.703125
vt 0.3125 0.703125
vt 0.375 0.1875
vt 0.390625 0.1875
vt 0.390625 0.265625
vt 0.375 0.265625
vt 0.078125 0.65625
vt 0.046875 0.65625
vt 0.046875 0.578125
vt 0.078125 0.578125
vt 0.421875 0.265625
vt 0.40625 0.265625
vt 0.40625 0.1875
vt 0.421875 0.1875
vt 0.09375 0.578125
vt 0.125 0.578125
vt 0.125 0.65625
vt 0.09375 0.65625
vt 0.4375 0.1875
vt 0.453125 0.1875
vt 0.453125 0.265625
vt 0.4375 0.265625
vt 0.171875 0.65625
vt 0.140625 0.65625
vt 0.140625 0.578125
vt 0.171875 0.578125
vt 0.6875 0.40625
vt 0.6875 0.21875
vt 0.71875 0.21875
vt 0.71875 0.40625
vt 0.734375 0.796875
vt 0.890625 0.796875
vt 0.890625 0.8125
vt 0.734375 0.8125
vt 0.03125 0.109375
vt 0.03125 0.296875
vt 0 0.296875
vt 0 0.109375
vt 0.203125 0.25
vt 0.359375 0.25
vt 0.359375 0.265625
vt 0.203125 0.265625
vt 0.734375 0.78125
vt 0.734375 0.765625
vt 0.890625 0.765625
vt 0.890625 0.78125
vt 0.46875 0.28125
vt 0.46875 0.265625
vt 0.65625 0.265625
vt 0.65625 0.28125
vt 0.734375 0.75
vt 0.734375 0.734375
vt 0.890625 0.734375
vt 0.890625 0.75
vt 0.734375 0.875
vt 0.734375 0.859375
vt 0.921875 0.859375
vt 0.921875 0.875
vt 0.28125 0.9926046875
vt 0.25 0.9789078125
vt 0.46875 0.9789078125
vt 0.4375 0.9926046875
vt 0.4375 0.7734375
vt 0.46875 0.7871359375
vt 0.25 0.7871359375
vt 0.28125 0.7734375
vt 0.44354218749999996 0.4811078125
vt 0.25177031250000004 0.4811078125
vt 0.25177031250000004 0.28830625
vt 0.44354218749999996 0.28830625
vt 0.10925625 0.3539383775489041
vt 0.07848125 0.35936337754890413
vt 0.04699375 0.16915087754890412
vt 0.07824375 0.16915087754890412
vt 0.20928203124999997 0.982753125
vt 0.017510156250000006 0.982753125
vt 0.017510156250000006 0.7953828125
vt 0.20928203124999997 0.7953828125
vt 0.15589375 0.35936353360728246
vt 0.12511875 0.35393853360728245
vt 0.15613125 0.16915103360728234
vt 0.18738125 0.16915103360728234
vt 0.40460234375 0.703125
vt 0.39090390625 0.703125
vt 0.39227421875 0.609375
vt 0.40597109375 0.609375
vt 0.9101574908628912 0.5312497242782228
vt 0.87890859375 0.5234375
vt 0.8789082252811135 0.43748906237296525
vt 0.9101582253189588 0.43748878657279033
vt 0.22434921875 0.8891328125
vt 0.21065078125 0.8891328125
vt 0.20928203124999997 0.7953828125
vt 0.22297890624999997 0.7953828125
vt 0.519531639999979 0.757803124541005
vt 0.4882812493945137 0.7656140619531113
vt 0.4882812500976738 0.6718546868359356
vt 0.5195296876367382 0.6718546868359356
vt 0.015911718749999998 0.6484390625
vt 0.0022132812500000043 0.6484390625
vt 0.0035835937500000026 0.5546890625
vt 0.01728046875 0.5546890625
vt 0.72265859375 0.5234375
vt 0.69140859375 0.53125
vt 0.69140390625 0.437490625
vt 0.72265234375 0.43748906249999997
vt 0.40245827530888056 0.578125
vt 0.4022401242271928 0.59375
vt 0.31629172469111944 0.59375
vt 0.3165098508895995 0.578125
vt 0.7070312506054863 0.7656140619531113
vt 0.6757808600195493 0.757803124462875
vt 0.6757812500976739 0.6718546868359356
vt 0.7070312501367364 0.6718546868359356
vt 0.15625 0.75
vt 0.171875 0.75
vt 0.171875 0.734375
vt 0.15625 0.734375
vt 0.046875 0.5
vt 0.046875 0.515625
vt 0.0625 0.515625
vt 0.0625 0.5
vt 0.890625 0.71875
vt 0.734375 0.71875
vt 0.734375 0.703125
vt 0.890625 0.703125
vt 0.734375 0.984375
vt 0.734375 1
vt 0.953125 1
vt 0.953125 0.984375
vt 0.953125 0.96875
vt 0.953125 0.953125
vt 0.734375 0.953125
vt 0.734375 0.96875
vt 0.519531639999979 0.757803124541005
vt 0.675781639804647 0.7578109374316396
vt 0.7070312491210489 0.765625
vt 0.4882812493945137 0.7656140619531113
vt 0.734375 0.921875
vt 0.734375 0.9375
vt 0.953125 0.9375
vt 0.953125 0.921875
vt 0.72265859375 0.5234375
vt 0.87890859375 0.5234375
vt 0.91015859375 0.53125
vt 0.69140859375 0.53125
vt 0.016139843750000007 0.8891328125
vt 0.00244140625 0.8891328125
vt 0.0038117187499999983 0.7953828125
vt 0.017510156250000006 0.7953828125
vt 0.03515859375000001 0.40624843749999995
vt 0.003908593750000008 0.41406093749999995
vt 0.0039039062500000055 0.32030156249999997
vt 0.035153906250000005 0.32030000000000003
vt 0.13683341224140866 0.734375
vt 0.13661501219207156 0.75
vt 0.05066658775859135 0.75
vt 0.05088498780792846 0.734375
vt 0.7070305035010956 0.9921859375003044
vt 0.6757816753370316 0.9843734374319449
vt 0.6757820654151562 0.8984249998050056
vt 0.7070320654542187 0.8984249998050056
vt 0.3733515625 0.703125
vt 0.359653125 0.703125
vt 0.3610234375 0.609375
vt 0.374721875 0.609375
vt 0.2226574908628912 0.41406066177822276
vt 0.19140859375 0.40624843749999995
vt 0.19140822528111345 0.3202999998729652
vt 0.2226582254108739 0.32030128657278767
vt 0.22412109374999997 0.6484390625
vt 0.21042265624999998 0.6484390625
vt 0.20905234374999998 0.5546890625
vt 0.22275078125 0.5546890625
vt 0.5195324555323432 0.9843734374319449
vt 0.4882820649464062 0.9921843749221813
vt 0.4882820654151562 0.8984249998050056
vt 0.5195320654542187 0.8984249998050056
vt 0.22412109374999997 0.6484390625
vt 0.22434921875 0.65625
vt 0.21065078125 0.65625
vt 0.21042265624999998 0.6484390625
vt 0.016139843750000007 0.8891328125
vt 0.015911718749999998 0.8969437499999999
vt 0.0022132812500000043 0.8969437499999999
vt 0.00244140625 0.8891328125
vt 0.953125 0.90625
vt 0.734375 0.90625
vt 0.734375 0.890625
vt 0.953125 0.890625
vt 0.734375 0.671875
vt 0.890625 0.671875
vt 0.890625 0.6875
vt 0.734375 0.6875
vt 0.707030434537262 1
vt 0.4882804345457813 0.9999980693987787
vt 0.48828050350961494 0.992184006899083
vt 0.7070305035010956 0.9921859375003044
vt 0.22265859375 0.421875
vt 0.003908593750000008 0.421875
vt 0.003908593750000008 0.41406093749999995
vt 0.22265859375 0.41406093749999995
vt 0.003908593750000008 0.41406093749999995
vt 0.03515859375000001 0.40624843749999995
vt 0.19140859375 0.40624843749999995
vt 0.22265859375 0.41406093749999995
vt 0.48828050350961494 0.992184006899083
vt 0.5195305724584415 0.9843717826995617
vt 0.6757805724523562 0.9843731617004341
vt 0.7070305035010956 0.9921859375003044
vt 0.43669375 0.5
vt 0.2586203125 0.5
vt 0.25177031250000004 0.4811078125
vt 0.44354218749999996 0.4811078125
vt 0.10649061432523677 0.3722858117519203
vt 0.09110237716828741 0.375
vt 0.07847982141194194 0.35936362937961785
vt 0.10925625 0.3539383775489041
vt 0.20243203125 1
vt 0.024358593749999977 1
vt 0.017510156250000006 0.982753125
vt 0.20928203124999997 0.982753125
vt 0.1432729035568798 0.375
vt 0.12788464088754 0.3722859563997727
vt 0.12511883274904048 0.35393854819423753
vt 0.15589375 0.35936353360728246
vn 1 0 0
vn -1 0 0
vn 0 1 0
vn 0 0 -1
vn 0 -1 0
vn 0 0 1
vn 0 0 1
vn 0 -1 0
vn 0 0 -1
vn 0 0 -1
vn 0 0 -1
vn -1 0 0
vn 0 0 1
vn 0 0 1
vn 0 0 1
vn 1 0 0
vn 0 0 -1
vn -1 0 0
vn -0.17364817766693355 0.9848077530122077 0
vn 0 1 0
vn 0 1 0
vn 1 0 0
vn 1 0 0
vn 0 -1 0
vn 0 -1 0
vn -1 0 0
vn -1 0 0
vn 0 1 0
vn 1 0 0
vn 0 0 -1
vn 0 -1 0
vn 0 -1 0
vn 0 0 1
vn -1 0 0
vn 0 -1 0
vn 0 -1 0
vn 1 0 0
vn -1 0 0
vn 0 0 1
vn 0 0 1
vn 1 0 0
vn 1 0 0
vn 0 0 -1
vn 0 0 -1
vn -1 0 0
vn 0 -1 0
vn -1 0 0
vn 0 0 -1
vn 1 0 0
vn 0 0 -1
vn 1 0 0
vn 0 0 1
vn -1 0 0
vn 0 0 1
vn 0 1 0
vn 0 1 0
vn 0 1 0
vn 0 1 0
vn 0 0 -1
vn 1 0 0
vn 0 0 1
vn -1 0 0
vn 0 -1 0
vn 0 -1 0
vn 0.9865740176782561 0.16331475022845976 0
vn -6.249902517992482e-17 3.5444958524673764e-16 -1
vn -0.9862073663171299 -0.16551444233610108 0
vn -6.430913826651626e-17 3.6471524668617584e-16 1
vn 1 0 0
vn 0.003984326237829293 0.01593730495131723 -0.9998650546225324
vn -1 0 0
vn -0.0036523777694108433 -0.014609511077643423 0.9998866047321074
vn 1 0 0
vn -0.003652377769410917 0.01460951107764372 -0.9998866047321074
vn -1 0 0
vn 0.003984326237829213 -0.015937304951316907 0.9998650546225324
vn -1 0 0
vn 1 0 0
vn 0 -1 0
vn 0 1 0
vn 0 0 1
vn 0 0 1
vn 0 0 -1
vn 0 0 -1
vn -1 0 0
vn 0.003652377769410991 0.014609511077644015 0.9998866047321074
vn 1 0 0
vn -0.003984326237829334 -0.015937304951317392 -0.9998650546225324
vn -1 0 0
vn -0.003984326237829374 0.015937304951317552 0.9998650546225324
vn 1 0 0
vn 0.0036523777694109543 -0.014609511077643867 -0.9998866047321074
vn 1 0 0
vn -1 0 0
vn 0 1 0
vn 0 -1 0
vn 0 -0.029213920428105267 -0.9995731823399527
vn 0 0.029213920428105267 0.9995731823399527
vn 0 0 1
vn 0 0 -1
vn 0.7552858303537267 0.6553955404691748 0
vn -0.0676139097530107 0.3834575371355149 -0.9210801682925744
vn -0.9846886114783187 0.17432251267378202 0
vn -0.06761390975301108 0.38345753713551706 0.9210801682925733
usemtl m_8217e4d0-b95b-bf63-51c2-500b11c04b7a
f 24/1/1 48/2/1 47/3/1 3/4/1
f 7/5/2 44/6/2 43/7/2 27/8/2
f 14/9/3 31/10/3 30/11/3 9/12/3
f 8/13/4 53/14/4 52/15/4 11/16/4
f 7/17/5 27/18/5 26/19/5 12/20/5
f 12/21/6 45/22/6 44/23/6 7/24/6
f 3/25/7 47/26/7 46/27/7 15/28/7
f 15/29/8 25/30/8 24/31/8 3/32/8
f 16/33/9 51/34/9 50/35/9 4/36/9
f 13/37/10 62/38/10 63/39/10 10/40/10
f 10/41/11 63/42/11 17/43/11 6/44/11
f 5/45/12 29/46/12 28/47/12 18/48/12
f 5/49/13 18/50/13 19/51/13 9/52/13
f 9/53/14 19/54/14 20/55/14 14/56/14
f 14/57/15 20/58/15 21/59/15 1/60/15
f 21/61/16 23/62/16 32/63/16 1/64/16
f 2/65/17 22/66/17 62/67/17 13/68/17
f 29/69/18 38/70/18 37/71/18 28/72/18
f 93/73/19 95/74/19 94/75/19 96/76/19
f 31/77/20 40/78/20 39/79/20 30/80/20
f 32/81/21 41/82/21 40/83/21 31/84/21
f 23/85/22 64/86/22 41/87/22 32/88/22
f 4/89/23 50/90/23 49/91/23 33/92/23
f 4/93/24 33/94/24 34/95/24 16/96/24
f 11/97/25 35/98/25 36/99/25 8/100/25
f 36/101/26 42/102/26 53/103/26 8/104/26
f 17/105/27 37/106/27 38/107/27 6/108/27
f 10/109/28 39/110/28 40/111/28 13/112/28
f 2/113/29 41/114/29 64/115/29 22/116/29
f 11/117/30 52/118/30 51/119/30 16/120/30
f 16/121/31 34/122/31 35/123/31 11/124/31
f 12/125/32 26/126/32 25/127/32 15/128/32
f 15/129/33 46/130/33 45/131/33 12/132/33
f 27/133/34 43/134/34 42/135/34 36/136/34
f 27/137/35 36/138/35 35/139/35 26/140/35
f 25/141/36 34/142/36 33/143/36 24/144/36
f 33/145/37 49/146/37 48/147/37 24/148/37
f 28/149/38 43/150/38 44/151/38 18/152/38
f 18/153/39 44/154/39 45/155/39 19/156/39
f 20/157/40 46/158/40 47/159/40 21/160/40
f 21/161/41 47/162/41 48/163/41 23/164/41
f 64/165/42 49/166/42 50/167/42 22/168/42
f 22/169/43 50/170/43 51/171/43 62/172/43
f 63/173/44 52/174/44 53/175/44 17/176/44
f 17/177/45 53/178/45 42/179/45 37/180/45
f 23/181/46 28/182/46 37/183/46 64/184/46
f 20/185/47 54/186/47 55/187/47 46/188/47
f 48/189/48 55/190/48 54/191/48 23/192/48
f 45/193/49 56/194/49 57/195/49 19/196/49
f 28/197/50 57/198/50 56/199/50 43/200/50
f 63/201/51 58/202/51 59/203/51 52/204/51
f 42/205/52 59/206/52 58/207/52 37/208/52
f 51/209/53 60/210/53 61/211/53 62/212/53
f 64/213/54 61/214/54 60/215/54 49/216/54
f 60/217/55 55/218/55 48/219/55 49/220/55
f 59/221/56 60/222/56 51/223/56 52/224/56
f 56/225/57 59/226/57 42/227/57 43/228/57
f 45/229/58 46/230/58 55/231/58 56/232/58
f 55/233/59 25/234/59 26/235/59 56/236/59
f 56/237/60 26/238/60 35/239/60 59/240/60
f 59/241/61 35/242/61 34/243/61 60/244/61
f 60/245/62 34/246/62 25/247/62 55/248/62
f 19/249/63 28/250/63 23/251/63 20/252/63
f 62/253/64 64/254/64 37/255/64 63/256/64
f 67/257/65 65/258/65 30/259/65 39/260/65
f 66/261/66 67/262/66 39/263/66 38/264/66
f 68/265/67 66/266/67 38/267/67 29/268/67
f 65/269/68 68/270/68 29/271/68 30/272/68
f 71/273/69 69/274/69 9/275/69 30/276/69
f 70/277/70 71/278/70 30/279/70 29/280/70
f 72/281/71 70/282/71 29/283/71 5/284/71
f 69/285/72 72/286/72 5/287/72 9/288/72
f 75/289/73 73/290/73 1/291/73 32/292/73
f 74/293/74 75/294/74 32/295/74 31/296/74
f 76/297/75 74/298/75 31/299/75 14/300/75
f 73/301/76 76/302/76 14/303/76 1/304/76
f 78/305/77 77/306/77 70/307/77 72/308/77
f 75/309/78 80/310/78 79/311/78 73/312/78
f 76/313/79 69/314/79 71/315/79 74/316/79
f 77/317/80 78/318/80 79/319/80 80/320/80
f 78/321/81 72/322/81 73/323/81 79/324/81
f 69/325/82 76/326/82 73/327/82 72/328/82
f 70/329/83 77/330/83 80/331/83 75/332/83
f 74/333/84 71/334/84 70/335/84 75/336/84
f 82/337/85 81/338/85 6/339/85 38/340/85
f 83/341/86 82/342/86 38/343/86 39/344/86
f 84/345/87 83/346/87 39/347/87 10/348/87
f 81/349/88 84/350/88 10/351/88 6/352/88
f 86/353/89 85/354/89 13/355/89 40/356/89
f 87/357/90 86/358/90 40/359/90 41/360/90
f 88/361/91 87/362/91 41/363/91 2/364/91
f 85/365/92 88/366/92 2/367/92 13/368/92
f 88/369/93 89/370/93 90/371/93 87/372/93
f 82/373/94 91/374/94 92/375/94 81/376/94
f 89/377/95 92/378/95 91/379/95 90/380/95
f 84/381/96 85/382/96 86/383/96 83/384/96
f 92/385/97 89/386/97 88/387/97 81/388/97
f 90/389/98 91/390/98 82/391/98 87/392/98
f 82/393/99 83/394/99 86/395/99 87/396/99
f 88/397/100 85/398/100 84/399/100 81/400/100
f 95/401/101 93/402/101 65/403/101 67/404/101
f 94/405/102 95/406/102 67/407/102 66/408/102
f 96/409/103 94/410/103 66/411/103 68/412/103
f 93/413/104 96/414/104 68/415/104 65/416/104