# Made in Blockbench 5.1.6
mtllib CalShipCargoWall1.mtl

o mesh
v 0.5 3.0625 -0.34375
v 0.5 0.375 -0.28125
v 0.5 2.8161764705882355 -0.09375
v 0.5 0.5588235294117647 -0.09375
v 0.5 2.8161764705882355 0
v 0.5 3.0625 0
v 0.5 0.375 0
v 0.5 0.5588235294117647 0
v -0.5 3.0625 -0.34375
v -0.5 0.375 -0.28125
v -0.5 2.8161764705882355 -0.09375
v -0.5 0.5588235294117647 -0.09375
v -0.5 2.8161764705882355 0
v -0.5 3.0625 0
v -0.5 0.375 0
v -0.5 0.5588235294117647 0
v 0.5 3.3125 0
v -0.5 3.3125 0
v -0.5 3.3125 -0.34375
v 0.5 3.3125 -0.34375
v -0.5 0.1875 0
v 0.5 0.1875 0
v 0.5 0.1875 -0.28125
v -0.5 0.1875 -0.28125
vt 0.3359375 0.03125
vt 0.3359375 0.5
vt 0.3125 0.5
vt 0.3125 0.03125
vt 0.6875 0.53125
vt 0.4375 0.53125
vt 0.4375 0.4453125
vt 0.6875 0.4453125
vt 0.5 0.8671875
vt 0.75 0.8671875
vt 0.75 0.921875
vt 0.5 0.921875
vt 0.3359375 0
vt 0.3359375 0.03125
vt 0.3125 0.03125
vt 0.28125 0
vt 0.3359375 0.5
vt 0.3359375 0.53125
vt 0.25 0.53125
vt 0.3125 0.5
vt 0.25 0.96875
vt 0.25 1
vt 0 1
vt 0 0.96875
vt 0.25 0.53125
vt 0.5 0.53125
vt 0.5 1
vt 0.25 1
vt 0.75 0.859375
vt 0.5 0.859375
vt 0.5 0.81640625
vt 0.75 0.81640625
vt 0.75 1
vt 0.5 1
vt 0.5 0.9296875
vt 0.75 0.9296875
vt 0.3671875 0.5
vt 0.34375 0.5
vt 0.34375 0.03125
vt 0.3671875 0.03125
vt 0.3671875 0.03125
vt 0.34375 0.03125
vt 0.34375 0
vt 0.3984375 0
vt 0.4296875 0.53125
vt 0.34375 0.53125
vt 0.34375 0.5
vt 0.3671875 0.5
vt 0.15625 0.75
vt 0.40625 0.75
vt 0.40625 0.765625
vt 0.15625 0.765625
vt 0.1875 0.734375
vt 0.2734375 0.734375
vt 0.2734375 0.75
vt 0.1875 0.75
vt 0.15625 0.71875
vt 0.40625 0.71875
vt 0.40625 0.734375
vt 0.15625 0.734375
vt 0.296875 0.734375
vt 0.3828125 0.734375
vt 0.3828125 0.75
vt 0.296875 0.75
vt 0 0.37316250000000006
vt 0.25 0.37316250000000006
vt 0.25 1
vt 0 1
vt 0.25 1
vt 0 1
vt 0 0.95404375
vt 0.25 0.95404375
vt 0.4375 0.9375
vt 0.1875 0.9375
vt 0.1875 0.921875
vt 0.4375 0.921875
vt 0.4140625 0.953125
vt 0.34375 0.953125
vt 0.34375 0.9375
vt 0.4140625 0.9375
vt 0.4375 0.96875
vt 0.1875 0.96875
vt 0.1875 0.953125
vt 0.4375 0.953125
vt 0.2890625 0.953125
vt 0.21875 0.953125
vt 0.21875 0.9375
vt 0.2890625 0.9375
vn -1 0 0
vn 0 -1 0
vn 0 1 0
vn -1 0 0
vn -1 0 0
vn 0 0 -1
vn 0 0 -1
vn 0 0.7140728391445786 -0.7000714109260575
vn 0 -0.7123250669375609 -0.7018496983061255
vn 1 0 0
vn 1 0 0
vn 1 0 0
vn 0 0 -1
vn 1 0 0
vn 0 0 1
vn -1 0 0
vn 0 0 -1
vn 0 0 -1
vn 0 0 -1
vn -1 0 0
vn 0 0 1
vn 1 0 0
usemtl none
f 8/1/1 5/2/1 3/3/1 4/4/1
f 17/5/2 18/6/2 19/7/2 20/8/2
f 21/9/3 22/10/3 23/11/3 24/12/3
f 7/13/4 8/14/4 4/15/4 2/16/4
f 5/17/5 6/18/5 1/19/5 3/20/5
f 13/21/6 14/22/6 6/23/6 5/24/6
f 4/25/7 12/26/7 11/27/7 3/28/7
f 12/29/8 4/30/8 2/31/8 10/32/8
f 9/33/9 1/34/9 3/35/9 11/36/9
f 11/37/10 13/38/10 16/39/10 12/40/10
f 12/41/11 16/42/11 15/43/11 10/44/11
f 9/45/12 14/46/12 13/47/12 11/48/12
f 18/49/13 17/50/13 6/51/13 14/52/13
f 19/53/14 18/54/14 14/55/14 9/56/14
f 20/57/15 19/58/15 9/59/15 1/60/15
f 17/61/16 20/62/16 1/63/16 6/64/16
f 8/65/17 16/66/17 13/67/17 5/68/17
f 16/69/18 8/70/18 7/71/18 15/72/18
f 22/73/19 21/74/19 15/75/19 7/76/19
f 23/77/20 22/78/20 7/79/20 2/80/20
f 24/81/21 23/82/21 2/83/21 10/84/21
f 21/85/22 24/86/22 10/87/22 15/88/22