# Made in Blockbench 4.12.4
mtllib ShipWallAirlock.mtl

o Airlock
v 0 1.25 0.4375
v 0.301443125 2.3125 0.4375000000000002
v 0.301443125 2.3125 -0.06249999999999978
v 0.823556875 2.02780375 0.43750000000000017
v 0.823556875 2.0278037500000003 -0.06249999999999983
v 1.125 1.53469625 0.43750000000000006
v 1.125 1.53469625 -0.062499999999999944
v 1.125 0.96530375 0.43749999999999994
v 1.125 0.9653037500000001 -0.0625
v 0.823556875 0.47219625 0.43749999999999983
v 0.823556875 0.4721962500000001 -0.06250000000000011
v 0.488943125 0.1875 0.4374999999999998
v 0.488943125 0.1875000000000001 -0.06250000000000022
v -0.488943125 0.1875 0.4374999999999998
v -0.488943125 0.1875000000000001 -0.06250000000000022
v -0.823556875 0.47219625 0.43749999999999983
v -0.823556875 0.4721962500000001 -0.06250000000000011
v -1.125 0.96530375 0.43749999999999994
v -1.125 0.9653037500000001 -0.0625
v -1.125 1.53469625 0.43750000000000006
v -1.125 1.53469625 -0.062499999999999944
v -0.823556875 2.02780375 0.43750000000000017
v -0.823556875 2.0278037500000003 -0.06249999999999983
v -0.301443125 2.3125 0.4375000000000002
v -0.301443125 2.3125 -0.06249999999999978
v 0.2763225 2.234375 -0.06249999999999978
v 0.7549275 1.9706125 -0.06249999999999983
v 1.03125 1.5137625000000001 -0.062499999999999944
v 1.03125 0.9862375000000001 -0.0625
v 0.7549275 0.5293875000000001 -0.06250000000000011
v 0.4481975 0.2656250000000001 -0.06250000000000022
v -0.7549275 0.5293875000000001 -0.06250000000000011
v -1.03125 0.9862375000000001 -0.0625
v -0.4481975 0.2656250000000001 -0.06250000000000022
v -1.03125 1.5137625000000001 -0.062499999999999944
v -0.7549275 1.9706125 -0.06249999999999983
v -0.2763225 2.234375 -0.06249999999999978
v 0.2763225 2.234375 0.06250000000000022
v 0.7549275 1.9706125 0.06250000000000017
v 1.03125 1.5137625000000001 0.06250000000000006
v 1.03125 0.9862375000000001 0.062499999999999944
v 0.7549275 0.5293875000000001 0.06249999999999983
v 0.4481975 0.2656250000000001 0.06249999999999978
v -0.7549275 0.5293875000000001 0.06249999999999983
v -1.03125 0.9862375000000001 0.062499999999999944
v -0.4481975 0.2656250000000001 0.06249999999999978
v -1.03125 1.5137625000000001 0.06250000000000006
v -0.7549275 1.9706125 0.06250000000000017
v -0.2763225 2.234375 0.06250000000000022
v 0.2574825 2.17578125 2.220446049250313e-16
v 0.703455 1.9277187500000001 1.6653345369377348e-16
v 0.9609375 1.4980625 5.551115123125783e-17
v 0.9609375 1.0019375000000001 -5.551115123125783e-17
v 0.703455 0.5722812500000001 -1.1102230246251565e-16
v 0.41763875 0.3242187500000001 -1.6653345369377348e-16
v -0.703455 0.5722812500000001 -1.1102230246251565e-16
v -0.9609375 1.0019375000000001 -5.551115123125783e-17
v -0.41763875 0.3242187500000001 -1.6653345369377348e-16
v -0.9609375 1.4980625 5.551115123125783e-17
v -0.703455 1.9277187500000001 1.6653345369377348e-16
v -0.2574825 2.17578125 2.220446049250313e-16
v 0.2433525 2.13183625 -0.06249999999999978
v 0.664850625 1.8955487500000001 -0.06249999999999983
v 0.908203125 1.4862875 -0.062499999999999944
v 0.908203125 1.0137125 -0.0625
v 0.664850625 0.6044512500000001 -0.06250000000000011
v 0.394719375 0.3681643750000001 -0.06250000000000022
v -0.664850625 0.6044512500000001 -0.06250000000000011
v -0.908203125 1.0137125 -0.0625
v -0.394719375 0.3681643750000001 -0.06250000000000022
v -0.908203125 1.4862875 -0.062499999999999944
v -0.664850625 1.8955487500000001 -0.06249999999999983
v -0.2433525 2.13183625 -0.06249999999999978
v 0.19926125 1.9738768750000002 -0.06249999999999983
v 0.54439125 1.7799150000000001 -0.06249999999999989
v 0.7436525 1.4439625 -0.062499999999999944
v 0.7436525 1.0560375000000002 -0.0625
v 0.54439125 0.7200850000000001 -0.06250000000000011
v 0.323203125 0.5261231250000001 -0.06250000000000011
v -0.54439125 0.7200850000000001 -0.06250000000000011
v -0.7436525 1.0560375000000002 -0.0625
v -0.323203125 0.5261231250000001 -0.06250000000000011
v -0.7436525 1.4439625 -0.062499999999999944
v -0.54439125 1.7799150000000001 -0.06249999999999989
v -0.19926125 1.9738768750000002 -0.06249999999999983
v 0.19926125 1.9738768750000002 1.6653345369377348e-16
v 0.54439125 1.7799150000000001 1.1102230246251565e-16
v 0 1.25 0
v 0.7436525 1.4439625 5.551115123125783e-17
v 0.7436525 1.0560375 -5.551115123125783e-17
v 0.54439125 0.7200850000000001 -1.1102230246251565e-16
v 0.323203125 0.5261231250000001 -1.6653345369377348e-16
v -0.54439125 0.7200850000000001 -1.1102230246251565e-16
v -0.7436525 1.0560375 -5.551115123125783e-17
v -0.323203125 0.5261231250000001 -1.6653345369377348e-16
v -0.7436525 1.4439625 5.551115123125783e-17
v -0.54439125 1.7799150000000001 1.1102230246251565e-16
v -0.19926125 1.9738768750000002 1.6653345369377348e-16
vt 0.24356953125 0.96441328125
vt 0.17830546875 1
vt 0.140625 0.8671875
vt 0.64217265625 0.4453125
vt 0.716509375 0.4453125
vt 0.716509375 0.5078125
vt 0.64217265625 0.5078125
vt 0.36816953125 0.56903125
vt 0.4113109375 0.5932765625
vt 0.34326171875 0.659515625
vt 0.28125 0.90277421875
vt 0.24356953125 0.96441328125
vt 0.140625 0.8671875
vt 0.0000796875 0.4453125
vt 0.0723234375 0.4453125
vt 0.0723234375 0.5078125
vt 0.0000796875 0.5078125
vt 0.4113109375 0.5932765625
vt 0.43621796875 0.6352703125
vt 0.34326171875 0.659515625
vt 0.28125 0.83160078125
vt 0.28125 0.90277421875
vt 0.140625 0.8671875
vt 0.0723234375 0.4453125
vt 0.143496875 0.4453125
vt 0.143496875 0.5078125
vt 0.0723234375 0.5078125
vt 0.43621796875 0.6352703125
vt 0.43621796875 0.6837609375
vt 0.34326171875 0.659515625
vt 0.24356953125 0.76996171875
vt 0.28125 0.83160078125
vt 0.140625 0.8671875
vt 0.143496875 0.4453125
vt 0.215740625 0.4453125
vt 0.215740625 0.5078125
vt 0.143496875 0.5078125
vt 0.43621796875 0.6837609375
vt 0.4113109375 0.7257546875
vt 0.34326171875 0.659515625
vt 0.20174296875 0.734375
vt 0.24356953125 0.76996171875
vt 0.140625 0.8671875
vt 0.2734375 0.9375
vt 0.328125 0.9375
vt 0.328125 1
vt 0.2734375 1
vt 0.4113109375 0.7257546875
vt 0.38366171875 0.75
vt 0.34326171875 0.659515625
vt 0.07950703125 0.734375
vt 0.20174296875 0.734375
vt 0.140625 0.8671875
vt 0 0.6640625
vt 0.125 0.6640625
vt 0.125 0.7265625
vt 0 0.7265625
vt 0.38366171875 0.75
vt 0.30286171875 0.75
vt 0.34326171875 0.659515625
vt 0.03768046875 0.76996171875
vt 0.07950703125 0.734375
vt 0.140625 0.8671875
vt 0.1328125 0.6640625
vt 0.1875 0.6640625
vt 0.1875 0.7265625
vt 0.1328125 0.7265625
vt 0.30286171875 0.75
vt 0.2752125 0.7257546875
vt 0.34326171875 0.659515625
vt 0 0.83160078125
vt 0.03768046875 0.76996171875
vt 0.140625 0.8671875
vt 0.5000796875 0.609375
vt 0.5723234375 0.609375
vt 0.5723234375 0.671875
vt 0.5000796875 0.671875
vt 0.2752125 0.7257546875
vt 0.25030546875 0.6837609375
vt 0.34326171875 0.659515625
vt 0 0.90277421875
vt 0 0.83160078125
vt 0.140625 0.8671875
vt 0.5723234375 0.609375
vt 0.643496875 0.609375
vt 0.643496875 0.671875
vt 0.5723234375 0.671875
vt 0.25030546875 0.6837609375
vt 0.25030546875 0.6352703125
vt 0.34326171875 0.659515625
vt 0.03768046875 0.96441328125
vt 0 0.90277421875
vt 0.140625 0.8671875
vt 0.643496875 0.609375
vt 0.715740625 0.609375
vt 0.715740625 0.671875
vt 0.643496875 0.671875
vt 0.25030546875 0.6352703125
vt 0.2752125 0.5932765625
vt 0.34326171875 0.659515625
vt 0.10294453125 1
vt 0.03768046875 0.96441328125
vt 0.140625 0.8671875
vt 0.492475 0.4453125
vt 0.56681171875 0.4453125
vt 0.56681171875 0.5078125
vt 0.492475 0.5078125
vt 0.2752125 0.5932765625
vt 0.31835390625 0.56903125
vt 0.34326171875 0.659515625
vt 0.17830546875 1
vt 0.10294453125 1
vt 0.140625 0.8671875
vt 0.56681171875 0.4453125
vt 0.64217265625 0.4453125
vt 0.64217265625 0.5078125
vt 0.56681171875 0.5078125
vt 0.31835390625 0.56903125
vt 0.36816953125 0.56903125
vt 0.34326171875 0.659515625
vt 0.445928125 0.5583609375
vt 0.386103125 0.525390625
vt 0.38924296875 0.515625
vt 0.45450703125 0.5512117187500001
vt 0.48046875 0.6154671875
vt 0.445928125 0.5583609375
vt 0.45450703125 0.5512117187500001
vt 0.4921875 0.6128507812499999
vt 0.48046875 0.6814078125
vt 0.48046875 0.6154671875
vt 0.4921875 0.6128507812499999
vt 0.4921875 0.6840242187500001
vt 0.445928125 0.7385140625
vt 0.48046875 0.6814078125
vt 0.4921875 0.6840242187500001
vt 0.45450703125 0.7456632812499999
vt 0.4075875 0.771484375
vt 0.445928125 0.7385140625
vt 0.45450703125 0.7456632812499999
vt 0.41268046875 0.78125
vt 0.22265625 0.6814078125
vt 0.257196875 0.7385140625
vt 0.24861796875 0.7456632812499999
vt 0.2109375 0.6840242187500001
vt 0.2955375 0.771484375
vt 0.4075875 0.771484375
vt 0.41268046875 0.78125
vt 0.29044453125 0.78125
vt 0.257196875 0.7385140625
vt 0.2955375 0.771484375
vt 0.29044453125 0.78125
vt 0.24861796875 0.7456632812499999
vt 0.22265625 0.6154671875
vt 0.22265625 0.6814078125
vt 0.2109375 0.6840242187500001
vt 0.2109375 0.6128507812499999
vt 0.257196875 0.5583609375
vt 0.22265625 0.6154671875
vt 0.2109375 0.6128507812499999
vt 0.24861796875 0.5512117187500001
vt 0.317021875 0.525390625
vt 0.257196875 0.5583609375
vt 0.24861796875 0.5512117187500001
vt 0.31388203125 0.515625
vt 0.386103125 0.525390625
vt 0.317021875 0.525390625
vt 0.31388203125 0.515625
vt 0.38924296875 0.515625
vt 0.00017734375 0.5703125
vt 0.06848671875 0.5703125
vt 0.06848671875 0.5859375
vt 0.00017734375 0.5859375
vt 0.133067578125 0.640625
vt 0.199807421875 0.640625
vt 0.199807421875 0.65625
vt 0.133067578125 0.65625
vt 0.067126953125 0.640625
vt 0.133067578125 0.640625
vt 0.133067578125 0.65625
vt 0.067126953125 0.65625
vt 0.000387890625 0.640625
vt 0.067126953125 0.640625
vt 0.067126953125 0.65625
vt 0.000387890625 0.65625
vt 0 0.984375
vt 0.046875 0.984375
vt 0.046875 1
vt 0 1
vt 0.133068359375 0.609375
vt 0.199807421875 0.609375
vt 0.199807421875 0.625
vt 0.133068359375 0.625
vt 0.3984375 0.890625
vt 0.5078125 0.890625
vt 0.5078125 0.90625
vt 0.3984375 0.90625
vt 0.28125 0.7890625
vt 0.328125 0.7890625
vt 0.328125 0.8046875
vt 0.28125 0.8046875
vt 0.067127734375 0.609375
vt 0.133068359375 0.609375
vt 0.133068359375 0.625
vt 0.067127734375 0.625
vt 0.000387890625 0.609375
vt 0.067127734375 0.609375
vt 0.067127734375 0.625
vt 0.000387890625 0.625
vt 0.13756796875 0.5703125
vt 0.20587734375 0.5703125
vt 0.20587734375 0.5859375
vt 0.13756796875 0.5859375
vt 0.06848671875 0.5703125
vt 0.13756796875 0.5703125
vt 0.13756796875 0.5859375
vt 0.06848671875 0.5859375
vt 0.7217878125 0.71762125
vt 0.661951015625 0.695514609375
vt 0.66430640625 0.68480640625
vt 0.72844640625 0.7083046093750001
vt 0.7682953125 0.75954234375
vt 0.7217878125 0.71762125
vt 0.728447578125 0.708302890625
vt 0.778153125 0.752839453125
vt 0.3532734375 0.91946484375
vt 0.2912578125 0.91946484375
vt 0.2892953125 0.90770546875
vt 0.3552359375 0.90770546875
vt 0.262986015625 0.5031397656250001
vt 0.212523125 0.540204921875
vt 0.203382734375 0.532549921875
vt 0.25729078125 0.49320437500000003
vt 0.33771328125 0.8671875
vt 0.29040703125 0.8671875
vt 0.2890625 0.8558140625
vt 0.3396296875 0.8559820312499999
vt 0.497636171875 0.548681328125
vt 0.451513359375 0.506337265625
vt 0.45825859375 0.49708062500000005
vt 0.507554765625 0.542069765625
vt 0.410274296875 0.48315929687500003
vt 0.305864921875 0.48315929687500003
vt 0.302044609375 0.47245070312500004
vt 0.414094609375 0.47245070312500004
vt 0.451513359375 0.506337265625
vt 0.410274296875 0.48315929687500003
vt 0.414094609375 0.472450625
vt 0.458257578125 0.49708195312500003
vt 0.3532734375 0.88821484375
vt 0.2912578125 0.88821484375
vt 0.2892953125 0.87645546875
vt 0.3552359375 0.87645546875
vt 0.5366246875 0.7143134375
vt 0.485792109375 0.750869921875
vt 0.4767296875 0.7431230468750001
vt 0.53103015625 0.7043209375
vt 0.5975815625 0.6955156250000001
vt 0.53662375 0.7143116406250001
vt 0.53048484375 0.70464203125
vt 0.595816484375 0.684695234375
vt 0.661951015625 0.695514609375
vt 0.597580703125 0.695514609375
vt 0.595225234375 0.684806015625
vt 0.664306484375 0.684806015625
vt 0.716282109375 0.725996640625
vt 0.659665234375 0.70495421875
vt 0.661951640625 0.6955148437500001
vt 0.7217878125 0.71762125
vt 0.759951015625 0.765625
vt 0.715826640625 0.72568109375
vt 0.721787734375 0.7176211718750001
vt 0.7682953125 0.75954234375
vt 0.3518015625 0.9296875
vt 0.2927296875 0.9296875
vt 0.2912578125 0.91946484375
vt 0.3532734375 0.91946484375
vt 0.268111015625 0.51175375
vt 0.22021921875 0.5470916406249999
vt 0.212523125 0.540204921875
vt 0.26298546875 0.50314015625
vt 0.308729765625 0.492709296875
vt 0.268111015625 0.51175375
vt 0.26298453125 0.5031385937499999
vt 0.305865078125 0.48315968750000005
vt 0.489236640625 0.5546875
vt 0.445479453125 0.5143428125
vt 0.451513828125 0.506337734375
vt 0.497636171875 0.548681328125
vt 0.407409453125 0.492709296875
vt 0.308729765625 0.492709296875
vt 0.305864921875 0.48315929687500003
vt 0.410274296875 0.48315929687500003
vt 0.44574859375 0.5145370312499999
vt 0.4066925 0.492464453125
vt 0.41027421875 0.48315921875
vt 0.451513359375 0.506337265625
vt 0.3518015625 0.8984375
vt 0.2927296875 0.8984375
vt 0.2912578125 0.88821484375
vt 0.3532734375 0.88821484375
vt 0.54166359375 0.72297796875
vt 0.493418671875 0.75783359375
vt 0.485792109375 0.750869921875
vt 0.536624765625 0.714313359375
vt 0.599347109375 0.705065390625
vt 0.54166359375 0.72297796875
vt 0.53662375 0.7143116406250001
vt 0.5975809375 0.6955158593749999
vt 0.660184609375 0.705065390625
vt 0.599347109375 0.705065390625
vt 0.597580703125 0.695514609375
vt 0.661951015625 0.695514609375
vt 0.54900625 0.82353125
vt 0.50586484375 0.7992859375
vt 0.51137578125 0.779540625
vt 0.56406328125 0.8090765625
vt 0.57391328125 0.865525
vt 0.54900625 0.82353125
vt 0.56406328125 0.8090765625
vt 0.5944828125 0.860234375
vt 0.57391328125 0.914015625
vt 0.57391328125 0.865525
vt 0.5944828125 0.860234375
vt 0.5944828125 0.91930625
vt 0.54900625 0.956009375
vt 0.57391328125 0.914015625
vt 0.5944828125 0.91930625
vt 0.56406328125 0.9704640625
vt 0.52135703125 0.9802546875
vt 0.54900625 0.956009375
vt 0.56406328125 0.9704640625
vt 0.530296875 1
vt 0.38800078125 0.914015625
vt 0.4129078125 0.956009375
vt 0.39785078125 0.9704640625
vt 0.36743203125 0.91930625
vt 0.44055703125 0.9802546875
vt 0.52135703125 0.9802546875
vt 0.530296875 1
vt 0.4316171875 1
vt 0.4129078125 0.956009375
vt 0.44055703125 0.9802546875
vt 0.4316171875 1
vt 0.39785078125 0.9704640625
vt 0.38800078125 0.865525
vt 0.38800078125 0.914015625
vt 0.36743203125 0.91930625
vt 0.36743125 0.860234375
vt 0.4129078125 0.82353125
vt 0.38800078125 0.865525
vt 0.36743125 0.860234375
vt 0.39785078125 0.8090765625
vt 0.45604921875 0.7992859375
vt 0.4129078125 0.82353125
vt 0.39785078125 0.8090765625
vt 0.45053828125 0.779540625
vt 0.50586484375 0.7992859375
vt 0.45604921875 0.7992859375
vt 0.45053828125 0.779540625
vt 0.51137578125 0.779540625
vt 0.39874921875 0.875
vt 0.44823671875 0.875
vt 0.44823671875 0.8828125
vt 0.39874921875 0.8828125
vt 0.097487890625 0.546875
vt 0.146312890625 0.546875
vt 0.146312890625 0.5546875
vt 0.097487890625 0.5546875
vt 0.048997265625 0.546875
vt 0.097487890625 0.546875
vt 0.097487890625 0.5546875
vt 0.048997265625 0.5546875
vt 0.000171484375 0.546875
vt 0.048997265625 0.546875
vt 0.048997265625 0.5546875
vt 0.000171484375 0.5546875
vt 0.21875 0.9921875
vt 0.2578125 0.9921875
vt 0.2578125 1
vt 0.21875 1
vt 0.097487109375 0.5234375
vt 0.146312890625 0.5234375
vt 0.146312890625 0.53125
vt 0.097487109375 0.53125
vt 0.2890625 0.828125
vt 0.3671875 0.828125
vt 0.3671875 0.8359375
vt 0.2890625 0.8359375
vt 0 0.7421875
vt 0.0390625 0.7421875
vt 0.0390625 0.75
vt 0 0.75
vt 0.048996484375 0.5234375
vt 0.097487109375 0.5234375
vt 0.097487109375 0.53125
vt 0.048996484375 0.53125
vt 0.000171484375 0.5234375
vt 0.048996484375 0.5234375
vt 0.048996484375 0.53125
vt 0.000171484375 0.53125
vt 0.49805234375 0.875
vt 0.54753984375 0.875
vt 0.54753984375 0.8828125
vt 0.49805234375 0.8828125
vt 0.44823671875 0.875
vt 0.49805234375 0.875
vt 0.49805234375 0.8828125
vt 0.44823671875 0.8828125
vn 0 -2.220446049250313e-16 1
vn 0.47873151230114824 0.8779613540070289 1.9494658198993629e-16
vn 0 2.220446049250313e-16 -1
vn 0 -2.220446049250313e-16 1
vn 0.8532051047997996 0.5215755450014532 1.1581303582840556e-16
vn 0 2.220446049250313e-16 -1
vn 0 -2.220446049250313e-16 1
vn 1 0 0
vn 0 2.220446049250313e-16 -1
vn 0 -2.220446049250313e-16 1
vn 0.8532051047997996 -0.5215755450014532 -1.1581303582840556e-16
vn 0 2.220446049250313e-16 -1
vn 0 -2.220446049250313e-16 1
vn 0.6480111595790327 -0.7616308404082897 -1.6911601905717825e-16
vn 0 2.220446049250313e-16 -1
vn 0 -2.220446049250313e-16 1
vn 0 -1 -2.220446049250313e-16
vn 0 2.220446049250313e-16 -1
vn 0 -2.220446049250313e-16 1
vn -0.6480111595790327 -0.7616308404082897 -1.6911601905717825e-16
vn 0 2.220446049250313e-16 -1
vn 0 -2.220446049250313e-16 1
vn -0.8532051047997996 -0.5215755450014532 -1.1581303582840556e-16
vn 0 2.220446049250313e-16 -1
vn 0 -2.220446049250313e-16 1
vn -1 0 0
vn 0 2.220446049250313e-16 -1
vn 0 -2.220446049250313e-16 1
vn -0.8532051047997996 0.5215755450014532 1.1581303582840556e-16
vn 0 2.220446049250313e-16 -1
vn 0 -2.220446049250313e-16 1
vn -0.47873151230114824 0.8779613540070289 1.9494658198993629e-16
vn 0 2.220446049250313e-16 -1
vn 0 -2.220446049250313e-16 1
vn 0 1 2.220446049250313e-16
vn 0 2.220446049250313e-16 -1
vn 0 2.220446049250313e-16 -1
vn 0 2.220446049250313e-16 -1
vn 0 2.220446049250313e-16 -1
vn 0 2.220446049250313e-16 -1
vn 0 2.220446049250313e-16 -1
vn 0 2.220446049250313e-16 -1
vn 0 2.220446049250313e-16 -1
vn 0 2.220446049250313e-16 -1
vn 0 2.220446049250313e-16 -1
vn 0 2.220446049250313e-16 -1
vn 0 2.220446049250313e-16 -1
vn 0 2.220446049250313e-16 -1
vn -0.4826628348335721 -0.875806250189173 -1.9446805281412805e-16
vn -0.8556593156306351 -0.5175395014629445 -1.1491685413543717e-16
vn -1 0 0
vn -0.8556593156306351 0.5175395014629445 1.1491685413543717e-16
vn -0.6520033173514895 0.7582161130988004 1.68357797280816e-16
vn 0.8556593156306351 0.5175395014629445 1.1491685413543717e-16
vn 0 1 2.220446049250313e-16
vn 0.6520033173514895 0.7582161130988004 1.68357797280816e-16
vn 1 0 0
vn 0.8556593156306351 -0.5175395014629445 -1.1491685413543717e-16
vn 0.4826628348335721 -0.875806250189173 -1.9446805281412805e-16
vn 0 -1 -2.220446049250313e-16
vn 0.3496431605264989 0.6285965609792052 -0.6947057102271129
vn 0.5888501334403555 0.35288350741681607 -0.727137367036299
vn 0.6643638388299198 1.6595820688440006e-16 -0.7474093186836598
vn 0.578689703368943 -0.3467946097553422 -0.738140722260603
vn 0.45021516937103456 -0.518735445312145 -0.7267873410049336
vn -0.5888501334403555 -0.3528835074168157 -0.7271373670362992
vn 0 -0.729537204140085 -0.68394112888133
vn -0.4569261080374073 -0.5264677519832568 -0.7169729687481138
vn -0.6643638388299198 1.6595820688440006e-16 -0.7474093186836598
vn -0.5786897033689431 0.3467946097553426 -0.7381407222606029
vn -0.3437037527072385 0.6179185562276805 -0.7071381677186294
vn 0 0.7295372041400853 -0.6839411288813297
vn 0.39610719022440144 0.7065902257995179 -0.5863696331300899
vn 0.6731538347394269 0.40026674543076435 -0.6218122283116249
vn 0.7642914835078908 1.4319011292447012e-16 -0.6448709392097829
vn 0.6641517387149055 -0.3949139724213298 -0.6347798219448798
vn 0.5155941302054962 -0.5894448724038245 -0.6218660911277258
vn -0.6731538347394268 -0.400266745430764 -0.621812228311625
vn 0 -0.8180272339260545 -0.5751794889904268
vn -0.5214860760984521 -0.5961807467895539 -0.6104267274562029
vn -0.7642914835078908 1.4319011292447012e-16 -0.6448709392097829
vn -0.6641517387149054 0.3949139724213301 -0.6347798219448798
vn -0.39100423495753966 0.697487391003174 -0.6005222957033773
vn 0 0.8180310828461266 -0.5751740149707684
vn 0 2.220446049250313e-16 -1
vn 0 2.220446049250313e-16 -1
vn 0 2.220446049250313e-16 -1
vn 0 2.220446049250313e-16 -1
vn 0 2.220446049250313e-16 -1
vn 0 2.220446049250313e-16 -1
vn 0 2.220446049250313e-16 -1
vn 0 2.220446049250313e-16 -1
vn 0 2.220446049250313e-16 -1
vn 0 2.220446049250313e-16 -1
vn 0 2.220446049250313e-16 -1
vn 0 2.220446049250313e-16 -1
vn -0.4899278152769803 -0.8717630043870439 -1.935702718973795e-16
vn -0.8600912811935839 -0.5101401650671897 -1.132738714087344e-16
vn -1 0 0
vn -0.8600912811935839 0.5101401650671898 1.1327387140873443e-16
vn -0.6593171763635843 0.7518649220118933 1.6694754956512031e-16
vn 0.8600912811935839 0.5101401650671898 1.1327387140873443e-16
vn 0 1 2.220446049250313e-16
vn 0.6593171763635843 0.7518649220118933 1.6694754956512031e-16
vn 1 0 0
vn 0.8600912811935839 -0.5101401650671897 -1.132738714087344e-16
vn 0.4899278152769803 -0.8717630043870439 -1.935702718973795e-16
vn 0 -1 -2.220446049250313e-16
usemtl m_34700f7c-3da5-b500-98a0-1b4c02ada1e6
f 4/1/1 2/2/1 1/3/1
f 2/4/2 4/5/2 5/6/2 3/7/2
f 86/8/3 87/9/3 88/10/3
f 6/11/4 4/12/4 1/13/4
f 4/14/5 6/15/5 7/16/5 5/17/5
f 87/18/6 89/19/6 88/20/6
f 8/21/7 6/22/7 1/23/7
f 6/24/8 8/25/8 9/26/8 7/27/8
f 89/28/9 90/29/9 88/30/9
f 10/31/10 8/32/10 1/33/10
f 8/34/11 10/35/11 11/36/11 9/37/11
f 90/38/12 91/39/12 88/40/12
f 12/41/13 10/42/13 1/43/13
f 10/44/14 12/45/14 13/46/14 11/47/14
f 91/48/15 92/49/15 88/50/15
f 14/51/16 12/52/16 1/53/16
f 12/54/17 14/55/17 15/56/17 13/57/17
f 92/58/18 95/59/18 88/60/18
f 16/61/19 14/62/19 1/63/19
f 14/64/20 16/65/20 17/66/20 15/67/20
f 95/68/21 93/69/21 88/70/21
f 18/71/22 16/72/22 1/73/22
f 16/74/23 18/75/23 19/76/23 17/77/23
f 93/78/24 94/79/24 88/80/24
f 20/81/25 18/82/25 1/83/25
f 18/84/26 20/85/26 21/86/26 19/87/26
f 94/88/27 96/89/27 88/90/27
f 22/91/28 20/92/28 1/93/28
f 20/94/29 22/95/29 23/96/29 21/97/29
f 96/98/30 97/99/30 88/100/30
f 24/101/31 22/102/31 1/103/31
f 22/104/32 24/105/32 25/106/32 23/107/32
f 97/108/33 98/109/33 88/110/33
f 2/111/34 24/112/34 1/113/34
f 24/114/35 2/115/35 3/116/35 25/117/35
f 98/118/36 86/119/36 88/120/36
f 27/121/37 26/122/37 3/123/37 5/124/37
f 28/125/38 27/126/38 5/127/38 7/128/38
f 29/129/39 28/130/39 7/131/39 9/132/39
f 30/133/40 29/134/40 9/135/40 11/136/40
f 31/137/41 30/138/41 11/139/41 13/140/41
f 33/141/42 32/142/42 17/143/42 19/144/42
f 34/145/43 31/146/43 13/147/43 15/148/43
f 32/149/44 34/150/44 15/151/44 17/152/44
f 35/153/45 33/154/45 19/155/45 21/156/45
f 36/157/46 35/158/46 21/159/46 23/160/46
f 37/161/47 36/162/47 23/163/47 25/164/47
f 26/165/48 37/166/48 25/167/48 3/168/48
f 39/169/49 38/170/49 26/171/49 27/172/49
f 40/173/50 39/174/50 27/175/50 28/176/50
f 41/177/51 40/178/51 28/179/51 29/180/51
f 42/181/52 41/182/52 29/183/52 30/184/52
f 43/185/53 42/186/53 30/187/53 31/188/53
f 45/189/54 44/190/54 32/191/54 33/192/54
f 46/193/55 43/194/55 31/195/55 34/196/55
f 44/197/56 46/198/56 34/199/56 32/200/56
f 47/201/57 45/202/57 33/203/57 35/204/57
f 48/205/58 47/206/58 35/207/58 36/208/58
f 49/209/59 48/210/59 36/211/59 37/212/59
f 38/213/60 49/214/60 37/215/60 26/216/60
f 51/217/61 50/218/61 38/219/61 39/220/61
f 52/221/62 51/222/62 39/223/62 40/224/62
f 53/225/63 52/226/63 40/227/63 41/228/63
f 54/229/64 53/230/64 41/231/64 42/232/64
f 55/233/65 54/234/65 42/235/65 43/236/65
f 57/237/66 56/238/66 44/239/66 45/240/66
f 58/241/67 55/242/67 43/243/67 46/244/67
f 56/245/68 58/246/68 46/247/68 44/248/68
f 59/249/69 57/250/69 45/251/69 47/252/69
f 60/253/70 59/254/70 47/255/70 48/256/70
f 61/257/71 60/258/71 48/259/71 49/260/71
f 50/261/72 61/262/72 49/263/72 38/264/72
f 63/265/73 62/266/73 50/267/73 51/268/73
f 64/269/74 63/270/74 51/271/74 52/272/74
f 65/273/75 64/274/75 52/275/75 53/276/75
f 66/277/76 65/278/76 53/279/76 54/280/76
f 67/281/77 66/282/77 54/283/77 55/284/77
f 69/285/78 68/286/78 56/287/78 57/288/78
f 70/289/79 67/290/79 55/291/79 58/292/79
f 68/293/80 70/294/80 58/295/80 56/296/80
f 71/297/81 69/298/81 57/299/81 59/300/81
f 72/301/82 71/302/82 59/303/82 60/304/82
f 73/305/83 72/306/83 60/307/83 61/308/83
f 62/309/84 73/310/84 61/311/84 50/312/84
f 75/313/85 74/314/85 62/315/85 63/316/85
f 76/317/86 75/318/86 63/319/86 64/320/86
f 77/321/87 76/322/87 64/323/87 65/324/87
f 78/325/88 77/326/88 65/327/88 66/328/88
f 79/329/89 78/330/89 66/331/89 67/332/89
f 81/333/90 80/334/90 68/335/90 69/336/90
f 82/337/91 79/338/91 67/339/91 70/340/91
f 80/341/92 82/342/92 70/343/92 68/344/92
f 83/345/93 81/346/93 69/347/93 71/348/93
f 84/349/94 83/350/94 71/351/94 72/352/94
f 85/353/95 84/354/95 72/355/95 73/356/95
f 74/357/96 85/358/96 73/359/96 62/360/96
f 87/361/97 86/362/97 74/363/97 75/364/97
f 89/365/98 87/366/98 75/367/98 76/368/98
f 90/369/99 89/370/99 76/371/99 77/372/99
f 91/373/100 90/374/100 77/375/100 78/376/100
f 92/377/101 91/378/101 78/379/101 79/380/101
f 94/381/102 93/382/102 80/383/102 81/384/102
f 95/385/103 92/386/103 79/387/103 82/388/103
f 93/389/104 95/390/104 82/391/104 80/392/104
f 96/393/105 94/394/105 81/395/105 83/396/105
f 97/397/106 96/398/106 83/399/106 84/400/106
f 98/401/107 97/402/107 84/403/107 85/404/107
f 86/405/108 98/406/108 85/407/108 74/408/108
o ShipWall
v -0.5 2.314815 0.333333125
v -0.5 2.5 -0.5
v -0.5 2.314815 -0.5
v -1.5 2.314815 0.333333125
v -1.5 2.5 -0.5
v -1.5 2.129629375 0.333333125
v -1.5 2.314815 -0.5
v -0.5 2.314815 0
v -1.5 2.314815 0
v -1.5 2.5 0
v -0.5 2.5 0
v -0.5 0.1851849999999997 -0.5
v -0.5 0 -0.5
v -1.5 0.1851849999999997 -0.5
v -1.5 0 -0.5
v -1.5 0.1851849999999997 0.1875
v -1.5 0 0.1875
v -0.5 0 0.1875
v -0.5 2.314815 0.5
v -0.5 2.314815 0.333333125
v -1.5 2.314815 0.5
v -1.5 2.314815 0.333333125
v -1.5 0.1851849999999997 0.333333125
v 0.5 2.314815 0.333333125
v 0.5 2.5 -0.5
v 0.5 2.314815 -0.5
v 0.5 2.314815 0
v 0.5 2.5 0
v 0.5 0.1851849999999997 -0.5
v 0.5 0 -0.5
v 0.5 0.1851849999999997 0.1875
v 0.5 0 0.1875
v 0.5 2.314815 0.5
v 0.5 2.314815 0.333333125
v -0.5 2.314815 0.333333125
v -0.5 2.5 -0.5
v -0.5 2.314815 -0.5
v -0.5 2.314815 0
v -0.5 2.5 0
v -0.5 0.1851849999999997 -0.5
v -0.5 0 -0.5
v -0.5 0.1851849999999997 0.1875
v -0.5 0 0.1875
v -0.5 2.314815 0.5
v -0.5 2.314815 0.333333125
v 1.5 2.314815 0.333333125
v 1.5 2.5 -0.5
v 1.5 2.129629375 0.333333125
v 1.5 2.314815 -0.5
v 0.5 2.314815 0.333333125
v 0.5 2.5 -0.5
v 0.5204949999999999 2.129629375 0.333333125
v 0.5 2.314815 -0.5
v 1.5 2.314815 0
v 0.5 2.314815 0
v 0.5 2.5 0
v 1.5 2.5 0
v 1.5 0.32407437500000036 0.333333125
v 1.5 0.1851849999999997 -0.5
v 1.5 0 0.333333125
v 1.5 0 -0.5
v 0.5 0.1851849999999997 -0.5
v 0.5 0 -0.5
v 1.5 0.1851849999999997 0.1875
v 0.5 0.1851849999999997 0.1875
v 0.5 0 0.1875
v 1.5 0 0.1875
v 1.5 2.314815 0.5
v 1.5 2.314815 0.333333125
v 0.5 2.314815 0.5
v 0.5 2.314815 0.333333125
v -0.5 2.129629375 0.333333125
v -1.5 0 0.333333125
v 1.5 0 0.5
v -1.5 0 0.5
v -1.5 0.32638874999999956 0.333333125
vt 0.283203125 0.771484375
vt 0.376953125 0.771484375
vt 0.376953125 0.736545703125
vt 0.283203125 0.736545703125
vt 0.322265625 0.537109375
vt 0.322265625 0.552734375
vt 0.416015625 0.552734375
vt 0.416015625 0.537109375
vt 0.376953125 0.91796875
vt 0.376953125 0.96484375
vt 0.283203125 0.96484375
vt 0.283203125 0.91796875
vt 0.427734375 0.962890625
vt 0.427734375 0.947265625
vt 0.380859375 0.947265625
vt 0.380859375 0.962890625
vt 0.376953125 0.771484375
vt 0.283203125 0.771484375
vt 0.283203125 0.818359375
vt 0.376953125 0.818359375
vt 0.2265625 0.5662109375
vt 0.2265625 0.5505859375
vt 0.162109375 0.5505859375
vt 0.162109375 0.5662109375
vt 0.41796875 0.537109375
vt 0.41796875 0.552734375
vt 0.51171875 0.552734375
vt 0.51171875 0.537109375
vt 0.224609375 0.546875
vt 0.224609375 0.53125
vt 0.130859375 0.53125
vt 0.130859375 0.546875
vt 0.47265625 0.75390625
vt 0.47265625 0.818359375
vt 0.37890625 0.818359375
vt 0.37890625 0.75390625
vt 0.283203125 0.6875
vt 0.376953125 0.6875
vt 0.376953125 0.652561328125
vt 0.283203125 0.652561328125
vt 0.2265625 0.53125
vt 0.2265625 0.546875
vt 0.3203125 0.546875
vt 0.3203125 0.53125
vt 0.09375 0.5390625
vt 0.09375 0.5859375
vt 0 0.5859375
vt 0 0.5390625
vt 0.376953125 0.6875
vt 0.283203125 0.6875
vt 0.283203125 0.734375
vt 0.376953125 0.734375
vt 0.376953125 0.916015625
vt 0.376953125 0.8515625
vt 0.470703125 0.8515625
vt 0.470703125 0.916015625
vt 0.47265625 0.6875
vt 0.47265625 0.751953125
vt 0.37890625 0.751953125
vt 0.37890625 0.6875
vt 0 0.521484375
vt 0 0.537109375
vt 0.09375 0.537109375
vt 0.09375 0.521484375
vt 0.416015625 0.53515625
vt 0.416015625 0.51953125
vt 0.322265625 0.51953125
vt 0.322265625 0.53515625
vt 0.162109375 0.5859375
vt 0.162109375 0.5703125
vt 0.130859375 0.5546875
vt 0.130859375 0.5703125
vt 0.283203125 0.603515625
vt 0.376953125 0.603515625
vt 0.376953125 0.568576953125
vt 0.283203125 0.568576953125
vt 0.41796875 0.51953125
vt 0.41796875 0.53515625
vt 0.51171875 0.53515625
vt 0.51171875 0.51953125
vt 0.564453125 0.91796875
vt 0.564453125 0.96484375
vt 0.470703125 0.96484375
vt 0.470703125 0.91796875
vt 0.376953125 0.603515625
vt 0.283203125 0.603515625
vt 0.283203125 0.650390625
vt 0.376953125 0.650390625
vt 0.162109375 0.5703125
vt 0.162109375 0.5859375
vt 0.208984375 0.5859375
vt 0.208984375 0.5703125
vt 0.255859375 0.55078125
vt 0.255859375 0.56640625
vt 0.3203125 0.56640625
vt 0.3203125 0.55078125
vt 0.37890625 0.685546875
vt 0.37890625 0.62109375
vt 0.47265625 0.62109375
vt 0.47265625 0.685546875
vt 0.47265625 0.5546875
vt 0.47265625 0.619140625
vt 0.37890625 0.619140625
vt 0.37890625 0.5546875
vt 0.130859375 0.513671875
vt 0.130859375 0.529296875
vt 0.224609375 0.529296875
vt 0.224609375 0.513671875
vt 0.255859375 0.56640625
vt 0.255859375 0.55078125
vt 0.2421875 0.55078125
vt 0.2421875 0.578125
vt 0.3203125 0.529296875
vt 0.3203125 0.513671875
vt 0.2265625 0.513671875
vt 0.2265625 0.529296875
vt 0.427734375 0.947265625
vt 0.427734375 0.962890625
vt 0.458984375 0.947265625
vt 0.458984375 0.931640625
vt 0.564453125 0.96484375
vt 0.564453125 0.9997822265625
vt 0.472624609375 0.9997822265625
vt 0.470703125 0.96484375
vt 0.283203125 0.96484375
vt 0.376953125 0.96484375
vt 0.376953125 0.9997822265625
vt 0.283203125 0.9997822265625
vt 0.376953125 0.96484375
vt 0.470703125 0.96484375
vt 0.472624609375 0.9997822265625
vt 0.376953125 0.9997822265625
vt 0.2265625 0.5662109375
vt 0.240234375 0.5662109375
vt 0.240234375 0.5505859375
vt 0.2265625 0.5505859375
vt 0.283203125 0.8203125
vt 0.564453125 0.8203125
vt 0.564453125 0.833984375
vt 0.283203125 0.833984375
vt 0.564453125 0.833984375
vt 0.564453125 0.849609375
vt 0.283203125 0.849609375
vt 0.283203125 0.833984375
vt 0.111328125 0.390625
vt 0.095703125 0.390625
vt 0.095703125 0.5859375
vt 0.111328125 0.5859375
vt 0.12890625 0.390625
vt 0.11328125 0.390625
vt 0.11328125 0.5859375
vt 0.12890625 0.5859375
vt 0.2265625 0.5662109375
vt 0.240234375 0.578125
vt 0.240234375 0.5662109375
vt 0.283203125 0.8515625
vt 0.376953125 0.8515625
vt 0.376953125 0.916015625
vt 0.283203125 0.916015625
vt 0.28125 1
vt 0.28125 0.8046875
vt 0 0.8046875
vt 0 1
vt 0 0.802734375
vt 0.28125 0.802734375
vt 0.28125 0.607421875
vt 0 0.607421875
vt 0 0.587890625
vt 0.28125 0.587890625
vt 0.28125 0.60546875
vt 0 0.6053404296875
vn 0 -0.8741573534350201 -0.48564279201433797
vn 0 0 1
vn 0 -1 0
vn 1 0 0
vn 0 -1 0
vn 1 0 0
vn 0 0 1
vn 0 -1 0
vn 0 -1 0
vn 0 -0.8741573534350201 -0.48564279201433797
vn 0 0 1
vn 0 -1 0
vn 0 -1 0
vn 0 1 0
vn 0 -1 0
vn 0 0 1
vn 0 -1 0
vn -1 0 0
vn 0 -0.8741573534350201 -0.48564279201433797
vn 0 0 1
vn 0 -1 0
vn 0 -1 0
vn -1 0 0
vn -1 0 0
vn 0 1 0
vn 0 -1 0
vn 0 0 1
vn -1 0 0
vn 0 -1 0
vn 1 0 0
vn 0 -0.8741566576133732 -0.48564404449165816
vn 0 -0.8741566576133732 -0.48564404449165816
vn 0 -0.8741566576133732 -0.48564404449165816
vn 1 0 0
vn 0 -1 0
vn 0 -1 0
vn 1 0 0
vn -1 0 0
vn 1 0 0
vn 0 1 0
vn 0 0 -1
vn 0 0 -1
vn 0 0.7184176780563994 -0.6956119894424274
usemtl m_3d17a490-e9af-3f72-dfba-18fa23d5113f
f 108/409/109 109/410/109 99/411/109 102/412/109
f 101/413/110 100/414/110 103/415/110 105/416/110
f 101/417/111 106/418/111 107/419/111 105/420/111
f 108/421/112 107/422/112 105/423/112 103/424/112
f 109/425/113 108/426/113 103/427/113 100/428/113
f 114/429/114 115/430/114 113/431/114 112/432/114
f 111/433/115 110/434/115 112/435/115 113/436/115
f 118/437/116 117/438/116 119/439/116 120/440/116
f 111/441/117 116/442/117 115/443/117 113/444/117
f 137/445/118 126/446/118 122/447/118 133/448/118
f 124/449/119 123/450/119 134/451/119 135/452/119
f 124/453/120 125/454/120 136/455/120 135/456/120
f 126/457/121 137/458/121 134/459/121 123/460/121
f 138/461/122 140/462/122 129/463/122 127/464/122
f 128/465/123 130/466/123 141/467/123 139/468/123
f 128/469/124 127/470/124 138/471/124 139/472/124
f 132/473/125 131/474/125 142/475/125 143/476/125
f 155/477/126 152/478/126 146/479/126 144/480/126
f 154/481/127 155/482/127 144/483/127 148/484/127
f 147/485/128 145/486/128 149/487/128 151/488/128
f 147/489/129 152/490/129 153/491/129 151/492/129
f 155/493/130 154/494/130 149/495/130 145/496/130
f 152/497/131 155/498/131 145/499/131 147/500/131
f 165/501/132 162/502/132 157/503/132 159/504/132
f 160/505/133 163/506/133 162/507/133 157/508/133
f 159/509/134 165/510/134 164/511/134 161/512/134
f 159/513/135 157/514/135 160/515/135 161/516/135
f 162/517/136 165/518/136 158/519/136 156/520/136
f 167/521/137 166/522/137 168/523/137 169/524/137
f 107/525/138 108/526/138 102/527/138 104/528/138
f 152/529/139 146/530/139 150/531/139 153/532/139
f 107/533/140 106/534/140 170/535/140 104/536/140
f 106/537/141 153/538/141 150/539/141 170/540/141
f 114/541/142 121/542/142 171/543/142 115/544/142
f 115/545/143 165/546/143 158/547/143 171/548/143
f 158/549/144 172/550/144 173/551/144 171/552/144
f 173/553/145 171/554/145 120/555/145 119/556/145
f 158/557/146 172/558/146 166/559/146 167/560/146
f 114/561/147 174/562/147 121/563/147
f 114/564/148 140/565/148 138/566/148 112/567/148
f 166/568/149 172/569/149 173/570/149 119/571/149
f 120/572/150 167/573/150 158/574/150 171/575/150
f 162/576/151 114/577/151 174/578/151 156/579/151
o Pipe
v 1.375 0 0.0625
v 1.375 0.5 0.0625
v 1.400888125 0 0.125
v 1.400888125 0.5 0.125
v 1.4375 0 0.088388125
v 1.4375 0.5 0.088388125
v 1.4375 0 0.036611875
v 1.4375 0.5 0.036611875
v 1.400888125 0 0
v 1.400888125 0.5 0
v 1.349111875 0 0
v 1.349111875 0.5 0
v 1.3125 0 0.036611875
v 1.3125 0.5 0.036611875
v 1.3125 0 0.088388125
v 1.3125 0.5 0.088388125
v 1.349111875 0 0.125
v 1.349111875 0.5 0.125
v 1.375 0.625 0.6875
v 1.375 0.625 0.1875
v 1.400888125 0.6875 0.6875
v 1.400888125 0.6875 0.1875
v 1.4375 0.650888125 0.6875
v 1.4375 0.650888125 0.1875
v 1.4375 0.599111875 0.6875
v 1.4375 0.599111875 0.1875
v 1.400888125 0.5625 0.6875
v 1.400888125 0.5625 0.1875
v 1.349111875 0.5625 0.6875
v 1.349111875 0.5625 0.1875
v 1.3125 0.599111875 0.6875
v 1.3125 0.599111875 0.1875
v 1.3125 0.650888125 0.6875
v 1.3125 0.650888125 0.1875
v 1.349111875 0.6875 0.6875
v 1.349111875 0.6875 0.1875
v 1.349111875 0.6375 0.05
v 1.400888125 0.6375 0.05
v 1.4375 0.611871875 0.075628125
v 1.4375 0.575628125 0.11187187500000001
v 1.400888125 0.55 0.1375
v 1.349111875 0.55 0.1375
v 1.3125 0.575628125 0.11187187500000001
v 1.3125 0.611871875 0.075628125
vt 0.53125 0.98169375
vt 0.51294375 1
vt 0.5 0.96875
vt 0.0625 0.46875
vt 0.09375 0.46875
vt 0.09375 0.71875
vt 0.0625 0.71875
vt 0.54419375 0.5
vt 0.5625 0.51830625
vt 0.53125 0.53125
vt 0.53125 0.95580625
vt 0.53125 0.98169375
vt 0.5 0.96875
vt 0 0.75
vt 0.03125 0.75
vt 0.03125 1
vt 0 1
vt 0.5625 0.51830625
vt 0.5625 0.54419375
vt 0.53125 0.53125
vt 0.51294375 0.9375
vt 0.53125 0.95580625
vt 0.5 0.96875
vt 0.3125 0.5
vt 0.34375 0.5
vt 0.34375 0.75
vt 0.3125 0.75
vt 0.5625 0.54419375
vt 0.54419375 0.5625
vt 0.53125 0.53125
vt 0.48705625 0.9375
vt 0.51294375 0.9375
vt 0.5 0.96875
vt 0.0625 0.75
vt 0.09375 0.75
vt 0.09375 1
vt 0.0625 1
vt 0.54419375 0.5625
vt 0.51830625 0.5625
vt 0.53125 0.53125
vt 0.46875 0.95580625
vt 0.48705625 0.9375
vt 0.5 0.96875
vt 0.125 0.40625
vt 0.15625 0.40625
vt 0.15625 0.65625
vt 0.125 0.65625
vt 0.51830625 0.5625
vt 0.5 0.54419375
vt 0.53125 0.53125
vt 0.46875 0.98169375
vt 0.46875 0.95580625
vt 0.5 0.96875
vt 0.25 0.625
vt 0.28125 0.625
vt 0.28125 0.875
vt 0.25 0.875
vt 0.5 0.54419375
vt 0.5 0.51830625
vt 0.53125 0.53125
vt 0.48705625 1
vt 0.46875 0.98169375
vt 0.5 0.96875
vt 0 0.46875
vt 0.03125 0.46875
vt 0.03125 0.71875
vt 0 0.71875
vt 0.5 0.51830625
vt 0.51830625 0.5
vt 0.53125 0.53125
vt 0.51294375 1
vt 0.48705625 1
vt 0.5 0.96875
vt 0.1875 0.625
vt 0.21875 0.625
vt 0.21875 0.875
vt 0.1875 0.875
vt 0.51830625 0.5
vt 0.54419375 0.5
vt 0.53125 0.53125
vt 0.25 0.45044375000000003
vt 0.23169375 0.46875
vt 0.21875 0.4375
vt 0.3125 0.8125
vt 0.3125 0.78125
vt 0.5625 0.78125
vt 0.5625 0.8125
vt 0.29955625 0.46875
vt 0.28125 0.45044375000000003
vt 0.3125 0.4375
vt 0.25 0.42455624999999997
vt 0.25 0.45044375000000003
vt 0.21875 0.4375
vt 0.125 1
vt 0.125 0.96875
vt 0.375 0.96875
vt 0.375 1
vt 0.28125 0.45044375000000003
vt 0.28125 0.42455624999999997
vt 0.3125 0.4375
vt 0.23169375 0.40625
vt 0.25 0.42455624999999997
vt 0.21875 0.4375
vt 0.375 0.75
vt 0.375 0.71875
vt 0.625 0.71875
vt 0.625 0.75
vt 0.28125 0.42455624999999997
vt 0.29955625 0.40625
vt 0.3125 0.4375
vt 0.20580625 0.40625
vt 0.23169375 0.40625
vt 0.21875 0.4375
vt 0.15625 0.9375
vt 0.125 0.9375
vt 0.125 0.6875
vt 0.15625 0.6875
vt 0.29955625 0.40625
vt 0.32544375 0.40625
vt 0.3125 0.4375
vt 0.1875 0.42455624999999997
vt 0.20580625 0.40625
vt 0.21875 0.4375
vt 0.625 0.65625
vt 0.625 0.6875
vt 0.375 0.6875
vt 0.375 0.65625
vt 0.32544375 0.40625
vt 0.34375 0.42455624999999997
vt 0.3125 0.4375
vt 0.1875 0.45044375000000003
vt 0.1875 0.42455624999999997
vt 0.21875 0.4375
vt 0.4375 0.90625
vt 0.4375 0.9375
vt 0.1875 0.9375
vt 0.1875 0.90625
vt 0.34375 0.42455624999999997
vt 0.34375 0.45044375000000003
vt 0.3125 0.4375
vt 0.20580625 0.46875
vt 0.1875 0.45044375000000003
vt 0.21875 0.4375
vt 0.625 0.59375
vt 0.625 0.625
vt 0.375 0.625
vt 0.375 0.59375
vt 0.34375 0.45044375000000003
vt 0.32544375 0.46875
vt 0.3125 0.4375
vt 0.23169375 0.46875
vt 0.20580625 0.46875
vt 0.21875 0.4375
vt 0.5625 0.84375
vt 0.5625 0.875
vt 0.3125 0.875
vt 0.3125 0.84375
vt 0.32544375 0.46875
vt 0.29955625 0.46875
vt 0.3125 0.4375
vt 0.188840625 0.5678624999999999
vt 0.22665625 0.556121875
vt 0.244775 0.5742406250000001
vt 0.188840625 0.59375
vt 0.59375 0.8349815625
vt 0.5946865625 0.80922625
vt 0.625 0.80078125
vt 0.625 0.8403409374999999
vt 0.59375 0.40625
vt 0.59375 0.375
vt 0.625 0.375
vt 0.625 0.40625
vt 0.6333446875 0.5604456250000001
vt 0.59375 0.5604456250000001
vt 0.6021878125 0.5361065625
vt 0.6279178125 0.53515625
vt 0.451784375 0.5625
vt 0.39585 0.5429906250000001
vt 0.41396875 0.524871875
vt 0.451784375 0.5366124999999999
vt 0.0625 0.43147187499999995
vt 0.0625 0.37223031250000005
vt 0.0870253125 0.3643521875
vt 0.0876684375 0.4375
vt 0.5625 1
vt 0.5625 0.9375
vt 0.59375 0.9375
vt 0.59375 1
vt 0.66796875 0.90625
vt 0.5948171875 0.90625
vt 0.6024790625 0.8816565625
vt 0.6617153125 0.881135625
vt 0.03125 0.375
vt 0.03125 0.4375
vt 0 0.4375
vt 0 0.375
vt 0.46875 0.39559656249999997
vt 0.46875 0.46875
vt 0.43802375 0.4610871875
vt 0.4375 0.4018534375
vt 0.264284375 0.51830625
vt 0.244775 0.5742406250000001
vt 0.22665625 0.556121875
vt 0.238396875 0.51830625
vt 0.40625 0.39453125
vt 0.40625 0.43412562499999996
vt 0.3759521875 0.4256896875
vt 0.375 0.39996156250000003
vt 0.4375 0.96875
vt 0.4375 1
vt 0.40625 1
vt 0.40625 0.96875
vt 0.505358125 0.37890625
vt 0.5311125 0.3798421875
vt 0.5395565625 0.40417749999999997
vt 0.5 0.40417749999999997
vt 0.402228125 0.48705624999999997
vt 0.41396875 0.524871875
vt 0.39585 0.5429906250000001
vt 0.376340625 0.48705624999999997
vt 0.5070996875 0.4375
vt 0.5663390625 0.4375
vt 0.57421875 0.4681053125
vt 0.5010703125 0.46875
vn 0 -1 0
vn 0.7071067811865476 0 0.7071067811865476
vn 0 1 0
vn 0 -1 0
vn 1 0 0
vn 0 1 0
vn 0 -1 0
vn 0.7071067811865476 0 -0.7071067811865476
vn 0 1 0
vn 0 -1 0
vn 0 0 -1
vn 0 1 0
vn 0 -1 0
vn -0.7071067811865476 0 -0.7071067811865476
vn 0 1 0
vn 0 -1 0
vn -1 0 0
vn 0 1 0
vn 0 -1 0
vn -0.7071067811865476 0 0.7071067811865476
vn 0 1 0
vn 0 -1 0
vn 0 0 1
vn 0 1 0
vn 0 0 1
vn 0.7071067811865471 0.7071067811865479 0
vn 0 0 -1
vn 0 0 1
vn 1 0 0
vn 0 0 -1
vn 0 0 1
vn 0.7071067811865471 -0.7071067811865479 0
vn 0 0 -1
vn 0 0 1
vn 0 -1 0
vn 0 0 -1
vn 0 0 1
vn -0.7071067811865471 -0.7071067811865479 0
vn 0 0 -1
vn 0 0 1
vn -1 0 0
vn 0 0 -1
vn 0 0 1
vn -0.7071067811865471 0.7071067811865479 0
vn 0 0 -1
vn 0 0 1
vn 0 1 0
vn 0 0 -1
vn 1 0 0
vn 0.6471474771639601 -0.7396025277851512 0.18490063194628714
vn 0 -0.9701425001453321 0.2425356250363321
vn -0.6589688100007076 -0.7183360095020979 0.22305489212042254
vn -1 0 0
vn 0.6654368735730481 0.704819409215752 -0.24581165082657414
vn 0 0.939793423488437 -0.34174306308670466
vn -0.6677584437829326 0.6995615829971374 -0.2543860301807775
vn 0 0.3417430630867045 -0.9397934234884371
vn 0.6677584437829325 0.2543860301807773 -0.6995615829971374
vn 1 0 0
vn 0.6589688100007077 -0.22305489212042318 0.7183360095020976
vn 0 -0.24253562503633275 0.9701425001453321
vn -0.6471474771639603 -0.18490063194628756 0.739602527785151
vn -1 0 0
vn -0.665436873573048 0.24581165082657375 -0.7048194092157523
usemtl m_d2817f9a-42b7-43eb-8ecc-2ec768160199
f 179/580/152 177/581/152 175/582/152
f 177/583/153 179/584/153 180/585/153 178/586/153
f 178/587/154 180/588/154 176/589/154
f 181/590/155 179/591/155 175/592/155
f 179/593/156 181/594/156 182/595/156 180/596/156
f 180/597/157 182/598/157 176/599/157
f 183/600/158 181/601/158 175/602/158
f 181/603/159 183/604/159 184/605/159 182/606/159
f 182/607/160 184/608/160 176/609/160
f 185/610/161 183/611/161 175/612/161
f 183/613/162 185/614/162 186/615/162 184/616/162
f 184/617/163 186/618/163 176/619/163
f 187/620/164 185/621/164 175/622/164
f 185/623/165 187/624/165 188/625/165 186/626/165
f 186/627/166 188/628/166 176/629/166
f 189/630/167 187/631/167 175/632/167
f 187/633/168 189/634/168 190/635/168 188/636/168
f 188/637/169 190/638/169 176/639/169
f 191/640/170 189/641/170 175/642/170
f 189/643/171 191/644/171 192/645/171 190/646/171
f 190/647/172 192/648/172 176/649/172
f 177/650/173 191/651/173 175/652/173
f 191/653/174 177/654/174 178/655/174 192/656/174
f 192/657/175 178/658/175 176/659/175
f 197/660/176 195/661/176 193/662/176
f 195/663/177 197/664/177 198/665/177 196/666/177
f 196/667/178 198/668/178 194/669/178
f 199/670/179 197/671/179 193/672/179
f 197/673/180 199/674/180 200/675/180 198/676/180
f 198/677/181 200/678/181 194/679/181
f 201/680/182 199/681/182 193/682/182
f 199/683/183 201/684/183 202/685/183 200/686/183
f 200/687/184 202/688/184 194/689/184
f 203/690/185 201/691/185 193/692/185
f 201/693/186 203/694/186 204/695/186 202/696/186
f 202/697/187 204/698/187 194/699/187
f 205/700/188 203/701/188 193/702/188
f 203/703/189 205/704/189 206/705/189 204/706/189
f 204/707/190 206/708/190 194/709/190
f 207/710/191 205/711/191 193/712/191
f 205/713/192 207/714/192 208/715/192 206/716/192
f 206/717/193 208/718/193 194/719/193
f 209/720/194 207/721/194 193/722/194
f 207/723/195 209/724/195 210/725/195 208/726/195
f 208/727/196 210/728/196 194/729/196
f 195/730/197 209/731/197 193/732/197
f 209/733/198 195/734/198 196/735/198 210/736/198
f 210/737/199 196/738/199 194/739/199
f 200/740/200 214/741/200 213/742/200 198/743/200
f 202/744/201 215/745/201 214/746/201 200/747/201
f 204/748/202 216/749/202 215/750/202 202/751/202
f 206/752/203 217/753/203 216/754/203 204/755/203
f 208/756/204 218/757/204 217/758/204 206/759/204
f 198/760/205 213/761/205 212/762/205 196/763/205
f 196/764/206 212/765/206 211/766/206 210/767/206
f 210/768/207 211/769/207 218/770/207 208/771/207
f 186/772/208 211/773/208 212/774/208 184/775/208
f 184/776/209 212/777/209 213/778/209 182/779/209
f 182/780/210 213/781/210 214/782/210 180/783/210
f 180/784/211 214/785/211 215/786/211 178/787/211
f 178/788/212 215/789/212 216/790/212 192/791/212
f 192/792/213 216/793/213 217/794/213 190/795/213
f 190/796/214 217/797/214 218/798/214 188/799/214
f 188/800/215 218/801/215 211/802/215 186/803/215
o Pipe
v 1.1875 0 0.0625
v 1.1875 0.5 0.0625
v 1.213388125 0 0.125
v 1.213388125 0.5 0.125
v 1.25 0 0.088388125
v 1.25 0.5 0.088388125
v 1.25 0 0.036611875
v 1.25 0.5 0.036611875
v 1.213388125 0 0
v 1.213388125 0.5 0
v 1.161611875 0 0
v 1.161611875 0.5 0
v 1.125 0 0.036611875
v 1.125 0.5 0.036611875
v 1.125 0 0.088388125
v 1.125 0.5 0.088388125
v 1.161611875 0 0.125
v 1.161611875 0.5 0.125
v 1.1875 0.625 0.6875
v 1.1875 0.625 0.1875
v 1.213388125 0.6875 0.6875
v 1.213388125 0.6875 0.1875
v 1.25 0.650888125 0.6875
v 1.25 0.650888125 0.1875
v 1.25 0.599111875 0.6875
v 1.25 0.599111875 0.1875
v 1.213388125 0.5625 0.6875
v 1.213388125 0.5625 0.1875
v 1.161611875 0.5625 0.6875
v 1.161611875 0.5625 0.1875
v 1.125 0.599111875 0.6875
v 1.125 0.599111875 0.1875
v 1.125 0.650888125 0.6875
v 1.125 0.650888125 0.1875
v 1.161611875 0.6875 0.6875
v 1.161611875 0.6875 0.1875
v 1.161611875 0.6375 0.05
v 1.213388125 0.6375 0.05
v 1.25 0.611871875 0.075628125
v 1.25 0.575628125 0.11187187500000001
v 1.213388125 0.55 0.1375
v 1.161611875 0.55 0.1375
v 1.125 0.575628125 0.11187187500000001
v 1.125 0.611871875 0.075628125
vt 0.53125 0.98169375
vt 0.51294375 1
vt 0.5 0.96875
vt 0.0625 0.46875
vt 0.09375 0.46875
vt 0.09375 0.71875
vt 0.0625 0.71875
vt 0.54419375 0.5
vt 0.5625 0.51830625
vt 0.53125 0.53125
vt 0.53125 0.95580625
vt 0.53125 0.98169375
vt 0.5 0.96875
vt 0 0.75
vt 0.03125 0.75
vt 0.03125 1
vt 0 1
vt 0.5625 0.51830625
vt 0.5625 0.54419375
vt 0.53125 0.53125
vt 0.51294375 0.9375
vt 0.53125 0.95580625
vt 0.5 0.96875
vt 0.3125 0.5
vt 0.34375 0.5
vt 0.34375 0.75
vt 0.3125 0.75
vt 0.5625 0.54419375
vt 0.54419375 0.5625
vt 0.53125 0.53125
vt 0.48705625 0.9375
vt 0.51294375 0.9375
vt 0.5 0.96875
vt 0.0625 0.75
vt 0.09375 0.75
vt 0.09375 1
vt 0.0625 1
vt 0.54419375 0.5625
vt 0.51830625 0.5625
vt 0.53125 0.53125
vt 0.46875 0.95580625
vt 0.48705625 0.9375
vt 0.5 0.96875
vt 0.125 0.40625
vt 0.15625 0.40625
vt 0.15625 0.65625
vt 0.125 0.65625
vt 0.51830625 0.5625
vt 0.5 0.54419375
vt 0.53125 0.53125
vt 0.46875 0.98169375
vt 0.46875 0.95580625
vt 0.5 0.96875
vt 0.25 0.625
vt 0.28125 0.625
vt 0.28125 0.875
vt 0.25 0.875
vt 0.5 0.54419375
vt 0.5 0.51830625
vt 0.53125 0.53125
vt 0.48705625 1
vt 0.46875 0.98169375
vt 0.5 0.96875
vt 0 0.46875
vt 0.03125 0.46875
vt 0.03125 0.71875
vt 0 0.71875
vt 0.5 0.51830625
vt 0.51830625 0.5
vt 0.53125 0.53125
vt 0.51294375 1
vt 0.48705625 1
vt 0.5 0.96875
vt 0.1875 0.625
vt 0.21875 0.625
vt 0.21875 0.875
vt 0.1875 0.875
vt 0.51830625 0.5
vt 0.54419375 0.5
vt 0.53125 0.53125
vt 0.25 0.45044375000000003
vt 0.23169375 0.46875
vt 0.21875 0.4375
vt 0.3125 0.8125
vt 0.3125 0.78125
vt 0.5625 0.78125
vt 0.5625 0.8125
vt 0.29955625 0.46875
vt 0.28125 0.45044375000000003
vt 0.3125 0.4375
vt 0.25 0.42455624999999997
vt 0.25 0.45044375000000003
vt 0.21875 0.4375
vt 0.125 1
vt 0.125 0.96875
vt 0.375 0.96875
vt 0.375 1
vt 0.28125 0.45044375000000003
vt 0.28125 0.42455624999999997
vt 0.3125 0.4375
vt 0.23169375 0.40625
vt 0.25 0.42455624999999997
vt 0.21875 0.4375
vt 0.375 0.75
vt 0.375 0.71875
vt 0.625 0.71875
vt 0.625 0.75
vt 0.28125 0.42455624999999997
vt 0.29955625 0.40625
vt 0.3125 0.4375
vt 0.20580625 0.40625
vt 0.23169375 0.40625
vt 0.21875 0.4375
vt 0.15625 0.9375
vt 0.125 0.9375
vt 0.125 0.6875
vt 0.15625 0.6875
vt 0.29955625 0.40625
vt 0.32544375 0.40625
vt 0.3125 0.4375
vt 0.1875 0.42455624999999997
vt 0.20580625 0.40625
vt 0.21875 0.4375
vt 0.625 0.65625
vt 0.625 0.6875
vt 0.375 0.6875
vt 0.375 0.65625
vt 0.32544375 0.40625
vt 0.34375 0.42455624999999997
vt 0.3125 0.4375
vt 0.1875 0.45044375000000003
vt 0.1875 0.42455624999999997
vt 0.21875 0.4375
vt 0.4375 0.90625
vt 0.4375 0.9375
vt 0.1875 0.9375
vt 0.1875 0.90625
vt 0.34375 0.42455624999999997
vt 0.34375 0.45044375000000003
vt 0.3125 0.4375
vt 0.20580625 0.46875
vt 0.1875 0.45044375000000003
vt 0.21875 0.4375
vt 0.625 0.59375
vt 0.625 0.625
vt 0.375 0.625
vt 0.375 0.59375
vt 0.34375 0.45044375000000003
vt 0.32544375 0.46875
vt 0.3125 0.4375
vt 0.23169375 0.46875
vt 0.20580625 0.46875
vt 0.21875 0.4375
vt 0.5625 0.84375
vt 0.5625 0.875
vt 0.3125 0.875
vt 0.3125 0.84375
vt 0.32544375 0.46875
vt 0.29955625 0.46875
vt 0.3125 0.4375
vt 0.188840625 0.5678624999999999
vt 0.22665625 0.556121875
vt 0.244775 0.5742406250000001
vt 0.188840625 0.59375
vt 0.59375 0.8349815625
vt 0.5946865625 0.80922625
vt 0.625 0.80078125
vt 0.625 0.8403409374999999
vt 0.59375 0.40625
vt 0.59375 0.375
vt 0.625 0.375
vt 0.625 0.40625
vt 0.6333446875 0.5604456250000001
vt 0.59375 0.5604456250000001
vt 0.6021878125 0.5361065625
vt 0.6279178125 0.53515625
vt 0.451784375 0.5625
vt 0.39585 0.5429906250000001
vt 0.41396875 0.524871875
vt 0.451784375 0.5366124999999999
vt 0.0625 0.43147187499999995
vt 0.0625 0.37223031250000005
vt 0.0870253125 0.3643521875
vt 0.0876684375 0.4375
vt 0.5625 1
vt 0.5625 0.9375
vt 0.59375 0.9375
vt 0.59375 1
vt 0.66796875 0.90625
vt 0.5948171875 0.90625
vt 0.6024790625 0.8816565625
vt 0.6617153125 0.881135625
vt 0.03125 0.375
vt 0.03125 0.4375
vt 0 0.4375
vt 0 0.375
vt 0.46875 0.39559656249999997
vt 0.46875 0.46875
vt 0.43802375 0.4610871875
vt 0.4375 0.4018534375
vt 0.264284375 0.51830625
vt 0.244775 0.5742406250000001
vt 0.22665625 0.556121875
vt 0.238396875 0.51830625
vt 0.40625 0.39453125
vt 0.40625 0.43412562499999996
vt 0.3759521875 0.4256896875
vt 0.375 0.39996156250000003
vt 0.4375 0.96875
vt 0.4375 1
vt 0.40625 1
vt 0.40625 0.96875
vt 0.505358125 0.37890625
vt 0.5311125 0.3798421875
vt 0.5395565625 0.40417749999999997
vt 0.5 0.40417749999999997
vt 0.402228125 0.48705624999999997
vt 0.41396875 0.524871875
vt 0.39585 0.5429906250000001
vt 0.376340625 0.48705624999999997
vt 0.5070996875 0.4375
vt 0.5663390625 0.4375
vt 0.57421875 0.4681053125
vt 0.5010703125 0.46875
vn 0 -1 0
vn 0.7071067811865476 0 0.7071067811865476
vn 0 1 0
vn 0 -1 0
vn 1 0 0
vn 0 1 0
vn 0 -1 0
vn 0.7071067811865476 0 -0.7071067811865476
vn 0 1 0
vn 0 -1 0
vn 0 0 -1
vn 0 1 0
vn 0 -1 0
vn -0.7071067811865476 0 -0.7071067811865476
vn 0 1 0
vn 0 -1 0
vn -1 0 0
vn 0 1 0
vn 0 -1 0
vn -0.7071067811865476 0 0.7071067811865476
vn 0 1 0
vn 0 -1 0
vn 0 0 1
vn 0 1 0
vn 0 0 1
vn 0.7071067811865471 0.7071067811865479 0
vn 0 0 -1
vn 0 0 1
vn 1 0 0
vn 0 0 -1
vn 0 0 1
vn 0.7071067811865471 -0.7071067811865479 0
vn 0 0 -1
vn 0 0 1
vn 0 -1 0
vn 0 0 -1
vn 0 0 1
vn -0.7071067811865471 -0.7071067811865479 0
vn 0 0 -1
vn 0 0 1
vn -1 0 0
vn 0 0 -1
vn 0 0 1
vn -0.7071067811865471 0.7071067811865479 0
vn 0 0 -1
vn 0 0 1
vn 0 1 0
vn 0 0 -1
vn 1 0 0
vn 0.6471474771639601 -0.7396025277851512 0.18490063194628714
vn 0 -0.9701425001453321 0.2425356250363321
vn -0.6589688100007076 -0.7183360095020979 0.22305489212042254
vn -1 0 0
vn 0.6654368735730481 0.704819409215752 -0.24581165082657414
vn 0 0.939793423488437 -0.34174306308670466
vn -0.6677584437829326 0.6995615829971374 -0.2543860301807775
vn 0 0.3417430630867045 -0.9397934234884371
vn 0.6677584437829325 0.2543860301807773 -0.6995615829971374
vn 1 0 0
vn 0.6589688100007077 -0.22305489212042318 0.7183360095020976
vn 0 -0.24253562503633275 0.9701425001453321
vn -0.6471474771639603 -0.18490063194628756 0.739602527785151
vn -1 0 0
vn -0.665436873573048 0.24581165082657375 -0.7048194092157523
usemtl m_d2817f9a-42b7-43eb-8ecc-2ec768160199
f 223/804/216 221/805/216 219/806/216
f 221/807/217 223/808/217 224/809/217 222/810/217
f 222/811/218 224/812/218 220/813/218
f 225/814/219 223/815/219 219/816/219
f 223/817/220 225/818/220 226/819/220 224/820/220
f 224/821/221 226/822/221 220/823/221
f 227/824/222 225/825/222 219/826/222
f 225/827/223 227/828/223 228/829/223 226/830/223
f 226/831/224 228/832/224 220/833/224
f 229/834/225 227/835/225 219/836/225
f 227/837/226 229/838/226 230/839/226 228/840/226
f 228/841/227 230/842/227 220/843/227
f 231/844/228 229/845/228 219/846/228
f 229/847/229 231/848/229 232/849/229 230/850/229
f 230/851/230 232/852/230 220/853/230
f 233/854/231 231/855/231 219/856/231
f 231/857/232 233/858/232 234/859/232 232/860/232
f 232/861/233 234/862/233 220/863/233
f 235/864/234 233/865/234 219/866/234
f 233/867/235 235/868/235 236/869/235 234/870/235
f 234/871/236 236/872/236 220/873/236
f 221/874/237 235/875/237 219/876/237
f 235/877/238 221/878/238 222/879/238 236/880/238
f 236/881/239 222/882/239 220/883/239
f 241/884/240 239/885/240 237/886/240
f 239/887/241 241/888/241 242/889/241 240/890/241
f 240/891/242 242/892/242 238/893/242
f 243/894/243 241/895/243 237/896/243
f 241/897/244 243/898/244 244/899/244 242/900/244
f 242/901/245 244/902/245 238/903/245
f 245/904/246 243/905/246 237/906/246
f 243/907/247 245/908/247 246/909/247 244/910/247
f 244/911/248 246/912/248 238/913/248
f 247/914/249 245/915/249 237/916/249
f 245/917/250 247/918/250 248/919/250 246/920/250
f 246/921/251 248/922/251 238/923/251
f 249/924/252 247/925/252 237/926/252
f 247/927/253 249/928/253 250/929/253 248/930/253
f 248/931/254 250/932/254 238/933/254
f 251/934/255 249/935/255 237/936/255
f 249/937/256 251/938/256 252/939/256 250/940/256
f 250/941/257 252/942/257 238/943/257
f 253/944/258 251/945/258 237/946/258
f 251/947/259 253/948/259 254/949/259 252/950/259
f 252/951/260 254/952/260 238/953/260
f 239/954/261 253/955/261 237/956/261
f 253/957/262 239/958/262 240/959/262 254/960/262
f 254/961/263 240/962/263 238/963/263
f 244/964/264 258/965/264 257/966/264 242/967/264
f 246/968/265 259/969/265 258/970/265 244/971/265
f 248/972/266 260/973/266 259/974/266 246/975/266
f 250/976/267 261/977/267 260/978/267 248/979/267
f 252/980/268 262/981/268 261/982/268 250/983/268
f 242/984/269 257/985/269 256/986/269 240/987/269
f 240/988/270 256/989/270 255/990/270 254/991/270
f 254/992/271 255/993/271 262/994/271 252/995/271
f 230/996/272 255/997/272 256/998/272 228/999/272
f 228/1000/273 256/1001/273 257/1002/273 226/1003/273
f 226/1004/274 257/1005/274 258/1006/274 224/1007/274
f 224/1008/275 258/1009/275 259/1010/275 222/1011/275
f 222/1012/276 259/1013/276 260/1014/276 236/1015/276
f 236/1016/277 260/1017/277 261/1018/277 234/1019/277
f 234/1020/278 261/1021/278 262/1022/278 232/1023/278
f 232/1024/279 262/1025/279 255/1026/279 230/1027/279
o Pipe
v -1.39375 1.125 0.75
v -1.39375 1.125 0.25
v -1.33125 1.099111875 0.75
v -1.33125 1.0991118750000002 0.25
v -1.367861875 1.0625 0.75
v -1.367861875 1.0625000000000002 0.25
v -1.419638125 1.0625 0.75
v -1.419638125 1.0625 0.25
v -1.45625 1.099111875 0.75
v -1.45625 1.0991118750000002 0.25
v -1.45625 1.150888125 0.75
v -1.45625 1.150888125 0.25
v -1.419638125 1.1875 0.75
v -1.419638125 1.1875 0.25
v -1.367861875 1.1875 0.75
v -1.367861875 1.1875 0.25
v -1.33125 1.150888125 0.75
v -1.33125 1.150888125 0.25
v -0.76875 1.1250000000000002 0.125
v -1.26875 1.1250000000000002 0.125
v -0.76875 1.0991118750000002 0.0625
v -1.26875 1.0991118750000002 0.0625
v -0.76875 1.0625000000000002 0.09911187499999996
v -1.26875 1.0625000000000002 0.09911187499999996
v -0.76875 1.0625000000000002 0.15088812500000004
v -1.26875 1.0625000000000002 0.15088812500000004
v -0.76875 1.0991118750000002 0.1875
v -1.26875 1.0991118750000002 0.1875
v -0.76875 1.1508881250000003 0.1875
v -1.26875 1.1508881250000003 0.1875
v -0.76875 1.1875000000000002 0.15088812500000004
v -1.26875 1.1875000000000002 0.15088812500000004
v -0.76875 1.1875000000000002 0.09911187499999996
v -1.26875 1.1875000000000002 0.09911187499999996
v -0.76875 1.1508881250000003 0.0625
v -1.26875 1.1508881250000003 0.0625
v -1.40625 1.150888125 0.11250000000000004
v -1.40625 1.0991118750000002 0.11250000000000004
v -1.380621875 1.0625000000000002 0.13812812500000005
v -1.344378125 1.0625000000000002 0.17437187499999995
v -1.31875 1.0991118750000002 0.19999999999999996
v -1.31875 1.150888125 0.19999999999999996
v -1.344378125 1.1875000000000002 0.17437187499999995
v -1.380621875 1.1875000000000002 0.13812812500000005
vt 0.53125 0.98169375
vt 0.51294375 1
vt 0.5 0.96875
vt 0.0625 0.46875
vt 0.09375 0.46875
vt 0.09375 0.71875
vt 0.0625 0.71875
vt 0.54419375 0.5
vt 0.5625 0.51830625
vt 0.53125 0.53125
vt 0.53125 0.95580625
vt 0.53125 0.98169375
vt 0.5 0.96875
vt 0 0.75
vt 0.03125 0.75
vt 0.03125 1
vt 0 1
vt 0.5625 0.51830625
vt 0.5625 0.54419375
vt 0.53125 0.53125
vt 0.51294375 0.9375
vt 0.53125 0.95580625
vt 0.5 0.96875
vt 0.3125 0.5
vt 0.34375 0.5
vt 0.34375 0.75
vt 0.3125 0.75
vt 0.5625 0.54419375
vt 0.54419375 0.5625
vt 0.53125 0.53125
vt 0.48705625 0.9375
vt 0.51294375 0.9375
vt 0.5 0.96875
vt 0.0625 0.75
vt 0.09375 0.75
vt 0.09375 1
vt 0.0625 1
vt 0.54419375 0.5625
vt 0.51830625 0.5625
vt 0.53125 0.53125
vt 0.46875 0.95580625
vt 0.48705625 0.9375
vt 0.5 0.96875
vt 0.125 0.40625
vt 0.15625 0.40625
vt 0.15625 0.65625
vt 0.125 0.65625
vt 0.51830625 0.5625
vt 0.5 0.54419375
vt 0.53125 0.53125
vt 0.46875 0.98169375
vt 0.46875 0.95580625
vt 0.5 0.96875
vt 0.25 0.625
vt 0.28125 0.625
vt 0.28125 0.875
vt 0.25 0.875
vt 0.5 0.54419375
vt 0.5 0.51830625
vt 0.53125 0.53125
vt 0.48705625 1
vt 0.46875 0.98169375
vt 0.5 0.96875
vt 0 0.46875
vt 0.03125 0.46875
vt 0.03125 0.71875
vt 0 0.71875
vt 0.5 0.51830625
vt 0.51830625 0.5
vt 0.53125 0.53125
vt 0.51294375 1
vt 0.48705625 1
vt 0.5 0.96875
vt 0.1875 0.625
vt 0.21875 0.625
vt 0.21875 0.875
vt 0.1875 0.875
vt 0.51830625 0.5
vt 0.54419375 0.5
vt 0.53125 0.53125
vt 0.25 0.45044375000000003
vt 0.23169375 0.46875
vt 0.21875 0.4375
vt 0.3125 0.8125
vt 0.3125 0.78125
vt 0.5625 0.78125
vt 0.5625 0.8125
vt 0.29955625 0.46875
vt 0.28125 0.45044375000000003
vt 0.3125 0.4375
vt 0.25 0.42455624999999997
vt 0.25 0.45044375000000003
vt 0.21875 0.4375
vt 0.125 1
vt 0.125 0.96875
vt 0.375 0.96875
vt 0.375 1
vt 0.28125 0.45044375000000003
vt 0.28125 0.42455624999999997
vt 0.3125 0.4375
vt 0.23169375 0.40625
vt 0.25 0.42455624999999997
vt 0.21875 0.4375
vt 0.375 0.75
vt 0.375 0.71875
vt 0.625 0.71875
vt 0.625 0.75
vt 0.28125 0.42455624999999997
vt 0.29955625 0.40625
vt 0.3125 0.4375
vt 0.20580625 0.40625
vt 0.23169375 0.40625
vt 0.21875 0.4375
vt 0.15625 0.9375
vt 0.125 0.9375
vt 0.125 0.6875
vt 0.15625 0.6875
vt 0.29955625 0.40625
vt 0.32544375 0.40625
vt 0.3125 0.4375
vt 0.1875 0.42455624999999997
vt 0.20580625 0.40625
vt 0.21875 0.4375
vt 0.625 0.65625
vt 0.625 0.6875
vt 0.375 0.6875
vt 0.375 0.65625
vt 0.32544375 0.40625
vt 0.34375 0.42455624999999997
vt 0.3125 0.4375
vt 0.1875 0.45044375000000003
vt 0.1875 0.42455624999999997
vt 0.21875 0.4375
vt 0.4375 0.90625
vt 0.4375 0.9375
vt 0.1875 0.9375
vt 0.1875 0.90625
vt 0.34375 0.42455624999999997
vt 0.34375 0.45044375000000003
vt 0.3125 0.4375
vt 0.20580625 0.46875
vt 0.1875 0.45044375000000003
vt 0.21875 0.4375
vt 0.625 0.59375
vt 0.625 0.625
vt 0.375 0.625
vt 0.375 0.59375
vt 0.34375 0.45044375000000003
vt 0.32544375 0.46875
vt 0.3125 0.4375
vt 0.23169375 0.46875
vt 0.20580625 0.46875
vt 0.21875 0.4375
vt 0.5625 0.84375
vt 0.5625 0.875
vt 0.3125 0.875
vt 0.3125 0.84375
vt 0.32544375 0.46875
vt 0.29955625 0.46875
vt 0.3125 0.4375
vt 0.188840625 0.5678624999999999
vt 0.22665625 0.556121875
vt 0.244775 0.5742406250000001
vt 0.188840625 0.59375
vt 0.59375 0.8349815625
vt 0.5946865625 0.80922625
vt 0.625 0.80078125
vt 0.625 0.8403409374999999
vt 0.59375 0.40625
vt 0.59375 0.375
vt 0.625 0.375
vt 0.625 0.40625
vt 0.6333446875 0.5604456250000001
vt 0.59375 0.5604456250000001
vt 0.6021878125 0.5361065625
vt 0.6279178125 0.53515625
vt 0.451784375 0.5625
vt 0.39585 0.5429906250000001
vt 0.41396875 0.524871875
vt 0.451784375 0.5366124999999999
vt 0.0625 0.43147187499999995
vt 0.0625 0.37223031250000005
vt 0.0870253125 0.3643521875
vt 0.0876684375 0.4375
vt 0.5625 1
vt 0.5625 0.9375
vt 0.59375 0.9375
vt 0.59375 1
vt 0.66796875 0.90625
vt 0.5948171875 0.90625
vt 0.6024790625 0.8816565625
vt 0.6617153125 0.881135625
vt 0.03125 0.375
vt 0.03125 0.4375
vt 0 0.4375
vt 0 0.375
vt 0.46875 0.39559656249999997
vt 0.46875 0.46875
vt 0.43802375 0.4610871875
vt 0.4375 0.4018534375
vt 0.264284375 0.51830625
vt 0.244775 0.5742406250000001
vt 0.22665625 0.556121875
vt 0.238396875 0.51830625
vt 0.40625 0.39453125
vt 0.40625 0.43412562499999996
vt 0.3759521875 0.4256896875
vt 0.375 0.39996156250000003
vt 0.4375 0.96875
vt 0.4375 1
vt 0.40625 1
vt 0.40625 0.96875
vt 0.505358125 0.37890625
vt 0.5311125 0.3798421875
vt 0.5395565625 0.40417749999999997
vt 0.5 0.40417749999999997
vt 0.402228125 0.48705624999999997
vt 0.41396875 0.524871875
vt 0.39585 0.5429906250000001
vt 0.376340625 0.48705624999999997
vt 0.5070996875 0.4375
vt 0.5663390625 0.4375
vt 0.57421875 0.4681053125
vt 0.5010703125 0.46875
vn 4.930380657631324e-32 -2.220446049250313e-16 1
vn 0.7071067811865477 -0.7071067811865475 -1.570092458683775e-16
vn -4.930380657631324e-32 2.220446049250313e-16 -1
vn 4.930380657631324e-32 -2.220446049250313e-16 1
vn 2.220446049250313e-16 -1 -2.220446049250313e-16
vn -4.930380657631324e-32 2.220446049250313e-16 -1
vn 4.930380657631324e-32 -2.220446049250313e-16 1
vn -0.7071067811865475 -0.7071067811865477 -1.5700924586837754e-16
vn -4.930380657631324e-32 2.220446049250313e-16 -1
vn 4.930380657631324e-32 -2.220446049250313e-16 1
vn -1 -2.220446049250313e-16 -4.930380657631324e-32
vn -4.930380657631324e-32 2.220446049250313e-16 -1
vn 4.930380657631324e-32 -2.220446049250313e-16 1
vn -0.7071067811865477 0.7071067811865475 1.570092458683775e-16
vn -4.930380657631324e-32 2.220446049250313e-16 -1
vn 4.930380657631324e-32 -2.220446049250313e-16 1
vn -2.220446049250313e-16 1 2.220446049250313e-16
vn -4.930380657631324e-32 2.220446049250313e-16 -1
vn 4.930380657631324e-32 -2.220446049250313e-16 1
vn 0.7071067811865475 0.7071067811865477 1.5700924586837754e-16
vn -4.930380657631324e-32 2.220446049250313e-16 -1
vn 4.930380657631324e-32 -2.220446049250313e-16 1
vn 1 2.220446049250313e-16 4.930380657631324e-32
vn -4.930380657631324e-32 2.220446049250313e-16 -1
vn 1 2.220446049250313e-16 4.930380657631324e-32
vn 1.570092458683774e-16 -0.707106781186547 -0.707106781186548
vn -1 -2.220446049250313e-16 -4.930380657631324e-32
vn 1 2.220446049250313e-16 4.930380657631324e-32
vn 2.220446049250313e-16 -1 -2.220446049250313e-16
vn -1 -2.220446049250313e-16 -4.930380657631324e-32
vn 1 2.220446049250313e-16 4.930380657631324e-32
vn 1.5700924586837744e-16 -0.7071067811865472 0.7071067811865478
vn -1 -2.220446049250313e-16 -4.930380657631324e-32
vn 1 2.220446049250313e-16 4.930380657631324e-32
vn 4.930380657631324e-32 -2.220446049250313e-16 1
vn -1 -2.220446049250313e-16 -4.930380657631324e-32
vn 1 2.220446049250313e-16 4.930380657631324e-32
vn -1.570092458683774e-16 0.707106781186547 0.707106781186548
vn -1 -2.220446049250313e-16 -4.930380657631324e-32
vn 1 2.220446049250313e-16 4.930380657631324e-32
vn -2.220446049250313e-16 1 2.220446049250313e-16
vn -1 -2.220446049250313e-16 -4.930380657631324e-32
vn 1 2.220446049250313e-16 4.930380657631324e-32
vn -1.5700924586837744e-16 0.7071067811865472 -0.7071067811865478
vn -1 -2.220446049250313e-16 -4.930380657631324e-32
vn 1 2.220446049250313e-16 4.930380657631324e-32
vn -4.930380657631324e-32 2.220446049250313e-16 -1
vn -1 -2.220446049250313e-16 -4.930380657631324e-32
vn 2.220446049250313e-16 -1 -2.220446049250313e-16
vn 0.18490063194628728 -0.6471474771639603 0.7396025277851511
vn 0.2425356250363321 -1.615611811243145e-16 0.9701425001453321
vn 0.2230548921204224 0.6589688100007075 0.718336009502098
vn -2.220446049250313e-16 1 2.220446049250313e-16
vn -0.245811650826574 -0.665436873573048 -0.7048194092157521
vn -0.34174306308670466 1.3279385600067524e-16 -0.939793423488437
vn -0.25438603018077766 0.6677584437829326 -0.6995615829971373
vn -0.9397934234884371 -1.3279385600067531e-16 -0.3417430630867045
vn -0.6995615829971374 -0.6677584437829326 -0.25438603018077754
vn 2.220446049250313e-16 -1 -2.220446049250313e-16
vn 0.7183360095020977 -0.6589688100007076 0.22305489212042304
vn 0.9701425001453321 1.6156118112431436e-16 0.24253562503633275
vn 0.7396025277851509 0.6471474771639604 0.1849006319462877
vn -2.220446049250313e-16 1 2.220446049250313e-16
vn -0.7048194092157524 0.6654368735730479 -0.2458116508265736
usemtl m_d2817f9a-42b7-43eb-8ecc-2ec768160199
f 267/1028/280 265/1029/280 263/1030/280
f 265/1031/281 267/1032/281 268/1033/281 266/1034/281
f 266/1035/282 268/1036/282 264/1037/282
f 269/1038/283 267/1039/283 263/1040/283
f 267/1041/284 269/1042/284 270/1043/284 268/1044/284
f 268/1045/285 270/1046/285 264/1047/285
f 271/1048/286 269/1049/286 263/1050/286
f 269/1051/287 271/1052/287 272/1053/287 270/1054/287
f 270/1055/288 272/1056/288 264/1057/288
f 273/1058/289 271/1059/289 263/1060/289
f 271/1061/290 273/1062/290 274/1063/290 272/1064/290
f 272/1065/291 274/1066/291 264/1067/291
f 275/1068/292 273/1069/292 263/1070/292
f 273/1071/293 275/1072/293 276/1073/293 274/1074/293
f 274/1075/294 276/1076/294 264/1077/294
f 277/1078/295 275/1079/295 263/1080/295
f 275/1081/296 277/1082/296 278/1083/296 276/1084/296
f 276/1085/297 278/1086/297 264/1087/297
f 279/1088/298 277/1089/298 263/1090/298
f 277/1091/299 279/1092/299 280/1093/299 278/1094/299
f 278/1095/300 280/1096/300 264/1097/300
f 265/1098/301 279/1099/301 263/1100/301
f 279/1101/302 265/1102/302 266/1103/302 280/1104/302
f 280/1105/303 266/1106/303 264/1107/303
f 285/1108/304 283/1109/304 281/1110/304
f 283/1111/305 285/1112/305 286/1113/305 284/1114/305
f 284/1115/306 286/1116/306 282/1117/306
f 287/1118/307 285/1119/307 281/1120/307
f 285/1121/308 287/1122/308 288/1123/308 286/1124/308
f 286/1125/309 288/1126/309 282/1127/309
f 289/1128/310 287/1129/310 281/1130/310
f 287/1131/311 289/1132/311 290/1133/311 288/1134/311
f 288/1135/312 290/1136/312 282/1137/312
f 291/1138/313 289/1139/313 281/1140/313
f 289/1141/314 291/1142/314 292/1143/314 290/1144/314
f 290/1145/315 292/1146/315 282/1147/315
f 293/1148/316 291/1149/316 281/1150/316
f 291/1151/317 293/1152/317 294/1153/317 292/1154/317
f 292/1155/318 294/1156/318 282/1157/318
f 295/1158/319 293/1159/319 281/1160/319
f 293/1161/320 295/1162/320 296/1163/320 294/1164/320
f 294/1165/321 296/1166/321 282/1167/321
f 297/1168/322 295/1169/322 281/1170/322
f 295/1171/323 297/1172/323 298/1173/323 296/1174/323
f 296/1175/324 298/1176/324 282/1177/324
f 283/1178/325 297/1179/325 281/1180/325
f 297/1181/326 283/1182/326 284/1183/326 298/1184/326
f 298/1185/327 284/1186/327 282/1187/327
f 288/1188/328 302/1189/328 301/1190/328 286/1191/328
f 290/1192/329 303/1193/329 302/1194/329 288/1195/329
f 292/1196/330 304/1197/330 303/1198/330 290/1199/330
f 294/1200/331 305/1201/331 304/1202/331 292/1203/331
f 296/1204/332 306/1205/332 305/1206/332 294/1207/332
f 286/1208/333 301/1209/333 300/1210/333 284/1211/333
f 284/1212/334 300/1213/334 299/1214/334 298/1215/334
f 298/1216/335 299/1217/335 306/1218/335 296/1219/335
f 274/1220/336 299/1221/336 300/1222/336 272/1223/336
f 272/1224/337 300/1225/337 301/1226/337 270/1227/337
f 270/1228/338 301/1229/338 302/1230/338 268/1231/338
f 268/1232/339 302/1233/339 303/1234/339 266/1235/339
f 266/1236/340 303/1237/340 304/1238/340 280/1239/340
f 280/1240/341 304/1241/341 305/1242/341 278/1243/341
f 278/1244/342 305/1245/342 306/1246/342 276/1247/342
f 276/1248/343 306/1249/343 299/1250/343 274/1251/343
o Pipe
v -1.39375 1.375 0.75
v -1.39375 1.375 0.25
v -1.33125 1.349111875 0.75
v -1.33125 1.3491118750000002 0.25
v -1.367861875 1.3125 0.75
v -1.367861875 1.3125000000000002 0.25
v -1.419638125 1.3125 0.75
v -1.419638125 1.3125 0.25
v -1.45625 1.349111875 0.75
v -1.45625 1.3491118750000002 0.25
v -1.45625 1.400888125 0.75
v -1.45625 1.400888125 0.25
v -1.419638125 1.4375 0.75
v -1.419638125 1.4375 0.25
v -1.367861875 1.4375 0.75
v -1.367861875 1.4375 0.25
v -1.33125 1.400888125 0.75
v -1.33125 1.400888125 0.25
v -0.76875 1.3750000000000002 0.125
v -1.26875 1.3750000000000002 0.125
v -0.76875 1.3491118750000002 0.0625
v -1.26875 1.3491118750000002 0.0625
v -0.76875 1.3125000000000002 0.09911187499999996
v -1.26875 1.3125000000000002 0.09911187499999996
v -0.76875 1.3125000000000002 0.15088812500000004
v -1.26875 1.3125000000000002 0.15088812500000004
v -0.76875 1.3491118750000002 0.1875
v -1.26875 1.3491118750000002 0.1875
v -0.76875 1.4008881250000003 0.1875
v -1.26875 1.4008881250000003 0.1875
v -0.76875 1.4375000000000002 0.15088812500000004
v -1.26875 1.4375000000000002 0.15088812500000004
v -0.76875 1.4375000000000002 0.09911187499999996
v -1.26875 1.4375000000000002 0.09911187499999996
v -0.76875 1.4008881250000003 0.0625
v -1.26875 1.4008881250000003 0.0625
v -1.40625 1.400888125 0.11250000000000004
v -1.40625 1.3491118750000002 0.11250000000000004
v -1.380621875 1.3125000000000002 0.13812812500000005
v -1.344378125 1.3125000000000002 0.17437187499999995
v -1.31875 1.3491118750000002 0.19999999999999996
v -1.31875 1.400888125 0.19999999999999996
v -1.344378125 1.4375000000000002 0.17437187499999995
v -1.380621875 1.4375000000000002 0.13812812500000005
vt 0.53125 0.98169375
vt 0.51294375 1
vt 0.5 0.96875
vt 0.0625 0.46875
vt 0.09375 0.46875
vt 0.09375 0.71875
vt 0.0625 0.71875
vt 0.54419375 0.5
vt 0.5625 0.51830625
vt 0.53125 0.53125
vt 0.53125 0.95580625
vt 0.53125 0.98169375
vt 0.5 0.96875
vt 0 0.75
vt 0.03125 0.75
vt 0.03125 1
vt 0 1
vt 0.5625 0.51830625
vt 0.5625 0.54419375
vt 0.53125 0.53125
vt 0.51294375 0.9375
vt 0.53125 0.95580625
vt 0.5 0.96875
vt 0.3125 0.5
vt 0.34375 0.5
vt 0.34375 0.75
vt 0.3125 0.75
vt 0.5625 0.54419375
vt 0.54419375 0.5625
vt 0.53125 0.53125
vt 0.48705625 0.9375
vt 0.51294375 0.9375
vt 0.5 0.96875
vt 0.0625 0.75
vt 0.09375 0.75
vt 0.09375 1
vt 0.0625 1
vt 0.54419375 0.5625
vt 0.51830625 0.5625
vt 0.53125 0.53125
vt 0.46875 0.95580625
vt 0.48705625 0.9375
vt 0.5 0.96875
vt 0.125 0.40625
vt 0.15625 0.40625
vt 0.15625 0.65625
vt 0.125 0.65625
vt 0.51830625 0.5625
vt 0.5 0.54419375
vt 0.53125 0.53125
vt 0.46875 0.98169375
vt 0.46875 0.95580625
vt 0.5 0.96875
vt 0.25 0.625
vt 0.28125 0.625
vt 0.28125 0.875
vt 0.25 0.875
vt 0.5 0.54419375
vt 0.5 0.51830625
vt 0.53125 0.53125
vt 0.48705625 1
vt 0.46875 0.98169375
vt 0.5 0.96875
vt 0 0.46875
vt 0.03125 0.46875
vt 0.03125 0.71875
vt 0 0.71875
vt 0.5 0.51830625
vt 0.51830625 0.5
vt 0.53125 0.53125
vt 0.51294375 1
vt 0.48705625 1
vt 0.5 0.96875
vt 0.1875 0.625
vt 0.21875 0.625
vt 0.21875 0.875
vt 0.1875 0.875
vt 0.51830625 0.5
vt 0.54419375 0.5
vt 0.53125 0.53125
vt 0.25 0.45044375000000003
vt 0.23169375 0.46875
vt 0.21875 0.4375
vt 0.3125 0.8125
vt 0.3125 0.78125
vt 0.5625 0.78125
vt 0.5625 0.8125
vt 0.29955625 0.46875
vt 0.28125 0.45044375000000003
vt 0.3125 0.4375
vt 0.25 0.42455624999999997
vt 0.25 0.45044375000000003
vt 0.21875 0.4375
vt 0.125 1
vt 0.125 0.96875
vt 0.375 0.96875
vt 0.375 1
vt 0.28125 0.45044375000000003
vt 0.28125 0.42455624999999997
vt 0.3125 0.4375
vt 0.23169375 0.40625
vt 0.25 0.42455624999999997
vt 0.21875 0.4375
vt 0.375 0.75
vt 0.375 0.71875
vt 0.625 0.71875
vt 0.625 0.75
vt 0.28125 0.42455624999999997
vt 0.29955625 0.40625
vt 0.3125 0.4375
vt 0.20580625 0.40625
vt 0.23169375 0.40625
vt 0.21875 0.4375
vt 0.15625 0.9375
vt 0.125 0.9375
vt 0.125 0.6875
vt 0.15625 0.6875
vt 0.29955625 0.40625
vt 0.32544375 0.40625
vt 0.3125 0.4375
vt 0.1875 0.42455624999999997
vt 0.20580625 0.40625
vt 0.21875 0.4375
vt 0.625 0.65625
vt 0.625 0.6875
vt 0.375 0.6875
vt 0.375 0.65625
vt 0.32544375 0.40625
vt 0.34375 0.42455624999999997
vt 0.3125 0.4375
vt 0.1875 0.45044375000000003
vt 0.1875 0.42455624999999997
vt 0.21875 0.4375
vt 0.4375 0.90625
vt 0.4375 0.9375
vt 0.1875 0.9375
vt 0.1875 0.90625
vt 0.34375 0.42455624999999997
vt 0.34375 0.45044375000000003
vt 0.3125 0.4375
vt 0.20580625 0.46875
vt 0.1875 0.45044375000000003
vt 0.21875 0.4375
vt 0.625 0.59375
vt 0.625 0.625
vt 0.375 0.625
vt 0.375 0.59375
vt 0.34375 0.45044375000000003
vt 0.32544375 0.46875
vt 0.3125 0.4375
vt 0.23169375 0.46875
vt 0.20580625 0.46875
vt 0.21875 0.4375
vt 0.5625 0.84375
vt 0.5625 0.875
vt 0.3125 0.875
vt 0.3125 0.84375
vt 0.32544375 0.46875
vt 0.29955625 0.46875
vt 0.3125 0.4375
vt 0.188840625 0.5678624999999999
vt 0.22665625 0.556121875
vt 0.244775 0.5742406250000001
vt 0.188840625 0.59375
vt 0.59375 0.8349815625
vt 0.5946865625 0.80922625
vt 0.625 0.80078125
vt 0.625 0.8403409374999999
vt 0.59375 0.40625
vt 0.59375 0.375
vt 0.625 0.375
vt 0.625 0.40625
vt 0.6333446875 0.5604456250000001
vt 0.59375 0.5604456250000001
vt 0.6021878125 0.5361065625
vt 0.6279178125 0.53515625
vt 0.451784375 0.5625
vt 0.39585 0.5429906250000001
vt 0.41396875 0.524871875
vt 0.451784375 0.5366124999999999
vt 0.0625 0.43147187499999995
vt 0.0625 0.37223031250000005
vt 0.0870253125 0.3643521875
vt 0.0876684375 0.4375
vt 0.5625 1
vt 0.5625 0.9375
vt 0.59375 0.9375
vt 0.59375 1
vt 0.66796875 0.90625
vt 0.5948171875 0.90625
vt 0.6024790625 0.8816565625
vt 0.6617153125 0.881135625
vt 0.03125 0.375
vt 0.03125 0.4375
vt 0 0.4375
vt 0 0.375
vt 0.46875 0.39559656249999997
vt 0.46875 0.46875
vt 0.43802375 0.4610871875
vt 0.4375 0.4018534375
vt 0.264284375 0.51830625
vt 0.244775 0.5742406250000001
vt 0.22665625 0.556121875
vt 0.238396875 0.51830625
vt 0.40625 0.39453125
vt 0.40625 0.43412562499999996
vt 0.3759521875 0.4256896875
vt 0.375 0.39996156250000003
vt 0.4375 0.96875
vt 0.4375 1
vt 0.40625 1
vt 0.40625 0.96875
vt 0.505358125 0.37890625
vt 0.5311125 0.3798421875
vt 0.5395565625 0.40417749999999997
vt 0.5 0.40417749999999997
vt 0.402228125 0.48705624999999997
vt 0.41396875 0.524871875
vt 0.39585 0.5429906250000001
vt 0.376340625 0.48705624999999997
vt 0.5070996875 0.4375
vt 0.5663390625 0.4375
vt 0.57421875 0.4681053125
vt 0.5010703125 0.46875
vn 4.930380657631324e-32 -2.220446049250313e-16 1
vn 0.7071067811865477 -0.7071067811865475 -1.570092458683775e-16
vn -4.930380657631324e-32 2.220446049250313e-16 -1
vn 4.930380657631324e-32 -2.220446049250313e-16 1
vn 2.220446049250313e-16 -1 -2.220446049250313e-16
vn -4.930380657631324e-32 2.220446049250313e-16 -1
vn 4.930380657631324e-32 -2.220446049250313e-16 1
vn -0.7071067811865475 -0.7071067811865477 -1.5700924586837754e-16
vn -4.930380657631324e-32 2.220446049250313e-16 -1
vn 4.930380657631324e-32 -2.220446049250313e-16 1
vn -1 -2.220446049250313e-16 -4.930380657631324e-32
vn -4.930380657631324e-32 2.220446049250313e-16 -1
vn 4.930380657631324e-32 -2.220446049250313e-16 1
vn -0.7071067811865477 0.7071067811865475 1.570092458683775e-16
vn -4.930380657631324e-32 2.220446049250313e-16 -1
vn 4.930380657631324e-32 -2.220446049250313e-16 1
vn -2.220446049250313e-16 1 2.220446049250313e-16
vn -4.930380657631324e-32 2.220446049250313e-16 -1
vn 4.930380657631324e-32 -2.220446049250313e-16 1
vn 0.7071067811865475 0.7071067811865477 1.5700924586837754e-16
vn -4.930380657631324e-32 2.220446049250313e-16 -1
vn 4.930380657631324e-32 -2.220446049250313e-16 1
vn 1 2.220446049250313e-16 4.930380657631324e-32
vn -4.930380657631324e-32 2.220446049250313e-16 -1
vn 1 2.220446049250313e-16 4.930380657631324e-32
vn 1.570092458683774e-16 -0.707106781186547 -0.707106781186548
vn -1 -2.220446049250313e-16 -4.930380657631324e-32
vn 1 2.220446049250313e-16 4.930380657631324e-32
vn 2.220446049250313e-16 -1 -2.220446049250313e-16
vn -1 -2.220446049250313e-16 -4.930380657631324e-32
vn 1 2.220446049250313e-16 4.930380657631324e-32
vn 1.5700924586837744e-16 -0.7071067811865472 0.7071067811865478
vn -1 -2.220446049250313e-16 -4.930380657631324e-32
vn 1 2.220446049250313e-16 4.930380657631324e-32
vn 4.930380657631324e-32 -2.220446049250313e-16 1
vn -1 -2.220446049250313e-16 -4.930380657631324e-32
vn 1 2.220446049250313e-16 4.930380657631324e-32
vn -1.570092458683774e-16 0.707106781186547 0.707106781186548
vn -1 -2.220446049250313e-16 -4.930380657631324e-32
vn 1 2.220446049250313e-16 4.930380657631324e-32
vn -2.220446049250313e-16 1 2.220446049250313e-16
vn -1 -2.220446049250313e-16 -4.930380657631324e-32
vn 1 2.220446049250313e-16 4.930380657631324e-32
vn -1.5700924586837744e-16 0.7071067811865472 -0.7071067811865478
vn -1 -2.220446049250313e-16 -4.930380657631324e-32
vn 1 2.220446049250313e-16 4.930380657631324e-32
vn -4.930380657631324e-32 2.220446049250313e-16 -1
vn -1 -2.220446049250313e-16 -4.930380657631324e-32
vn 2.220446049250313e-16 -1 -2.220446049250313e-16
vn 0.18490063194628728 -0.6471474771639603 0.7396025277851511
vn 0.2425356250363321 -1.615611811243145e-16 0.9701425001453321
vn 0.2230548921204224 0.6589688100007075 0.718336009502098
vn -2.220446049250313e-16 1 2.220446049250313e-16
vn -0.245811650826574 -0.665436873573048 -0.7048194092157521
vn -0.34174306308670466 1.3279385600067524e-16 -0.939793423488437
vn -0.25438603018077766 0.6677584437829326 -0.6995615829971373
vn -0.9397934234884371 -1.3279385600067531e-16 -0.3417430630867045
vn -0.6995615829971374 -0.6677584437829326 -0.25438603018077754
vn 2.220446049250313e-16 -1 -2.220446049250313e-16
vn 0.7183360095020977 -0.6589688100007076 0.22305489212042304
vn 0.9701425001453321 1.6156118112431436e-16 0.24253562503633275
vn 0.7396025277851509 0.6471474771639604 0.1849006319462877
vn -2.220446049250313e-16 1 2.220446049250313e-16
vn -0.7048194092157524 0.6654368735730479 -0.2458116508265736
usemtl m_d2817f9a-42b7-43eb-8ecc-2ec768160199
f 311/1252/344 309/1253/344 307/1254/344
f 309/1255/345 311/1256/345 312/1257/345 310/1258/345
f 310/1259/346 312/1260/346 308/1261/346
f 313/1262/347 311/1263/347 307/1264/347
f 311/1265/348 313/1266/348 314/1267/348 312/1268/348
f 312/1269/349 314/1270/349 308/1271/349
f 315/1272/350 313/1273/350 307/1274/350
f 313/1275/351 315/1276/351 316/1277/351 314/1278/351
f 314/1279/352 316/1280/352 308/1281/352
f 317/1282/353 315/1283/353 307/1284/353
f 315/1285/354 317/1286/354 318/1287/354 316/1288/354
f 316/1289/355 318/1290/355 308/1291/355
f 319/1292/356 317/1293/356 307/1294/356
f 317/1295/357 319/1296/357 320/1297/357 318/1298/357
f 318/1299/358 320/1300/358 308/1301/358
f 321/1302/359 319/1303/359 307/1304/359
f 319/1305/360 321/1306/360 322/1307/360 320/1308/360
f 320/1309/361 322/1310/361 308/1311/361
f 323/1312/362 321/1313/362 307/1314/362
f 321/1315/363 323/1316/363 324/1317/363 322/1318/363
f 322/1319/364 324/1320/364 308/1321/364
f 309/1322/365 323/1323/365 307/1324/365
f 323/1325/366 309/1326/366 310/1327/366 324/1328/366
f 324/1329/367 310/1330/367 308/1331/367
f 329/1332/368 327/1333/368 325/1334/368
f 327/1335/369 329/1336/369 330/1337/369 328/1338/369
f 328/1339/370 330/1340/370 326/1341/370
f 331/1342/371 329/1343/371 325/1344/371
f 329/1345/372 331/1346/372 332/1347/372 330/1348/372
f 330/1349/373 332/1350/373 326/1351/373
f 333/1352/374 331/1353/374 325/1354/374
f 331/1355/375 333/1356/375 334/1357/375 332/1358/375
f 332/1359/376 334/1360/376 326/1361/376
f 335/1362/377 333/1363/377 325/1364/377
f 333/1365/378 335/1366/378 336/1367/378 334/1368/378
f 334/1369/379 336/1370/379 326/1371/379
f 337/1372/380 335/1373/380 325/1374/380
f 335/1375/381 337/1376/381 338/1377/381 336/1378/381
f 336/1379/382 338/1380/382 326/1381/382
f 339/1382/383 337/1383/383 325/1384/383
f 337/1385/384 339/1386/384 340/1387/384 338/1388/384
f 338/1389/385 340/1390/385 326/1391/385
f 341/1392/386 339/1393/386 325/1394/386
f 339/1395/387 341/1396/387 342/1397/387 340/1398/387
f 340/1399/388 342/1400/388 326/1401/388
f 327/1402/389 341/1403/389 325/1404/389
f 341/1405/390 327/1406/390 328/1407/390 342/1408/390
f 342/1409/391 328/1410/391 326/1411/391
f 332/1412/392 346/1413/392 345/1414/392 330/1415/392
f 334/1416/393 347/1417/393 346/1418/393 332/1419/393
f 336/1420/394 348/1421/394 347/1422/394 334/1423/394
f 338/1424/395 349/1425/395 348/1426/395 336/1427/395
f 340/1428/396 350/1429/396 349/1430/396 338/1431/396
f 330/1432/397 345/1433/397 344/1434/397 328/1435/397
f 328/1436/398 344/1437/398 343/1438/398 342/1439/398
f 342/1440/399 343/1441/399 350/1442/399 340/1443/399
f 318/1444/400 343/1445/400 344/1446/400 316/1447/400
f 316/1448/401 344/1449/401 345/1450/401 314/1451/401
f 314/1452/402 345/1453/402 346/1454/402 312/1455/402
f 312/1456/403 346/1457/403 347/1458/403 310/1459/403
f 310/1460/404 347/1461/404 348/1462/404 324/1463/404
f 324/1464/405 348/1465/405 349/1466/405 322/1467/405
f 322/1468/406 349/1469/406 350/1470/406 320/1471/406
f 320/1472/407 350/1473/407 343/1474/407 318/1475/407