# Made in Blockbench 5.1.5
mtllib ShipStairsTest.mtl

o ShipMid
v 0.5 2.685185 6.5
v 0.5 2.685185 5.5
v 0.5 2.5 6.5
v 0.5 2.5 5.5
v -0.5 2.685185 6.5
v -0.5 2.685185 5.5
v -0.5 2.5 6.5
v -0.5 2.5 5.5
v 0.5 5 6.5
v 0.5 5 5.5
v 0.5 4.814814999999999 6.5
v 0.5 4.814814999999999 5.5
v -0.5 5 6.5
v -0.5 5 5.5
v -0.5 4.814814999999999 6.5
v -0.5 4.814814999999999 5.5
v 0.5 0.18518500000000016 0.5
v 0.5 0.18518500000000016 -0.5
v 0.5 0 0.5
v 0.5 0 -0.5
v -0.5 0.18518500000000016 0.5
v -0.5 0.18518500000000016 -0.5
v -0.5 0 0.5
v -0.5 0 -0.5
v 0.5 2.5 0.5
v 0.5 2.5 -0.5
v 0.5 2.314815 0.5
v 0.5 2.314815 -0.5
v -0.5 2.5 0.5
v -0.5 2.5 -0.5
v -0.5 2.314815 0.5
v -0.5 2.314815 -0.5
vt 0.1875 0.6171875
vt 0 0.6171875
vt 0 0.5859375
vt 0.1875 0.5859375
vt 0.5703125 0.96875
vt 0.5703125 1
vt 0.3828125 1
vt 0.3828125 0.96875
vt 0 0.8125
vt 0.1875 0.8125
vt 0.1875 1
vt 0 1
vt 0.1875 0.62109375
vt 0.1875 0.80859375
vt 0 0.80859375
vt 0 0.62109375
vt 0.5703125 0.93359375
vt 0.5703125 0.96484375
vt 0.3828125 0.96484375
vt 0.3828125 0.93359375
vt 0.5703125 0.89453125
vt 0.3828125 0.89453125
vt 0.3828125 0.86328125
vt 0.5703125 0.86328125
vt 0.5703125 0.828125
vt 0.5703125 0.859375
vt 0.3828125 0.859375
vt 0.3828125 0.828125
vt 0.19140625 0.8125
vt 0.37890625 0.8125
vt 0.37890625 1
vt 0.19140625 1
vt 0.37890625 0.62109375
vt 0.37890625 0.80859375
vt 0.19140625 0.80859375
vt 0.19140625 0.62109375
vt 0.5703125 0.79296875
vt 0.5703125 0.82421875
vt 0.3828125 0.82421875
vt 0.3828125 0.79296875
vt 0.37890625 0.6171875
vt 0.19140625 0.6171875
vt 0.19140625 0.5859375
vt 0.37890625 0.5859375
vt 0.1875 0.6171875
vt 0 0.6171875
vt 0 0.5859375
vt 0.1875 0.5859375
vt 0.5703125 0.96875
vt 0.5703125 1
vt 0.3828125 1
vt 0.3828125 0.96875
vt 0 0.8125
vt 0.1875 0.8125
vt 0.1875 1
vt 0 1
vt 0.1875 0.62109375
vt 0.1875 0.80859375
vt 0 0.80859375
vt 0 0.62109375
vt 0.5703125 0.9296875
vt 0.3828125 0.9296875
vt 0.3828125 0.8984375
vt 0.5703125 0.8984375
vt 0.5703125 0.89453125
vt 0.3828125 0.89453125
vt 0.3828125 0.86328125
vt 0.5703125 0.86328125
vt 0.5703125 0.828125
vt 0.5703125 0.859375
vt 0.3828125 0.859375
vt 0.3828125 0.828125
vt 0.19140625 0.8125
vt 0.37890625 0.8125
vt 0.37890625 1
vt 0.19140625 1
vt 0.37890625 0.62109375
vt 0.37890625 0.80859375
vt 0.19140625 0.80859375
vt 0.19140625 0.62109375
vt 0.5703125 0.79296875
vt 0.5703125 0.82421875
vt 0.3828125 0.82421875
vt 0.3828125 0.79296875
vt 0.37890625 0.6171875
vt 0.19140625 0.6171875
vt 0.19140625 0.5859375
vt 0.37890625 0.5859375
vt 0.0625 0.59375
vt 0.0625 1
vt 0 1
vt 0 0.59375
vt 0 0.83217578125
vt 0.375 0.98842578125
vt 0.375 1
vt 0 0.84375
vt 0.0625 0.59375
vt 0.0625 1
vt 0 1
vt 0 0.59375
vt 0 0.98842578125
vt 0.375 0.83217578125
vt 0.375 0.84375
vt 0 1
vn 1 0 0
vn -1 0 0
vn 0 1 0
vn 0 -1 0
vn 0 0 1
vn 1 0 0
vn -1 0 0
vn 0 1 0
vn 0 -1 0
vn 0 0 1
vn 0 0 -1
vn 1 0 0
vn -1 0 0
vn 0 1 0
vn 0 -1 0
vn 0 0 -1
vn 1 0 0
vn -1 0 0
vn 0 1 0
vn 0 -1 0
vn 0 0 1
vn 0 0 -1
vn 0 -0.8944271909999161 0.44721359549995804
vn -1 0 0
vn 0 0.8944271909999161 -0.44721359549995804
vn 1 0 0
usemtl none
f 2/1/1 1/2/1 3/3/1 4/4/1
f 7/5/2 5/6/2 6/7/2 8/8/2
f 5/9/3 1/10/3 2/11/3 6/12/3
f 4/13/4 3/14/4 7/15/4 8/16/4
f 3/17/5 1/18/5 5/19/5 7/20/5
f 10/21/6 9/22/6 11/23/6 12/24/6
f 15/25/7 13/26/7 14/27/7 16/28/7
f 13/29/8 9/30/8 10/31/8 14/32/8
f 12/33/9 11/34/9 15/35/9 16/36/9
f 11/37/10 9/38/10 13/39/10 15/40/10
f 14/41/11 10/42/11 12/43/11 16/44/11
f 18/45/12 17/46/12 19/47/12 20/48/12
f 23/49/13 21/50/13 22/51/13 24/52/13
f 21/53/14 17/54/14 18/55/14 22/56/14
f 20/57/15 19/58/15 23/59/15 24/60/15
f 22/61/16 18/62/16 20/63/16 24/64/16
f 26/65/17 25/66/17 27/67/17 28/68/17
f 31/69/18 29/70/18 30/71/18 32/72/18
f 29/73/19 25/74/19 26/75/19 30/76/19
f 28/77/20 27/78/20 31/79/20 32/80/20
f 27/81/21 25/82/21 29/83/21 31/84/21
f 30/85/22 26/86/22 28/87/22 32/88/22
f 19/89/23 4/90/23 8/91/23 23/92/23
f 23/93/24 8/94/24 6/95/24 21/96/24
f 21/97/25 6/98/25 2/99/25 17/100/25
f 4/101/26 19/102/26 17/103/26 2/104/26