# Made in Blockbench 4.12.4
mtllib ShipMid.mtl

o ShipMid
v 0.5 0.18518499999999993 0.5
v 0.5 0.18518499999999993 -0.5
v 0.5 0 0.5
v 0.5 0 -0.5
v -0.5 0.18518499999999993 0.5
v -0.5 0.18518499999999993 -0.5
v -0.5 0 0.5
v -0.5 0 -0.5
v 0.5 2.5 0.5
v 0.5 2.5 -0.5
v 0.5 2.3148150000000003 0.5
v 0.5 2.3148150000000003 -0.5
v -0.5 2.5 0.5
v -0.5 2.5 -0.5
v -0.5 2.3148150000000003 0.5
v -0.5 2.3148150000000003 -0.5
vt 0 0.5859375
vt 0 0.6171875
vt 0.1875 0.6171875
vt 0.1875 0.5859375
vt 0.3828125 1
vt 0.5703125 1
vt 0.5703125 0.96875
vt 0.3828125 0.96875
vt 0 0.8125
vt 0.1875 0.8125
vt 0.1875 1
vt 0 1
vt 0 0.80859375
vt 0.1875 0.80859375
vt 0.1875 0.62109375
vt 0 0.62109375
vt 0.3828125 0.96484375
vt 0.5703125 0.96484375
vt 0.5703125 0.93359375
vt 0.3828125 0.93359375
vt 0.3828125 0.8984375
vt 0.3828125 0.9296875
vt 0.5703125 0.9296875
vt 0.5703125 0.8984375
vt 0.3828125 0.86328125
vt 0.3828125 0.89453125
vt 0.5703125 0.89453125
vt 0.5703125 0.86328125
vt 0.3828125 0.859375
vt 0.5703125 0.859375
vt 0.5703125 0.828125
vt 0.3828125 0.828125
vt 0.37890625 1
vt 0.37890625 0.8125
vt 0.19140625 0.8125
vt 0.19140625 1
vt 0.37890625 0.62109375
vt 0.37890625 0.80859375
vt 0.19140625 0.80859375
vt 0.19140625 0.62109375
vt 0.3828125 0.82421875
vt 0.5703125 0.82421875
vt 0.5703125 0.79296875
vt 0.3828125 0.79296875
vt 0.19140625 0.5859375
vt 0.19140625 0.6171875
vt 0.37890625 0.6171875
vt 0.37890625 0.5859375
vn -1 0 0
vn 1 0 0
vn 0 1 0
vn 0 1 0
vn 0 0 -1
vn 0 0 1
vn -1 0 0
vn 1 0 0
vn 0 -1 0
vn 0 -1 0
vn 0 0 -1
vn 0 0 1
usemtl m_580c8670-310f-31b3-6a4f-2ef42c37c2e9
f 3/1/1 1/2/1 2/3/1 4/4/1
f 6/5/2 5/6/2 7/7/2 8/8/2
f 5/9/3 1/10/3 2/11/3 6/12/3
f 7/13/4 3/14/4 4/15/4 8/16/4
f 5/17/5 1/18/5 3/19/5 7/20/5
f 4/21/6 2/22/6 6/23/6 8/24/6
f 11/25/7 9/26/7 10/27/7 12/28/7
f 14/29/8 13/30/8 15/31/8 16/32/8
f 10/33/9 9/34/9 13/35/9 14/36/9
f 12/37/10 11/38/10 15/39/10 16/40/10
f 13/41/11 9/42/11 11/43/11 15/44/11
f 12/45/12 10/46/12 14/47/12 16/48/12