# Made in Blockbench 4.12.4
mtllib ShipWallCorner1.mtl

o ShipWall
v -0.5 2.314815 0.333333125
v -0.5 2.5 -0.5
v -0.5 2.129629375 0.333333125
v -0.5 2.314815 0
v -0.5 2.5 0
v -0.5 0.324074375 0.333333125
v -0.5 0.185185 0.1875
v -0.5 2.314815 0.5
v -0.5 2.314815 0.333333125
v -0.5 0 0.5
v 0.333333125 2.314815 -0.5
v 0.333333125 2.129629375 -0.5
v -0.5 2.314815 -0.5
v 0 2.314815 -0.5
v 0 2.5 -0.5
v 0.333333125 0.324074375 -0.5
v -0.5 0 -0.5
v 0.1875 0.185185 -0.5
v 0.5 2.314815 -0.5
v 0.333333125 2.314815 -0.5
v 0.5 0 -0.5
v 0.5 0 0.5
v 0.5 2.314815 0.5
v -0.020833125 2.314815 0
v -0.020833125 2.129629375 0.333333125
v 0.333333125 2.129629375 -0.020833125
v 0 2.314815 -0.020833125
v -0.020833125 0.324074375 0.333333125
v -0.020833125 0.185185 0.1875
v 0.1875 0.185185 -0.020833125
v 0.333333125 0.324074375 -0.020833125
v 0.3125 2.314815 0.5
v 0.3125 2.314815 0.333333125
v 0.333333125 2.314815 0.3125
v 0.5 2.314815 0.3125
v 0 2.5 -0.020833125
v 0.333333125 2.314815 -0.020833125
v -0.020833125 2.314815 0.333333125
v -0.020833125 2.5 0
v -0.5 0.185185 -0.5
vt 0.3828125 0.21484375
vt 0.3828125 0.60546875
vt 0.5703125 0.60546875
vt 0.5703125 0.21484375
vt 0.1875 0.38671875
vt 0 0.38671875
vt 0 0.57421875
vt 0.1875 0.57421875
vt 0.578125 0.75
vt 0.66796875 0.75
vt 0.66796875 0.8203125
vt 0.578125 0.8203125
vt 0.74609375 0.65625
vt 0.74609375 0.74609375
vt 0.67578125 0.74609375
vt 0.67578125 0.65625
vt 0.6953125 0.79572609375
vt 0.6953125 0.79021140625
vt 0.75 0.74609375
vt 0.75 0.83984375
vt 0.170474453125 0.3828125
vt 0.080630703125 0.3828125
vt 0.080630703125 0.34679843749999995
vt 0.170474453125 0.34679843749999995
vt 0 0.6171875
vt 0.08984375 0.6171875
vt 0.08984375 0.65234375
vt 0 0.65234375
vt 0.328125 0.6328125
vt 0.328125 0.9375
vt 0.23828125 0.9375
vt 0.23828125 0.6328125
vt 0.6640625 0.34765625
vt 0.6640625 0.65234375
vt 0.57421875 0.65234375
vt 0.57421875 0.34765625
vt 0.019759140625 0.26240664062499997
vt 0.07461109375 0.262016015625
vt 0.0947275 0.293571484375
vt 0.000815 0.293571484375
vt 0 0.9609375
vt 0 0.65625
vt 0.09375 0.65625
vt 0.09375 0.9609375
vt 0.34375 0.41796875
vt 0.34375 0.38671875
vt 0.19140625 0.38671875
vt 0.19140625 0.41796875
vt 0.37890625 0.421875
vt 0.34765625 0.421875
vt 0.34765625 0.57421875
vt 0.37890625 0.57421875
vt 0.7400166796875 0.91015625
vt 0.6701397265625 0.91015625
vt 0.6701397265625 1
vt 0.7400166796875 1
vt 0.665634375 0.9058180078125
vt 0.665634375 0.8359410546875
vt 0.575790625 0.8359410546875
vt 0.575790625 0.9058180078125
vt 0.6697076953125 0.91015625
vt 0.7392309375 0.90313296875
vt 0.672824765625 0.8367267968750001
vt 0.665801484375 0.9062500390625
vt 0.34375 0.38671875
vt 0.34375 0.41796875
vt 0.34765625 0.421875
vt 0.37890625 0.421875
vt 0.37890625 0.38671875
vt 0.34375 0.38671875
vt 0.37890625 0.421875
vt 0.6728246875 0.83672671875
vt 0.7392309375 0.90313296875
vt 0.7392309375 0.84063296875
vt 0.7353246875 0.83672671875
vt 0.6697076953125 1
vt 0.5759576953125 0.90625
vt 0.5759576953125 1
vt 0.6697076953125 1
vt 0.6697076953125 0.91015625
vt 0.6658014453125 0.90625
vt 0.5759576953125 0.90625
vt 0.3203125 0.57421875
vt 0.19140625 0.4453125
vt 0.28125 0.4453125
vt 0.3203125 0.484375
vt 0.3203125 0.57421875
vt 0.19140625 0.57421875
vt 0.19140625 0.4453125
vt 0.3671875 0.3515625
vt 0.3671875 0.3828125
vt 0.2734375 0.3828125
vt 0.2734375 0.3515625
vt 0.22265625 0.96875
vt 0.28515625 1
vt 0.28515625 0.96875
vt 0.22265625 0.9375
vt 0.22265625 0.9375
vt 0.22265625 0.6328125
vt 0.19140625 0.578125
vt 0.19140625 0.96875
vt 0.25 0.609375
vt 0.37890625 0.609375
vt 0.37890625 0.578125
vt 0.19140625 0.578125
vt 0.22265625 0.9375
vt 0.19140625 0.96875
vt 0.22265625 0.96875
vt 0.19140625 0.578125
vt 0.22265625 0.6328125
vt 0.25 0.609375
vt 0 0.609375
vt 0.12890625 0.609375
vt 0.1875 0.578125
vt 0 0.578125
vt 0 1
vt 0.09375 1
vt 0.09375 0.96875
vt 0 0.96875
vt 0.09375 1
vt 0.15625 0.96875
vt 0.15625 0.9375
vt 0.09375 0.96875
vt 0.1875 0.96875
vt 0.1875 0.578125
vt 0.15625 0.6328125
vt 0.15625 0.9375
vt 0.15625 0.9375
vt 0.15625 0.96875
vt 0.1875 0.96875
vt 0.12890625 0.609375
vt 0.15625 0.6328125
vt 0.1875 0.578125
vt 0.68359375 0.53515625
vt 0.68359375 0.62890625
vt 0.77734375 0.53515625
vt 0.77734375 0.53515625
vt 0.77734375 0.625
vt 0.7734375 0.62890625
vt 0.68359375 0.62890625
vt 0.5703125 1
vt 0.5703125 0.609375
vt 0.3828125 0.609375
vt 0.3828125 1
vn -1 0 0
vn 0 1 0
vn 0 -0.8741566576133734 -0.4856440444916582
vn -0.4856440444916582 -0.8741566576133734 0
vn -0.4368528386734723 -0.7863327506125244 -0.4368528386734723
vn 0 0.7241362335472716 -0.6896569547709727
vn -0.6896569547709727 0.7241362335472716 0
vn -1 0 0
vn 0 0 -1
vn -0.5677339501336044 0.5961177096273756 -0.5677339501336044
vn -0.7071067811865476 0 -0.7071067811865476
vn 0 -1 0
vn 0 -1 0
vn -0.48564279201433797 -0.87415735343502 0
vn 0 -0.87415735343502 -0.48564279201433797
vn -0.4368519270374543 -0.7863337635427627 -0.4368519270374543
vn 0 -1 0
vn 0 -1 0
vn 0 -1 0
vn 0 -1 0
vn 0 -1 0
vn 0 1 0
vn 0 1 0
vn 0 0 1
vn 0 0 1
vn 0 0 1
vn 0 0 1
vn 0 0 1
vn 0 0 1
vn 1 0 0
vn 1 0 0
vn 1 0 0
vn 1 0 0
vn 1 0 0
vn 1 0 0
vn 0 -1 0
vn 0 -1 0
vn 0 0 -1
usemtl m_8cf852ed-3253-f964-e59c-38174d289c1d
f 22/1/1 23/2/1 19/3/1 21/4/1
f 21/5/2 17/6/2 10/7/2 22/8/2
f 4/9/3 24/10/3 25/11/3 3/12/3
f 12/13/4 26/14/4 27/15/4 14/16/4
f 24/17/5 27/18/5 26/19/5 25/20/5
f 6/21/6 28/22/6 29/23/6 7/24/6
f 18/25/7 30/26/7 31/27/7 16/28/7
f 31/29/8 26/30/8 12/31/8 16/32/8
f 6/33/9 3/34/9 25/35/9 28/36/9
f 30/37/10 29/38/10 28/39/10 31/40/10
f 26/41/11 31/42/11 28/43/11 25/44/11
f 33/45/12 32/46/12 8/47/12 9/48/12
f 35/49/13 34/50/13 20/51/13 19/52/13
f 37/53/14 36/54/14 15/55/14 11/56/14
f 39/57/15 38/58/15 1/59/15 5/60/15
f 36/61/16 37/62/16 38/63/16 39/64/16
f 32/65/17 33/66/17 34/67/17 35/68/17
f 23/69/18 32/70/18 35/71/18
f 38/72/19 37/73/19 34/74/19 33/75/19
f 15/76/20 5/77/20 2/78/20
f 15/79/21 36/80/21 39/81/21 5/82/21
f 18/83/22 7/84/22 29/85/22 30/86/22
f 18/87/23 40/88/23 7/89/23
f 14/90/24 15/91/24 2/92/24 13/93/24
f 11/94/25 15/95/25 14/96/25 12/97/25
f 12/98/26 16/99/26 21/100/26 19/101/26
f 18/102/27 40/103/27 17/104/27 21/105/27
f 12/106/28 19/107/28 11/108/28
f 21/109/29 16/110/29 18/111/29
f 40/112/30 7/113/30 10/114/30 17/115/30
f 2/116/31 5/117/31 4/118/31 13/119/31
f 5/120/32 1/121/32 3/122/32 4/123/32
f 8/124/33 10/125/33 6/126/33 3/127/33
f 3/128/34 1/129/34 8/130/34
f 7/131/35 6/132/35 10/133/35
f 13/134/36 14/135/36 4/136/36
f 14/137/37 27/138/37 24/139/37 4/140/37
f 23/141/38 22/142/38 10/143/38 8/144/38