# Made in Blockbench 4.12.4
mtllib ShipWallCorner02.mtl

o ShipWallCorner02
v 0.5 2.5 0.5
v 0.5 0 0.5
v 0.333333125 2.3148150000000003 0.5
v 0.333333125 0.18518500000000016 0.5
v -0.5 0 0.5
v -0.5 2.5 0.5
v 0.5 2.3148150000000003 0.333333125
v 0.5 0.18518500000000016 0.333333125
v 0.5 0 -0.5
v -0.5 0 -0.5
v 0.5 2.5 -0.5
v -0.5 2.5 -0.5
v 0.5 2.3148150000000003 0.5
v -0.5 2.3148150000000003 -0.5
v 0.5 2.3148150000000003 -0.5
v -0.5 2.3148150000000003 0.5
v -0.5 0.18518500000000016 0.5
v 0.5 0.18518500000000016 -0.5
v -0.5 0.18518500000000016 -0.5
v 0.5 0.18518500000000016 0.5
v 0.333333125 0.3240743749999999 0.5
v 0.5 0.3240743749999999 0.333333125
v 0.5 0.3240743749999999 0.5
v 0.333333125 2.129629375 0.5
v 0.5 2.129629375 0.333333125
v 0.5 2.129629375 0.5
v 0.497916875 0.18518500000000016 0.1875
v 0.1875 0.18518500000000016 0.5
v 0.5 2.3148150000000003 0
v 0 2.3148150000000003 0.5
vt 0 0.8125
vt 0 1
vt 0.1875 1
vt 0.1875 0.8125
vt 0.12890625 0.2578125
vt 0.12890625 0.28125
vt 0.09765625 0.28125
vt 0.09765625 0.2578125
vt 0.03125 0.5859375
vt 0 0.5859375
vt 0 0.6171875
vt 0.03125 0.6171875
vt 0.26953125 0.5859375
vt 0.45703125 0.5859375
vt 0.45703125 0.6171875
vt 0.26953125 0.6171875
vt 0.24609375 0.55078125
vt 0.43359375 0.55078125
vt 0.43359375 0.58203125
vt 0.24609375 0.58203125
vt 0.43359375 0.96875
vt 0.62109375 0.96875
vt 0.62109375 1
vt 0.43359375 1
vt 0.43359375 0.93359375
vt 0.62109375 0.93359375
vt 0.62109375 0.96484375
vt 0.43359375 0.96484375
vt 0.62109375 0.9296875
vt 0.43359375 0.9296875
vt 0.43359375 0.8984375
vt 0.62109375 0.8984375
vt 0.62109375 0.89453125
vt 0.43359375 0.89453125
vt 0.43359375 0.86328125
vt 0.62109375 0.86328125
vt 0.62109375 0.859375
vt 0.43359375 0.859375
vt 0.43359375 0.828125
vt 0.62109375 0.828125
vt 0.62109375 0.82421875
vt 0.43359375 0.82421875
vt 0.43359375 0.79296875
vt 0.62109375 0.79296875
vt 0.1875 0.62109375
vt 0.1875 0.80859375
vt 0 0.80859375
vt 0 0.62109375
vt 0.19140625 0.8125
vt 0.19140625 1
vt 0.37890625 1
vt 0.37890625 0.8125
vt 0.19140625 0.80859375
vt 0.19140625 0.62109375
vt 0.37890625 0.62109375
vt 0.37890625 0.80859375
vt 0.4296875 0.640625
vt 0.4296875 0.6640625
vt 0.38549296875 0.6640625
vt 0.38549296875 0.640625
vt 0.38549296875 0.96875
vt 0.4296875 0.96875
vt 0.4296875 0.6640625
vt 0.38549296875 0.6640625
vt 0 0.28125
vt 0.03125 0.28125
vt 0.03125 0.2578125
vt 0 0.2578125
vt 0.12890625 0.28125
vt 0.12890625 0.5859375
vt 0.09765625 0.5859375
vt 0.09765625 0.28125
vt 0.38549296875 1
vt 0.38549296875 0.96875
vt 0.4296875 0.96875
vt 0.4296875 1
vt 0 0.5859375
vt 0.03125 0.5859375
vt 0.03125 0.28125
vt 0 0.28125
vt 0.09765625 0.6171875
vt 0.09765625 0.5859375
vt 0.12890625 0.5859375
vt 0.12890625 0.6171875
vt 0.4443484375 0.65234375
vt 0.42522421875 0.62109375
vt 0.5078125 0.62109375
vt 0.4885421875 0.65224921875
vt 0.177236328125 0.5625
vt 0.1330421875 0.6171875
vt 0.265625 0.6171875
vt 0.221430859375 0.5625
vt 0.43359375 0.7890625
vt 0.49609375 0.7890625
vt 0.49609375 0.7578125
vt 0.03125 0.5859375
vt 0.03125 0.6171875
vt 0.09375 0.6171875
vt 0.03125 0.2578125
vt 0.03125 0.28125
vt 0.058596484375 0.2578125
vt 0.0625 0.5703125
vt 0.08984375 0.5703125
vt 0.0625 0.59375
vn 0 -1 0
vn 0 0 -1
vn -1 0 0
vn -1 0 0
vn 0 0 1
vn 1 0 0
vn 0 0 -1
vn 1 0 0
vn 0 0 1
vn -1 0 0
vn 0 0 -1
vn 0 -1 0
vn 0 1 0
vn 0 1 0
vn 0.7071067811865476 0 0.7071067811865476
vn -0.7071067811865476 0 -0.7071067811865476
vn -1 0 0
vn 0 0 -1
vn 0.7071067811865476 0 0.7071067811865476
vn -1 0 0
vn 0 0 -1
vn -0.5674071670099111 0.6003133822366694 -0.563624830834623
vn -0.43685283867347263 -0.786332750612524 -0.43685283867347263
vn 0 0 -1
vn -1 0 0
vn -0.9998979949090099 0 0.014282849048491898
vn 0 0 -1
usemtl m_7ca678d2-0d5b-9951-b8ea-2093a7bc2d13
f 16/1/1 14/2/1 15/3/1 13/4/1
f 4/5/2 21/6/2 23/7/2 20/8/2
f 25/9/3 26/10/3 13/11/3 7/12/3
f 15/13/4 13/14/4 1/15/4 11/16/4
f 14/17/5 15/18/5 11/19/5 12/20/5
f 16/21/6 14/22/6 12/23/6 6/24/6
f 13/25/7 16/26/7 6/27/7 1/28/7
f 19/29/8 17/30/8 5/31/8 10/32/8
f 18/33/9 19/34/9 10/35/9 9/36/9
f 20/37/10 18/38/10 9/39/10 2/40/10
f 17/41/11 20/42/11 2/43/11 5/44/11
f 11/45/12 1/46/12 6/47/12 12/48/12
f 19/49/13 17/50/13 20/51/13 18/52/13
f 10/53/14 5/54/14 2/55/14 9/56/14
f 8/57/15 22/58/15 21/59/15 4/60/15
f 24/61/16 25/62/16 22/63/16 21/64/16
f 23/65/17 22/66/17 8/67/17 20/68/17
f 21/69/18 24/70/18 26/71/18 23/72/18
f 3/73/19 24/74/19 25/75/19 7/76/19
f 26/77/20 25/78/20 22/79/20 23/80/20
f 13/81/21 26/82/21 24/83/21 3/84/21
f 22/85/22 27/86/22 28/87/22 21/88/22
f 24/89/23 30/90/23 29/91/23 25/92/23
f 30/93/24 3/94/24 24/95/24
f 25/96/25 7/97/25 29/98/25
f 8/99/26 22/100/26 27/101/26
f 4/102/27 28/103/27 21/104/27