# Made in Blockbench 4.12.4
mtllib ShipWallBase.mtl

o ShipWall
v 0.5 2.314815 0.333333125
v 0.5 2.5 -0.5
v 0.5 2.129629375 0.333333125
v 0.5 2.314815 -0.5
v -0.5 2.314815 0.333333125
v -0.5 2.5 -0.5
v -0.5 2.129629375 0.333333125
v -0.5 2.314815 -0.5
v 0.5 2.314815 0
v -0.5 2.314815 0
v -0.5 2.5 0
v 0.5 2.5 0
v 0.5 0.324074375 0.333333125
v 0.5 0.185185 -0.5
v 0.5 0 0.333333125
v 0.5 0 -0.5
v -0.5 0.324074375 0.333333125
v -0.5 0.185185 -0.5
v -0.5 0 0.333333125
v -0.5 0 -0.5
v 0.5 0.185185 0.1875
v -0.5 0.185185 0.1875
v -0.5 0 0.1875
v 0.5 0 0.1875
v 0.5 2.314815 0.5
v 0.5 2.314815 0.333333125
v 0.5 0 0.5
v 0.5 0 0.333333125
v -0.5 2.314815 0.5
v -0.5 2.314815 0.333333125
v -0.5 0 0.5
v -0.5 0 0.333333125
vt 0.515625 0.50390625
vt 0.515625 0.47265625
vt 0.453125 0.44140625
vt 0.453125 0.47265625
vt 0.09375 0.44140625
vt 0.09375 0.47265625
vt 0.15625 0.44140625
vt 0.15625 0.41015625
vt 0.3828125 0.73828125
vt 0.5703125 0.73828125
vt 0.5703125 0.668404296875
vt 0.3828125 0.668404296875
vt 0.3828125 0.999564453125
vt 0.3828125 0.9296875
vt 0.5703125 0.9296875
vt 0.5703125 0.999564453125
vt 0.76171875 0.9296875
vt 0.76171875 0.9609375
vt 0.57421875 0.9609375
vt 0.57421875 0.9296875
vt 0.57421875 0.89453125
vt 0.57421875 0.92578125
vt 0.76171875 0.92578125
vt 0.76171875 0.89453125
vt 0.5703125 0.8359375
vt 0.5703125 0.9296875
vt 0.3828125 0.9296875
vt 0.3828125 0.8359375
vt 0.09375 0.47265625
vt 0.09375 0.44140625
vt 0 0.44140625
vt 0 0.47265625
vt 0.5703125 0.73828125
vt 0.3828125 0.73828125
vt 0.3828125 0.83203125
vt 0.5703125 0.83203125
vt 0.515625 0.47265625
vt 0.515625 0.50390625
vt 0.609375 0.50390625
vt 0.609375 0.47265625
vt 0.54296875 0.41015625
vt 0.54296875 0.44140625
vt 0.671875 0.44140625
vt 0.671875 0.41015625
vt 0.48046875 0.43359375
vt 0.48046875 0.40234375
vt 0.3515625 0.40234375
vt 0.3515625 0.43359375
vt 0 0.60546875
vt 0 0.4765625
vt 0.1875 0.4765625
vt 0.1875 0.60546875
vt 0.3828125 0.63671875
vt 0.5703125 0.63671875
vt 0.5703125 0.5078125
vt 0.3828125 0.5078125
vt 0.44921875 0.44921875
vt 0.44921875 0.50390625
vt 0.26171875 0.50390625
vt 0.26171875 0.44921875
vt 0.57421875 0.859375
vt 0.57421875 0.890625
vt 0.76171875 0.890625
vt 0.76171875 0.859375
vt 0.57421875 1
vt 0.57421875 0.96484375
vt 0.76171875 0.96484375
vt 0.76171875 1
vt 0.48046875 0.40234375
vt 0.48046875 0.43359375
vt 0.5078125 0.45703125
vt 0.5078125 0.40234375
vt 0.5703125 0.63671875
vt 0.3828125 0.63671875
vt 0.3828125 0.6640625
vt 0.5703125 0.6640625
vt 0.54296875 0.44140625
vt 0.54296875 0.41015625
vt 0.515625 0.41015625
vt 0.515625 0.46484375
vt 0.19140625 0.21484375
vt 0.19140625 0.60546875
vt 0.22265625 0.60546875
vt 0.22265625 0.21484375
vt 0.2265625 0.60546875
vt 0.2578125 0.60546875
vt 0.2578125 0.21484375
vt 0.2265625 0.21484375
vt 0.76171875 0.85546875
vt 0.76171875 0.82421875
vt 0.57421875 0.82421875
vt 0.57421875 0.85546875
vt 0.57421875 0.8203125
vt 0.76171875 0.8203125
vt 0.76171875 0.7890625
vt 0.57421875 0.7890625
vt 0 1
vt 0.1875 1
vt 0.1875 0.609375
vt 0 0.609375
vt 0.37890625 1
vt 0.19140625 1
vt 0.19140625 0.609375
vt 0.37890625 0.609375
vn -1 0 0
vn 1 0 0
vn 0 -0.8741573534350201 -0.48564279201433797
vn 0 -0.8741566576133732 -0.48564404449165816
vn 0 0 1
vn 0 0 1
vn 0 -1 0
vn 1 0 0
vn 0 -1 0
vn -1 0 0
vn -1 0 0
vn 1 0 0
vn 0 1 0
vn 0 1 0
vn 0 0 1
vn 0 0 1
vn 0 0.7241362335472716 -0.6896569547709727
vn 1 0 0
vn 0 1 0
vn -1 0 0
vn -1 0 0
vn 1 0 0
vn 0 -1 0
vn 0 1 0
vn 0 0 -1
vn 0 0 -1
usemtl m_58c67644-0838-703b-d33c-ad27c7a843e0
f 12/1/1 9/2/1 3/3/1 1/4/1
f 10/5/2 11/6/2 5/7/2 7/8/2
f 11/9/3 12/10/3 1/11/3 5/12/3
f 7/13/4 10/14/4 9/15/4 3/16/4
f 3/17/5 1/18/5 5/19/5 7/20/5
f 4/21/6 2/22/6 6/23/6 8/24/6
f 4/25/7 9/26/7 10/27/7 8/28/7
f 11/29/8 10/30/8 8/31/8 6/32/8
f 12/33/9 11/34/9 6/35/9 2/36/9
f 9/37/10 12/38/10 2/39/10 4/40/10
f 24/41/11 21/42/11 14/43/11 16/44/11
f 22/45/12 23/46/12 20/47/12 18/48/12
f 18/49/13 22/50/13 21/51/13 14/52/13
f 23/53/14 24/54/14 16/55/14 20/56/14
f 15/57/15 13/58/15 17/59/15 19/60/15
f 16/61/16 14/62/16 18/63/16 20/64/16
f 13/65/17 21/66/17 22/67/17 17/68/17
f 23/69/18 22/70/18 17/71/18 19/72/18
f 24/73/19 23/74/19 19/75/19 15/76/19
f 21/77/20 24/78/20 15/79/20 13/80/20
f 27/81/21 25/82/21 26/83/21 28/84/21
f 30/85/22 29/86/22 31/87/22 32/88/22
f 26/89/23 25/90/23 29/91/23 30/92/23
f 31/93/24 27/94/24 28/95/24 32/96/24
f 29/97/25 25/98/25 27/99/25 31/100/25
f 30/101/26 26/102/26 28/103/26 32/104/26