# Made in Blockbench 4.12.4
mtllib ShipDoor.mtl

o Door Right
v -0.45625 1.925 0.1875
v -0.45625 1.925 -0.1875
v -0.45625 -0.012499999999999956 0.1875
v -0.45625 -0.012499999999999956 -0.1875
v 0.48125 1.925 0.1875
v 0.48125 1.925 -0.1875
v 0.48125 -0.012499999999999956 0.1875
v 0.48125 -0.012499999999999956 -0.1875
vt 0 0.34765625
vt 0 0.671875
vt 0.0234375 0.671875
vt 0.0234375 0.34765625
vt 0.02734375 0.671875
vt 0.05078125 0.671875
vt 0.05078125 0.34765625
vt 0.02734375 0.34765625
vt 0.2265625 0.671875
vt 0.2265625 0.6484375
vt 0.0546875 0.6484375
vt 0.0546875 0.671875
vt 0.23046875 0.671875
vt 0.40234375 0.671875
vt 0.40234375 0.6484375
vt 0.23046875 0.6484375
vt 0.34765625 1
vt 0.17578125 1
vt 0.17578125 0.67578125
vt 0.34765625 0.67578125
vt 0.17578125 0.67578125
vt 0.17578125 1
vt 0.34765625 1
vt 0.34765625 0.67578125
vn -1 0 0
vn 1 0 0
vn 0 1 0
vn 0 -1 0
vn 0 0 1
vn 0 0 -1
usemtl m_f5eb25c5-d7cc-099a-ef4c-adda95844f56
f 3/1/1 1/2/1 2/3/1 4/4/1
f 6/5/2 5/6/2 7/7/2 8/8/2
f 2/9/3 1/10/3 5/11/3 6/12/3
f 7/13/4 3/14/4 4/15/4 8/16/4
f 5/17/5 1/18/5 3/19/5 7/20/5
f 4/21/6 2/22/6 6/23/6 8/24/6