# Made in Blockbench 5.0.7
mtllib ShipWallDoor.mtl

o ShipWall
v 0.49999999999999994 2.3148150000000003 0.666666875
v 0.5000000000000001 2.5 1.5
v 0.5000000000000001 2.3148150000000003 1.5
v 1.5 2.3148150000000003 0.6666668749999998
v 1.5 2.5 1.4999999999999998
v 1.5 2.3148150000000003 1.4999999999999998
v 0.5 2.3148150000000003 0.9999999999999999
v 1.5 2.3148150000000003 0.9999999999999998
v 1.5 2.5 0.9999999999999998
v 0.5 2.5 0.9999999999999999
v 0.5000000000000001 0.185185 1.5
v 0.5000000000000001 0 1.5
v 1.5 0.185185 1.4999999999999998
v 1.5 0 1.4999999999999998
v 1.5 0.185185 0.8124999999999998
v 1.5 0 0.8124999999999998
v 0.5 0 0.8125
v 1.5 0.185185 0.6666668749999998
v 0.49999999999999994 0.185185 0.666666875
v 1.5 0.6898124999999999 0.6666668749999998
v 1 0.6898124999999999 0.6666668749999999
v 1.5 1.625 0.6666668749999998
v -0.5 2.3148150000000003 0.666666875
v -0.49999999999999994 2.5 1.5
v -0.49999999999999994 2.3148150000000003 1.5
v -0.5 2.3148150000000003 1
v -0.5 2.5 1
v -0.49999999999999994 0.185185 1.5
v -0.49999999999999994 0 1.5
v -0.5 0.185185 0.8125
v -0.5 0 0.8125
v -0.5 0.185185 0.666666875
v 0.49999999999999994 2.3148150000000003 0.666666875
v 0.5000000000000001 2.5 1.5
v 0.5000000000000001 2.3148150000000003 1.5
v 0.5 2.3148150000000003 0.9999999999999999
v 0.5 2.5 0.9999999999999999
v 0.5000000000000001 0.185185 1.5
v 0.5000000000000001 0 1.5
v 0.5 0.185185 0.8125
v 0.5 0 0.8125
v -1.5 2.3148150000000003 0.6666668750000002
v -1.5 2.5 1.5000000000000002
v -1.5 2.129629375 0.6666668750000002
v -1.5 2.3148150000000003 1.5000000000000002
v -0.5 2.3148150000000003 0.666666875
v -0.49999999999999994 2.5 1.5
v -0.5 2.125 0.666666875
v -0.49999999999999994 2.3148150000000003 1.5
v -1.5 2.3148150000000003 1.0000000000000002
v -0.5 2.3148150000000003 1
v -0.5 2.5 1
v -1.5 2.5 1.0000000000000002
v -1.5 0.324074375 0.6666668750000002
v -1.5 0.185185 1.5000000000000002
v -1.5 0 0.6666668750000002
v -1.5 0 1.5000000000000002
v -0.49999999999999994 0.185185 1.5
v -0.49999999999999994 0 1.5
v -1.5 0.185185 0.8125000000000002
v -0.5 0.185185 0.8125
v -0.5 0 0.8125
v -1.5 0 0.8125000000000002
v -0.5 0.185185 0.666666875
v -1.5 0.185185 0.6666668750000002
v -1 0.6898124999999999 0.6666668750000001
v -1.5 0.6898124999999999 0.6666668750000002
v -1.5 1.625 0.6666668750000002
v -1 1.625 0.6666668750000001
v 1.5 0 0.6666668749999998
v 1.5 0.32638875 0.6666668749999998
v -0.833333125 0.185185 0.8125000000000001
v -0.833333125 0.324074375 0.6666668750000001
v -0.833333125 0.185185 0.6666668750000001
v 0.81234 0.327545625 0.6643831249999999
v 0.81234 0.186341875 0.8154243749999999
v 0.81234 0.18637749999999997 0.6643131249999998
v 1.5 2.129629375 0.6666668749999998
v 1 1.625 0.6666668749999999
v 0.49999999999999994 2.125 0.666666875
v -0.5000000000000001 2.3148150000000003 0.3333331250000001
v -0.5000000000000002 2.5 -0.5
v -0.5000000000000002 2.3148150000000003 -0.5
v -1.5 2.3148150000000003 0.33333312500000023
v -1.5000000000000002 2.5 -0.4999999999999998
v -1.5000000000000002 2.3148150000000003 -0.4999999999999998
v -0.5000000000000001 2.3148150000000003 1.1102230246251565e-16
v -1.5000000000000002 2.3148150000000003 2.220446049250313e-16
v -1.5000000000000002 2.5 2.220446049250313e-16
v -0.5000000000000001 2.5 1.1102230246251565e-16
v -0.5000000000000002 0.185185 -0.5
v -0.5000000000000002 0 -0.5
v -1.5000000000000002 0.185185 -0.4999999999999998
v -1.5000000000000002 0 -0.4999999999999998
v -1.5 0.185185 0.18750000000000022
v -1.5 0 0.18750000000000022
v -0.5000000000000001 0 0.1875000000000001
v -1.5 0.185185 0.33333312500000023
v -0.5000000000000001 0.1851875 0.3333331250000001
v -1.5 0.6898124999999999 0.33333312500000023
v -1 0.6898124999999999 0.3333331250000001
v -1.5 1.625 0.33333312500000023
v 0.49999999999999994 2.3148150000000003 0.3333331249999999
v 0.49999999999999983 2.5 -0.5
v 0.49999999999999983 2.3148150000000003 -0.5
v 0.4999999999999999 2.3148150000000003 0
v 0.4999999999999999 2.5 0
v 0.49999999999999983 0.185185 -0.5
v 0.49999999999999983 0 -0.5
v 0.4999999999999999 0.185185 0.1874999999999999
v 0.4999999999999999 0 0.1874999999999999
v 0.49999999999999994 0.185185 0.3333331249999999
v -0.5000000000000001 2.3148150000000003 0.3333331250000001
v -0.5000000000000002 2.5 -0.5
v -0.5000000000000002 2.3148150000000003 -0.5
v -0.5000000000000001 2.3148150000000003 1.1102230246251565e-16
v -0.5000000000000001 2.5 1.1102230246251565e-16
v -0.5000000000000002 0.185185 -0.5
v -0.5000000000000002 0 -0.5
v -0.5000000000000001 0.185185 0.1875000000000001
v -0.5000000000000001 0 0.1875000000000001
v 1.5 2.3148150000000003 0.3333331249999998
v 1.4999999999999998 2.5 -0.5000000000000002
v 1.5 2.129629375 0.3333331249999998
v 1.4999999999999998 2.3148150000000003 -0.5000000000000002
v 0.49999999999999994 2.3148150000000003 0.3333331249999999
v 0.49999999999999983 2.5 -0.5
v 0.49999999999999994 2.125 0.3333331249999999
v 0.49999999999999983 2.3148150000000003 -0.5
v 1.4999999999999998 2.3148150000000003 -2.220446049250313e-16
v 0.4999999999999999 2.3148150000000003 0
v 0.4999999999999999 2.5 0
v 1.4999999999999998 2.5 -2.220446049250313e-16
v 1.5 0.324074375 0.3333331249999998
v 1.4999999999999998 0.185185 -0.5000000000000002
v 1.5 0 0.3333331249999998
v 1.4999999999999998 0 -0.5000000000000002
v 0.49999999999999983 0.185185 -0.5
v 0.49999999999999983 0 -0.5
v 1.5 0.185185 0.18749999999999978
v 0.4999999999999999 0.185185 0.1874999999999999
v 0.4999999999999999 0 0.1874999999999999
v 1.5 0 0.18749999999999978
v 0.49999999999999994 0.185185 0.3333331249999999
v 1.5 0.185185 0.3333331249999998
v 0.9999999999999999 0.6898124999999999 0.3333331249999999
v 1.5 0.6898124999999999 0.3333331249999998
v 1.5 1.625 0.3333331249999998
v 0.9999999999999999 1.625 0.3333331249999999
v -1.5 0 0.33333312500000023
v -1.5 0.32638875 0.33333312500000023
v 0.8333331249999999 0.185185 0.1874999999999999
v 0.8333331249999999 0.324074375 0.3333331249999999
v 0.8333331249999999 0.185185 0.3333331249999999
v -0.8123400000000001 0.327545625 0.33561687500000015
v -0.8123400000000001 0.186341875 0.18457562500000013
v -0.8123400000000001 0.18637749999999997 0.33568687500000016
v -1.5 2.129629375 0.33333312500000023
v -1 1.625 0.3333331250000001
v -0.5000000000000001 2.125 0.3333331250000001
vt 0.056640625 0.908203125
vt 0.150390625 0.908203125
vt 0.150390625 0.943141796875
vt 0.056640625 0.943141796875
vt 0.37890625 0.818359375
vt 0.37890625 0.833984375
vt 0.28515625 0.833984375
vt 0.28515625 0.818359375
vt 0.286132421875 0.71875369140625
vt 0.286132421875 0.76562869140625
vt 0.192382421875 0.76562869140625
vt 0.192382421875 0.71875369140625
vt 0.107421875 0.9765625
vt 0.107421875 0.9609375
vt 0.154296875 0.9609375
vt 0.154296875 0.9765625
vt 0.150390625 0.908203125
vt 0.056640625 0.908203125
vt 0.056640625 0.861328125
vt 0.150390625 0.861328125
vt 0.099609375 0.8474609375
vt 0.099609375 0.8318359375
vt 0.1640625 0.8318359375
vt 0.1640625 0.8474609375
vt 0.447265625 0.955078125
vt 0.447265625 0.970703125
vt 0.353515625 0.970703125
vt 0.353515625 0.955078125
vt 0.267578125 0.671875
vt 0.267578125 0.59599609375
vt 0.314453125 0.59599609375
vt 0.314453125 0.671875
vt 0.31640625 0.62109375
vt 0.41015625 0.62109375
vt 0.41015625 0.685546875
vt 0.31640625 0.685546875
vt 0 0.650390625
vt 0.09375 0.650390625
vt 0.09375 0.685329296875
vt 0 0.685329296875
vt 0.478515625 0.8046875
vt 0.478515625 0.8203125
vt 0.384765625 0.8203125
vt 0.384765625 0.8046875
vt 0.09375 0.5546875
vt 0.09375 0.6015625
vt 0 0.6015625
vt 0 0.5546875
vt 0.09375 0.650390625
vt 0 0.650390625
vt 0 0.603515625
vt 0.09375 0.603515625
vt 0.09375 0.78125
vt 0.09375 0.716796875
vt 0.1875 0.716796875
vt 0.1875 0.78125
vt 0.3359375 0.888671875
vt 0.4296875 0.888671875
vt 0.4296875 0.953125
vt 0.3359375 0.953125
vt 0.505859375 0.669921875
vt 0.505859375 0.685546875
vt 0.412109375 0.685546875
vt 0.412109375 0.669921875
vt 0.09375 0.716796875
vt 0.09375 0.703125
vt 0.1875 0.703125
vt 0.1875 0.716796875
vt 0.14453125 1
vt 0.14453125 0.984375
vt 0.17578125 0.96875
vt 0.17578125 0.984375
vt 0.095703125 0.650390625
vt 0.189453125 0.650390625
vt 0.189453125 0.685329296875
vt 0.095703125 0.685329296875
vt 0.505859375 0.634765625
vt 0.505859375 0.650390625
vt 0.412109375 0.650390625
vt 0.412109375 0.634765625
vt 0.47362998046875 0.71875
vt 0.47363181640625 0.765625
vt 0.37988181640625 0.76562869140625
vt 0.37987998046875 0.71875369140625
vt 0.189453125 0.650390625
vt 0.095703125 0.650390625
vt 0.095703125 0.603515625
vt 0.189453125 0.603515625
vt 0.14453125 0.984375
vt 0.14453125 1
vt 0.09765625 1
vt 0.09765625 0.984375
vt 0.216796875 0.912109375
vt 0.216796875 0.927734375
vt 0.15234375 0.927734375
vt 0.15234375 0.912109375
vt 0.380859375 0.88671875
vt 0.380859375 0.822265625
vt 0.474609375 0.822265625
vt 0.474609375 0.88671875
vt 0.31640625 0.5546875
vt 0.41015625 0.5546875
vt 0.41015625 0.619140625
vt 0.31640625 0.619140625
vt 0.505859375 0.6171875
vt 0.505859375 0.6328125
vt 0.412109375 0.6328125
vt 0.412109375 0.6171875
vt 0.377570703125 0.999609375
vt 0.28671875 1
vt 0.28671875 0.955078125
vt 0.331640625 0.955078125
vt 0.107421875 0.9609375
vt 0.107421875 0.9765625
vt 0.076171875 0.9609375
vt 0.076171875 0.9453125
vt 0.47363181640625 0.765625
vt 0.473633203125 0.8005635156249999
vt 0.379850703125 0.79878876953125
vt 0.379882421875 0.76562869140625
vt 0.192382421875 0.76562869140625
vt 0.286132421875 0.76562869140625
vt 0.286132421875 0.80074353515625
vt 0.192382421875 0.80056541015625
vt 0.286132421875 0.76562869140625
vt 0.379882421875 0.76562869140625
vt 0.37985078125 0.79879041015625
vt 0.286132421875 0.79879041015625
vt 0.220703125 0.556640625
vt 0.314453125 0.556640625
vt 0.314453125 0.5859375
vt 0.267578125 0.5859375
vt 0.37890625 0.83984375
vt 0.33203125 0.869140625
vt 0.28515625 0.869140625
vt 0.28515625 0.83984375
vt 0.59765625 0.703125
vt 0.59765625 0.716796875
vt 0.31640625 0.716796875
vt 0.31640625 0.703125
vt 0.15234375 0.892578125
vt 0.21484375 0.892578125
vt 0.21484375 0.91015625
vt 0.15234375 0.91015625
vt 0.060546875 0.9453125
vt 0.07421875 0.9453125
vt 0.07421875 0.95703125
vt 0.216796875 0.95289791015625
vt 0.15234375 0.953125
vt 0.15234375 0.93461951171875
vt 0.216796875 0.934765859375
vt 0.07529150390625 0.859375
vt 0.06338037109375 0.859375
vt 0.06338533203125 0.845208203125
vt 0.09968009765625 0.787109375
vt 0.128963515625 0.787109375
vt 0.12883072265625 0.80078125
vt 0.099845078125 0.80067697265625
vt 0 0.716796875
vt 0.09375 0.716796875
vt 0.09375 0.78125
vt 0 0.78125
vt 0.1875 0.703125
vt 0.21875 0.703125
vt 0.21875 0.716796875
vt 0.1875 0.716796875
vt 0.220703125 0.71640625
vt 0.267578125 0.671875
vt 0.314453125 0.671875
vt 0.314453125 0.716796875
vt 0.28515625 0.955078125
vt 0.28515625 0.87919921875
vt 0.33203125 0.87919921875
vt 0.33203125 0.955078125
vt 0.056640625 0.908203125
vt 0.150390625 0.908203125
vt 0.150390625 0.943141796875
vt 0.056640625 0.943141796875
vt 0.37890625 0.818359375
vt 0.37890625 0.833984375
vt 0.28515625 0.833984375
vt 0.28515625 0.818359375
vt 0.286132421875 0.71875369140625
vt 0.286132421875 0.76562869140625
vt 0.192382421875 0.76562869140625
vt 0.192382421875 0.71875369140625
vt 0.107421875 0.9765625
vt 0.107421875 0.9609375
vt 0.154296875 0.9609375
vt 0.154296875 0.9765625
vt 0.150390625 0.908203125
vt 0.056640625 0.908203125
vt 0.056640625 0.861328125
vt 0.150390625 0.861328125
vt 0.099609375 0.8474609375
vt 0.099609375 0.8318359375
vt 0.1640625 0.8318359375
vt 0.1640625 0.8474609375
vt 0.447265625 0.955078125
vt 0.447265625 0.970703125
vt 0.353515625 0.970703125
vt 0.353515625 0.955078125
vt 0.267578125 0.671875
vt 0.267578125 0.59599609375
vt 0.314453125 0.59599609375
vt 0.314453125 0.671875
vt 0.31640625 0.62109375
vt 0.41015625 0.62109375
vt 0.41015625 0.685546875
vt 0.31640625 0.685546875
vt 0 0.650390625
vt 0.09375 0.650390625
vt 0.09375 0.685329296875
vt 0 0.685329296875
vt 0.478515625 0.8046875
vt 0.478515625 0.8203125
vt 0.384765625 0.8203125
vt 0.384765625 0.8046875
vt 0.09375 0.5546875
vt 0.09375 0.6015625
vt 0 0.6015625
vt 0 0.5546875
vt 0.09375 0.650390625
vt 0 0.650390625
vt 0 0.603515625
vt 0.09375 0.603515625
vt 0.09375 0.78125
vt 0.09375 0.716796875
vt 0.1875 0.716796875
vt 0.1875 0.78125
vt 0.3359375 0.888671875
vt 0.4296875 0.888671875
vt 0.4296875 0.953125
vt 0.3359375 0.953125
vt 0.505859375 0.669921875
vt 0.505859375 0.685546875
vt 0.412109375 0.685546875
vt 0.412109375 0.669921875
vt 0.09375 0.716796875
vt 0.09375 0.703125
vt 0.1875 0.703125
vt 0.1875 0.716796875
vt 0.14453125 1
vt 0.14453125 0.984375
vt 0.17578125 0.96875
vt 0.17578125 0.984375
vt 0.095703125 0.650390625
vt 0.189453125 0.650390625
vt 0.189453125 0.685329296875
vt 0.095703125 0.685329296875
vt 0.505859375 0.634765625
vt 0.505859375 0.650390625
vt 0.412109375 0.650390625
vt 0.412109375 0.634765625
vt 0.47362998046875 0.71875
vt 0.47363181640625 0.765625
vt 0.37988181640625 0.76562869140625
vt 0.37987998046875 0.71875369140625
vt 0.189453125 0.650390625
vt 0.095703125 0.650390625
vt 0.095703125 0.603515625
vt 0.189453125 0.603515625
vt 0.14453125 0.984375
vt 0.14453125 1
vt 0.09765625 1
vt 0.09765625 0.984375
vt 0.216796875 0.912109375
vt 0.216796875 0.927734375
vt 0.15234375 0.927734375
vt 0.15234375 0.912109375
vt 0.380859375 0.88671875
vt 0.380859375 0.822265625
vt 0.474609375 0.822265625
vt 0.474609375 0.88671875
vt 0.31640625 0.5546875
vt 0.41015625 0.5546875
vt 0.41015625 0.619140625
vt 0.31640625 0.619140625
vt 0.505859375 0.6171875
vt 0.505859375 0.6328125
vt 0.412109375 0.6328125
vt 0.412109375 0.6171875
vt 0.28515625 0.955078125
vt 0.28515625 0.87919921875
vt 0.33203125 0.87919921875
vt 0.33203125 0.955078125
vt 0.376691796875 0.999609375
vt 0.28681640625 1
vt 0.28681640625 0.955078125
vt 0.33173828125 0.955078125
vt 0.107421875 0.9609375
vt 0.107421875 0.9765625
vt 0.076171875 0.9609375
vt 0.076171875 0.9453125
vt 0.47363181640625 0.765625
vt 0.473633203125 0.8005635156249999
vt 0.379850703125 0.79878876953125
vt 0.379882421875 0.76562869140625
vt 0.192382421875 0.76562869140625
vt 0.286132421875 0.76562869140625
vt 0.286132421875 0.80074353515625
vt 0.192382421875 0.80056541015625
vt 0.286132421875 0.76562869140625
vt 0.379882421875 0.76562869140625
vt 0.37985078125 0.79879041015625
vt 0.286132421875 0.79879041015625
vt 0.220703125 0.556640625
vt 0.314453125 0.556640625
vt 0.314453125 0.5859375
vt 0.267578125 0.5859375
vt 0.37890625 0.8359375
vt 0.33203125 0.87822265625
vt 0.28515625 0.87822265625
vt 0.28515625 0.8359375
vt 0.59765625 0.703125
vt 0.59765625 0.716796875
vt 0.31640625 0.716796875
vt 0.31640625 0.703125
vt 0.15234375 0.892578125
vt 0.21484375 0.892578125
vt 0.21484375 0.91015625
vt 0.15234375 0.91015625
vt 0.060546875 0.9453125
vt 0.07421875 0.9453125
vt 0.07421875 0.95703125
vt 0.216796875 0.95289791015625
vt 0.15234375 0.953125
vt 0.15234375 0.93461951171875
vt 0.216796875 0.934765859375
vt 0.07529150390625 0.859375
vt 0.06338037109375 0.859375
vt 0.06338533203125 0.845208203125
vt 0.09968009765625 0.787109375
vt 0.128963515625 0.787109375
vt 0.12883072265625 0.80078125
vt 0.099649765625 0.80067697265625
vt 0 0.716796875
vt 0.09375 0.716796875
vt 0.09375 0.78125
vt 0 0.78125
vt 0.1875 0.703125
vt 0.21875 0.703125
vt 0.21875 0.716796875
vt 0.1875 0.716796875
vt 0.220703125 0.71640625
vt 0.267578125 0.671875
vt 0.314453125 0.671875
vt 0.314453125 0.716796875
vt 0 0.9667244140625
vt 0.010416796875 0.9667244140625
vt 0.010416796875 1
vt 0 1
vt 0 0.9833623046875
vt 0.010416796875 0.9833623046875
vt 0.010416796875 1
vt 0 1
vt 0 0.9942130859375
vt 0.010416796875 0.9942130859375
vt 0.010416796875 1
vt 0 1
vt 0.03125 0.989583203125
vt 0.03125 1
vt 0 1
vt 0 0.989583203125
vt 0.03125 0.989583203125
vt 0.03125 1
vt 0 1
vt 0 0.989583203125
vt 0.03125 0.989583203125
vt 0.03125 1
vt 0 1
vt 0 0.989583203125
vt 0.010416796875 1
vt 0 1
vt 0 0.9667244140625
vt 0.010416796875 0.9667244140625
vt 0.010416796875 1
vt 0 1
vt 0 0.9833623046875
vt 0.010416796875 0.9833623046875
vt 0 0.9942130859375
vt 0.010416796875 0.9942130859375
vt 0.010416796875 1
vt 0 1
vt 0.010416796875 1
vt 0 1
vt 0 0.9891494140625
vt 0.010416796875 0.9891494140625
vt 0 0.994212890625
vt 0.01953125 0.994212890625
vt 0.01953125 1
vt 0 1
vt 0.0149740234375 0.999927734375
vt 0.0045572265625 1
vt 0 0.9955875
vt 0.01953125 0.9955875
vt 0 0.994212890625
vt 0.01953125 0.994212890625
vt 0.01953125 1
vt 0 1
vt 0.010416796875 1
vt 0 1
vt 0 0.9891494140625
vt 0.010416796875 0.9891494140625
vt 0.0149740234375 0.999927734375
vt 0.0045572265625 1
vt 0 0.9955875
vt 0.01953125 0.9955875
vt 0.09375 0.989583203125
vt 0.09375 1
vt 0 1
vt 0 0.989583203125
vt 0.010416796875 1
vt 0 1
vt 0 0.980976953125
vt 0.010416796875 0.980976953125
vt 0 0.980976953125
vt 0.010416796875 0.980976953125
vt 0.010416796875 1
vt 0 1
vt 0 0.9667244140625
vt 0.010416796875 0.9667244140625
vt 0.010416796875 1
vt 0 1
vt 0 0.977280859375
vt 0.010416796875 0.977280859375
vt 0.010416796875 1
vt 0 0.9995595703125
vt 0.032530859375 0.989583203125
vt 0.0318904296875 1
vt 0 1
vt 0.0006404296875 0.989583203125
vt 0.022714375 0.98957255859375
vt 0.0222836328125 1
vt 0 1
vt 1.953125e-7 0.9895940625
vt 0.010416796875 1
vt 0 1
vt 0 0.9667244140625
vt 0.010416796875 0.9667244140625
vt 0 1
vt 0 0.989583203125
vt 0.03125 0.989583203125
vt 0.03125 1
vn 5.947408907693422e-17 -0.8741573534350203 0.4856427920143375
vn -1.2246467991473532e-16 0 -1
vn 0 -1 0
vn -1 0 1.2246467991473532e-16
vn 0 -1 0
vn -1 0 1.2246467991473532e-16
vn -1.2246467991473532e-16 0 -1
vn 1.2246467991473532e-16 0 1
vn 0 1 0
vn 5.947408907693422e-17 -0.8741573534350203 0.4856427920143375
vn -1.2246467991473532e-16 0 -1
vn 0 -1 0
vn 0 -1 0
vn 0 1 0
vn 0 1 0
vn -1.2246467991473532e-16 0 -1
vn 0 1 0
vn 1 0 -1.2246467991473532e-16
vn 5.947408907693422e-17 -0.8741573534350203 0.4856427920143375
vn -1.2246467991473532e-16 0 -1
vn 0 -1 0
vn 0 -1 0
vn 1 0 -1.2246467991473532e-16
vn 1 0 -1.2246467991473532e-16
vn 0 1 0
vn 0 1 0
vn -1.2246467991473532e-16 0 -1
vn 1.2246467991473532e-16 0 1
vn -1 0 1.2246467991473532e-16
vn -0.004046765840878216 -0.8741494998522136 0.48564006794575154
vn 6.06003262947426e-17 -0.868984550792578 0.49483921680059023
vn 6.06003262947426e-17 -0.868984550792578 0.49483921680059023
vn 1.2246467991473532e-16 0 1
vn 1.2246467991473532e-16 0 1
vn 0 1 0
vn 8.445861821699826e-17 0.7241362335472716 0.6896569547709727
vn 1 0 -1.2246467991473532e-16
vn -0.0010390605418274163 0.7304951396485758 0.6829171042688843
vn -1 0 1.2246467991473532e-16
vn -0.0037060781511999144 0.9999931046791324 0.0002357518341895641
vn 0 1 0
vn 0 1 0
vn 1.2246467991473532e-16 0 1
vn 1.2246467991473532e-16 0 1
vn -5.947408907693422e-17 -0.8741573534350203 -0.4856427920143375
vn 1.2246467991473532e-16 0 1
vn 0 -1 0
vn 1 0 -1.2246467991473532e-16
vn 0 -1 0
vn 1 0 -1.2246467991473532e-16
vn 1.2246467991473532e-16 0 1
vn -1.2246467991473532e-16 0 -1
vn 0 1 0
vn -5.947408907693422e-17 -0.8741573534350203 -0.4856427920143375
vn 1.2246467991473532e-16 0 1
vn 0 -1 0
vn 0 -1 0
vn 0 1 0
vn 0 1 0
vn 1.2246467991473532e-16 0 1
vn 0.0000024999999996412153 0.9999999998499358 -0.00001714288163022782
vn -1 0 1.2246467991473532e-16
vn -5.947408907693422e-17 -0.8741573534350203 -0.4856427920143375
vn 1.2246467991473532e-16 0 1
vn 0 -1 0
vn 0 -1 0
vn -1 0 1.2246467991473532e-16
vn -1 0 1.2246467991473532e-16
vn 0 1 0
vn 0 1 0
vn 1.2246467991473532e-16 0 1
vn -1.2246467991473532e-16 0 -1
vn -1.2246467991473532e-16 0 -1
vn 1 0 -1.2246467991473532e-16
vn 0.004046765840878216 -0.8741494998522136 -0.48564006794575154
vn -6.06003262947426e-17 -0.868984550792578 -0.49483921680059023
vn -6.06003262947426e-17 -0.868984550792578 -0.49483921680059023
vn -1.2246467991473532e-16 0 -1
vn -1.2246467991473532e-16 0 -1
vn 0 1 0
vn -8.445861821699826e-17 0.7241362335472716 -0.6896569547709727
vn -1 0 1.2246467991473532e-16
vn 0.0010390605418274712 0.7304951396485759 -0.6829171042688841
vn 1 0 -1.2246467991473532e-16
vn 0.003706078151199915 0.9999931046791324 -0.0002357518341895641
vn 0 1 0
vn 0 1 0
vn -1.2246467991473532e-16 0 -1
vn 1 0 -1.2246467991473532e-16
vn 1 0 -1.2246467991473532e-16
vn -1 0 1.2246467991473532e-16
vn 0 -1 0
vn 0 -1 0
vn 0 -1 0
vn -1 0 1.2246467991473532e-16
vn -1 0 1.2246467991473532e-16
vn 1 0 -1.2246467991473532e-16
vn -1 0 1.2246467991473532e-16
vn 1 0 -1.2246467991473532e-16
vn -1 0 1.2246467991473532e-16
vn -1 0 1.2246467991473532e-16
vn 1 0 -1.2246467991473532e-16
vn 1 0 -1.2246467991473532e-16
vn 0 1 0
vn -0.7103563099968913 0.7038422499733876 8.69935581291818e-17
vn 0.7103545665846253 0.70384400949678 0.000005278823472644099
vn 1 0 -1.2246467991473532e-16
vn 0.7071067811865476 -0.7071067811865476 -8.659560562354934e-17
vn 0 -1 0
vn -0.7071067811865476 -0.7071067811865476 8.659560562354934e-17
vn -1 0 1.2246467991473532e-16
vn 0.000002500000000008566 0.999999999996875 -3.061616997878873e-22
usemtl m_cb3fe3fd-8ced-ee48-9937-9f941e8d8a43
f 9/1/1 10/2/1 1/3/1 4/4/1
f 3/5/2 2/6/2 5/7/2 6/8/2
f 3/9/3 7/10/3 8/11/3 6/12/3
f 9/13/4 8/14/4 6/15/4 5/16/4
f 10/17/5 9/18/5 5/19/5 2/20/5
f 15/21/6 16/22/6 14/23/6 13/24/6
f 12/25/7 11/26/7 13/27/7 14/28/7
f 79/29/8 21/30/8 20/31/8 22/32/8
f 16/33/9 17/34/9 12/35/9 14/36/9
f 37/37/10 27/38/10 23/39/10 33/40/10
f 25/41/11 24/42/11 34/43/11 35/44/11
f 25/45/12 26/46/12 36/47/12 35/48/12
f 27/49/13 37/50/13 34/51/13 24/52/13
f 38/53/14 40/54/14 30/55/14 28/56/14
f 41/57/15 31/58/15 29/59/15 39/60/15
f 29/61/16 28/62/16 38/63/16 39/64/16
f 40/65/17 19/66/17 32/67/17 30/68/17
f 53/69/18 50/70/18 44/71/18 42/72/18
f 52/73/19 53/74/19 42/75/19 46/76/19
f 45/77/20 43/78/20 47/79/20 49/80/20
f 45/81/21 50/82/21 51/83/21 49/84/21
f 53/85/22 52/86/22 47/87/22 43/88/22
f 50/89/23 53/90/23 43/91/23 45/92/23
f 63/93/24 60/94/24 55/95/24 57/96/24
f 58/97/25 61/98/25 60/99/25 55/100/25
f 62/101/26 63/102/26 57/103/26 59/104/26
f 57/105/27 55/106/27 58/107/27 59/108/27
f 48/109/28 44/110/28 68/111/28 69/112/28
f 8/113/29 9/114/29 4/115/29 78/116/29
f 50/117/30 44/118/30 48/119/30 51/120/30
f 8/121/31 7/122/31 80/123/31 78/124/31
f 7/125/32 51/126/32 48/127/32 80/128/32
f 19/129/33 18/130/33 20/131/33 21/132/33
f 64/133/34 66/134/34 67/135/34 65/136/34
f 56/137/35 63/138/35 16/139/35 70/140/35
f 60/141/36 72/142/36 73/143/36 54/144/36
f 72/145/37 74/146/37 73/147/37
f 71/148/38 75/149/38 76/150/38 15/151/38
f 75/152/39 77/153/39 76/154/39
f 40/155/40 76/156/40 77/157/40 19/158/40
f 15/159/41 40/160/41 38/161/41 13/162/41
f 32/163/42 74/164/42 72/165/42 30/166/42
f 80/167/43 79/168/43 22/169/43 78/170/43
f 68/171/44 67/172/44 66/173/44 69/174/44
f 89/175/45 90/176/45 81/177/45 84/178/45
f 83/179/46 82/180/46 85/181/46 86/182/46
f 83/183/47 87/184/47 88/185/47 86/186/47
f 89/187/48 88/188/48 86/189/48 85/190/48
f 90/191/49 89/192/49 85/193/49 82/194/49
f 95/195/50 96/196/50 94/197/50 93/198/50
f 92/199/51 91/200/51 93/201/51 94/202/51
f 159/203/52 101/204/52 100/205/52 102/206/52
f 96/207/53 97/208/53 92/209/53 94/210/53
f 117/211/54 107/212/54 103/213/54 113/214/54
f 105/215/55 104/216/55 114/217/55 115/218/55
f 105/219/56 106/220/56 116/221/56 115/222/56
f 107/223/57 117/224/57 114/225/57 104/226/57
f 118/227/58 120/228/58 110/229/58 108/230/58
f 121/231/59 111/232/59 109/233/59 119/234/59
f 109/235/60 108/236/60 118/237/60 119/238/60
f 120/239/61 99/240/61 112/241/61 110/242/61
f 133/243/62 130/244/62 124/245/62 122/246/62
f 132/247/63 133/248/63 122/249/63 126/250/63
f 125/251/64 123/252/64 127/253/64 129/254/64
f 125/255/65 130/256/65 131/257/65 129/258/65
f 133/259/66 132/260/66 127/261/66 123/262/66
f 130/263/67 133/264/67 123/265/67 125/266/67
f 143/267/68 140/268/68 135/269/68 137/270/68
f 138/271/69 141/272/69 140/273/69 135/274/69
f 142/275/70 143/276/70 137/277/70 139/278/70
f 137/279/71 135/280/71 138/281/71 139/282/71
f 148/283/72 147/284/72 146/285/72 149/286/72
f 128/287/73 124/288/73 148/289/73 149/290/73
f 88/291/74 89/292/74 84/293/74 158/294/74
f 130/295/75 124/296/75 128/297/75 131/298/75
f 88/299/76 87/300/76 160/301/76 158/302/76
f 87/303/77 131/304/77 128/305/77 160/306/77
f 99/307/78 98/308/78 100/309/78 101/310/78
f 144/311/79 146/312/79 147/313/79 145/314/79
f 136/315/80 143/316/80 96/317/80 150/318/80
f 140/319/81 152/320/81 153/321/81 134/322/81
f 152/323/82 154/324/82 153/325/82
f 151/326/83 155/327/83 156/328/83 95/329/83
f 155/330/84 157/331/84 156/332/84
f 120/333/85 156/334/85 157/335/85 99/336/85
f 95/337/86 120/338/86 118/339/86 93/340/86
f 112/341/87 154/342/87 152/343/87 110/344/87
f 160/345/88 159/346/88 102/347/88 158/348/88
f 20/349/89 147/350/89 148/351/89 22/352/89
f 22/353/90 148/354/90 124/355/90 78/356/90
f 124/357/91 78/358/91 4/359/91 122/360/91
f 1/361/92 126/362/92 122/363/92 4/364/92
f 23/365/93 113/366/93 103/367/93 33/368/93
f 42/369/94 84/370/94 81/371/94 46/372/94
f 68/373/95 102/374/95 100/375/95 67/376/95
f 44/377/96 158/378/96 102/379/96 68/380/96
f 44/381/97 158/382/97 84/383/97 42/384/97
f 67/385/98 100/386/98 98/387/98 65/388/98
f 63/389/99 96/390/99 95/391/99 60/392/99
f 54/393/100 151/394/100 95/395/100 60/396/100
f 143/397/101 16/398/101 15/399/101 140/400/101
f 147/401/102 20/402/102 18/403/102 145/404/102
f 134/405/103 71/406/103 15/407/103 140/408/103
f 150/409/104 56/410/104 70/411/104 136/412/104
f 21/413/105 146/414/105 144/415/105 19/416/105
f 64/417/106 99/418/106 101/419/106 66/420/106
f 66/421/107 101/422/107 159/423/107 69/424/107
f 69/425/108 159/426/108 160/427/108 48/428/108
f 48/429/109 160/430/109 128/431/109 80/432/109
f 80/433/110 128/434/110 149/435/110 79/436/110
f 79/437/111 149/438/111 146/439/111 21/440/111
f 19/441/112 112/442/112 99/443/112 32/444/112